<svg width="240" height="240" viewBox="0 0 240 240" fill="none" xmlns="http://www.w3.org/2000/svg">
<circle cx="120" cy="120" r="120" fill="#F9F9FF"/>
<path d="M120.26 140.993C107.662 140.993 95.0641 140.993 82.4661 140.993C81.8507 140.993 81.2273 140.993 80.6093 140.929C77.4554 140.634 76.1874 138.503 77.5323 135.622C78.6994 133.134 79.9727 130.711 81.2088 128.25C87.0445 116.663 92.8802 105.078 98.7159 93.4953C98.8962 93.1415 99.0846 92.7876 99.2941 92.4498C100.764 90.0874 103.151 89.7548 105.032 91.7927C106.358 93.2186 107.48 94.8202 108.663 96.3658C114.676 104.246 120.688 112.129 126.701 120.016C129.327 123.448 132.635 123.634 135.719 120.548C137.25 119.016 138.746 117.444 140.295 115.925C143.088 113.185 146.258 113.349 148.539 116.545C153.118 122.956 157.582 129.453 162.068 135.928C162.418 136.436 162.687 136.996 162.863 137.588C163.298 139.075 162.683 140.272 161.179 140.669C160.236 140.895 159.268 141 158.298 140.98C145.626 141.001 132.947 141.006 120.26 140.993Z" fill="#D4D2E3"/>
<path d="M148.513 77.504C148.51 79.9771 147.774 82.3935 146.4 84.447C145.026 86.5004 143.075 88.0984 140.794 89.0383C138.513 89.9782 136.005 90.2178 133.588 89.7265C131.172 89.2353 128.955 88.0354 127.219 86.279C125.483 84.5226 124.306 82.2888 123.837 79.8608C123.369 77.4328 123.629 74.9199 124.587 72.6407C125.544 70.3614 127.154 68.4186 129.213 67.0584C131.273 65.6982 133.689 64.9819 136.154 65.0003C139.438 65.0422 142.574 66.3764 144.885 68.7153C147.197 71.0543 148.5 74.2106 148.513 77.504Z" fill="#D4D2E3"/>
</svg>
