<svg width="1043" height="131" viewBox="0 0 1043 131" fill="none" xmlns="http://www.w3.org/2000/svg">
<path d="M156.546 20V16.3182C156.546 15.2727 156.751 14.2045 157.16 13.1136C157.569 12.0227 158.109 10.9943 158.779 10.0284C159.45 9.0625 160.177 8.25568 160.961 7.60795L164.166 9.5C163.529 10.5 163.007 11.5455 162.598 12.6364C162.2 13.7273 162.001 14.9432 162.001 16.2841V20H156.546ZM165.154 20V16.3182C165.154 15.2727 165.359 14.2045 165.768 13.1136C166.177 12.0227 166.717 10.9943 167.387 10.0284C168.058 9.0625 168.785 8.25568 169.569 7.60795L172.774 9.5C172.137 10.5 171.615 11.5455 171.206 12.6364C170.808 13.7273 170.609 14.9432 170.609 16.2841V20H165.154ZM176.708 9.09091H185.811L195.424 32.5455H195.833L205.447 9.09091H214.549V44H207.39V21.2784H207.101L198.066 43.8295H193.191L184.157 21.1932H183.868V44H176.708V9.09091ZM231.844 44.5114C229.196 44.5114 226.906 43.9489 224.974 42.8239C223.054 41.6875 221.571 40.108 220.525 38.0852C219.48 36.0511 218.957 33.6932 218.957 31.0114C218.957 28.3068 219.48 25.9432 220.525 23.9205C221.571 21.8864 223.054 20.3068 224.974 19.1818C226.906 18.0455 229.196 17.4773 231.844 17.4773C234.491 17.4773 236.775 18.0455 238.696 19.1818C240.628 20.3068 242.116 21.8864 243.162 23.9205C244.207 25.9432 244.73 28.3068 244.73 31.0114C244.73 33.6932 244.207 36.0511 243.162 38.0852C242.116 40.108 240.628 41.6875 238.696 42.8239C236.775 43.9489 234.491 44.5114 231.844 44.5114ZM231.878 38.8864C233.082 38.8864 234.088 38.5455 234.895 37.8636C235.701 37.1705 236.309 36.2273 236.719 35.0341C237.139 33.8409 237.349 32.483 237.349 30.9602C237.349 29.4375 237.139 28.0795 236.719 26.8864C236.309 25.6932 235.701 24.75 234.895 24.0568C234.088 23.3636 233.082 23.017 231.878 23.017C230.662 23.017 229.639 23.3636 228.809 24.0568C227.991 24.75 227.372 25.6932 226.951 26.8864C226.542 28.0795 226.338 29.4375 226.338 30.9602C226.338 32.483 226.542 33.8409 226.951 35.0341C227.372 36.2273 227.991 37.1705 228.809 37.8636C229.639 38.5455 230.662 38.8864 231.878 38.8864ZM270.756 25.2841L264.108 25.6932C263.994 25.125 263.75 24.6136 263.375 24.1591C263 23.6932 262.506 23.3239 261.892 23.0511C261.29 22.767 260.568 22.625 259.727 22.625C258.602 22.625 257.653 22.8636 256.881 23.3409C256.108 23.8068 255.721 24.4318 255.721 25.2159C255.721 25.8409 255.971 26.3693 256.471 26.8011C256.971 27.233 257.829 27.5795 259.045 27.8409L263.784 28.7955C266.329 29.3182 268.227 30.1591 269.477 31.3182C270.727 32.4773 271.352 34 271.352 35.8864C271.352 37.6023 270.846 39.108 269.835 40.4034C268.835 41.6989 267.46 42.7102 265.71 43.4375C263.971 44.1534 261.966 44.5114 259.693 44.5114C256.227 44.5114 253.466 43.7898 251.409 42.3466C249.364 40.892 248.165 38.9148 247.812 36.4148L254.954 36.0398C255.17 37.0966 255.693 37.9034 256.523 38.4602C257.352 39.0057 258.415 39.2784 259.71 39.2784C260.983 39.2784 262.006 39.0341 262.778 38.5455C263.562 38.0455 263.96 37.4034 263.971 36.6193C263.96 35.9602 263.682 35.4205 263.136 35C262.591 34.5682 261.75 34.2386 260.614 34.0114L256.079 33.108C253.523 32.5966 251.619 31.7102 250.369 30.4489C249.131 29.1875 248.511 27.5795 248.511 25.625C248.511 23.9432 248.966 22.4943 249.875 21.2784C250.795 20.0625 252.085 19.125 253.744 18.4659C255.415 17.8068 257.369 17.4773 259.608 17.4773C262.915 17.4773 265.517 18.1761 267.415 19.5739C269.324 20.9716 270.437 22.875 270.756 25.2841ZM289.371 17.8182V23.2727H273.604V17.8182H289.371ZM277.183 11.5455H284.445V35.9545C284.445 36.625 284.547 37.1477 284.751 37.5227C284.956 37.8864 285.24 38.142 285.604 38.2898C285.979 38.4375 286.411 38.5114 286.899 38.5114C287.24 38.5114 287.581 38.483 287.922 38.4261C288.263 38.358 288.524 38.3068 288.706 38.2727L289.848 43.6761C289.484 43.7898 288.973 43.9205 288.314 44.0682C287.655 44.2273 286.854 44.3239 285.911 44.358C284.161 44.4261 282.626 44.1932 281.308 43.6591C280.001 43.125 278.984 42.2955 278.257 41.1705C277.53 40.0455 277.172 38.625 277.183 36.9091V11.5455ZM309.415 44L302.29 17.8182H309.637L313.693 35.4091H313.932L318.159 17.8182H325.37L329.665 35.3068H329.887L333.875 17.8182H341.205L334.097 44H326.409L321.909 27.5341H321.585L317.085 44H309.415ZM344.598 44V17.8182H351.86V44H344.598ZM348.246 14.4432C347.167 14.4432 346.24 14.0852 345.468 13.3693C344.706 12.642 344.326 11.7727 344.326 10.7614C344.326 9.76136 344.706 8.90341 345.468 8.1875C346.24 7.46023 347.167 7.09659 348.246 7.09659C349.326 7.09659 350.246 7.46023 351.007 8.1875C351.78 8.90341 352.167 9.76136 352.167 10.7614C352.167 11.7727 351.78 12.642 351.007 13.3693C350.246 14.0852 349.326 14.4432 348.246 14.4432ZM364.458 9.09091V44H357.196V9.09091H364.458ZM377.056 9.09091V44H369.795V9.09091H377.056ZM398.187 44L391.062 17.8182H398.408L402.465 35.4091H402.704L406.931 17.8182H414.141L418.437 35.3068H418.658L422.647 17.8182H429.977L422.869 44H415.181L410.681 27.5341H410.357L405.857 44H398.187ZM440.836 44.4943C439.166 44.4943 437.677 44.2045 436.37 43.625C435.063 43.0341 434.029 42.1648 433.268 41.017C432.518 39.858 432.143 38.4148 432.143 36.6875C432.143 35.233 432.41 34.0114 432.944 33.0227C433.478 32.0341 434.205 31.2386 435.126 30.6364C436.046 30.0341 437.092 29.5795 438.262 29.2727C439.444 28.9659 440.683 28.75 441.978 28.625C443.501 28.4659 444.728 28.3182 445.66 28.1818C446.592 28.0341 447.268 27.8182 447.688 27.5341C448.109 27.25 448.319 26.8295 448.319 26.2727V26.1705C448.319 25.0909 447.978 24.2557 447.296 23.6648C446.626 23.0739 445.671 22.7784 444.433 22.7784C443.126 22.7784 442.086 23.0682 441.313 23.6477C440.541 24.2159 440.029 24.9318 439.779 25.7955L433.063 25.25C433.404 23.6591 434.075 22.2841 435.075 21.125C436.075 19.9545 437.365 19.0568 438.944 18.4318C440.535 17.7955 442.376 17.4773 444.467 17.4773C445.921 17.4773 447.313 17.6477 448.643 17.9886C449.984 18.3295 451.171 18.858 452.205 19.5739C453.251 20.2898 454.075 21.2102 454.677 22.3352C455.279 23.4489 455.58 24.7841 455.58 26.3409V44H448.694V40.3693H448.49C448.069 41.1875 447.507 41.9091 446.802 42.5341C446.098 43.1477 445.251 43.6307 444.262 43.983C443.274 44.3239 442.132 44.4943 440.836 44.4943ZM442.916 39.483C443.984 39.483 444.927 39.2727 445.745 38.8523C446.563 38.4205 447.205 37.8409 447.671 37.1136C448.137 36.3864 448.37 35.5625 448.37 34.642V31.8636C448.143 32.0114 447.83 32.1477 447.433 32.2727C447.046 32.3864 446.609 32.4943 446.12 32.5966C445.632 32.6875 445.143 32.7727 444.654 32.8523C444.166 32.9205 443.723 32.983 443.325 33.0398C442.473 33.1648 441.728 33.3636 441.092 33.6364C440.455 33.9091 439.961 34.2784 439.609 34.7443C439.257 35.1989 439.08 35.767 439.08 36.4489C439.08 37.4375 439.438 38.1932 440.154 38.7159C440.882 39.2273 441.802 39.483 442.916 39.483ZM474.66 17.8182V23.2727H458.893V17.8182H474.66ZM462.473 11.5455H469.734V35.9545C469.734 36.625 469.836 37.1477 470.041 37.5227C470.245 37.8864 470.529 38.142 470.893 38.2898C471.268 38.4375 471.7 38.5114 472.189 38.5114C472.529 38.5114 472.87 38.483 473.211 38.4261C473.552 38.358 473.814 38.3068 473.995 38.2727L475.137 43.6761C474.774 43.7898 474.262 43.9205 473.603 44.0682C472.944 44.2273 472.143 44.3239 471.2 44.358C469.45 44.4261 467.916 44.1932 466.598 43.6591C465.291 43.125 464.274 42.2955 463.547 41.1705C462.819 40.0455 462.461 38.625 462.473 36.9091V11.5455ZM490.459 44.5114C487.777 44.5114 485.47 43.9432 483.538 42.8068C481.618 41.6591 480.14 40.0682 479.106 38.0341C478.084 36 477.572 33.6591 477.572 31.0114C477.572 28.3295 478.089 25.9773 479.123 23.9545C480.169 21.9205 481.652 20.3352 483.572 19.1989C485.493 18.0511 487.777 17.4773 490.424 17.4773C492.709 17.4773 494.709 17.892 496.424 18.7216C498.14 19.5511 499.498 20.7159 500.498 22.2159C501.498 23.7159 502.049 25.4773 502.152 27.5H495.299C495.106 26.1932 494.595 25.142 493.765 24.3466C492.947 23.5398 491.873 23.1364 490.544 23.1364C489.419 23.1364 488.436 23.4432 487.595 24.0568C486.765 24.6591 486.118 25.5398 485.652 26.6989C485.186 27.858 484.953 29.2614 484.953 30.9091C484.953 32.5795 485.18 34 485.635 35.1705C486.101 36.3409 486.754 37.233 487.595 37.8466C488.436 38.4602 489.419 38.767 490.544 38.767C491.373 38.767 492.118 38.5966 492.777 38.2557C493.447 37.9148 493.998 37.4205 494.43 36.7727C494.873 36.1136 495.163 35.3239 495.299 34.4034H502.152C502.038 36.4034 501.493 38.1648 500.515 39.6875C499.549 41.1989 498.214 42.3807 496.51 43.233C494.805 44.0852 492.788 44.5114 490.459 44.5114ZM513.582 28.8636V44H506.321V9.09091H513.378V22.4375H513.684C514.275 20.892 515.23 19.6818 516.548 18.8068C517.866 17.9205 519.52 17.4773 521.508 17.4773C523.327 17.4773 524.912 17.875 526.264 18.6705C527.628 19.4545 528.684 20.5852 529.434 22.0625C530.196 23.5284 530.571 25.2841 530.559 27.3295V44H523.298V28.625C523.309 27.0114 522.9 25.7557 522.071 24.858C521.253 23.9602 520.105 23.5114 518.628 23.5114C517.639 23.5114 516.764 23.7216 516.003 24.142C515.253 24.5625 514.662 25.1761 514.23 25.983C513.809 26.7784 513.594 27.7386 513.582 28.8636ZM540.038 44.4432C538.913 44.4432 537.947 44.0455 537.141 43.25C536.345 42.4432 535.947 41.4773 535.947 40.3523C535.947 39.2386 536.345 38.2841 537.141 37.4886C537.947 36.6932 538.913 36.2955 540.038 36.2955C541.129 36.2955 542.084 36.6932 542.902 37.4886C543.72 38.2841 544.129 39.2386 544.129 40.3523C544.129 41.1023 543.936 41.7898 543.55 42.4148C543.175 43.0284 542.68 43.5227 542.067 43.8977C541.453 44.2614 540.777 44.4432 540.038 44.4432ZM564.753 44H556.844L568.895 9.09091H578.406L590.441 44H582.531L573.787 17.0682H573.514L564.753 44ZM564.259 30.2784H582.941V36.0398H564.259V30.2784ZM618.735 17.8182V23.2727H602.576V17.8182H618.735ZM606.275 44V15.9261C606.275 14.0284 606.644 12.4545 607.383 11.2045C608.133 9.95454 609.155 9.01704 610.451 8.39204C611.746 7.76704 613.218 7.45454 614.865 7.45454C615.979 7.45454 616.996 7.53977 617.917 7.71023C618.848 7.88068 619.542 8.03409 619.996 8.17045L618.701 13.625C618.417 13.5341 618.064 13.4489 617.644 13.3693C617.235 13.2898 616.814 13.25 616.383 13.25C615.314 13.25 614.57 13.5 614.15 14C613.729 14.4886 613.519 15.1761 613.519 16.0625V44H606.275ZM633.685 44.5114C630.992 44.5114 628.674 43.9659 626.731 42.875C624.799 41.7727 623.31 40.2159 622.265 38.2045C621.219 36.1818 620.697 33.7898 620.697 31.0284C620.697 28.3352 621.219 25.9716 622.265 23.9375C623.31 21.9034 624.782 20.3182 626.68 19.1818C628.589 18.0455 630.827 17.4773 633.395 17.4773C635.123 17.4773 636.731 17.7557 638.219 18.3125C639.719 18.858 641.026 19.6818 642.14 20.7841C643.265 21.8864 644.14 23.2727 644.765 24.9432C645.39 26.6023 645.702 28.5455 645.702 30.7727V32.767H623.594V28.267H638.867C638.867 27.2216 638.64 26.2955 638.185 25.4886C637.731 24.6818 637.1 24.0511 636.293 23.5966C635.498 23.1307 634.572 22.8977 633.515 22.8977C632.412 22.8977 631.435 23.1534 630.583 23.6648C629.742 24.1648 629.083 24.8409 628.606 25.6932C628.128 26.5341 627.884 27.4716 627.873 28.5057V32.7841C627.873 34.0795 628.111 35.1989 628.589 36.142C629.077 37.0852 629.765 37.8125 630.651 38.3239C631.537 38.8352 632.589 39.0909 633.805 39.0909C634.611 39.0909 635.35 38.9773 636.02 38.75C636.691 38.5227 637.265 38.1818 637.742 37.7273C638.219 37.2727 638.583 36.7159 638.833 36.0568L645.549 36.5C645.208 38.1136 644.509 39.5227 643.452 40.7273C642.407 41.9205 641.055 42.8523 639.395 43.5227C637.748 44.1818 635.844 44.5114 633.685 44.5114ZM654.938 44L647.813 17.8182H655.16L659.217 35.4091H659.455L663.682 17.8182H670.893L675.188 35.3068H675.41L679.398 17.8182H686.728L679.62 44H671.932L667.432 27.5341H667.109L662.609 44H654.938ZM705.916 44L698.791 17.8182H706.137L710.194 35.4091H710.433L714.66 17.8182H721.87L726.166 35.3068H726.387L730.376 17.8182H737.705L730.597 44H722.91L718.41 27.5341H718.086L713.586 44H705.916ZM741.099 44V17.8182H748.36V44H741.099ZM744.747 14.4432C743.667 14.4432 742.741 14.0852 741.968 13.3693C741.207 12.642 740.826 11.7727 740.826 10.7614C740.826 9.76136 741.207 8.90341 741.968 8.1875C742.741 7.46023 743.667 7.09659 744.747 7.09659C745.826 7.09659 746.747 7.46023 747.508 8.1875C748.281 8.90341 748.667 9.76136 748.667 10.7614C748.667 11.7727 748.281 12.642 747.508 13.3693C746.747 14.0852 745.826 14.4432 744.747 14.4432ZM760.959 9.09091V44H753.697V9.09091H760.959ZM773.557 9.09091V44H766.295V9.09091H773.557ZM796.989 44.4943C795.318 44.4943 793.83 44.2045 792.523 43.625C791.216 43.0341 790.182 42.1648 789.42 41.017C788.67 39.858 788.295 38.4148 788.295 36.6875C788.295 35.233 788.563 34.0114 789.097 33.0227C789.631 32.0341 790.358 31.2386 791.278 30.6364C792.199 30.0341 793.244 29.5795 794.415 29.2727C795.597 28.9659 796.835 28.75 798.131 28.625C799.653 28.4659 800.881 28.3182 801.812 28.1818C802.744 28.0341 803.42 27.8182 803.841 27.5341C804.261 27.25 804.472 26.8295 804.472 26.2727V26.1705C804.472 25.0909 804.131 24.2557 803.449 23.6648C802.778 23.0739 801.824 22.7784 800.585 22.7784C799.278 22.7784 798.239 23.0682 797.466 23.6477C796.693 24.2159 796.182 24.9318 795.932 25.7955L789.216 25.25C789.557 23.6591 790.227 22.2841 791.227 21.125C792.227 19.9545 793.517 19.0568 795.097 18.4318C796.688 17.7955 798.528 17.4773 800.619 17.4773C802.074 17.4773 803.466 17.6477 804.795 17.9886C806.136 18.3295 807.324 18.858 808.358 19.5739C809.403 20.2898 810.227 21.2102 810.83 22.3352C811.432 23.4489 811.733 24.7841 811.733 26.3409V44H804.847V40.3693H804.642C804.222 41.1875 803.659 41.9091 802.955 42.5341C802.25 43.1477 801.403 43.6307 800.415 43.983C799.426 44.3239 798.284 44.4943 796.989 44.4943ZM799.068 39.483C800.136 39.483 801.08 39.2727 801.898 38.8523C802.716 38.4205 803.358 37.8409 803.824 37.1136C804.29 36.3864 804.523 35.5625 804.523 34.642V31.8636C804.295 32.0114 803.983 32.1477 803.585 32.2727C803.199 32.3864 802.761 32.4943 802.273 32.5966C801.784 32.6875 801.295 32.7727 800.807 32.8523C800.318 32.9205 799.875 32.983 799.477 33.0398C798.625 33.1648 797.881 33.3636 797.244 33.6364C796.608 33.9091 796.114 34.2784 795.761 34.7443C795.409 35.1989 795.233 35.767 795.233 36.4489C795.233 37.4375 795.591 38.1932 796.307 38.7159C797.034 39.2273 797.955 39.483 799.068 39.483ZM828.716 44.5114C826.034 44.5114 823.727 43.9432 821.796 42.8068C819.875 41.6591 818.398 40.0682 817.364 38.0341C816.341 36 815.83 33.6591 815.83 31.0114C815.83 28.3295 816.347 25.9773 817.381 23.9545C818.426 21.9205 819.909 20.3352 821.83 19.1989C823.75 18.0511 826.034 17.4773 828.682 17.4773C830.966 17.4773 832.966 17.892 834.682 18.7216C836.398 19.5511 837.756 20.7159 838.756 22.2159C839.756 23.7159 840.307 25.4773 840.409 27.5H833.557C833.364 26.1932 832.852 25.142 832.023 24.3466C831.205 23.5398 830.131 23.1364 828.801 23.1364C827.676 23.1364 826.693 23.4432 825.852 24.0568C825.023 24.6591 824.375 25.5398 823.909 26.6989C823.443 27.858 823.21 29.2614 823.21 30.9091C823.21 32.5795 823.438 34 823.892 35.1705C824.358 36.3409 825.011 37.233 825.852 37.8466C826.693 38.4602 827.676 38.767 828.801 38.767C829.631 38.767 830.375 38.5966 831.034 38.2557C831.705 37.9148 832.256 37.4205 832.688 36.7727C833.131 36.1136 833.421 35.3239 833.557 34.4034H840.409C840.296 36.4034 839.75 38.1648 838.773 39.6875C837.807 41.1989 836.472 42.3807 834.767 43.233C833.063 44.0852 831.046 44.5114 828.716 44.5114ZM858.505 17.8182V23.2727H842.737V17.8182H858.505ZM846.317 11.5455H853.578V35.9545C853.578 36.625 853.681 37.1477 853.885 37.5227C854.09 37.8864 854.374 38.142 854.737 38.2898C855.112 38.4375 855.544 38.5114 856.033 38.5114C856.374 38.5114 856.715 38.483 857.056 38.4261C857.397 38.358 857.658 38.3068 857.84 38.2727L858.982 43.6761C858.618 43.7898 858.107 43.9205 857.448 44.0682C856.789 44.2273 855.987 44.3239 855.044 44.358C853.294 44.4261 851.76 44.1932 850.442 43.6591C849.135 43.125 848.118 42.2955 847.391 41.1705C846.664 40.0455 846.306 38.625 846.317 36.9091V11.5455ZM866.999 44.4432C865.874 44.4432 864.908 44.0455 864.101 43.25C863.306 42.4432 862.908 41.4773 862.908 40.3523C862.908 39.2386 863.306 38.2841 864.101 37.4886C864.908 36.6932 865.874 36.2955 866.999 36.2955C868.09 36.2955 869.044 36.6932 869.863 37.4886C870.681 38.2841 871.09 39.2386 871.09 40.3523C871.09 41.1023 870.897 41.7898 870.51 42.4148C870.135 43.0284 869.641 43.5227 869.027 43.8977C868.414 44.2614 867.738 44.4432 866.999 44.4432ZM877.875 9.09091V12.7727C877.875 13.8182 877.671 14.8864 877.262 15.9773C876.864 17.0568 876.33 18.0795 875.66 19.0455C874.989 20 874.256 20.8125 873.461 21.483L870.256 19.5909C870.824 18.6932 871.324 17.6989 871.756 16.608C872.199 15.517 872.421 14.25 872.421 12.8068V9.09091H877.875ZM886.449 9.09091V12.7727C886.449 13.8182 886.245 14.8864 885.836 15.9773C885.438 17.0568 884.904 18.0795 884.233 19.0455C883.563 20 882.824 20.8125 882.017 21.483L878.813 19.5909C879.392 18.6932 879.898 17.6989 880.33 16.608C880.773 15.517 880.995 14.25 880.995 12.8068V9.09091H886.449Z" fill="white"/>
<path d="M4.80482 97V62.0909H16.5832C18.856 62.0909 20.748 62.4886 22.2594 63.2841C23.7821 64.0795 24.9241 65.1648 25.6855 66.5398C26.4469 67.9148 26.8275 69.4773 26.8275 71.2273C26.8275 72.6818 26.5832 73.9261 26.0946 74.9602C25.606 75.9943 24.9412 76.8295 24.1003 77.4659C23.2594 78.1023 22.3219 78.5625 21.2878 78.8466V79.1193C22.4128 79.1989 23.5037 79.5966 24.5605 80.3125C25.6173 81.017 26.4866 82.0057 27.1685 83.2784C27.8503 84.5511 28.1912 86.0739 28.1912 87.8466C28.1912 89.608 27.7991 91.1818 27.015 92.5682C26.231 93.9432 25.0264 95.0284 23.4014 95.8239C21.7878 96.608 19.731 97 17.231 97H4.80482ZM7.99232 94.1364H17.231C19.9241 94.1364 21.9128 93.5398 23.1969 92.3466C24.4923 91.1534 25.14 89.6534 25.14 87.8466C25.14 86.517 24.8162 85.3125 24.1685 84.233C23.5321 83.142 22.6287 82.2784 21.4582 81.642C20.2991 81.0057 18.9355 80.6875 17.3673 80.6875H7.99232V94.1364ZM7.99232 77.858H16.873C18.248 77.858 19.4525 77.5739 20.4866 77.0057C21.5207 76.4375 22.3275 75.6534 22.9071 74.6534C23.4866 73.6534 23.7764 72.5114 23.7764 71.2273C23.7764 69.375 23.1741 67.8693 21.9696 66.7102C20.765 65.5398 18.9696 64.9545 16.5832 64.9545H7.99232V77.858ZM45.3575 97.5455C42.9143 97.5455 40.8007 96.9773 39.0166 95.8409C37.2325 94.6932 35.8518 93.108 34.8745 91.0852C33.9086 89.0511 33.4257 86.7102 33.4257 84.0625C33.4257 81.4261 33.9086 79.0852 34.8745 77.0398C35.8518 74.983 37.1984 73.375 38.9143 72.2159C40.6416 71.0455 42.6359 70.4602 44.8973 70.4602C46.3177 70.4602 47.687 70.7216 49.0052 71.2443C50.3234 71.7557 51.5052 72.5455 52.5507 73.6136C53.6075 74.6705 54.4427 76.0057 55.0564 77.6193C55.67 79.2216 55.9768 81.1193 55.9768 83.3125V84.8125H35.5223V82.1364H52.8745C52.8745 80.4545 52.5336 78.9432 51.8518 77.6023C51.1814 76.25 50.2439 75.1818 49.0393 74.3977C47.8461 73.6136 46.4654 73.2216 44.8973 73.2216C43.2382 73.2216 41.7779 73.6648 40.5166 74.5511C39.2552 75.4375 38.2666 76.608 37.5507 78.0625C36.8461 79.517 36.4882 81.108 36.4768 82.8352V84.4375C36.4768 86.517 36.8348 88.3352 37.5507 89.892C38.2779 91.4375 39.3064 92.6364 40.6359 93.4886C41.9654 94.3409 43.5393 94.767 45.3575 94.767C46.5961 94.767 47.6814 94.5739 48.6132 94.1875C49.5564 93.8011 50.3461 93.2841 50.9825 92.6364C51.6302 91.9773 52.1189 91.2557 52.4484 90.4716L55.3291 91.4091C54.9314 92.5114 54.2779 93.5284 53.3689 94.4602C52.4711 95.392 51.3461 96.142 49.9939 96.7102C48.6529 97.267 47.1075 97.5455 45.3575 97.5455ZM85.9756 70.8182V73.4602H73.1063V70.8182H85.9756ZM77.129 97V66.983C77.129 65.5739 77.4529 64.3864 78.1006 63.4205C78.7597 62.4545 79.6177 61.7216 80.6745 61.2216C81.7313 60.7216 82.8506 60.4716 84.0324 60.4716C84.8279 60.4716 85.487 60.5398 86.0097 60.6761C86.5438 60.8011 86.9643 60.9261 87.2711 61.0511L86.3847 63.7102C86.1574 63.642 85.879 63.5625 85.5495 63.4716C85.2199 63.3807 84.8052 63.3352 84.3052 63.3352C82.987 63.3352 81.9699 63.7045 81.254 64.4432C80.5381 65.1818 80.1802 66.2386 80.1802 67.6136L80.1631 97H77.129ZM91.5851 97V70.8182H94.6362V97H91.5851ZM93.1362 66.3182C92.5112 66.3182 91.9772 66.108 91.534 65.6875C91.0908 65.2557 90.8692 64.7386 90.8692 64.1364C90.8692 63.5341 91.0908 63.0227 91.534 62.6023C91.9772 62.1705 92.5112 61.9545 93.1362 61.9545C93.7612 61.9545 94.2953 62.1705 94.7385 62.6023C95.1817 63.0227 95.4033 63.5341 95.4033 64.1364C95.4033 64.7386 95.1817 65.2557 94.7385 65.6875C94.2953 66.108 93.7612 66.3182 93.1362 66.3182ZM102.18 97V70.8182H105.129V74.8409H105.351C105.874 73.5227 106.783 72.4602 108.078 71.6534C109.385 70.8352 110.862 70.4261 112.51 70.4261C112.76 70.4261 113.038 70.4318 113.345 70.4432C113.652 70.4545 113.908 70.4659 114.112 70.4773V73.5625C113.976 73.5398 113.737 73.5057 113.396 73.4602C113.055 73.4148 112.686 73.392 112.288 73.392C110.925 73.392 109.709 73.6818 108.641 74.2614C107.584 74.8295 106.749 75.6193 106.135 76.6307C105.521 77.642 105.214 78.7955 105.214 80.0909V97H102.18ZM136.401 76.5625L133.622 77.3466C133.35 76.5625 132.963 75.8523 132.463 75.2159C131.963 74.5795 131.31 74.0739 130.503 73.6989C129.707 73.3239 128.719 73.1364 127.537 73.1364C125.764 73.1364 124.31 73.5568 123.173 74.3977C122.037 75.2386 121.469 76.3239 121.469 77.6534C121.469 78.7784 121.855 79.6932 122.628 80.3977C123.412 81.0909 124.617 81.642 126.242 82.0511L130.196 83.0227C132.389 83.5568 134.031 84.4034 135.122 85.5625C136.225 86.7216 136.776 88.1761 136.776 89.9261C136.776 91.4034 136.367 92.7159 135.548 93.8636C134.73 95.0114 133.588 95.9148 132.122 96.5739C130.668 97.2216 128.98 97.5455 127.06 97.5455C124.503 97.5455 122.395 96.9716 120.736 95.8239C119.077 94.6648 118.014 92.9943 117.548 90.8125L120.463 90.0966C120.838 91.6534 121.571 92.8295 122.662 93.625C123.764 94.4205 125.213 94.8182 127.009 94.8182C129.02 94.8182 130.628 94.3693 131.832 93.4716C133.037 92.5625 133.639 91.4261 133.639 90.0625C133.639 89.0057 133.287 88.1193 132.582 87.4034C131.878 86.6761 130.81 86.142 129.378 85.8011L125.1 84.7784C122.827 84.233 121.145 83.3693 120.054 82.1875C118.963 81.0057 118.418 79.5398 118.418 77.7898C118.418 76.3466 118.81 75.0795 119.594 73.9886C120.378 72.8864 121.457 72.0227 122.832 71.3977C124.207 70.7727 125.776 70.4602 127.537 70.4602C129.935 70.4602 131.85 71.0057 133.281 72.0966C134.725 73.1761 135.764 74.6648 136.401 76.5625ZM153.252 70.8182V73.4602H140.757V70.8182H153.252ZM144.661 64.5455H147.712V90.1648C147.712 91.2557 147.899 92.1136 148.274 92.7386C148.649 93.3523 149.138 93.7898 149.74 94.0511C150.343 94.3011 150.985 94.4261 151.666 94.4261C152.064 94.4261 152.405 94.4034 152.689 94.358C152.973 94.3011 153.223 94.2443 153.439 94.1875L154.087 96.9318C153.791 97.0455 153.428 97.1477 152.996 97.2386C152.564 97.3409 152.03 97.392 151.394 97.392C150.28 97.392 149.206 97.1477 148.172 96.6591C147.149 96.1705 146.308 95.4432 145.649 94.4773C144.99 93.5114 144.661 92.3125 144.661 90.8807V64.5455ZM182.995 70.8182V73.4602H170.5V70.8182H182.995ZM174.404 64.5455H177.455V90.1648C177.455 91.2557 177.642 92.1136 178.017 92.7386C178.392 93.3523 178.881 93.7898 179.483 94.0511C180.086 94.3011 180.728 94.4261 181.41 94.4261C181.807 94.4261 182.148 94.4034 182.432 94.358C182.716 94.3011 182.966 94.2443 183.182 94.1875L183.83 96.9318C183.535 97.0455 183.171 97.1477 182.739 97.2386C182.307 97.3409 181.773 97.392 181.137 97.392C180.023 97.392 178.949 97.1477 177.915 96.6591C176.892 96.1705 176.052 95.4432 175.392 94.4773C174.733 93.5114 174.404 92.3125 174.404 90.8807V64.5455ZM199.3 97.5455C197.039 97.5455 195.039 96.9716 193.3 95.8239C191.573 94.6761 190.221 93.0909 189.243 91.0682C188.266 89.0341 187.778 86.6875 187.778 84.0284C187.778 81.3466 188.266 78.9886 189.243 76.9545C190.221 74.9091 191.573 73.3182 193.3 72.1818C195.039 71.0341 197.039 70.4602 199.3 70.4602C201.562 70.4602 203.556 71.0341 205.283 72.1818C207.01 73.3295 208.363 74.9205 209.34 76.9545C210.329 78.9886 210.823 81.3466 210.823 84.0284C210.823 86.6875 210.334 89.0341 209.357 91.0682C208.38 93.0909 207.022 94.6761 205.283 95.8239C203.556 96.9716 201.562 97.5455 199.3 97.5455ZM199.3 94.767C201.118 94.767 202.658 94.2784 203.92 93.3011C205.181 92.3239 206.135 91.0227 206.783 89.3977C207.442 87.7727 207.772 85.983 207.772 84.0284C207.772 82.0739 207.442 80.2784 206.783 78.642C206.135 77.0057 205.181 75.6932 203.92 74.7045C202.658 73.7159 201.118 73.2216 199.3 73.2216C197.493 73.2216 195.954 73.7159 194.681 74.7045C193.42 75.6932 192.459 77.0057 191.8 78.642C191.153 80.2784 190.829 82.0739 190.829 84.0284C190.829 85.983 191.153 87.7727 191.8 89.3977C192.459 91.0227 193.42 92.3239 194.681 93.3011C195.942 94.2784 197.482 94.767 199.3 94.767ZM237.336 97.5966C235.756 97.5966 234.313 97.2898 233.006 96.6761C231.7 96.0511 230.66 95.1534 229.887 93.983C229.114 92.8011 228.728 91.3693 228.728 89.6875C228.728 88.392 228.972 87.3011 229.461 86.4148C229.95 85.5284 230.643 84.8011 231.541 84.233C232.438 83.6648 233.501 83.2159 234.728 82.8864C235.955 82.5568 237.308 82.3011 238.785 82.1193C240.251 81.9375 241.489 81.7784 242.501 81.642C243.524 81.5057 244.302 81.2898 244.836 80.9943C245.37 80.6989 245.637 80.2216 245.637 79.5625V78.9489C245.637 77.1648 245.103 75.7614 244.035 74.7386C242.978 73.7045 241.455 73.1875 239.467 73.1875C237.58 73.1875 236.041 73.6023 234.847 74.4318C233.666 75.2614 232.836 76.2386 232.359 77.3636L229.478 76.3239C230.069 74.892 230.887 73.75 231.933 72.8977C232.978 72.0341 234.149 71.4148 235.444 71.0398C236.739 70.6534 238.052 70.4602 239.381 70.4602C240.381 70.4602 241.421 70.5909 242.501 70.8523C243.592 71.1136 244.603 71.5682 245.535 72.2159C246.467 72.8523 247.222 73.7443 247.802 74.892C248.381 76.0284 248.671 77.4716 248.671 79.2216V97H245.637V92.858H245.45C245.086 93.6307 244.546 94.3807 243.83 95.108C243.114 95.8352 242.217 96.4318 241.137 96.8977C240.058 97.3636 238.791 97.5966 237.336 97.5966ZM237.745 94.8182C239.359 94.8182 240.756 94.4602 241.938 93.7443C243.12 93.0284 244.029 92.0795 244.666 90.8977C245.313 89.7045 245.637 88.392 245.637 86.9602V83.1761C245.41 83.392 245.029 83.5852 244.495 83.7557C243.972 83.9261 243.364 84.0795 242.671 84.2159C241.989 84.3409 241.308 84.4489 240.626 84.5398C239.944 84.6307 239.33 84.7102 238.785 84.7784C237.308 84.9602 236.046 85.2443 235.001 85.6307C233.955 86.017 233.154 86.5511 232.597 87.233C232.041 87.9034 231.762 88.767 231.762 89.8239C231.762 91.4148 232.33 92.6477 233.467 93.5227C234.603 94.3864 236.029 94.8182 237.745 94.8182ZM266.49 97.5455C264.149 97.5455 262.109 96.9602 260.37 95.7898C258.643 94.6193 257.302 93.017 256.347 90.983C255.393 88.9489 254.916 86.6307 254.916 84.0284C254.916 81.4034 255.399 79.0682 256.365 77.0227C257.342 74.9773 258.694 73.375 260.421 72.2159C262.149 71.0455 264.154 70.4602 266.438 70.4602C268.188 70.4602 269.774 70.8011 271.194 71.483C272.615 72.1534 273.785 73.1023 274.705 74.3295C275.637 75.5455 276.222 76.9659 276.461 78.5909H273.393C273.075 77.1136 272.308 75.8523 271.092 74.8068C269.887 73.75 268.353 73.2216 266.49 73.2216C264.819 73.2216 263.342 73.6761 262.058 74.5852C260.774 75.483 259.768 76.7386 259.041 78.3523C258.325 79.9545 257.967 81.8125 257.967 83.9261C257.967 86.0511 258.319 87.9318 259.024 89.5682C259.728 91.1932 260.717 92.4659 261.99 93.3864C263.274 94.3068 264.774 94.767 266.49 94.767C267.649 94.767 268.705 94.5511 269.66 94.1193C270.626 93.6761 271.433 93.0511 272.08 92.2443C272.74 91.4375 273.183 90.4773 273.41 89.3636H276.478C276.251 90.9432 275.688 92.3523 274.791 93.5909C273.904 94.8182 272.751 95.7841 271.33 96.4886C269.921 97.1932 268.308 97.5455 266.49 97.5455ZM292.728 97.5455C290.387 97.5455 288.348 96.9602 286.609 95.7898C284.882 94.6193 283.541 93.017 282.586 90.983C281.632 88.9489 281.154 86.6307 281.154 84.0284C281.154 81.4034 281.637 79.0682 282.603 77.0227C283.581 74.9773 284.933 73.375 286.66 72.2159C288.387 71.0455 290.393 70.4602 292.677 70.4602C294.427 70.4602 296.012 70.8011 297.433 71.483C298.853 72.1534 300.024 73.1023 300.944 74.3295C301.876 75.5455 302.461 76.9659 302.7 78.5909H299.632C299.314 77.1136 298.546 75.8523 297.331 74.8068C296.126 73.75 294.592 73.2216 292.728 73.2216C291.058 73.2216 289.581 73.6761 288.296 74.5852C287.012 75.483 286.007 76.7386 285.279 78.3523C284.564 79.9545 284.206 81.8125 284.206 83.9261C284.206 86.0511 284.558 87.9318 285.262 89.5682C285.967 91.1932 286.956 92.4659 288.228 93.3864C289.512 94.3068 291.012 94.767 292.728 94.767C293.887 94.767 294.944 94.5511 295.899 94.1193C296.865 93.6761 297.671 93.0511 298.319 92.2443C298.978 91.4375 299.421 90.4773 299.649 89.3636H302.717C302.49 90.9432 301.927 92.3523 301.029 93.5909C300.143 94.8182 298.99 95.7841 297.569 96.4886C296.16 97.1932 294.546 97.5455 292.728 97.5455ZM319.325 97.5455C316.882 97.5455 314.768 96.9773 312.984 95.8409C311.2 94.6932 309.819 93.108 308.842 91.0852C307.876 89.0511 307.393 86.7102 307.393 84.0625C307.393 81.4261 307.876 79.0852 308.842 77.0398C309.819 74.983 311.166 73.375 312.882 72.2159C314.609 71.0455 316.603 70.4602 318.865 70.4602C320.285 70.4602 321.655 70.7216 322.973 71.2443C324.291 71.7557 325.473 72.5455 326.518 73.6136C327.575 74.6705 328.41 76.0057 329.024 77.6193C329.637 79.2216 329.944 81.1193 329.944 83.3125V84.8125H309.49V82.1364H326.842C326.842 80.4545 326.501 78.9432 325.819 77.6023C325.149 76.25 324.211 75.1818 323.007 74.3977C321.814 73.6136 320.433 73.2216 318.865 73.2216C317.206 73.2216 315.745 73.6648 314.484 74.5511C313.223 75.4375 312.234 76.608 311.518 78.0625C310.814 79.517 310.456 81.108 310.444 82.8352V84.4375C310.444 86.517 310.802 88.3352 311.518 89.892C312.245 91.4375 313.274 92.6364 314.603 93.4886C315.933 94.3409 317.507 94.767 319.325 94.767C320.564 94.767 321.649 94.5739 322.581 94.1875C323.524 93.8011 324.314 93.2841 324.95 92.6364C325.598 91.9773 326.086 91.2557 326.416 90.4716L329.297 91.4091C328.899 92.5114 328.245 93.5284 327.336 94.4602C326.439 95.392 325.314 96.142 323.961 96.7102C322.62 97.267 321.075 97.5455 319.325 97.5455ZM353.741 76.5625L350.963 77.3466C350.69 76.5625 350.304 75.8523 349.804 75.2159C349.304 74.5795 348.65 74.0739 347.844 73.6989C347.048 73.3239 346.059 73.1364 344.878 73.1364C343.105 73.1364 341.65 73.5568 340.514 74.3977C339.378 75.2386 338.809 76.3239 338.809 77.6534C338.809 78.7784 339.196 79.6932 339.969 80.3977C340.753 81.0909 341.957 81.642 343.582 82.0511L347.537 83.0227C349.73 83.5568 351.372 84.4034 352.463 85.5625C353.565 86.7216 354.116 88.1761 354.116 89.9261C354.116 91.4034 353.707 92.7159 352.889 93.8636C352.071 95.0114 350.929 95.9148 349.463 96.5739C348.008 97.2216 346.321 97.5455 344.4 97.5455C341.844 97.5455 339.736 96.9716 338.077 95.8239C336.417 94.6648 335.355 92.9943 334.889 90.8125L337.804 90.0966C338.179 91.6534 338.912 92.8295 340.003 93.625C341.105 94.4205 342.554 94.8182 344.349 94.8182C346.361 94.8182 347.969 94.3693 349.173 93.4716C350.378 92.5625 350.98 91.4261 350.98 90.0625C350.98 89.0057 350.628 88.1193 349.923 87.4034C349.219 86.6761 348.15 86.142 346.719 85.8011L342.44 84.7784C340.167 84.233 338.486 83.3693 337.395 82.1875C336.304 81.0057 335.758 79.5398 335.758 77.7898C335.758 76.3466 336.15 75.0795 336.934 73.9886C337.719 72.8864 338.798 72.0227 340.173 71.3977C341.548 70.7727 343.116 70.4602 344.878 70.4602C347.275 70.4602 349.19 71.0057 350.622 72.0966C352.065 73.1761 353.105 74.6648 353.741 76.5625ZM377.871 76.5625L375.092 77.3466C374.82 76.5625 374.433 75.8523 373.933 75.2159C373.433 74.5795 372.78 74.0739 371.973 73.6989C371.177 73.3239 370.189 73.1364 369.007 73.1364C367.234 73.1364 365.78 73.5568 364.643 74.3977C363.507 75.2386 362.939 76.3239 362.939 77.6534C362.939 78.7784 363.325 79.6932 364.098 80.3977C364.882 81.0909 366.087 81.642 367.712 82.0511L371.666 83.0227C373.859 83.5568 375.501 84.4034 376.592 85.5625C377.695 86.7216 378.246 88.1761 378.246 89.9261C378.246 91.4034 377.837 92.7159 377.018 93.8636C376.2 95.0114 375.058 95.9148 373.592 96.5739C372.138 97.2216 370.45 97.5455 368.53 97.5455C365.973 97.5455 363.865 96.9716 362.206 95.8239C360.547 94.6648 359.484 92.9943 359.018 90.8125L361.933 90.0966C362.308 91.6534 363.041 92.8295 364.132 93.625C365.234 94.4205 366.683 94.8182 368.479 94.8182C370.49 94.8182 372.098 94.3693 373.302 93.4716C374.507 92.5625 375.109 91.4261 375.109 90.0625C375.109 89.0057 374.757 88.1193 374.052 87.4034C373.348 86.6761 372.28 86.142 370.848 85.8011L366.57 84.7784C364.297 84.233 362.615 83.3693 361.524 82.1875C360.433 81.0057 359.888 79.5398 359.888 77.7898C359.888 76.3466 360.28 75.0795 361.064 73.9886C361.848 72.8864 362.927 72.0227 364.302 71.3977C365.677 70.7727 367.246 70.4602 369.007 70.4602C371.405 70.4602 373.32 71.0057 374.751 72.0966C376.195 73.1761 377.234 74.6648 377.871 76.5625ZM404.742 97.5966C403.162 97.5966 401.719 97.2898 400.412 96.6761C399.105 96.0511 398.066 95.1534 397.293 93.983C396.52 92.8011 396.134 91.3693 396.134 89.6875C396.134 88.392 396.378 87.3011 396.867 86.4148C397.355 85.5284 398.048 84.8011 398.946 84.233C399.844 83.6648 400.906 83.2159 402.134 82.8864C403.361 82.5568 404.713 82.3011 406.191 82.1193C407.656 81.9375 408.895 81.7784 409.906 81.642C410.929 81.5057 411.708 81.2898 412.242 80.9943C412.776 80.6989 413.043 80.2216 413.043 79.5625V78.9489C413.043 77.1648 412.509 75.7614 411.441 74.7386C410.384 73.7045 408.861 73.1875 406.872 73.1875C404.986 73.1875 403.446 73.6023 402.253 74.4318C401.071 75.2614 400.242 76.2386 399.764 77.3636L396.884 76.3239C397.475 74.892 398.293 73.75 399.338 72.8977C400.384 72.0341 401.554 71.4148 402.85 71.0398C404.145 70.6534 405.458 70.4602 406.787 70.4602C407.787 70.4602 408.827 70.5909 409.906 70.8523C410.997 71.1136 412.009 71.5682 412.941 72.2159C413.872 72.8523 414.628 73.7443 415.208 74.892C415.787 76.0284 416.077 77.4716 416.077 79.2216V97H413.043V92.858H412.855C412.492 93.6307 411.952 94.3807 411.236 95.108C410.52 95.8352 409.622 96.4318 408.543 96.8977C407.463 97.3636 406.196 97.5966 404.742 97.5966ZM405.151 94.8182C406.764 94.8182 408.162 94.4602 409.344 93.7443C410.526 93.0284 411.435 92.0795 412.071 90.8977C412.719 89.7045 413.043 88.392 413.043 86.9602V83.1761C412.816 83.392 412.435 83.5852 411.901 83.7557C411.378 83.9261 410.77 84.0795 410.077 84.2159C409.395 84.3409 408.713 84.4489 408.031 84.5398C407.35 84.6307 406.736 84.7102 406.191 84.7784C404.713 84.9602 403.452 85.2443 402.406 85.6307C401.361 86.017 400.56 86.5511 400.003 87.233C399.446 87.9034 399.168 88.767 399.168 89.8239C399.168 91.4148 399.736 92.6477 400.872 93.5227C402.009 94.3864 403.435 94.8182 405.151 94.8182ZM447.461 70.8182V73.4602H434.591V70.8182H447.461ZM438.614 97V66.983C438.614 65.5739 438.938 64.3864 439.586 63.4205C440.245 62.4545 441.103 61.7216 442.159 61.2216C443.216 60.7216 444.336 60.4716 445.517 60.4716C446.313 60.4716 446.972 60.5398 447.495 60.6761C448.029 60.8011 448.449 60.9261 448.756 61.0511L447.87 63.7102C447.642 63.642 447.364 63.5625 447.034 63.4716C446.705 63.3807 446.29 63.3352 445.79 63.3352C444.472 63.3352 443.455 63.7045 442.739 64.4432C442.023 65.1818 441.665 66.2386 441.665 67.6136L441.648 97H438.614ZM459.645 97.5966C458.066 97.5966 456.623 97.2898 455.316 96.6761C454.009 96.0511 452.969 95.1534 452.197 93.983C451.424 92.8011 451.037 91.3693 451.037 89.6875C451.037 88.392 451.282 87.3011 451.77 86.4148C452.259 85.5284 452.952 84.8011 453.85 84.233C454.748 83.6648 455.81 83.2159 457.037 82.8864C458.265 82.5568 459.617 82.3011 461.094 82.1193C462.56 81.9375 463.799 81.7784 464.81 81.642C465.833 81.5057 466.611 81.2898 467.145 80.9943C467.679 80.6989 467.947 80.2216 467.947 79.5625V78.9489C467.947 77.1648 467.412 75.7614 466.344 74.7386C465.287 73.7045 463.765 73.1875 461.776 73.1875C459.89 73.1875 458.35 73.6023 457.157 74.4318C455.975 75.2614 455.145 76.2386 454.668 77.3636L451.787 76.3239C452.378 74.892 453.197 73.75 454.242 72.8977C455.287 72.0341 456.458 71.4148 457.753 71.0398C459.049 70.6534 460.361 70.4602 461.691 70.4602C462.691 70.4602 463.731 70.5909 464.81 70.8523C465.901 71.1136 466.912 71.5682 467.844 72.2159C468.776 72.8523 469.532 73.7443 470.111 74.892C470.691 76.0284 470.981 77.4716 470.981 79.2216V97H467.947V92.858H467.759C467.395 93.6307 466.856 94.3807 466.14 95.108C465.424 95.8352 464.526 96.4318 463.447 96.8977C462.367 97.3636 461.1 97.5966 459.645 97.5966ZM460.054 94.8182C461.668 94.8182 463.066 94.4602 464.248 93.7443C465.429 93.0284 466.339 92.0795 466.975 90.8977C467.623 89.7045 467.947 88.392 467.947 86.9602V83.1761C467.719 83.392 467.339 83.5852 466.804 83.7557C466.282 83.9261 465.674 84.0795 464.981 84.2159C464.299 84.3409 463.617 84.4489 462.935 84.5398C462.253 84.6307 461.64 84.7102 461.094 84.7784C459.617 84.9602 458.356 85.2443 457.31 85.6307C456.265 86.017 455.464 86.5511 454.907 87.233C454.35 87.9034 454.072 88.767 454.072 89.8239C454.072 91.4148 454.64 92.6477 455.776 93.5227C456.912 94.3864 458.339 94.8182 460.054 94.8182ZM496.163 76.5625L493.384 77.3466C493.111 76.5625 492.725 75.8523 492.225 75.2159C491.725 74.5795 491.072 74.0739 490.265 73.6989C489.469 73.3239 488.481 73.1364 487.299 73.1364C485.526 73.1364 484.072 73.5568 482.935 74.3977C481.799 75.2386 481.231 76.3239 481.231 77.6534C481.231 78.7784 481.617 79.6932 482.39 80.3977C483.174 81.0909 484.378 81.642 486.003 82.0511L489.958 83.0227C492.151 83.5568 493.793 84.4034 494.884 85.5625C495.986 86.7216 496.538 88.1761 496.538 89.9261C496.538 91.4034 496.128 92.7159 495.31 93.8636C494.492 95.0114 493.35 95.9148 491.884 96.5739C490.43 97.2216 488.742 97.5455 486.822 97.5455C484.265 97.5455 482.157 96.9716 480.498 95.8239C478.839 94.6648 477.776 92.9943 477.31 90.8125L480.225 90.0966C480.6 91.6534 481.333 92.8295 482.424 93.625C483.526 94.4205 484.975 94.8182 486.77 94.8182C488.782 94.8182 490.39 94.3693 491.594 93.4716C492.799 92.5625 493.401 91.4261 493.401 90.0625C493.401 89.0057 493.049 88.1193 492.344 87.4034C491.64 86.6761 490.572 86.142 489.14 85.8011L484.861 84.7784C482.589 84.233 480.907 83.3693 479.816 82.1875C478.725 81.0057 478.18 79.5398 478.18 77.7898C478.18 76.3466 478.572 75.0795 479.356 73.9886C480.14 72.8864 481.219 72.0227 482.594 71.3977C483.969 70.7727 485.538 70.4602 487.299 70.4602C489.697 70.4602 491.611 71.0057 493.043 72.0966C494.486 73.1761 495.526 74.6648 496.163 76.5625ZM513.014 70.8182V73.4602H500.519V70.8182H513.014ZM504.423 64.5455H507.474V90.1648C507.474 91.2557 507.661 92.1136 508.036 92.7386C508.411 93.3523 508.9 93.7898 509.502 94.0511C510.104 94.3011 510.746 94.4261 511.428 94.4261C511.826 94.4261 512.167 94.4034 512.451 94.358C512.735 94.3011 512.985 94.2443 513.201 94.1875L513.849 96.9318C513.553 97.0455 513.19 97.1477 512.758 97.2386C512.326 97.3409 511.792 97.392 511.156 97.392C510.042 97.392 508.968 97.1477 507.934 96.6591C506.911 96.1705 506.07 95.4432 505.411 94.4773C504.752 93.5114 504.423 92.3125 504.423 90.8807V64.5455ZM529.728 97.5455C527.285 97.5455 525.171 96.9773 523.387 95.8409C521.603 94.6932 520.222 93.108 519.245 91.0852C518.279 89.0511 517.796 86.7102 517.796 84.0625C517.796 81.4261 518.279 79.0852 519.245 77.0398C520.222 74.983 521.569 73.375 523.285 72.2159C525.012 71.0455 527.007 70.4602 529.268 70.4602C530.688 70.4602 532.058 70.7216 533.376 71.2443C534.694 71.7557 535.876 72.5455 536.921 73.6136C537.978 74.6705 538.813 76.0057 539.427 77.6193C540.041 79.2216 540.347 81.1193 540.347 83.3125V84.8125H519.893V82.1364H537.245C537.245 80.4545 536.904 78.9432 536.222 77.6023C535.552 76.25 534.614 75.1818 533.41 74.3977C532.217 73.6136 530.836 73.2216 529.268 73.2216C527.609 73.2216 526.149 73.6648 524.887 74.5511C523.626 75.4375 522.637 76.608 521.921 78.0625C521.217 79.517 520.859 81.108 520.847 82.8352V84.4375C520.847 86.517 521.205 88.3352 521.921 89.892C522.649 91.4375 523.677 92.6364 525.007 93.4886C526.336 94.3409 527.91 94.767 529.728 94.767C530.967 94.767 532.052 94.5739 532.984 94.1875C533.927 93.8011 534.717 93.2841 535.353 92.6364C536.001 91.9773 536.489 91.2557 536.819 90.4716L539.7 91.4091C539.302 92.5114 538.649 93.5284 537.739 94.4602C536.842 95.392 535.717 96.142 534.364 96.7102C533.024 97.267 531.478 97.5455 529.728 97.5455ZM546.554 97V70.8182H549.502V74.8409H549.724C550.247 73.5227 551.156 72.4602 552.451 71.6534C553.758 70.8352 555.235 70.4261 556.883 70.4261C557.133 70.4261 557.411 70.4318 557.718 70.4432C558.025 70.4545 558.281 70.4659 558.485 70.4773V73.5625C558.349 73.5398 558.11 73.5057 557.769 73.4602C557.429 73.4148 557.059 73.392 556.661 73.392C555.298 73.392 554.082 73.6818 553.014 74.2614C551.957 74.8295 551.122 75.6193 550.508 76.6307C549.894 77.642 549.588 78.7955 549.588 80.0909V97H546.554ZM565.228 92.2273L564.922 94.0511C564.728 95.2784 564.456 96.6307 564.103 98.108C563.751 99.5852 563.387 100.989 563.012 102.318C562.637 103.648 562.314 104.716 562.041 105.523H559.706C559.853 104.75 560.041 103.767 560.268 102.574C560.507 101.381 560.751 100.057 561.001 98.6023C561.251 97.1591 561.478 95.6705 561.683 94.1364L561.922 92.2273H565.228ZM603.392 76.5625L600.614 77.3466C600.341 76.5625 599.954 75.8523 599.454 75.2159C598.954 74.5795 598.301 74.0739 597.494 73.6989C596.699 73.3239 595.71 73.1364 594.528 73.1364C592.756 73.1364 591.301 73.5568 590.165 74.3977C589.028 75.2386 588.46 76.3239 588.46 77.6534C588.46 78.7784 588.846 79.6932 589.619 80.3977C590.403 81.0909 591.608 81.642 593.233 82.0511L597.187 83.0227C599.381 83.5568 601.023 84.4034 602.114 85.5625C603.216 86.7216 603.767 88.1761 603.767 89.9261C603.767 91.4034 603.358 92.7159 602.54 93.8636C601.721 95.0114 600.579 95.9148 599.114 96.5739C597.659 97.2216 595.971 97.5455 594.051 97.5455C591.494 97.5455 589.386 96.9716 587.727 95.8239C586.068 94.6648 585.006 92.9943 584.54 90.8125L587.454 90.0966C587.829 91.6534 588.562 92.8295 589.653 93.625C590.756 94.4205 592.204 94.8182 594 94.8182C596.011 94.8182 597.619 94.3693 598.824 93.4716C600.028 92.5625 600.631 91.4261 600.631 90.0625C600.631 89.0057 600.278 88.1193 599.574 87.4034C598.869 86.6761 597.801 86.142 596.369 85.8011L592.091 84.7784C589.818 84.233 588.136 83.3693 587.045 82.1875C585.954 81.0057 585.409 79.5398 585.409 77.7898C585.409 76.3466 585.801 75.0795 586.585 73.9886C587.369 72.8864 588.449 72.0227 589.824 71.3977C591.199 70.7727 592.767 70.4602 594.528 70.4602C596.926 70.4602 598.841 71.0057 600.273 72.0966C601.716 73.1761 602.756 74.6648 603.392 76.5625ZM609.93 97V70.8182H612.879V74.8409H613.152C613.675 73.4886 614.544 72.4261 615.76 71.6534C616.987 70.8693 618.459 70.4773 620.175 70.4773C621.982 70.4773 623.464 70.9034 624.624 71.7557C625.794 72.5966 626.669 73.7557 627.249 75.233H627.47C628.061 73.7784 629.021 72.625 630.351 71.7727C631.692 70.9091 633.317 70.4773 635.226 70.4773C637.658 70.4773 639.578 71.2443 640.987 72.7784C642.396 74.3011 643.101 76.5284 643.101 79.4602V97H640.067V79.4602C640.067 77.392 639.538 75.8409 638.482 74.8068C637.425 73.7727 636.033 73.2557 634.305 73.2557C632.305 73.2557 630.766 73.8693 629.686 75.0966C628.607 76.3239 628.067 77.8807 628.067 79.767V97H624.964V79.1875C624.964 77.4148 624.47 75.983 623.482 74.892C622.493 73.8011 621.101 73.2557 619.305 73.2557C618.101 73.2557 617.016 73.5511 616.05 74.142C615.095 74.733 614.339 75.5568 613.783 76.6136C613.237 77.6591 612.964 78.8636 612.964 80.2273V97H609.93ZM657.966 97.5966C656.386 97.5966 654.943 97.2898 653.636 96.6761C652.33 96.0511 651.29 95.1534 650.517 93.983C649.744 92.8011 649.358 91.3693 649.358 89.6875C649.358 88.392 649.602 87.3011 650.091 86.4148C650.58 85.5284 651.273 84.8011 652.171 84.233C653.068 83.6648 654.131 83.2159 655.358 82.8864C656.585 82.5568 657.938 82.3011 659.415 82.1193C660.881 81.9375 662.119 81.7784 663.131 81.642C664.154 81.5057 664.932 81.2898 665.466 80.9943C666 80.6989 666.267 80.2216 666.267 79.5625V78.9489C666.267 77.1648 665.733 75.7614 664.665 74.7386C663.608 73.7045 662.085 73.1875 660.097 73.1875C658.21 73.1875 656.671 73.6023 655.477 74.4318C654.296 75.2614 653.466 76.2386 652.989 77.3636L650.108 76.3239C650.699 74.892 651.517 73.75 652.563 72.8977C653.608 72.0341 654.779 71.4148 656.074 71.0398C657.369 70.6534 658.682 70.4602 660.011 70.4602C661.011 70.4602 662.051 70.5909 663.131 70.8523C664.222 71.1136 665.233 71.5682 666.165 72.2159C667.097 72.8523 667.852 73.7443 668.432 74.892C669.011 76.0284 669.301 77.4716 669.301 79.2216V97H666.267V92.858H666.08C665.716 93.6307 665.176 94.3807 664.46 95.108C663.744 95.8352 662.847 96.4318 661.767 96.8977C660.688 97.3636 659.421 97.5966 657.966 97.5966ZM658.375 94.8182C659.989 94.8182 661.386 94.4602 662.568 93.7443C663.75 93.0284 664.659 92.0795 665.296 90.8977C665.943 89.7045 666.267 88.392 666.267 86.9602V83.1761C666.04 83.392 665.659 83.5852 665.125 83.7557C664.602 83.9261 663.994 84.0795 663.301 84.2159C662.619 84.3409 661.938 84.4489 661.256 84.5398C660.574 84.6307 659.96 84.7102 659.415 84.7784C657.938 84.9602 656.676 85.2443 655.631 85.6307C654.585 86.017 653.784 86.5511 653.227 87.233C652.671 87.9034 652.392 88.767 652.392 89.8239C652.392 91.4148 652.96 92.6477 654.097 93.5227C655.233 94.3864 656.659 94.8182 658.375 94.8182ZM676.892 97V70.8182H679.841V74.8409H680.063C680.585 73.5227 681.495 72.4602 682.79 71.6534C684.097 70.8352 685.574 70.4261 687.222 70.4261C687.472 70.4261 687.75 70.4318 688.057 70.4432C688.364 70.4545 688.62 70.4659 688.824 70.4773V73.5625C688.688 73.5398 688.449 73.5057 688.108 73.4602C687.767 73.4148 687.398 73.392 687 73.392C685.637 73.392 684.421 73.6818 683.353 74.2614C682.296 74.8295 681.46 75.6193 680.847 76.6307C680.233 77.642 679.926 78.7955 679.926 80.0909V97H676.892ZM705.475 70.8182V73.4602H692.98V70.8182H705.475ZM696.884 64.5455H699.935V90.1648C699.935 91.2557 700.122 92.1136 700.497 92.7386C700.872 93.3523 701.361 93.7898 701.963 94.0511C702.566 94.3011 703.208 94.4261 703.89 94.4261C704.287 94.4261 704.628 94.4034 704.912 94.358C705.196 94.3011 705.446 94.2443 705.662 94.1875L706.31 96.9318C706.015 97.0455 705.651 97.1477 705.219 97.2386C704.787 97.3409 704.253 97.392 703.617 97.392C702.503 97.392 701.429 97.1477 700.395 96.6591C699.372 96.1705 698.532 95.4432 697.872 94.4773C697.213 93.5114 696.884 92.3125 696.884 90.8807V64.5455ZM722.189 97.5455C719.746 97.5455 717.633 96.9773 715.848 95.8409C714.064 94.6932 712.684 93.108 711.706 91.0852C710.74 89.0511 710.258 86.7102 710.258 84.0625C710.258 81.4261 710.74 79.0852 711.706 77.0398C712.684 74.983 714.03 73.375 715.746 72.2159C717.473 71.0455 719.468 70.4602 721.729 70.4602C723.15 70.4602 724.519 70.7216 725.837 71.2443C727.155 71.7557 728.337 72.5455 729.383 73.6136C730.439 74.6705 731.275 76.0057 731.888 77.6193C732.502 79.2216 732.809 81.1193 732.809 83.3125V84.8125H712.354V82.1364H729.706C729.706 80.4545 729.365 78.9432 728.684 77.6023C728.013 76.25 727.076 75.1818 725.871 74.3977C724.678 73.6136 723.297 73.2216 721.729 73.2216C720.07 73.2216 718.61 73.6648 717.348 74.5511C716.087 75.4375 715.098 76.608 714.383 78.0625C713.678 79.517 713.32 81.108 713.309 82.8352V84.4375C713.309 86.517 713.667 88.3352 714.383 89.892C715.11 91.4375 716.138 92.6364 717.468 93.4886C718.797 94.3409 720.371 94.767 722.189 94.767C723.428 94.767 724.513 94.5739 725.445 94.1875C726.388 93.8011 727.178 93.2841 727.814 92.6364C728.462 91.9773 728.951 91.2557 729.28 90.4716L732.161 91.4091C731.763 92.5114 731.11 93.5284 730.201 94.4602C729.303 95.392 728.178 96.142 726.826 96.7102C725.485 97.267 723.939 97.5455 722.189 97.5455ZM739.015 97V70.8182H741.964V74.8409H742.185C742.708 73.5227 743.617 72.4602 744.913 71.6534C746.219 70.8352 747.697 70.4261 749.344 70.4261C749.594 70.4261 749.873 70.4318 750.18 70.4432C750.486 70.4545 750.742 70.4659 750.947 70.4773V73.5625C750.81 73.5398 750.572 73.5057 750.231 73.4602C749.89 73.4148 749.52 73.392 749.123 73.392C747.759 73.392 746.543 73.6818 745.475 74.2614C744.418 74.8295 743.583 75.6193 742.969 76.6307C742.356 77.642 742.049 78.7955 742.049 80.0909V97H739.015ZM774.477 97L766.568 70.8182H769.772L775.977 92.4148H776.198L782.386 70.8182H785.607L791.744 92.3636H791.982L798.187 70.8182H801.391L793.482 97H790.346L784.141 75.5398H783.818L777.613 97H774.477ZM814.122 97.5966C812.542 97.5966 811.099 97.2898 809.792 96.6761C808.485 96.0511 807.446 95.1534 806.673 93.983C805.9 92.8011 805.514 91.3693 805.514 89.6875C805.514 88.392 805.758 87.3011 806.247 86.4148C806.735 85.5284 807.428 84.8011 808.326 84.233C809.224 83.6648 810.286 83.2159 811.514 82.8864C812.741 82.5568 814.093 82.3011 815.571 82.1193C817.036 81.9375 818.275 81.7784 819.286 81.642C820.309 81.5057 821.088 81.2898 821.622 80.9943C822.156 80.6989 822.423 80.2216 822.423 79.5625V78.9489C822.423 77.1648 821.889 75.7614 820.821 74.7386C819.764 73.7045 818.241 73.1875 816.252 73.1875C814.366 73.1875 812.826 73.6023 811.633 74.4318C810.451 75.2614 809.622 76.2386 809.144 77.3636L806.264 76.3239C806.855 74.892 807.673 73.75 808.718 72.8977C809.764 72.0341 810.934 71.4148 812.23 71.0398C813.525 70.6534 814.838 70.4602 816.167 70.4602C817.167 70.4602 818.207 70.5909 819.286 70.8523C820.377 71.1136 821.389 71.5682 822.321 72.2159C823.252 72.8523 824.008 73.7443 824.588 74.892C825.167 76.0284 825.457 77.4716 825.457 79.2216V97H822.423V92.858H822.235C821.872 93.6307 821.332 94.3807 820.616 95.108C819.9 95.8352 819.002 96.4318 817.923 96.8977C816.843 97.3636 815.576 97.5966 814.122 97.5966ZM814.531 94.8182C816.144 94.8182 817.542 94.4602 818.724 93.7443C819.906 93.0284 820.815 92.0795 821.451 90.8977C822.099 89.7045 822.423 88.392 822.423 86.9602V83.1761C822.196 83.392 821.815 83.5852 821.281 83.7557C820.758 83.9261 820.15 84.0795 819.457 84.2159C818.775 84.3409 818.093 84.4489 817.411 84.5398C816.73 84.6307 816.116 84.7102 815.571 84.7784C814.093 84.9602 812.832 85.2443 811.786 85.6307C810.741 86.017 809.94 86.5511 809.383 87.233C808.826 87.9034 808.548 88.767 808.548 89.8239C808.548 91.4148 809.116 92.6477 810.252 93.5227C811.389 94.3864 812.815 94.8182 814.531 94.8182ZM834.224 106.818C833.622 106.818 833.059 106.761 832.537 106.648C832.014 106.534 831.599 106.409 831.292 106.273L832.11 103.597C833.145 103.915 834.065 104.028 834.872 103.938C835.679 103.858 836.395 103.494 837.02 102.847C837.645 102.21 838.201 101.233 838.69 99.9148L839.645 97.2557L830.014 70.8182H833.304L841.076 92.9943H841.315L849.088 70.8182H852.377L841.298 101.142C840.832 102.403 840.258 103.455 839.576 104.295C838.895 105.148 838.105 105.778 837.207 106.188C836.321 106.608 835.326 106.818 834.224 106.818ZM881.166 70.8182V73.4602H868.672V70.8182H881.166ZM872.575 64.5455H875.626V90.1648C875.626 91.2557 875.814 92.1136 876.189 92.7386C876.564 93.3523 877.052 93.7898 877.655 94.0511C878.257 94.3011 878.899 94.4261 879.581 94.4261C879.979 94.4261 880.319 94.4034 880.604 94.358C880.888 94.3011 881.138 94.2443 881.354 94.1875L882.001 96.9318C881.706 97.0455 881.342 97.1477 880.91 97.2386C880.479 97.3409 879.944 97.392 879.308 97.392C878.194 97.392 877.121 97.1477 876.086 96.6591C875.064 96.1705 874.223 95.4432 873.564 94.4773C872.905 93.5114 872.575 92.3125 872.575 90.8807V64.5455ZM897.472 97.5455C895.21 97.5455 893.21 96.9716 891.472 95.8239C889.744 94.6761 888.392 93.0909 887.415 91.0682C886.437 89.0341 885.949 86.6875 885.949 84.0284C885.949 81.3466 886.437 78.9886 887.415 76.9545C888.392 74.9091 889.744 73.3182 891.472 72.1818C893.21 71.0341 895.21 70.4602 897.472 70.4602C899.733 70.4602 901.727 71.0341 903.455 72.1818C905.182 73.3295 906.534 74.9205 907.511 76.9545C908.5 78.9886 908.994 81.3466 908.994 84.0284C908.994 86.6875 908.506 89.0341 907.528 91.0682C906.551 93.0909 905.193 94.6761 903.455 95.8239C901.727 96.9716 899.733 97.5455 897.472 97.5455ZM897.472 94.767C899.29 94.767 900.83 94.2784 902.091 93.3011C903.352 92.3239 904.307 91.0227 904.955 89.3977C905.614 87.7727 905.943 85.983 905.943 84.0284C905.943 82.0739 905.614 80.2784 904.955 78.642C904.307 77.0057 903.352 75.6932 902.091 74.7045C900.83 73.7159 899.29 73.2216 897.472 73.2216C895.665 73.2216 894.125 73.7159 892.852 74.7045C891.591 75.6932 890.631 77.0057 889.972 78.642C889.324 80.2784 889 82.0739 889 84.0284C889 85.983 889.324 87.7727 889.972 89.3977C890.631 91.0227 891.591 92.3239 892.852 93.3011C894.114 94.2784 895.653 94.767 897.472 94.767ZM938.183 107.364C936.399 107.364 934.837 107.131 933.496 106.665C932.155 106.21 931.024 105.585 930.104 104.79C929.183 103.994 928.467 103.102 927.956 102.114L930.445 100.477C930.82 101.136 931.32 101.784 931.945 102.42C932.581 103.057 933.405 103.585 934.416 104.006C935.439 104.426 936.695 104.636 938.183 104.636C940.502 104.636 942.371 104.057 943.791 102.898C945.223 101.739 945.939 99.9375 945.939 97.4943V91.5966H945.666C945.314 92.392 944.808 93.1875 944.149 93.983C943.49 94.767 942.627 95.4205 941.558 95.9432C940.502 96.4659 939.189 96.7273 937.621 96.7273C935.53 96.7273 933.672 96.2102 932.047 95.1761C930.433 94.142 929.161 92.6648 928.229 90.7443C927.308 88.8125 926.848 86.5114 926.848 83.8409C926.848 81.1932 927.297 78.8636 928.195 76.8523C929.104 74.8409 930.371 73.2727 931.996 72.1477C933.621 71.0227 935.513 70.4602 937.672 70.4602C939.274 70.4602 940.604 70.7443 941.661 71.3125C942.717 71.8693 943.564 72.5625 944.2 73.392C944.848 74.2216 945.354 75.0284 945.717 75.8125H946.024V70.8182H948.99V97.6818C948.99 99.8977 948.519 101.722 947.575 103.153C946.632 104.585 945.348 105.642 943.723 106.324C942.098 107.017 940.252 107.364 938.183 107.364ZM937.979 93.9489C939.661 93.9489 941.098 93.5455 942.291 92.7386C943.485 91.9205 944.399 90.75 945.036 89.2273C945.672 87.7045 945.99 85.892 945.99 83.7898C945.99 81.7443 945.678 79.9318 945.053 78.3523C944.428 76.7614 943.519 75.5114 942.325 74.6023C941.144 73.6818 939.695 73.2216 937.979 73.2216C936.229 73.2216 934.752 73.6932 933.547 74.6364C932.342 75.5795 931.433 76.8523 930.82 78.4545C930.206 80.0455 929.899 81.8239 929.899 83.7898C929.899 85.7898 930.212 87.5568 930.837 89.0909C931.462 90.6136 932.377 91.8068 933.581 92.6705C934.786 93.5227 936.252 93.9489 937.979 93.9489ZM956.543 97V70.8182H959.492V74.8409H959.713C960.236 73.5227 961.145 72.4602 962.441 71.6534C963.747 70.8352 965.225 70.4261 966.872 70.4261C967.122 70.4261 967.401 70.4318 967.708 70.4432C968.015 70.4545 968.27 70.4659 968.475 70.4773V73.5625C968.338 73.5398 968.1 73.5057 967.759 73.4602C967.418 73.4148 967.049 73.392 966.651 73.392C965.287 73.392 964.071 73.6818 963.003 74.2614C961.946 74.8295 961.111 75.6193 960.497 76.6307C959.884 77.642 959.577 78.7955 959.577 80.0909V97H956.543ZM982.552 97.5455C980.29 97.5455 978.29 96.9716 976.552 95.8239C974.824 94.6761 973.472 93.0909 972.495 91.0682C971.517 89.0341 971.029 86.6875 971.029 84.0284C971.029 81.3466 971.517 78.9886 972.495 76.9545C973.472 74.9091 974.824 73.3182 976.552 72.1818C978.29 71.0341 980.29 70.4602 982.552 70.4602C984.813 70.4602 986.807 71.0341 988.534 72.1818C990.262 73.3295 991.614 74.9205 992.591 76.9545C993.58 78.9886 994.074 81.3466 994.074 84.0284C994.074 86.6875 993.586 89.0341 992.608 91.0682C991.631 93.0909 990.273 94.6761 988.534 95.8239C986.807 96.9716 984.813 97.5455 982.552 97.5455ZM982.552 94.767C984.37 94.767 985.909 94.2784 987.171 93.3011C988.432 92.3239 989.387 91.0227 990.034 89.3977C990.694 87.7727 991.023 85.983 991.023 84.0284C991.023 82.0739 990.694 80.2784 990.034 78.642C989.387 77.0057 988.432 75.6932 987.171 74.7045C985.909 73.7159 984.37 73.2216 982.552 73.2216C980.745 73.2216 979.205 73.7159 977.932 74.7045C976.671 75.6932 975.711 77.0057 975.052 78.642C974.404 80.2784 974.08 82.0739 974.08 84.0284C974.08 85.983 974.404 87.7727 975.052 89.3977C975.711 91.0227 976.671 92.3239 977.932 93.3011C979.194 94.2784 980.733 94.767 982.552 94.767ZM1005.18 97L997.268 70.8182H1000.47L1006.68 92.4148H1006.9L1013.09 70.8182H1016.31L1022.44 92.3636H1022.68L1028.89 70.8182H1032.09L1024.18 97H1021.05L1014.84 75.5398H1014.52L1008.31 97H1005.18ZM1036.37 97.2557C1035.7 97.2557 1035.12 97.017 1034.63 96.5398C1034.15 96.0511 1033.91 95.4716 1033.91 94.8011C1033.91 94.1193 1034.15 93.5398 1034.63 93.0625C1035.12 92.5852 1035.7 92.3466 1036.37 92.3466C1037.05 92.3466 1037.63 92.5852 1038.11 93.0625C1038.58 93.5398 1038.82 94.1193 1038.82 94.8011C1038.82 95.2443 1038.71 95.6534 1038.48 96.0284C1038.26 96.4034 1037.97 96.7045 1037.59 96.9318C1037.23 97.1477 1036.82 97.2557 1036.37 97.2557Z" fill="#8CF719"/>
<path d="M834.43 127.764C869.12 127.764 903.81 127.887 938.622 128.256C955.598 128.379 972.574 128.87 989.55 128.87C997.791 128.87 1006.16 128.87 1014.4 129.485C1018.33 129.73 1022.15 130.222 1025.96 130.713C1030.76 131.328 1034.08 130.836 1038.88 130.345C1042.94 129.976 1044.66 124.939 1040.97 122.604C1037.4 120.27 1035.06 118.304 1030.76 117.567C1026.82 116.829 1022.89 116.584 1018.83 116.338C1010.58 115.846 1002.22 115.969 993.978 116.215C976.264 116.706 958.673 117.689 940.959 118.672C905.409 120.515 869.858 122.604 834.43 124.939C832.585 124.939 832.462 127.764 834.43 127.764Z" fill="#8CF719"/>
</svg>
