<svg width="134" height="46" viewBox="0 0 134 46" fill="none" xmlns="http://www.w3.org/2000/svg">
<g clip-path="url(#clip0_466_883)">
<path d="M7.5567 23.0743C7.32791 22.2447 7.21031 21.4319 7.20904 20.6585C7.20776 19.8687 7.41354 19.0877 7.80721 18.4026L11.7005 11.6208C12.0941 10.9357 12.6629 10.3631 13.3467 9.9669C14.0151 9.57835 14.7757 9.27032 15.609 9.05048C16.5778 8.79357 17.3869 8.17367 17.8854 7.30453C18.389 6.42645 18.5155 5.40778 18.2394 4.43382C17.9634 3.45988 17.3217 2.65721 16.4309 2.17408C15.9068 1.88904 15.3073 1.7395 14.6965 1.7395C13.325 1.7395 12.066 2.4591 11.4103 3.61581C10.9105 4.49901 10.7929 5.52152 11.078 6.49675C11.2965 7.24318 11.409 8.03691 11.4103 8.8562C11.4116 9.64609 11.2058 10.427 10.8121 11.1121L6.9189 17.8939C6.52651 18.5777 5.95774 19.1491 5.27649 19.5465L5.27265 19.5491C4.56456 19.9606 3.82196 20.2636 3.06658 20.4515C2.08113 20.6969 1.25673 21.3142 0.745472 22.191C-0.254037 23.9063 0.335188 26.2249 2.03256 27.2537C2.61667 27.6078 3.28386 27.7944 3.96255 27.7944C5.29438 27.7944 6.53418 27.0774 7.19754 25.9232C7.69601 25.0541 7.82383 24.0431 7.5567 23.0768V23.0743Z" fill="url(#paint0_linear_466_883)"/>
<path d="M30.1194 18.0677C29.249 16.5813 28.0027 15.3337 26.5163 14.4634C24.9838 13.566 23.2302 13.0906 21.4446 13.0906C15.9052 13.0906 11.3997 17.5974 11.3997 23.1356C11.3997 26.1789 12.761 28.9114 14.9057 30.7545C15.4936 31.3375 15.2444 31.9816 15.1894 32.103L13.6684 34.7513C13.276 35.4351 12.7072 36.0064 12.026 36.404L12.0222 36.4065C11.3141 36.8181 10.5715 37.121 9.81609 37.3089C8.83064 37.5543 8.00624 38.1716 7.49499 39.0485C6.49548 40.7637 7.08469 43.0823 8.78207 44.1112C9.36619 44.4652 10.0334 44.6518 10.7121 44.6518C12.0439 44.6518 13.2837 43.9348 13.947 42.7806C14.4455 41.9115 14.5734 40.9005 14.3062 39.9342C14.0775 39.1047 13.9598 38.2917 13.9586 37.5184C13.9572 36.7287 14.1631 35.9476 14.5568 35.2626L16.0215 32.7114C16.5122 32.0608 17.2255 32.2551 17.2255 32.2551C17.2217 32.2525 17.2179 32.2487 17.214 32.2461C18.5011 32.8456 19.9339 33.1818 21.4446 33.1818C23.2634 33.1818 25.0464 32.6897 26.5981 31.7604C26.8001 31.6391 26.8665 31.377 26.7451 31.1751C26.6236 30.9731 26.3617 30.9067 26.1597 31.0281C24.7396 31.8781 23.1088 32.3279 21.4446 32.3279C20.1588 32.3279 18.9331 32.0621 17.8211 31.5828C17.2498 31.1482 17.3214 30.5602 17.3584 30.3839L18.4512 28.4807C18.8449 27.7956 19.4137 27.2231 20.0974 26.8268C20.766 26.4382 21.5264 26.1302 22.3598 25.9104C23.3286 25.6535 24.1377 25.0336 24.6361 24.1645C25.1397 23.2864 25.2662 22.2677 24.9902 21.2937C24.7141 20.3198 24.0724 19.5171 23.1816 19.034C22.6576 18.749 22.0582 18.5994 21.4472 18.5994C20.0757 18.5994 18.8168 19.319 18.161 20.4757C17.6613 21.359 17.5438 22.3814 17.8287 23.3567C18.0473 24.1031 18.1598 24.8969 18.161 25.7161C18.1624 26.506 17.9566 27.2869 17.563 27.9721L16.6247 29.6055C16.0624 30.2254 15.4067 29.9991 15.2751 29.9455C13.4205 28.2622 12.2535 25.8338 12.2535 23.1382C12.2535 18.0703 16.3768 13.947 21.4446 13.947C23.0781 13.947 24.6834 14.3816 26.0843 15.2022C27.4455 15.9997 28.5856 17.1411 29.3832 18.5022C29.5021 18.7055 29.764 18.7745 29.9673 18.6544C30.1705 18.5355 30.2395 18.2735 30.1194 18.0703V18.0677Z" fill="url(#paint1_linear_466_883)"/>
<path d="M39.3582 32.0575C35.1275 32.0575 33.6232 30.1122 33.6232 27.345H35.1672C35.2067 29.2098 36.2292 30.6733 39.3185 30.6733C42.4079 30.6733 43.0687 29.5306 43.0891 28.3867C43.1491 24.8769 34.045 27.2441 34.045 22.7922C34.045 20.406 35.7499 18.9822 39.1384 18.9822C42.5267 18.9822 44.4324 20.5657 44.4528 23.4939H42.9293C42.8296 21.2879 41.4249 20.305 39.0796 20.305C36.7342 20.305 35.5698 21.1269 35.5698 22.6709C35.5698 25.8189 44.6331 23.6934 44.6331 28.2461C44.6331 30.0113 43.47 32.0562 39.3594 32.0562L39.3582 32.0575Z" fill="url(#paint2_linear_466_883)"/>
<path d="M51.1096 32.0572C46.9186 32.0572 45.9766 29.5112 45.9766 26.7428C45.9766 23.9742 47.0196 21.5496 51.0905 21.5496C54.6795 21.5496 55.7429 23.8158 55.7429 26.6634C55.7429 26.9447 55.7429 27.1441 55.7225 27.4252H47.5615C47.6612 29.4511 48.584 30.8736 51.0713 30.8736C53.2172 30.8736 53.9995 29.8116 54.1797 28.7277H55.7442C55.5844 30.4928 54.4008 32.056 51.1122 32.056L51.1096 32.0572ZM50.969 22.7523C48.3616 22.7523 47.6203 24.3769 47.5602 26.2212H54.1772C54.1772 24.2554 53.2952 22.7523 50.969 22.7523Z" fill="url(#paint3_linear_466_883)"/>
<path d="M70.0188 31.9371V25.9017C70.0188 24.0369 69.5982 22.8534 67.6529 22.8534C65.7076 22.8534 65.1668 23.996 65.1668 25.9017V31.9371H63.6433V25.9017C63.6433 24.0369 63.1819 22.8534 61.2367 22.8534C59.2913 22.8534 58.7506 23.996 58.7506 25.9017V31.9371H57.2462V21.6698H57.9275L58.3889 23.2738C58.7493 22.3715 59.7732 21.5496 61.6775 21.5496C63.4426 21.5496 64.3642 22.2923 64.7451 23.5551C65.0455 22.4724 66.0488 21.5496 68.0938 21.5496C70.9211 21.5496 71.5627 23.4554 71.5627 25.9809V31.9371H70.0188Z" fill="url(#paint4_linear_466_883)"/>
<path d="M74.2127 20.3858C73.5109 20.3858 73.0699 20.1851 73.0699 19.4629C73.0699 18.7012 73.5109 18.5605 74.2127 18.5605C74.8747 18.5605 75.3157 18.7012 75.3157 19.4629C75.3157 20.1851 74.8747 20.3858 74.2127 20.3858ZM73.4495 31.9364V21.669H74.9335V31.9364H73.4495Z" fill="url(#paint5_linear_466_883)"/>
<path d="M81.3286 32.0575C77.438 32.0575 76.4359 29.5114 76.4359 26.803C76.4359 24.0946 77.4585 21.5486 81.3491 21.5486C85.2398 21.5486 86.2624 24.1151 86.2624 26.803C86.2624 29.491 85.2398 32.0575 81.33 32.0575H81.3286ZM81.3491 22.8331C78.642 22.8331 77.9608 24.6378 77.9608 26.803C77.9608 28.9682 78.6228 30.8138 81.33 30.8138C84.0371 30.8138 84.7387 29.0091 84.7387 26.803C84.7387 24.5969 84.0767 22.8331 81.3504 22.8331H81.3491Z" fill="url(#paint6_linear_466_883)"/>
<path d="M89.5914 22.9133V28.9295C89.5914 30.1922 90.1128 30.7738 92.0773 30.7738C92.2985 30.7738 92.5183 30.7738 92.7791 30.7533V31.997C92.4583 32.0175 92.1579 32.0367 91.8767 32.0367C89.2092 32.0367 88.0665 31.1548 88.0665 28.9282V22.912H86.6632V21.97L88.0665 21.6287V19.1018H89.53V21.6684H92.7791V22.912H89.5901L89.5914 22.9133Z" fill="url(#paint7_linear_466_883)"/>
<path d="M94.9264 20.3858C94.2247 20.3858 93.7838 20.1851 93.7838 19.4629C93.7838 18.7012 94.2247 18.5605 94.9264 18.5605C95.5885 18.5605 96.0295 18.7012 96.0295 19.4629C96.0295 20.1851 95.5885 20.3858 94.9264 20.3858ZM94.1634 31.9364V21.669H95.6473V31.9364H94.1634Z" fill="url(#paint8_linear_466_883)"/>
<path d="M102.165 32.0575C98.1333 32.0575 97.1517 29.5305 97.1517 26.803C97.1517 24.0755 98.1538 21.5486 102.105 21.5486C105.253 21.5486 106.676 23.1731 106.676 25.7191H105.153C105.052 23.8748 104.211 22.8318 102.085 22.8318C99.3783 22.8318 98.6561 24.5765 98.6561 26.7826C98.6561 28.9887 99.3578 30.7933 102.106 30.7933C104.252 30.7933 105.074 29.73 105.154 27.9252H106.678C106.678 30.4917 105.293 32.0562 102.166 32.0562L102.165 32.0575Z" fill="url(#paint9_linear_466_883)"/>
<path d="M112.692 32.0575C108.801 32.0575 107.799 29.5114 107.799 26.803C107.799 24.0946 108.821 21.5486 112.712 21.5486C116.602 21.5486 117.625 24.1151 117.625 26.803C117.625 29.491 116.601 32.0575 112.692 32.0575ZM112.712 22.8331C110.005 22.8331 109.324 24.6378 109.324 26.803C109.324 28.9682 109.986 30.8138 112.693 30.8138C115.4 30.8138 116.102 29.0091 116.102 26.803C116.102 24.5969 115.438 22.8331 112.712 22.8331Z" fill="url(#paint10_linear_466_883)"/>
<path d="M131.904 31.9371V25.9017C131.904 24.0369 131.483 22.8534 129.538 22.8534C127.592 22.8534 127.052 23.996 127.052 25.9017V31.9371H125.528V25.9017C125.528 24.0369 125.067 22.8534 123.122 22.8534C121.177 22.8534 120.636 23.996 120.636 25.9017V31.9371H119.131V21.6698H119.812L120.274 23.2738C120.634 22.3715 121.659 21.5496 123.562 21.5496C125.328 21.5496 126.249 22.2923 126.63 23.5551C126.93 22.4724 127.934 21.5496 129.979 21.5496C132.807 21.5496 133.448 23.4554 133.448 25.9809V31.9371H131.904Z" fill="url(#paint11_linear_466_883)"/>
</g>
<defs>
<linearGradient id="paint0_linear_466_883" x1="0.257721" y1="14.7669" x2="18.3824" y2="14.7669" gradientUnits="userSpaceOnUse">
<stop stop-color="#83E617"/>
<stop offset="1" stop-color="#83E617" stop-opacity="0.4"/>
</linearGradient>
<linearGradient id="paint1_linear_466_883" x1="7.00723" y1="28.8712" x2="30.1785" y2="28.8712" gradientUnits="userSpaceOnUse">
<stop stop-color="#83E617"/>
<stop offset="1" stop-color="#83E617" stop-opacity="0.4"/>
</linearGradient>
<linearGradient id="paint2_linear_466_883" x1="33.6232" y1="25.5199" x2="44.6331" y2="25.5199" gradientUnits="userSpaceOnUse">
<stop stop-color="#83E617"/>
<stop offset="1" stop-color="#83E617" stop-opacity="0.4"/>
</linearGradient>
<linearGradient id="paint3_linear_466_883" x1="45.9766" y1="26.8034" x2="55.7442" y2="26.8034" gradientUnits="userSpaceOnUse">
<stop stop-color="#83E617"/>
<stop offset="1" stop-color="#83E617" stop-opacity="0.4"/>
</linearGradient>
<linearGradient id="paint4_linear_466_883" x1="57.2462" y1="26.7433" x2="71.5627" y2="26.7433" gradientUnits="userSpaceOnUse">
<stop stop-color="#83E617"/>
<stop offset="1" stop-color="#83E617" stop-opacity="0.4"/>
</linearGradient>
<linearGradient id="paint5_linear_466_883" x1="73.0699" y1="25.2485" x2="75.3157" y2="25.2485" gradientUnits="userSpaceOnUse">
<stop stop-color="#83E617"/>
<stop offset="1" stop-color="#83E617" stop-opacity="0.4"/>
</linearGradient>
<linearGradient id="paint6_linear_466_883" x1="76.4359" y1="26.803" x2="86.2624" y2="26.803" gradientUnits="userSpaceOnUse">
<stop stop-color="#83E617"/>
<stop offset="1" stop-color="#83E617" stop-opacity="0.4"/>
</linearGradient>
<linearGradient id="paint7_linear_466_883" x1="86.6632" y1="25.5693" x2="92.7791" y2="25.5693" gradientUnits="userSpaceOnUse">
<stop stop-color="#83E617"/>
<stop offset="1" stop-color="#83E617" stop-opacity="0.4"/>
</linearGradient>
<linearGradient id="paint8_linear_466_883" x1="93.7838" y1="25.2485" x2="96.0295" y2="25.2485" gradientUnits="userSpaceOnUse">
<stop stop-color="#83E617"/>
<stop offset="1" stop-color="#83E617" stop-opacity="0.4"/>
</linearGradient>
<linearGradient id="paint9_linear_466_883" x1="97.1517" y1="26.803" x2="106.678" y2="26.803" gradientUnits="userSpaceOnUse">
<stop stop-color="#83E617"/>
<stop offset="1" stop-color="#83E617" stop-opacity="0.4"/>
</linearGradient>
<linearGradient id="paint10_linear_466_883" x1="107.799" y1="26.803" x2="117.625" y2="26.803" gradientUnits="userSpaceOnUse">
<stop stop-color="#83E617"/>
<stop offset="1" stop-color="#83E617" stop-opacity="0.4"/>
</linearGradient>
<linearGradient id="paint11_linear_466_883" x1="119.131" y1="26.7433" x2="133.448" y2="26.7433" gradientUnits="userSpaceOnUse">
<stop stop-color="#83E617"/>
<stop offset="1" stop-color="#83E617" stop-opacity="0.4"/>
</linearGradient>
<clipPath id="clip0_466_883">
<rect width="133.729" height="44.9511" fill="white" transform="translate(0.257629 0.658691)"/>
</clipPath>
</defs>
</svg>
