<svg width="120" height="23" viewBox="0 0 120 23" fill="none" xmlns="http://www.w3.org/2000/svg">
<g clip-path="url(#clip0_466_795)">
<path d="M78.5531 19.6856V2.80664H78.647H95.25H95.3673C95.432 3.04148 95.4554 19.1865 95.3673 19.7032L78.5531 19.6856ZM88.6216 9.62866H85.3869V12.8283C86.4641 12.8931 87.5444 12.8931 88.6216 12.8283V9.62866Z" fill="url(#paint0_linear_466_795)"/>
<path d="M36.1606 21.5352L19.769 17.2788L24.0254 0.898926L40.4111 5.14948C38.9963 10.6153 37.5813 16.0518 36.1606 21.5352ZM32.0803 10.0517C31.0177 9.7699 29.9785 9.46461 28.9159 9.23564L28.0998 12.3883L31.2642 13.2044L32.0803 10.0517Z" fill="url(#paint1_linear_466_795)"/>
<path d="M42.1142 2.72529H52.993C54.0776 2.71253 55.1566 2.87917 56.1868 3.21845C57.0204 3.49463 57.7659 3.9869 58.3474 4.64508C59.0474 5.47255 59.397 6.54041 59.3219 7.62164C59.316 8.28104 59.1427 8.92811 58.8181 9.50216C58.4936 10.0762 58.0286 10.5584 57.4667 10.9035L57.1438 11.1148C57.3845 11.2675 57.5958 11.3908 57.8013 11.5317C58.0068 11.6726 58.1771 11.7959 58.3532 11.9368C58.8723 12.3525 59.2753 12.8952 59.5232 13.5123C59.7711 14.1294 59.8555 14.8001 59.7682 15.4593C59.6892 16.3724 59.3279 17.2382 58.7345 17.9368C58.1412 18.6353 57.3452 19.1319 56.457 19.3576C55.8087 19.5524 55.1374 19.661 54.4608 19.6806H42.1318L42.1142 2.72529ZM49.6408 15.9525C50.2372 16.0116 50.8392 15.9355 51.4021 15.7294C51.587 15.6566 51.7514 15.5401 51.8813 15.3897C52.0111 15.2395 52.1024 15.0598 52.1476 14.8664C52.2679 14.4223 52.2679 13.9542 52.1476 13.5102C52.0997 13.3126 52.0107 13.1271 51.8862 12.9663C51.7618 12.8055 51.6048 12.6727 51.4255 12.5767C50.8602 12.3252 50.2373 12.2318 49.6232 12.3067L49.6408 15.9525ZM49.6408 9.45337C50.2108 9.48197 50.7809 9.40024 51.3198 9.21266C51.4833 9.14183 51.6285 9.0347 51.7445 8.89942C51.8605 8.76414 51.9441 8.60424 51.9892 8.43183C52.0906 8.04702 52.0906 7.64245 51.9892 7.25765C51.9179 6.94939 51.7308 6.68033 51.4666 6.50617C50.9071 6.19723 50.2598 6.08556 49.629 6.18914L49.6408 9.45337Z" fill="url(#paint2_linear_466_795)"/>
<path d="M7.97763 13.4575V19.6866H0.480438V2.73714H0.773984H11.7292C12.888 2.70441 14.0365 2.96279 15.0697 3.48862C15.7638 3.82089 16.3656 4.31857 16.822 4.93792C17.2786 5.55726 17.5761 6.27929 17.6881 7.04053C17.8513 7.85811 17.7803 8.70514 17.4833 9.48412C17.1862 10.2631 16.6752 10.9424 16.0091 11.4437C15.9504 11.4848 15.8975 11.5377 15.827 11.5964C17.8349 13.9447 18.7626 16.6864 19.0972 19.7041H11.2947C11.2536 19.2579 11.2184 18.8293 11.1656 18.3949C11.0734 17.3944 10.8604 16.4088 10.5315 15.4595C10.3739 14.9837 10.1224 14.5445 9.79179 14.1678C9.5631 13.9196 9.28085 13.7266 8.96655 13.6036C8.65225 13.4805 8.31408 13.4305 7.97763 13.4575ZM7.97763 9.47697C8.42226 9.51749 8.87043 9.46347 9.2927 9.31845C9.47079 9.26002 9.63376 9.16286 9.76979 9.03393C9.90582 8.90501 10.0116 8.74753 10.0795 8.57284C10.211 8.25804 10.2483 7.9118 10.1868 7.57621C10.1253 7.24061 9.96767 6.9301 9.73303 6.6824C9.25748 6.15989 8.61168 6.20685 7.97175 6.23621L7.97763 9.47697Z" fill="url(#paint3_linear_466_795)"/>
<path d="M97.5203 19.6862L104.143 11.1147C101.941 8.32599 99.7512 5.5549 97.5261 2.7486C97.6377 2.7486 97.7141 2.71924 97.7845 2.71924H105.493C105.574 2.71836 105.654 2.73776 105.726 2.77569C105.798 2.81363 105.859 2.8689 105.904 2.93647L107.93 5.47271L108.223 5.82497C108.282 5.75452 108.34 5.70168 108.387 5.6371C109.086 4.73297 109.785 3.82885 110.477 2.91298C110.519 2.84961 110.577 2.79837 110.645 2.76437C110.713 2.73038 110.789 2.71482 110.865 2.71924H118.497H118.773L112.356 11.056L119.184 19.6862C119.06 19.6862 118.984 19.6862 118.909 19.6862H111.252C111.167 19.6899 111.081 19.6719 111.004 19.634C110.928 19.5961 110.861 19.5393 110.812 19.469C110.055 18.5003 109.286 17.5434 108.517 16.5864L108.299 16.3222L108 16.7038C107.29 17.6255 106.573 18.5472 105.869 19.4749C105.825 19.5429 105.764 19.5983 105.692 19.6354C105.619 19.6725 105.539 19.69 105.458 19.6862H97.8256H97.5203Z" fill="url(#paint4_linear_466_795)"/>
<path d="M62.0802 2.73755H69.5716V15.4481H76.141V19.6869H62.0508L62.0802 2.73755Z" fill="url(#paint5_linear_466_795)"/>
</g>
<defs>
<linearGradient id="paint0_linear_466_795" x1="78.5531" y1="11.2549" x2="95.4249" y2="11.2549" gradientUnits="userSpaceOnUse">
<stop stop-color="#83E617"/>
<stop offset="1" stop-color="#83E617" stop-opacity="0.4"/>
</linearGradient>
<linearGradient id="paint1_linear_466_795" x1="19.769" y1="11.2171" x2="40.4111" y2="11.2171" gradientUnits="userSpaceOnUse">
<stop stop-color="#83E617"/>
<stop offset="1" stop-color="#83E617" stop-opacity="0.4"/>
</linearGradient>
<linearGradient id="paint2_linear_466_795" x1="42.1142" y1="11.2026" x2="59.8016" y2="11.2026" gradientUnits="userSpaceOnUse">
<stop stop-color="#83E617"/>
<stop offset="1" stop-color="#83E617" stop-opacity="0.4"/>
</linearGradient>
<linearGradient id="paint3_linear_466_795" x1="0.480438" y1="11.2192" x2="19.0972" y2="11.2192" gradientUnits="userSpaceOnUse">
<stop stop-color="#83E617"/>
<stop offset="1" stop-color="#83E617" stop-opacity="0.4"/>
</linearGradient>
<linearGradient id="paint4_linear_466_795" x1="97.5203" y1="11.2026" x2="119.184" y2="11.2026" gradientUnits="userSpaceOnUse">
<stop stop-color="#83E617"/>
<stop offset="1" stop-color="#83E617" stop-opacity="0.4"/>
</linearGradient>
<linearGradient id="paint5_linear_466_795" x1="62.0508" y1="11.2122" x2="76.141" y2="11.2122" gradientUnits="userSpaceOnUse">
<stop stop-color="#83E617"/>
<stop offset="1" stop-color="#83E617" stop-opacity="0.4"/>
</linearGradient>
<clipPath id="clip0_466_795">
<rect width="119.12" height="21.3518" fill="white" transform="translate(0.0641785 0.858398)"/>
</clipPath>
</defs>
</svg>
