<svg width="111" height="36" viewBox="0 0 111 36" fill="none" xmlns="http://www.w3.org/2000/svg">
<g clip-path="url(#clip0_466_824)">
<path d="M37.4471 16.8221C37.4039 16.9476 37.5059 17.081 37.6393 17.0731C37.6511 17.0731 37.6629 17.0731 37.6708 17.0731H52.6034C52.7212 17.0731 52.7329 17.0143 52.7015 16.9201C52.6702 16.8259 52.6544 16.7906 52.6309 16.724C52.3602 15.9706 51.9757 15.2644 51.4853 14.6288C49.5628 12.1845 47.0753 11.0389 43.9639 11.4273C41.81 11.698 40.0641 12.7573 38.7183 14.4601C38.1612 15.1663 37.7296 15.9667 37.4471 16.8221Z" fill="url(#paint0_linear_466_824)"/>
<path d="M33.2463 35.404C33.1443 35.4432 33.0344 35.455 32.9285 35.4393H26.29C26.0978 35.4511 25.9095 35.3687 25.7917 35.2117C22.8884 31.7316 19.985 28.2555 17.0777 24.7832L16.8698 24.5556C16.7796 24.6145 16.701 24.689 16.6422 24.7832C13.7114 28.2594 10.7845 31.7434 7.86151 35.2353C7.76734 35.3727 7.6104 35.4511 7.44169 35.4472H0.689413C0.610944 35.459 0.532476 35.4472 0.461853 35.4158C0.489317 35.3295 0.536399 35.2549 0.599174 35.1883L11.4829 20.6478C12.0046 19.9495 12.5265 19.2589 13.0444 18.5606C13.2248 18.3213 13.2248 18.3879 13.0444 18.1408C11.2514 15.7514 9.46227 13.366 7.68495 10.9765C5.3348 7.83384 2.98463 4.6833 0.642333 1.5406C0.575633 1.47783 0.528551 1.39936 0.501087 1.31304C0.552092 1.23457 0.626638 1.26989 0.689413 1.26989H7.44169C7.6104 1.26989 7.76342 1.3562 7.85758 1.49745C10.3568 4.45966 12.8599 7.42187 15.3592 10.3841C15.7986 10.9059 16.2342 11.4277 16.6854 11.9456C16.7364 12.0045 16.7914 12.0594 16.8501 12.1261C16.9561 12.0829 17.0032 11.9927 17.0621 11.9221C19.9732 8.45375 22.8845 4.98541 25.7956 1.51314C25.9173 1.34835 26.1174 1.25812 26.3214 1.27381H33.2385C33.211 1.38367 33.1522 1.48175 33.0697 1.56022C30.5391 4.9344 28.0085 8.30466 25.4818 11.6788L20.6912 18.074L20.6559 18.1211C20.4636 18.3958 20.4441 18.3173 20.6559 18.592L33.0423 35.1294C33.1089 35.2117 33.1678 35.298 33.2463 35.408V35.404Z" fill="url(#paint1_linear_466_824)"/>
<path d="M80.0364 19.49C80.264 14.366 82.4532 10.419 86.9927 7.8766C88.4091 7.09975 89.9667 6.62109 91.5754 6.472C94.1334 6.18952 96.719 6.68779 98.9868 7.91192C99.2615 8.05708 99.2575 8.05708 99.1986 8.36312C98.4649 11.957 100.772 15.4724 104.358 16.2335C104.648 16.2885 104.943 16.3277 105.237 16.3474C105.378 16.3316 105.508 16.4376 105.523 16.5789C105.523 16.5828 105.523 16.5907 105.523 16.5945C105.759 17.6735 105.861 18.776 105.825 19.8785C105.774 22.2365 105.084 24.5357 103.824 26.5288C101.937 29.5027 99.3007 31.4919 95.8598 32.2844C91.6891 33.2457 87.9225 32.3041 84.6544 29.5498C82.1943 27.4743 80.7466 24.7985 80.2091 21.6165C80.0991 20.9104 80.0443 20.2002 80.0364 19.4861V19.49ZM101.011 19.5293C101.023 17.9207 100.556 16.3474 99.6772 15.0056C97.7822 12.0355 94.1648 10.6583 90.771 11.6117C85.7136 13.0791 83.3243 18.9604 85.9138 23.543C88.0913 27.4233 92.9995 28.8083 96.8798 26.6307C99.4458 25.1908 101.023 22.4718 100.996 19.5293H101.007H101.011Z" fill="url(#paint2_linear_466_824)"/>
<path d="M66.418 25.2853V19.3374C66.4024 17.7915 66.6731 16.2575 67.2185 14.8136C68.8034 10.6783 71.7108 7.93969 75.9796 6.66848C76.9878 6.37814 78.0275 6.22905 79.0751 6.21729C79.3145 6.21729 79.3184 6.21729 79.3184 6.45662V10.9097C79.3184 11.0614 79.2425 11.1373 79.0908 11.1373C75.4655 11.2707 72.3738 13.8131 71.5421 17.3482C71.3773 18.0309 71.2949 18.7253 71.2988 19.4276V32.1239C71.2988 32.4967 71.3655 32.4731 70.9536 32.4731H66.575C66.4651 32.4731 66.4101 32.4378 66.418 32.32V25.2853Z" fill="url(#paint3_linear_466_824)"/>
<path d="M109.862 11.824C109.843 11.93 109.8 12.032 109.733 12.1222C108.768 13.829 106.869 14.7824 104.927 14.5391C102.981 14.2684 101.384 12.8598 100.878 10.9648C100.187 8.45379 101.549 5.83292 104.001 4.95406C106.543 4.11052 109.286 5.48373 110.129 8.02613C110.168 8.14383 110.204 8.26154 110.231 8.37924C110.42 9.09331 110.439 9.83877 110.286 10.5607H102.694C102.686 10.6902 102.722 10.8236 102.792 10.9334C103.467 12.4439 105.241 13.1227 106.751 12.4479C106.987 12.342 107.206 12.2086 107.406 12.0477C107.614 11.8672 107.881 11.777 108.152 11.7887C108.627 11.8084 109.097 11.7887 109.572 11.7887C109.666 11.7809 109.764 11.7887 109.855 11.8201L109.862 11.824ZM108.391 8.70489C108.164 7.54355 106.79 6.53914 105.504 6.57052C104.181 6.59799 102.875 7.59063 102.694 8.70489H108.387H108.391Z" fill="url(#paint4_linear_466_824)"/>
<path d="M33.3243 14.6564C33.3243 14.5622 33.3047 14.4524 33.4342 14.4131C33.4185 14.5033 33.3832 14.5858 33.3243 14.6564Z" fill="url(#paint5_linear_466_824)"/>
<path d="M33.4442 14.3754C33.4442 14.3239 33.4639 14.2725 33.5075 14.2368C33.5075 14.2883 33.4878 14.3398 33.4442 14.3754Z" fill="url(#paint6_linear_466_824)"/>
<path d="M33.2688 14.7948C33.2688 14.7434 33.2885 14.6919 33.3243 14.6562C33.3243 14.7077 33.3084 14.7592 33.2688 14.7948Z" fill="url(#paint7_linear_466_824)"/>
<path d="M33.0878 15.2621C33.0878 15.2106 33.1076 15.1631 33.1393 15.1235C33.1433 15.175 33.1234 15.2265 33.0878 15.2621Z" fill="url(#paint8_linear_466_824)"/>
<path d="M62.5334 1.30915C57.3113 1.317 51.124 1.3013 45.9489 1.30915C45.3564 1.30915 44.7679 1.41508 44.2147 1.62695C37.5448 4.18113 33.2957 8.83435 32.7269 16.0771C32.8053 15.8181 32.8798 15.5592 32.9387 15.3081C32.9387 15.3002 32.9426 15.2923 32.9466 15.2806C32.9701 15.2217 33.0721 14.9668 33.0682 14.9197L33.9745 12.9187C36.6895 8.03397 42.2648 5.47979 47.7381 6.60583C52.9405 7.66908 56.8365 11.8397 57.837 16.8736C57.9822 17.6387 58.0685 18.4154 58.0959 19.1923C58.0959 19.2198 58.0959 19.2512 58.0959 19.2786C58.1038 20.0672 58.0411 20.8558 57.9077 21.6327C57.8566 21.9544 57.8606 21.9544 57.5231 21.9583H37.8784C37.843 21.9544 37.8038 21.9505 37.7645 21.9505C37.6351 21.9505 37.5409 22.0799 37.5801 22.2016C38.9887 26.3997 43.5359 28.6636 47.7381 27.255C48.8718 26.8665 49.9077 26.2388 50.7787 25.415C50.8807 25.309 51.022 25.2501 51.1711 25.2501H56.5618C56.6247 25.2501 56.7031 25.2227 56.7423 25.309C56.7423 25.3285 56.7306 25.3482 56.7228 25.3639C56.7149 25.3835 56.6796 25.4502 56.656 25.4973C55.9302 26.9412 54.9454 28.2241 53.7605 29.2874H53.7841C52.1558 30.7391 50.1588 31.7749 48.0283 32.2653C48.0009 32.2731 47.9734 32.2771 47.946 32.281C47.836 32.3045 47.7263 32.3319 47.6163 32.3516C47.3064 32.4144 46.9925 32.4654 46.6787 32.5046C53.7331 32.9793 59.9988 27.5571 62.2038 21.1188C62.6943 19.8239 62.8119 18.4508 62.8433 17.0775C62.8355 13.6014 62.8237 10.1213 62.863 6.63722C62.8748 4.9462 62.8982 3.24735 62.91 1.55241C62.9611 1.21891 62.7688 1.31307 62.5334 1.29346V1.30915Z" fill="url(#paint9_linear_466_824)"/>
<path d="M33.9862 12.9266C36.7012 8.04193 42.2764 5.48775 47.7496 6.61379C52.9522 7.67704 56.8482 11.8477 57.8487 16.8815C57.9939 17.6466 58.0802 18.4234 58.1076 19.2003C58.1076 19.2277 58.1076 19.2591 58.1076 19.2866C58.1155 20.0752 58.0526 20.8638 57.9192 21.6407C57.8682 21.9623 57.8722 21.9623 57.5348 21.9663H37.8899C37.8547 21.9623 37.8154 21.9585 37.7762 21.9585C37.6468 21.9585 37.5526 22.088 37.5918 22.2095C39.0003 26.4076 43.5476 28.6715 47.7496 27.263C48.8835 26.8746 49.9193 26.2468 50.7903 25.4229C50.8924 25.3169 51.0336 25.2581 51.1826 25.2581H56.5735C56.6363 25.2581 56.7148 25.2306 56.754 25.3169C56.754 25.3366 56.7422 25.3561 56.7343 25.3719C56.7266 25.3876 56.6912 25.4582 56.6677 25.5053C55.322 28.185 53.0816 30.3115 50.3313 31.5121C49.1464 32.03 47.8909 32.3713 46.6079 32.5283C46.0272 32.5793 45.4466 32.5949 44.862 32.5832C42.0527 32.5322 39.3377 31.5317 37.168 29.7465C34.6689 27.7456 33.0013 24.8893 32.4874 21.727C32.1891 19.9928 32.2362 18.2154 32.6247 16.4969C32.6326 16.4538 32.6403 16.4146 32.6482 16.3714C32.6521 16.344 32.6561 16.3204 32.66 16.293C32.7699 15.9634 32.8679 15.6221 32.9425 15.3003C32.9425 15.2925 32.9465 15.2846 32.9504 15.2728C32.9739 15.214 33.0759 14.9589 33.072 14.9119M37.5918 16.8031C37.5487 16.9286 37.6507 17.062 37.7841 17.0541C37.7958 17.0541 37.8076 17.0541 37.8154 17.0541H52.7482C52.8658 17.0541 52.8776 16.9952 52.8462 16.9011C52.8148 16.807 52.7991 16.7716 52.7756 16.705C52.5049 15.9516 52.1203 15.2454 51.6299 14.6098C49.7075 12.1655 47.22 11.0198 44.1087 11.4083C41.9546 11.679 40.2087 12.7384 38.863 14.4411C38.3059 15.1473 37.8743 15.9478 37.5918 16.8031Z" fill="url(#paint10_linear_466_824)"/>
</g>
<defs>
<linearGradient id="paint0_linear_466_824" x1="37.4371" y1="14.2132" x2="52.7164" y2="14.2132" gradientUnits="userSpaceOnUse">
<stop stop-color="#83E617"/>
<stop offset="1" stop-color="#83E617" stop-opacity="0.4"/>
</linearGradient>
<linearGradient id="paint1_linear_466_824" x1="0.461853" y1="18.3568" x2="33.2463" y2="18.3568" gradientUnits="userSpaceOnUse">
<stop stop-color="#83E617"/>
<stop offset="1" stop-color="#83E617" stop-opacity="0.4"/>
</linearGradient>
<linearGradient id="paint2_linear_466_824" x1="80.0364" y1="19.5226" x2="105.832" y2="19.5226" gradientUnits="userSpaceOnUse">
<stop stop-color="#83E617"/>
<stop offset="1" stop-color="#83E617" stop-opacity="0.4"/>
</linearGradient>
<linearGradient id="paint3_linear_466_824" x1="66.4173" y1="19.3453" x2="79.3184" y2="19.3453" gradientUnits="userSpaceOnUse">
<stop stop-color="#83E617"/>
<stop offset="1" stop-color="#83E617" stop-opacity="0.4"/>
</linearGradient>
<linearGradient id="paint4_linear_466_824" x1="100.699" y1="9.64112" x2="110.388" y2="9.64112" gradientUnits="userSpaceOnUse">
<stop stop-color="#83E617"/>
<stop offset="1" stop-color="#83E617" stop-opacity="0.4"/>
</linearGradient>
<linearGradient id="paint5_linear_466_824" x1="33.3232" y1="14.5347" x2="33.4342" y2="14.5347" gradientUnits="userSpaceOnUse">
<stop stop-color="#83E617"/>
<stop offset="1" stop-color="#83E617" stop-opacity="0.4"/>
</linearGradient>
<linearGradient id="paint6_linear_466_824" x1="33.4442" y1="14.3061" x2="33.5075" y2="14.3061" gradientUnits="userSpaceOnUse">
<stop stop-color="#83E617"/>
<stop offset="1" stop-color="#83E617" stop-opacity="0.4"/>
</linearGradient>
<linearGradient id="paint7_linear_466_824" x1="33.2688" y1="14.7255" x2="33.3243" y2="14.7255" gradientUnits="userSpaceOnUse">
<stop stop-color="#83E617"/>
<stop offset="1" stop-color="#83E617" stop-opacity="0.4"/>
</linearGradient>
<linearGradient id="paint8_linear_466_824" x1="33.0878" y1="15.1928" x2="33.1398" y2="15.1928" gradientUnits="userSpaceOnUse">
<stop stop-color="#83E617"/>
<stop offset="1" stop-color="#83E617" stop-opacity="0.4"/>
</linearGradient>
<linearGradient id="paint9_linear_466_824" x1="32.7269" y1="16.9135" x2="62.9183" y2="16.9135" gradientUnits="userSpaceOnUse">
<stop stop-color="#83E617"/>
<stop offset="1" stop-color="#83E617" stop-opacity="0.4"/>
</linearGradient>
<linearGradient id="paint10_linear_466_824" x1="32.2939" y1="19.4686" x2="58.1082" y2="19.4686" gradientUnits="userSpaceOnUse">
<stop stop-color="#83E617"/>
<stop offset="1" stop-color="#83E617" stop-opacity="0.4"/>
</linearGradient>
<clipPath id="clip0_466_824">
<rect width="110.13" height="34.8371" fill="white" transform="translate(0.257538 0.858398)"/>
</clipPath>
</defs>
</svg>
