<svg width="183" height="70" viewBox="0 0 183 70" fill="none" xmlns="http://www.w3.org/2000/svg">
<g clip-path="url(#clip0_958_420)">
<path d="M81.2524 37.6408L72 32.2567V29.7299C72 28.3421 72.0372 27.2031 72.0708 27.2031C72.1045 27.2031 76.3039 29.6215 81.387 32.5801L90.6306 37.9482L99.8919 32.6174C104.984 29.6766 109.18 27.2724 109.22 27.2724C109.261 27.2724 109.284 28.4026 109.282 29.7903V32.3011L100.021 37.6462C94.9292 40.587 90.7014 43.0001 90.6341 43.0072C90.5668 43.0143 86.3338 40.5994 81.2524 37.6408Z" fill="#8CF719"/>
<path d="M81.387 32.0985C76.4278 29.1968 72.3312 26.8139 72.3064 26.789C72.2816 26.7642 73.2522 26.1671 74.4548 25.4706L76.6527 24.2036L77.007 24.4026C77.2053 24.511 80.3261 26.3288 83.9428 28.4292C87.5594 30.5295 90.5792 32.2549 90.6447 32.2549C90.7103 32.2549 93.7389 30.5473 97.3609 28.4505C100.983 26.3537 104.111 24.5554 104.311 24.4488L104.665 24.2498L106.851 25.5239C108.696 26.6007 109.019 26.8157 108.902 26.8903C108.172 27.3879 90.7103 37.3742 90.5951 37.3654C90.4977 37.3654 86.3604 34.9896 81.387 32.0985Z" fill="#8CF719"/>
<path d="M81.1302 21.3609L72.069 16.0763L72.0478 13.5335C72.0336 11.4474 72.0513 10.9889 72.1434 11.0173C72.2001 11.0351 76.3393 13.418 81.3286 16.3197L90.4074 21.6025V24.1293C90.4074 26.0999 90.3773 26.6561 90.3029 26.6472C90.2285 26.6384 86.1124 24.2608 81.1302 21.3609Z" fill="#8CF719"/>
<path d="M90.8998 24.1273V21.6005L93.0251 20.3566C94.1941 19.685 95.1895 19.1128 95.2213 19.1128C95.2532 19.1128 95.278 20.234 95.2674 21.6396L95.2391 24.1913L93.1243 25.4173C91.9642 26.0961 90.9848 26.6434 90.9511 26.6523C90.9175 26.6612 90.898 25.5151 90.8998 24.1273Z" fill="#8CF719"/>
<path d="M81.4118 15.8912C76.4473 12.9913 72.3542 10.6066 72.3347 10.5818C72.2603 10.5 90.6093 -0.0407509 90.7581 0.00011854C90.8732 0.0249956 108.021 9.95983 108.833 10.468L109.065 10.6102L106.867 11.8789C105.657 12.5737 104.621 13.1228 104.564 13.105C104.507 13.0872 101.358 11.2623 97.5681 9.06248C93.7779 6.86263 90.6412 5.0626 90.6164 5.07859C89.6795 5.59213 80.9814 10.6475 80.9814 10.6813C80.9814 10.715 84.111 12.5382 87.9402 14.7487C91.7694 16.9592 94.8848 18.7912 94.8671 18.7983C94.3446 19.1537 90.7227 21.1616 90.6164 21.1527C90.5101 21.1438 86.3869 18.7841 81.4118 15.8912Z" fill="#8CF719"/>
<path d="M104.081 18.4551C103.923 18.3716 100.903 16.6213 97.3768 14.5725C93.8504 12.5237 90.8802 10.8037 90.7899 10.7628C90.6411 10.6882 90.2586 10.8783 88.4361 11.9391C87.0847 12.7174 86.1973 13.183 86.1052 13.1563C85.9281 13.1066 81.8191 10.7397 81.8191 10.6811C81.8191 10.6562 83.8081 9.49583 86.2469 8.08673L90.6748 5.54395L97.545 9.51894L104.412 13.5046V16.0652C104.412 17.4689 104.398 18.6151 104.382 18.6151C104.278 18.5688 104.177 18.5154 104.081 18.4551Z" fill="#8CF719"/>
<path d="M104.83 16.0883V13.5615L106.955 12.3265C108.133 11.6566 109.135 11.0934 109.194 11.0827C109.252 11.072 109.3 11.5571 109.297 13.5704V16.0901L107.099 17.357C105.898 18.0447 104.885 18.6169 104.86 18.6169C104.835 18.6169 104.828 17.4761 104.83 16.0883Z" fill="#8CF719"/>
<path d="M3.92838 68.6679C2.67076 67.9471 1.65674 66.8654 1.01663 65.5619C0.338876 64.2209 0 62.6578 0 60.8725C0 59.0873 0.338876 57.5277 1.01663 56.1939C1.66 54.8958 2.67352 53.819 3.92838 53.1002C5.19298 52.3669 6.67365 52.0003 8.3704 52.0003C9.48588 51.9917 10.5948 52.1719 11.6505 52.5334C12.6131 52.8592 13.4973 53.3827 14.247 54.0704L13.1932 56.3804C12.4937 55.8081 11.709 55.3494 10.8677 55.0211C10.0841 54.7318 9.25498 54.5861 8.41999 54.5911C6.75512 54.5911 5.46986 55.1313 4.56422 56.2116C3.65858 57.292 3.20576 58.8474 3.20576 60.8779C3.20576 62.9225 3.65858 64.4856 4.56422 65.5672C5.46986 66.6487 6.75512 67.1889 8.41999 67.1877C9.2556 67.1907 10.0849 67.042 10.8677 66.7488C11.7062 66.4204 12.488 65.9617 13.1844 65.3895L14.2382 67.6995C13.4882 68.3825 12.6045 68.9012 11.6435 69.2223C10.588 69.5847 9.47887 69.765 8.36331 69.7554C6.67129 69.7649 5.19298 69.4024 3.92838 68.6679Z" fill="#8CF719"/>
<path d="M31.6043 69.5404H28.1701L25.2087 64.0141C24.9867 63.5496 24.6282 63.1646 24.1815 62.9106C23.7002 62.6816 23.1711 62.5719 22.6388 62.5908H20.2407V69.5404H17.1323V52.2295H24.7695C26.726 52.2295 28.2143 52.6672 29.2345 53.5426C30.2547 54.4181 30.7648 55.6809 30.7648 57.3311C30.7648 58.6567 30.3934 59.7495 29.6507 60.6095C28.908 61.4695 27.8601 62.0299 26.507 62.2905C27.4185 62.5357 28.1523 63.1825 28.7085 64.2309L31.6043 69.5404ZM26.9462 59.4847C27.5 59.0346 27.7775 58.3427 27.7786 57.4093C27.7798 56.4758 27.5023 55.7845 26.9462 55.3356C26.3912 54.902 25.5187 54.6846 24.3285 54.6834H20.2159V60.1599H24.3285C25.5187 60.1599 26.3912 59.9349 26.9462 59.4847Z" fill="#8CF719"/>
<path d="M48.2886 52.2295L41.2889 61.5602V69.5404H38.1311V61.5602L31.1562 52.2295H34.6986L39.6914 59.0298L44.7108 52.2295H48.2886Z" fill="#8CF719"/>
<path d="M49.1934 52.2295H56.7313C58.5745 52.2295 60.0103 52.6915 61.0387 53.6155C62.0672 54.5395 62.5814 55.8373 62.5814 57.5088C62.5814 59.1779 62.0672 60.481 61.0387 61.418C60.0103 62.355 58.5745 62.8212 56.7313 62.8165H52.3513V69.5457H49.1934V52.2295ZM56.3399 60.3803C58.5101 60.3803 59.5953 59.4326 59.5953 57.5372C59.5905 56.5705 59.3213 55.8503 58.7876 55.3764C58.2539 54.9026 57.438 54.6716 56.3399 54.6834H52.3513V60.3803H56.3399Z" fill="#8CF719"/>
<path d="M68.9929 69.5404V54.8309H63.3643V52.2295H77.7795V54.8309H72.1509V69.5404H68.9929Z" fill="#8CF719"/>
<path d="M81.8674 68.6801C80.632 67.9555 79.6394 66.8786 79.0158 65.5864C78.344 64.2454 78.0081 62.674 78.0081 60.8722C78.0081 59.0704 78.3381 57.5026 78.9981 56.1687C79.6197 54.8784 80.6131 53.805 81.8497 53.0875C83.093 52.3625 84.5554 52 86.2368 52C87.9182 52 89.374 52.3601 90.6044 53.0804C91.8337 53.8014 92.8205 54.8743 93.4382 56.1616C94.1006 57.4966 94.4312 59.0645 94.43 60.8651C94.4289 62.6657 94.0941 64.2371 93.4258 65.5793C92.8065 66.8734 91.8168 67.9529 90.5831 68.6801C89.3504 69.3991 87.9022 69.7593 86.2385 69.7604C84.5748 69.7616 83.1178 69.4015 81.8674 68.6801ZM89.9438 65.5864C90.8329 64.4895 91.2774 62.9181 91.2774 60.8722C91.2774 58.8264 90.8329 57.2585 89.9438 56.1687C89.0546 55.0812 87.819 54.5375 86.2368 54.5375C84.6546 54.5375 83.4106 55.0812 82.505 56.1687C81.6147 57.2585 81.1695 58.8264 81.1695 60.8722C81.1695 62.9181 81.6147 64.4895 82.505 65.5864C83.3917 66.6822 84.6357 67.2307 86.2368 67.2319C87.819 67.2319 89.0546 66.6834 89.9438 65.5864Z" fill="#8CF719"/>
<path d="M109.299 52.2295H112.505L104.82 69.5404H102.25L94.5647 52.2295H97.8201L103.548 65.6116L109.299 52.2295Z" fill="#8CF719"/>
<path d="M125.673 69.5404L123.934 65.489H115.54L113.803 69.5404H110.615L118.422 52.2295H120.992L128.799 69.5404H125.673ZM116.568 63.0332H122.882L119.725 55.6661L116.568 63.0332Z" fill="#8CF719"/>
<path d="M145.104 69.5404H141.679L138.717 64.0141C138.495 63.5491 138.136 63.1639 137.688 62.9106C137.208 62.6814 136.679 62.5717 136.148 62.5908H133.749V69.5404H130.641V52.2295H138.276C140.234 52.2295 141.723 52.6672 142.743 53.5426C143.763 54.4181 144.274 55.6827 144.274 57.3364C144.274 58.662 143.902 59.7548 143.159 60.6148C142.417 61.4749 141.368 62.0352 140.014 62.2958C140.928 62.541 141.662 63.1878 142.217 64.2362L145.104 69.5404ZM140.455 59.4847C141.01 59.0346 141.287 58.3427 141.287 57.4093C141.287 56.4758 141.01 55.7845 140.455 55.3356C139.899 54.902 139.026 54.6846 137.835 54.6834H133.725V60.1599H137.835C139.028 60.1599 139.901 59.9349 140.455 59.4847Z" fill="#8CF719"/>
<path d="M159.25 52.2295H162.212V69.5404H159.835L150.584 57.4572V69.5404H147.649V52.2295H149.999L159.25 64.2842V52.2295Z" fill="#8CF719"/>
<path d="M179.124 69.5404L177.387 65.489H168.991L167.254 69.5404H164.066L171.878 52.2295H174.448L182.255 69.5404H179.124ZM170.019 63.0332H176.335L173.177 55.6661L170.019 63.0332Z" fill="#8CF719"/>
</g>
<defs>
<clipPath id="clip0_958_420">
<rect width="183" height="70" fill="white"/>
</clipPath>
</defs>
</svg>
