<svg width="136" height="20" viewBox="0 0 136 20" fill="none" xmlns="http://www.w3.org/2000/svg">
<g clip-path="url(#clip0_958_517)">
<path d="M60.5701 0.121767C60.6406 0.187723 63.3325 2.56217 66.5579 5.40339C69.7832 8.24461 72.44 10.5835 72.4601 10.6038C72.4802 10.6241 71.5695 11.4562 70.4323 12.4506C69.3002 13.445 68.3693 14.272 68.3693 14.2822C68.3693 14.2974 69.5517 14.3076 71.0009 14.3076H73.6274L74.3721 13.6226L75.1219 12.9377L75.6854 13.4349C75.9923 13.7038 77.1849 14.749 78.3271 15.7535C79.4743 16.7581 80.8429 17.9606 81.3712 18.4273L82.3323 19.2746L84.9387 19.2797C86.3677 19.2797 87.5401 19.2695 87.5401 19.2543C87.5401 19.2442 85.291 17.2553 82.5487 14.8352C79.8014 12.4151 77.522 10.411 77.4868 10.3806C77.4364 10.3299 77.9497 9.85801 79.8919 8.14821C81.2455 6.95591 82.3575 5.97163 82.3575 5.95641C82.3575 5.94626 81.5121 5.93612 80.4857 5.93612H78.6088L77.0842 7.2857C76.2439 8.02644 75.5395 8.62513 75.5194 8.61498C75.4841 8.60483 72.6764 6.13399 66.4975 0.695084L65.7075 0H60.4443L60.5701 0.121767ZM69.6373 4.77933C72.0223 6.87981 75.6753 10.0965 77.7534 11.923C79.8265 13.7495 82.2921 15.921 83.228 16.7378C84.1588 17.5597 84.9236 18.2498 84.9236 18.2751C84.9236 18.2954 84.4305 18.3157 83.8318 18.3157H82.7348L81.8543 17.5394C81.3712 17.1133 79.8064 15.7383 78.3824 14.4851C76.9584 13.232 75.6401 12.0752 75.4489 11.9077L75.1118 11.6084L74.7445 11.9382C74.5482 12.1208 74.1356 12.4963 73.8287 12.7804L73.2752 13.2878L72.128 13.2928H70.9808L72.4651 11.994C73.2853 11.2786 73.9545 10.6749 73.9545 10.6546C73.9545 10.6089 72.7871 9.57389 67.0107 4.49521C64.9226 2.65857 63.1665 1.11112 63.1112 1.06038C63.0155 0.963984 63.0357 0.963985 64.1578 0.963985H65.2999L69.6373 4.77933Z" fill="#8CF719"/>
<path d="M0.0887457 5.7695C0.00493028 5.79111 0 6.05037 0 10.1932V14.5899H1.5284V10.971H7.8392V9.62067H1.5284V7.08203L4.92046 7.07123L8.30758 7.05503L8.32237 6.39066L8.33717 5.73169L4.25486 5.73709C2.01157 5.74249 0.133119 5.7533 0.0887457 5.7695Z" fill="#8CF719"/>
<path d="M9.37939 10.1608V14.5899H10.9426V5.73169H9.37939V10.1608Z" fill="#8CF719"/>
<path d="M12.5059 10.1527V14.5738H13.8737V11.1771C13.8737 8.94503 13.8889 7.78046 13.9243 7.78046C13.9547 7.78046 14.9933 8.57301 16.2445 9.53809C17.4908 10.5086 19.3753 11.9751 20.4341 12.8C21.498 13.6195 22.4504 14.3473 22.5568 14.412C22.6834 14.4929 22.8607 14.5414 23.0988 14.563L23.4484 14.5899V5.73169H22.1312L22.1211 8.99355L22.1059 12.2608L18.0784 9.05825C15.8646 7.30062 13.975 5.82874 13.8787 5.79639C13.7825 5.75865 13.438 5.73169 13.1087 5.73169H12.5059V10.1527Z" fill="#8CF719"/>
<path d="M24.6573 5.7695C24.5635 5.79111 24.5427 5.83972 24.5114 6.12599C24.4905 6.30964 24.4853 6.59591 24.4957 6.75795L24.5114 7.05503L26.7687 7.07123L29.0209 7.08203V14.5899H30.5849V7.08203H34.912V5.73169L29.8446 5.73709C27.0555 5.74249 24.7199 5.7587 24.6573 5.7695Z" fill="#8CF719"/>
<path d="M56.2859 10.1419L56.301 14.5576L57.09 14.5738L57.884 14.5899L57.8941 12.5765L57.9092 10.563L61.2411 10.5468L64.5681 10.536V14.5846H66.1762V5.73169H64.5681V9.24044H57.884V5.73169H56.2759L56.2859 10.1419Z" fill="#8CF719"/>
<path d="M93.7932 10.1635V14.5899H95.4001V10.6494H97.6445L99.8838 10.6548L100.791 12.4631C101.288 13.4618 101.739 14.347 101.786 14.4334L101.879 14.5899H102.709C103.201 14.5899 103.538 14.5684 103.538 14.536C103.538 14.4928 102.595 12.6089 101.869 11.2C101.724 10.9247 101.615 10.6925 101.625 10.6817C101.636 10.6709 101.864 10.6008 102.133 10.5198C103.253 10.1905 103.693 9.55353 103.693 8.26879C103.693 6.86529 103.274 6.22292 102.133 5.85585C101.884 5.78027 101.376 5.76948 97.8259 5.75328L93.7932 5.73169V10.1635ZM101.646 7.15678C101.926 7.28634 102.035 7.45907 102.097 7.88552C102.164 8.33356 102.081 8.7978 101.9 9.02452C101.656 9.32681 101.646 9.32681 98.4065 9.32681H95.426L95.4104 8.20941L95.4001 7.09201L95.5141 7.07041C95.5815 7.05422 96.9396 7.04882 98.5361 7.05422C101.185 7.05962 101.454 7.07041 101.646 7.15678Z" fill="#8CF719"/>
<path d="M104.736 10.1608V14.5899H113.594V13.2396H106.317L106.328 11.9001L106.344 10.5659L109.787 10.5497L113.225 10.5389V9.24258H106.317V7.08203H113.594V5.73169H104.736V10.1608Z" fill="#8CF719"/>
<path d="M36.0283 5.78571C35.964 5.82892 35.9541 6.37986 35.9541 10.1986V14.5629L40.1252 14.5791L44.2913 14.5899V13.2396H37.4632L37.4731 11.9001L37.488 10.5659L40.7189 10.5497L43.9449 10.5389V9.24258H37.4632V7.08203H44.2913V5.73169H40.1994C37.7057 5.73169 36.0729 5.7533 36.0283 5.78571Z" fill="#8CF719"/>
<path d="M116.438 5.77084C115.873 5.86282 115.451 6.06843 115.134 6.42012C114.737 6.86379 114.603 7.3778 114.643 8.30843C114.692 9.48253 115.039 10.0019 115.992 10.3482L116.388 10.4943L119.389 10.5268C122.162 10.5538 122.405 10.5592 122.573 10.6512C122.672 10.7053 122.791 10.7973 122.836 10.8514C123.025 11.0786 123.059 12.3772 122.891 12.8209C122.836 12.967 122.757 13.0481 122.603 13.1239C122.4 13.2267 122.246 13.2321 118.66 13.2321H114.925V14.5901L118.858 14.5739C122.648 14.5523 122.796 14.5523 123.114 14.4441C123.724 14.2385 124.15 13.8651 124.354 13.3619C124.562 12.8533 124.602 11.2518 124.423 10.5971C124.26 10.0019 123.764 9.54746 123.034 9.32563C122.653 9.212 122.543 9.20659 119.761 9.19036C117.832 9.17954 116.815 9.15249 116.671 9.1092C116.522 9.07133 116.418 8.99017 116.324 8.86031C116.21 8.69799 116.19 8.61683 116.175 8.17857C116.155 7.59964 116.235 7.3778 116.512 7.19925C116.681 7.09645 116.78 7.09104 120.381 7.06398L124.076 7.03693V5.73838L120.406 5.73297C118.387 5.72756 116.602 5.74379 116.438 5.77084Z" fill="#8CF719"/>
<path d="M83.3886 5.78652C83.3735 5.82224 83.3685 7.70024 83.3735 9.96098L83.3886 14.0691H84.9461L84.9612 12.5228L84.9712 10.9816H87.8752C90.9802 10.9816 91.156 10.9714 91.6836 10.7264C92.2965 10.4458 92.603 10.0171 92.7135 9.29756C92.7889 8.78213 92.7437 7.41956 92.6382 7.07764C92.4573 6.48056 92.0905 6.13865 91.362 5.88348L90.9752 5.7508L87.1919 5.73549C84.1322 5.72528 83.4087 5.73549 83.3886 5.78652ZM90.7591 7.08785C91.1008 7.24605 91.1661 7.40425 91.1912 8.13912C91.2012 8.47083 91.1962 8.86888 91.1761 9.02198C91.1309 9.38431 90.94 9.61906 90.6285 9.70071C90.4778 9.73644 89.5232 9.75685 87.6893 9.75685H84.9712V7.0062L85.1873 6.98579C85.3028 6.97558 86.5539 6.96537 87.9606 6.97047C90.4778 6.97558 90.528 6.97558 90.7591 7.08785Z" fill="#8CF719"/>
<path d="M47.6842 5.76845C47.0538 5.86045 46.4542 6.16711 46.1825 6.55044C45.8596 6.99 45.8545 7.05644 45.8545 9.90332C45.8545 12.464 45.8545 12.4896 45.9724 12.8269C46.162 13.3738 46.6592 13.7827 47.3818 13.982C47.6689 14.0587 48.0533 14.0689 51.4667 14.0689H55.2338V12.8422L51.5692 12.8167C48.1763 12.7911 47.8892 12.786 47.7611 12.6991C47.4331 12.4844 47.4433 12.5713 47.428 9.95443C47.4126 7.29155 47.4075 7.33244 47.7765 7.11778C47.9508 7.02067 48.0533 7.01555 51.5948 6.99L55.2338 6.96444V5.73778L51.6205 5.73267C49.6319 5.72756 47.8636 5.74289 47.6842 5.76845Z" fill="#8CF719"/>
<path d="M127.504 5.78571C126.605 5.92614 126.045 6.28803 125.762 6.91459C125.522 7.45473 125.516 8.76726 125.752 9.3398C125.883 9.64768 126.249 10.0366 126.578 10.2094C127.112 10.4903 127.227 10.5011 130.617 10.5335C134.022 10.5659 133.933 10.5605 134.189 10.8468C134.331 11.0088 134.399 11.5274 134.362 12.1485C134.331 12.7535 134.263 12.9479 134.032 13.11C133.891 13.2072 133.703 13.2126 129.884 13.2396L125.883 13.2666L125.867 13.9256L125.851 14.5899H129.748C132.244 14.5899 133.787 14.5683 134.048 14.5305C135.026 14.3901 135.659 13.9364 135.879 13.218C135.994 12.8453 136.041 11.3869 135.957 10.89C135.921 10.6902 135.848 10.4363 135.795 10.3229C135.654 10.042 135.293 9.69089 134.969 9.53425C134.373 9.24258 134.242 9.23178 130.852 9.19397C127.86 9.16156 127.703 9.15616 127.546 9.05353C127.3 8.90229 127.206 8.65923 127.201 8.1407C127.196 7.55195 127.305 7.30889 127.635 7.17926C127.849 7.09824 128.221 7.08743 131.705 7.08743L135.534 7.08203V5.73169L131.652 5.73709C129.513 5.74249 127.651 5.7641 127.504 5.78571Z" fill="#8CF719"/>
</g>
<defs>
<clipPath id="clip0_958_517">
<rect width="136" height="20" fill="white"/>
</clipPath>
</defs>
</svg>
