<svg width="111" height="36" viewBox="0 0 111 36" fill="none" xmlns="http://www.w3.org/2000/svg">
<g clip-path="url(#clip0_466_823)">
<path d="M37.4471 16.8221C37.4038 16.9477 37.5059 17.0811 37.6393 17.0732C37.6511 17.0732 37.6629 17.0732 37.6707 17.0732H52.6033C52.7211 17.0732 52.7328 17.0143 52.7015 16.9201C52.6701 16.826 52.6544 16.7907 52.6309 16.724C52.3602 15.9707 51.9756 15.2645 51.4852 14.6289C49.5627 12.1845 47.0753 11.0389 43.9639 11.4273C41.8099 11.6981 40.064 12.7573 38.7182 14.4602C38.1611 15.1664 37.7295 15.9667 37.4471 16.8221Z" fill="#8CF719"/>
<path d="M33.2463 35.4041C33.1444 35.4434 33.0345 35.4552 32.9285 35.4394H26.29C26.0979 35.4512 25.9095 35.3689 25.7918 35.2119C22.8885 31.7318 19.9851 28.2556 17.0778 24.7833L16.8699 24.5558C16.7796 24.6147 16.7011 24.6892 16.6423 24.7833C13.7115 28.2595 10.7845 31.7436 7.86157 35.2355C7.7674 35.3728 7.61046 35.4512 7.44175 35.4473H0.689474C0.611006 35.4591 0.532537 35.4473 0.461914 35.4159C0.489378 35.3296 0.53646 35.255 0.599235 35.1884L11.4829 20.6479C12.0047 19.9496 12.5266 19.2591 13.0444 18.5608C13.2249 18.3214 13.2249 18.388 13.0444 18.1409C11.2514 15.7515 9.46234 13.3661 7.68502 10.9767C5.33486 7.83396 2.9847 4.68342 0.642394 1.54073C0.575694 1.47795 0.528612 1.39948 0.501148 1.31317C0.552153 1.2347 0.626699 1.27001 0.689474 1.27001H7.44175C7.61046 1.27001 7.76348 1.35632 7.85764 1.49757C10.3569 4.45979 12.86 7.42199 15.3593 10.3842C15.7987 10.906 16.2343 11.4279 16.6855 11.9458C16.7365 12.0046 16.7914 12.0595 16.8502 12.1262C16.9562 12.0831 17.0033 11.9928 17.0621 11.9222C19.9733 8.45387 22.8845 4.98553 25.7957 1.51326C25.9174 1.34848 26.1174 1.25824 26.3215 1.27393H33.2386C33.211 1.38379 33.1523 1.48187 33.0698 1.56034C30.5392 4.93453 28.0085 8.30478 25.4818 11.679L20.6913 18.0742L20.656 18.1212C20.4637 18.3959 20.4442 18.3175 20.656 18.5921L33.0424 35.1295C33.109 35.2119 33.1679 35.2982 33.2463 35.4081V35.4041Z" fill="#8CF719"/>
<path d="M80.0364 19.49C80.2639 14.366 82.4532 10.419 86.9927 7.8766C88.4091 7.09975 89.9666 6.62109 91.5753 6.472C94.1334 6.18952 96.719 6.68779 98.9867 7.91192C99.2614 8.05708 99.2575 8.05708 99.1986 8.36312C98.4649 11.957 100.772 15.4724 104.358 16.2335C104.648 16.2885 104.943 16.3277 105.237 16.3474C105.378 16.3316 105.507 16.4376 105.523 16.5789C105.523 16.5828 105.523 16.5907 105.523 16.5945C105.759 17.6735 105.861 18.776 105.825 19.8785C105.774 22.2365 105.084 24.5357 103.824 26.5288C101.937 29.5027 99.3006 31.4919 95.8597 32.2844C91.689 33.2457 87.9225 32.3041 84.6543 29.5498C82.1943 27.4743 80.7465 24.7985 80.209 21.6165C80.0991 20.9104 80.0442 20.2002 80.0364 19.4861V19.49ZM101.011 19.5293C101.023 17.9207 100.556 16.3474 99.6772 15.0056C97.7822 12.0355 94.1647 10.6583 90.7709 11.6117C85.7136 13.0791 83.3242 18.9604 85.9137 23.543C88.0913 27.4233 92.9995 28.8083 96.8798 26.6307C99.4457 25.1908 101.023 22.4718 100.995 19.5293H101.007H101.011Z" fill="#8CF719"/>
<path d="M66.418 25.2854V19.3375C66.4024 17.7916 66.6731 16.2576 67.2184 14.8137C68.8034 10.6784 71.7107 7.93981 75.9795 6.6686C76.9878 6.37826 78.0275 6.22917 79.0751 6.21741C79.3144 6.21741 79.3184 6.21741 79.3184 6.45674V10.9099C79.3184 11.0616 79.2425 11.1374 79.0908 11.1374C75.4655 11.2708 72.3738 13.8133 71.5421 17.3483C71.3773 18.031 71.2948 18.7254 71.2988 19.4278V32.1241C71.2988 32.4968 71.3655 32.4732 70.9535 32.4732H66.575C66.4651 32.4732 66.4101 32.4379 66.418 32.3202V25.2854Z" fill="#8CF719"/>
<path d="M109.863 11.824C109.843 11.93 109.8 12.032 109.733 12.1222C108.768 13.829 106.869 14.7824 104.927 14.5391C102.981 14.2684 101.384 12.8598 100.878 10.9648C100.187 8.45379 101.549 5.83292 104.001 4.95406C106.543 4.11052 109.286 5.48373 110.129 8.02613C110.169 8.14383 110.204 8.26154 110.231 8.37924C110.42 9.09331 110.439 9.83877 110.286 10.5607H102.694C102.687 10.6902 102.722 10.8236 102.793 10.9334C103.467 12.4439 105.241 13.1227 106.751 12.4479C106.987 12.342 107.206 12.2086 107.406 12.0477C107.614 11.8672 107.881 11.777 108.152 11.7887C108.627 11.8084 109.098 11.7887 109.572 11.7887C109.666 11.7809 109.764 11.7887 109.855 11.8201L109.863 11.824ZM108.391 8.70489C108.164 7.54355 106.791 6.53914 105.504 6.57052C104.181 6.59799 102.875 7.59063 102.694 8.70489H108.387H108.391Z" fill="#8CF719"/>
<path d="M33.3243 14.6563C33.3243 14.5622 33.3047 14.4524 33.4342 14.413C33.4185 14.5033 33.3832 14.5857 33.3243 14.6563Z" fill="#8CF719"/>
<path d="M33.4443 14.3754C33.4443 14.3239 33.4641 14.2725 33.5076 14.2368C33.5076 14.2883 33.4879 14.3398 33.4443 14.3754Z" fill="#8CF719"/>
<path d="M33.2688 14.795C33.2688 14.7435 33.2885 14.692 33.3243 14.6564C33.3243 14.7079 33.3084 14.7594 33.2688 14.795Z" fill="#8CF719"/>
<path d="M33.0879 15.2621C33.0879 15.2106 33.1076 15.1631 33.1394 15.1235C33.1434 15.175 33.1235 15.2265 33.0879 15.2621Z" fill="#8CF719"/>
<path d="M62.5333 1.30909C57.3112 1.31694 51.1239 1.30124 45.9488 1.30909C45.3564 1.30909 44.7678 1.41502 44.2146 1.62689C37.5448 4.18106 33.2957 8.83429 32.7268 16.077C32.8052 15.8181 32.8798 15.5592 32.9386 15.308C32.9386 15.3001 32.9426 15.2923 32.9465 15.2806C32.97 15.2217 33.072 14.9667 33.0681 14.9196L33.9744 12.9186C36.6895 8.03391 42.2647 5.47973 47.738 6.60577C52.9404 7.66902 56.8364 11.8397 57.8369 16.8735C57.9821 17.6386 58.0684 18.4153 58.0958 19.1922C58.0958 19.2197 58.0958 19.2511 58.0958 19.2785C58.1037 20.0672 58.041 20.8557 57.9076 21.6326C57.8566 21.9543 57.8605 21.9543 57.5231 21.9583H37.8783C37.8429 21.9543 37.8037 21.9504 37.7645 21.9504C37.635 21.9504 37.5408 22.0799 37.5801 22.2016C38.9886 26.3997 43.5359 28.6635 47.738 27.255C48.8718 26.8665 49.9077 26.2387 50.7786 25.4149C50.8806 25.3089 51.0219 25.25 51.171 25.25H56.5618C56.6246 25.25 56.703 25.2226 56.7423 25.3089C56.7423 25.3285 56.7306 25.3481 56.7227 25.3639C56.7148 25.3834 56.6795 25.4502 56.6559 25.4973C55.9301 26.9411 54.9453 28.224 53.7604 29.2873H53.784C52.1558 30.739 50.1587 31.7748 48.0283 32.2652C48.0008 32.2731 47.9733 32.277 47.9459 32.2809C47.836 32.3044 47.7262 32.3319 47.6163 32.3515C47.3063 32.4143 46.9925 32.4654 46.6786 32.5046C53.733 32.9793 59.9987 27.557 62.2037 21.1187C62.6942 19.8239 62.8119 18.4507 62.8432 17.0775C62.8355 13.6013 62.8237 10.1212 62.8629 6.63716C62.8747 4.94614 62.8982 3.24728 62.91 1.55234C62.961 1.21885 62.7687 1.31301 62.5333 1.2934V1.30909Z" fill="#8CF719"/>
<path d="M33.9862 12.9265C36.7013 8.04187 42.2764 5.48769 47.7497 6.61373C52.9522 7.67698 56.8482 11.8476 57.8487 16.8814C57.9939 17.6465 58.0802 18.4234 58.1076 19.2002C58.1076 19.2277 58.1076 19.259 58.1076 19.2865C58.1155 20.0751 58.0527 20.8638 57.9193 21.6406C57.8683 21.9623 57.8722 21.9623 57.5349 21.9662H37.89C37.8547 21.9623 37.8155 21.9584 37.7763 21.9584C37.6468 21.9584 37.5526 22.0879 37.5919 22.2095C39.0004 26.4076 43.5477 28.6714 47.7497 27.2629C48.8836 26.8745 49.9194 26.2468 50.7904 25.4228C50.8924 25.3168 51.0337 25.2581 51.1827 25.2581H56.5736C56.6364 25.2581 56.7148 25.2305 56.7541 25.3168C56.7541 25.3365 56.7423 25.3561 56.7344 25.3718C56.7266 25.3875 56.6912 25.4581 56.6678 25.5052C55.322 28.1849 53.0817 30.3115 50.3313 31.512C49.1464 32.03 47.8909 32.3712 46.6079 32.5282C46.0273 32.5793 45.4466 32.5949 44.862 32.5832C42.0528 32.5322 39.3378 31.5317 37.1681 29.7464C34.6689 27.7456 33.0014 24.8892 32.4875 21.7269C32.1892 19.9927 32.2363 18.2154 32.6248 16.4969C32.6326 16.4537 32.6404 16.4145 32.6483 16.3714C32.6522 16.3439 32.6561 16.3203 32.6601 16.2929C32.77 15.9633 32.868 15.622 32.9426 15.3003C32.9426 15.2924 32.9465 15.2846 32.9504 15.2728C32.9739 15.214 33.076 14.9589 33.072 14.9118M37.5919 16.803C37.5487 16.9285 37.6508 17.0619 37.7841 17.0541C37.7958 17.0541 37.8076 17.0541 37.8155 17.0541H52.7482C52.8659 17.0541 52.8777 16.9952 52.8462 16.901C52.8149 16.8069 52.7992 16.7715 52.7757 16.7049C52.5049 15.9515 52.1204 15.2453 51.63 14.6097C49.7075 12.1654 47.22 11.0198 44.1088 11.4082C41.9547 11.6789 40.2088 12.7383 38.8631 14.441C38.3059 15.1472 37.8744 15.9477 37.5919 16.803Z" fill="black"/>
</g>
<defs>
<clipPath id="clip0_466_823">
<rect width="110.13" height="34.8371" fill="white" transform="translate(0.257568 0.858398)"/>
</clipPath>
</defs>
</svg>
