<svg width="99" height="35" viewBox="0 0 99 35" fill="none" xmlns="http://www.w3.org/2000/svg">
<g clip-path="url(#clip0_466_1051)">
<path d="M97.8536 33.4057C97.777 33.6196 97.629 33.8008 97.4347 33.9186C97.2403 34.0363 97.0113 34.0836 96.7862 34.0525C95.7124 34.0525 94.6322 34.0525 93.5519 34.0525C93.4022 34.064 93.2519 34.0432 93.111 33.9915C92.9702 33.9398 92.8421 33.8584 92.7353 33.7529C92.6286 33.6475 92.5457 33.5203 92.4925 33.38C92.4391 33.2398 92.4166 33.0897 92.4263 32.94C92.4263 30.9993 92.4263 29.1169 92.4263 27.2086C92.4192 27.0888 92.4367 26.9689 92.4779 26.8561C92.5189 26.7432 92.5825 26.6401 92.665 26.5528C92.7474 26.4656 92.8467 26.3961 92.9569 26.3487C93.0672 26.3013 93.186 26.277 93.306 26.2771C93.426 26.2779 93.5447 26.3028 93.6548 26.3505C93.765 26.3981 93.8645 26.4676 93.9472 26.5546C94.0299 26.6414 94.0942 26.7441 94.1363 26.8566C94.1785 26.969 94.1975 27.0887 94.1922 27.2086V31.8532C94.1922 32.3772 94.1341 32.3125 94.6451 32.3125C95.3631 32.3125 96.0746 32.3125 96.7927 32.3125C97.0165 32.2853 97.2429 32.3344 97.4354 32.4518C97.6279 32.5691 97.7752 32.7479 97.8536 32.9593V33.4057Z" fill="url(#paint0_linear_466_1051)"/>
<path d="M2.79697 19.4451C2.84872 20.4154 2.85519 21.3857 2.95869 22.356C3.1771 24.3414 3.95557 26.2237 5.20332 27.7833C5.64153 28.3186 6.11478 28.8243 6.61998 29.297C6.82113 29.4588 6.96932 29.6771 7.04539 29.9237C7.12147 30.1705 7.12201 30.4343 7.04693 30.6813C6.98241 30.9212 6.8463 31.1357 6.65677 31.2964C6.46725 31.457 6.2333 31.5561 5.98606 31.5804C5.79458 31.6139 5.59778 31.5988 5.4136 31.5367C5.22943 31.4745 5.06373 31.3672 4.93164 31.2246C4.34945 30.636 3.74786 30.0668 3.23036 29.4263C1.72953 27.5641 0.765539 25.3275 0.442338 22.9577C0.368167 22.3953 0.322851 21.8297 0.306519 21.2628C0.274175 20.3184 0.267702 19.3739 0.261233 18.423C0.256136 18.2531 0.284548 18.0838 0.344856 17.9249C0.405164 17.766 0.496171 17.6205 0.612702 17.4968C0.729233 17.373 0.869012 17.2735 1.02403 17.2038C1.17904 17.134 1.34627 17.0956 1.51617 17.0904C1.68607 17.0854 1.85528 17.1138 2.0142 17.1741C2.17312 17.2344 2.3186 17.3254 2.44234 17.4419C2.56608 17.5585 2.66566 17.6983 2.73537 17.8532C2.8051 18.0083 2.84363 18.1755 2.84873 18.3455C2.84873 18.7142 2.84873 19.0829 2.84873 19.458L2.79697 19.4451Z" fill="url(#paint1_linear_466_1051)"/>
<path d="M72.7282 5.22207V2.36289C72.7096 2.22572 72.7232 2.08613 72.768 1.95512C72.8127 1.8241 72.8872 1.70524 72.9856 1.60799C73.0842 1.51074 73.204 1.43775 73.3356 1.39475C73.4671 1.35175 73.6069 1.33994 73.7438 1.36024C74.3907 1.36024 75.0375 1.36024 75.6844 1.36024C76.335 1.34769 76.9774 1.50816 77.5457 1.82526C78.114 2.14237 78.5878 2.6047 78.9188 3.165C79.36 3.92062 79.5455 4.79848 79.4476 5.66797C79.3496 6.53747 78.9737 7.35213 78.3755 7.9907C78.0144 8.35136 77.5841 8.63526 77.1106 8.82536C76.637 9.01545 76.13 9.10782 75.6198 9.09687C74.9729 9.09687 74.326 9.09687 73.6791 9.09687C73.5509 9.10656 73.4221 9.08842 73.3016 9.04373C73.1811 8.99904 73.0716 8.92886 72.9807 8.83795C72.8898 8.74704 72.8195 8.63755 72.7749 8.517C72.7302 8.39646 72.7121 8.26767 72.7218 8.13947C72.7218 7.16916 72.7282 6.19237 72.7282 5.22207ZM74.4942 5.22207C74.4942 5.86894 74.4942 6.51581 74.4942 7.16268C74.4942 7.32441 74.5395 7.40853 74.7206 7.40207C75.0828 7.40207 75.4515 7.40207 75.8138 7.40207C76.098 7.3883 76.3762 7.31497 76.6303 7.18681C76.8843 7.05866 77.1087 6.87854 77.2887 6.65814C77.6305 6.21431 77.7902 5.6567 77.735 5.09916C77.741 4.63401 77.5797 4.18221 77.2805 3.82602C76.9813 3.46982 76.5641 3.23293 76.1049 3.15853C75.6541 3.10434 75.2005 3.07631 74.7465 3.07447C74.5524 3.07447 74.4878 3.13266 74.4942 3.32673C74.4747 3.92832 74.4747 4.55579 74.4747 5.18972L74.4942 5.22207Z" fill="url(#paint2_linear_466_1051)"/>
<path d="M87.0203 26.2128C88.0062 26.1725 88.9679 26.524 89.6952 27.1908C90.4225 27.8575 90.8562 28.7851 90.9016 29.7706C90.9813 30.4017 90.909 31.0428 90.6907 31.6402C90.4724 32.2377 90.1144 32.7745 89.6467 33.2055C89.1003 33.7098 88.4064 34.025 87.6673 34.1047C86.6933 34.2646 85.6945 34.0621 84.8597 33.5355C84.4059 33.2397 84.0229 32.8475 83.7378 32.3869C83.4527 31.9262 83.2725 31.4085 83.2102 30.8703C83.1055 30.2965 83.1235 29.7071 83.2628 29.1407C83.4022 28.5743 83.6599 28.0439 84.0188 27.5842C84.3104 27.214 84.6728 26.9054 85.0848 26.6766C85.4968 26.4479 85.9504 26.3034 86.4187 26.2516L86.7745 26.2128H87.0203ZM84.8921 30.1717V30.3464C84.9697 32.287 86.6645 32.8045 87.9842 32.2482C88.2308 32.1444 88.4518 31.9876 88.631 31.7889C88.849 31.5273 89.0095 31.2228 89.102 30.8952C89.1945 30.5675 89.217 30.2241 89.168 29.887C89.1591 29.601 89.0925 29.3197 88.9724 29.06C88.8523 28.8003 88.681 28.5675 88.4689 28.3754C88.2567 28.1834 88.008 28.0362 87.7375 27.9424C87.4671 27.8488 87.1805 27.8106 86.8951 27.8302C86.6096 27.8497 86.331 27.9267 86.0759 28.0565C85.8209 28.1862 85.5946 28.366 85.4106 28.5852C85.2266 28.8044 85.0888 29.0585 85.0053 29.3321C84.9218 29.6059 84.8942 29.8937 84.9245 30.1782L84.8921 30.1717Z" fill="url(#paint3_linear_466_1051)"/>
<path d="M74.2459 30.1904C74.2103 29.5148 74.3558 28.842 74.6674 28.2415C74.9791 27.641 75.4454 27.1346 76.0183 26.7748C78.0043 25.5652 81.4198 26.1668 81.9502 29.4918C82.0814 30.1554 82.0417 30.8414 81.8345 31.4853C81.6275 32.1293 81.2598 32.7098 80.7664 33.1725C80.2136 33.6917 79.508 34.0183 78.7546 34.104C77.7973 34.2607 76.8153 34.0704 75.9859 33.567C75.5177 33.2683 75.1219 32.8688 74.8274 32.3977C74.5331 31.9265 74.3477 31.3957 74.2847 30.8438C74.2847 30.7467 74.2524 30.6497 74.2459 30.5526C74.2394 30.4556 74.2459 30.3456 74.2459 30.1904ZM78.1271 32.4415C78.4371 32.4585 78.7467 32.4025 79.031 32.2777C79.3154 32.153 79.5663 31.9631 79.7638 31.7235C80.0602 31.3555 80.2303 30.9019 80.2489 30.4297C80.3459 29.2718 79.8025 28.0233 78.3082 27.9134C77.9158 27.8511 77.5137 27.9106 77.1563 28.0841C76.7988 28.2577 76.5032 28.5368 76.3094 28.8837C76.0326 29.3674 75.9256 29.9299 76.0054 30.4815C76.0101 30.7514 76.0694 31.0174 76.1798 31.2637C76.2902 31.5101 76.4493 31.7316 76.6476 31.9146C76.8459 32.0978 77.0792 32.239 77.3335 32.3295C77.5877 32.42 77.8577 32.4581 78.1271 32.4415Z" fill="url(#paint4_linear_466_1051)"/>
<path d="M76.3455 17.6998C76.3455 16.7295 76.3455 15.7592 76.3455 14.7825C76.3324 14.656 76.3475 14.5283 76.39 14.4083C76.4325 14.2886 76.5012 14.1798 76.5911 14.0899C76.6808 14 76.7897 13.9314 76.9095 13.8889C77.0293 13.8465 77.1571 13.8313 77.2835 13.8444H81.0936C81.2112 13.8327 81.3299 13.8457 81.4422 13.8826C81.5545 13.9195 81.6578 13.9795 81.7456 14.0586C81.8332 14.1379 81.9035 14.2345 81.9516 14.3425C81.9998 14.4504 82.0247 14.5671 82.0251 14.6854C82.0219 14.8029 81.995 14.9187 81.946 15.0255C81.8969 15.1324 81.8267 15.2284 81.7397 15.3075C81.6528 15.3866 81.5507 15.4474 81.4397 15.486C81.3287 15.5248 81.2109 15.5407 81.0936 15.5328H78.3573C78.1632 15.5328 78.0792 15.5845 78.0857 15.7915C78.0921 15.9985 78.0857 16.3414 78.0857 16.6131C78.0857 16.8848 78.1503 16.8459 78.3185 16.8459H80.6796C80.8265 16.8363 80.9734 16.8617 81.1084 16.9202C81.2435 16.9786 81.3625 17.0685 81.4559 17.1823C81.5467 17.2968 81.6061 17.4329 81.6284 17.5773C81.6506 17.7217 81.6349 17.8695 81.5826 18.0059C81.5304 18.1423 81.4435 18.2629 81.3306 18.3555C81.2175 18.4482 81.0825 18.5098 80.9384 18.5343C80.8113 18.5442 80.6837 18.5442 80.5567 18.5343H78.3573C78.1763 18.5343 78.0986 18.5925 78.1115 18.7801C78.1244 18.9677 78.1115 19.3235 78.1115 19.5951C78.1115 19.8669 78.1892 19.8474 78.3767 19.8474H81.0872C81.2924 19.8273 81.498 19.8815 81.6666 20.0003C81.8352 20.1189 81.9555 20.2944 82.0057 20.4943C82.0313 20.6027 82.0347 20.7152 82.0157 20.825C81.9969 20.9348 81.956 21.0396 81.8956 21.1332C81.8352 21.2269 81.7565 21.3073 81.6642 21.3698C81.5721 21.4323 81.4681 21.4756 81.3588 21.497C81.2354 21.5226 81.1096 21.5357 80.9837 21.5358H77.387C77.2903 21.5453 77.1927 21.5453 77.096 21.5358C76.8838 21.5145 76.6878 21.4128 76.5483 21.2516C76.4088 21.0904 76.3362 20.882 76.3455 20.6689C76.3391 19.6921 76.3455 18.7025 76.3455 17.6998Z" fill="url(#paint5_linear_466_1051)"/>
<path d="M8.21669 1.2367C8.70831 1.3402 9.20639 1.41135 9.69154 1.55367C10.5178 1.7872 11.288 2.18631 11.9552 2.72676C12.6225 3.2672 13.1728 3.93769 13.5727 4.69747C14.2053 5.90586 14.6047 7.22255 14.7501 8.57871C14.9204 10.3781 14.9743 12.1866 14.9118 13.9931C14.9118 15.9336 14.9118 17.8743 14.9118 19.8149C14.9151 20.1279 14.8049 20.4314 14.6015 20.6693C14.398 20.9072 14.1154 21.0633 13.8057 21.1086C13.6222 21.1328 13.4358 21.1171 13.2588 21.063C13.0819 21.0088 12.9186 20.9175 12.78 20.7947C12.6415 20.6721 12.5308 20.5212 12.4556 20.3522C12.3803 20.1832 12.3422 19.9999 12.3438 19.8149C12.3438 18.5211 12.3438 17.2274 12.3438 15.8884C12.3438 14.7176 12.3438 13.5467 12.3438 12.3758C12.3438 11.3344 12.3438 10.2865 12.2467 9.25148C12.198 7.95617 11.8219 6.69428 11.1535 5.58368C10.8053 5.03671 10.3285 4.58331 9.76466 4.26308C9.20086 3.94285 8.56723 3.76553 7.91912 3.74658C6.97836 3.65424 6.03023 3.81971 5.17637 4.22526C4.58034 4.52206 4.06598 4.96015 3.67811 5.50136C3.29025 6.04257 3.04066 6.67045 2.95112 7.33025C2.81869 8.24678 2.77319 9.17379 2.81527 10.0989C2.8412 10.3829 2.8412 10.6687 2.81527 10.9528C2.73571 11.2366 2.56165 11.4847 2.32187 11.6561C2.08207 11.8274 1.79095 11.9118 1.49669 11.8952C1.20242 11.8786 0.922675 11.762 0.703688 11.5648C0.484701 11.3675 0.339625 11.1014 0.292483 10.8104C0.205183 9.38954 0.283322 7.96331 0.525348 6.56046C0.796392 5.22391 1.47067 4.00259 2.45728 3.06109C3.4439 2.11959 4.69544 1.50318 6.04321 1.29494L6.76122 1.17847L8.21669 1.2367Z" fill="url(#paint6_linear_466_1051)"/>
<path d="M8.67176 14.8209C8.67176 16.7572 8.67176 18.6978 8.67176 20.6427C8.6673 21.5232 8.8901 22.39 9.31864 23.1591C9.75016 23.9673 10.4819 24.5736 11.3563 24.8475C12.6796 25.2844 14.1103 25.2707 15.4252 24.8086C15.9501 24.6238 16.429 24.3284 16.8298 23.9422C17.2304 23.556 17.5434 23.0882 17.7473 22.5705C18.0731 21.8151 18.2363 20.9995 18.2261 20.177C18.2261 18.0941 18.2261 16.0176 18.1744 13.9347C18.1582 13.6632 18.1582 13.391 18.1744 13.1196C18.2511 12.8323 18.4246 12.5803 18.6655 12.4059C18.9063 12.2315 19.1999 12.1454 19.4968 12.162C19.7937 12.1788 20.0758 12.2972 20.2956 12.4976C20.5154 12.6979 20.6595 12.9678 20.7037 13.2619C20.7037 14.8273 20.7359 16.3993 20.7489 17.9647C20.7489 18.7603 20.8006 19.5495 20.7489 20.3388C20.7389 21.8121 20.3322 23.2556 19.5716 24.5175C19.0797 25.328 18.4156 26.0205 17.6264 26.5458C16.8372 27.0712 15.9422 27.4166 15.0046 27.5578C13.6211 27.8249 12.194 27.7629 10.8388 27.3766C9.84903 27.1096 8.94068 26.6019 8.19466 25.8988C7.44864 25.1956 6.88811 24.3188 6.56295 23.3467C6.22479 22.4226 6.05392 21.4456 6.05837 20.4616V8.68852C6.05837 8.3454 6.1947 8.0163 6.43732 7.77368C6.67995 7.53106 7.009 7.39478 7.35212 7.39478C7.69524 7.39478 8.02433 7.53106 8.26695 7.77368C8.50958 8.0163 8.64587 8.3454 8.64587 8.68852C8.64587 9.01196 8.64587 9.33539 8.64587 9.65884L8.67176 14.8209Z" fill="url(#paint7_linear_466_1051)"/>
<path d="M45.3675 11.3869C45.3675 12.9847 45.3675 14.5824 45.3675 16.1802C45.3675 16.8271 45.4062 17.474 45.3675 18.1208C45.3664 19.3682 45.2713 20.6138 45.0828 21.8468C45.0893 22.0318 45.0562 22.216 44.9855 22.387C44.9148 22.558 44.8083 22.712 44.673 22.8383C44.5378 22.9646 44.377 23.0605 44.2015 23.1194C44.026 23.1783 43.84 23.1988 43.6559 23.1796C43.4719 23.1605 43.294 23.1021 43.1345 23.0083C42.9749 22.9145 42.8374 22.7876 42.731 22.6361C42.6247 22.4847 42.5521 22.3122 42.5181 22.1302C42.4841 21.9483 42.4896 21.7613 42.5341 21.5816C42.7347 20.2588 42.8255 18.9217 42.8058 17.584C42.8058 13.9033 42.8058 10.216 42.7605 6.52885C42.7634 6.05662 42.6525 5.59064 42.4371 5.17043C42.329 4.95258 42.1683 4.76512 41.9695 4.62506C41.7707 4.485 41.5401 4.39676 41.2986 4.36831C41.0062 4.33599 40.7112 4.33599 40.4188 4.36831C40.1541 4.38921 39.9023 4.49105 39.6974 4.66C39.4926 4.82896 39.3447 5.05683 39.2739 5.31272C39.1002 5.86201 39.0343 6.4397 39.0798 7.014C39.0798 7.11103 39.0798 7.20807 39.0798 7.3051V12.0403C39.1007 12.3633 39.0191 12.6847 38.8469 12.9587C38.692 13.1719 38.4758 13.3326 38.227 13.4195C37.9783 13.5064 37.7089 13.5152 37.4551 13.4449C37.2012 13.3745 36.9748 13.2283 36.8062 13.0259C36.6376 12.8234 36.5349 12.5743 36.5118 12.3119C36.5118 11.1605 36.5118 10.009 36.5118 8.86405C36.5118 7.95196 36.4794 7.03988 36.5118 6.12779C36.5139 4.91651 36.9926 3.75473 37.8442 2.89342C38.4507 2.32038 39.2228 1.95362 40.0501 1.84549C40.9641 1.69053 41.9033 1.81216 42.7476 2.19478C43.3686 2.47996 43.9107 2.91246 44.3266 3.45469C44.7426 3.99692 45.02 4.6325 45.1345 5.30625C45.2488 5.90534 45.3051 6.51406 45.3027 7.12396C45.3027 8.54061 45.3027 9.96375 45.3027 11.3869H45.3675Z" fill="url(#paint8_linear_466_1051)"/>
<path d="M26.8596 14.5104C26.8596 16.4509 26.8596 18.3916 26.8596 20.2869C26.8559 20.9978 26.9987 21.702 27.2792 22.3552C27.5597 23.0086 27.9717 23.597 28.4898 24.0841C29.1173 24.6638 29.9119 25.0305 30.7603 25.132C31.7614 25.3034 32.7901 25.2074 33.7424 24.8539C34.672 24.5024 35.4313 23.8078 35.8641 22.9132C36.2617 22.1205 36.4824 21.2509 36.511 20.3646C36.566 20.0614 36.7274 19.7878 36.9661 19.593C37.2049 19.3981 37.5054 19.295 37.8134 19.3021C38.1214 19.309 38.4169 19.4258 38.6466 19.6312C38.8762 19.8368 39.0251 20.1174 39.0662 20.4227C39.0371 21.9501 38.5896 23.4403 37.7724 24.7309C37.2701 25.5145 36.6063 26.1818 35.8255 26.6882C35.0445 27.1947 34.1645 27.5287 33.2443 27.6678C31.9775 27.9057 30.6726 27.8437 29.4342 27.4866C28.5387 27.2388 27.7045 26.8071 26.985 26.219C26.2655 25.6311 25.6764 24.8995 25.2553 24.0711C24.5884 22.8381 24.2456 21.4559 24.2592 20.0541V8.682C24.242 8.35527 24.3492 8.03413 24.5593 7.78327C24.7693 7.53242 25.0665 7.37046 25.3912 7.33002C25.7114 7.29427 26.0333 7.37924 26.294 7.56826C26.5549 7.75728 26.7358 8.03676 26.8014 8.35209C26.8145 8.47032 26.8145 8.58963 26.8014 8.70787L26.8596 14.5104Z" fill="url(#paint9_linear_466_1051)"/>
<path d="M32.053 34.0397C30.4059 34.0281 28.7811 33.6573 27.292 32.953C25.741 32.2474 24.2688 31.38 22.8997 30.3655C22.8779 30.3396 22.8506 30.3187 22.82 30.3045C22.7893 30.2902 22.7558 30.2829 22.7218 30.2829C22.688 30.2829 22.6545 30.2902 22.6239 30.3045C22.5931 30.3187 22.5659 30.3396 22.544 30.3655C21.565 31.2591 20.4573 32.0006 19.2579 32.5648C17.7522 33.2627 16.1452 33.7169 14.4969 33.9103C14.3169 33.9657 14.127 33.9811 13.9404 33.9555C13.7539 33.9299 13.5752 33.8639 13.4169 33.7621C13.2584 33.6603 13.1241 33.5251 13.0234 33.3661C12.9226 33.207 12.8578 33.0278 12.8335 32.8411C12.8091 32.6544 12.8259 32.4646 12.8824 32.285C12.939 32.1054 13.0341 31.9404 13.1611 31.8013C13.2881 31.6623 13.4438 31.5526 13.6176 31.4801C13.7913 31.4075 13.9789 31.3736 14.167 31.381C15.747 31.1943 17.2807 30.7254 18.6951 29.9968C19.5702 29.5104 20.3845 28.922 21.1209 28.2437L21.8647 27.5968C22.0977 27.4015 22.392 27.2944 22.696 27.2944C23 27.2944 23.2943 27.4015 23.5273 27.5968C24.8941 28.7199 26.3904 29.6755 27.9843 30.4431C28.8908 30.9077 29.8641 31.2284 30.8693 31.394C32.475 31.5991 34.1064 31.4053 35.6193 30.8299C37.1324 30.2545 38.4802 29.3151 39.5439 28.0949C39.764 27.85 40.0693 27.6983 40.3974 27.6707C40.7255 27.643 41.0518 27.7416 41.3098 27.9461C41.4422 28.0553 41.5516 28.1899 41.6315 28.3417C41.7115 28.4936 41.7604 28.6598 41.7755 28.8309C41.7905 29.0018 41.7714 29.1741 41.7192 29.3376C41.667 29.5011 41.5829 29.6526 41.4715 29.7833C40.1719 31.3151 38.5017 32.4888 36.6199 33.1924C35.1603 33.7444 33.6136 34.0313 32.053 34.0397Z" fill="url(#paint10_linear_466_1051)"/>
<path d="M33.0124 14.3037C33.0124 16.1451 33.0124 17.9888 33.0124 19.8345C32.9912 20.1152 32.879 20.3813 32.6929 20.5926C32.5069 20.8037 32.257 20.9485 31.9813 21.0048C31.7054 21.0612 31.4187 21.0259 31.1647 20.9046C30.9108 20.7833 30.7032 20.5824 30.5737 20.3325C30.5107 20.1562 30.48 19.97 30.4832 19.7827C30.4832 16.4384 30.4832 13.1005 30.4832 9.75616C30.5126 9.01245 30.4408 8.26821 30.2696 7.54386C30.0094 6.36683 29.3168 5.33035 28.329 4.6394C27.4899 4.12931 26.5238 3.86654 25.5418 3.88142C24.56 3.8963 23.6022 4.18821 22.7789 4.7235C22.2143 5.12996 21.7678 5.67911 21.4851 6.31478C21.3477 6.61256 21.0993 6.84474 20.7929 6.96166C20.5628 7.0668 20.3052 7.09591 20.0574 7.04473C19.8097 6.99355 19.5847 6.86475 19.4151 6.67703C19.2262 6.51388 19.0965 6.29287 19.0461 6.04836C18.9958 5.80384 19.0277 5.54957 19.1369 5.32508C19.3792 4.80409 19.6786 4.31159 20.0297 3.85667C20.5988 3.1358 21.3109 2.54061 22.1215 2.10864C22.9319 1.67667 23.8231 1.41727 24.7389 1.3468C26.404 1.15035 28.0876 1.5048 29.5322 2.35592C30.9399 3.20486 32.0045 4.52136 32.5401 6.07544C32.9202 7.12404 33.1044 8.23349 33.0836 9.34863C33.0059 11.0111 33.0124 12.6542 33.0124 14.3037Z" fill="url(#paint11_linear_466_1051)"/>
<path d="M56.0685 4.70356C55.9262 5.15637 55.7904 5.57037 55.6609 5.99731C55.4086 6.79296 55.1629 7.58862 54.9042 8.38427C54.8452 8.60252 54.716 8.79529 54.5365 8.93272C54.357 9.07016 54.1373 9.14462 53.9112 9.14462C53.6851 9.14462 53.4654 9.07016 53.2859 8.93272C53.1063 8.79529 52.9772 8.60252 52.9182 8.38427C52.6854 7.73741 52.4655 7.01291 52.2714 6.32722C51.8638 5.0917 51.4627 3.8497 51.0552 2.61418C51.0552 2.52361 51.0035 2.4395 50.9841 2.34893C50.935 2.16081 50.9542 1.96138 51.0383 1.78608C51.1223 1.61078 51.2659 1.471 51.4434 1.39157C51.6298 1.30423 51.841 1.28552 52.0399 1.33879C52.2387 1.39205 52.4123 1.51385 52.5301 1.68268C52.6028 1.79265 52.6594 1.91245 52.6983 2.03844L53.8821 5.91969C53.8955 5.96011 53.9128 5.9991 53.9338 6.03612C54.018 5.7515 54.102 5.50571 54.1797 5.25343C54.5031 4.18609 54.8265 3.12521 55.1629 2.05787C55.2083 1.8429 55.3277 1.65067 55.5002 1.51472C55.6728 1.37877 55.8877 1.3077 56.1073 1.31395C56.3266 1.31292 56.5397 1.3867 56.7114 1.52313C56.8831 1.65955 57.0032 1.85048 57.0518 2.06435C57.414 3.22873 57.7633 4.39307 58.1256 5.55744C58.1601 5.69937 58.2216 5.83334 58.3067 5.95203L58.4426 5.54449L59.5099 2.0255C59.5481 1.84435 59.6413 1.67945 59.7767 1.55325C59.9123 1.42706 60.0833 1.34574 60.2667 1.32043C60.4131 1.2956 60.5635 1.30999 60.7026 1.36216C60.8416 1.41433 60.9645 1.5024 61.0584 1.61741C61.1525 1.73243 61.2143 1.87029 61.2377 2.01697C61.2611 2.16364 61.2453 2.31389 61.1918 2.45245C61.0689 2.86645 60.933 3.27397 60.7971 3.68797C60.3055 5.19733 59.8161 6.70671 59.3288 8.21608C59.259 8.52684 59.077 8.80093 58.8177 8.98587C58.6872 9.06968 58.5394 9.12251 58.3854 9.14032C58.2313 9.15813 58.0753 9.14046 57.9293 9.08864C57.7831 9.03681 57.6508 8.9522 57.5425 8.84133C57.434 8.73044 57.3525 8.59625 57.3041 8.44899C57.1746 8.11261 57.0777 7.8021 56.9742 7.42692C56.7024 6.57304 56.4372 5.71917 56.1655 4.83942C56.1362 4.7921 56.1037 4.74671 56.0685 4.70356Z" fill="url(#paint12_linear_466_1051)"/>
<path d="M68.0507 17.6864V14.769C68.0397 14.6441 68.0563 14.5185 68.0993 14.4008C68.1423 14.2832 68.2107 14.1764 68.2996 14.0881C68.3885 13.9999 68.4957 13.9322 68.6137 13.89C68.7317 13.8478 68.8575 13.8321 68.9822 13.8439H70.9229C71.8636 13.8042 72.7841 14.1248 73.4968 14.7401C74.2096 15.3555 74.6609 16.2194 74.7588 17.1559C74.9115 18.0677 74.7246 19.0039 74.2335 19.7871C73.7423 20.5704 72.981 21.1463 72.0936 21.4059C71.6696 21.508 71.236 21.5645 70.7999 21.5741C70.2113 21.5741 69.6227 21.5741 69.0339 21.5741C68.8475 21.5956 68.6588 21.5585 68.4943 21.4682C68.3298 21.3778 68.1973 21.2385 68.1153 21.0695C68.0584 20.9345 68.0297 20.7892 68.0313 20.6426C68.0442 19.6658 68.0507 18.702 68.0507 17.6864ZM69.8166 17.6864C69.8166 18.3333 69.8166 18.9801 69.8166 19.627C69.8166 19.7952 69.8748 19.8663 70.0495 19.8599C70.3536 19.8599 70.6511 19.8599 70.9551 19.8599C71.4699 19.8803 71.9728 19.7025 72.3604 19.3631C72.7479 19.0237 72.9905 18.5486 73.0382 18.0357C73.0987 17.7578 73.1005 17.4704 73.0433 17.1918C72.9862 16.9133 72.8714 16.6497 72.7063 16.4181C72.5411 16.1866 72.3294 15.9922 72.0846 15.8475C71.8399 15.7027 71.5675 15.6107 71.2851 15.5775C70.884 15.5193 70.4765 15.5775 70.0689 15.5323C69.8748 15.5323 69.8102 15.597 69.8166 15.7845C69.8231 16.425 69.8166 17.0589 69.8166 17.6993V17.6864Z" fill="url(#paint13_linear_466_1051)"/>
<path d="M66.5201 17.6349C66.5363 18.1984 66.436 18.7594 66.2257 19.2824C66.0153 19.8055 65.6993 20.2797 65.2975 20.6752C64.8584 21.0953 64.3161 21.3921 63.7256 21.5356C62.8384 21.772 61.8982 21.713 61.0475 21.3674C60.5809 21.1872 60.1593 20.9075 59.8119 20.5478C59.4645 20.1881 59.1996 19.757 59.0357 19.2845C58.7899 18.6693 58.6905 18.0054 58.7456 17.3453C58.8005 16.685 59.0084 16.0467 59.3528 15.4808C59.6393 14.995 60.0388 14.5855 60.5174 14.2871C60.9961 13.9887 61.5396 13.8101 62.102 13.7666C62.934 13.6452 63.783 13.7901 64.5277 14.1806C65.0545 14.4596 65.506 14.8618 65.8438 15.3528C66.1817 15.8439 66.3959 16.4093 66.4683 17.0009C66.5006 17.2339 66.5072 17.4731 66.5201 17.6349ZM62.6389 15.442C62.1761 15.4108 61.7176 15.5463 61.3462 15.8239C60.9748 16.1016 60.7151 16.5031 60.6141 16.9557C60.5343 17.323 60.5125 17.7007 60.5495 18.0748C60.5559 18.4436 60.6702 18.8025 60.8783 19.1071C61.0863 19.4118 61.379 19.6488 61.7203 19.789C62.0858 19.9582 62.4905 20.0241 62.8907 19.9797C63.291 19.9352 63.6714 19.7821 63.9908 19.5367C64.2267 19.3468 64.4183 19.1079 64.5524 18.8364C64.6864 18.5649 64.7597 18.2674 64.767 17.9648C64.8835 16.5029 64.0167 15.3902 62.6259 15.4679L62.6389 15.442Z" fill="url(#paint14_linear_466_1051)"/>
<path d="M66.3239 30.1708C66.3239 29.1811 66.3239 28.1849 66.3239 27.1887C66.3239 26.9571 66.4159 26.735 66.5797 26.5712C66.7435 26.4075 66.9656 26.3154 67.1972 26.3154C67.4288 26.3154 67.651 26.4075 67.8147 26.5712C67.9784 26.735 68.0705 26.9571 68.0705 27.1887C68.0705 27.8356 68.0705 28.4502 68.0705 29.0841C68.0705 29.2716 68.1287 29.3429 68.3227 29.3364H70.7227C70.9232 29.3364 70.9685 29.2652 70.9685 29.0776C70.9685 28.4307 70.9685 27.8162 70.9685 27.1887C70.9685 26.9589 71.0598 26.7384 71.2223 26.5758C71.3849 26.4133 71.6054 26.3219 71.8352 26.3219C72.0651 26.3219 72.2856 26.4133 72.4481 26.5758C72.6107 26.7384 72.7021 26.9589 72.7021 27.1887C72.7021 29.2026 72.7021 31.2144 72.7021 33.2241C72.7021 33.454 72.6107 33.6745 72.4481 33.837C72.2856 33.9996 72.0651 34.0908 71.8352 34.0908C71.6054 34.0908 71.3849 33.9996 71.2223 33.837C71.0598 33.6745 70.9685 33.454 70.9685 33.2241C70.9685 32.5772 70.9685 31.9304 70.9685 31.2834C70.9685 31.0959 70.9168 31.0247 70.7162 31.0247C69.9205 31.0247 69.1184 31.0247 68.3227 31.0247C68.1222 31.0247 68.0705 31.1024 68.0705 31.2899C68.0705 31.9368 68.0705 32.5837 68.0705 33.2306C68.0738 33.4219 68.0115 33.6084 67.8937 33.7591C67.7759 33.9099 67.6099 34.0155 67.4236 34.0586C67.2393 34.1097 67.0433 34.0981 66.8664 34.0256C66.6896 33.9528 66.5419 33.8234 66.4468 33.6575C66.3768 33.5146 66.3413 33.3572 66.3433 33.1982C66.3175 32.1891 66.3239 31.1799 66.3239 30.1708Z" fill="url(#paint15_linear_466_1051)"/>
<path d="M54.1578 26.2062C54.8681 26.2017 55.5742 26.3154 56.2472 26.5426C56.362 26.5706 56.4695 26.6228 56.5627 26.6956C56.6558 26.7683 56.7324 26.86 56.7875 26.9645C56.8424 27.0691 56.8747 27.1842 56.8819 27.3022C56.8892 27.4201 56.8712 27.5383 56.8294 27.6488C56.7931 27.7559 56.7351 27.8542 56.6588 27.9376C56.5825 28.0211 56.4897 28.0876 56.3863 28.1332C56.2829 28.179 56.1711 28.2026 56.058 28.2027C55.945 28.2028 55.8332 28.1793 55.7297 28.1339C55.1093 27.9072 54.4414 27.8427 53.7891 27.9463C53.5978 27.9851 53.4143 28.0551 53.2457 28.1533C53.1632 28.1866 53.0924 28.2438 53.0426 28.3175C52.9928 28.3914 52.9662 28.4783 52.9662 28.5673C52.9662 28.6564 52.9928 28.7433 53.0426 28.8171C53.0924 28.8909 53.1632 28.9481 53.2457 28.9813C53.6237 29.1296 54.0104 29.2549 54.4036 29.3565C54.9232 29.4974 55.435 29.6658 55.9367 29.861C56.2913 30.0052 56.5953 30.251 56.8106 30.5676C57.0258 30.8841 57.1427 31.2572 57.1464 31.64C57.1785 32.0559 57.0885 32.472 56.8875 32.8375C56.6863 33.2029 56.3829 33.5016 56.0143 33.6971C55.3585 34.055 54.6105 34.2081 53.8667 34.1369C53.1211 34.1012 52.3877 33.9348 51.6997 33.6452C51.5577 33.5845 51.4351 33.4861 51.345 33.3607C51.255 33.2353 51.2009 33.0876 51.1886 32.9337C51.1697 32.7788 51.197 32.6218 51.2672 32.4826C51.3375 32.3432 51.4474 32.2278 51.5833 32.151C51.7032 32.0787 51.8389 32.0369 51.9787 32.029C52.1184 32.0211 52.2581 32.0475 52.3853 32.1057C53.026 32.3862 53.726 32.5039 54.423 32.4485C54.6651 32.428 54.9028 32.3712 55.1281 32.2804C55.225 32.2454 55.3078 32.1796 55.3639 32.0932C55.4198 32.0068 55.4461 31.9044 55.4386 31.8017C55.4386 31.5882 55.2834 31.5041 55.1281 31.4459C54.7465 31.31 54.3583 31.2001 53.9702 31.0772C53.5821 30.9543 53.0775 30.8184 52.6765 30.6503C52.2423 30.5072 51.8686 30.2235 51.6142 29.8437C51.3598 29.464 51.2397 29.0102 51.2728 28.5543C51.308 28.0563 51.4986 27.5818 51.8178 27.1977C52.1368 26.8136 52.5684 26.5392 53.0516 26.4132C53.2324 26.3603 53.416 26.317 53.6014 26.2838C53.7761 26.2256 54.0285 26.2191 54.1578 26.2062Z" fill="url(#paint16_linear_466_1051)"/>
<path d="M58.1495 30.1714C58.1244 29.15 58.4899 28.1575 59.1716 27.3963C59.7433 26.7788 60.5115 26.3788 61.3451 26.2644C62.4299 26.0912 63.5409 26.3066 64.4825 26.8724C64.5964 26.9294 64.6958 27.0119 64.7726 27.1136C64.8495 27.2152 64.9019 27.3332 64.9256 27.4584C64.9494 27.5837 64.944 27.7126 64.9097 27.8354C64.8755 27.9581 64.8134 28.0713 64.7282 28.1661C64.6018 28.3053 64.432 28.3974 64.2465 28.428C64.061 28.4585 63.8706 28.4255 63.7062 28.3344C63.1641 28.052 62.5576 27.916 61.9467 27.9398C61.6843 27.938 61.424 27.988 61.1808 28.0869C60.9376 28.1858 60.7164 28.3317 60.5295 28.5161C60.3427 28.7005 60.194 28.9198 60.0921 29.1617C59.9901 29.4035 59.9367 29.6631 59.935 29.9256C59.8968 30.3455 59.9475 30.7687 60.0837 31.1676C60.2285 31.5609 60.4945 31.8982 60.8432 32.1307C61.1919 32.3632 61.6056 32.479 62.0243 32.4614C62.5864 32.4765 63.1437 32.3543 63.648 32.1055C63.8482 32.006 64.0721 31.9634 64.2949 31.9827C64.459 32.0042 64.6113 32.0791 64.7282 32.1961C64.8452 32.3131 64.9203 32.4656 64.9418 32.6295C64.973 32.7929 64.9531 32.962 64.8848 33.1136C64.8166 33.2653 64.7031 33.3921 64.5601 33.477C64.0009 33.8164 63.3777 34.0366 62.7295 34.1238C61.9006 34.2548 61.0515 34.1354 60.2907 33.781C59.7256 33.5158 59.2387 33.109 58.8772 32.6C58.5157 32.0911 58.2917 31.4975 58.2272 30.8766C58.1755 30.6307 58.169 30.3978 58.1495 30.1714Z" fill="url(#paint17_linear_466_1051)"/>
<path d="M55.2863 19.9507C55.7761 19.9452 56.2568 19.8161 56.6834 19.5755C56.8337 19.4801 57.0101 19.4343 57.1877 19.4448C57.3654 19.4552 57.5353 19.5213 57.6732 19.6337C57.7776 19.7198 57.8591 19.8301 57.9109 19.9551C57.9629 20.08 57.9832 20.2158 57.9705 20.3504C57.9577 20.4852 57.9122 20.6146 57.8378 20.7277C57.7634 20.8406 57.6625 20.9337 57.5438 20.9986C57.0204 21.3198 56.4409 21.5393 55.836 21.6455C54.8455 21.829 53.8221 21.645 52.9575 21.128C52.4593 20.8208 52.0422 20.3984 51.7416 19.8963C51.441 19.3942 51.2657 18.827 51.2303 18.2429C51.1173 17.3964 51.2616 16.5353 51.6443 15.7718C51.9208 15.2326 52.329 14.772 52.8311 14.4327C53.3332 14.0935 53.913 13.8866 54.5165 13.8312C55.5483 13.6982 56.5951 13.9122 57.492 14.4393C57.6202 14.498 57.7314 14.5886 57.8148 14.7024C57.8981 14.8162 57.9511 14.9493 57.9686 15.0892C57.9861 15.2293 57.9676 15.3713 57.9147 15.5021C57.8618 15.6329 57.7765 15.748 57.6668 15.8366C57.535 15.9458 57.3723 16.0107 57.2017 16.0223C57.031 16.034 56.861 15.9916 56.7158 15.9013C56.2318 15.6443 55.6918 15.511 55.1439 15.5131C54.8618 15.4934 54.5787 15.5325 54.3126 15.628C54.0465 15.7236 53.8032 15.8734 53.5981 16.0682C53.3931 16.2629 53.2309 16.4981 53.1216 16.759C53.0125 17.0197 52.9588 17.3004 52.964 17.5831C52.9252 17.9181 52.9595 18.2575 53.0644 18.578C53.1695 18.8985 53.3426 19.1925 53.572 19.4396C53.8078 19.6372 54.0816 19.7843 54.3763 19.8721C54.6711 19.96 54.9807 19.9868 55.2863 19.9507Z" fill="url(#paint18_linear_466_1051)"/>
<path d="M66.1638 5.11795C66.1638 4.14116 66.1638 3.17731 66.1638 2.19406C66.1622 2.00982 66.2197 1.82992 66.3281 1.68088C66.4364 1.53182 66.5897 1.42149 66.7654 1.36608C66.9379 1.30164 67.127 1.29653 67.3027 1.35159C67.4785 1.40666 67.6309 1.51873 67.7357 1.67009C67.8543 1.86538 67.919 2.08856 67.9233 2.31697C67.9233 3.8824 67.9233 5.44137 67.9233 7.0068C67.9233 7.33671 67.9233 7.33671 68.2596 7.33671C69.0683 7.33671 69.8768 7.33671 70.679 7.33671C70.8354 7.32645 70.9916 7.3585 71.1314 7.42946C71.2712 7.50042 71.3893 7.60765 71.4734 7.73999C71.5573 7.87231 71.6042 8.02483 71.609 8.18151C71.6138 8.3382 71.5763 8.49327 71.5005 8.63047C71.4317 8.78265 71.3195 8.91112 71.178 8.99974C71.0364 9.08836 70.8718 9.13319 70.7048 9.12857C69.5405 9.12857 68.3762 9.12857 67.2117 9.12857C67.0708 9.12775 66.9313 9.09884 66.8016 9.04353C66.6721 8.98821 66.5546 8.90762 66.4565 8.80643C66.3583 8.70526 66.2813 8.58554 66.23 8.45426C66.1786 8.32297 66.1539 8.18276 66.1574 8.04182C66.1574 7.05858 66.1638 6.07532 66.1638 5.11795Z" fill="url(#paint19_linear_466_1051)"/>
<path d="M64.2277 5.23401V8.21609C64.2346 8.3585 64.207 8.5005 64.147 8.62982C64.087 8.75916 63.9964 8.87195 63.8831 8.95851C63.7699 9.04508 63.6371 9.10282 63.4967 9.12674C63.3561 9.15067 63.2118 9.14007 63.0763 9.09587C62.879 9.03873 62.7072 8.91577 62.5896 8.74748C62.4719 8.5792 62.4154 8.37568 62.4294 8.1708V3.53273C62.4294 3.09285 62.4294 2.64651 62.4294 2.23898C62.4256 2.05192 62.4821 1.8686 62.5903 1.71604C62.6987 1.56348 62.8532 1.44975 63.031 1.39158C63.2004 1.32901 63.3858 1.32358 63.5586 1.37614C63.7314 1.4287 63.8823 1.53636 63.9883 1.68268C64.1141 1.87505 64.1815 2.09971 64.1824 2.32956C64.2342 3.26106 64.2277 4.24429 64.2277 5.23401Z" fill="url(#paint20_linear_466_1051)"/>
</g>
<defs>
<linearGradient id="paint0_linear_466_1051" x1="92.4241" y1="30.1695" x2="97.8536" y2="30.1695" gradientUnits="userSpaceOnUse">
<stop stop-color="#83E617"/>
<stop offset="1" stop-color="#83E617" stop-opacity="0.4"/>
</linearGradient>
<linearGradient id="paint1_linear_466_1051" x1="0.260651" y1="24.3438" x2="7.10285" y2="24.3438" gradientUnits="userSpaceOnUse">
<stop stop-color="#83E617"/>
<stop offset="1" stop-color="#83E617" stop-opacity="0.4"/>
</linearGradient>
<linearGradient id="paint2_linear_466_1051" x1="72.7192" y1="5.225" x2="79.4731" y2="5.225" gradientUnits="userSpaceOnUse">
<stop stop-color="#83E617"/>
<stop offset="1" stop-color="#83E617" stop-opacity="0.4"/>
</linearGradient>
<linearGradient id="paint3_linear_466_1051" x1="83.1431" y1="30.1839" x2="90.933" y2="30.1839" gradientUnits="userSpaceOnUse">
<stop stop-color="#83E617"/>
<stop offset="1" stop-color="#83E617" stop-opacity="0.4"/>
</linearGradient>
<linearGradient id="paint4_linear_466_1051" x1="74.2406" y1="30.1783" x2="82.0259" y2="30.1783" gradientUnits="userSpaceOnUse">
<stop stop-color="#83E617"/>
<stop offset="1" stop-color="#83E617" stop-opacity="0.4"/>
</linearGradient>
<linearGradient id="paint5_linear_466_1051" x1="76.3409" y1="17.6914" x2="82.0278" y2="17.6914" gradientUnits="userSpaceOnUse">
<stop stop-color="#83E617"/>
<stop offset="1" stop-color="#83E617" stop-opacity="0.4"/>
</linearGradient>
<linearGradient id="paint6_linear_466_1051" x1="0.257904" y1="11.1491" x2="14.937" y2="11.1491" gradientUnits="userSpaceOnUse">
<stop stop-color="#83E617"/>
<stop offset="1" stop-color="#83E617" stop-opacity="0.4"/>
</linearGradient>
<linearGradient id="paint7_linear_466_1051" x1="6.05829" y1="17.5577" x2="20.7719" y2="17.5577" gradientUnits="userSpaceOnUse">
<stop stop-color="#83E617"/>
<stop offset="1" stop-color="#83E617" stop-opacity="0.4"/>
</linearGradient>
<linearGradient id="paint8_linear_466_1051" x1="36.4974" y1="12.4833" x2="45.3847" y2="12.4833" gradientUnits="userSpaceOnUse">
<stop stop-color="#83E617"/>
<stop offset="1" stop-color="#83E617" stop-opacity="0.4"/>
</linearGradient>
<linearGradient id="paint9_linear_466_1051" x1="24.2574" y1="17.5658" x2="39.0662" y2="17.5658" gradientUnits="userSpaceOnUse">
<stop stop-color="#83E617"/>
<stop offset="1" stop-color="#83E617" stop-opacity="0.4"/>
</linearGradient>
<linearGradient id="paint10_linear_466_1051" x1="12.8226" y1="30.6671" x2="41.7805" y2="30.6671" gradientUnits="userSpaceOnUse">
<stop stop-color="#83E617"/>
<stop offset="1" stop-color="#83E617" stop-opacity="0.4"/>
</linearGradient>
<linearGradient id="paint11_linear_466_1051" x1="19.0229" y1="11.1625" x2="33.0852" y2="11.1625" gradientUnits="userSpaceOnUse">
<stop stop-color="#83E617"/>
<stop offset="1" stop-color="#83E617" stop-opacity="0.4"/>
</linearGradient>
<linearGradient id="paint12_linear_466_1051" x1="50.9575" y1="5.22782" x2="61.2482" y2="5.22782" gradientUnits="userSpaceOnUse">
<stop stop-color="#83E617"/>
<stop offset="1" stop-color="#83E617" stop-opacity="0.4"/>
</linearGradient>
<linearGradient id="paint13_linear_466_1051" x1="68.0312" y1="17.7101" x2="74.8107" y2="17.7101" gradientUnits="userSpaceOnUse">
<stop stop-color="#83E617"/>
<stop offset="1" stop-color="#83E617" stop-opacity="0.4"/>
</linearGradient>
<linearGradient id="paint14_linear_466_1051" x1="58.7308" y1="17.7015" x2="66.5218" y2="17.7015" gradientUnits="userSpaceOnUse">
<stop stop-color="#83E617"/>
<stop offset="1" stop-color="#83E617" stop-opacity="0.4"/>
</linearGradient>
<linearGradient id="paint15_linear_466_1051" x1="66.3232" y1="30.2031" x2="72.7021" y2="30.2031" gradientUnits="userSpaceOnUse">
<stop stop-color="#83E617"/>
<stop offset="1" stop-color="#83E617" stop-opacity="0.4"/>
</linearGradient>
<linearGradient id="paint16_linear_466_1051" x1="51.1828" y1="30.18" x2="57.1528" y2="30.18" gradientUnits="userSpaceOnUse">
<stop stop-color="#83E617"/>
<stop offset="1" stop-color="#83E617" stop-opacity="0.4"/>
</linearGradient>
<linearGradient id="paint17_linear_466_1051" x1="58.1483" y1="30.1908" x2="64.9561" y2="30.1908" gradientUnits="userSpaceOnUse">
<stop stop-color="#83E617"/>
<stop offset="1" stop-color="#83E617" stop-opacity="0.4"/>
</linearGradient>
<linearGradient id="paint18_linear_466_1051" x1="51.1929" y1="17.7537" x2="57.975" y2="17.7537" gradientUnits="userSpaceOnUse">
<stop stop-color="#83E617"/>
<stop offset="1" stop-color="#83E617" stop-opacity="0.4"/>
</linearGradient>
<linearGradient id="paint19_linear_466_1051" x1="66.157" y1="5.22131" x2="71.6094" y2="5.22131" gradientUnits="userSpaceOnUse">
<stop stop-color="#83E617"/>
<stop offset="1" stop-color="#83E617" stop-opacity="0.4"/>
</linearGradient>
<linearGradient id="paint20_linear_466_1051" x1="62.4273" y1="5.23978" x2="64.2287" y2="5.23978" gradientUnits="userSpaceOnUse">
<stop stop-color="#83E617"/>
<stop offset="1" stop-color="#83E617" stop-opacity="0.4"/>
</linearGradient>
<clipPath id="clip0_466_1051">
<rect width="97.7686" height="33.7133" fill="white" transform="translate(0.257416 0.458252)"/>
</clipPath>
</defs>
</svg>
