<svg width="69" height="56" viewBox="0 0 69 56" fill="none" xmlns="http://www.w3.org/2000/svg">
<g clip-path="url(#clip0_466_849)">
<path d="M55.8918 14.4939C53.7664 14.4939 52.494 15.7942 52.1129 18.2447H59.4958C59.3491 16.2662 58.2269 14.4939 55.8918 14.4939ZM53.6895 15.8328C54.2314 15.2909 54.9444 15.0287 55.8674 15.0287C56.4931 15.0287 58.4506 15.2349 58.8876 17.7484H52.7142C52.9134 16.9234 53.242 16.2836 53.6895 15.8362V15.8328Z" fill="url(#paint0_linear_466_849)"/>
<path d="M18.5747 37.653L10.5381 32.7766L10.4682 37.653H18.5747Z" fill="url(#paint1_linear_466_849)"/>
<path d="M24.7764 41.4146C24.7345 41.6803 24.7065 41.96 24.6959 42.2502L24.7239 49.3883C24.7239 49.7904 24.3708 50.1434 23.9723 50.1434H20.8717C20.4696 50.1434 20.1201 49.7904 20.1201 49.3918V49.3848L20.2075 41.9496L20.1655 38.6216L19.7601 38.377C19.7601 38.377 19.7601 38.3979 19.7601 38.4084V40.7715C19.7601 41.1735 19.407 41.5231 19.0085 41.5231H10.465L10.5489 49.3954C10.5489 49.7973 10.1959 50.147 9.79736 50.147H6.6093C6.20729 50.147 5.85773 49.7939 5.85773 49.3954V49.3883L5.97658 39.2928L5.86821 29.9454L0.379987 26.6174C-2.17186 57.1453 10.9474 60.5536 32.9039 48.6718C32.1103 47.9027 31.5755 46.812 31.3693 45.4137L24.7764 41.4146Z" fill="url(#paint2_linear_466_849)"/>
<path d="M33.2427 9.70852L38.6051 12.7009V12.6239C38.6051 12.2219 38.9581 11.8724 39.3567 11.8724H40.5802L40.5557 8.81364C40.5557 8.41163 40.9088 8.06206 41.3073 8.06206H44.408C44.8099 8.06206 45.1596 8.41512 45.1596 8.81364L45.1351 11.8724H48.0714C48.4735 11.8724 48.823 12.2254 48.823 12.6239V14.8087C48.823 15.2107 48.4699 15.5603 48.0714 15.5603H45.1316V16.3399L48.0854 17.9898C48.8055 13.9977 51.6895 11.5158 55.8388 11.5158C57.0693 11.5158 58.1949 11.7255 59.1842 12.1345C60.163 12.5435 61.0125 13.1482 61.7011 13.9348C62.3793 14.7074 62.9037 15.6582 63.2601 16.7558C63.6132 17.8394 63.802 19.0665 63.8265 20.4088V20.4193C63.8265 20.8213 63.4734 21.1709 63.0749 21.1709H53.7869L58.4851 23.7926C58.7158 23.45 58.8871 23.0271 58.9989 22.5272C59.0758 22.1601 59.4184 21.8805 59.7994 21.8805H62.7533C62.9736 21.8805 63.1902 21.9889 63.3301 22.1671C63.4559 22.3279 63.5049 22.5306 63.4664 22.7229C63.3021 23.8695 62.8336 24.9323 62.1206 25.8202L68.5071 29.3857C69.9964 -2.13485 55.9087 -4.29868 33.2462 9.70503L33.2427 9.70852Z" fill="url(#paint3_linear_466_849)"/>
<path d="M44.6171 34.4194H41.4571C41.3382 34.4194 41.2194 34.5382 41.2194 34.6571L41.2474 40.8899V42.5433C40.9537 45.7035 39.2967 47.2101 37.4964 47.2101C35.9025 47.2101 34.7489 46.0879 34.7489 43.9312V40.8899L34.8083 34.6571C34.8083 34.5382 34.6895 34.4194 34.5706 34.4194H31.442C31.3231 34.4194 31.2042 34.5382 31.2042 34.6571L31.2636 40.8899V44.022C31.2636 44.5185 31.2986 44.9834 31.365 45.4203L34.9027 47.5666C34.2281 47.9512 33.5603 48.3218 32.8996 48.6782C33.7875 49.5348 34.9971 49.9891 36.4618 49.9891C38.7339 49.9891 40.4468 48.8391 41.4536 47.4198L41.3662 49.3984C41.3662 49.5173 41.4851 49.6362 41.604 49.6362H44.5857C44.7046 49.6362 44.8235 49.5173 44.8235 49.3984L44.7955 41.5716L44.8549 34.6606C44.8549 34.5417 44.736 34.4229 44.6171 34.4229V34.4194Z" fill="url(#paint4_linear_466_849)"/>
<path d="M31.3695 45.4136C31.5757 46.8083 32.1105 47.9024 32.9041 48.6715C33.5648 48.3149 34.2324 47.9444 34.9072 47.5599L31.3695 45.4136Z" fill="url(#paint5_linear_466_849)"/>
<path d="M54.8633 34.4193H51.4096L51.4376 30.8467C51.4376 30.7278 51.3187 30.6089 51.1998 30.6089H48.0992C47.9803 30.6089 47.8614 30.7278 47.8614 30.8467L47.8894 34.4193H46.1485C46.0298 34.4193 45.9109 34.5381 45.9109 34.657V36.8417C45.9109 36.9606 46.0298 37.0795 46.1485 37.0795H47.8894L47.8614 45.2908C47.8614 48.6887 50.0183 49.8981 52.4093 49.8981C53.2378 49.8981 54.1222 49.6919 54.8598 49.4542C55.0066 49.4262 55.0975 49.3073 55.0975 49.1605V47.154C55.0975 47.0351 54.9786 46.9478 54.8598 46.9757C54.4158 47.0946 53.8565 47.2135 53.1748 47.2135C52.0527 47.2135 51.4025 46.7415 51.4025 45.207V37.0864H54.8563C54.9751 37.0864 55.094 36.9676 55.094 36.8488V34.6639C55.094 34.545 54.9751 34.4262 54.8563 34.4262L54.8633 34.4193Z" fill="url(#paint6_linear_466_849)"/>
<path d="M59.6772 34.4194H56.517C56.3983 34.4194 56.2794 34.5382 56.2794 34.6571L56.3388 41.9211L56.2794 49.3914C56.2794 49.5103 56.3983 49.6291 56.517 49.6291H59.6772C59.796 49.6291 59.9149 49.5103 59.9149 49.3914L59.8275 41.9211L59.9149 34.6571C59.9149 34.5382 59.796 34.4194 59.6772 34.4194Z" fill="url(#paint7_linear_466_849)"/>
<path d="M59.6457 29.3401H56.517C56.3858 29.3401 56.2794 29.4465 56.2794 29.5779V32.6156C56.2794 32.7468 56.3858 32.8532 56.517 32.8532H59.6457C59.777 32.8532 59.8834 32.7468 59.8834 32.6156V29.5779C59.8834 29.4465 59.777 29.3401 59.6457 29.3401Z" fill="url(#paint8_linear_466_849)"/>
<path d="M31.5338 27.949C36.3194 27.949 39.0041 24.7889 39.0041 19.9474C39.0041 15.1058 36.3159 12.0332 31.5338 12.0332C26.7518 12.0332 24.0042 15.2212 24.0042 20.0348C24.0042 24.8483 26.7203 27.949 31.5338 27.949ZM31.5023 14.543C34.0717 14.543 35.3407 16.4342 35.3407 20.0348C35.3407 23.6353 34.0997 25.4391 31.5303 25.4391C28.961 25.4391 27.6327 23.6388 27.6327 20.0627C27.6327 16.4866 28.8736 14.571 31.5023 14.5396V14.543Z" fill="url(#paint9_linear_466_849)"/>
<path d="M6.60867 27.949H15.0857C19.1302 27.949 22.7937 26.1767 22.7937 21.7477C22.7657 19.3846 21.4059 17.5529 18.4241 16.9341C21.4059 16.3153 22.7657 14.4836 22.7937 12.1205C22.7937 7.6915 19.1302 5.91919 15.0857 5.91919H6.60867C6.48982 5.91919 6.37097 6.03804 6.37097 6.15689L6.48982 16.4028L6.48283 16.9341L6.48982 17.4654L6.37097 27.7112C6.37097 27.8301 6.48982 27.949 6.60867 27.949ZM10.0344 8.60736H14.9948C17.3859 8.60736 19.1302 9.46381 19.1302 12.1205C19.1302 14.543 17.2111 15.4275 14.9948 15.4275H9.94356L10.0309 8.60736H10.0344ZM14.9948 18.4407C17.2111 18.4407 19.1302 19.3252 19.1302 21.7477C19.1302 24.4044 17.3893 25.2608 14.9948 25.2608H10.0344L9.94705 18.4407H14.9983H14.9948Z" fill="url(#paint10_linear_466_849)"/>
<path d="M19.7145 31.5359V29.1727C19.7145 29.054 19.5956 28.9351 19.4767 28.9351H6.63361C6.51476 28.9351 6.3959 29.054 6.3959 29.1727L6.51476 39.2718L6.3959 49.3708C6.3959 49.4897 6.51476 49.6086 6.63361 49.6086H9.82167C9.94052 49.6086 10.0594 49.4897 10.0594 49.3708L9.97199 40.9848H19.0398C19.1587 40.9848 19.2775 40.8659 19.2775 40.747V38.3839C19.2775 38.2651 19.1587 38.1462 19.0398 38.1462H9.97199L10.0594 31.7666H19.4802C19.5991 31.7666 19.718 31.6477 19.718 31.5288L19.7145 31.5359Z" fill="url(#paint11_linear_466_849)"/>
<path d="M20.6585 34.6363L20.7459 41.9317L20.6585 49.3741C20.6585 49.4928 20.7773 49.6117 20.8962 49.6117H23.9969C24.1157 49.6117 24.2346 49.4928 24.2346 49.3741L24.2066 42.2289C24.3255 38.7752 26.6291 37.1182 29.492 37.1182C29.7297 37.1182 29.9954 37.1182 30.2017 37.1461C30.3205 37.1461 30.4394 37.0587 30.4394 36.9399V34.6363C30.4394 34.5174 30.3205 34.3705 30.2017 34.3427C29.964 34.3147 29.6982 34.2832 29.4046 34.2832C27.2479 34.2832 25.2413 35.2271 24.1191 37.0587L24.2066 34.6363C24.2066 34.5174 24.0877 34.3985 23.9689 34.3985H20.8962C20.7773 34.3985 20.6585 34.5174 20.6585 34.6363Z" fill="url(#paint12_linear_466_849)"/>
<path d="M48.33 27.1032V25.0967C48.33 24.9779 48.2111 24.8904 48.0923 24.9184C47.6483 25.0372 47.089 25.1561 46.4073 25.1561C45.2853 25.1561 44.635 24.6842 44.635 23.1496V15.0291H48.0889C48.2076 15.0291 48.3265 14.9103 48.3265 14.7914V12.6065C48.3265 12.4878 48.2076 12.3689 48.0889 12.3689H44.635L44.663 8.79629C44.663 8.67744 44.5441 8.55859 44.4253 8.55859H41.3246C41.2058 8.55859 41.0869 8.67744 41.0869 8.79629L41.1149 12.3689H39.3741C39.2552 12.3689 39.1364 12.4878 39.1364 12.6065V14.7914C39.1364 14.9103 39.2552 15.0291 39.3741 15.0291H41.1149L41.0869 23.2405C41.0869 26.6382 43.2438 27.8478 45.6349 27.8478C46.4633 27.8478 47.3477 27.6416 48.0853 27.4039C48.2321 27.3759 48.323 27.257 48.323 27.1102L48.33 27.1032Z" fill="url(#paint13_linear_466_849)"/>
<path d="M62.7716 22.3772H59.8178C59.699 22.3772 59.5521 22.4645 59.5241 22.6148C59.1117 24.506 57.8987 25.4219 56.039 25.4219C53.4697 25.4219 52.1413 23.8873 51.9945 20.6363H63.0967C63.2156 20.6363 63.3344 20.5174 63.3344 20.3985C63.2471 15.2005 60.5869 12.0125 55.8642 12.0125C51.1416 12.0125 48.4534 15.2005 48.4534 20.0141C48.4534 24.8277 51.0821 27.9283 55.983 27.9283C60.0591 27.9283 62.5689 25.5372 62.9814 22.6114C63.0093 22.4925 62.894 22.3737 62.7751 22.3737L62.7716 22.3772ZM55.8921 14.4943C58.2238 14.4943 59.3459 16.2667 59.4962 18.2453H52.1133C52.4978 15.7947 53.7668 14.4943 55.8921 14.4943Z" fill="url(#paint14_linear_466_849)"/>
</g>
<defs>
<linearGradient id="paint0_linear_466_849" x1="52.1129" y1="16.3693" x2="59.4958" y2="16.3693" gradientUnits="userSpaceOnUse">
<stop stop-color="#83E617"/>
<stop offset="1" stop-color="#83E617" stop-opacity="0.4"/>
</linearGradient>
<linearGradient id="paint1_linear_466_849" x1="10.4682" y1="35.2148" x2="18.5747" y2="35.2148" gradientUnits="userSpaceOnUse">
<stop stop-color="#83E617"/>
<stop offset="1" stop-color="#83E617" stop-opacity="0.4"/>
</linearGradient>
<linearGradient id="paint2_linear_466_849" x1="0.0645447" y1="40.8208" x2="32.9039" y2="40.8208" gradientUnits="userSpaceOnUse">
<stop stop-color="#83E617"/>
<stop offset="1" stop-color="#83E617" stop-opacity="0.4"/>
</linearGradient>
<linearGradient id="paint3_linear_466_849" x1="33.2427" y1="15.4264" x2="68.6147" y2="15.4264" gradientUnits="userSpaceOnUse">
<stop stop-color="#83E617"/>
<stop offset="1" stop-color="#83E617" stop-opacity="0.4"/>
</linearGradient>
<linearGradient id="paint4_linear_466_849" x1="31.2042" y1="42.2043" x2="44.8549" y2="42.2043" gradientUnits="userSpaceOnUse">
<stop stop-color="#83E617"/>
<stop offset="1" stop-color="#83E617" stop-opacity="0.4"/>
</linearGradient>
<linearGradient id="paint5_linear_466_849" x1="31.3695" y1="47.0425" x2="34.9072" y2="47.0425" gradientUnits="userSpaceOnUse">
<stop stop-color="#83E617"/>
<stop offset="1" stop-color="#83E617" stop-opacity="0.4"/>
</linearGradient>
<linearGradient id="paint6_linear_466_849" x1="45.9109" y1="40.2535" x2="55.0975" y2="40.2535" gradientUnits="userSpaceOnUse">
<stop stop-color="#83E617"/>
<stop offset="1" stop-color="#83E617" stop-opacity="0.4"/>
</linearGradient>
<linearGradient id="paint7_linear_466_849" x1="56.2794" y1="42.0243" x2="59.9149" y2="42.0243" gradientUnits="userSpaceOnUse">
<stop stop-color="#83E617"/>
<stop offset="1" stop-color="#83E617" stop-opacity="0.4"/>
</linearGradient>
<linearGradient id="paint8_linear_466_849" x1="56.2794" y1="31.0967" x2="59.8834" y2="31.0967" gradientUnits="userSpaceOnUse">
<stop stop-color="#83E617"/>
<stop offset="1" stop-color="#83E617" stop-opacity="0.4"/>
</linearGradient>
<linearGradient id="paint9_linear_466_849" x1="24.0042" y1="19.9911" x2="39.0041" y2="19.9911" gradientUnits="userSpaceOnUse">
<stop stop-color="#83E617"/>
<stop offset="1" stop-color="#83E617" stop-opacity="0.4"/>
</linearGradient>
<linearGradient id="paint10_linear_466_849" x1="6.37097" y1="16.9341" x2="22.7937" y2="16.9341" gradientUnits="userSpaceOnUse">
<stop stop-color="#83E617"/>
<stop offset="1" stop-color="#83E617" stop-opacity="0.4"/>
</linearGradient>
<linearGradient id="paint11_linear_466_849" x1="6.3959" y1="39.2718" x2="19.718" y2="39.2718" gradientUnits="userSpaceOnUse">
<stop stop-color="#83E617"/>
<stop offset="1" stop-color="#83E617" stop-opacity="0.4"/>
</linearGradient>
<linearGradient id="paint12_linear_466_849" x1="20.6585" y1="41.9475" x2="30.4394" y2="41.9475" gradientUnits="userSpaceOnUse">
<stop stop-color="#83E617"/>
<stop offset="1" stop-color="#83E617" stop-opacity="0.4"/>
</linearGradient>
<linearGradient id="paint13_linear_466_849" x1="39.1364" y1="18.2032" x2="48.33" y2="18.2032" gradientUnits="userSpaceOnUse">
<stop stop-color="#83E617"/>
<stop offset="1" stop-color="#83E617" stop-opacity="0.4"/>
</linearGradient>
<linearGradient id="paint14_linear_466_849" x1="48.4534" y1="19.9704" x2="63.3344" y2="19.9704" gradientUnits="userSpaceOnUse">
<stop stop-color="#83E617"/>
<stop offset="1" stop-color="#83E617" stop-opacity="0.4"/>
</linearGradient>
<clipPath id="clip0_466_849">
<rect width="68.5504" height="55.0651" fill="white" transform="translate(0.0641785 0.658691)"/>
</clipPath>
</defs>
</svg>
