<svg width="118" height="38" viewBox="0 0 118 38" fill="none" xmlns="http://www.w3.org/2000/svg">
<g clip-path="url(#clip0_466_744)">
<path d="M53.9542 22.3234C53.7563 22.3216 53.5657 22.3981 53.424 22.5362C53.2822 22.6743 53.2007 22.8629 53.1973 23.0608V31.6642C53.199 31.8643 53.2794 32.0559 53.4208 32.1974C53.5624 32.339 53.7539 32.4194 53.9542 32.4211C54.0532 32.4249 54.152 32.4072 54.2435 32.3693C54.3351 32.3313 54.4174 32.274 54.4846 32.201C54.556 32.1314 54.6123 32.0477 54.6501 31.9554C54.6879 31.863 54.7065 31.764 54.7045 31.6642V23.0608C54.708 22.9611 54.6896 22.862 54.6505 22.7703C54.6112 22.6786 54.5525 22.5967 54.4781 22.5304C54.4089 22.4628 54.3268 22.4098 54.2369 22.3743C54.1469 22.3388 54.0508 22.3215 53.9542 22.3234ZM53.9542 19.1666C53.856 19.1649 53.7583 19.1826 53.6671 19.2188C53.5757 19.255 53.4924 19.3089 53.4221 19.3775C53.3517 19.4462 53.2956 19.528 53.257 19.6183C53.2184 19.7087 53.1982 19.8058 53.1973 19.904V20.4733C53.1973 20.6723 53.2763 20.8631 53.4171 21.0038C53.5578 21.1445 53.7486 21.2236 53.9477 21.2236C54.0466 21.2311 54.1458 21.2157 54.2378 21.1787C54.3297 21.1417 54.412 21.0841 54.4781 21.0101C54.5498 20.9407 54.6063 20.8571 54.6442 20.7647C54.682 20.6723 54.7004 20.5731 54.6981 20.4733V19.904C54.7008 19.8035 54.6819 19.7036 54.6429 19.611C54.6038 19.5184 54.5455 19.4353 54.4717 19.367C54.3302 19.2395 54.1445 19.1722 53.9542 19.1795V19.1666ZM106.856 29.1931C106.708 29.191 106.564 29.2339 106.442 29.3161C106.318 29.4041 106.221 29.5251 106.163 29.6653C106.005 30.0494 105.736 30.3777 105.39 30.6082C105.045 30.8387 104.638 30.9608 104.223 30.959C103.943 30.9573 103.667 30.9024 103.408 30.7973C103.163 30.6924 102.943 30.5382 102.761 30.3445C102.572 30.1591 102.421 29.9395 102.314 29.6977C102.198 29.4418 102.138 29.1638 102.14 28.8826V24.0052H106.021C106.222 24.0052 106.416 23.9256 106.558 23.7839C106.701 23.6421 106.783 23.4496 106.784 23.2483C106.786 23.1496 106.768 23.0515 106.73 22.9602C106.692 22.869 106.636 22.7865 106.564 22.7179C106.493 22.6477 106.408 22.5931 106.314 22.5574C106.221 22.5218 106.121 22.506 106.021 22.5109H102.192V20.1175C102.194 20.017 102.175 19.9171 102.136 19.8245C102.097 19.7319 102.039 19.6488 101.965 19.5806C101.897 19.5108 101.815 19.4554 101.725 19.4176C101.635 19.3799 101.539 19.3604 101.441 19.3606C101.343 19.3597 101.245 19.3783 101.154 19.4153C101.062 19.4522 100.979 19.5067 100.909 19.5758C100.838 19.645 100.782 19.7271 100.744 19.8179C100.705 19.9086 100.685 20.006 100.684 20.1046V28.8826C100.682 29.3601 100.784 29.8326 100.982 30.2669C101.163 30.6929 101.421 31.0813 101.745 31.4119C102.078 31.7449 102.473 32.0084 102.909 32.1872C103.344 32.366 103.81 32.4565 104.281 32.4533H104.663C104.972 32.4338 105.275 32.3639 105.562 32.2463C105.953 32.0912 106.316 31.8727 106.636 31.5995C107.053 31.2503 107.381 30.8069 107.593 30.3058C107.635 30.219 107.657 30.1239 107.658 30.0275C107.657 29.93 107.638 29.8335 107.6 29.7436C107.562 29.6536 107.507 29.5721 107.438 29.5036C107.373 29.4083 107.287 29.3302 107.185 29.2761C107.084 29.2219 106.971 29.1935 106.856 29.1931ZM59.3749 14.8907C59.5304 15.0202 59.7283 15.0871 59.9303 15.0788C60.1324 15.0704 60.3241 14.9872 60.4681 14.8454C60.5497 14.7709 60.6144 14.6799 60.6578 14.5783C60.7013 14.4768 60.7227 14.3673 60.7204 14.2568V8.09208C60.7196 7.57323 60.6118 7.06012 60.4035 6.58486C60.2083 6.12392 59.9297 5.7029 59.5819 5.34287C59.2268 4.99367 58.8072 4.71685 58.3465 4.5278C57.8722 4.32569 57.3611 4.22436 56.8458 4.23025C56.322 4.2254 55.8027 4.32663 55.3191 4.5278C54.8535 4.73528 54.4302 5.02696 54.0706 5.38815C53.3519 6.11954 52.952 7.10558 52.958 8.1309V11.2941C52.949 11.814 53.0503 12.33 53.2555 12.8078C53.4493 13.2661 53.7255 13.6849 54.0706 14.0433C54.4269 14.3941 54.8489 14.6711 55.3126 14.8583C55.788 15.0649 56.3016 15.1685 56.8198 15.1624C57.6393 15.1741 58.4405 14.9199 59.1033 14.4379C59.116 14.5277 59.1467 14.614 59.1933 14.6918C59.24 14.7696 59.3018 14.8372 59.3749 14.8907ZM58.4176 12.8984C58.2183 13.0988 57.9777 13.2534 57.7125 13.3511C57.4387 13.4595 57.1466 13.5143 56.8522 13.5128C56.553 13.5122 56.2568 13.4551 55.9789 13.3447C55.7057 13.2331 55.4589 13.0657 55.2544 12.8531C55.0536 12.6441 54.8914 12.4009 54.7757 12.1351C54.6526 11.8649 54.5885 11.5715 54.5881 11.2747V8.09208C54.5873 7.64947 54.7179 7.21658 54.9631 6.84813C55.2083 6.47968 55.5574 6.19222 55.966 6.02209C56.5305 5.79539 57.1609 5.79539 57.7255 6.02209C57.9947 6.13142 58.239 6.29427 58.4434 6.50077C58.6452 6.7116 58.8073 6.95701 58.9222 7.22527C59.0454 7.49764 59.1094 7.79311 59.1097 8.09208V11.417C59.0947 11.6988 59.0266 11.9754 58.9092 12.2321C58.7852 12.4844 58.6139 12.7106 58.4047 12.8984H58.4176ZM115.853 22.5433C115.713 22.4026 115.522 22.3236 115.323 22.3236C115.124 22.3236 114.933 22.4026 114.792 22.5433C114.722 22.6123 114.667 22.6948 114.628 22.7859C114.59 22.8772 114.572 22.975 114.573 23.0737V28.8955C114.578 29.1764 114.52 29.4549 114.405 29.7106C114.295 29.9504 114.143 30.1692 113.959 30.3575C113.777 30.5499 113.556 30.7019 113.311 30.8038C112.785 31.0111 112.201 31.0111 111.675 30.8038C111.433 30.6973 111.213 30.5458 111.028 30.3575C110.837 30.1737 110.686 29.9538 110.581 29.7106C110.475 29.4522 110.423 29.1749 110.426 28.8955V23.0608C110.428 22.9613 110.409 22.8628 110.37 22.7713C110.331 22.6799 110.273 22.5978 110.2 22.5304C110.131 22.4591 110.049 22.4028 109.958 22.3651C109.866 22.3272 109.768 22.3085 109.669 22.3103C109.569 22.3059 109.468 22.3221 109.373 22.358C109.279 22.3938 109.193 22.4486 109.12 22.5187C109.047 22.5889 108.99 22.6732 108.951 22.7664C108.912 22.8596 108.892 22.9598 108.893 23.0608V28.9343C108.893 29.3511 108.965 29.7648 109.107 30.157C109.248 30.535 109.451 30.887 109.708 31.1984C109.959 31.5173 110.261 31.7926 110.601 32.0135C110.945 32.2352 111.33 32.3868 111.733 32.4598V35.1185C111.729 35.219 111.748 35.3192 111.787 35.4119C111.826 35.5046 111.885 35.5877 111.959 35.6554C112.1 35.791 112.288 35.8675 112.483 35.8688C112.583 35.8715 112.682 35.854 112.774 35.8172C112.867 35.7806 112.952 35.7255 113.022 35.6554C113.093 35.5853 113.148 35.5016 113.187 35.4093C113.224 35.3169 113.242 35.218 113.24 35.1185V32.4211C113.637 32.3409 114.016 32.1897 114.36 31.9747C114.703 31.7523 115.008 31.4773 115.264 31.1596C115.517 30.8463 115.718 30.4947 115.86 30.1181C116.004 29.7264 116.078 29.3127 116.08 28.8955V23.0608C116.079 22.9636 116.059 22.8676 116.021 22.7786C115.981 22.6896 115.924 22.6095 115.853 22.5433ZM62.9263 22.8731C62.7081 22.7183 62.4684 22.5962 62.2147 22.5109C61.8505 22.415 61.478 22.3544 61.1021 22.3298C60.3206 22.3112 59.5555 22.555 58.9286 23.0219C58.8886 22.8477 58.7933 22.6912 58.657 22.5755C58.5477 22.4837 58.4143 22.4252 58.2726 22.4071C58.131 22.3889 57.9872 22.4119 57.8583 22.4733C57.7294 22.5346 57.6209 22.6318 57.5458 22.7532C57.4706 22.8746 57.4319 23.0151 57.4344 23.1578V25.7453V31.6642C57.4361 31.8643 57.5163 32.0559 57.6579 32.1974C57.7995 32.339 57.991 32.4194 58.1912 32.4211C58.2903 32.4211 58.3884 32.4014 58.4799 32.3633C58.5713 32.3252 58.6543 32.2694 58.724 32.199C58.7938 32.1285 58.849 32.0452 58.8863 31.9533C58.9236 31.8615 58.9424 31.7632 58.9416 31.6642V25.8424C58.9525 25.562 59.0139 25.2859 59.1227 25.0273C59.2297 24.7857 59.3811 24.5662 59.569 24.3803C59.7588 24.1989 59.9774 24.0503 60.2159 23.9405C60.4752 23.8375 60.7519 23.7848 61.0309 23.7853C61.4053 23.8108 61.7664 23.9335 62.0789 24.1411C62.2129 24.2304 62.3706 24.2777 62.5317 24.2768C62.7239 24.2735 62.9073 24.1952 63.0426 24.0587C63.1779 23.9222 63.2546 23.7381 63.2562 23.5459C63.2643 23.4148 63.2383 23.2837 63.1804 23.1659C63.1225 23.0479 63.035 22.9471 62.9263 22.8731ZM44.0893 14.0045C44.4491 14.3511 44.8702 14.6275 45.3313 14.8196C45.8101 15.0216 46.3254 15.1229 46.8451 15.1171C47.872 15.1213 48.8593 14.7217 49.5943 14.0045C49.9393 13.646 50.2156 13.2273 50.4093 12.769C50.6148 12.2931 50.7204 11.7801 50.7198 11.2618V1.82387C50.7212 1.71514 50.7001 1.60729 50.6577 1.5071C50.6154 1.40692 50.5528 1.31655 50.474 1.24169C50.3593 1.12976 50.2141 1.05413 50.0567 1.02425C49.8993 0.994373 49.7365 1.01157 49.5888 1.0737C49.441 1.13583 49.3149 1.24013 49.2261 1.37355C49.1373 1.50698 49.0899 1.66361 49.0897 1.82387V4.94827C48.7622 4.73285 48.4105 4.55696 48.0418 4.4243C47.1569 4.13186 46.196 4.17094 45.3378 4.53428C44.877 4.72332 44.4574 5.00015 44.1023 5.34934C43.7551 5.70608 43.4786 6.1253 43.2872 6.58486C43.0759 7.06141 42.9679 7.57727 42.9703 8.09856V11.3006C42.97 11.8182 43.0734 12.3307 43.2743 12.8078C43.4666 13.2553 43.7434 13.6616 44.0893 14.0045ZM44.5875 8.0662C44.5831 7.76745 44.6449 7.47143 44.7685 7.1994C44.8857 6.93092 45.0502 6.68555 45.2537 6.4749C45.4582 6.2684 45.7025 6.10555 45.9718 5.99621C46.3862 5.82456 46.8419 5.77842 47.2824 5.86351C47.7228 5.94862 48.1286 6.16121 48.4492 6.4749C48.6578 6.68149 48.8228 6.92785 48.9344 7.1994C49.0499 7.47379 49.1092 7.76852 49.1091 8.0662V11.2682C49.1094 11.5673 49.0453 11.8629 48.9215 12.1351C48.8041 12.4 48.6422 12.6428 48.4428 12.8531C48.2444 13.0702 48.0018 13.2422 47.7313 13.3577C47.1787 13.5902 46.5566 13.5941 46.0012 13.3686C45.4458 13.1429 45.0025 12.7063 44.7685 12.1544C44.6576 11.8789 44.6004 11.5847 44.6003 11.2876L44.5875 8.0662ZM50.7004 22.2974C50.5509 22.289 50.4027 22.3283 50.2772 22.4097C50.1515 22.4911 50.0551 22.6104 50.0017 22.7503L47.0844 29.7818L44.1475 22.7761C44.0892 22.6269 43.985 22.5001 43.85 22.4138C43.7279 22.3374 43.5866 22.297 43.4425 22.2974C43.341 22.2913 43.2395 22.3092 43.1461 22.3497C43.0529 22.3901 42.9705 22.452 42.9055 22.5304C42.7806 22.6738 42.7117 22.8576 42.7115 23.0479C42.7051 23.1497 42.7228 23.2516 42.7633 23.3453L46.3792 31.9423C46.4236 32.0867 46.5171 32.2111 46.6436 32.2938C46.77 32.3766 46.9214 32.4124 47.0714 32.3951C47.2196 32.4012 47.3659 32.3608 47.4901 32.2796C47.6142 32.1984 47.7098 32.0806 47.7636 31.9423L51.3732 23.3453C51.4203 23.2533 51.4447 23.1513 51.4443 23.0479C51.4367 22.8567 51.3635 22.674 51.2373 22.5304C51.1698 22.4568 51.0863 22.3998 50.9931 22.3638C50.9 22.3279 50.7998 22.314 50.7004 22.3234V22.2974ZM66.8722 15.1366H67.2927C67.6258 15.1028 67.9525 15.0222 68.263 14.8972C68.6883 14.722 69.0852 14.4844 69.4404 14.1921C69.8849 13.7927 70.2361 13.3001 70.4689 12.7496C70.5126 12.6543 70.5346 12.5504 70.5336 12.4456C70.5339 12.3394 70.513 12.2343 70.4719 12.1366C70.4308 12.0387 70.3703 11.9502 70.2942 11.8763C70.2233 11.7937 70.1348 11.7282 70.0351 11.6845C69.9355 11.6407 69.8272 11.6202 69.7185 11.624C69.5553 11.6231 69.3955 11.6703 69.2592 11.7599C69.1302 11.8624 69.0263 11.9929 68.9551 12.1415C68.7922 12.5546 68.5081 12.9086 68.1401 13.1571C67.7724 13.4008 67.3393 13.5271 66.8982 13.5194C66.599 13.5193 66.3026 13.4622 66.0249 13.3511C65.7528 13.2411 65.5078 13.0733 65.3068 12.8596C65.1006 12.6521 64.9339 12.4088 64.8151 12.1415C64.697 11.87 64.6353 11.5773 64.6341 11.2812V6.04796H68.8129C69.0346 6.0441 69.2459 5.95354 69.4015 5.79568C69.5515 5.64163 69.6351 5.43495 69.6343 5.21996C69.6337 5.00524 69.5503 4.79904 69.4015 4.64425C69.2442 4.49055 69.0329 4.40462 68.8129 4.40491H64.6341V1.81741C64.6367 1.70908 64.6167 1.60141 64.5756 1.50119C64.5343 1.40097 64.4727 1.31041 64.3947 1.23522C64.2399 1.08641 64.0337 1.00301 63.819 1.00234C63.7111 0.998934 63.6037 1.01786 63.5036 1.05794C63.4033 1.09801 63.3125 1.15837 63.2368 1.23522C63.1603 1.31154 63.0998 1.40232 63.0587 1.50227C63.0175 1.60222 62.9968 1.70935 62.9974 1.81741V11.2941C62.9951 11.8154 63.1032 12.3313 63.3144 12.8078C63.5035 13.2685 63.7803 13.6882 64.1295 14.0433C64.8641 14.7578 65.8476 15.1591 66.8722 15.1624V15.1366ZM97.2753 22.2974C97.1703 22.2883 97.0647 22.3015 96.9651 22.3358C96.8656 22.3703 96.7744 22.4253 96.6976 22.4973C96.6207 22.5694 96.5598 22.6567 96.5189 22.7538C96.478 22.8509 96.4581 22.9555 96.4602 23.0608V31.6642C96.4602 31.8649 96.54 32.0574 96.682 32.1993C96.8239 32.3413 97.0164 32.4211 97.2171 32.4211C97.3171 32.4245 97.4167 32.4068 97.5093 32.3688C97.6018 32.3309 97.6853 32.2737 97.754 32.201C97.8233 32.1301 97.8779 32.0462 97.9145 31.954C97.9512 31.8619 97.9691 31.7633 97.9675 31.6642V23.0608C97.9709 22.9611 97.9525 22.862 97.9134 22.7703C97.8743 22.6786 97.8154 22.5967 97.7411 22.5304C97.6007 22.3947 97.4123 22.3202 97.2171 22.3234L97.2753 22.2974ZM79.6869 22.2974C79.5819 22.2883 79.4762 22.3015 79.3767 22.3358C79.2771 22.3703 79.1859 22.4253 79.109 22.4973C79.0322 22.5694 78.9712 22.6567 78.9305 22.7538C78.8895 22.8509 78.8695 22.9555 78.8718 23.0608V28.8179C78.8773 29.0981 78.8221 29.3762 78.7101 29.633C78.6012 29.8751 78.4476 30.0946 78.2572 30.2798C78.0761 30.475 77.8557 30.6293 77.6103 30.7327C77.3515 30.8383 77.0749 30.8933 76.7953 30.8944C76.5158 30.8926 76.2392 30.8378 75.9802 30.7327C75.4836 30.5157 75.0883 30.1179 74.8741 29.62C74.7619 29.3633 74.7068 29.0851 74.7124 28.805V23.0608C74.7093 22.9122 74.6638 22.7677 74.5811 22.6443C74.4985 22.5209 74.3821 22.4238 74.2459 22.3646C74.1097 22.3054 73.9594 22.2864 73.8128 22.3101C73.6661 22.3337 73.5294 22.3989 73.4187 22.498C73.3458 22.5652 73.2884 22.6475 73.2504 22.7391C73.2124 22.8306 73.1948 22.9293 73.1986 23.0284V28.8179V28.8503C73.2054 29.799 73.584 30.7071 74.2531 31.3795C74.5849 31.6922 74.9706 31.942 75.3916 32.117C76.2631 32.481 77.2427 32.4875 78.119 32.1353C78.9952 31.7831 79.6978 31.1004 80.0749 30.2345C80.2693 29.7993 80.3664 29.327 80.3596 28.8503V23.0608C80.3661 22.9561 80.3491 22.8511 80.31 22.7538C80.2708 22.6565 80.2104 22.569 80.1332 22.498C80.0675 22.4311 79.9888 22.3782 79.9022 22.3427C79.8154 22.3071 79.7224 22.2895 79.6287 22.291L79.6869 22.2974ZM93.0124 19.3606C92.8128 19.3588 92.6205 19.436 92.4776 19.5754C92.3346 19.7147 92.2525 19.9049 92.2491 20.1046V31.6642C92.2541 31.8645 92.3363 32.055 92.4786 32.1961C92.6209 32.3371 92.8121 32.4177 93.0124 32.4211C93.1124 32.4245 93.212 32.4068 93.3046 32.3688C93.3972 32.3309 93.4805 32.2737 93.5493 32.201C93.6863 32.0558 93.7627 31.8638 93.7627 31.6642V20.1175C93.7631 20.0168 93.7425 19.9171 93.7025 19.8246C93.6624 19.7323 93.6036 19.6492 93.5299 19.5806C93.4631 19.5107 93.3828 19.4552 93.2938 19.4173C93.2049 19.3795 93.1091 19.3602 93.0124 19.3606ZM88.4843 23.3453C88.151 23.0133 87.7556 22.7503 87.3203 22.5716C86.8852 22.3929 86.419 22.3019 85.9485 22.3039C85.4706 22.2986 84.9969 22.3934 84.5578 22.5821C84.1317 22.7627 83.7434 23.0216 83.4127 23.3453C83.0785 23.6761 82.8138 24.0701 82.6339 24.5044C82.4538 24.9386 82.3625 25.4045 82.3648 25.8746V28.8826C82.358 29.3592 82.4552 29.8317 82.6495 30.2669C82.8432 30.6984 83.1202 31.0876 83.4646 31.4119C83.7955 31.7452 84.1897 32.0091 84.6241 32.1879C85.0584 32.3668 85.5241 32.457 85.9938 32.4533C86.7464 32.4725 87.4846 32.2454 88.0962 31.8065C88.1218 31.9744 88.2124 32.1253 88.3485 32.227C88.4914 32.3478 88.6748 32.4103 88.8618 32.4018C89.0489 32.3934 89.2259 32.3149 89.3575 32.1817C89.4356 32.1155 89.4969 32.0317 89.5362 31.9373C89.5755 31.8428 89.5919 31.7403 89.584 31.6384V25.8746C89.5908 25.398 89.4937 24.9256 89.2994 24.4903C89.0996 24.0623 88.8234 23.6743 88.4843 23.3453ZM88.0509 28.9474C88.043 29.2156 87.9815 29.4796 87.8698 29.7235C87.6443 30.1969 87.2497 30.5684 86.7636 30.7651C86.2399 30.9718 85.6572 30.9718 85.1335 30.7651C84.8897 30.6619 84.6696 30.51 84.4866 30.3187C84.3021 30.13 84.1511 29.9113 84.0403 29.6719C83.9289 29.4145 83.8717 29.137 83.872 28.8568V25.8941C83.8645 25.6143 83.9174 25.3363 84.0273 25.079C84.1327 24.8365 84.2843 24.6168 84.4737 24.4321C84.6599 24.2447 84.8793 24.0934 85.1205 23.9858C85.3779 23.8759 85.6559 23.8229 85.9356 23.8306C86.2147 23.8301 86.4913 23.8828 86.7507 23.9858C86.9939 24.0899 87.2138 24.2418 87.3975 24.4321C87.583 24.62 87.734 24.8391 87.8439 25.079C87.9613 25.3343 88.0189 25.6131 88.0121 25.8941L88.0509 28.9474ZM70.9087 29.1931C70.7596 29.1918 70.6133 29.2345 70.4883 29.3161C70.37 29.408 70.2766 29.5281 70.2166 29.6653C70.0613 30.0492 69.7899 30.3749 69.4404 30.5968C69.0997 30.8243 68.6985 30.9437 68.289 30.9397C68.0091 30.941 67.7319 30.8861 67.4739 30.778C67.2286 30.6746 67.0081 30.5203 66.8269 30.3251C66.6386 30.1383 66.4852 29.9192 66.3742 29.6783C66.2654 29.4205 66.2103 29.1431 66.2124 28.8632V24.0052H70.0936C70.1942 24.0087 70.2943 23.9904 70.3872 23.9513C70.4799 23.9122 70.5629 23.8533 70.6306 23.7788C70.7678 23.6363 70.8443 23.4461 70.8441 23.2483C70.8458 23.0521 70.7699 22.8632 70.633 22.7226C70.4962 22.5822 70.3093 22.5014 70.1131 22.498H66.3354V20.1175C66.3338 19.9156 66.2525 19.7226 66.1089 19.5806C66.0395 19.5106 65.9569 19.4552 65.8658 19.4174C65.7747 19.3796 65.6771 19.3603 65.5785 19.3606C65.479 19.3588 65.3799 19.3773 65.2877 19.4147C65.1954 19.4522 65.1117 19.508 65.0416 19.5788C64.9715 19.6495 64.9164 19.7336 64.8798 19.8262C64.843 19.9188 64.8255 20.0179 64.8281 20.1175V28.8826H64.7958C64.789 29.3592 64.886 29.8317 65.0803 30.2669C65.3497 30.9055 65.7988 31.4521 66.373 31.8403C66.9472 32.2284 67.6218 32.4414 68.3148 32.4533H68.7094C69.014 32.433 69.3134 32.3631 69.5956 32.2463C69.9887 32.0874 70.3551 31.8693 70.6823 31.5995C71.0926 31.2453 71.4177 30.803 71.6332 30.3058C71.6716 30.218 71.6915 30.1233 71.6914 30.0275C71.6913 29.93 71.6718 29.8335 71.634 29.7436C71.5962 29.6536 71.5411 29.5721 71.4715 29.5036C71.4097 29.4118 71.3271 29.3358 71.2304 29.2819C71.1338 29.228 71.0258 29.1976 70.9152 29.1931H70.9087ZM97.2171 19.1795C97.1189 19.1778 97.0212 19.1956 96.93 19.2317C96.8386 19.2679 96.7553 19.3219 96.685 19.3905C96.6146 19.4591 96.5586 19.5409 96.52 19.6312C96.4814 19.7216 96.4611 19.8187 96.4602 19.9169V20.4733C96.4602 20.6723 96.5393 20.8631 96.68 21.0038C96.8207 21.1445 97.0116 21.2236 97.2106 21.2236C97.3099 21.2268 97.4089 21.2095 97.5013 21.1727C97.5937 21.136 97.6775 21.0807 97.7475 21.0101C97.8169 20.9392 97.8714 20.8553 97.908 20.7631C97.9446 20.671 97.9627 20.5724 97.961 20.4733V19.904C97.9637 19.8035 97.9449 19.7036 97.9059 19.611C97.8669 19.5184 97.8084 19.4353 97.7346 19.367C97.5928 19.2402 97.4074 19.1729 97.2171 19.1795ZM78.2184 14.4574C78.231 14.5481 78.2616 14.6354 78.3082 14.7142C78.3548 14.7931 78.4167 14.8618 78.49 14.9166C78.6462 15.0451 78.8446 15.1111 79.0466 15.1015C79.2487 15.092 79.44 15.0076 79.5834 14.8649C79.6648 14.7904 79.7295 14.6992 79.7729 14.5977C79.8164 14.4963 79.8379 14.3866 79.8356 14.2762V8.09208C79.8348 7.57323 79.7269 7.06012 79.5186 6.58486C79.3295 6.12225 79.0527 5.70053 78.7036 5.34287C78.3509 4.99978 77.9388 4.72361 77.4874 4.5278C76.5195 4.13131 75.4345 4.13131 74.4666 4.5278C74.0072 4.72301 73.5864 4.99907 73.2245 5.34287C72.8717 5.69751 72.5945 6.12002 72.4095 6.58486C72.2061 7.06118 72.1026 7.57417 72.1054 8.09208V11.2941C72.0987 11.8145 72.2023 12.3304 72.4095 12.8078C72.6032 13.2661 72.8795 13.6849 73.2245 14.0433C73.8799 14.6813 74.7375 15.0706 75.6493 15.1438C76.561 15.2171 77.4696 14.9696 78.2184 14.4443V14.4574ZM73.8714 7.2382C73.983 6.96667 74.148 6.7203 74.3566 6.51371C74.5628 6.30934 74.8066 6.14679 75.0747 6.03502C75.6392 5.80833 76.2695 5.80833 76.834 6.03502C77.1025 6.14605 77.3464 6.3087 77.5521 6.51371C77.7558 6.72437 77.9201 6.96972 78.0373 7.2382C78.1577 7.51125 78.2194 7.80658 78.2184 8.10502V11.417C78.2032 11.6988 78.1353 11.9754 78.0179 12.2321C77.8969 12.4849 77.7327 12.7147 77.5327 12.9113C77.3324 13.1027 77.0976 13.2542 76.8406 13.3577C76.5815 13.4627 76.305 13.5176 76.0255 13.5194C75.7265 13.5187 75.4302 13.4616 75.1522 13.3511C74.8791 13.2397 74.6323 13.0721 74.4277 12.8596C74.2269 12.6505 74.0648 12.4074 73.9491 12.1415C73.8259 11.8713 73.762 11.578 73.7614 11.2812V8.09208H73.7226C73.7112 7.79592 73.7619 7.50065 73.8714 7.22527V7.2382Z" fill="url(#paint0_linear_466_744)"/>
<path d="M34.9039 18.3319L27.0313 13.9525C26.8982 13.8817 26.7597 13.8212 26.6173 13.7715L31.4236 12.4066C32.0927 12.1333 32.6376 11.6227 32.9539 10.9728C33.2702 10.3229 33.3357 9.57919 33.1378 8.88398C32.9401 8.18878 32.4928 7.59096 31.8817 7.20492C31.2706 6.81888 30.5387 6.67174 29.8258 6.79168L21.1642 9.25627C21.0179 9.30166 20.8752 9.35788 20.7373 9.42447L23.1502 5.06453C23.3744 4.75064 23.5346 4.39567 23.6217 4.01984C23.7088 3.64403 23.721 3.25475 23.6577 2.87422C23.5943 2.49368 23.4565 2.12937 23.2524 1.80206C23.0482 1.47475 22.7816 1.19085 22.4677 0.966583C22.1538 0.742318 21.7988 0.582075 21.423 0.495C21.0471 0.407925 20.6578 0.395725 20.2773 0.459096C19.8968 0.522468 19.5325 0.66017 19.2051 0.86434C18.8779 1.06851 18.594 1.33515 18.3697 1.64903C18.2454 1.82777 18.1392 2.01846 18.0527 2.21828L13.6864 10.1231C13.6188 10.257 13.5604 10.3953 13.5116 10.5371L12.1532 5.70493C11.8799 5.0358 11.3695 4.49095 10.7196 4.17466C10.0696 3.85839 9.32591 3.79289 8.63071 3.99072C7.93552 4.18855 7.33766 4.63581 6.95162 5.24688C6.56558 5.85796 6.41846 6.58993 6.5384 7.30272L8.99004 15.945C9.03532 16.0808 9.08706 16.2231 9.14529 16.359L4.79183 13.9332C4.15885 13.4986 3.3809 13.3293 2.62458 13.4615C1.86827 13.5935 1.19376 14.0165 0.745515 14.6398C0.297268 15.2631 0.110913 16.0371 0.226406 16.7963C0.341899 17.5553 0.750052 18.2389 1.36341 18.7006C1.54781 18.8341 1.74761 18.9449 1.95852 19.0306L9.82453 23.4228C9.95242 23.4971 10.0866 23.5598 10.2256 23.6104L5.43224 25.0012C4.77793 25.216 4.21995 25.654 3.85579 26.2385C3.49163 26.823 3.34445 27.517 3.44001 28.1989C3.53556 28.8809 3.86779 29.5076 4.37857 29.9696C4.88935 30.4315 5.5462 30.6993 6.23436 30.726C6.50331 30.7254 6.77097 30.6884 7.03003 30.616L15.6917 28.1515C15.838 28.1061 15.9807 28.0499 16.1186 27.9832L13.6864 32.3497C13.3977 33.0178 13.3672 33.7691 13.601 34.4583C13.8348 35.1474 14.3162 35.7253 14.9518 36.0797C15.5874 36.4341 16.3319 36.54 17.0411 36.3767C17.7503 36.2134 18.3737 35.7926 18.7902 35.196L23.1502 27.3235C23.2204 27.1886 23.2788 27.0479 23.3248 26.9029L24.6961 31.6639C24.97 32.3315 25.48 32.8747 26.1287 33.1901C26.7776 33.5057 27.5197 33.5713 28.2139 33.3747C28.9079 33.1779 29.5055 32.7327 29.8921 32.1236C30.2789 31.5146 30.4281 30.7846 30.311 30.0727L27.8464 21.411C27.7999 21.2672 27.7437 21.1267 27.6782 20.9905L32.0446 23.4423C32.712 23.7258 33.4607 23.7524 34.1465 23.517C34.8324 23.2816 35.4069 22.8008 35.7594 22.1671C36.112 21.5335 36.2177 20.7918 36.0561 20.085C35.8946 19.3781 35.4772 18.756 34.8844 18.3384L34.9039 18.3319ZM22.7684 20.5378L23.5447 20.7577C23.9122 20.8655 24.2288 21.1017 24.4368 21.4233C24.6447 21.7449 24.7302 22.1306 24.6776 22.51C24.6251 22.8894 24.4381 23.2372 24.1505 23.4903C23.8631 23.7433 23.4943 23.8846 23.1113 23.8885C22.9648 23.8888 22.8191 23.8691 22.6779 23.8303L20.2133 23.1318L20.608 23.8368C20.8163 24.2024 20.8714 24.6357 20.761 25.0419C20.6507 25.448 20.384 25.7939 20.0192 26.0038C19.7855 26.1398 19.5198 26.2113 19.2494 26.2108C18.9644 26.2109 18.6846 26.1348 18.439 25.9904C18.1933 25.8459 17.9907 25.6385 17.8522 25.3893L16.6102 23.164L16.3709 23.9403C16.2776 24.2769 16.0764 24.5737 15.7984 24.7852C15.5204 24.9966 15.1807 25.1111 14.8313 25.1112C14.6846 25.1091 14.5388 25.0874 14.3979 25.0465C13.9968 24.9317 13.6568 24.664 13.4512 24.3011C13.2455 23.9381 13.1906 23.5089 13.2982 23.1058L14.0227 20.6347L13.3177 21.0294C13.0808 21.1628 12.8132 21.2319 12.5414 21.2299C12.1893 21.2294 11.8471 21.1131 11.5676 20.8989C11.2882 20.6848 11.0869 20.3846 10.995 20.0447C10.903 19.7047 10.9254 19.3441 11.0587 19.0182C11.1921 18.6923 11.4289 18.4193 11.7328 18.2413L13.9645 17.0123L13.1882 16.7923C12.7971 16.6635 12.4708 16.3887 12.2774 16.0251C12.084 15.6615 12.0385 15.2372 12.1503 14.841C12.2621 14.4446 12.5226 14.1067 12.8775 13.8978C13.2324 13.6889 13.6542 13.6251 14.0551 13.7197L16.5131 14.4183L16.1186 13.7132C15.92 13.3539 15.8674 12.9319 15.9716 12.5348C16.0759 12.1376 16.3289 11.7959 16.6783 11.5804C17.0278 11.3649 17.4469 11.2922 17.8485 11.3774C18.2502 11.4626 18.6036 11.699 18.8355 12.0379C18.863 12.0788 18.8868 12.122 18.9067 12.1672L19.0684 12.4583L20.1357 14.3665L20.3491 13.5968C20.4649 13.1902 20.7375 12.8463 21.1069 12.6406C21.4763 12.435 21.9123 12.3845 22.3189 12.5004C22.7255 12.6161 23.0694 12.8888 23.275 13.2582C23.4807 13.6275 23.5311 14.0635 23.4154 14.47L22.7232 16.9282L23.4283 16.54C23.6109 16.4381 23.8118 16.3732 24.0196 16.3489C24.2273 16.3246 24.4378 16.3415 24.6391 16.3986C24.8403 16.4556 25.0283 16.5517 25.1924 16.6814C25.3565 16.8112 25.4933 16.972 25.5953 17.1546C25.6973 17.3372 25.7622 17.5382 25.7865 17.746C25.8108 17.9536 25.7938 18.1641 25.7369 18.3654C25.6798 18.5667 25.5836 18.7547 25.4539 18.9187C25.3242 19.0828 25.1634 19.2197 24.9808 19.3216L22.7555 20.5636L22.7684 20.5378Z" fill="url(#paint1_linear_466_744)"/>
</g>
<defs>
<linearGradient id="paint0_linear_466_744" x1="42.7102" y1="18.4355" x2="116.08" y2="18.4355" gradientUnits="userSpaceOnUse">
<stop stop-color="#83E617"/>
<stop offset="1" stop-color="#83E617" stop-opacity="0.4"/>
</linearGradient>
<linearGradient id="paint1_linear_466_744" x1="0.192978" y1="18.4354" x2="36.1299" y2="18.4354" gradientUnits="userSpaceOnUse">
<stop stop-color="#83E617"/>
<stop offset="1" stop-color="#83E617" stop-opacity="0.4"/>
</linearGradient>
<clipPath id="clip0_466_744">
<rect width="116.873" height="37.0846" fill="white" transform="translate(0.192932 0.0583496)"/>
</clipPath>
</defs>
</svg>
