<svg width="124" height="37" viewBox="0 0 124 37" fill="none" xmlns="http://www.w3.org/2000/svg">
<g clip-path="url(#clip0_466_1103)">
<mask id="mask0_466_1103" style="mask-type:luminance" maskUnits="userSpaceOnUse" x="0" y="0" width="124" height="37">
<path d="M123.745 0.25769H0.129639V36.2185H123.745V0.25769Z" fill="white"/>
</mask>
<g mask="url(#mask0_466_1103)">
<path d="M5.03848 30.4765C6.11721 31.5438 8.18718 34.3511 9.4933 35.0935C12.9335 37.0597 16.1523 35.9635 20.1464 35.3719C21.9831 35.0993 23.7616 34.5425 25.4176 33.7189C27.1027 32.8778 30.8461 31.0449 32.1639 29.74C35.3534 26.5963 35.1143 22.9829 35.1143 18.1803C35.1143 16.9158 34.9744 15.6572 34.7003 14.4218C34.2455 12.3801 33.4175 10.4429 32.2572 8.69128C30.5546 6.12181 28.1989 4.03376 25.4117 2.64753C23.7557 1.82391 21.9772 1.2613 20.1405 0.988691C16.1523 0.397076 13.2076 -0.507745 9.76736 1.45851C8.46707 2.20092 6.11721 4.82258 5.03848 5.88401C3.33003 7.56604 1.99474 9.57289 1.10845 11.7827C0.764424 12.6354 0.490371 13.517 0.29212 14.416C0.0238974 15.6282 0.16967 19.7985 0.16967 21.0862C0.16967 25.8887 1.84898 27.3272 5.03848 30.4708V30.4765Z" fill="#8CF719"/>
<path d="M26.9514 29.2584H7.12622V10.7154L17.0388 7.2179L26.9514 10.7154V29.2584ZM8.33322 28.0694H25.7443V11.5448L17.0388 8.47073L8.33322 11.5448V28.0694Z" fill="black"/>
<path d="M15.08 19.7172V23.8933H13.8323V14.874H15.08V19.7172ZM18.9459 18.6326V14.874H20.1938V23.8933H18.9459V18.6326Z" fill="black"/>
<path d="M19.8381 19.7057C19.0101 20.2799 18.0131 20.5583 17.0042 20.4829C16.013 20.5467 15.0276 20.2625 14.2229 19.6825L15.0159 18.7487C15.6223 19.0851 16.3163 19.2417 17.0042 19.1895C17.704 19.2359 18.3978 19.0851 19.0101 18.7487L19.8381 19.7057Z" fill="black"/>
<path d="M43.4124 25.0765V29.1076H42.1121V19.7809H47.7563V20.9351H43.4124V23.9338H47.0801V25.088H43.4124V25.0765Z" fill="#8CF719"/>
<path d="M49.0452 26.834V22.0605H50.3163V26.8108C50.2872 27.1646 50.3863 27.5184 50.5962 27.8084C50.7128 27.9187 50.847 28.0056 50.9986 28.0578C51.1502 28.11 51.3134 28.1332 51.4709 28.1158C51.7915 28.11 52.1122 28.0404 52.4038 27.907C52.7711 27.7446 53.1152 27.5416 53.4242 27.2922V22.0547H54.6953V29.1076H53.4242V28.255C53.0686 28.5625 52.672 28.8177 52.2521 29.0265C51.9081 29.1773 51.5408 29.2527 51.1677 29.2527C50.8761 29.2759 50.5787 29.2294 50.3046 29.1192C50.0306 29.0148 49.7857 28.8467 49.5874 28.632C49.1968 28.1158 49.0044 27.4778 49.0511 26.834H49.0452Z" fill="#8CF719"/>
<path d="M58.4569 22.0607H63.5355V23.1105H58.4569V26.7936C58.4276 27.1591 58.5443 27.5187 58.7776 27.8029C58.9117 27.9188 59.0633 28.0117 59.2265 28.0697C59.3957 28.1276 59.5705 28.1509 59.7455 28.1335C60.0429 28.1335 60.3402 28.0986 60.6318 28.0232C60.9466 27.9363 61.2441 27.8144 61.5297 27.6579L61.9962 28.6381C61.6522 28.8411 61.279 28.9977 60.8941 29.0963C60.4976 29.2007 60.0895 29.2587 59.6813 29.2587C59.3489 29.2761 59.0166 29.2297 58.7017 29.1195C58.3869 29.0092 58.1012 28.8353 57.8562 28.6091C57.6289 28.3654 57.4539 28.0812 57.3431 27.7739C57.2324 27.4607 57.1799 27.1358 57.2032 26.8052V23.1221H55.5706V22.2174L57.2324 22.0723L57.4773 20.1293H58.4569V22.0723V22.0607Z" fill="#8CF719"/>
<path d="M62.8878 26.834V22.0605H64.1589V26.8108C64.1298 27.1646 64.223 27.5184 64.4388 27.8084C64.5553 27.9187 64.6895 28.0056 64.8411 28.0578C64.9927 28.11 65.156 28.1332 65.3134 28.1158C65.634 28.11 65.9548 28.0404 66.2463 27.907C66.6136 27.7446 66.9577 27.5416 67.2668 27.2922V22.0547H68.5379V29.1076H67.2668V28.255C66.9111 28.5625 66.5145 28.8177 66.0947 29.0265C65.7507 29.1773 65.3833 29.2527 65.0101 29.2527C64.7186 29.2759 64.4213 29.2294 64.1472 29.1192C63.8732 29.0148 63.6282 28.8467 63.43 28.632C63.0394 28.1158 62.8469 27.4778 62.8936 26.834H62.8878Z" fill="#8CF719"/>
<path d="M72.9574 28.058H75.5114V29.1078H69.7039V28.058H71.7446V23.1105H69.8612V22.0607H72.7942V23.4005C73.2373 22.9365 73.7621 22.5537 74.3452 22.2811C74.8817 22.0374 75.4706 21.9156 76.0595 21.9215V23.1569C75.4997 23.1453 74.94 23.2381 74.4093 23.4237C73.873 23.6325 73.3831 23.9342 72.9516 24.3112V28.0638L72.9574 28.058Z" fill="#8CF719"/>
<path d="M82.2685 27.6402L82.7059 28.5973C82.3151 28.8061 81.8954 28.9684 81.4639 29.0787C81.0382 29.1888 80.5951 29.2468 80.1518 29.2468C79.6912 29.2758 79.2306 29.2121 78.7933 29.0554C78.3618 28.8989 77.9653 28.6552 77.6329 28.3362C77.0033 27.5938 76.6942 26.6368 76.7641 25.674C76.6999 24.6821 76.9974 23.6961 77.5979 22.8957C77.8779 22.565 78.2336 22.3041 78.6359 22.13C79.0382 21.9561 79.4697 21.8807 79.907 21.9038C80.2977 21.8807 80.6825 21.9445 81.044 22.0836C81.4055 22.2229 81.7321 22.4375 82.0061 22.7159C82.5426 23.3481 82.8167 24.1601 82.7642 24.9838C82.7642 25.1171 82.7642 25.2331 82.7583 25.3201C82.7583 25.4072 82.7408 25.4883 82.7234 25.5696L82.3851 25.9582H78.0353C78.0119 26.5556 78.216 27.1414 78.6066 27.5996C78.8224 27.7911 79.0674 27.936 79.3414 28.0289C79.6155 28.1216 79.9011 28.1564 80.1869 28.1332C80.5192 28.1332 80.8516 28.0926 81.1723 28.0114C81.5454 27.9186 81.9128 27.7911 82.2626 27.6344L82.2685 27.6402ZM79.907 22.9769C79.6679 22.9595 79.4289 22.9943 79.2015 23.0755C78.974 23.1567 78.7699 23.2901 78.6009 23.4525C78.2627 23.8817 78.0703 24.4038 78.0527 24.9489H81.5805C81.6155 24.4211 81.4639 23.8991 81.149 23.4641C80.9915 23.296 80.7991 23.1624 80.5834 23.0755C80.3676 22.9885 80.1344 22.9537 79.907 22.9711V22.9769Z" fill="#8CF719"/>
<path d="M92.5089 26.6483C92.5204 27.0022 92.4564 27.356 92.3164 27.6807C92.1764 28.0056 91.9665 28.3014 91.6983 28.5335C91.0919 29.0322 90.3222 29.2874 89.5293 29.2468C89.0045 29.241 88.4797 29.1599 87.9724 29.009C87.4593 28.864 86.9636 28.6436 86.5088 28.3652L87.0919 27.327C87.4942 27.5706 87.9258 27.7678 88.3747 27.9186C88.7538 28.0404 89.1561 28.1042 89.5584 28.1042C89.9956 28.1332 90.4272 27.9998 90.7712 27.7272C91.0336 27.4778 91.191 27.1413 91.2085 26.7876C91.2261 26.428 91.1036 26.0799 90.8703 25.8073C90.4272 25.4187 89.9141 25.1229 89.3601 24.92C88.9694 24.7576 88.5963 24.5661 88.229 24.3573C88.0132 24.2297 87.8091 24.0789 87.6226 23.9107C87.3776 23.6845 87.1852 23.4119 87.0569 23.1045C86.9345 22.7855 86.8703 22.4491 86.8762 22.1127C86.8645 21.7762 86.9228 21.4398 87.0569 21.1324C87.191 20.8192 87.3893 20.5408 87.64 20.3146C88.1882 19.839 88.9054 19.5954 89.6341 19.6244C90.1181 19.6244 90.5963 19.6882 91.0628 19.8158C91.5234 19.9434 91.9724 20.129 92.3922 20.3726L91.8499 21.4109C91.4884 21.2136 91.1036 21.0512 90.7013 20.9294C90.3572 20.825 89.9956 20.767 89.6284 20.7612C89.2377 20.7381 88.8529 20.8656 88.5554 21.1208C88.3164 21.3644 88.1765 21.6892 88.1706 22.0314C88.1648 22.3737 88.2873 22.7043 88.5146 22.9595C88.9578 23.3423 89.471 23.6439 90.0249 23.8527C90.4096 24.0093 90.7829 24.1949 91.1385 24.398C91.3543 24.5255 91.5584 24.6763 91.7449 24.8446C91.9899 25.0708 92.1823 25.3433 92.3164 25.6449C92.4447 25.9581 92.5089 26.2946 92.503 26.6309L92.5089 26.6483Z" fill="#8CF719"/>
<path d="M97.7219 24.8156L100.392 29.1019H98.9346L96.8064 25.6915L95.4187 27.2517V29.1078H94.1475V19.3461H95.4187V25.7669L98.7306 22.049H100.118L97.7277 24.8156H97.7219Z" fill="#8CF719"/>
<path d="M104.095 28.0579H106.427V29.1077H101.337V28.0579H102.864V23.1104H100.719V22.0605H104.089V28.0579H104.095ZM104.404 19.6767C104.392 19.8739 104.316 20.0595 104.182 20.2104C104.048 20.3553 103.867 20.4539 103.669 20.4829C103.471 20.5119 103.267 20.4771 103.098 20.3785C102.923 20.2799 102.789 20.1233 102.719 19.9435C102.649 19.7579 102.643 19.5549 102.701 19.3693C102.765 19.1837 102.888 19.0213 103.057 18.911C103.226 18.8009 103.424 18.7545 103.623 18.7777C103.821 18.8009 104.007 18.8879 104.147 19.0271C104.235 19.1141 104.299 19.2185 104.346 19.3286C104.392 19.4389 104.41 19.5607 104.404 19.6825V19.6767Z" fill="#8CF719"/>
<path d="M109.774 28.0581H112.036V29.1079H106.141V28.0581H108.502V20.4019H106.287V19.3521H109.774V28.0581Z" fill="#8CF719"/>
<path d="M115.522 28.0581H117.429V29.1079H111.89V28.0581H114.251V20.4019H112.035V19.3521H115.522V28.0581Z" fill="#8CF719"/>
<path d="M123.745 27.153C123.757 27.4429 123.705 27.7388 123.583 28.0056C123.46 28.2724 123.279 28.5102 123.052 28.6958C122.491 29.1018 121.809 29.2991 121.116 29.2584C120.615 29.2584 120.119 29.1888 119.635 29.0554C119.174 28.9394 118.731 28.7596 118.329 28.5102L118.854 27.5183C119.214 27.733 119.6 27.9012 119.997 28.023C120.357 28.1274 120.737 28.1795 121.116 28.1795C121.478 28.2028 121.844 28.1216 122.16 27.9418C122.276 27.8606 122.363 27.7562 122.422 27.6286C122.48 27.5067 122.509 27.3676 122.498 27.2284C122.498 27.1124 122.474 26.9906 122.422 26.8862C122.369 26.7818 122.299 26.6831 122.206 26.6136C121.816 26.3641 121.378 26.1843 120.924 26.0799C120.58 25.9872 120.235 25.8711 119.903 25.7377C119.704 25.6566 119.518 25.5522 119.349 25.4303C119.115 25.2737 118.929 25.0533 118.806 24.8039C118.684 24.5429 118.626 24.2528 118.631 23.9629C118.626 23.6787 118.678 23.4002 118.801 23.145C118.918 22.8898 119.099 22.6636 119.32 22.4838C119.839 22.0836 120.485 21.8864 121.145 21.9154C121.582 21.9154 122.014 21.9676 122.434 22.0662C122.848 22.1649 123.244 22.3098 123.623 22.5071L123.157 23.5163C122.83 23.3538 122.486 23.2204 122.136 23.1276C121.809 23.0406 121.471 22.9942 121.127 22.9942C120.801 22.9769 120.474 23.058 120.2 23.2321C120.095 23.3074 120.008 23.4061 119.949 23.5163C119.891 23.6323 119.862 23.7598 119.867 23.8875C119.867 24.0035 119.891 24.1253 119.944 24.2297C119.997 24.3399 120.066 24.4327 120.159 24.5081C120.556 24.7575 120.999 24.9373 121.46 25.0417C121.804 25.1346 122.136 25.2505 122.469 25.3898C122.661 25.4768 122.848 25.5753 123.023 25.6913C123.25 25.8595 123.436 26.0742 123.565 26.3235C123.687 26.5846 123.745 26.8688 123.74 27.1587L123.745 27.153Z" fill="#8CF719"/>
<path d="M56.6597 12.8617C56.7239 13.8189 56.444 14.77 55.8668 15.5472C55.5693 15.843 55.2137 16.0809 54.823 16.2433C54.4323 16.4057 54.0126 16.4869 53.5869 16.4927C53.1612 16.4927 52.7413 16.4115 52.3507 16.2549C51.96 16.0982 51.6043 15.8663 51.3011 15.5705C50.7297 14.77 50.4557 13.8014 50.5256 12.8212C50.4614 11.8642 50.7414 10.9187 51.3186 10.1473C51.616 9.85153 51.9717 9.61951 52.3624 9.45711C52.753 9.29471 53.1729 9.2135 53.5986 9.2135C54.0241 9.2135 54.444 9.2947 54.8347 9.45131C55.2253 9.60791 55.581 9.83992 55.8842 10.1357C56.4557 10.9304 56.7297 11.899 56.6597 12.8676V12.8617ZM51.8142 12.8212C51.7676 13.4998 51.9134 14.1785 52.2458 14.7759C52.409 14.9731 52.6131 15.1296 52.8463 15.2399C53.0796 15.35 53.3362 15.4023 53.5927 15.4081C53.8493 15.4081 54.1058 15.3559 54.339 15.2456C54.5723 15.1355 54.7764 14.9788 54.9397 14.7874C55.272 14.2016 55.4236 13.5347 55.3769 12.8676C55.4236 12.1948 55.272 11.5277 54.9397 10.9361C54.7764 10.7389 54.5723 10.5823 54.3449 10.4721C54.1117 10.3619 53.8609 10.3039 53.6043 10.3039C53.3477 10.3039 53.0912 10.3561 52.858 10.4605C52.6247 10.5649 52.4149 10.7215 52.2516 10.9129C51.925 11.4987 51.7734 12.1599 51.8259 12.827L51.8142 12.8212Z" fill="#8CF719"/>
<path d="M58.2054 14.091V9.35229H59.4765V14.062C59.4474 14.4158 59.5407 14.7639 59.7564 15.0538C59.873 15.1641 60.0071 15.2452 60.1587 15.3033C60.3103 15.3613 60.4736 15.3787 60.6311 15.3613C60.9517 15.3554 61.2724 15.2859 61.5639 15.1525C61.9313 14.9958 62.2754 14.787 62.5844 14.5434V9.35229H63.8555V16.3414H62.5844V15.5004C62.2287 15.802 61.8322 16.0572 61.4123 16.266C61.0683 16.4168 60.701 16.4922 60.3278 16.4865C60.0362 16.5038 59.7389 16.4633 59.4648 16.3531C59.1908 16.2486 58.9458 16.0805 58.7476 15.8717C58.357 15.3613 58.1645 14.729 58.2112 14.091H58.2054Z" fill="#8CF719"/>
<path d="M70.7531 14.4041C70.7648 14.6942 70.7123 14.9842 70.5898 15.2452C70.4675 15.5121 70.2866 15.744 70.0593 15.9297C69.4994 16.3298 68.8173 16.5271 68.1234 16.4864C67.6219 16.4864 67.1262 16.4168 66.6423 16.2893C66.1817 16.179 65.7385 15.9934 65.3362 15.7499L65.861 14.7637C66.2225 14.9727 66.6074 15.1408 67.0039 15.2626C67.3654 15.367 67.7443 15.4192 68.1175 15.4192C68.479 15.4424 68.8464 15.3613 69.1613 15.1815C69.2721 15.1002 69.3654 14.9958 69.4237 14.874C69.482 14.7522 69.5111 14.6131 69.4994 14.4795C69.4994 14.3636 69.4762 14.2476 69.4295 14.1374C69.3771 14.033 69.307 13.9401 69.2079 13.8647C68.8173 13.6154 68.3799 13.4356 67.9251 13.337C67.5753 13.2442 67.237 13.1339 66.9047 13.0005C66.7065 12.9194 66.5199 12.815 66.3508 12.6932C66.1175 12.5365 65.931 12.3219 65.8085 12.0725C65.686 11.8115 65.6278 11.5273 65.6335 11.2431C65.6278 10.9647 65.6803 10.6863 65.8027 10.4311C65.9193 10.1759 66.1 9.95549 66.3216 9.77569C66.8406 9.38127 67.4878 9.17826 68.1467 9.21307C68.584 9.21307 69.0155 9.26527 69.4354 9.36388C69.8494 9.46248 70.2458 9.60748 70.6249 9.79888L70.1584 10.7965C69.8318 10.6341 69.4879 10.5065 69.1379 10.4137C68.8115 10.3267 68.4732 10.2861 68.1292 10.2861C67.8026 10.2687 67.4762 10.3499 67.2021 10.5239C67.0971 10.5993 67.0097 10.6921 66.9514 10.8081C66.8931 10.9241 66.8697 11.0459 66.8697 11.1735C66.8697 11.2895 66.8931 11.4055 66.9455 11.5157C66.998 11.6201 67.068 11.7129 67.1613 11.7883C67.5578 12.0377 68.001 12.2175 68.4616 12.3162C68.8056 12.409 69.1379 12.525 69.4703 12.6584C69.6627 12.7396 69.8494 12.844 70.0242 12.96C70.2517 13.1224 70.4382 13.337 70.5666 13.5864C70.689 13.8474 70.7473 14.1258 70.7414 14.41L70.7531 14.4041Z" fill="#8CF719"/>
<path d="M77.3947 14.8913L77.832 15.8426C77.4414 16.0514 77.0215 16.2081 76.59 16.3182C76.1644 16.4284 75.7212 16.4806 75.2781 16.4806C74.8175 16.5096 74.3568 16.4458 73.9194 16.295C73.488 16.1384 73.0915 15.8949 72.7592 15.5815C72.1294 14.845 71.8203 13.8996 71.8904 12.9426C71.8262 11.9565 72.1235 10.9821 72.7241 10.1875C73.004 9.86266 73.3597 9.60165 73.762 9.42765C74.1643 9.25944 74.5959 9.17825 75.0332 9.20144C75.4239 9.17825 75.8086 9.24205 76.176 9.38125C76.5375 9.52045 76.8641 9.73506 77.1382 10.0077C77.6746 10.6341 77.9486 11.4403 77.8962 12.2524C77.8962 12.3858 77.8962 12.4959 77.8903 12.5887C77.8903 12.6757 77.8728 12.7569 77.8554 12.8382L77.5171 13.2209H73.1673C73.1439 13.8125 73.348 14.3926 73.7387 14.845C73.9487 15.0364 74.1994 15.1756 74.4734 15.2684C74.7474 15.3612 75.0331 15.396 75.3189 15.3728C75.6512 15.3728 75.9836 15.3322 76.3043 15.2568C76.6775 15.164 77.0448 15.0364 77.3947 14.8856V14.8913ZM75.0332 10.2687C74.7941 10.2513 74.5551 10.2861 74.3276 10.3673C74.1003 10.4485 73.8962 10.5761 73.7271 10.7443C73.3888 11.1677 73.1964 11.6897 73.1789 12.2291H76.7066C76.7357 11.7071 76.5842 11.1851 76.2751 10.7617C76.1177 10.5935 75.9253 10.4601 75.7095 10.3731C75.4939 10.2861 75.2606 10.2513 75.0274 10.2687H75.0332Z" fill="#8CF719"/>
<path d="M115.366 10.1357C115.081 9.82251 114.724 9.57311 114.328 9.4165C113.931 9.2541 113.499 9.1903 113.075 9.2193H84.8643C84.4387 9.19609 84.013 9.2657 83.6166 9.42811C83.2258 9.59051 82.876 9.83992 82.5961 10.1531C82.0189 10.9245 81.739 11.8757 81.8031 12.827C81.7331 13.8014 82.0014 14.77 82.5786 15.5762C82.8643 15.8895 83.22 16.1389 83.6166 16.2954C84.013 16.4579 84.4446 16.5216 84.8701 16.4926H113.08C113.506 16.5159 113.931 16.4462 114.328 16.2838C114.724 16.1215 115.074 15.8721 115.348 15.5531C115.926 14.7758 116.206 13.8246 116.141 12.8676C116.211 11.899 115.943 10.9303 115.372 10.1357H115.366ZM114.421 14.7874C114.269 14.9962 114.071 15.1586 113.832 15.2688C113.599 15.3791 113.337 15.4254 113.08 15.4081H84.8701C84.6077 15.4254 84.3453 15.3791 84.1122 15.2688C83.8731 15.1586 83.6748 14.9905 83.5232 14.7816C83.1909 14.1842 83.0451 13.5056 83.0918 12.827C83.0393 12.1599 83.1909 11.4988 83.5232 10.9129C83.6748 10.7041 83.8789 10.5417 84.118 10.4315C84.357 10.3213 84.6136 10.2807 84.876 10.2981H113.086C113.349 10.2807 113.605 10.3329 113.838 10.4431C114.071 10.5533 114.276 10.7215 114.421 10.9361C114.754 11.5278 114.905 12.1948 114.858 12.8676C114.905 13.5346 114.754 14.2016 114.421 14.7816V14.7874Z" fill="#8CF719"/>
<path d="M120.567 15.3037H123.034V16.3477H117.285V15.3037H119.314V10.826H117.46V9.92697L119.314 9.78197V9.26575C119.278 8.90034 119.331 8.52913 119.459 8.18112C119.587 7.83312 119.792 7.51992 120.06 7.25891C120.328 6.9979 120.649 6.7949 121.004 6.67309C121.361 6.54549 121.739 6.49909 122.112 6.53389C122.398 6.53389 122.684 6.56289 122.964 6.6151C123.22 6.6615 123.471 6.73109 123.716 6.82389L123.378 7.82152C123.168 7.74032 122.957 7.67651 122.736 7.63591C122.533 7.60111 122.317 7.57791 122.107 7.57791C121.891 7.56052 121.675 7.58371 121.471 7.65332C121.267 7.72292 121.081 7.83892 120.923 7.98392C120.649 8.35513 120.521 8.81334 120.562 9.27736V9.78777H123.319V10.8318H120.567V15.3153V15.3037Z" fill="#8CF719"/>
<path d="M43.4124 12.2064V16.4869H42.1121V7.24146H43.4124V12.2064ZM47.4416 11.0927V7.24146H48.7359V16.4869H47.4416V11.0927Z" fill="#8CF719"/>
<path d="M48.3736 12.1886C47.5105 12.7802 46.4669 13.0644 45.4173 12.989C44.3793 13.0529 43.3531 12.7628 42.5134 12.1654L43.3414 11.2084C43.9712 11.5564 44.6942 11.713 45.4173 11.6608C46.1461 11.713 46.8692 11.5506 47.5047 11.2084L48.3677 12.1886H48.3736Z" fill="#8CF719"/>
</g>
</g>
<defs>
<clipPath id="clip0_466_1103">
<rect width="123.615" height="35.9609" fill="white" transform="translate(0.128906 0.258423)"/>
</clipPath>
</defs>
</svg>
