<svg width="72" height="51" viewBox="0 0 72 51" fill="none" xmlns="http://www.w3.org/2000/svg">
<g clip-path="url(#clip0_466_841)">
<path d="M18.8745 12.1719V30.8042C18.8745 32.4539 18.9149 33.4505 18.9889 34.4134H18.9149C18.4798 33.2639 17.9482 32.1534 17.3257 31.0937L6.34975 12.1719H1.32635V39.4099H5.23866V20.7776C5.23866 19.1278 5.19827 18.1245 5.1242 17.1683H5.205C5.638 18.3153 6.16736 19.4236 6.78741 20.4813L17.7634 39.4099H22.7128V12.1719H18.8745Z" fill="url(#paint0_linear_466_841)"/>
<path d="M63.4793 21.2886C60.2471 21.2886 57.9374 22.7903 56.7455 25.0123C56.7455 19.76 58.5704 15.1811 62.907 15.1811C65.661 15.1811 66.7587 16.777 67.3378 19.383L71.378 18.5749C70.4352 14.0768 67.5802 11.8816 62.954 11.8816C57.1496 11.8816 52.7996 16.3595 52.7996 26.3928C52.7996 35.2948 56.4223 39.6919 62.6713 39.6919C67.8293 39.6919 71.6944 36.1567 71.6944 30.3321C71.6944 25.78 69.2771 21.2886 63.4793 21.2886ZM62.6779 36.4059C59.4794 36.4059 57.2573 33.4498 56.8735 29.5307C57.8498 26.1639 60.0047 24.5208 62.5568 24.5208C65.8361 24.5208 67.6812 26.9518 67.6812 30.4061C67.6812 34.1096 65.5735 36.4059 62.6779 36.4059Z" fill="url(#paint1_linear_466_841)"/>
<path d="M35.0573 35.8806C37.2636 34.3374 39.3584 32.6409 41.3264 30.8034C42.8079 29.3153 47.0097 25.504 47.0097 20.0699C47.0097 14.4539 43.36 11.8816 38.4309 11.8816C32.4514 11.8816 29.4953 15.5785 29.4953 19.8005C29.4935 20.5272 29.5839 21.2513 29.7645 21.9552L33.8587 22.3526C33.6872 21.5831 33.5991 20.7975 33.596 20.0092C33.596 16.8444 35.6835 15.3293 38.3096 15.3293C40.9359 15.3293 42.7404 16.7636 42.7404 20.2112C42.7404 23.6589 41.0368 26.0966 38.4376 28.7025C35.5687 31.4103 32.5106 33.9104 29.2865 36.1837V39.4092H47.3261V35.8806H35.0573Z" fill="url(#paint2_linear_466_841)"/>
<path d="M22.9766 46.467V49.9956H1.09186V46.467H22.9766Z" fill="url(#paint3_linear_466_841)"/>
<path d="M22.9766 1.58643V5.1149H1.09186V1.58643H22.9766Z" fill="url(#paint4_linear_466_841)"/>
<path d="M18.8745 12.1719V30.8042C18.8745 32.4539 18.9149 33.4505 18.9889 34.4134H18.9149C18.4798 33.2639 17.9482 32.1534 17.3257 31.0937L6.34975 12.1719H1.32635V39.4099H5.23866V20.7776C5.23866 19.1278 5.19827 18.1245 5.1242 17.1683H5.205C5.638 18.3153 6.16736 19.4236 6.78741 20.4813L17.7634 39.4099H22.7128V12.1719H18.8745Z" fill="url(#paint5_linear_466_841)"/>
</g>
<defs>
<linearGradient id="paint0_linear_466_841" x1="1.32635" y1="25.7909" x2="22.7128" y2="25.7909" gradientUnits="userSpaceOnUse">
<stop stop-color="#83E617"/>
<stop offset="1" stop-color="#83E617" stop-opacity="0.4"/>
</linearGradient>
<linearGradient id="paint1_linear_466_841" x1="52.7996" y1="25.7867" x2="71.6944" y2="25.7867" gradientUnits="userSpaceOnUse">
<stop stop-color="#83E617"/>
<stop offset="1" stop-color="#83E617" stop-opacity="0.4"/>
</linearGradient>
<linearGradient id="paint2_linear_466_841" x1="29.2865" y1="25.6454" x2="47.3261" y2="25.6454" gradientUnits="userSpaceOnUse">
<stop stop-color="#83E617"/>
<stop offset="1" stop-color="#83E617" stop-opacity="0.4"/>
</linearGradient>
<linearGradient id="paint3_linear_466_841" x1="1.09186" y1="48.2313" x2="22.9766" y2="48.2313" gradientUnits="userSpaceOnUse">
<stop stop-color="#83E617"/>
<stop offset="1" stop-color="#83E617" stop-opacity="0.4"/>
</linearGradient>
<linearGradient id="paint4_linear_466_841" x1="1.09186" y1="3.35066" x2="22.9766" y2="3.35066" gradientUnits="userSpaceOnUse">
<stop stop-color="#83E617"/>
<stop offset="1" stop-color="#83E617" stop-opacity="0.4"/>
</linearGradient>
<linearGradient id="paint5_linear_466_841" x1="1.32635" y1="25.7909" x2="22.7128" y2="25.7909" gradientUnits="userSpaceOnUse">
<stop stop-color="#83E617"/>
<stop offset="1" stop-color="#83E617" stop-opacity="0.4"/>
</linearGradient>
<clipPath id="clip0_466_841">
<rect width="71.9217" height="49.4462" fill="white" transform="translate(-0.00012207 0.658691)"/>
</clipPath>
</defs>
</svg>
