<svg width="140" height="23" viewBox="0 0 140 23" fill="none" xmlns="http://www.w3.org/2000/svg">
<g clip-path="url(#clip0_466_968)">
<path d="M12.43 1.17545C12.9474 1.33067 13.4165 1.57901 13.8442 1.91013C14.2512 2.22402 14.6616 2.52755 15.0652 2.84833C15.9138 3.52093 16.8933 3.94519 17.9453 4.08316C18.9526 4.21422 19.977 4.13145 20.9496 3.73479C21.5567 3.48644 22.1327 3.18291 22.6501 2.7759C23.0743 2.44132 23.5055 2.11709 23.9367 1.79287C24.461 1.4031 25.0439 1.10991 25.6854 0.992641C26.2856 0.882266 26.8824 0.820179 27.5135 0.920207C28.4 1.06163 29.183 1.36861 29.8969 1.89979C30.5041 2.35164 31.118 2.78969 31.7216 3.24499C32.3493 3.71409 33.084 3.97623 33.8291 4.07971C35.2709 4.27976 36.6713 4.07971 37.9199 3.24844C38.558 2.82074 39.1857 2.37578 39.8066 1.92048C40.3998 1.48588 41.0311 1.12371 41.7589 0.99954C42.3212 0.902961 42.8764 0.85812 43.4663 0.916758C44.5079 1.02368 45.3633 1.45484 46.1704 2.0619C46.6568 2.42752 47.1467 2.78624 47.6364 3.14151C48.5505 3.80033 49.5714 4.1211 50.6994 4.07971C50.7372 4.07971 50.7787 4.09006 50.8752 4.10386C50.9166 4.70747 50.9132 5.31799 50.9304 5.96989C50.2613 5.98024 49.6335 5.98369 49.0023 5.83192C47.8571 5.55598 46.8775 4.97307 45.9566 4.27286C45.591 3.99348 45.2288 3.71409 44.8598 3.44161C43.9837 2.78279 43.0144 2.59309 41.9693 2.91732C41.6416 3.01735 41.3381 3.20705 41.0484 3.40021C40.2136 3.94864 39.4065 4.53501 38.5683 5.07309C37.9337 5.4801 37.2128 5.6974 36.4884 5.9078C35.5882 6.16649 34.6742 6.11476 33.7739 6.03198C33.0875 5.96989 32.4115 5.76293 31.7664 5.4801C31.1352 5.20416 30.5765 4.82819 30.0211 4.43498C29.5141 4.07626 29.0174 3.70374 28.5104 3.34502C27.4343 2.57929 26.0648 2.59309 25.0094 3.38297C24.599 3.68995 24.1885 3.99693 23.7884 4.3177C22.6811 5.20416 21.4291 5.74915 20.0322 5.97679C19.1802 6.11476 18.3282 6.08717 17.4728 5.98024C16.0966 5.80777 14.9066 5.22831 13.82 4.40049C13.413 4.09006 13.0026 3.77963 12.5991 3.46574C11.5056 2.61724 10.0431 2.58964 8.92559 3.43471C8.49444 3.75893 8.05638 4.07626 7.63214 4.41084C6.58701 5.23865 5.39357 5.72155 4.08977 5.96299C3.39646 6.09062 2.69972 6.05957 2.00297 6.05613C1.37867 6.05268 0.806088 5.86986 0.188675 5.67326C0.29905 5.04204 0.602583 4.49017 0.761248 3.86585C0.878522 3.89345 0.964753 3.91414 1.05443 3.93829C3.05499 4.45223 4.88309 4.10041 6.53527 2.85523C6.94573 2.54825 7.34584 2.22747 7.7563 1.92048C9.1498 0.875367 10.6813 0.620123 12.3437 1.10991C12.3714 1.13061 12.399 1.15475 12.43 1.17545Z" fill="url(#paint0_linear_466_968)"/>
<path d="M11.3785 17.376C12.1821 17.4001 12.8927 17.6967 13.5446 18.1382C13.9551 18.4176 14.3483 18.7281 14.738 19.0385C15.2036 19.4076 15.6969 19.7352 16.2384 19.9836C16.266 20.0043 16.2937 20.0284 16.3212 20.0491C16.5972 20.1354 16.8766 20.2181 17.1525 20.3113C17.625 20.47 18.1149 20.5182 18.6081 20.5423C19.6429 20.5907 20.6258 20.3665 21.5331 19.8939C22.109 19.5939 22.6264 19.1834 23.1646 18.8143C23.4198 18.6384 23.6578 18.4383 23.9026 18.2521C24.7994 17.5725 25.817 17.269 26.9345 17.2966C27.9176 17.3208 28.8316 17.5864 29.6387 18.1624C30.3078 18.6418 30.9494 19.1523 31.6186 19.6284C31.9015 19.8284 32.2222 19.9767 32.5257 20.1491C32.5534 20.1698 32.5809 20.194 32.6085 20.2146C33.6398 20.6252 34.716 20.6942 35.7956 20.5423C36.5613 20.432 37.2822 20.1319 37.9273 19.7007C38.5998 19.2524 39.2552 18.7763 39.9105 18.3038C40.4866 17.8899 41.104 17.5898 41.8042 17.445C42.801 17.238 43.753 17.3173 44.7222 17.683C45.5017 17.9796 46.0985 18.5108 46.7642 18.9626C46.9987 19.1213 47.2161 19.3041 47.4436 19.4731C47.8645 19.7871 48.3094 20.0561 48.8096 20.232C48.8372 20.2526 48.8682 20.2768 48.8958 20.2975C49.5408 20.4045 50.1859 20.5113 50.886 20.6286V22.436C50.1514 22.4843 49.4235 22.405 48.7027 22.2118C47.8438 21.9807 47.0884 21.5564 46.3745 21.0425C45.9468 20.7355 45.5328 20.4078 45.1154 20.0871C44.7222 19.7871 44.3014 19.5662 43.8254 19.3869C43.1148 19.1213 42.4561 19.1765 41.7973 19.4282C41.4523 19.5594 41.135 19.7766 40.8349 19.9939C40.0623 20.5596 39.2966 21.1357 38.448 21.5909C37.3684 22.1705 36.2303 22.5222 34.9953 22.5084C34.5643 22.505 34.1296 22.5222 33.7019 22.4877C33.4191 22.4636 33.1363 22.3774 32.8603 22.298C31.7083 21.967 30.6977 21.3736 29.7559 20.6458C29.4801 20.432 29.1937 20.2251 28.9144 20.0146C28.4729 19.6836 28.0072 19.449 27.4519 19.3041C26.907 19.1627 26.4171 19.1972 25.9204 19.3524C25.6065 19.4524 25.31 19.6284 25.0374 19.8181C24.5925 20.125 24.1717 20.463 23.744 20.7942C22.716 21.5909 21.5606 22.0911 20.2878 22.3602C19.491 22.5292 18.6978 22.5015 17.8975 22.4395C16.4109 22.3222 15.1106 21.7393 13.9309 20.8528C13.4894 20.5217 13.0513 20.1803 12.6063 19.8526C12.0269 19.4282 11.375 19.2282 10.6541 19.2455C10.0712 19.2592 9.54002 19.4455 9.07092 19.7904C8.58112 20.1491 8.11892 20.5458 7.61533 20.8839C7.07036 21.2529 6.50468 21.5978 5.92521 21.9013C5.61133 22.067 5.24226 22.1221 4.90078 22.236C4.20404 22.4635 3.48315 22.4809 2.76226 22.5222C1.89305 22.567 1.07213 22.3567 0.244315 22.1463C0.22017 21.8428 0.571993 20.6631 0.768599 20.3561C1.33083 20.439 1.8827 20.5596 2.43803 20.5872C3.17617 20.6252 3.89016 20.4975 4.61105 20.2836C5.61478 19.9905 6.40811 19.3972 7.19798 18.773C7.85333 18.2556 8.52593 17.7554 9.34685 17.5277C9.62624 17.4484 9.93668 17.4725 10.2126 17.3863C10.5748 17.276 10.93 17.3173 11.2922 17.3208C11.3233 17.3415 11.3543 17.3622 11.3854 17.3828L11.3785 17.376Z" fill="url(#paint1_linear_466_968)"/>
<path d="M27.8485 11.0535C27.5035 10.919 27.1552 10.7879 26.7723 10.8293C26.6378 10.7224 26.5171 10.681 26.4481 10.8948C25.7513 10.9052 25.2064 11.2501 24.6752 11.6571C24.1647 12.0469 23.6404 12.4194 23.1231 12.7989C23.1024 12.8161 23.0782 12.8334 23.0575 12.854C22.4712 13.2541 21.8226 13.5231 21.15 13.7405C20.8431 13.8405 20.5223 13.906 20.2084 13.9888C20.0946 13.8646 20.0671 13.9508 20.0463 14.0543C19.2427 14.0578 18.4321 14.1165 17.6353 14.0509C17.0766 14.0026 16.535 13.7818 15.9831 13.6405C15.9073 13.6198 15.8313 13.5956 15.752 13.5749C15.7245 13.5543 15.6934 13.5301 15.6658 13.5094C14.7345 13.1748 13.9756 12.5574 13.203 11.9676C13.0547 11.8538 12.903 11.7434 12.7546 11.6295C12.7408 11.4847 12.6408 11.4709 12.527 11.4743L12.4304 11.4019C12.4235 11.2363 12.3096 11.2294 12.1855 11.2363C11.9164 11.1501 11.6474 11.0639 11.3784 10.9776C11.3542 10.8431 11.2715 10.8224 11.1576 10.8569C10.6402 10.8086 10.1332 10.8776 9.65376 11.0777C9.37783 11.1915 9.12259 11.3502 8.8639 11.5019C8.69488 11.6019 8.53966 11.7226 8.3741 11.8365L8.32236 11.8813C8.20508 11.9745 8.08782 12.0676 7.97054 12.1607C7.95329 12.1745 7.93605 12.1918 7.9188 12.2055C7.58078 12.4435 7.2393 12.6781 6.90128 12.9161C6.77365 13.0057 6.64948 13.1058 6.51152 13.1817C5.78718 13.5886 4.99729 13.806 4.19363 13.9957C3.4348 14.175 2.66907 14.1302 1.90332 14.0923C1.83435 13.975 1.75156 13.9543 1.65498 14.0578C1.61704 14.0578 1.5722 14.0716 1.53771 14.0647C1.09276 13.9578 0.647806 13.8473 0.182159 13.7301C0.216652 13.6231 0.233898 13.5646 0.254593 13.5025C0.282187 13.4335 0.309781 13.3611 0.337375 13.2921C0.4512 12.8644 0.565024 12.4332 0.678849 12.0021C1.00653 11.871 1.27557 12.1055 1.57565 12.1158C1.62739 12.14 1.68258 12.1676 1.73432 12.1918C2.41726 12.1676 3.10366 12.1538 3.78662 12.1158C4.00391 12.1021 4.22121 12.0366 4.43507 11.9779C5.28703 11.7537 6.02517 11.3122 6.70467 10.7638C7.13582 10.4189 7.57043 10.0739 8.02918 9.77039C8.33616 9.56689 8.68798 9.43582 9.02256 9.2737C9.05015 9.253 9.07774 9.22887 9.10534 9.20817C9.15708 9.20472 9.21227 9.19783 9.26401 9.19438C9.29159 9.17368 9.31919 9.14953 9.34678 9.12884C10.0884 8.92188 10.8472 8.80806 11.606 8.98052C12.3338 9.14609 13.0444 9.37028 13.6549 9.83248C14.093 10.1671 14.531 10.5051 14.9725 10.8328C15.3036 11.0777 15.6451 11.3122 15.9865 11.5433C16.0245 11.5709 16.09 11.5537 16.1452 11.5571C16.1728 11.5778 16.2004 11.6019 16.228 11.6226C16.6799 11.7848 17.1318 11.9503 17.587 12.109C17.6595 12.1331 17.7457 12.1228 17.825 12.1228C18.3459 12.1296 18.8666 12.1331 19.3875 12.1366C19.4565 12.2366 19.5117 12.2331 19.5497 12.1158C19.898 12.0366 20.2498 11.9573 20.5982 11.8779C20.6258 11.8538 20.6568 11.8331 20.6845 11.8089C21.2535 11.7192 21.7399 11.4467 22.1986 11.1225C22.6712 10.7845 23.1334 10.4361 23.5921 10.0808C24.244 9.57724 24.9408 9.17368 25.7687 9.02536C26.4343 8.90808 27.0793 8.84945 27.7589 9.00811C28.6315 9.21162 29.4007 9.59104 30.1112 10.1222C30.5975 10.4844 31.0839 10.85 31.5736 11.2053C32.4291 11.8296 33.3983 12.1228 34.4469 12.1883C35.3782 12.2435 36.2681 12.0676 37.127 11.7158C37.158 11.6986 37.1856 11.6778 37.2167 11.6606C37.7996 11.3019 38.386 10.9535 38.9585 10.581C39.3517 10.3257 39.7105 10.0118 40.1037 9.7566C41.1523 9.07365 42.2939 8.76322 43.546 8.94947C43.7909 8.98742 44.0323 9.0495 44.2773 9.10124C44.3289 9.13229 44.3806 9.16333 44.4325 9.19438C44.46 9.19438 44.4876 9.20127 44.5152 9.20472C44.5704 9.21162 44.6221 9.22197 44.6773 9.22887C44.7912 9.2944 44.905 9.36338 45.0222 9.42892C45.0982 9.45651 45.1705 9.48411 45.2464 9.50825C45.7879 9.88077 46.326 10.2533 46.871 10.6224C47.4056 10.9811 47.93 11.3536 48.4852 11.6744C48.7474 11.8261 49.0751 11.871 49.3718 11.9641C49.4476 12.0918 49.5545 12.147 49.7029 12.109C50.0547 12.1193 50.4066 12.1263 50.7549 12.1366C50.7859 12.1573 50.817 12.1815 50.848 12.2021C50.8791 12.7885 50.9135 13.3783 50.948 13.9888C50.2824 14.106 49.6753 13.9508 49.0683 13.8957C49.0303 13.7611 48.9371 13.7266 48.8096 13.7543C48.5164 13.7888 48.2507 13.7025 47.999 13.5646C47.9713 13.5438 47.9438 13.5198 47.9127 13.499C47.754 13.4438 47.5713 13.4163 47.4368 13.3231C46.7641 12.8644 46.1053 12.3883 45.4396 11.9193C45.105 11.6847 44.7705 11.4502 44.4358 11.2191C44.4186 11.1259 44.4014 11.0259 44.2738 11.1328C44.0806 11.0639 43.8874 10.9914 43.6909 10.9293C43.6184 10.9052 43.5357 10.9052 43.4597 10.8914C43.4252 10.7224 43.3425 10.7017 43.2183 10.8155C43.001 10.8155 42.7836 10.819 42.5664 10.8224C42.4491 10.7017 42.4249 10.7914 42.4043 10.8914C41.811 10.8811 41.3453 11.1915 40.9108 11.533C40.1899 12.1021 39.4551 12.647 38.6584 13.1058C38.041 13.4611 37.3926 13.7301 36.7027 13.9095C35.8472 14.1337 34.985 14.1405 34.1089 14.0957C33.5535 14.0647 33.0224 13.937 32.4981 13.7991C31.9186 13.6473 31.3771 13.3714 30.8769 13.0402C29.987 12.447 29.1109 11.8296 28.2314 11.2225C28.1658 11.0225 28.0416 10.9569 27.8451 11.0501L27.8485 11.0535Z" fill="url(#paint2_linear_466_968)"/>
<path d="M70.5366 12.2882C70.478 12.5055 70.4193 12.7227 70.3607 12.9366C70.3434 12.9608 70.3297 12.9884 70.3124 13.0125C70.309 13.0711 70.302 13.1263 70.2985 13.185C70.271 13.2368 70.24 13.2885 70.2123 13.3402C70.2089 13.4195 70.202 13.4988 70.1985 13.5782C70.1192 13.63 70.0398 13.6852 69.9605 13.7368C69.7985 13.2195 69.6329 12.7056 69.4708 12.1847C69.1362 11.0913 68.7982 10.0013 68.4705 8.90447C68.2532 8.18703 68.0531 7.46959 67.8358 6.75215C67.5702 5.88294 67.2977 5.01718 67.0287 4.14797C66.8942 3.71337 66.7735 3.27532 66.639 2.84071C66.5561 2.57166 66.4803 2.30263 66.3699 2.04394C66.2113 1.67832 66.0422 1.3058 65.5283 1.23337C65.6249 1.14024 65.6525 1.0954 65.68 1.0954C66.5423 1.09195 67.4047 1.09195 68.267 1.0954C68.2946 1.0954 68.3188 1.14368 68.3843 1.20232C68.2463 1.26786 68.1325 1.32305 68.0186 1.37823C68.0014 1.39548 67.9841 1.41273 67.9669 1.42997C67.7531 1.73006 67.7427 2.04739 67.8599 2.38541C67.9151 2.54753 67.9393 2.72343 67.9773 2.89245C67.9945 2.91315 68.0083 2.93729 68.0256 2.95799C68.1186 3.28566 68.2083 3.61679 68.3015 3.94447C68.3188 3.96861 68.336 3.98931 68.3498 4.01345C68.4395 4.34113 68.5326 4.6688 68.6223 4.99993L68.6705 5.07582C68.7327 5.29311 68.7912 5.50697 68.8534 5.72427C68.881 5.77601 68.9051 5.82775 68.9327 5.87949C68.9362 5.93813 68.9396 5.99332 68.9465 6.05195C68.9637 6.0761 68.9775 6.10368 68.9947 6.12783C69.0707 6.34514 69.1466 6.55899 69.2189 6.77629C69.1327 6.88666 69.2017 6.9453 69.2983 6.99014C69.3708 7.29712 69.4432 7.60755 69.5156 7.91454C69.5329 7.93524 69.5466 7.95938 69.5639 7.98008C69.6571 8.30775 69.7468 8.63888 69.8398 8.96656C69.8571 8.98725 69.8708 9.0114 69.8881 9.03209C70.0123 9.42186 70.14 9.80817 70.2848 10.26C70.3675 10.1531 70.4297 10.1082 70.4504 10.0462C70.6539 9.43565 70.8504 8.82513 71.0506 8.21462C71.3126 7.41785 71.6058 6.63142 71.8438 5.82775C72.1509 4.79988 72.4889 3.78235 72.8406 2.76828C73.0063 2.28883 73.1408 1.7956 73.2925 1.3127C73.3202 1.22647 73.3615 1.14368 73.434 0.967773C74.4308 4.15142 75.4 7.25228 76.3968 10.4428C76.5935 9.81852 76.7625 9.28733 76.9315 8.75616C77.0971 8.22497 77.2696 7.69723 77.4247 7.16261C77.5938 6.59003 77.7455 6.01056 77.9145 5.43798C77.9731 5.23793 78.0732 5.05512 78.1387 4.85852C78.325 4.29974 78.5009 3.73752 78.6767 3.17184C78.7802 2.83381 78.8803 2.49579 78.9734 2.15777C79.0941 1.73351 79.0148 1.5369 78.6354 1.27131C78.6044 1.25061 78.5837 1.21612 78.5422 1.16783C78.7734 1.01606 79.0183 1.09885 79.2425 1.08505C79.484 1.07125 79.7288 1.07125 79.9702 1.08505C80.1979 1.0954 80.4394 1.02986 80.6843 1.15403C80.6394 1.20922 80.6221 1.25406 80.5946 1.26096C80.084 1.39893 79.822 1.768 79.677 2.24054C79.3701 3.23737 79.0734 4.23765 78.763 5.23793C78.4319 6.31064 78.0766 7.37646 77.7524 8.45262C77.4351 9.50464 77.1454 10.567 76.8384 11.6225C76.7728 11.8467 76.6832 12.064 76.6038 12.2847C76.5865 12.3089 76.5728 12.3365 76.5555 12.3606L76.5452 12.5331C76.5175 12.5848 76.49 12.6366 76.4623 12.6883C76.4278 12.8228 76.3933 12.9573 76.359 13.0918C76.3417 13.1194 76.3245 13.1436 76.3106 13.1711C76.3072 13.2263 76.3003 13.285 76.2968 13.3402C76.2382 13.4782 76.1795 13.6195 76.1209 13.7575C76.0658 13.6885 75.9829 13.63 75.9588 13.5506C75.7104 12.7986 75.469 12.0433 75.231 11.2879C74.955 10.4049 74.693 9.51844 74.4136 8.63888C74.2479 8.12494 74.0444 7.62481 73.8824 7.10742C73.6719 6.43482 73.4892 5.75531 73.2856 5.08271C73.2477 4.95164 73.1718 4.83092 73.0925 4.66191C72.9959 4.76884 72.92 4.81713 72.8993 4.88266C72.7544 5.33795 72.6199 5.80015 72.4786 6.2589C72.206 7.13846 71.9404 8.01801 71.6576 8.89412C71.3748 9.77368 71.0746 10.6463 70.7849 11.5224C70.7711 11.5604 70.7849 11.6018 70.7849 11.6432C70.7608 11.6949 70.7332 11.7501 70.7091 11.8018C70.7022 11.8812 70.6987 11.9605 70.6918 12.0398C70.6435 12.1227 70.5952 12.2054 70.5469 12.2882H70.5366ZM70.2675 10.1634C70.2468 10.1738 70.2297 10.1807 70.2089 10.191C70.2297 10.2152 70.2503 10.2428 70.2745 10.2669C70.2882 10.2945 70.3055 10.3221 70.3193 10.3532C70.3365 10.3394 70.3572 10.329 70.3745 10.3152C70.3365 10.2635 70.302 10.2152 70.2675 10.1634ZM73.1166 4.56188C73.1166 4.56188 73.0856 4.54808 73.0718 4.53773C73.0373 4.58257 73.0028 4.62741 72.9683 4.67225C72.9993 4.6895 73.0304 4.70675 73.0615 4.72744C73.0786 4.67225 73.0993 4.61706 73.1166 4.56188Z" fill="url(#paint3_linear_466_968)"/>
<path d="M129.989 2.32357C129.996 1.71996 129.857 1.49231 129.267 1.16463C129.582 1.01631 129.889 1.10254 130.182 1.08875C130.492 1.0715 130.802 1.07495 131.114 1.08875C131.409 1.10254 131.714 1.03011 132.066 1.16463C131.976 1.22327 131.937 1.26466 131.896 1.27156C131.651 1.31295 131.517 1.48196 131.451 1.69581C131.382 1.91311 131.32 2.14077 131.317 2.36496C131.302 3.72742 131.309 5.08986 131.309 6.45576C131.309 6.5213 131.324 6.58338 131.331 6.66616H137.511C137.518 6.53165 137.533 6.41437 137.533 6.2971C137.533 5.01399 137.533 3.73432 137.533 2.4512C137.533 2.37186 137.536 2.28909 137.528 2.20975C137.477 1.74755 137.328 1.34744 136.805 1.17843C137.101 1.03701 137.405 1.10254 137.698 1.0922C138.008 1.0784 138.318 1.0853 138.63 1.0922C138.93 1.0991 139.233 1.06115 139.536 1.12324C139.515 1.19567 139.512 1.24051 139.502 1.24396C139.008 1.35089 138.918 1.751 138.846 2.15801C138.822 2.30287 138.833 2.45465 138.833 2.60297C138.833 6.00391 138.833 9.40486 138.826 12.8058C138.826 13.0059 138.857 13.1921 138.998 13.3439C139.05 13.4198 139.102 13.4956 139.153 13.5716C139.198 13.782 139.385 13.7371 139.543 13.813C139.488 13.844 139.433 13.9027 139.378 13.9027C138.546 13.9027 137.715 13.8958 136.888 13.8923C136.884 13.8406 136.876 13.7888 136.873 13.7406C137.401 13.5474 137.505 13.099 137.528 12.6195C137.55 12.2298 137.533 11.8366 137.533 11.4468C137.533 10.2327 137.533 9.02199 137.533 7.80786C137.533 7.6768 137.533 7.54227 137.533 7.38705H131.309C131.309 7.52847 131.309 7.6699 131.309 7.81476C131.309 9.37726 131.309 10.9432 131.309 12.5057C131.309 12.7402 131.279 12.9679 131.372 13.2094C131.486 13.5026 131.644 13.6819 131.948 13.7371C131.941 13.7888 131.937 13.844 131.931 13.8958C131.099 13.92 130.272 13.913 129.44 13.9027C129.427 13.8716 129.412 13.8406 129.399 13.8095C129.547 13.6474 129.744 13.506 129.834 13.3163C129.934 13.1094 129.937 12.8541 129.982 12.623C129.989 12.516 129.999 12.4092 129.999 12.3022C129.999 9.08753 129.999 5.87284 129.999 2.65816C129.999 2.55123 129.989 2.4443 129.982 2.33737L129.989 2.32357Z" fill="url(#paint4_linear_466_968)"/>
<path d="M96.0467 13.7507C96.464 13.5783 96.633 13.2368 96.6848 12.8194C96.7055 12.6469 96.6986 12.4711 96.6986 12.2952C96.6986 9.046 96.6986 5.79682 96.6986 2.54764C96.6986 2.32343 96.6607 2.09579 96.6124 1.87848C96.5469 1.56805 96.3778 1.3404 96.0467 1.26452C96.0156 1.25762 95.9915 1.21968 95.9294 1.16449C96.026 1.13345 96.0915 1.09206 96.1605 1.09206C97.2815 1.09206 98.3991 1.07826 99.52 1.10241C100.131 1.1162 100.724 1.26452 101.3 1.48527C102.455 1.92677 103.166 3.15815 102.956 4.37573C102.8 5.26909 102.317 5.94859 101.569 6.44873C101.434 6.5384 101.296 6.62119 101.158 6.71087C101.138 6.71777 101.114 6.72122 101.093 6.72811C101.114 6.74881 101.134 6.76951 101.155 6.78675C101.21 6.80745 101.265 6.82815 101.321 6.84883C101.945 7.05579 102.521 7.33863 102.962 7.83877C103.428 8.36306 103.745 8.94942 103.756 9.67376C103.759 9.97729 103.801 10.2808 103.825 10.5878C103.804 10.643 103.783 10.6982 103.763 10.7534C103.773 11.0673 103.745 11.3742 103.587 11.6571C103.569 11.6778 103.549 11.702 103.532 11.7226C103.366 12.0124 103.2 12.3021 103.035 12.5918C102.938 12.6849 102.842 12.7781 102.745 12.8713C101.935 13.5783 100.951 13.8439 99.9132 13.8819C98.6646 13.9267 97.4126 13.8991 96.164 13.8991C96.1122 13.8991 96.064 13.8715 96.0122 13.8577C96.026 13.8232 96.0398 13.7887 96.0536 13.7542L96.0467 13.7507ZM100.013 13.2437C100.089 13.2058 100.162 13.1643 100.238 13.1265C100.513 13.0506 100.789 12.9781 101.065 12.9023C101.21 12.9713 101.196 12.8436 101.227 12.7711C101.269 12.7678 101.317 12.7746 101.345 12.7539C102.276 12.1055 102.642 11.2087 102.466 10.098C102.407 9.73585 102.31 9.36678 102.166 9.0322C101.886 8.3872 101.452 7.88361 100.782 7.57663C100.42 7.41106 100.051 7.31793 99.6787 7.28689C99.1338 7.2386 98.5854 7.27309 98.0232 7.27309V13.2437H100.013ZM98.0472 1.73707C97.9713 2.23375 97.9887 6.31076 98.068 6.61084C98.7612 6.61084 99.4683 6.67638 100.148 6.45908C100.931 6.21073 101.476 5.72093 101.655 4.87588C101.728 4.53784 101.679 4.22051 101.645 3.88594C101.576 3.21334 101.324 2.65111 100.769 2.25445C99.9409 1.65773 98.9923 1.68878 98.0472 1.73707Z" fill="url(#paint5_linear_466_968)"/>
<path d="M83.9089 7.42839C83.9089 9.31167 83.9056 11.1949 83.9021 13.0783C83.9021 13.1024 83.9193 13.1265 83.94 13.1851C84.0401 13.1921 84.1573 13.2128 84.2711 13.2128C85.4956 13.2128 86.7201 13.2128 87.9445 13.2128C88.8793 13.2128 89.4036 12.7541 89.5692 11.802C89.576 11.771 89.614 11.7433 89.6347 11.7123C89.6864 11.7123 89.7382 11.7193 89.7934 11.7227V13.875C89.6968 13.8854 89.6175 13.8992 89.5415 13.8992C87.0236 13.8992 84.5057 13.8992 81.9877 13.8992C81.9464 13.8992 81.9084 13.8922 81.867 13.8888C81.8429 13.8682 81.8222 13.8474 81.798 13.8233C82.3534 13.5646 82.5948 13.1679 82.5948 12.4884C82.5948 9.15645 82.5948 5.82104 82.5948 2.48907C82.5948 2.34076 82.6016 2.18554 82.5638 2.04757C82.4568 1.66471 82.3016 1.30944 81.8325 1.23356C81.936 1.0197 82.0877 1.09214 82.2084 1.09214C83.3157 1.08524 84.4228 1.08869 85.5301 1.08869C86.6511 1.08869 87.7721 1.08869 88.8931 1.08869C89.0241 1.08869 89.1553 1.09903 89.3035 1.10593V2.91333C89.2138 2.84779 89.138 2.8202 89.1104 2.76502C89.0311 2.6029 89.0001 2.40284 88.8896 2.26833C88.7483 2.09931 88.5586 1.9648 88.3654 1.84752C88.2584 1.78198 88.1067 1.76819 87.9722 1.76819C86.6373 1.76129 85.299 1.76819 83.9676 1.76819C83.8814 2.05792 83.8641 6.16942 83.9434 6.66266C83.9883 6.66956 84.0401 6.68336 84.0918 6.68336C85.092 6.68336 86.0888 6.69369 87.0891 6.6799C87.2858 6.6799 87.4928 6.62127 87.6686 6.53504C87.9273 6.40741 88.1342 6.21771 88.1239 5.87967C88.1239 5.83139 88.2205 5.7762 88.3377 5.66582V8.2286H88.1757C88.1067 8.04235 88.0722 7.83884 87.9618 7.68708C87.7893 7.44219 87.5065 7.34906 87.2133 7.34561C86.1337 7.34561 85.0541 7.35251 83.9745 7.35595C83.9538 7.3801 83.9296 7.40425 83.9089 7.42839Z" fill="url(#paint6_linear_466_968)"/>
<path d="M62.745 1.77181C61.3135 1.76836 59.882 1.75801 58.4541 1.76146C57.9402 1.76146 57.5986 2.05464 57.3883 2.50305C57.2779 2.73415 57.1951 2.98249 57.0986 3.22394C56.9812 3.01009 56.9467 1.89943 57.0364 1.11646H64.8075C64.104 2.4858 63.383 3.81376 62.6725 5.15206C61.9654 6.48692 61.248 7.81142 60.5546 9.15318C59.8614 10.4915 59.0715 11.778 58.4162 13.1922C58.5851 13.2026 58.6989 13.2163 58.8162 13.2163C60.2614 13.2163 61.7067 13.1922 63.1485 13.2267C63.8866 13.244 64.2902 12.8853 64.5247 12.2127C64.5799 12.054 64.6075 11.885 64.6662 11.6539C64.742 11.7608 64.8075 11.8125 64.811 11.8643C64.8179 12.5231 64.8144 13.1818 64.8144 13.8717H56.5225C56.5467 13.7994 56.5604 13.7269 56.5949 13.6647C56.7742 13.3371 56.9606 13.0128 57.1399 12.6852C57.3331 12.3264 57.5159 11.9643 57.7056 11.6021C58.2022 10.6674 58.7059 9.73611 59.2026 8.80481C59.5923 8.07357 59.9821 7.34233 60.3719 6.61108C60.8685 5.67635 61.3652 4.7416 61.8584 3.80686C62.1068 3.33776 62.3586 2.86867 62.607 2.39612C62.6932 2.23401 62.7656 2.06499 62.8415 1.89599C62.8553 1.85459 62.8725 1.81665 62.8863 1.77526C62.838 1.77526 62.7898 1.77181 62.745 1.76836V1.77181Z" fill="url(#paint7_linear_466_968)"/>
<path d="M125.938 12.8509C125.965 12.8509 126.003 12.8578 126.016 12.8405C126.4 12.4439 126.88 12.13 127.08 11.5746C127.113 11.4746 127.213 11.3987 127.3 11.2918C127.403 11.5988 127.423 12.9406 127.345 13.4441C126.448 13.6373 125.555 13.8752 124.644 14.0097C123.591 14.165 122.533 14.1374 121.501 13.8235C121.126 13.7097 120.739 13.6028 120.398 13.4165C119.977 13.1888 119.601 12.8819 119.208 12.6129C119.184 12.5922 119.156 12.5681 119.132 12.5474C118.677 12.2024 118.314 11.7678 117.987 11.3021C117.4 10.4674 117.007 9.53268 116.887 8.53586C116.762 7.51144 116.804 6.46976 117.142 5.46259C117.946 3.04812 119.626 1.61669 122.068 1.06481C122.878 0.881998 123.719 0.795767 124.554 0.930287C125.026 1.00962 125.486 1.15794 125.951 1.26831C126.272 1.3442 126.596 1.40973 126.965 1.48906C126.965 1.77536 126.965 2.08579 126.965 2.39277C126.965 2.71699 126.958 3.04122 126.962 3.36545C126.962 3.52067 126.903 3.59655 126.717 3.54826C126.617 2.85496 126.261 2.30308 125.62 1.9961C125.055 1.72707 124.461 1.52011 123.806 1.64428C123.648 1.67533 123.468 1.59254 123.303 1.60979C121.346 1.78224 119.846 2.6756 118.877 4.41402C118.522 5.04868 118.287 5.73852 118.197 6.44217C118.114 7.09408 118.09 7.77702 118.256 8.43928C118.359 8.84974 118.452 9.26364 118.629 9.65341C118.956 10.3847 119.374 11.0469 119.936 11.6229C119.953 11.6402 119.984 11.6505 119.998 11.6712C120.319 12.0748 120.716 12.3749 121.167 12.6163C121.212 12.6611 121.257 12.7059 121.306 12.7508C121.601 12.8888 121.857 13.1268 122.212 13.1061C123.04 13.5131 123.923 13.4062 124.793 13.3303C125.13 13.2993 125.489 13.22 125.778 12.9923C125.91 13.0406 125.92 12.944 125.941 12.8578L125.938 12.8509Z" fill="url(#paint8_linear_466_968)"/>
<path d="M115.092 13.4062C115.232 13.6924 115.492 13.7579 115.795 13.8131C115.737 13.8442 115.677 13.8994 115.619 13.8994C114.744 13.8994 113.867 13.8924 112.987 13.889C112.98 13.8372 112.977 13.7855 112.97 13.7339C113.035 13.7131 113.102 13.7027 113.164 13.6752C113.454 13.5337 113.539 13.3682 113.432 13.0612C113.246 12.5093 113.042 11.9644 112.842 11.4194C112.753 11.171 112.664 10.9261 112.574 10.6778C112.553 10.6502 112.532 10.6226 112.511 10.595C112.453 10.4053 112.391 10.219 112.332 10.0293C112.311 10.0017 112.291 9.97413 112.27 9.94653C112.101 9.4602 111.932 8.9773 111.763 8.49096C111.742 8.46336 111.722 8.43577 111.701 8.40472C111.694 8.26676 111.611 8.23227 111.487 8.23227C111.259 8.23572 111.032 8.23227 110.804 8.23227C109.963 8.23916 109.121 8.24606 108.279 8.25296C108.259 8.27366 108.234 8.2978 108.214 8.3185C108.183 8.42542 108.148 8.53235 108.117 8.63928C108.096 8.66687 108.076 8.69447 108.055 8.72205C107.969 8.9911 107.879 9.26013 107.793 9.52917C107.772 9.55677 107.751 9.58436 107.731 9.61541C107.645 9.88444 107.555 10.1535 107.469 10.4191C107.448 10.4467 107.427 10.4777 107.407 10.5053C107.234 11.0123 107.103 11.5401 106.872 12.0195C106.717 12.3472 106.6 12.6714 106.541 13.0198C106.513 13.182 106.558 13.3647 106.603 13.5303C106.662 13.7372 106.879 13.7234 107.072 13.7649C106.865 13.9201 106.096 13.9546 104.965 13.8856C104.958 13.8339 104.954 13.7821 104.947 13.7304C105.399 13.6441 105.592 13.282 105.751 12.9198C105.944 12.4748 106.096 12.0127 106.265 11.5573C106.286 11.5297 106.31 11.5021 106.33 11.4745C106.393 11.2848 106.451 11.0986 106.513 10.9089C106.534 10.8813 106.555 10.8537 106.575 10.8261C106.637 10.6364 106.696 10.4467 106.758 10.2604C106.779 10.2328 106.8 10.2052 106.82 10.1776C107.21 9.14287 107.6 8.10809 107.983 7.06987C108.169 6.56283 108.334 6.05234 108.528 5.54531C108.824 4.75888 109.138 3.98281 109.435 3.19983C109.649 2.63415 109.852 2.06503 110.063 1.5028C110.104 1.39587 110.169 1.29585 110.221 1.19237C110.269 1.16478 110.321 1.14063 110.369 1.11304C110.407 1.19237 110.445 1.27515 110.48 1.35448C110.501 1.38208 110.521 1.40967 110.542 1.43726C110.601 1.62698 110.663 1.81323 110.721 2.00294C110.742 2.03054 110.763 2.06158 110.783 2.08918C110.952 2.57206 111.121 3.05841 111.29 3.5413C111.311 3.5689 111.332 3.59649 111.353 3.62409C111.411 3.81379 111.473 4.00005 111.532 4.18975C111.553 4.21735 111.573 4.24839 111.594 4.27599C111.763 4.75888 111.932 5.24522 112.101 5.72811L112.163 5.8109C112.222 6.0006 112.284 6.18687 112.342 6.37658C112.363 6.40416 112.384 6.43176 112.404 6.4628C112.574 6.94915 112.742 7.43204 112.912 7.91839C112.932 7.94597 112.953 7.97357 112.974 8.00116C113.032 8.19087 113.094 8.37713 113.153 8.56684C113.174 8.59444 113.194 8.62203 113.215 8.64962C113.384 9.13596 113.554 9.61885 113.722 10.1052C113.742 10.1328 113.76 10.1638 113.781 10.1914C113.842 10.3777 113.902 10.5639 113.964 10.7502C113.984 10.7778 114.005 10.8054 114.026 10.833C114.242 11.4573 114.454 12.0816 114.681 12.7024C114.739 12.8681 114.844 13.0163 114.929 13.1716C114.981 13.2475 115.036 13.3233 115.088 13.4027L115.092 13.4062ZM109.9 3.61374C109.68 4.2277 109.466 4.84512 109.238 5.45908C109.1 5.82815 108.91 6.17652 108.807 6.55248C108.717 6.88361 108.476 7.18024 108.524 7.55967H111.428C111.346 7.31132 111.27 7.09057 111.194 6.86636C111.173 6.83877 111.152 6.81117 111.132 6.78013C110.963 6.29379 110.794 5.8109 110.628 5.32455C110.607 5.29696 110.587 5.26936 110.566 5.24177C110.397 4.75543 110.228 4.27254 110.059 3.78619C110.038 3.7586 110.018 3.731 109.997 3.70341C109.994 3.66893 109.987 3.63098 109.983 3.59649C109.956 3.60339 109.928 3.60684 109.897 3.61374H109.9Z" fill="url(#paint9_linear_466_968)"/>
<path d="M93.5126 13.1472C93.5851 13.2886 93.6574 13.4301 93.7299 13.5715C93.7713 13.6335 93.8126 13.6921 93.8541 13.7543C93.8541 13.7991 93.8541 13.844 93.8541 13.8888H91.3603C91.3534 13.8681 91.3499 13.8508 91.343 13.8301C91.4603 13.7508 91.5879 13.6818 91.6879 13.5853C91.9881 13.2989 92.0708 12.9299 92.0708 12.5332C92.0708 11.495 92.0708 10.4568 92.0708 9.41857C92.0708 7.18002 92.0708 4.94145 92.0708 2.69945C92.0708 2.59253 92.0708 2.48215 92.0708 2.37522C92.0604 1.84405 91.9225 1.39219 91.2913 1.20249C91.3844 1.1473 91.4327 1.09211 91.481 1.09211C92.3191 1.08866 93.1539 1.09211 93.992 1.09211C94.0231 1.09211 94.0576 1.12315 94.1335 1.16109C94.0645 1.21283 94.0265 1.25767 93.9748 1.27492C93.6609 1.40254 93.5022 1.65433 93.4471 1.97166C93.4091 2.18207 93.3884 2.39937 93.3884 2.61323C93.3849 5.82446 93.3884 9.0357 93.3884 12.247C93.3884 12.4746 93.385 12.7057 93.3815 12.9334C93.4229 13.0057 93.4677 13.0747 93.5091 13.1472H93.5126Z" fill="url(#paint10_linear_466_968)"/>
<path d="M56.8331 22.2563C57.1436 22.0183 57.1746 21.6562 57.1815 21.325C57.2091 20.1109 57.1953 18.8968 57.1918 17.6826C57.1918 17.2998 57.1401 17.2618 56.7469 17.2204C56.6847 17.2136 56.6227 17.1894 56.5641 17.1652C56.5434 17.1549 56.533 17.1239 56.4985 17.0721C56.5744 17.048 56.6434 17.0101 56.7089 17.0101C57.0056 17.0031 57.3023 17.0204 57.5988 17.0031C57.8403 16.9894 57.9955 17.0824 58.1507 17.2584C59.1925 18.4242 60.2479 19.5832 61.2999 20.7421C61.3792 20.8318 61.4585 20.918 61.5896 21.0663C61.6034 20.8938 61.6172 20.7973 61.6172 20.6973C61.6172 19.9143 61.6241 19.1313 61.6172 18.3484C61.6172 18.0965 61.5759 17.8448 61.5344 17.5964C61.4896 17.3239 61.3827 17.2204 61.1274 17.1756C60.9998 17.1549 60.8653 17.1514 60.7066 17.1377C60.924 16.9824 62.2967 16.9514 62.814 17.0687C62.7382 17.2169 62.583 17.1859 62.476 17.2342C62.2173 17.3446 62.0794 17.5033 62.0828 17.8172C62.0966 19.1796 62.0898 20.5421 62.0898 21.9046V22.3633C62.0001 22.3943 61.9173 22.4253 61.8138 22.4633C61.4757 22.1011 61.124 21.7389 60.7893 21.363C60.4548 20.987 60.1374 20.5938 59.8064 20.2109C59.4822 19.8384 59.1786 19.4383 58.8096 19.1175C58.4336 18.7864 58.2266 18.2897 57.7195 18.0172C57.7092 18.162 57.6988 18.2655 57.6988 18.3656C57.6988 19.39 57.7058 20.4179 57.692 21.4423C57.6885 21.7734 57.7161 22.0597 58.0507 22.2218C58.0817 22.2356 58.0955 22.2839 58.13 22.3391C57.923 22.4908 57.692 22.3978 57.4781 22.4116C57.2643 22.4253 57.0469 22.4046 56.8297 22.4011C56.8297 22.3529 56.8297 22.3081 56.8297 22.2598L56.8331 22.2563Z" fill="url(#paint11_linear_466_968)"/>
<path d="M118.263 16.6478C118.691 16.4547 119.053 16.2925 119.43 16.1201C119.581 16.3753 119.498 16.634 119.512 16.8755C119.526 17.1446 119.512 17.4136 119.512 17.6861V18.4552C119.512 18.7104 119.512 18.9623 119.512 19.2761C119.671 19.2313 119.781 19.2071 119.885 19.1658C120.047 19.1003 120.198 19.014 120.36 18.9519C120.857 18.7691 121.244 18.8657 121.602 19.2623C122.023 19.728 122.137 20.2902 122.062 20.8835C121.94 21.8562 121.24 22.4046 120.52 22.4908C120.008 22.553 119.488 22.4736 118.898 22.2563V21.8389C118.898 20.3419 118.898 18.8416 118.898 17.3446C118.898 16.9134 118.898 16.9134 118.463 16.803C118.408 16.7892 118.363 16.7306 118.26 16.6478H118.263ZM119.523 19.621C119.523 20.2351 119.52 20.8663 119.523 21.4975C119.523 21.7114 119.643 21.8769 119.808 22.0079C120.202 22.3184 120.785 22.2804 121.127 21.8976C121.702 21.2525 121.637 20.2971 121.137 19.6797C121.047 19.5693 120.913 19.459 120.782 19.4313C120.357 19.3383 119.926 19.3003 119.52 19.621H119.523Z" fill="url(#paint12_linear_466_968)"/>
<path d="M108.81 22.153C108.63 22.2393 108.451 22.3324 108.268 22.4083C107.451 22.7394 106.709 22.2565 106.513 21.5253C106.337 20.8734 106.385 20.2215 106.84 19.6489C107.289 19.0832 108.158 18.759 108.913 19.1039C108.951 18.9832 109.01 18.8693 109.013 18.7555C109.024 18.2451 109.02 17.7312 109.013 17.2206C109.013 16.8929 108.993 16.8826 108.651 16.8101C108.575 16.7929 108.506 16.7412 108.354 16.6653C108.799 16.4618 109.162 16.2927 109.589 16.0962C109.6 16.31 109.61 16.4514 109.61 16.5929C109.61 18.0899 109.61 19.5834 109.61 21.0804C109.61 21.1597 109.61 21.2424 109.61 21.3218C109.613 21.9013 109.617 21.9081 110.21 22.0358C109.789 22.2117 109.434 22.36 109.048 22.5221C109.027 22.3738 109.013 22.2703 108.999 22.1668C108.948 22.0323 108.879 22.084 108.81 22.153ZM109.013 20.8147C109.013 20.5457 109.027 20.2732 109.006 20.0076C108.996 19.8696 108.948 19.7144 108.865 19.6075C108.448 19.0695 107.651 19.1143 107.289 19.6903C106.947 20.2318 106.913 20.8113 107.171 21.3908C107.465 22.053 108.141 22.2807 108.796 21.9633C108.948 21.8909 109.024 21.8013 109.017 21.6219C109.006 21.3528 109.017 21.0837 109.017 20.8113L109.013 20.8147Z" fill="url(#paint13_linear_466_968)"/>
<path d="M96.9369 21.4394C97.1646 21.9809 97.6957 22.3535 98.4097 22.2638C99.1168 22.1741 99.479 21.5532 99.1961 20.9013C99.0581 20.584 98.8236 20.3425 98.5442 20.1424C98.3027 19.9701 98.051 19.8147 97.8165 19.632C97.5923 19.4595 97.3611 19.287 97.1749 19.0801C96.761 18.6283 96.661 18.035 96.8989 17.5865C97.1301 17.1485 97.6646 16.7761 98.3614 16.8657C98.7616 16.9174 99.1513 17.0209 99.5928 17.1071C99.61 17.4003 99.6307 17.7142 99.6549 18.1144C99.5652 17.9867 99.5031 17.9142 99.4583 17.8349C99.2444 17.4452 98.9236 17.1933 98.489 17.1106C98.0855 17.0348 97.7405 17.1658 97.4818 17.4831C97.3369 17.659 97.3128 17.8452 97.4059 18.0764C97.5439 18.4144 97.7578 18.68 98.0407 18.8938C98.3614 19.1387 98.6994 19.363 99.0133 19.6182C99.4135 19.9424 99.779 20.2976 99.8757 20.8462C99.9757 21.4084 99.7583 21.9361 99.2686 22.2223C98.6512 22.5845 98.0027 22.5845 97.337 22.3672C97.1783 22.3155 97.0094 22.2878 96.7782 22.2327C96.5817 21.9395 96.7782 21.5359 96.6644 21.1669C96.8679 21.1289 96.8575 21.2566 96.8782 21.3532C96.8989 21.3807 96.9197 21.4084 96.9404 21.4359L96.9369 21.4394Z" fill="url(#paint14_linear_466_968)"/>
<path d="M127.726 22.3982C127.347 22.3982 126.97 22.3982 126.591 22.3982L126.512 22.2567C126.763 22.1705 126.86 21.9946 126.853 21.7324C126.843 21.1012 126.853 20.4665 126.85 19.8354C126.85 19.5284 126.815 19.5007 126.491 19.411C126.443 19.3973 126.391 19.38 126.346 19.3559C126.315 19.3352 126.298 19.2972 126.273 19.2662C126.398 19.1248 126.922 18.8592 127.433 18.6868C127.45 18.911 127.467 19.1282 127.492 19.3938C127.695 19.3042 127.86 19.2317 128.03 19.1558C128.164 19.0972 128.298 19.0385 128.433 18.9765C129.095 18.6695 129.564 19.042 129.664 19.6697C129.723 20.0251 129.73 20.3872 129.744 20.746C129.754 21.0287 129.744 21.3116 129.723 21.5909C129.692 21.9359 129.802 22.167 130.154 22.2533C130.102 22.3015 130.047 22.3498 129.995 22.3982C129.617 22.3982 129.24 22.3982 128.86 22.3982C128.833 22.3498 128.809 22.3015 128.782 22.2533C129.009 22.1636 129.115 21.998 129.115 21.7531C129.112 21.1599 129.137 20.5666 129.105 19.9768C129.075 19.411 128.723 19.2075 128.185 19.3904C127.708 19.5513 127.47 19.8721 127.47 20.3528C127.47 20.8115 127.478 21.2702 127.47 21.7289C127.463 21.9911 127.557 22.1705 127.812 22.2567C127.785 22.305 127.76 22.3533 127.733 22.4015L127.726 22.3982Z" fill="url(#paint15_linear_466_968)"/>
<path d="M72.7892 22.0842C72.458 22.2221 72.1269 22.3601 71.7578 22.5119C71.7267 22.3601 71.6957 22.2256 71.6578 22.0497C71.4509 22.1429 71.2612 22.2291 71.068 22.3084C70.7438 22.4429 70.4091 22.5291 70.0539 22.4981C69.6158 22.4636 69.4607 22.3014 69.4537 21.86C69.4468 21.3219 69.4537 20.7804 69.4537 20.2423C69.4537 20.1077 69.4468 19.9732 69.4537 19.8387C69.471 19.5628 69.3985 19.3628 69.0915 19.3076C69.0536 19.3006 69.0226 19.2661 68.9433 19.2109C69.3261 19.0764 69.6503 18.9592 70.0091 18.8315C70.0229 18.9833 70.0401 19.0868 70.0401 19.1903C70.0401 19.9043 70.0401 20.6217 70.0401 21.3357C70.0401 21.7737 70.1816 21.9565 70.6161 22.0152C70.8335 22.0462 71.0748 22.0255 71.2887 21.9634C71.6232 21.8634 71.7061 21.7185 71.7061 21.3668C71.7061 20.8666 71.7061 20.3699 71.7061 19.8698C71.7061 19.4558 71.7026 19.4558 71.299 19.3213C71.2749 19.3144 71.2542 19.2903 71.237 19.2731C71.2197 19.2558 71.2059 19.2316 71.161 19.1696C71.5302 19.0626 71.8819 18.9626 72.2683 18.8487C72.2821 18.9833 72.2993 19.0868 72.2993 19.1868C72.2993 19.956 72.2993 20.7252 72.2993 21.4943C72.2993 21.9014 72.3511 21.9462 72.765 21.9669C72.7719 22.0082 72.7788 22.0462 72.7857 22.0876L72.7892 22.0842Z" fill="url(#paint16_linear_466_968)"/>
<path d="M105.433 22.0189C105.657 21.9775 105.812 21.9499 106.012 21.9154C105.809 22.2672 105.516 22.4086 105.195 22.4879C105.119 22.5053 104.998 22.4224 104.926 22.3534C104.85 22.2811 104.812 22.1741 104.75 22.0706C104.54 22.0602 104.422 22.2259 104.267 22.3224C103.957 22.5191 103.653 22.5708 103.326 22.3501C102.877 22.0499 102.86 21.4532 103.326 21.1635C103.536 21.0324 103.784 20.9461 104.026 20.8806C104.302 20.8048 104.56 20.7186 104.736 20.5012C104.736 20.208 104.764 19.9217 104.729 19.6423C104.681 19.2733 104.167 19.0526 103.86 19.2561C103.777 19.3113 103.67 19.4216 103.674 19.4975C103.708 19.9217 103.398 19.9148 103.119 19.9907C102.998 19.6044 103.222 19.3113 103.45 19.1388C103.777 18.8904 104.191 18.7662 104.633 18.9042C105.105 19.0526 105.35 19.3561 105.354 19.8528C105.361 20.4184 105.354 20.9876 105.357 21.5532C105.357 21.6947 105.398 21.836 105.426 22.0154L105.433 22.0189ZM104.76 20.8082C104.384 20.991 104.077 21.1221 103.788 21.2842C103.467 21.4635 103.515 21.8464 103.808 22.0361C104.122 22.2362 104.719 21.9602 104.753 21.5877C104.774 21.3635 104.757 21.1359 104.757 20.8082H104.76Z" fill="url(#paint17_linear_466_968)"/>
<path d="M65.611 21.9081C65.8317 21.9184 66.0145 21.9288 66.2008 21.9391C66.0973 22.1668 65.6834 22.484 65.4799 22.4944C65.2315 22.5117 65.1074 22.3944 64.9625 21.9943C64.7831 22.122 64.6107 22.246 64.4347 22.3633C64.0485 22.6255 63.4828 22.4703 63.3034 22.0701C63.1827 21.8046 63.1448 21.4217 63.4793 21.2182C63.6932 21.0872 63.9277 20.9699 64.1657 20.9009C64.4659 20.8147 64.7624 20.7491 64.9694 20.4973C64.9694 20.2076 64.9866 19.9109 64.9625 19.6177C64.9453 19.4074 64.8211 19.221 64.6004 19.1797C64.3762 19.1383 64.1347 19.1245 63.9795 19.3557C63.9415 19.4074 63.8828 19.4694 63.8898 19.5212C63.9173 19.804 63.7828 19.9144 63.5173 19.9179C63.4724 19.9179 63.4241 19.9592 63.3586 19.9937C63.2206 19.6109 63.4276 19.328 63.6587 19.1487C63.983 18.9003 64.3899 18.7726 64.8211 18.89C65.342 19.0348 65.5833 19.3315 65.5868 19.8729C65.5937 20.4111 65.5868 20.9525 65.5868 21.4907C65.5868 21.6218 65.6007 21.7528 65.611 21.8976V21.9081ZM64.9936 20.8112C64.5934 21.0112 64.2209 21.1147 63.9208 21.3631C63.7863 21.4734 63.7553 21.6976 63.8312 21.8321C63.945 22.0356 64.1692 22.1323 64.421 22.084C64.7279 22.0288 64.9728 21.8288 64.9901 21.5941C65.0073 21.3596 64.9936 21.1216 64.9936 20.8077V20.8112Z" fill="url(#paint18_linear_466_968)"/>
<path d="M76.3557 22.2427C76.5557 22.1392 76.6351 21.9736 76.6351 21.746C76.6316 20.2353 76.6351 18.7245 76.6351 17.2137C76.6351 16.9033 76.6179 16.8964 76.3109 16.7998C76.2487 16.7791 76.1867 16.7549 76.1074 16.7274C76.1694 16.4411 76.4351 16.4824 76.5971 16.3894C76.7799 16.2859 76.98 16.2169 77.2421 16.103C77.2421 16.31 77.2421 16.4514 77.2421 16.5963C77.2421 18.2829 77.2421 19.9696 77.2421 21.6529C77.2421 21.8943 77.2595 22.1116 77.4974 22.2427C77.4974 22.2945 77.4974 22.3462 77.4974 22.3979C77.118 22.3979 76.7421 22.3979 76.3626 22.3979C76.3626 22.3462 76.3626 22.2945 76.3626 22.2427H76.3557Z" fill="url(#paint19_linear_466_968)"/>
<path d="M117.882 20.3942C117.512 20.3942 117.141 20.3942 116.767 20.3942C116.395 20.3942 116.016 20.3942 115.626 20.3942C115.509 20.8219 115.595 21.1875 115.816 21.5255C116.037 21.8635 116.357 22.036 116.761 22.0704C117.167 22.1049 117.471 21.8394 117.871 21.629C117.523 22.2912 116.537 22.7396 116.019 22.4741C115.416 22.1636 115.047 21.6462 115.015 20.9356C114.995 20.3872 115.095 19.8872 115.467 19.4491C115.809 19.0454 116.226 18.8627 116.74 18.8696C116.857 18.8696 116.982 18.9041 117.092 18.9489C117.564 19.1421 117.944 19.8215 117.882 20.4011V20.3942ZM117.251 20.0699C117.251 19.5525 116.951 19.1869 116.547 19.1696C116.081 19.1489 115.771 19.4698 115.695 20.0699H117.247H117.251Z" fill="url(#paint20_linear_466_968)"/>
<path d="M124.076 21.9909C124.649 22.1806 125.134 21.9977 125.614 21.6562C125.591 21.7184 125.583 21.7977 125.542 21.8426C125.231 22.1771 124.862 22.4151 124.411 22.491C123.931 22.5703 123.541 22.391 123.217 22.0426C122.82 21.6149 122.744 21.101 122.782 20.5491C122.817 20.0731 123.02 19.673 123.331 19.328C123.689 18.9279 124.321 18.7554 124.766 18.9244C125.256 19.1108 125.683 19.7178 125.686 20.2386C125.686 20.2766 125.666 20.3111 125.642 20.3869H123.417C123.189 20.9561 123.452 21.5839 123.993 21.9253C124.021 21.9461 124.049 21.9701 124.076 21.9909ZM123.441 20.0937C123.989 20.0937 124.507 20.1076 125.024 20.0869C124.997 19.5523 124.714 19.1935 124.341 19.1694C123.869 19.1383 123.572 19.4212 123.441 20.0904V20.0937Z" fill="url(#paint21_linear_466_968)"/>
<path d="M91.1314 21.7639C90.7658 22.2088 90.3036 22.4916 89.7172 22.502C89.2758 22.5088 88.9342 22.2951 88.6652 21.9432C88.0305 21.112 88.3307 19.8772 88.8514 19.3356C89.2481 18.9182 89.9242 18.7389 90.4001 18.9493C90.8658 19.1563 91.2073 19.7805 91.1625 20.3807H88.9687C88.6894 20.9843 89.0653 21.7707 89.7068 22.0019C90.0794 22.1364 90.4209 22.0674 90.7519 21.8742C90.8658 21.8087 90.9865 21.75 91.1003 21.6879C91.1107 21.7155 91.121 21.7397 91.1314 21.7672V21.7639ZM90.5174 20.0737C90.5416 19.5528 90.2519 19.1873 89.8345 19.1734C89.3654 19.1563 89.0239 19.5183 89.0066 20.0737H90.5139H90.5174Z" fill="url(#paint22_linear_466_968)"/>
<path d="M85.11 19.4798C85.1445 19.5143 85.217 19.573 85.2135 19.5798C84.9997 19.8593 85.0376 20.1869 85.0376 20.5042C85.0376 20.9044 85.0445 21.3045 85.0376 21.7047C85.0307 21.9564 85.11 22.1461 85.348 22.2564C85.3204 22.3048 85.2963 22.3531 85.2687 22.3979C84.9168 22.3979 84.5685 22.3979 84.2167 22.3979C84.1891 22.3496 84.1616 22.2979 84.1374 22.2496C84.3478 22.1219 84.4547 21.9495 84.4513 21.6942C84.4443 20.1835 84.4513 18.6727 84.4478 17.1585C84.4478 17.1067 84.4374 17.055 84.4306 16.9999C84.2477 16.9102 84.0752 16.824 83.889 16.7308C84.1167 16.486 84.7168 16.1961 85.0307 16.1858C85.0376 17.262 85.0445 18.3347 85.048 19.4074C85.0687 19.4316 85.0893 19.4523 85.11 19.4764V19.4798Z" fill="url(#paint23_linear_466_968)"/>
<path d="M113.138 22.2427C113.383 22.1255 113.425 21.9116 113.425 21.6701C113.425 20.6733 113.425 19.6764 113.425 18.6796C113.425 18.2347 113.425 17.7897 113.425 17.3448C113.425 16.9343 113.398 16.9033 113.014 16.7756C112.976 16.7619 112.945 16.7411 112.89 16.7136C112.949 16.4376 113.218 16.4859 113.383 16.3894C113.563 16.2824 113.766 16.2169 114.021 16.103C114.021 16.3134 114.021 16.4549 114.021 16.5963C114.021 18.2796 114.021 19.9662 114.021 21.6494C114.021 21.8909 114.038 22.1082 114.276 22.2393C114.276 22.291 114.276 22.3427 114.276 22.3945C113.898 22.3945 113.521 22.3945 113.141 22.3945C113.141 22.3427 113.141 22.291 113.141 22.2393L113.138 22.2427Z" fill="url(#paint24_linear_466_968)"/>
<path d="M83.4191 21.643C83.3743 21.7294 83.3467 21.8259 83.2881 21.8949C82.8396 22.4364 82.2395 22.5881 81.5738 22.4813C81.3909 22.4536 81.2116 22.3088 81.0633 22.1777C80.7805 21.9225 80.57 21.6224 80.5252 21.2223C80.4459 20.5428 80.5632 19.9082 80.9564 19.3528C81.0667 19.1941 81.2841 19.0906 81.4773 19.0182C81.9118 18.8492 82.3672 18.8182 82.8293 18.8734C83.0328 18.8975 83.2363 18.9561 83.3433 19.1493C83.3881 19.2321 83.4226 19.3701 83.3846 19.4425C83.3467 19.515 83.2053 19.584 83.1225 19.5735C82.9879 19.5528 82.8362 19.4908 82.7362 19.3976C82.3809 19.0631 81.7635 19.0561 81.4669 19.5701C81.0944 20.2082 81.0426 20.867 81.3944 21.5293C81.7083 22.1226 82.4844 22.3054 83.088 21.8329C83.1811 21.7604 83.2673 21.681 83.357 21.6052C83.3778 21.619 83.3985 21.6327 83.4191 21.6465V21.643Z" fill="url(#paint25_linear_466_968)"/>
<path d="M67.6075 18.9348C67.8317 18.9452 68.0594 18.959 68.2836 18.9625C68.6664 18.9728 68.6837 18.9866 68.7044 19.4522C68.3387 19.466 67.9732 19.4798 67.6075 19.4937C67.5833 19.5212 67.5593 19.5488 67.5385 19.573C67.5351 20.2594 67.5178 20.9458 67.5282 21.6322C67.5351 22.0703 67.8248 22.2185 68.2215 22.0081C68.3561 21.9357 68.4871 21.8494 68.6423 21.7529C68.5733 22.1151 68.2007 22.4358 67.8697 22.498C67.373 22.591 66.9314 22.1737 66.9349 21.7529C66.9418 21.2562 66.9211 20.756 66.9142 20.2594C66.9142 20.0179 66.9142 19.7799 66.9142 19.5178C66.7762 19.497 66.6659 19.4798 66.4589 19.4488C66.8556 19.0453 67.2005 18.6969 67.611 18.2795C67.5833 18.5279 67.5662 18.6865 67.5488 18.8418C67.5696 18.8693 67.5903 18.9003 67.6075 18.928V18.9348Z" fill="url(#paint26_linear_466_968)"/>
<path d="M112.652 19.2592C112.644 19.3247 112.634 19.3868 112.624 19.4834H111.451C111.451 19.7938 111.451 20.0732 111.451 20.3526C111.451 20.7699 111.441 21.1873 111.455 21.6046C111.472 22.0737 111.755 22.2255 112.169 22.0048C112.293 21.9392 112.41 21.8565 112.548 21.7737C112.51 22.129 112.148 22.4601 111.789 22.498C111.279 22.5532 110.893 22.229 110.872 21.684C110.851 21.1321 110.865 20.5802 110.865 20.0283C110.865 19.8696 110.865 19.7076 110.865 19.5247C110.724 19.5041 110.603 19.4869 110.42 19.4592C110.762 19.0074 111.165 18.7038 111.5 18.3313C111.524 18.3486 111.548 18.3624 111.572 18.3796C111.541 18.5555 111.51 18.7348 111.469 18.9625C111.772 18.9625 112.055 18.9625 112.334 18.9625C112.479 18.9625 112.611 18.9798 112.604 19.1729C112.621 19.2005 112.638 19.2316 112.656 19.2592H112.652Z" fill="url(#paint27_linear_466_968)"/>
<path d="M100.742 19.5078C100.638 19.494 100.538 19.4803 100.359 19.4562C100.763 19.0526 101.118 18.6973 101.473 18.342C101.497 18.3592 101.525 18.3731 101.549 18.3904C101.497 18.5628 101.449 18.7318 101.38 18.9629C101.673 18.9629 101.939 18.9594 102.201 18.9629C102.58 18.9698 102.611 19.0146 102.566 19.4733H101.411C101.411 19.739 101.411 19.9632 101.411 20.1908C101.411 20.6496 101.397 21.1083 101.415 21.5671C101.435 22.0844 101.721 22.2363 102.17 21.9809C102.27 21.9258 102.366 21.8706 102.501 21.7947C102.439 22.1121 102.149 22.4225 101.866 22.4811C101.58 22.5398 101.297 22.5122 101.08 22.2811C100.921 22.1155 100.814 21.9327 100.818 21.6809C100.828 20.9807 100.814 20.2771 100.807 19.5768C100.783 19.5527 100.763 19.532 100.738 19.5078H100.742Z" fill="url(#paint28_linear_466_968)"/>
<path d="M93.7128 19.8935C93.4713 19.6348 93.3126 19.4416 93.1333 19.2726C92.9401 19.0898 92.6332 19.1208 92.4538 19.3175C92.2675 19.5244 92.2607 19.8175 92.4642 19.99C92.6504 20.1452 92.8607 20.2694 93.0574 20.4109C93.2644 20.5626 93.492 20.6936 93.661 20.8765C94.0922 21.3387 93.999 22.3114 93.1126 22.477C92.9056 22.5149 92.6849 22.477 92.471 22.4735C92.3055 22.4666 92.1433 22.4528 91.9364 22.439C91.8019 22.27 91.7915 22.1734 91.895 21.5112C92.002 21.6699 92.071 21.8216 92.1813 21.9319C92.3089 22.0631 92.4607 22.1906 92.6228 22.2596C92.9091 22.3803 93.1506 22.2873 93.2954 22.0631C93.4438 21.8285 93.4299 21.5387 93.2058 21.3422C92.9367 21.1076 92.6539 20.8765 92.34 20.7109C91.726 20.3833 91.6639 19.5623 92.0778 19.2278C92.4848 18.9001 92.9471 18.7518 93.4678 18.9449C93.6196 19.0001 93.7231 19.0863 93.7162 19.2691C93.7093 19.452 93.7162 19.6348 93.7162 19.8969L93.7128 19.8935Z" fill="url(#paint29_linear_466_968)"/>
<path d="M73.6033 22.2463C73.824 22.105 73.9171 21.9048 73.9102 21.6393C73.8998 21.1012 73.9102 20.5597 73.9068 20.0216C73.9068 19.6767 73.8998 19.6836 73.5446 19.5697C73.4791 19.549 73.4169 19.4869 73.3791 19.4284C73.3652 19.4076 73.4101 19.311 73.4446 19.2972C73.7723 19.1558 74.1033 19.0248 74.4655 18.8765C74.4862 19.0696 74.5 19.2007 74.5139 19.3317V19.6352C74.5897 19.5145 74.6242 19.4662 74.6552 19.418C74.7656 19.3042 74.8794 19.1869 74.9898 19.0765C75.1519 18.9143 75.3416 18.8937 75.5451 18.9903C75.6728 19.0523 75.8038 19.111 75.9694 19.1903C75.897 19.3559 75.828 19.5111 75.7521 19.6767C75.5968 19.6214 75.4831 19.5801 75.3693 19.5456C74.9346 19.4076 74.531 19.6491 74.5069 20.1044C74.4759 20.6804 74.4932 21.2599 74.5035 21.8393C74.5069 22.1395 74.7691 22.1739 74.9761 22.2602C74.9243 22.3085 74.8691 22.3533 74.8174 22.4015C74.4138 22.4015 74.0068 22.4015 73.6033 22.4015C73.6033 22.3498 73.6033 22.3015 73.6033 22.2498V22.2463Z" fill="url(#paint30_linear_466_968)"/>
<path d="M86.4062 22.2568C86.6545 22.1395 86.7442 21.9498 86.7338 21.6739C86.7166 21.122 86.7338 20.5666 86.7235 20.0148C86.7235 19.8699 86.7028 19.7182 86.658 19.5802C86.5821 19.3525 86.4166 19.2387 86.1648 19.2422C85.9095 19.2491 85.6509 19.2353 85.4335 19.4077C85.4094 19.425 85.361 19.4077 85.3025 19.4077C85.3645 19.1801 85.5404 19.0801 85.7094 18.9869C86.3648 18.6282 87.2167 19.0386 87.2789 19.7768C87.3341 20.3943 87.3169 21.015 87.3237 21.6359C87.3237 21.8912 87.3512 22.1258 87.6169 22.2499C87.5893 22.2982 87.5617 22.3465 87.5376 22.3982C87.1857 22.3982 86.8373 22.3982 86.4855 22.3982C86.458 22.35 86.4338 22.3051 86.4062 22.2568Z" fill="url(#paint31_linear_466_968)"/>
<path d="M78.4665 22.2563C78.7115 22.1355 78.8012 21.9458 78.7908 21.6699C78.7736 21.1594 78.7874 20.649 78.7839 20.1385C78.7839 19.7936 78.6023 19.5947 78.239 19.5417C78.2493 19.4797 78.2424 19.3865 78.2769 19.3692C78.6149 19.1934 78.9391 18.983 79.3738 18.9175C79.3738 19.2279 79.3738 19.4934 79.3738 19.7591C79.3738 20.404 79.3738 21.0491 79.3738 21.6941C79.3738 21.9425 79.4358 22.1459 79.6807 22.2563C79.6531 22.3045 79.6255 22.3564 79.598 22.4046C79.2461 22.4046 78.8977 22.4046 78.5459 22.4046L78.4665 22.2597V22.2563Z" fill="url(#paint32_linear_466_968)"/>
<path d="M71.6474 17.3067C71.9474 17.3067 72.0854 17.4378 72.0819 17.7069C72.0819 17.9689 71.8371 18.2173 71.6025 18.1966C71.4404 18.1828 71.1782 17.8931 71.1748 17.7207C71.1679 17.4689 71.361 17.3033 71.6508 17.3067H71.6474Z" fill="url(#paint33_linear_466_968)"/>
<path d="M70.5258 17.7034C70.5258 17.9759 70.3051 18.2139 70.0671 18.1966C69.9153 18.1863 69.6394 17.8862 69.6324 17.7275C69.6221 17.4964 69.8429 17.3033 70.1084 17.3067C70.4293 17.3102 70.5223 17.3998 70.5223 17.7069L70.5258 17.7034Z" fill="url(#paint34_linear_466_968)"/>
<path d="M78.9496 17.7866C78.6425 17.6866 78.5874 17.6141 78.6322 17.3519C78.6667 17.1381 78.7977 17.0519 79.0392 17.0587C79.2151 17.0622 79.3186 17.145 79.3566 17.3071C79.4048 17.5106 79.3359 17.621 79.1116 17.7245C79.0564 17.7451 79.0012 17.7658 78.9461 17.7866H78.9496Z" fill="url(#paint35_linear_466_968)"/>
<path d="M74.8177 22.398C74.8694 22.3498 74.9245 22.305 74.9762 22.2566C75.0867 22.2566 75.2109 22.2221 75.2971 22.398H74.8177Z" fill="url(#paint36_linear_466_968)"/>
<path d="M56.8324 22.2565C56.8324 22.3049 56.8324 22.3497 56.8324 22.398C56.7186 22.4187 56.6049 22.4462 56.4255 22.2807C56.6186 22.2669 56.7256 22.26 56.8324 22.2532V22.2565Z" fill="url(#paint37_linear_466_968)"/>
<path d="M129.994 22.398C130.046 22.3497 130.101 22.3014 130.153 22.2532C130.236 22.2704 130.319 22.291 130.401 22.3084C130.398 22.3394 130.394 22.3704 130.388 22.398H129.991H129.994Z" fill="url(#paint38_linear_466_968)"/>
<path d="M26.4491 10.8948C26.5181 10.681 26.6388 10.7189 26.7733 10.8293C26.6664 10.85 26.556 10.8741 26.4491 10.8948Z" fill="url(#paint39_linear_466_968)"/>
<path d="M77.4909 22.3976C77.4909 22.3459 77.4909 22.2941 77.4909 22.2424C77.5944 22.2631 77.6979 22.2838 77.8014 22.3079C77.7979 22.339 77.7945 22.3666 77.7876 22.3976H77.4875H77.4909Z" fill="url(#paint40_linear_466_968)"/>
<path d="M114.275 22.3976V22.2424C114.382 22.2631 114.485 22.2873 114.59 22.3079C114.585 22.339 114.579 22.3666 114.575 22.3976H114.275Z" fill="url(#paint41_linear_466_968)"/>
<path d="M27.8496 11.0536C28.0462 10.957 28.1704 11.0225 28.2359 11.226C28.1083 11.1674 27.9807 11.1122 27.8496 11.0536Z" fill="url(#paint42_linear_466_968)"/>
<path d="M128.781 22.2532C128.808 22.3014 128.832 22.3497 128.859 22.398H128.563L128.549 22.3255C128.625 22.3014 128.701 22.2772 128.781 22.2532Z" fill="url(#paint43_linear_466_968)"/>
<path d="M127.725 22.398L127.804 22.2532C127.881 22.2739 127.959 22.2945 128.036 22.3187C128.033 22.3462 128.026 22.3704 128.021 22.398C127.921 22.398 127.826 22.398 127.725 22.398Z" fill="url(#paint44_linear_466_968)"/>
<path d="M113.138 22.2424C113.138 22.2941 113.138 22.3459 113.138 22.3976C113.05 22.3976 112.96 22.3976 112.832 22.3976C112.911 22.2424 113.025 22.2493 113.135 22.2424H113.138Z" fill="url(#paint45_linear_466_968)"/>
<path d="M87.5376 22.3981L87.6168 22.2498L87.8548 22.3016V22.3981H87.5376Z" fill="url(#paint46_linear_466_968)"/>
<path d="M86.4065 22.2566C86.4342 22.3049 86.4583 22.3497 86.4858 22.398H86.1823C86.1961 22.2359 86.3065 22.2532 86.4065 22.2566Z" fill="url(#paint47_linear_466_968)"/>
<path d="M85.2682 22.3978C85.2959 22.3495 85.3199 22.3012 85.3476 22.2563C85.4338 22.2737 85.5166 22.2908 85.6028 22.3082C85.5994 22.3392 85.5925 22.3702 85.5891 22.4012C85.4821 22.4012 85.3752 22.4012 85.2682 22.4012V22.3978Z" fill="url(#paint48_linear_466_968)"/>
<path d="M84.1366 22.2498C84.1641 22.2981 84.1917 22.3498 84.2159 22.3981H83.9019C83.9124 22.2256 84.0365 22.2567 84.1331 22.2498H84.1366Z" fill="url(#paint49_linear_466_968)"/>
<path d="M79.598 22.3981L79.6808 22.2498L79.9395 22.3049C79.936 22.3361 79.9291 22.3671 79.9257 22.3981H79.6015H79.598Z" fill="url(#paint50_linear_466_968)"/>
<path d="M78.4663 22.2565L78.5456 22.4014H78.2316C78.2455 22.2289 78.3628 22.253 78.4663 22.2565Z" fill="url(#paint51_linear_466_968)"/>
<path d="M76.3562 22.2424C76.3562 22.2941 76.3562 22.3459 76.3562 22.3976C76.2665 22.3976 76.1769 22.3976 76.0492 22.3976C76.125 22.2389 76.2459 22.2493 76.3562 22.2424Z" fill="url(#paint52_linear_466_968)"/>
<path d="M126.511 22.2563L126.591 22.3978H126.304C126.301 22.3737 126.294 22.3495 126.291 22.3288C126.363 22.3047 126.439 22.2805 126.511 22.2563Z" fill="url(#paint53_linear_466_968)"/>
<path d="M93.8569 13.8886C93.8569 13.8438 93.8569 13.7989 93.8569 13.7541C93.8845 13.7472 93.912 13.7403 93.9431 13.7334L94.1052 13.8472C94.0224 13.8609 93.9431 13.8748 93.8604 13.8886H93.8569Z" fill="url(#paint54_linear_466_968)"/>
<path d="M43.2219 10.8187C43.3461 10.7049 43.4288 10.729 43.4633 10.8946C43.3839 10.8705 43.3046 10.8429 43.2219 10.8187Z" fill="url(#paint55_linear_466_968)"/>
<path d="M73.6029 22.2461C73.6029 22.2979 73.6029 22.3462 73.6029 22.3979C73.5201 22.3979 73.4374 22.3979 73.358 22.3979C73.3545 22.3703 73.3477 22.3393 73.3442 22.3117C73.4304 22.291 73.5167 22.2669 73.6029 22.2461Z" fill="url(#paint56_linear_466_968)"/>
<path d="M1.65837 14.0578C1.75495 13.9508 1.83773 13.975 1.90671 14.0923C1.81359 14.1647 1.72736 14.1855 1.65837 14.0578Z" fill="url(#paint57_linear_466_968)"/>
<path d="M110.374 1.10938C110.326 1.13697 110.274 1.16112 110.226 1.18871C110.226 1.15077 110.216 1.10938 110.23 1.07834C110.254 1.03005 110.295 0.992105 110.326 0.947266C110.343 1.00245 110.357 1.05419 110.374 1.10938Z" fill="url(#paint58_linear_466_968)"/>
<path d="M58.2896 22.2528C58.3274 22.2528 58.3723 22.2356 58.4034 22.2528C58.4516 22.2769 58.4861 22.3184 58.5275 22.3528C58.4861 22.3736 58.4482 22.4046 58.4034 22.4114C58.3723 22.4149 58.3344 22.3908 58.2999 22.3769C58.2999 22.3356 58.2929 22.2942 58.2896 22.2528Z" fill="url(#paint59_linear_466_968)"/>
<path d="M12.5281 11.471C12.6419 11.4675 12.7454 11.4779 12.7558 11.6262C12.6798 11.5744 12.604 11.5227 12.5281 11.471Z" fill="url(#paint60_linear_466_968)"/>
<path d="M12.1856 11.2328C12.3098 11.2225 12.4235 11.2328 12.4305 11.3984C12.3476 11.3432 12.2683 11.288 12.1856 11.2328Z" fill="url(#paint61_linear_466_968)"/>
<path d="M11.1582 10.857C11.2717 10.8227 11.3576 10.8398 11.3783 10.9774C11.306 10.9361 11.2304 10.8983 11.1582 10.857Z" fill="url(#paint62_linear_466_968)"/>
<path d="M44.2771 11.1361C44.4009 11.0295 44.4181 11.1292 44.4387 11.2221L44.2771 11.1361Z" fill="url(#paint63_linear_466_968)"/>
<path d="M0.340312 13.2925C0.312803 13.3612 0.285294 13.4334 0.257784 13.5022C0.175255 13.3887 0.244029 13.3337 0.340312 13.2925Z" fill="url(#paint64_linear_466_968)"/>
<path d="M20.0468 14.0503C20.0674 13.9471 20.0948 13.8612 20.2083 13.985L20.0468 14.0503Z" fill="url(#paint65_linear_466_968)"/>
<path d="M42.4085 10.8945C42.4291 10.7914 42.4532 10.7054 42.5702 10.8258C42.5151 10.8498 42.4635 10.8739 42.4085 10.8945Z" fill="url(#paint66_linear_466_968)"/>
<path d="M104.95 13.73C104.957 13.7816 104.961 13.8332 104.968 13.8848C104.851 13.8435 104.84 13.7919 104.95 13.73Z" fill="url(#paint67_linear_466_968)"/>
<path d="M112.968 13.73C112.975 13.7816 112.978 13.8332 112.985 13.8848C112.869 13.8435 112.859 13.7954 112.968 13.73Z" fill="url(#paint68_linear_466_968)"/>
<path d="M131.93 13.885C131.937 13.8334 131.94 13.7783 131.947 13.7268C132.061 13.7921 132.05 13.8437 131.93 13.885Z" fill="url(#paint69_linear_466_968)"/>
<path d="M136.872 13.73C136.875 13.7816 136.883 13.8332 136.886 13.8813C136.772 13.8401 136.758 13.7919 136.872 13.73Z" fill="url(#paint70_linear_466_968)"/>
<path d="M89.7933 11.7222C89.7417 11.7222 89.6901 11.7154 89.6351 11.7119C89.6729 11.6878 89.7073 11.6603 89.7451 11.6362L89.7898 11.7222H89.7933Z" fill="url(#paint71_linear_466_968)"/>
<path d="M72.7888 22.0841C72.7819 22.0426 72.7749 22.0046 72.7681 21.9631C72.7991 21.97 72.8302 21.9769 72.8613 21.9839C72.8372 22.0184 72.813 22.0495 72.7853 22.0841H72.7888Z" fill="url(#paint72_linear_466_968)"/>
<path d="M129.36 13.865C129.36 13.865 129.326 13.8857 129.311 13.8961C129.301 13.8719 129.288 13.8477 129.277 13.8201C129.304 13.8338 129.336 13.8511 129.363 13.865H129.36Z" fill="url(#paint73_linear_466_968)"/>
<path d="M111.7 8.40088C111.72 8.42852 111.741 8.45617 111.762 8.48727C111.741 8.45963 111.72 8.43198 111.7 8.40088Z" fill="url(#paint74_linear_466_968)"/>
<path d="M81.798 13.8232C81.8228 13.8445 81.8441 13.8658 81.869 13.8906C81.8441 13.8694 81.8228 13.8481 81.798 13.8232Z" fill="url(#paint75_linear_466_968)"/>
<path d="M129.36 13.8648L129.275 13.8199C129.305 13.8026 129.34 13.7887 129.372 13.7715C129.367 13.8026 129.364 13.8336 129.36 13.8648Z" fill="url(#paint76_linear_466_968)"/>
<path d="M47.9127 13.5024C47.9404 13.5232 47.968 13.5474 47.9991 13.5681C47.9714 13.5474 47.9437 13.5232 47.9127 13.5024Z" fill="url(#paint77_linear_466_968)"/>
<path d="M58.2887 22.2532C58.2922 22.2946 58.2955 22.336 58.299 22.3775C58.261 22.3602 58.2195 22.3395 58.1815 22.3222C58.2161 22.3015 58.2541 22.2773 58.2887 22.2566V22.2532Z" fill="url(#paint78_linear_466_968)"/>
<path d="M111.193 6.86643C111.172 6.83878 111.152 6.81114 111.131 6.78003C111.152 6.80768 111.172 6.83532 111.193 6.86643Z" fill="url(#paint79_linear_466_968)"/>
<path d="M109.983 3.59595C109.955 3.60286 109.928 3.60632 109.897 3.61323C109.924 3.60632 109.952 3.60286 109.983 3.59595Z" fill="url(#paint80_linear_466_968)"/>
</g>
<defs>
<linearGradient id="paint0_linear_466_968" x1="0.188675" y1="3.48465" x2="50.9304" y2="3.48465" gradientUnits="userSpaceOnUse">
<stop stop-color="#83E617"/>
<stop offset="1" stop-color="#83E617" stop-opacity="0.4"/>
</linearGradient>
<linearGradient id="paint1_linear_466_968" x1="0.243134" y1="19.9116" x2="50.886" y2="19.9116" gradientUnits="userSpaceOnUse">
<stop stop-color="#83E617"/>
<stop offset="1" stop-color="#83E617" stop-opacity="0.4"/>
</linearGradient>
<linearGradient id="paint2_linear_466_968" x1="0.182159" y1="11.5115" x2="50.948" y2="11.5115" gradientUnits="userSpaceOnUse">
<stop stop-color="#83E617"/>
<stop offset="1" stop-color="#83E617" stop-opacity="0.4"/>
</linearGradient>
<linearGradient id="paint3_linear_466_968" x1="65.5283" y1="7.36265" x2="80.6843" y2="7.36265" gradientUnits="userSpaceOnUse">
<stop stop-color="#83E617"/>
<stop offset="1" stop-color="#83E617" stop-opacity="0.4"/>
</linearGradient>
<linearGradient id="paint4_linear_466_968" x1="129.267" y1="7.49417" x2="139.543" y2="7.49417" gradientUnits="userSpaceOnUse">
<stop stop-color="#83E617"/>
<stop offset="1" stop-color="#83E617" stop-opacity="0.4"/>
</linearGradient>
<linearGradient id="paint5_linear_466_968" x1="95.9294" y1="7.49781" x2="103.825" y2="7.49781" gradientUnits="userSpaceOnUse">
<stop stop-color="#83E617"/>
<stop offset="1" stop-color="#83E617" stop-opacity="0.4"/>
</linearGradient>
<linearGradient id="paint6_linear_466_968" x1="81.798" y1="7.48975" x2="89.7934" y2="7.48975" gradientUnits="userSpaceOnUse">
<stop stop-color="#83E617"/>
<stop offset="1" stop-color="#83E617" stop-opacity="0.4"/>
</linearGradient>
<linearGradient id="paint7_linear_466_968" x1="56.5225" y1="7.49409" x2="64.8153" y2="7.49409" gradientUnits="userSpaceOnUse">
<stop stop-color="#83E617"/>
<stop offset="1" stop-color="#83E617" stop-opacity="0.4"/>
</linearGradient>
<linearGradient id="paint8_linear_466_968" x1="116.822" y1="7.48331" x2="127.393" y2="7.48331" gradientUnits="userSpaceOnUse">
<stop stop-color="#83E617"/>
<stop offset="1" stop-color="#83E617" stop-opacity="0.4"/>
</linearGradient>
<linearGradient id="paint9_linear_466_968" x1="104.947" y1="7.51624" x2="115.795" y2="7.51624" gradientUnits="userSpaceOnUse">
<stop stop-color="#83E617"/>
<stop offset="1" stop-color="#83E617" stop-opacity="0.4"/>
</linearGradient>
<linearGradient id="paint10_linear_466_968" x1="91.2913" y1="7.48969" x2="94.1335" y2="7.48969" gradientUnits="userSpaceOnUse">
<stop stop-color="#83E617"/>
<stop offset="1" stop-color="#83E617" stop-opacity="0.4"/>
</linearGradient>
<linearGradient id="paint11_linear_466_968" x1="56.4985" y1="19.7304" x2="62.814" y2="19.7304" gradientUnits="userSpaceOnUse">
<stop stop-color="#83E617"/>
<stop offset="1" stop-color="#83E617" stop-opacity="0.4"/>
</linearGradient>
<linearGradient id="paint12_linear_466_968" x1="118.26" y1="19.3157" x2="122.083" y2="19.3157" gradientUnits="userSpaceOnUse">
<stop stop-color="#83E617"/>
<stop offset="1" stop-color="#83E617" stop-opacity="0.4"/>
</linearGradient>
<linearGradient id="paint13_linear_466_968" x1="106.418" y1="19.3091" x2="110.21" y2="19.3091" gradientUnits="userSpaceOnUse">
<stop stop-color="#83E617"/>
<stop offset="1" stop-color="#83E617" stop-opacity="0.4"/>
</linearGradient>
<linearGradient id="paint14_linear_466_968" x1="96.6644" y1="19.6839" x2="99.8995" y2="19.6839" gradientUnits="userSpaceOnUse">
<stop stop-color="#83E617"/>
<stop offset="1" stop-color="#83E617" stop-opacity="0.4"/>
</linearGradient>
<linearGradient id="paint15_linear_466_968" x1="126.273" y1="20.5441" x2="130.154" y2="20.5441" gradientUnits="userSpaceOnUse">
<stop stop-color="#83E617"/>
<stop offset="1" stop-color="#83E617" stop-opacity="0.4"/>
</linearGradient>
<linearGradient id="paint16_linear_466_968" x1="68.9433" y1="20.6717" x2="72.7892" y2="20.6717" gradientUnits="userSpaceOnUse">
<stop stop-color="#83E617"/>
<stop offset="1" stop-color="#83E617" stop-opacity="0.4"/>
</linearGradient>
<linearGradient id="paint17_linear_466_968" x1="102.983" y1="20.6705" x2="106.012" y2="20.6705" gradientUnits="userSpaceOnUse">
<stop stop-color="#83E617"/>
<stop offset="1" stop-color="#83E617" stop-opacity="0.4"/>
</linearGradient>
<linearGradient id="paint18_linear_466_968" x1="63.2166" y1="20.671" x2="66.2008" y2="20.671" gradientUnits="userSpaceOnUse">
<stop stop-color="#83E617"/>
<stop offset="1" stop-color="#83E617" stop-opacity="0.4"/>
</linearGradient>
<linearGradient id="paint19_linear_466_968" x1="76.1074" y1="19.2504" x2="77.4974" y2="19.2504" gradientUnits="userSpaceOnUse">
<stop stop-color="#83E617"/>
<stop offset="1" stop-color="#83E617" stop-opacity="0.4"/>
</linearGradient>
<linearGradient id="paint20_linear_466_968" x1="115.013" y1="20.7106" x2="117.889" y2="20.7106" gradientUnits="userSpaceOnUse">
<stop stop-color="#83E617"/>
<stop offset="1" stop-color="#83E617" stop-opacity="0.4"/>
</linearGradient>
<linearGradient id="paint21_linear_466_968" x1="122.773" y1="20.6847" x2="125.686" y2="20.6847" gradientUnits="userSpaceOnUse">
<stop stop-color="#83E617"/>
<stop offset="1" stop-color="#83E617" stop-opacity="0.4"/>
</linearGradient>
<linearGradient id="paint22_linear_466_968" x1="88.3066" y1="20.6815" x2="91.1664" y2="20.6815" gradientUnits="userSpaceOnUse">
<stop stop-color="#83E617"/>
<stop offset="1" stop-color="#83E617" stop-opacity="0.4"/>
</linearGradient>
<linearGradient id="paint23_linear_466_968" x1="83.889" y1="19.2919" x2="85.348" y2="19.2919" gradientUnits="userSpaceOnUse">
<stop stop-color="#83E617"/>
<stop offset="1" stop-color="#83E617" stop-opacity="0.4"/>
</linearGradient>
<linearGradient id="paint24_linear_466_968" x1="112.89" y1="19.2488" x2="114.276" y2="19.2488" gradientUnits="userSpaceOnUse">
<stop stop-color="#83E617"/>
<stop offset="1" stop-color="#83E617" stop-opacity="0.4"/>
</linearGradient>
<linearGradient id="paint25_linear_466_968" x1="80.5018" y1="20.6809" x2="83.4191" y2="20.6809" gradientUnits="userSpaceOnUse">
<stop stop-color="#83E617"/>
<stop offset="1" stop-color="#83E617" stop-opacity="0.4"/>
</linearGradient>
<linearGradient id="paint26_linear_466_968" x1="66.4589" y1="20.3953" x2="68.7044" y2="20.3953" gradientUnits="userSpaceOnUse">
<stop stop-color="#83E617"/>
<stop offset="1" stop-color="#83E617" stop-opacity="0.4"/>
</linearGradient>
<linearGradient id="paint27_linear_466_968" x1="110.42" y1="20.4177" x2="112.656" y2="20.4177" gradientUnits="userSpaceOnUse">
<stop stop-color="#83E617"/>
<stop offset="1" stop-color="#83E617" stop-opacity="0.4"/>
</linearGradient>
<linearGradient id="paint28_linear_466_968" x1="100.359" y1="20.4248" x2="102.582" y2="20.4248" gradientUnits="userSpaceOnUse">
<stop stop-color="#83E617"/>
<stop offset="1" stop-color="#83E617" stop-opacity="0.4"/>
</linearGradient>
<linearGradient id="paint29_linear_466_968" x1="91.8138" y1="20.6763" x2="93.9107" y2="20.6763" gradientUnits="userSpaceOnUse">
<stop stop-color="#83E617"/>
<stop offset="1" stop-color="#83E617" stop-opacity="0.4"/>
</linearGradient>
<linearGradient id="paint30_linear_466_968" x1="73.3765" y1="20.639" x2="75.9694" y2="20.639" gradientUnits="userSpaceOnUse">
<stop stop-color="#83E617"/>
<stop offset="1" stop-color="#83E617" stop-opacity="0.4"/>
</linearGradient>
<linearGradient id="paint31_linear_466_968" x1="85.3025" y1="20.6267" x2="87.6169" y2="20.6267" gradientUnits="userSpaceOnUse">
<stop stop-color="#83E617"/>
<stop offset="1" stop-color="#83E617" stop-opacity="0.4"/>
</linearGradient>
<linearGradient id="paint32_linear_466_968" x1="78.239" y1="20.661" x2="79.6807" y2="20.661" gradientUnits="userSpaceOnUse">
<stop stop-color="#83E617"/>
<stop offset="1" stop-color="#83E617" stop-opacity="0.4"/>
</linearGradient>
<linearGradient id="paint33_linear_466_968" x1="71.1747" y1="17.7522" x2="72.082" y2="17.7522" gradientUnits="userSpaceOnUse">
<stop stop-color="#83E617"/>
<stop offset="1" stop-color="#83E617" stop-opacity="0.4"/>
</linearGradient>
<linearGradient id="paint34_linear_466_968" x1="69.632" y1="17.7521" x2="70.5258" y2="17.7521" gradientUnits="userSpaceOnUse">
<stop stop-color="#83E617"/>
<stop offset="1" stop-color="#83E617" stop-opacity="0.4"/>
</linearGradient>
<linearGradient id="paint35_linear_466_968" x1="78.6185" y1="17.4225" x2="79.3711" y2="17.4225" gradientUnits="userSpaceOnUse">
<stop stop-color="#83E617"/>
<stop offset="1" stop-color="#83E617" stop-opacity="0.4"/>
</linearGradient>
<linearGradient id="paint36_linear_466_968" x1="74.8177" y1="22.326" x2="75.2971" y2="22.326" gradientUnits="userSpaceOnUse">
<stop stop-color="#83E617"/>
<stop offset="1" stop-color="#83E617" stop-opacity="0.4"/>
</linearGradient>
<linearGradient id="paint37_linear_466_968" x1="56.4255" y1="22.3334" x2="56.8324" y2="22.3334" gradientUnits="userSpaceOnUse">
<stop stop-color="#83E617"/>
<stop offset="1" stop-color="#83E617" stop-opacity="0.4"/>
</linearGradient>
<linearGradient id="paint38_linear_466_968" x1="129.991" y1="22.3256" x2="130.401" y2="22.3256" gradientUnits="userSpaceOnUse">
<stop stop-color="#83E617"/>
<stop offset="1" stop-color="#83E617" stop-opacity="0.4"/>
</linearGradient>
<linearGradient id="paint39_linear_466_968" x1="26.4491" y1="10.8175" x2="26.7733" y2="10.8175" gradientUnits="userSpaceOnUse">
<stop stop-color="#83E617"/>
<stop offset="1" stop-color="#83E617" stop-opacity="0.4"/>
</linearGradient>
<linearGradient id="paint40_linear_466_968" x1="77.4875" y1="22.32" x2="77.8014" y2="22.32" gradientUnits="userSpaceOnUse">
<stop stop-color="#83E617"/>
<stop offset="1" stop-color="#83E617" stop-opacity="0.4"/>
</linearGradient>
<linearGradient id="paint41_linear_466_968" x1="114.275" y1="22.32" x2="114.59" y2="22.32" gradientUnits="userSpaceOnUse">
<stop stop-color="#83E617"/>
<stop offset="1" stop-color="#83E617" stop-opacity="0.4"/>
</linearGradient>
<linearGradient id="paint42_linear_466_968" x1="27.8496" y1="11.1179" x2="28.2359" y2="11.1179" gradientUnits="userSpaceOnUse">
<stop stop-color="#83E617"/>
<stop offset="1" stop-color="#83E617" stop-opacity="0.4"/>
</linearGradient>
<linearGradient id="paint43_linear_466_968" x1="128.549" y1="22.3256" x2="128.859" y2="22.3256" gradientUnits="userSpaceOnUse">
<stop stop-color="#83E617"/>
<stop offset="1" stop-color="#83E617" stop-opacity="0.4"/>
</linearGradient>
<linearGradient id="paint44_linear_466_968" x1="127.725" y1="22.3256" x2="128.036" y2="22.3256" gradientUnits="userSpaceOnUse">
<stop stop-color="#83E617"/>
<stop offset="1" stop-color="#83E617" stop-opacity="0.4"/>
</linearGradient>
<linearGradient id="paint45_linear_466_968" x1="112.832" y1="22.32" x2="113.138" y2="22.32" gradientUnits="userSpaceOnUse">
<stop stop-color="#83E617"/>
<stop offset="1" stop-color="#83E617" stop-opacity="0.4"/>
</linearGradient>
<linearGradient id="paint46_linear_466_968" x1="87.5376" y1="22.3239" x2="87.8548" y2="22.3239" gradientUnits="userSpaceOnUse">
<stop stop-color="#83E617"/>
<stop offset="1" stop-color="#83E617" stop-opacity="0.4"/>
</linearGradient>
<linearGradient id="paint47_linear_466_968" x1="86.1823" y1="22.3262" x2="86.4858" y2="22.3262" gradientUnits="userSpaceOnUse">
<stop stop-color="#83E617"/>
<stop offset="1" stop-color="#83E617" stop-opacity="0.4"/>
</linearGradient>
<linearGradient id="paint48_linear_466_968" x1="85.2682" y1="22.3288" x2="85.6028" y2="22.3288" gradientUnits="userSpaceOnUse">
<stop stop-color="#83E617"/>
<stop offset="1" stop-color="#83E617" stop-opacity="0.4"/>
</linearGradient>
<linearGradient id="paint49_linear_466_968" x1="83.9019" y1="22.3239" x2="84.2159" y2="22.3239" gradientUnits="userSpaceOnUse">
<stop stop-color="#83E617"/>
<stop offset="1" stop-color="#83E617" stop-opacity="0.4"/>
</linearGradient>
<linearGradient id="paint50_linear_466_968" x1="79.598" y1="22.3239" x2="79.9395" y2="22.3239" gradientUnits="userSpaceOnUse">
<stop stop-color="#83E617"/>
<stop offset="1" stop-color="#83E617" stop-opacity="0.4"/>
</linearGradient>
<linearGradient id="paint51_linear_466_968" x1="78.2316" y1="22.3274" x2="78.5456" y2="22.3274" gradientUnits="userSpaceOnUse">
<stop stop-color="#83E617"/>
<stop offset="1" stop-color="#83E617" stop-opacity="0.4"/>
</linearGradient>
<linearGradient id="paint52_linear_466_968" x1="76.0492" y1="22.32" x2="76.3562" y2="22.32" gradientUnits="userSpaceOnUse">
<stop stop-color="#83E617"/>
<stop offset="1" stop-color="#83E617" stop-opacity="0.4"/>
</linearGradient>
<linearGradient id="paint53_linear_466_968" x1="126.291" y1="22.3271" x2="126.591" y2="22.3271" gradientUnits="userSpaceOnUse">
<stop stop-color="#83E617"/>
<stop offset="1" stop-color="#83E617" stop-opacity="0.4"/>
</linearGradient>
<linearGradient id="paint54_linear_466_968" x1="93.8569" y1="13.811" x2="94.1052" y2="13.811" gradientUnits="userSpaceOnUse">
<stop stop-color="#83E617"/>
<stop offset="1" stop-color="#83E617" stop-opacity="0.4"/>
</linearGradient>
<linearGradient id="paint55_linear_466_968" x1="43.2219" y1="10.8216" x2="43.4633" y2="10.8216" gradientUnits="userSpaceOnUse">
<stop stop-color="#83E617"/>
<stop offset="1" stop-color="#83E617" stop-opacity="0.4"/>
</linearGradient>
<linearGradient id="paint56_linear_466_968" x1="73.3442" y1="22.322" x2="73.6029" y2="22.322" gradientUnits="userSpaceOnUse">
<stop stop-color="#83E617"/>
<stop offset="1" stop-color="#83E617" stop-opacity="0.4"/>
</linearGradient>
<linearGradient id="paint57_linear_466_968" x1="1.65837" y1="14.0698" x2="1.90671" y2="14.0698" gradientUnits="userSpaceOnUse">
<stop stop-color="#83E617"/>
<stop offset="1" stop-color="#83E617" stop-opacity="0.4"/>
</linearGradient>
<linearGradient id="paint58_linear_466_968" x1="110.222" y1="1.06799" x2="110.374" y2="1.06799" gradientUnits="userSpaceOnUse">
<stop stop-color="#83E617"/>
<stop offset="1" stop-color="#83E617" stop-opacity="0.4"/>
</linearGradient>
<linearGradient id="paint59_linear_466_968" x1="58.2896" y1="22.3284" x2="58.5275" y2="22.3284" gradientUnits="userSpaceOnUse">
<stop stop-color="#83E617"/>
<stop offset="1" stop-color="#83E617" stop-opacity="0.4"/>
</linearGradient>
<linearGradient id="paint60_linear_466_968" x1="12.5281" y1="11.5483" x2="12.7558" y2="11.5483" gradientUnits="userSpaceOnUse">
<stop stop-color="#83E617"/>
<stop offset="1" stop-color="#83E617" stop-opacity="0.4"/>
</linearGradient>
<linearGradient id="paint61_linear_466_968" x1="12.1856" y1="11.3142" x2="12.4305" y2="11.3142" gradientUnits="userSpaceOnUse">
<stop stop-color="#83E617"/>
<stop offset="1" stop-color="#83E617" stop-opacity="0.4"/>
</linearGradient>
<linearGradient id="paint62_linear_466_968" x1="11.1582" y1="10.9096" x2="11.3783" y2="10.9096" gradientUnits="userSpaceOnUse">
<stop stop-color="#83E617"/>
<stop offset="1" stop-color="#83E617" stop-opacity="0.4"/>
</linearGradient>
<linearGradient id="paint63_linear_466_968" x1="44.2771" y1="11.1561" x2="44.4387" y2="11.1561" gradientUnits="userSpaceOnUse">
<stop stop-color="#83E617"/>
<stop offset="1" stop-color="#83E617" stop-opacity="0.4"/>
</linearGradient>
<linearGradient id="paint64_linear_466_968" x1="0.220963" y1="13.3973" x2="0.340312" y2="13.3973" gradientUnits="userSpaceOnUse">
<stop stop-color="#83E617"/>
<stop offset="1" stop-color="#83E617" stop-opacity="0.4"/>
</linearGradient>
<linearGradient id="paint65_linear_466_968" x1="20.0468" y1="13.9871" x2="20.2083" y2="13.9871" gradientUnits="userSpaceOnUse">
<stop stop-color="#83E617"/>
<stop offset="1" stop-color="#83E617" stop-opacity="0.4"/>
</linearGradient>
<linearGradient id="paint66_linear_466_968" x1="42.4085" y1="10.8308" x2="42.5702" y2="10.8308" gradientUnits="userSpaceOnUse">
<stop stop-color="#83E617"/>
<stop offset="1" stop-color="#83E617" stop-opacity="0.4"/>
</linearGradient>
<linearGradient id="paint67_linear_466_968" x1="104.873" y1="13.8074" x2="104.968" y2="13.8074" gradientUnits="userSpaceOnUse">
<stop stop-color="#83E617"/>
<stop offset="1" stop-color="#83E617" stop-opacity="0.4"/>
</linearGradient>
<linearGradient id="paint68_linear_466_968" x1="112.892" y1="13.8074" x2="112.985" y2="13.8074" gradientUnits="userSpaceOnUse">
<stop stop-color="#83E617"/>
<stop offset="1" stop-color="#83E617" stop-opacity="0.4"/>
</linearGradient>
<linearGradient id="paint69_linear_466_968" x1="131.93" y1="13.8059" x2="132.026" y2="13.8059" gradientUnits="userSpaceOnUse">
<stop stop-color="#83E617"/>
<stop offset="1" stop-color="#83E617" stop-opacity="0.4"/>
</linearGradient>
<linearGradient id="paint70_linear_466_968" x1="136.793" y1="13.8057" x2="136.886" y2="13.8057" gradientUnits="userSpaceOnUse">
<stop stop-color="#83E617"/>
<stop offset="1" stop-color="#83E617" stop-opacity="0.4"/>
</linearGradient>
<linearGradient id="paint71_linear_466_968" x1="89.6351" y1="11.6792" x2="89.7933" y2="11.6792" gradientUnits="userSpaceOnUse">
<stop stop-color="#83E617"/>
<stop offset="1" stop-color="#83E617" stop-opacity="0.4"/>
</linearGradient>
<linearGradient id="paint72_linear_466_968" x1="72.7681" y1="22.0236" x2="72.8613" y2="22.0236" gradientUnits="userSpaceOnUse">
<stop stop-color="#83E617"/>
<stop offset="1" stop-color="#83E617" stop-opacity="0.4"/>
</linearGradient>
<linearGradient id="paint73_linear_466_968" x1="129.277" y1="13.8581" x2="129.363" y2="13.8581" gradientUnits="userSpaceOnUse">
<stop stop-color="#83E617"/>
<stop offset="1" stop-color="#83E617" stop-opacity="0.4"/>
</linearGradient>
<linearGradient id="paint74_linear_466_968" x1="111.7" y1="8.44407" x2="111.762" y2="8.44407" gradientUnits="userSpaceOnUse">
<stop stop-color="#83E617"/>
<stop offset="1" stop-color="#83E617" stop-opacity="0.4"/>
</linearGradient>
<linearGradient id="paint75_linear_466_968" x1="81.798" y1="13.8569" x2="81.869" y2="13.8569" gradientUnits="userSpaceOnUse">
<stop stop-color="#83E617"/>
<stop offset="1" stop-color="#83E617" stop-opacity="0.4"/>
</linearGradient>
<linearGradient id="paint76_linear_466_968" x1="129.275" y1="13.8182" x2="129.372" y2="13.8182" gradientUnits="userSpaceOnUse">
<stop stop-color="#83E617"/>
<stop offset="1" stop-color="#83E617" stop-opacity="0.4"/>
</linearGradient>
<linearGradient id="paint77_linear_466_968" x1="47.9127" y1="13.5353" x2="47.9991" y2="13.5353" gradientUnits="userSpaceOnUse">
<stop stop-color="#83E617"/>
<stop offset="1" stop-color="#83E617" stop-opacity="0.4"/>
</linearGradient>
<linearGradient id="paint78_linear_466_968" x1="58.1815" y1="22.3153" x2="58.299" y2="22.3153" gradientUnits="userSpaceOnUse">
<stop stop-color="#83E617"/>
<stop offset="1" stop-color="#83E617" stop-opacity="0.4"/>
</linearGradient>
<linearGradient id="paint79_linear_466_968" x1="111.131" y1="6.82323" x2="111.193" y2="6.82323" gradientUnits="userSpaceOnUse">
<stop stop-color="#83E617"/>
<stop offset="1" stop-color="#83E617" stop-opacity="0.4"/>
</linearGradient>
<linearGradient id="paint80_linear_466_968" x1="109.897" y1="3.60459" x2="109.983" y2="3.60459" gradientUnits="userSpaceOnUse">
<stop stop-color="#83E617"/>
<stop offset="1" stop-color="#83E617" stop-opacity="0.4"/>
</linearGradient>
<clipPath id="clip0_466_968">
<rect width="139.348" height="22.4755" fill="white" transform="translate(0.192917 0.458252)"/>
</clipPath>
</defs>
</svg>
