<svg width="114" height="34" viewBox="0 0 114 34" fill="none" xmlns="http://www.w3.org/2000/svg">
<g clip-path="url(#clip0_466_1074)">
<path d="M30.1503 15.4519H24.6987V15.2871H25.8357V0.849035H24.6987V0.684326H29.5315C33.6212 0.684326 35.2723 2.25509 35.2723 4.40434C35.2723 6.67411 33.1431 7.71057 31.5764 7.95562C33.8903 8.24487 35.8308 9.25722 35.8308 11.6756C35.8308 14.094 33.8663 15.4559 30.1503 15.4559V15.4519ZM29.3468 7.91143H29.9052C31.4117 7.91143 32.0344 6.42503 32.0344 4.40031C32.0344 2.37561 31.5804 0.849035 29.5356 0.849035H29.3508V7.91143H29.3468ZM29.3468 8.07614V15.2832H30.1542C31.7049 15.2832 32.408 13.8369 32.408 11.5872C32.408 9.62681 31.3554 8.07614 30.0097 8.07614H29.3468Z" fill="url(#paint0_linear_466_1074)"/>
<path d="M45.0475 15.6565C41.3515 15.6565 39.4915 13.0935 39.5116 7.99156C39.5316 2.97396 41.3917 0.471191 45.0475 0.471191C48.7031 0.471191 50.5832 2.96994 50.5832 7.99156C50.5832 13.0132 48.7232 15.6565 45.0475 15.6565ZM45.0233 0.639918C43.4927 0.639918 43.103 2.19059 43.103 7.99156C43.103 13.7925 43.5169 15.4919 45.0434 15.4919C46.57 15.4919 46.9837 13.9211 46.9837 7.99156C46.9837 2.06204 46.574 0.639918 45.0233 0.639918Z" fill="url(#paint1_linear_466_1074)"/>
<path d="M62.7071 15.4512H56.5085V15.2866H57.8503V0.848414H57.1271C55.3314 0.848414 54.4637 2.87313 54.4637 4.77331H54.2588V0.679688H64.9608V4.76929H64.756C64.756 2.86911 63.8882 0.844396 62.0925 0.844396H61.3694V15.2825H62.7112V15.4473L62.7071 15.4512Z" fill="url(#paint2_linear_466_1074)"/>
<path d="M78.0966 11.776V15.4519H68.6359V15.2871H69.7728V0.849035H68.6359V0.684326H77.8917V4.36015H77.6869C77.6869 2.66485 76.6142 0.849035 74.8145 0.849035H73.2839V8.08015H74.1516C75.0395 8.08015 75.7826 7.41731 76.4455 6.46922V9.8558C75.7224 8.82335 75.0395 8.24487 74.1516 8.24487H73.2839V15.2871H75.0194C76.815 15.2871 77.8917 13.4673 77.8917 11.776H78.0966Z" fill="url(#paint3_linear_466_1074)"/>
<path d="M24.6987 18.0303H30.2547V18.195H29.3026C29.3427 18.5244 29.4473 18.8981 29.5516 19.1873L32.5485 28.0293L35.441 19.0627C35.5013 18.8779 35.5254 18.7734 35.5254 18.6489C35.5254 18.3195 35.2362 18.195 34.762 18.195H33.7497V18.0303H37.1805V18.195C36.1079 18.195 35.8788 18.4642 35.6298 19.2073L31.1666 33.0067H30.773L25.5464 18.195H24.6987V18.0303Z" fill="url(#paint4_linear_466_1074)"/>
<path d="M46.9508 33.0072H41.1658V32.8424H42.3028V18.4042H41.1658V18.2395H46.9508V18.4042H45.8139V32.8424H46.9508V33.0072Z" fill="url(#paint5_linear_466_1074)"/>
<path d="M61.6866 33.0072H61.2126L52.4952 19.1474V31.0065C52.4952 32.2037 52.9089 32.8465 54.2507 32.8465V33.0111H50.9445V32.8465C52.0171 32.8465 52.2862 32.2077 52.2862 31.0065V18.4042H51.1493V18.2395H56.0866L61.4778 26.8125V20.0353C61.4778 18.8381 60.6502 18.4042 59.5134 18.4042V18.2395H63.0245V18.4042C61.9519 18.4042 61.6827 19.043 61.6827 20.0353V33.0072H61.6866Z" fill="url(#paint6_linear_466_1074)"/>
<path d="M72.5607 33.0071C68.8648 33.0071 67.0049 30.4441 67.025 25.3422C67.045 20.3245 68.9051 17.8218 72.5607 17.8218C76.2165 17.8218 78.0966 20.3206 78.0966 25.3422C78.0966 30.3638 76.2366 33.0071 72.5607 33.0071ZM72.5407 17.9906C71.0101 17.9906 70.6204 19.5413 70.6204 25.3422C70.6204 31.1431 71.0342 32.8425 72.5607 32.8425C74.0874 32.8425 74.5011 31.2717 74.5011 25.3422C74.5011 19.4127 74.0874 17.9906 72.5407 17.9906Z" fill="url(#paint7_linear_466_1074)"/>
<path d="M113.819 13.3587H109.898C106.644 13.3587 103.792 11.3661 102.008 9.75113C101.317 9.12443 100.711 8.41739 100.181 7.65008C97.264 3.44398 92.4031 0.692139 86.8994 0.692139H81.5283C81.5283 9.61453 82.5728 16.8497 91.4952 16.8497C82.5728 16.8497 81.5283 24.0848 81.5283 33.0072H86.8994C92.3268 33.0072 97.1234 30.3317 100.056 26.2301C100.731 25.286 101.478 24.4022 102.358 23.6429C104.15 22.0922 106.853 20.3366 109.902 20.3366H113.823" fill="url(#paint8_linear_466_1074)"/>
<path d="M12.042 16.8497C20.9644 16.8497 22.009 9.61453 22.009 0.692139H16.6378C7.71542 0.692139 0.480286 7.92727 0.480286 16.8497C0.480286 25.7721 7.71542 33.0072 16.6378 33.0072H22.009C22.009 24.0848 20.9644 16.8497 12.042 16.8497Z" fill="url(#paint9_linear_466_1074)"/>
</g>
<defs>
<linearGradient id="paint0_linear_466_1074" x1="24.6987" y1="8.07013" x2="35.8308" y2="8.07013" gradientUnits="userSpaceOnUse">
<stop stop-color="#83E617"/>
<stop offset="1" stop-color="#83E617" stop-opacity="0.4"/>
</linearGradient>
<linearGradient id="paint1_linear_466_1074" x1="39.5115" y1="8.06385" x2="50.5832" y2="8.06385" gradientUnits="userSpaceOnUse">
<stop stop-color="#83E617"/>
<stop offset="1" stop-color="#83E617" stop-opacity="0.4"/>
</linearGradient>
<linearGradient id="paint2_linear_466_1074" x1="54.2588" y1="8.06545" x2="64.9608" y2="8.06545" gradientUnits="userSpaceOnUse">
<stop stop-color="#83E617"/>
<stop offset="1" stop-color="#83E617" stop-opacity="0.4"/>
</linearGradient>
<linearGradient id="paint3_linear_466_1074" x1="68.6359" y1="8.0681" x2="78.0966" y2="8.0681" gradientUnits="userSpaceOnUse">
<stop stop-color="#83E617"/>
<stop offset="1" stop-color="#83E617" stop-opacity="0.4"/>
</linearGradient>
<linearGradient id="paint4_linear_466_1074" x1="24.6987" y1="25.5185" x2="37.1805" y2="25.5185" gradientUnits="userSpaceOnUse">
<stop stop-color="#83E617"/>
<stop offset="1" stop-color="#83E617" stop-opacity="0.4"/>
</linearGradient>
<linearGradient id="paint5_linear_466_1074" x1="41.1658" y1="25.6233" x2="46.9508" y2="25.6233" gradientUnits="userSpaceOnUse">
<stop stop-color="#83E617"/>
<stop offset="1" stop-color="#83E617" stop-opacity="0.4"/>
</linearGradient>
<linearGradient id="paint6_linear_466_1074" x1="50.9445" y1="25.6253" x2="63.0245" y2="25.6253" gradientUnits="userSpaceOnUse">
<stop stop-color="#83E617"/>
<stop offset="1" stop-color="#83E617" stop-opacity="0.4"/>
</linearGradient>
<linearGradient id="paint7_linear_466_1074" x1="67.0248" y1="25.4145" x2="78.0966" y2="25.4145" gradientUnits="userSpaceOnUse">
<stop stop-color="#83E617"/>
<stop offset="1" stop-color="#83E617" stop-opacity="0.4"/>
</linearGradient>
<linearGradient id="paint8_linear_466_1074" x1="81.5283" y1="16.8497" x2="113.823" y2="16.8497" gradientUnits="userSpaceOnUse">
<stop stop-color="#83E617"/>
<stop offset="1" stop-color="#83E617" stop-opacity="0.4"/>
</linearGradient>
<linearGradient id="paint9_linear_466_1074" x1="0.480286" y1="16.8497" x2="22.009" y2="16.8497" gradientUnits="userSpaceOnUse">
<stop stop-color="#83E617"/>
<stop offset="1" stop-color="#83E617" stop-opacity="0.4"/>
</linearGradient>
<clipPath id="clip0_466_1074">
<rect width="113.501" height="32.5895" fill="white" transform="translate(0.321838 0.458252)"/>
</clipPath>
</defs>
</svg>
