<svg width="132" height="32" viewBox="0 0 132 32" fill="none" xmlns="http://www.w3.org/2000/svg">
<path d="M5.34349 20.9456V26.1206C5.35113 26.238 5.40178 26.3486 5.48578 26.4311C5.57514 26.5098 5.69008 26.5535 5.80922 26.554H6.00975V26.7674H0.00678023V26.5346H0.207309C0.26265 26.5473 0.320163 26.5473 0.375503 26.5346C0.428653 26.5144 0.477076 26.4836 0.517796 26.444C0.560065 26.4041 0.593188 26.3555 0.614843 26.3017C0.62735 26.2463 0.62735 26.1889 0.614843 26.1335V6.8437C0.627889 6.78622 0.627889 6.72653 0.614843 6.66904C0.595022 6.61191 0.564252 6.55918 0.524272 6.5138C0.483075 6.46857 0.432237 6.43319 0.375503 6.4103C0.320878 6.38458 0.261209 6.37133 0.200834 6.37149H0.000305176V6.13861C1.00455 6.05174 1.97888 5.7525 2.85877 5.2607C3.73865 4.7689 4.50402 4.09577 5.10415 3.28589H5.33702V19.5353C5.33702 19.7359 5.50521 19.8394 5.6734 19.6712L11.4176 12.9566C11.547 12.7885 11.45 12.6527 11.2818 12.6527H9.83924V12.4198H13.8693V12.6527H12.2586C12.175 12.6513 12.0921 12.6686 12.0159 12.7032C11.9399 12.738 11.8726 12.7892 11.8187 12.8531L9.80042 15.2078C9.73369 15.2918 9.69119 15.3924 9.67752 15.4988C9.6674 15.6037 9.68763 15.7092 9.73575 15.8029L15.0401 26.1529C15.0993 26.271 15.1885 26.3714 15.2988 26.444C15.4114 26.5143 15.5412 26.5524 15.6741 26.554H15.9457V26.7674H9.94923V26.5346H10.415C10.463 26.5348 10.5102 26.5213 10.5508 26.4958C10.5908 26.472 10.6241 26.4386 10.6478 26.3987C10.6733 26.3604 10.6868 26.3153 10.6867 26.2693C10.6877 26.2211 10.6741 26.1738 10.6478 26.1335L6.98653 18.9532C6.96784 18.9193 6.94121 18.8904 6.90891 18.8691C6.87853 18.848 6.84243 18.8367 6.80544 18.8368C6.77205 18.8243 6.7353 18.8243 6.70191 18.8368C6.66694 18.8506 6.63586 18.8729 6.61134 18.9014L5.70574 19.9753C5.47216 20.2446 5.34355 20.5891 5.34349 20.9456Z" fill="url(#paint0_linear_466_912)"/>
<path d="M89.5897 8.97827V14.205H88.891V8.97827H89.5897Z" fill="url(#paint1_linear_466_912)"/>
<path d="M92.8707 11.3402L92.9613 11.1979L95.1024 8.97266H96.008L93.8411 11.2432L96.131 14.2252H95.2383L93.2976 11.6895L92.8578 12.1165V14.2252H92.1398V8.97912H92.8578V11.0815L92.8707 11.3402Z" fill="url(#paint2_linear_466_912)"/>
<path d="M89.5923 23.7338C89.3475 23.8114 89.0923 23.8506 88.8355 23.8502C88.3573 23.859 87.8857 23.7383 87.4705 23.501C87.0818 23.2794 86.7617 22.9548 86.5456 22.563C86.3247 22.1547 86.2091 21.6979 86.2091 21.2336C86.2091 20.7695 86.3247 20.3126 86.5456 19.9043C86.7681 19.504 87.0943 19.1711 87.49 18.9405C87.882 18.7106 88.3293 18.5921 88.7837 18.5976C89.277 18.5977 89.7606 18.7342 90.181 18.9923L90.0322 19.3221C89.6598 19.081 89.2273 18.9489 88.7837 18.9405C88.3916 18.9414 88.007 19.0487 87.6711 19.251C87.3302 19.4547 87.049 19.7447 86.8561 20.0919C86.6561 20.4447 86.5534 20.8444 86.5585 21.2498C86.5537 21.648 86.647 22.0412 86.8301 22.3948C87.012 22.7326 87.2826 23.0144 87.6129 23.2098C87.966 23.4213 88.3724 23.5268 88.7837 23.5139C89.2281 23.5157 89.6636 23.3899 90.0387 23.1516L90.2004 23.4557C90.0115 23.576 89.8069 23.6696 89.5923 23.7338Z" fill="url(#paint3_linear_466_912)"/>
<path d="M96.4354 23.7786H96.0796V21.3657H92.9811V23.7786H92.6253V18.6423H92.9811V21.0293H96.0796V18.6423H96.4354V23.7786Z" fill="url(#paint4_linear_466_912)"/>
<path d="M101.146 19.0051C100.936 18.9461 100.718 18.9177 100.499 18.9209C100.207 18.9031 99.9179 18.9903 99.6842 19.1668C99.5879 19.2431 99.5104 19.3404 99.4577 19.4513C99.4063 19.5629 99.3797 19.6843 99.3802 19.8071C99.3801 19.9781 99.437 20.1442 99.5419 20.2793C99.6637 20.4101 99.8083 20.5175 99.9688 20.5963C100.137 20.6804 100.357 20.771 100.616 20.8745C100.864 20.9609 101.104 21.0691 101.334 21.1979C101.526 21.3103 101.69 21.4652 101.812 21.6508C101.956 21.8691 102.026 22.1274 102.013 22.3882C102.021 22.6545 101.951 22.9176 101.812 23.145C101.679 23.3654 101.483 23.5412 101.25 23.6495C100.987 23.7736 100.699 23.8356 100.409 23.8307C99.83 23.8174 99.2679 23.6352 98.7914 23.3068L98.9597 23.0156C99.1586 23.1625 99.376 23.282 99.6065 23.3714C99.8494 23.4685 100.108 23.5189 100.37 23.5202C100.582 23.523 100.792 23.4787 100.984 23.3908C101.179 23.3152 101.346 23.182 101.463 23.0092C101.591 22.8304 101.657 22.6145 101.651 22.3946C101.659 22.1886 101.597 21.9858 101.476 21.8189C101.366 21.665 101.222 21.5387 101.056 21.4502C100.846 21.3403 100.63 21.2431 100.409 21.1591C100.165 21.0727 99.9277 20.9711 99.6971 20.855C99.5108 20.7597 99.3492 20.6224 99.2249 20.4541C99.0894 20.2784 99.0184 20.0613 99.0244 19.8395C99.0171 19.6104 99.0802 19.3846 99.2054 19.1926C99.3333 19.0019 99.5128 18.8517 99.7229 18.7592C99.9513 18.6508 100.201 18.5955 100.454 18.5975C100.696 18.598 100.937 18.6285 101.172 18.688C101.395 18.7457 101.612 18.8259 101.819 18.9274L101.683 19.2055C101.509 19.1259 101.33 19.0589 101.146 19.0051Z" fill="url(#paint5_linear_466_912)"/>
<path d="M107.321 18.6423V19.0046H105.808V23.8044H105.452V19.0046H103.977V18.6618L107.321 18.6423Z" fill="url(#paint6_linear_466_912)"/>
<path d="M112.508 23.7792L111.163 21.5927C111.036 21.6023 110.908 21.6023 110.781 21.5927H109.979V23.7468H109.63V18.6106H110.801C111.068 18.6092 111.333 18.6643 111.577 18.7723C111.818 18.8755 112.027 19.0434 112.179 19.2575C112.344 19.4936 112.426 19.7781 112.411 20.0661C112.416 20.3625 112.343 20.6548 112.198 20.9135C112.052 21.1668 111.823 21.3629 111.551 21.4698L112.942 23.7468L112.508 23.7792ZM111.739 20.9458C111.934 20.714 112.042 20.4209 112.043 20.1178C112.042 19.9207 111.99 19.7271 111.894 19.555C111.793 19.3803 111.645 19.237 111.467 19.141C111.268 19.0361 111.045 18.9848 110.82 18.9923H109.992V21.2887H110.762C110.94 21.3018 111.118 21.2782 111.286 21.2192C111.454 21.1602 111.608 21.0672 111.739 20.9458Z" fill="url(#paint7_linear_466_912)"/>
<path d="M118.144 22.078H115.88L115.232 23.7793H114.877L117.051 18.4167H117.083L119.25 23.7793H118.849L118.144 22.078ZM118.014 21.7482L117.018 19.2253L116.002 21.7482H118.014Z" fill="url(#paint8_linear_466_912)"/>
<path d="M121.94 19.0946C122.071 18.944 122.235 18.8248 122.418 18.7453C122.602 18.6626 122.8 18.6207 123 18.6224C123.249 18.6144 123.496 18.6676 123.719 18.7777C123.901 18.8698 124.055 19.0082 124.165 19.1787C124.262 19.3387 124.313 19.5221 124.314 19.7092C124.322 19.9374 124.261 20.1627 124.139 20.356C124.018 20.5332 123.847 20.6706 123.648 20.7506C123.967 20.8384 124.249 21.0295 124.45 21.2939C124.658 21.579 124.767 21.9244 124.76 22.2772C124.765 22.5638 124.696 22.8468 124.559 23.0987C124.427 23.3381 124.23 23.5353 123.991 23.668C123.746 23.8043 123.469 23.8735 123.188 23.8685C122.887 23.8748 122.59 23.7866 122.341 23.6162L122.489 23.3834C122.682 23.5081 122.907 23.5745 123.136 23.5745C123.366 23.5745 123.59 23.5081 123.784 23.3834C123.974 23.2656 124.129 23.1006 124.237 22.9047C124.341 22.7052 124.397 22.4833 124.398 22.2578C124.395 22.0325 124.34 21.8109 124.237 21.6109C124.131 21.4157 123.977 21.2509 123.789 21.1322C123.593 21.0205 123.37 20.9625 123.143 20.9641H123.098V20.6212C123.317 20.6279 123.532 20.5517 123.699 20.4077C123.778 20.3359 123.84 20.2476 123.88 20.149C123.925 20.0519 123.946 19.9453 123.939 19.8385C123.939 19.7259 123.919 19.6143 123.88 19.5086C123.839 19.403 123.777 19.3064 123.699 19.2239C123.606 19.1357 123.496 19.0675 123.376 19.0234C123.257 18.9838 123.132 18.9662 123.007 18.9717C122.844 18.9651 122.682 18.9985 122.535 19.0687C122.39 19.1384 122.267 19.2429 122.172 19.3727C121.972 19.7102 121.874 20.0996 121.895 20.4919V23.8232H121.526V21.0223H121.015V20.7053H121.526V20.4077C121.494 19.9336 121.642 19.4646 121.94 19.0946Z" fill="url(#paint9_linear_466_912)"/>
<path d="M130.332 18.6423V19.0046H127.518V21.0423H130.048V21.3851H127.518V23.4615H130.429V23.7979H127.195V18.6618L130.332 18.6423Z" fill="url(#paint10_linear_466_912)"/>
<path d="M30.4214 4.39206C30.4214 4.35971 30.4214 4.3597 30.3826 4.32736C28.7927 3.53002 26.9669 3.33914 25.2464 3.79045C25.0645 3.843 24.9038 3.95167 24.7872 4.10096C24.6688 4.25195 24.607 4.43961 24.6125 4.6314V14.4768C24.5972 14.5362 24.5972 14.5986 24.6125 14.6579C24.6332 14.7142 24.6663 14.7651 24.7096 14.8067C24.7526 14.8528 24.8058 14.8882 24.8648 14.9102C24.9223 14.9335 24.984 14.9445 25.0459 14.9426H28.2932C28.413 14.9365 28.5262 14.8857 28.6102 14.8003C28.6907 14.7119 28.7345 14.5963 28.7332 14.4768V13.0278H28.9402V17.0643H28.7073V15.5894C28.7027 15.4757 28.6567 15.3676 28.5778 15.2854C28.4948 15.2033 28.3841 15.1549 28.2673 15.1496H25.1107C24.9912 15.1481 24.8756 15.1921 24.7872 15.2725C24.7426 15.3124 24.7069 15.3612 24.6824 15.4158C24.6578 15.4704 24.6451 15.5296 24.6449 15.5894V26.1206C24.6451 26.1794 24.658 26.2377 24.6825 26.2911C24.7071 26.3447 24.7427 26.3924 24.7872 26.4311C24.83 26.4723 24.8807 26.5046 24.9364 26.5257C24.9919 26.5468 25.0512 26.5564 25.1107 26.554H25.3111V26.7674H19.3147V26.5346H19.5151C19.6295 26.5329 19.7389 26.4867 19.8198 26.4058C19.9007 26.3249 19.9469 26.2155 19.9486 26.1011V10.4015C19.9821 8.5181 20.7478 6.72179 22.0834 5.39344C23.419 4.06508 25.2194 3.30914 27.103 3.28589C29.9168 3.28589 32.4979 4.76077 32.4979 6.74667C32.4962 7.37004 32.2474 7.96728 31.806 8.40745C31.3646 8.84764 30.7666 9.09482 30.1433 9.09482C29.5199 9.0931 28.9227 8.84428 28.4825 8.40288C28.0424 7.9615 27.7951 7.36357 27.7951 6.7402C27.8336 6.0811 28.1314 5.46405 28.6236 5.02399C29.1158 4.58394 29.7622 4.35672 30.4214 4.39206Z" fill="url(#paint11_linear_466_912)"/>
<path d="M52.2987 11.3402L52.3892 11.1979L54.5304 8.97266H55.4619L53.269 11.2432L55.5589 14.2252H54.6663L52.758 11.6895L52.318 12.1165V14.2252H51.5806V8.97912H52.2987V11.0815V11.3402Z" fill="url(#paint12_linear_466_912)"/>
<path d="M57.4418 10.2656C57.6752 9.85968 58.0094 9.52098 58.4121 9.2823C58.8161 9.04519 59.2762 8.92017 59.7447 8.92017C60.2132 8.92017 60.6732 9.04519 61.0773 9.2823C61.4836 9.52061 61.8222 9.85915 62.0605 10.2656C62.302 10.6681 62.4294 11.1287 62.4292 11.5981C62.4303 12.0688 62.3052 12.5312 62.067 12.9372C61.7089 13.5499 61.1231 13.9963 60.4374 14.1793C59.7517 14.3622 59.0215 14.2668 58.4056 13.914C58.0019 13.6794 57.6672 13.3425 57.4354 12.9372C57.195 12.5277 57.0718 12.06 57.0796 11.5852C57.0797 11.1208 57.2049 10.665 57.4418 10.2656ZM58.0887 12.5943C58.2574 12.8947 58.5029 13.1447 58.8002 13.3188C59.0996 13.4964 59.442 13.5882 59.79 13.584C60.1332 13.5898 60.4713 13.5002 60.7668 13.3252C61.0617 13.1504 61.305 12.9003 61.4719 12.6008C61.6418 12.2939 61.7309 11.9489 61.7309 11.5981C61.7309 11.2473 61.6418 10.9023 61.4719 10.5955C61.3009 10.2951 61.0559 10.0434 60.7603 9.86449C60.4634 9.6868 60.123 9.59499 59.777 9.59928C59.4302 9.59521 59.0893 9.6894 58.7938 9.87096C58.4846 10.0404 58.2274 10.2909 58.0498 10.5955C57.8814 10.9029 57.7924 11.2476 57.7911 11.5981C57.7861 11.9475 57.8755 12.2916 58.0498 12.5943H58.0887Z" fill="url(#paint13_linear_466_912)"/>
<path d="M66.7928 9.66417C66.5995 9.60624 66.3994 9.57363 66.1976 9.56714C65.9557 9.55963 65.7175 9.62991 65.5184 9.76767C65.4349 9.8312 65.3701 9.91615 65.3308 10.0135C65.2859 10.1061 65.2637 10.2081 65.2661 10.3111C65.2743 10.4128 65.3029 10.5118 65.3503 10.6021C65.402 10.6939 65.4752 10.7716 65.5637 10.8285C65.8246 10.9956 66.1048 11.1303 66.3982 11.2296C66.6353 11.3077 66.8632 11.4119 67.0774 11.5401C67.2675 11.656 67.4272 11.8157 67.5431 12.0059C67.6732 12.2385 67.7359 12.5028 67.7243 12.7692C67.731 13.0383 67.6591 13.3035 67.5173 13.5324C67.3691 13.761 67.161 13.9445 66.9157 14.0629C66.6345 14.202 66.3237 14.2708 66.01 14.2635C65.691 14.2635 65.3741 14.211 65.0721 14.1082C64.7939 14.0112 64.5306 13.8762 64.2894 13.7071L64.5934 13.1573C64.7894 13.3053 65.0077 13.4211 65.2403 13.5002C65.4627 13.5894 65.6993 13.6377 65.9389 13.6425C66.2018 13.6486 66.4599 13.5717 66.6763 13.4225C66.7823 13.3541 66.8674 13.2579 66.9221 13.1444C66.9747 13.0311 66.9991 12.9068 66.9933 12.7821C66.999 12.6726 66.9767 12.5636 66.9286 12.4651C66.885 12.3632 66.816 12.274 66.7281 12.2064C66.5029 12.0378 66.2546 11.9026 65.9907 11.8053C65.7381 11.7136 65.4918 11.6055 65.2532 11.4819C65.0573 11.3731 64.8873 11.223 64.7551 11.042C64.6087 10.8367 64.5336 10.589 64.5416 10.3369C64.5342 10.149 64.5692 9.96171 64.6443 9.78921C64.7194 9.61671 64.8324 9.4634 64.975 9.34074C65.2845 9.07572 65.6803 8.93307 66.0877 8.93967C66.6403 8.93375 67.1838 9.07916 67.6596 9.36014L67.3944 9.90999C67.2038 9.8055 67.002 9.72303 66.7928 9.66417Z" fill="url(#paint14_linear_466_912)"/>
<path d="M75.1993 8.81055V14.212H74.5007V10.8223L72.56 13.5521L70.6712 10.9193V14.2055H70.0244V8.81055L72.6119 12.4525L75.1993 8.81055Z" fill="url(#paint15_linear_466_912)"/>
<path d="M81.18 8.97876V9.62564H78.4826V11.2428H80.889V11.8897H78.4826V13.5069H81.277V14.1538H77.7775V8.91406L81.18 8.97876Z" fill="url(#paint16_linear_466_912)"/>
<path d="M86.6796 8.97827V9.62514H85.2759V14.1533H84.5708V9.62514H83.1995V8.97827H86.6796Z" fill="url(#paint17_linear_466_912)"/>
<path d="M54.5498 18.6423V19.0046H52.0269V21.1199H54.2651V21.4563H52.0269V23.7979H51.6711V18.6618L54.5498 18.6423Z" fill="url(#paint18_linear_466_912)"/>
<path d="M59.8239 23.7792L58.4784 21.5927C58.3492 21.6025 58.2194 21.6025 58.0903 21.5927H57.2947V23.7468H56.9389V18.6106H58.1098C58.377 18.6092 58.6414 18.6643 58.886 18.7723C59.1273 18.8755 59.3356 19.0434 59.4875 19.2575C59.653 19.4936 59.7351 19.7781 59.7205 20.0661C59.7252 20.3625 59.6515 20.6548 59.507 20.9135C59.3604 21.1668 59.1324 21.3629 58.8601 21.4698L60.2509 23.7468L59.8239 23.7792ZM59.0735 20.9458C59.2721 20.7164 59.3781 20.4213 59.3711 20.1178C59.3764 19.9199 59.3247 19.7246 59.2223 19.555C59.1233 19.3807 58.9777 19.2374 58.8018 19.141C58.6028 19.0361 58.3798 18.9848 58.1549 18.9923H57.2882V21.2887H58.0514C58.2364 21.3084 58.4235 21.288 58.6 21.2288C58.7763 21.1697 58.9379 21.0732 59.0735 20.9458Z" fill="url(#paint19_linear_466_912)"/>
<path d="M62.9604 18.6423V23.7786H62.5787V18.6423H62.9604Z" fill="url(#paint20_linear_466_912)"/>
<path d="M68.8523 18.6423V19.0046H66.0384V21.0423H68.5677V21.3851H66.0384V23.4615H68.9493V23.7979H65.6826V18.6618L68.8523 18.6423Z" fill="url(#paint21_linear_466_912)"/>
<path d="M71.3954 18.6421H72.689C73.2236 18.6203 73.7539 18.7456 74.2222 19.0043C74.6104 19.2377 74.9245 19.5764 75.1279 19.9811C75.3155 20.3682 75.4129 20.7929 75.4124 21.2231C75.4136 21.6769 75.2953 22.1231 75.0695 22.5169C74.8506 22.8942 74.5331 23.2051 74.1511 23.416C73.7706 23.6242 73.3427 23.7312 72.909 23.7265H71.3954V18.6421ZM72.812 23.4418C73.2061 23.4467 73.595 23.3533 73.9441 23.1701C74.2817 22.9956 74.5606 22.7257 74.7461 22.3939C74.953 22.0391 75.0562 21.6335 75.0437 21.2231C75.0483 20.8352 74.9548 20.4525 74.772 20.1104C74.5904 19.766 74.3114 19.4825 73.9699 19.2953C73.575 19.0765 73.1272 18.9713 72.6761 18.9913H71.7123V23.4418H72.812Z" fill="url(#paint22_linear_466_912)"/>
<path d="M80.6884 23.7792L79.3363 21.5927C79.2072 21.6025 79.0774 21.6025 78.9483 21.5927H78.1526V23.7468H77.7969V18.6106H78.9676C79.235 18.6092 79.4994 18.6643 79.7439 18.7723C79.9843 18.8772 80.1921 19.0447 80.3455 19.2575C80.5134 19.493 80.5997 19.777 80.5913 20.0661C80.5961 20.3625 80.5225 20.6548 80.3779 20.9135C80.2313 21.1668 80.0033 21.3629 79.731 21.4698L81.1217 23.7468L80.6884 23.7792ZM79.9315 20.9458C80.1274 20.7148 80.233 20.4207 80.2291 20.1178C80.2279 19.9207 80.1767 19.7271 80.0803 19.555C79.9813 19.3807 79.8356 19.2374 79.6598 19.141C79.4607 19.0361 79.2378 18.9848 79.0129 18.9923H78.1461V21.2887H78.9223C79.1053 21.3065 79.2899 21.2851 79.4639 21.226C79.6378 21.1669 79.7973 21.0714 79.9315 20.9458Z" fill="url(#paint23_linear_466_912)"/>
<path d="M83.8202 18.6423V23.7786H83.4644V18.6423H83.8202Z" fill="url(#paint24_linear_466_912)"/>
<defs>
<linearGradient id="paint0_linear_466_912" x1="0.000305176" y1="15.0266" x2="15.9457" y2="15.0266" gradientUnits="userSpaceOnUse">
<stop stop-color="#83E617"/>
<stop offset="1" stop-color="#83E617" stop-opacity="0.4"/>
</linearGradient>
<linearGradient id="paint1_linear_466_912" x1="88.891" y1="11.5916" x2="89.5897" y2="11.5916" gradientUnits="userSpaceOnUse">
<stop stop-color="#83E617"/>
<stop offset="1" stop-color="#83E617" stop-opacity="0.4"/>
</linearGradient>
<linearGradient id="paint2_linear_466_912" x1="92.1398" y1="11.599" x2="96.131" y2="11.599" gradientUnits="userSpaceOnUse">
<stop stop-color="#83E617"/>
<stop offset="1" stop-color="#83E617" stop-opacity="0.4"/>
</linearGradient>
<linearGradient id="paint3_linear_466_912" x1="86.2091" y1="21.224" x2="90.2004" y2="21.224" gradientUnits="userSpaceOnUse">
<stop stop-color="#83E617"/>
<stop offset="1" stop-color="#83E617" stop-opacity="0.4"/>
</linearGradient>
<linearGradient id="paint4_linear_466_912" x1="92.6253" y1="21.2104" x2="96.4354" y2="21.2104" gradientUnits="userSpaceOnUse">
<stop stop-color="#83E617"/>
<stop offset="1" stop-color="#83E617" stop-opacity="0.4"/>
</linearGradient>
<linearGradient id="paint5_linear_466_912" x1="98.7914" y1="21.2142" x2="102.014" y2="21.2142" gradientUnits="userSpaceOnUse">
<stop stop-color="#83E617"/>
<stop offset="1" stop-color="#83E617" stop-opacity="0.4"/>
</linearGradient>
<linearGradient id="paint6_linear_466_912" x1="103.977" y1="21.2234" x2="107.321" y2="21.2234" gradientUnits="userSpaceOnUse">
<stop stop-color="#83E617"/>
<stop offset="1" stop-color="#83E617" stop-opacity="0.4"/>
</linearGradient>
<linearGradient id="paint7_linear_466_912" x1="109.63" y1="21.1949" x2="112.942" y2="21.1949" gradientUnits="userSpaceOnUse">
<stop stop-color="#83E617"/>
<stop offset="1" stop-color="#83E617" stop-opacity="0.4"/>
</linearGradient>
<linearGradient id="paint8_linear_466_912" x1="114.877" y1="21.098" x2="119.25" y2="21.098" gradientUnits="userSpaceOnUse">
<stop stop-color="#83E617"/>
<stop offset="1" stop-color="#83E617" stop-opacity="0.4"/>
</linearGradient>
<linearGradient id="paint9_linear_466_912" x1="121.015" y1="21.2452" x2="124.761" y2="21.2452" gradientUnits="userSpaceOnUse">
<stop stop-color="#83E617"/>
<stop offset="1" stop-color="#83E617" stop-opacity="0.4"/>
</linearGradient>
<linearGradient id="paint10_linear_466_912" x1="127.195" y1="21.2201" x2="130.429" y2="21.2201" gradientUnits="userSpaceOnUse">
<stop stop-color="#83E617"/>
<stop offset="1" stop-color="#83E617" stop-opacity="0.4"/>
</linearGradient>
<linearGradient id="paint11_linear_466_912" x1="19.3147" y1="15.0266" x2="32.4979" y2="15.0266" gradientUnits="userSpaceOnUse">
<stop stop-color="#83E617"/>
<stop offset="1" stop-color="#83E617" stop-opacity="0.4"/>
</linearGradient>
<linearGradient id="paint12_linear_466_912" x1="51.5806" y1="11.599" x2="55.5589" y2="11.599" gradientUnits="userSpaceOnUse">
<stop stop-color="#83E617"/>
<stop offset="1" stop-color="#83E617" stop-opacity="0.4"/>
</linearGradient>
<linearGradient id="paint13_linear_466_912" x1="57.0792" y1="11.5952" x2="62.4292" y2="11.5952" gradientUnits="userSpaceOnUse">
<stop stop-color="#83E617"/>
<stop offset="1" stop-color="#83E617" stop-opacity="0.4"/>
</linearGradient>
<linearGradient id="paint14_linear_466_912" x1="64.2894" y1="11.6017" x2="67.7256" y2="11.6017" gradientUnits="userSpaceOnUse">
<stop stop-color="#83E617"/>
<stop offset="1" stop-color="#83E617" stop-opacity="0.4"/>
</linearGradient>
<linearGradient id="paint15_linear_466_912" x1="70.0244" y1="11.5113" x2="75.1993" y2="11.5113" gradientUnits="userSpaceOnUse">
<stop stop-color="#83E617"/>
<stop offset="1" stop-color="#83E617" stop-opacity="0.4"/>
</linearGradient>
<linearGradient id="paint16_linear_466_912" x1="77.7775" y1="11.5339" x2="81.277" y2="11.5339" gradientUnits="userSpaceOnUse">
<stop stop-color="#83E617"/>
<stop offset="1" stop-color="#83E617" stop-opacity="0.4"/>
</linearGradient>
<linearGradient id="paint17_linear_466_912" x1="83.1995" y1="11.5658" x2="86.6796" y2="11.5658" gradientUnits="userSpaceOnUse">
<stop stop-color="#83E617"/>
<stop offset="1" stop-color="#83E617" stop-opacity="0.4"/>
</linearGradient>
<linearGradient id="paint18_linear_466_912" x1="51.6711" y1="21.2201" x2="54.5498" y2="21.2201" gradientUnits="userSpaceOnUse">
<stop stop-color="#83E617"/>
<stop offset="1" stop-color="#83E617" stop-opacity="0.4"/>
</linearGradient>
<linearGradient id="paint19_linear_466_912" x1="56.9389" y1="21.1949" x2="60.2509" y2="21.1949" gradientUnits="userSpaceOnUse">
<stop stop-color="#83E617"/>
<stop offset="1" stop-color="#83E617" stop-opacity="0.4"/>
</linearGradient>
<linearGradient id="paint20_linear_466_912" x1="62.5787" y1="21.2104" x2="62.9604" y2="21.2104" gradientUnits="userSpaceOnUse">
<stop stop-color="#83E617"/>
<stop offset="1" stop-color="#83E617" stop-opacity="0.4"/>
</linearGradient>
<linearGradient id="paint21_linear_466_912" x1="65.6826" y1="21.2201" x2="68.9493" y2="21.2201" gradientUnits="userSpaceOnUse">
<stop stop-color="#83E617"/>
<stop offset="1" stop-color="#83E617" stop-opacity="0.4"/>
</linearGradient>
<linearGradient id="paint22_linear_466_912" x1="71.3954" y1="21.1831" x2="75.4124" y2="21.1831" gradientUnits="userSpaceOnUse">
<stop stop-color="#83E617"/>
<stop offset="1" stop-color="#83E617" stop-opacity="0.4"/>
</linearGradient>
<linearGradient id="paint23_linear_466_912" x1="77.7969" y1="21.1949" x2="81.1217" y2="21.1949" gradientUnits="userSpaceOnUse">
<stop stop-color="#83E617"/>
<stop offset="1" stop-color="#83E617" stop-opacity="0.4"/>
</linearGradient>
<linearGradient id="paint24_linear_466_912" x1="83.4644" y1="21.2104" x2="83.8202" y2="21.2104" gradientUnits="userSpaceOnUse">
<stop stop-color="#83E617"/>
<stop offset="1" stop-color="#83E617" stop-opacity="0.4"/>
</linearGradient>
</defs>
</svg>
