<svg width="109" height="30" viewBox="0 0 109 30" fill="none" xmlns="http://www.w3.org/2000/svg">
<g clip-path="url(#clip0_466_725)">
<path d="M6.0151 12.5531C7.17936 12.5531 8.31746 12.2079 9.28551 11.5611C10.2536 10.9142 11.008 9.9949 11.4535 8.91928C11.8991 7.84364 12.0156 6.66006 11.7885 5.51818C11.5614 4.3763 11.0008 3.32741 10.1775 2.50416C9.35427 1.68092 8.3054 1.12027 7.16352 0.89314C6.02164 0.666007 4.83805 0.78258 3.76243 1.22812C2.68679 1.67366 1.76744 2.42815 1.12062 3.3962C0.473794 4.36423 0.128551 5.50233 0.128551 6.66659C0.1277 7.43986 0.279371 8.2057 0.574896 8.92028C0.870421 9.63485 1.304 10.2841 1.85078 10.8309C2.39757 11.3777 3.04684 11.8113 3.76141 12.1068C4.47599 12.4023 5.24183 12.554 6.0151 12.5531Z" fill="url(#paint0_linear_466_725)"/>
<path d="M21.9091 3.03017C22.6273 3.02754 23.33 3.23925 23.9273 3.63824C24.3751 3.93707 24.7511 4.33149 25.0283 4.79307C25.3054 5.25466 25.4766 5.77194 25.5299 6.30768C25.5831 6.84342 25.5169 7.38429 25.336 7.89136C25.155 8.39843 24.864 8.85909 24.4836 9.24016C23.9751 9.74947 23.3267 10.0964 22.6208 10.2368C21.9148 10.3773 21.1831 10.3051 20.5183 10.0293C19.7447 9.70416 19.1071 9.12179 18.7134 8.3807C18.3197 7.63963 18.194 6.78531 18.3575 5.96223C18.521 5.13914 18.9638 4.3978 19.611 3.86353C20.2582 3.32928 21.0699 3.0349 21.9091 3.03017ZM21.9091 0.779053C21.039 0.779445 20.1797 0.972721 19.3933 1.34497C18.6069 1.71722 17.9127 2.2592 17.3608 2.93187C16.809 3.60455 16.4131 4.39121 16.2016 5.23524C15.9902 6.07926 15.9685 6.95966 16.1381 7.81308C16.3076 8.66649 16.6643 9.47169 17.1825 10.1707C17.7006 10.8698 18.3672 11.4452 19.1344 11.8557C19.9016 12.2663 20.7502 12.5017 21.6192 12.5448C22.4882 12.5881 23.3561 12.4382 24.1601 12.1058C25.2374 11.6619 26.1582 10.9075 26.8056 9.9388C27.4529 8.97009 27.7976 7.83072 27.7956 6.6656C27.7922 5.10544 27.171 3.61017 26.0678 2.50695C24.9645 1.40375 23.4692 0.782471 21.9091 0.779053Z" fill="url(#paint1_linear_466_725)"/>
<path d="M21.909 28.4401C23.0732 28.4401 24.2112 28.0949 25.1794 27.4481C26.1474 26.8012 26.9019 25.8818 27.3474 24.8063C27.7929 23.7306 27.9095 22.547 27.6824 21.4052C27.4552 20.2633 26.8946 19.2144 26.0713 18.3911C25.2481 17.5679 24.1992 17.0073 23.0573 16.7802C21.9155 16.5529 20.7319 16.6696 19.6562 17.115C18.5807 17.5606 17.6613 18.3151 17.0145 19.2831C16.3676 20.2512 16.0224 21.3893 16.0224 22.5536C16.0224 24.1148 16.6426 25.612 17.7465 26.716C18.8505 27.8199 20.3477 28.4401 21.909 28.4401Z" fill="url(#paint2_linear_466_725)"/>
<path d="M6.0151 28.4401C7.17936 28.4401 8.31746 28.0949 9.28551 27.4481C10.2536 26.8012 11.008 25.8818 11.4535 24.8063C11.8991 23.7306 12.0156 22.547 11.7885 21.4052C11.5614 20.2633 11.0008 19.2144 10.1775 18.3911C9.35427 17.5679 8.3054 17.0073 7.16352 16.7802C6.02164 16.5529 4.83805 16.6696 3.76243 17.115C2.68679 17.5606 1.76744 18.3151 1.12062 19.2831C0.473794 20.2512 0.128551 21.3893 0.128551 22.5536C0.1277 23.3268 0.279371 24.0927 0.574896 24.8073C0.870421 25.5218 1.304 26.1711 1.85078 26.7178C2.39757 27.2647 3.04684 27.6982 3.76141 27.9938C4.47599 28.2893 5.24183 28.4409 6.0151 28.4401Z" fill="url(#paint3_linear_466_725)"/>
<path d="M37.8006 18.8909C38.5228 18.9001 39.2258 19.1254 39.8189 19.5378C40.4154 19.938 40.8811 20.505 41.1579 21.1679C41.3613 21.664 41.4524 22.199 41.4246 22.7345C41.397 23.27 41.2511 23.7928 40.9977 24.2653C40.7442 24.7378 40.3893 25.1484 39.9586 25.4677C39.5277 25.7869 39.0316 26.0069 38.5057 26.1119C37.9799 26.2169 37.4374 26.2042 36.9171 26.0748C36.3966 25.9455 35.9113 25.7026 35.4958 25.3636C35.0804 25.0247 34.745 24.598 34.5139 24.1142C34.2827 23.6303 34.1613 23.1013 34.1586 22.5652C34.1544 22.0842 34.2455 21.6072 34.4266 21.1616C34.6077 20.7159 34.8753 20.3107 35.2139 19.969C35.5525 19.6274 35.9554 19.3562 36.3993 19.1713C36.8433 18.9862 37.3196 18.8909 37.8006 18.8909ZM37.8006 16.6462C36.4382 16.6449 35.1176 17.1161 34.0638 17.9795C33.0099 18.8429 32.2883 20.0451 32.0218 21.3812C31.7552 22.7172 31.9603 24.1043 32.6022 25.306C33.244 26.5077 34.2827 27.4496 35.5413 27.9711C36.8 28.4925 38.2004 28.5613 39.5041 28.1656C40.8077 27.7701 41.9337 26.9344 42.6902 25.8014C43.4467 24.6684 43.7867 23.3081 43.6524 21.9524C43.5181 20.5967 42.9177 19.3295 41.9535 18.367C40.8505 17.2678 39.3577 16.6493 37.8006 16.6462Z" fill="url(#paint4_linear_466_725)"/>
<path d="M53.691 18.9245C54.4122 18.9204 55.1185 19.1308 55.7197 19.5292C56.321 19.9276 56.7902 20.4958 57.0676 21.1616C57.345 21.8273 57.4181 22.5606 57.2776 23.2681C57.1371 23.9755 56.7893 24.6252 56.2785 25.1345C55.7689 25.6412 55.1206 25.9856 54.4155 26.1242C53.7097 26.2668 52.9775 26.1947 52.3132 25.9172C51.6467 25.6463 51.0782 25.1793 50.6831 24.5781C50.3177 24.031 50.1079 23.3948 50.0757 22.7376C50.0435 22.0805 50.1903 21.4269 50.5003 20.8466C50.8104 20.2663 51.2721 19.7811 51.8363 19.4426C52.4005 19.1041 53.046 18.925 53.7039 18.9245H53.691ZM53.691 16.6734C52.5265 16.674 51.3882 17.0196 50.42 17.6667C49.4517 18.3137 48.6969 19.2331 48.2508 20.3088C47.8102 21.384 47.6955 22.565 47.9209 23.7048C48.079 24.5125 48.4048 25.2779 48.8771 25.9518C49.3495 26.6258 49.9579 27.1931 50.6631 27.6174C51.3682 28.0416 52.1545 28.3132 52.9712 28.4148C53.7878 28.5164 54.6167 28.4456 55.4043 28.207C56.1919 27.9683 56.9208 27.5673 57.5437 27.0296C58.1667 26.4919 58.6701 25.8296 59.0213 25.0853C59.3724 24.341 59.5637 23.5314 59.5826 22.7087C59.6016 21.886 59.4477 21.0684 59.1312 20.3088C58.8384 19.5918 58.4056 18.9405 57.858 18.3929C57.3104 17.8452 56.6591 17.4125 55.9421 17.1197C55.2287 16.823 54.4636 16.6713 53.691 16.6734Z" fill="url(#paint5_linear_466_725)"/>
<path d="M69.5814 28.4401C70.7457 28.4401 71.8838 28.0949 72.8518 27.4481C73.8199 26.8012 74.5744 25.8818 75.0199 24.8063C75.4655 23.7306 75.5821 22.547 75.3549 21.4052C75.1278 20.2633 74.5672 19.2144 73.7439 18.3911C72.9206 17.5679 71.8718 17.0073 70.7299 16.7802C69.5879 16.5529 68.4044 16.6696 67.3288 17.115C66.2531 17.5606 65.3338 18.3151 64.6869 19.2831C64.0402 20.2512 63.6949 21.3893 63.6949 22.5536C63.6949 24.1148 64.3151 25.612 65.4191 26.716C66.523 27.8199 68.0203 28.4401 69.5814 28.4401Z" fill="url(#paint6_linear_466_725)"/>
<path d="M85.479 18.9236C86.1968 18.924 86.8986 19.1355 87.4972 19.5316C88.0184 19.8811 88.4402 20.3595 88.7217 20.9203C89.0032 21.4812 89.1346 22.1053 89.1034 22.7319C89.0722 23.3587 88.8793 23.9666 88.5434 24.4967C88.2076 25.0267 87.7404 25.4608 87.187 25.7568C86.6338 26.0527 86.0132 26.2003 85.386 26.1855C84.7587 26.1706 84.146 25.9935 83.6073 25.6716C83.0687 25.3496 82.6226 24.8938 82.3124 24.3484C82.0021 23.8029 81.8384 23.1865 81.8371 22.559C81.8371 22.081 81.9313 21.6078 82.1144 21.1663C82.2975 20.7249 82.5658 20.3238 82.9041 19.9861C83.2425 19.6484 83.644 19.3808 84.0857 19.1984C84.5276 19.0162 85.0011 18.9228 85.479 18.9236ZM85.479 16.6724C84.3166 16.6738 83.1805 17.0195 82.2146 17.6662C81.2487 18.3128 80.4959 19.2311 80.0517 20.3054C79.6075 21.3795 79.4915 22.5612 79.7186 23.7013C79.9457 24.8413 80.5056 25.8884 81.3275 26.7104C82.1496 27.5324 83.1967 28.0922 84.3367 28.3193C85.4768 28.5465 86.6585 28.4305 87.7326 27.9863C88.8068 27.542 89.7253 26.7893 90.3718 25.8234C91.0184 24.8574 91.3642 23.7214 91.3656 22.559C91.3586 20.9976 90.7383 19.5014 89.6383 18.3931C89.0927 17.8416 88.4444 17.4022 87.73 17.0994C87.0163 16.804 86.2514 16.6524 85.479 16.6531V16.6724Z" fill="url(#paint7_linear_466_725)"/>
<path d="M101.366 18.9244C102.086 18.9235 102.79 19.1363 103.389 19.5359C103.987 19.9356 104.454 20.504 104.729 21.1691C105.005 21.834 105.078 22.5656 104.937 23.2716C104.796 23.9776 104.45 24.6259 103.94 25.1345C103.431 25.6412 102.783 25.9856 102.077 26.1242C101.371 26.2641 100.639 26.192 99.9739 25.9169C99.3086 25.6418 98.7395 25.176 98.3385 24.5781C97.9729 24.0304 97.7628 23.3938 97.7309 22.736C97.699 22.0783 97.8465 21.4242 98.1573 20.8438C98.4681 20.2633 98.9308 19.7781 99.4958 19.4401C100.061 19.1019 100.707 18.9238 101.366 18.9244ZM101.366 16.6733C100.201 16.6714 99.0619 17.0154 98.093 17.6618C97.1241 18.3082 96.3689 19.2278 95.9233 20.304C95.4778 21.3802 95.3619 22.5644 95.5903 23.7065C95.8187 24.8487 96.3812 25.8973 97.2064 26.7192C98.0296 27.5413 99.0779 28.1009 100.219 28.3276C101.36 28.5542 102.543 28.4377 103.618 27.9926C104.693 27.5476 105.611 26.7941 106.258 25.8271C106.905 24.8602 107.251 23.7232 107.252 22.5599C107.252 20.9987 106.632 19.5014 105.528 18.3974C104.424 17.2936 102.927 16.6733 101.366 16.6733Z" fill="url(#paint8_linear_466_725)"/>
<path d="M34.8846 5.13228V10.4819C34.8846 10.7564 34.7755 11.0197 34.5814 11.2138C34.3873 11.4079 34.124 11.5169 33.8496 11.5169C33.5734 11.516 33.3086 11.4069 33.1121 11.2129C32.9185 11.0188 32.8092 10.7561 32.8081 10.4819V2.84882C32.8079 2.71195 32.8345 2.57638 32.8867 2.44984C32.9389 2.3233 33.0154 2.2083 33.1121 2.11138C33.3086 1.91738 33.5734 1.80822 33.8496 1.80736H34.8328C35.028 1.80675 35.2195 1.861 35.3852 1.96394C35.5511 2.06688 35.6847 2.21435 35.7708 2.38954L38.6752 8.5025V2.84882C38.664 2.70559 38.6824 2.56157 38.7294 2.4258C38.7765 2.29004 38.8511 2.16549 38.9486 2.05997C39.0461 1.95445 39.1644 1.87024 39.296 1.81266C39.4277 1.75507 39.5698 1.72534 39.7135 1.72534C39.8572 1.72534 39.9992 1.75507 40.1309 1.81266C40.2625 1.87024 40.3809 1.95445 40.4783 2.05997C40.5759 2.16549 40.6505 2.29004 40.6976 2.4258C40.7445 2.56157 40.763 2.70559 40.7517 2.84882V10.4819C40.7513 10.6168 40.7243 10.7502 40.672 10.8746C40.6199 10.9989 40.5436 11.1117 40.4476 11.2064C40.2558 11.4003 39.9959 11.5117 39.7231 11.5169H38.727C38.5307 11.5183 38.338 11.4646 38.1706 11.3616C38.0048 11.2574 37.8706 11.1098 37.7826 10.9347L34.8846 5.13228Z" fill="url(#paint9_linear_466_725)"/>
<path d="M48.9868 1.80208C49.1309 1.80034 49.2739 1.82743 49.4073 1.88176C49.5406 1.93608 49.6619 2.01654 49.7637 2.1184C49.8656 2.22026 49.9461 2.34147 50.0004 2.4749C50.0548 2.60831 50.0819 2.75125 50.0801 2.89529V8.71716C50.0801 10.192 49.1615 11.6993 46.4123 11.6993C43.6631 11.6993 42.751 10.192 42.751 8.71716V2.89529C42.7501 2.75141 42.7776 2.60877 42.832 2.47557C42.8865 2.34237 42.9667 2.2212 43.0679 2.11904C43.2758 1.91678 43.5542 1.80315 43.8442 1.80208C43.9875 1.80222 44.1294 1.83088 44.2616 1.88642C44.3937 1.94195 44.5135 2.02322 44.614 2.12552C44.8153 2.33142 44.9289 2.60735 44.9309 2.89529V8.50369C44.9309 9.29287 45.3061 9.75216 46.4059 9.75216C47.5055 9.75216 47.8807 9.29935 47.8807 8.50369V2.89529C47.8807 2.75119 47.9091 2.60849 47.9645 2.47544C48.0198 2.34238 48.101 2.22158 48.2031 2.11997C48.3054 2.01837 48.4266 1.93799 48.56 1.88343C48.6934 1.82887 48.8363 1.80123 48.9803 1.80208H48.9868Z" fill="url(#paint10_linear_466_725)"/>
<path d="M54.0659 6.12923L53.943 10.4827C53.93 10.7544 53.8145 11.011 53.6196 11.2007C53.4247 11.3926 53.162 11.4996 52.8886 11.4983C52.7463 11.4992 52.6053 11.4706 52.4746 11.4142C52.3443 11.3603 52.2273 11.2786 52.1317 11.1749C52.0336 11.0723 51.9567 10.9514 51.9054 10.8191C51.8547 10.6872 51.8327 10.5461 51.8406 10.4051L52.1577 2.81724C52.1694 2.53522 52.2896 2.26866 52.4933 2.07333C52.6972 1.878 52.9686 1.76906 53.2509 1.76931H53.6389C53.8608 1.7693 54.0773 1.83673 54.2598 1.96266C54.4424 2.08859 54.5823 2.26707 54.661 2.4744L56.7375 7.95989L58.8139 2.4744C58.8931 2.26604 59.0339 2.08684 59.2178 1.96082C59.4016 1.8348 59.6197 1.76797 59.8425 1.76931H60.2241C60.5064 1.76906 60.7778 1.878 60.9816 2.07333C61.1853 2.26866 61.3057 2.53522 61.3173 2.81724L61.6408 10.4051C61.6462 10.5486 61.6219 10.6917 61.5696 10.8255C61.5168 10.9571 61.4401 11.0778 61.3432 11.1813C61.2425 11.2819 61.1241 11.363 60.9939 11.4207C60.8596 11.472 60.7171 11.4983 60.5734 11.4983C60.301 11.4984 60.0393 11.3925 59.8436 11.2029C59.648 11.0133 59.5339 10.755 59.5255 10.4827L59.4091 6.10983L57.9795 9.60295C57.9014 9.79802 57.7661 9.96487 57.5913 10.0816C57.4175 10.1992 57.2126 10.2623 57.0027 10.2628H56.4594C56.2501 10.2583 56.0463 10.1956 55.8707 10.0816C55.6995 9.96276 55.5668 9.79635 55.489 9.60295L54.0659 6.12923Z" fill="url(#paint11_linear_466_725)"/>
<path d="M69.9337 11.5239H69.8755C69.6419 11.5283 69.4137 11.453 69.2285 11.3104C69.0466 11.1705 68.915 10.9753 68.8534 10.7541L68.5364 9.6221H65.3021L64.985 10.7541C64.9242 10.9752 64.7925 11.1701 64.6103 11.3092C64.428 11.4482 64.2053 11.5236 63.976 11.5239H63.9113C63.7476 11.5228 63.5863 11.4853 63.4391 11.4139C63.217 11.3026 63.0417 11.1158 62.9446 10.8871C62.8474 10.6584 62.8347 10.4027 62.9086 10.1655L65.2244 2.57118C65.2891 2.34687 65.4251 2.14976 65.6119 2.00968C65.7987 1.86961 66.026 1.79422 66.2594 1.79493H67.5532C67.7859 1.79626 68.0123 1.87096 68.2001 2.0084C68.3857 2.14886 68.5235 2.34312 68.5946 2.5647L70.9169 10.1655C70.9693 10.3195 70.9805 10.4845 70.9493 10.6442C70.925 10.806 70.8624 10.9596 70.7668 11.0924C70.6711 11.2251 70.5451 11.3331 70.3994 11.4075C70.254 11.4845 70.0918 11.5244 69.9272 11.5239H69.9337ZM65.7808 7.79792H68.0513L66.9386 3.72261L65.7808 7.79792Z" fill="url(#paint12_linear_466_725)"/>
<path d="M72.2308 10.4826V2.88826C72.2326 2.59712 72.3489 2.3184 72.5548 2.11254C72.7607 1.90667 73.0394 1.79027 73.3305 1.78857H77.4447C77.7017 1.79019 77.9478 1.89236 78.1303 2.07319C78.3124 2.25499 78.4147 2.50162 78.415 2.75888C78.4137 3.01782 78.3116 3.26608 78.1303 3.45103C77.9478 3.63187 77.7017 3.73403 77.4447 3.73566H74.4238V5.81212H77.1083C77.2353 5.81103 77.3612 5.83505 77.4789 5.88278C77.5966 5.93052 77.7036 6.00103 77.794 6.09028C77.9752 6.27524 78.0773 6.52349 78.0786 6.78244C78.0786 7.03978 77.9763 7.28658 77.7944 7.46855C77.6125 7.65052 77.3657 7.75275 77.1083 7.75275H74.3979V10.4826C74.3985 10.62 74.3721 10.7563 74.3203 10.8836C74.2689 11.0121 74.1919 11.1288 74.094 11.2266C73.9962 11.3245 73.8795 11.4015 73.7511 11.4528C73.6249 11.5091 73.4881 11.5378 73.35 11.537H73.2594C73.122 11.5374 72.9857 11.5111 72.8583 11.4593C72.7308 11.4033 72.6147 11.3243 72.5155 11.2265C72.4176 11.1287 72.3406 11.0121 72.289 10.8836C72.2323 10.7576 72.2035 10.6208 72.205 10.4826H72.2308Z" fill="url(#paint13_linear_466_725)"/>
<path d="M79.9257 10.483V2.89521C79.9264 2.60383 80.0427 2.32465 80.2491 2.11896C80.457 1.91671 80.7352 1.80307 81.0253 1.802H85.0812C85.2075 1.80244 85.3326 1.82657 85.4499 1.87315C85.6891 1.9741 85.8794 2.16442 85.9804 2.40359C86.027 2.52096 86.0511 2.64604 86.0515 2.7723C86.0504 2.90062 86.0263 3.02769 85.9804 3.1475C85.9291 3.26333 85.8567 3.36861 85.767 3.458C85.6764 3.54933 85.5686 3.62187 85.4499 3.67146C85.3326 3.71804 85.2075 3.74218 85.0812 3.74262H82.1185V5.528H84.7707C85.0296 5.5293 85.2779 5.63139 85.4629 5.81261C85.5988 5.9487 85.6912 6.12211 85.7284 6.31083C85.7656 6.49955 85.7458 6.69505 85.6717 6.8725C85.5975 7.04997 85.4722 7.20139 85.3118 7.30752C85.1514 7.41366 84.9631 7.46972 84.7707 7.46861H82.1185V9.59036H85.0812C85.2075 9.5908 85.3326 9.61493 85.4499 9.66152C85.6891 9.76246 85.8794 9.95278 85.9804 10.1919C86.027 10.3093 86.0511 10.4344 86.0515 10.5607C86.0513 10.8179 85.949 11.0646 85.767 11.2464C85.5815 11.4221 85.3367 11.5213 85.0812 11.5245H80.9865C80.7107 11.5229 80.4463 11.414 80.2496 11.2207C80.0527 11.0275 79.9388 10.7653 79.9321 10.4895L79.9257 10.483Z" fill="url(#paint14_linear_466_725)"/>
<path d="M91.1894 8.5425H89.8956V10.4831C89.889 10.7589 89.7752 11.0211 89.5783 11.2144C89.3814 11.4076 89.1171 11.5166 88.8413 11.5181H88.7507C88.4748 11.5159 88.2105 11.4069 88.0133 11.2141C87.8226 11.0185 87.7158 10.7562 87.7157 10.4831V2.89529C87.7139 2.75125 87.741 2.60831 87.7954 2.4749C87.8497 2.34147 87.9301 2.22026 88.0321 2.1184C88.1339 2.01654 88.2551 1.93608 88.3885 1.88176C88.5219 1.82743 88.6649 1.80034 88.8089 1.80208H91.7586C94.1262 1.80208 94.9931 2.73358 94.9931 4.56422V5.76094C94.9931 6.9706 94.5531 7.79213 93.5699 8.19966L94.7472 9.87507C94.8605 10.0321 94.9278 10.2175 94.9415 10.4106C94.9552 10.6037 94.9148 10.7968 94.8249 10.9683C94.7383 11.141 94.6035 11.2848 94.4367 11.3823C94.274 11.4844 94.0855 11.5383 93.8934 11.5376H93.861C93.6928 11.5342 93.5272 11.4945 93.3758 11.421C93.2286 11.3417 93.1023 11.2287 93.0071 11.0912L91.1894 8.5425ZM92.8131 4.80358C92.8131 4.0726 92.5349 3.78151 91.6422 3.78151H89.9087V6.60188H91.6487C92.5802 6.60188 92.8131 6.26551 92.8131 5.53454V4.75829V4.80358Z" fill="url(#paint15_linear_466_725)"/>
<path d="M98.8689 6.12984L98.7525 10.4833C98.7409 10.7545 98.6259 11.011 98.4309 11.1999C98.236 11.3889 97.9761 11.4959 97.7046 11.4989C97.5622 11.5003 97.4212 11.4717 97.2906 11.4148C97.1583 11.3611 97.0391 11.2795 96.9413 11.1755C96.8432 11.0729 96.7662 10.952 96.7149 10.8197C96.6673 10.687 96.6453 10.5465 96.6501 10.4057L96.9736 2.81785C96.9771 2.67766 97.0086 2.53958 97.0664 2.41179C97.1242 2.28401 97.207 2.16913 97.31 2.07394C97.5132 1.87818 97.7847 1.76915 98.0669 1.76992H98.4549C98.6861 1.76194 98.9133 1.83012 99.1019 1.96398C99.2866 2.08878 99.4288 2.2671 99.5094 2.47501L101.586 7.9605L103.63 2.50089C103.709 2.29356 103.849 2.11508 104.031 1.98915C104.214 1.86321 104.43 1.79577 104.652 1.7958H105.04C105.322 1.79555 105.594 1.90449 105.798 2.09981C106.001 2.29513 106.122 2.56171 106.133 2.84373L106.45 10.4316C106.458 10.5747 106.436 10.7178 106.386 10.852C106.333 10.9851 106.254 11.1062 106.153 11.2078C106.054 11.3111 105.935 11.3926 105.803 11.4472C105.672 11.499 105.531 11.5253 105.389 11.5247C105.116 11.526 104.853 11.4191 104.659 11.2272C104.461 11.0366 104.345 10.777 104.335 10.5027L104.219 6.12984L102.789 9.62297C102.711 9.81637 102.579 9.98278 102.407 10.1017C102.232 10.2165 102.028 10.2793 101.819 10.2828H101.275C101.066 10.2783 100.862 10.2156 100.687 10.1017C100.515 9.98278 100.383 9.81637 100.305 9.62297L98.8689 6.12984Z" fill="url(#paint16_linear_466_725)"/>
</g>
<defs>
<linearGradient id="paint0_linear_466_725" x1="0.128548" y1="6.66656" x2="11.9016" y2="6.66656" gradientUnits="userSpaceOnUse">
<stop stop-color="#83E617"/>
<stop offset="1" stop-color="#83E617" stop-opacity="0.4"/>
</linearGradient>
<linearGradient id="paint1_linear_466_725" x1="16.0252" y1="6.66559" x2="27.7956" y2="6.66559" gradientUnits="userSpaceOnUse">
<stop stop-color="#83E617"/>
<stop offset="1" stop-color="#83E617" stop-opacity="0.4"/>
</linearGradient>
<linearGradient id="paint2_linear_466_725" x1="16.0224" y1="22.5536" x2="27.7955" y2="22.5536" gradientUnits="userSpaceOnUse">
<stop stop-color="#83E617"/>
<stop offset="1" stop-color="#83E617" stop-opacity="0.4"/>
</linearGradient>
<linearGradient id="paint3_linear_466_725" x1="0.128548" y1="22.5536" x2="11.9016" y2="22.5536" gradientUnits="userSpaceOnUse">
<stop stop-color="#83E617"/>
<stop offset="1" stop-color="#83E617" stop-opacity="0.4"/>
</linearGradient>
<linearGradient id="paint4_linear_466_725" x1="31.908" y1="22.5328" x2="43.6811" y2="22.5328" gradientUnits="userSpaceOnUse">
<stop stop-color="#83E617"/>
<stop offset="1" stop-color="#83E617" stop-opacity="0.4"/>
</linearGradient>
<linearGradient id="paint5_linear_466_725" x1="47.8084" y1="22.5666" x2="59.5841" y2="22.5666" gradientUnits="userSpaceOnUse">
<stop stop-color="#83E617"/>
<stop offset="1" stop-color="#83E617" stop-opacity="0.4"/>
</linearGradient>
<linearGradient id="paint6_linear_466_725" x1="63.6949" y1="22.5536" x2="75.468" y2="22.5536" gradientUnits="userSpaceOnUse">
<stop stop-color="#83E617"/>
<stop offset="1" stop-color="#83E617" stop-opacity="0.4"/>
</linearGradient>
<linearGradient id="paint7_linear_466_725" x1="79.6053" y1="22.5429" x2="91.3656" y2="22.5429" gradientUnits="userSpaceOnUse">
<stop stop-color="#83E617"/>
<stop offset="1" stop-color="#83E617" stop-opacity="0.4"/>
</linearGradient>
<linearGradient id="paint8_linear_466_725" x1="95.4761" y1="22.5569" x2="107.252" y2="22.5569" gradientUnits="userSpaceOnUse">
<stop stop-color="#83E617"/>
<stop offset="1" stop-color="#83E617" stop-opacity="0.4"/>
</linearGradient>
<linearGradient id="paint9_linear_466_725" x1="32.8081" y1="6.62115" x2="40.7549" y2="6.62115" gradientUnits="userSpaceOnUse">
<stop stop-color="#83E617"/>
<stop offset="1" stop-color="#83E617" stop-opacity="0.4"/>
</linearGradient>
<linearGradient id="paint10_linear_466_725" x1="42.751" y1="6.75065" x2="50.0801" y2="6.75065" gradientUnits="userSpaceOnUse">
<stop stop-color="#83E617"/>
<stop offset="1" stop-color="#83E617" stop-opacity="0.4"/>
</linearGradient>
<linearGradient id="paint11_linear_466_725" x1="51.8391" y1="6.63382" x2="61.6415" y2="6.63382" gradientUnits="userSpaceOnUse">
<stop stop-color="#83E617"/>
<stop offset="1" stop-color="#83E617" stop-opacity="0.4"/>
</linearGradient>
<linearGradient id="paint12_linear_466_725" x1="62.8611" y1="6.65952" x2="70.9666" y2="6.65952" gradientUnits="userSpaceOnUse">
<stop stop-color="#83E617"/>
<stop offset="1" stop-color="#83E617" stop-opacity="0.4"/>
</linearGradient>
<linearGradient id="paint13_linear_466_725" x1="72.2049" y1="6.66279" x2="78.415" y2="6.66279" gradientUnits="userSpaceOnUse">
<stop stop-color="#83E617"/>
<stop offset="1" stop-color="#83E617" stop-opacity="0.4"/>
</linearGradient>
<linearGradient id="paint14_linear_466_725" x1="79.9257" y1="6.66327" x2="86.0515" y2="6.66327" gradientUnits="userSpaceOnUse">
<stop stop-color="#83E617"/>
<stop offset="1" stop-color="#83E617" stop-opacity="0.4"/>
</linearGradient>
<linearGradient id="paint15_linear_466_725" x1="87.7156" y1="6.6698" x2="94.9931" y2="6.6698" gradientUnits="userSpaceOnUse">
<stop stop-color="#83E617"/>
<stop offset="1" stop-color="#83E617" stop-opacity="0.4"/>
</linearGradient>
<linearGradient id="paint16_linear_466_725" x1="96.6495" y1="6.64702" x2="106.452" y2="6.64702" gradientUnits="userSpaceOnUse">
<stop stop-color="#83E617"/>
<stop offset="1" stop-color="#83E617" stop-opacity="0.4"/>
</linearGradient>
<clipPath id="clip0_466_725">
<rect width="107.883" height="29.2182" fill="white" transform="translate(0.128666 0.0583496)"/>
</clipPath>
</defs>
</svg>
