<svg width="121" height="47" viewBox="0 0 121 47" fill="none" xmlns="http://www.w3.org/2000/svg">
<g clip-path="url(#clip0_466_768)">
<path d="M2.31745 20.2312C2.04357 17.49 2.50036 14.7251 3.64138 12.2177C4.78242 9.71017 6.56701 7.54952 8.81376 5.95531C11.0605 4.36111 13.6893 3.39019 16.4329 3.14125C19.1765 2.89232 21.9371 3.37425 24.4341 4.53805C25.6204 4.27152 26.8247 4.09206 28.0371 4.00113C25.1831 2.17525 21.8638 1.20929 18.4756 1.21857C15.0874 1.22785 11.7735 2.21197 8.92938 4.05346C6.0853 5.89495 3.83125 8.516 2.4363 11.6037C1.04135 14.6914 0.56445 18.1153 1.06252 21.4667C1.45667 21.0351 1.87571 20.6269 2.31745 20.2441" fill="url(#paint0_linear_466_768)"/>
<path d="M36.4709 15.0693C33.4241 13.905 27.7382 14.7976 21.9875 17.3527C21.4401 17.6204 21.0178 18.0898 20.8092 18.6624C20.6007 19.2348 20.6223 19.8659 20.8693 20.4229C21.1164 20.9798 21.5698 21.4193 22.1341 21.649C22.6985 21.8787 23.3299 21.8806 23.8957 21.6544C26.3409 20.5612 30.5714 18.957 33.4436 19.3645C33.3005 22.6622 32.1157 25.8297 30.0594 28.4117C28.0031 30.9938 25.1813 32.8575 21.9994 33.7351C18.8174 34.6127 15.4391 34.4591 12.35 33.2961C9.26077 32.1332 6.61978 30.0209 4.80646 27.2628C5.82852 25.0959 9.24401 22.476 13.6427 20.5224C14.0556 20.3378 14.4068 20.0385 14.6546 19.6601C14.9023 19.2817 15.036 18.84 15.04 18.3877C15.0331 18.0625 14.9627 17.7417 14.833 17.4433C14.71 17.1627 14.5322 16.9094 14.31 16.6983C14.0879 16.4873 13.8258 16.3228 13.5392 16.2142C13.2518 16.1018 12.9449 16.0474 12.6363 16.0541C12.3276 16.0608 12.0234 16.1284 11.741 16.2531C7.8597 17.9932 4.48303 20.2185 2.34834 22.5342C0.854067 24.1255 0.000190364 25.678 0.000190364 26.8747C-0.00214005 27.1553 0.0551956 27.4331 0.168384 27.6898C0.634133 28.7442 2.18663 29.3976 4.43128 29.5011C6.5358 32.2931 9.42205 34.3975 12.7241 35.5471C16.0261 36.6967 19.5951 36.8399 22.9785 35.9585C26.3621 35.0771 29.4076 33.2109 31.729 30.5963C34.0505 27.9818 35.5434 24.7368 36.0181 21.2728C37.8423 19.4292 38.224 18.2002 38.224 17.3398C38.2279 17.0376 38.1685 16.7379 38.0494 16.4601C37.8906 16.1306 37.6665 15.8368 37.3907 15.5966C37.115 15.3564 36.7932 15.1748 36.4451 15.0628" fill="url(#paint1_linear_466_768)"/>
<path d="M16.9947 9.62919C16.8287 10.0633 16.7949 10.5369 16.8976 10.9903C17.0002 11.4436 17.2347 11.8564 17.5716 12.1766C17.9085 12.4969 18.3326 12.7103 18.7906 12.79C19.2485 12.8696 19.7197 12.8119 20.1449 12.6242C24.6343 10.6254 28.9424 9.84266 31.2065 10.6254C31.5468 11.1756 31.8535 11.7459 32.1251 12.3331C32.2221 12.5595 32.3192 12.7859 32.4032 12.98C33.3497 12.9357 34.2981 12.979 35.2366 13.1094C35.0684 12.6242 34.8808 12.1391 34.6673 11.6604C34.4538 11.1817 34.2986 10.8841 34.0981 10.5154C34.6838 9.85308 35.0716 9.0394 35.2172 8.16725C35.2223 7.88292 35.1673 7.60072 35.0554 7.33925C34.5314 6.17487 32.0087 5.46979 29.1883 5.5086C26.0251 5.56682 22.1309 6.55653 18.2303 8.29015C17.6642 8.54207 17.2203 9.0069 16.9947 9.5839" fill="url(#paint2_linear_466_768)"/>
<path d="M51.0069 17.9157C51.0538 17.8703 51.1164 17.8448 51.1816 17.8445H53.5879C53.6532 17.8445 53.7157 17.8705 53.7617 17.9166C53.8078 17.9626 53.8338 18.0251 53.8338 18.0903V31.9916C53.8346 32.0245 53.8289 32.0572 53.8169 32.0877C53.805 32.1183 53.787 32.1462 53.7641 32.1697C53.7412 32.1932 53.7138 32.2119 53.6835 32.2246C53.6533 32.2374 53.6208 32.2439 53.5879 32.2439H51.2656C51.2062 32.2469 51.147 32.2325 51.0954 32.2027C51.0438 32.1728 51.0019 32.1287 50.9746 32.0758L45.6702 23.2718C45.6621 23.2564 45.65 23.2435 45.6353 23.2344C45.6204 23.2253 45.6035 23.2203 45.5862 23.2201C45.5862 23.2201 45.5473 23.2589 45.5473 23.3171L45.5862 31.9916C45.5895 32.0243 45.5848 32.0574 45.5723 32.0878C45.56 32.1184 45.5402 32.1453 45.5149 32.1663C45.493 32.1909 45.466 32.2106 45.4359 32.2239C45.4059 32.2373 45.3732 32.244 45.3403 32.2439H42.9404C42.9065 32.2442 42.8729 32.2374 42.8417 32.224C42.8105 32.2108 42.7824 32.191 42.7593 32.1663C42.7363 32.1436 42.7181 32.1163 42.7058 32.0863C42.6936 32.0563 42.6875 32.0241 42.6882 31.9916V18.0903C42.6884 18.0251 42.7139 17.9625 42.7593 17.9157C42.8084 17.8699 42.8731 17.8444 42.9404 17.8445H45.2433C45.3025 17.8385 45.3622 17.8507 45.4142 17.8797C45.4662 17.9086 45.5082 17.9528 45.5343 18.0062L50.8323 26.7714C50.8323 26.8102 50.884 26.8296 50.9163 26.8232C50.9487 26.8167 50.9552 26.7843 50.9552 26.7326V18.0903C50.9516 18.0593 50.9543 18.0278 50.9632 17.9977C50.9722 17.9677 50.987 17.9398 51.0069 17.9157Z" fill="url(#paint3_linear_466_768)"/>
<path d="M63.1735 21.9644C63.8227 22.2423 64.3856 22.689 64.8037 23.2582C65.189 23.7758 65.3956 24.4047 65.3923 25.0499V32.0039C65.3932 32.0367 65.3875 32.0694 65.3755 32.1C65.3635 32.1305 65.3456 32.1584 65.3226 32.1819C65.2997 32.2054 65.2723 32.2241 65.2421 32.2368C65.2118 32.2496 65.1794 32.2562 65.1465 32.2562H62.7466C62.7137 32.2563 62.6811 32.2494 62.651 32.236C62.6209 32.2227 62.5939 32.2031 62.572 32.1785C62.5467 32.1572 62.5266 32.1303 62.5132 32.1001C62.4997 32.0698 62.4933 32.0369 62.4943 32.0039V31.3247C62.4943 31.2859 62.4943 31.2599 62.4556 31.247C62.4167 31.2341 62.3973 31.247 62.3714 31.2859C62.0345 31.6845 61.6061 31.9956 61.1229 32.1927C60.6396 32.3898 60.116 32.4671 59.5963 32.4179C58.6698 32.46 57.7567 32.1838 57.0088 31.6352C56.6747 31.3562 56.4114 31.0021 56.2405 30.6018C56.0696 30.2016 55.996 29.7665 56.0256 29.3323C56.0008 28.864 56.0883 28.3968 56.2807 27.9692C56.4731 27.5416 56.7649 27.1661 57.1318 26.8742C58.0642 26.2327 59.1849 25.9229 60.3143 25.9944H62.4167C62.4278 25.9963 62.439 25.9958 62.4499 25.9932C62.4608 25.9907 62.4712 25.9859 62.4802 25.9793C62.4893 25.9727 62.4969 25.9642 62.5026 25.9547C62.5084 25.945 62.5122 25.9344 62.5138 25.9232V25.891V25.4446C62.5249 25.2473 62.4924 25.0498 62.4186 24.8665C62.3447 24.6831 62.2315 24.5183 62.0868 24.3837C61.7409 24.1046 61.3005 23.9702 60.8578 24.0085C60.4908 23.9953 60.1264 24.073 59.7968 24.2349C59.6661 24.2988 59.5502 24.3894 59.4566 24.5007C59.363 24.6122 59.2938 24.742 59.2535 24.8818C59.2503 24.9131 59.2409 24.9434 59.2257 24.9709C59.2104 24.9985 59.1899 25.0226 59.165 25.042C59.1403 25.0613 59.1119 25.0753 59.0814 25.0834C59.0511 25.0915 59.0194 25.0933 58.9882 25.0888L56.4978 24.7589C56.3296 24.7589 56.2585 24.6683 56.2714 24.5713C56.3376 23.9938 56.5817 23.4513 56.9701 23.0188C57.4073 22.5287 57.9582 22.1534 58.5743 21.9256C59.2877 21.6591 60.0445 21.5275 60.806 21.5375C61.616 21.5175 62.4215 21.6628 63.1735 21.9644ZM61.8798 29.7722C62.0752 29.6334 62.2333 29.4486 62.3405 29.2343C62.4477 29.02 62.5005 28.7827 62.4943 28.5431V27.8186C62.4971 27.8071 62.4975 27.7951 62.4953 27.7834C62.4932 27.7717 62.4887 27.7607 62.482 27.7509C62.4752 27.7412 62.4666 27.7328 62.4563 27.7267C62.4462 27.7205 62.435 27.7165 62.4232 27.7151H60.916C60.4068 27.6833 59.8997 27.8049 59.4605 28.0644C59.2996 28.1692 59.1683 28.3133 59.0788 28.4831C58.9894 28.653 58.9449 28.8428 58.9495 29.0347C58.9461 29.1977 58.9799 29.3592 59.0483 29.5072C59.1167 29.6551 59.2178 29.7855 59.344 29.8886C59.6458 30.1126 60.017 30.2226 60.392 30.1991C60.9263 30.232 61.4557 30.0814 61.8928 29.7722H61.8798Z" fill="url(#paint4_linear_466_768)"/>
<path d="M76.0397 22.5142C76.3841 22.8783 76.6511 23.3086 76.8246 23.7789C76.998 24.2492 77.0743 24.7499 77.0487 25.2505V31.9909C77.0487 32.0578 77.0222 32.122 76.9749 32.1693C76.9276 32.2166 76.8634 32.2432 76.7964 32.2432H74.3901C74.3571 32.2433 74.3246 32.2365 74.2944 32.2231C74.2643 32.2097 74.2373 32.1902 74.2154 32.1656C74.1924 32.1428 74.1741 32.1156 74.1619 32.0856C74.1497 32.0555 74.1436 32.0233 74.1443 31.9909V25.8392C74.1618 25.3522 73.9955 24.8765 73.6785 24.5066C73.5199 24.3436 73.3303 24.2142 73.121 24.1257C72.9115 24.0373 72.6865 23.9917 72.4592 23.9917C72.2319 23.9917 72.0068 24.0373 71.7973 24.1257C71.5879 24.2142 71.3984 24.3436 71.2398 24.5066C70.9228 24.8765 70.7566 25.3522 70.7741 25.8392V31.9909C70.7767 32.023 70.7723 32.0552 70.7611 32.0854C70.7499 32.1156 70.7323 32.143 70.7094 32.1656C70.6873 32.1902 70.6605 32.2097 70.6304 32.2231C70.6002 32.2365 70.5677 32.2433 70.5347 32.2432H68.1283C68.095 32.2441 68.0617 32.2382 68.0307 32.2258C67.9997 32.2134 67.9715 32.1949 67.9479 32.1713C67.9243 32.1477 67.9058 32.1195 67.8934 32.0885C67.881 32.0575 67.8752 32.0243 67.876 31.9909V21.9191C67.8759 21.8862 67.8827 21.8536 67.8961 21.8234C67.9095 21.7933 67.9291 21.7664 67.9536 21.7444C67.9765 21.7214 68.0036 21.7032 68.0337 21.691C68.0638 21.6787 68.0959 21.6726 68.1283 21.6733H70.5347C70.5999 21.6735 70.6625 21.699 70.7094 21.7444C70.7323 21.767 70.7499 21.7943 70.7611 21.8246C70.7723 21.8548 70.7767 21.8871 70.7741 21.9191V22.6436C70.7742 22.6593 70.7785 22.6748 70.7863 22.6884C70.7943 22.702 70.8057 22.7134 70.8194 22.7212C70.8223 22.7253 70.8262 22.7285 70.8307 22.7308C70.8352 22.733 70.8402 22.7342 70.8452 22.7342C70.8503 22.7342 70.8551 22.733 70.8596 22.7308C70.8641 22.7285 70.868 22.7253 70.8711 22.7212C71.1551 22.3272 71.5341 22.0115 71.9729 21.8033C72.4118 21.5952 72.8961 21.5015 73.3809 21.5309C73.8676 21.5059 74.3543 21.58 74.8114 21.7491C75.2685 21.9181 75.6863 22.1784 76.0397 22.5142Z" fill="url(#paint5_linear_466_768)"/>
<path d="M81.1982 31.4992C80.3717 30.8907 79.7764 30.0194 79.51 29.0281C79.316 28.3465 79.218 27.6411 79.2188 26.9323C79.2119 26.1956 79.3099 25.4615 79.51 24.7524C79.7934 23.7867 80.3953 22.9455 81.2176 22.3654C82.0912 21.777 83.1276 21.4783 84.1804 21.5115C85.2058 21.4859 86.2133 21.7847 87.0589 22.3654C87.8751 22.946 88.4757 23.781 88.7666 24.7394C88.9859 25.4387 89.0971 26.1672 89.0966 26.8999C89.0968 27.6016 88.992 28.2993 88.7861 28.9699C88.5289 29.9744 87.9383 30.8617 87.1106 31.4863C86.2537 32.1037 85.2165 32.4198 84.1609 32.3854C83.1035 32.4182 82.064 32.1073 81.1982 31.4992ZM85.3123 29.5069C85.632 29.1993 85.8565 28.8063 85.9592 28.3749C86.0764 27.9031 86.1329 27.4183 86.1274 26.9323C86.1398 26.4417 86.0831 25.9517 85.9592 25.4769C85.8377 25.0538 85.5976 24.6744 85.2671 24.3837C84.9323 24.1348 84.5263 24.0004 84.1092 24.0004C83.6921 24.0004 83.2861 24.1348 82.9513 24.3837C82.6297 24.674 82.4041 25.0553 82.3045 25.4769C82.1742 25.9506 82.1175 26.4414 82.1362 26.9323C82.1219 27.4172 82.1698 27.902 82.2785 28.3749C82.3932 28.8119 82.6339 29.2056 82.9707 29.5069C83.301 29.7871 83.7213 29.9387 84.1544 29.9338C84.58 29.9402 84.9927 29.788 85.3123 29.5069Z" fill="url(#paint6_linear_466_768)"/>
<path d="M99.0568 17.9155C99.1022 17.9623 99.1277 18.0249 99.1279 18.0901V20.1019C99.1285 20.1344 99.1225 20.1665 99.1103 20.1965C99.098 20.2265 99.0798 20.2538 99.0568 20.2765C99.0341 20.3019 99.0061 20.322 98.9749 20.3355C98.9435 20.3489 98.9097 20.3553 98.8756 20.3542H95.1949C95.1719 20.3504 95.1482 20.3556 95.1288 20.3689C95.1095 20.3822 95.0961 20.4024 95.0914 20.4253V31.9785C95.0923 32.0113 95.0866 32.0439 95.0747 32.0746C95.0626 32.1052 95.0447 32.133 95.0217 32.1565C94.9988 32.18 94.9715 32.1987 94.9412 32.2115C94.9109 32.2242 94.8785 32.2308 94.8457 32.2308H92.4393C92.4064 32.2308 92.3739 32.2242 92.3437 32.2115C92.3134 32.1987 92.286 32.18 92.2631 32.1565C92.2402 32.133 92.2222 32.1052 92.2103 32.0746C92.1984 32.0439 92.1926 32.0113 92.1934 31.9785V20.4577C92.1953 20.4458 92.1947 20.4336 92.1917 20.4219C92.1888 20.4103 92.1837 20.3992 92.1763 20.3896C92.1692 20.38 92.16 20.3719 92.1497 20.3657C92.1393 20.3597 92.1278 20.3557 92.1158 20.3542H88.5127C88.4799 20.3542 88.4474 20.3477 88.4172 20.3348C88.3869 20.3221 88.3596 20.3034 88.3366 20.2799C88.3137 20.2564 88.2957 20.2285 88.2838 20.198C88.2718 20.1674 88.266 20.1347 88.2669 20.1019V18.0901C88.2655 18.0576 88.2712 18.0251 88.2835 17.995C88.2957 17.9649 88.3144 17.9377 88.3381 17.9155C88.3849 17.8701 88.4475 17.8446 88.5127 17.8443H98.8627C98.8982 17.8425 98.9336 17.8479 98.967 17.8602C99.0002 17.8724 99.0308 17.8912 99.0568 17.9155Z" fill="url(#paint7_linear_466_768)"/>
<path d="M105.824 21.965C106.476 22.241 107.041 22.688 107.46 23.2587C107.846 23.7756 108.051 24.4055 108.042 25.0505V32.0045C108.046 32.0372 108.041 32.0702 108.029 32.1007C108.016 32.1311 107.996 32.158 107.971 32.1791C107.949 32.2036 107.922 32.2233 107.892 32.2366C107.862 32.25 107.829 32.2569 107.797 32.2567H105.397C105.331 32.2536 105.268 32.226 105.222 32.1793C105.175 32.1327 105.148 32.0703 105.144 32.0045V31.3252C105.144 31.2864 105.144 31.2605 105.106 31.2476C105.067 31.2347 105.047 31.2476 105.021 31.2864C104.68 31.6781 104.25 31.9831 103.768 32.1766C103.285 32.37 102.764 32.4462 102.246 32.399C101.32 32.4437 100.406 32.1673 99.6589 31.6163C99.3234 31.3393 99.0582 30.9869 98.885 30.5877C98.7118 30.1885 98.6357 29.7541 98.6627 29.3199C98.6396 28.8497 98.729 28.3806 98.9237 27.952C99.1183 27.5233 99.4125 27.1473 99.7818 26.8553C100.712 26.2271 101.825 25.9246 102.945 25.9949H105.041C105.064 25.9988 105.088 25.9935 105.107 25.9802C105.126 25.967 105.14 25.9467 105.144 25.9238V25.8914V25.4451C105.154 25.248 105.121 25.051 105.047 24.8678C104.974 24.6846 104.861 24.5197 104.718 24.3842C104.368 24.1115 103.93 23.9779 103.488 24.009C103.119 23.9959 102.753 24.0736 102.421 24.2355C102.291 24.3003 102.176 24.3912 102.082 24.5025C101.989 24.6137 101.919 24.7431 101.878 24.8823C101.874 24.9135 101.865 24.9439 101.85 24.9714C101.835 24.9989 101.814 25.0231 101.789 25.0424C101.764 25.0618 101.736 25.0759 101.706 25.084C101.675 25.092 101.644 25.0938 101.613 25.0893L99.122 24.7595C98.9603 24.7595 98.8826 24.6689 98.8956 24.5718C98.9606 23.9916 99.21 23.4475 99.6071 23.0193C100.044 22.532 100.592 22.1571 101.205 21.9261C101.918 21.659 102.675 21.5274 103.437 21.5379C104.253 21.514 105.066 21.6594 105.824 21.965ZM104.53 29.7727C104.724 29.6336 104.881 29.4485 104.986 29.234C105.091 29.0195 105.141 28.7823 105.132 28.5437V27.8192C105.135 27.796 105.13 27.7723 105.117 27.753C105.103 27.7338 105.083 27.7203 105.06 27.7157H103.585C103.078 27.6847 102.574 27.8064 102.136 28.0649C101.972 28.1706 101.837 28.3176 101.746 28.4911C101.656 28.6647 101.612 28.8589 101.619 29.0547C101.616 29.2169 101.649 29.3779 101.716 29.5256C101.783 29.6734 101.883 29.8042 102.007 29.9085C102.311 30.1325 102.684 30.2424 103.062 30.219C103.596 30.2453 104.123 30.0879 104.556 29.7727H104.53Z" fill="url(#paint8_linear_466_768)"/>
<path d="M117.039 21.7378C117.086 21.6924 117.149 21.6669 117.214 21.6667H119.62C119.685 21.6676 119.748 21.6929 119.795 21.7378C119.84 21.7846 119.866 21.8472 119.866 21.9124V31.3051C119.866 33.1034 119.348 34.3842 118.313 35.1475C117.14 35.9572 115.734 36.3615 114.309 36.299C113.775 36.2969 113.241 36.2624 112.712 36.1955C112.576 36.1955 112.504 36.1113 112.504 35.9303L112.588 33.7956C112.588 33.6144 112.679 33.5368 112.873 33.5691C113.322 33.6459 113.776 33.687 114.231 33.6921C114.953 33.7385 115.668 33.5352 116.256 33.1164C116.507 32.8831 116.7 32.5957 116.823 32.2762C116.944 31.9566 116.992 31.6134 116.961 31.2727C116.961 31.2339 116.961 31.2081 116.916 31.2016C116.905 31.1948 116.891 31.1912 116.878 31.1912C116.863 31.1912 116.851 31.1948 116.838 31.2016C116.538 31.4958 116.181 31.7237 115.788 31.8708C115.394 32.0179 114.974 32.0808 114.555 32.0555C113.693 32.0637 112.843 31.8403 112.097 31.4086C111.321 30.9386 110.753 30.192 110.506 29.3192C110.274 28.5256 110.169 27.7003 110.195 26.874C110.163 25.9821 110.285 25.0913 110.557 24.2412C110.821 23.4337 111.333 22.7297 112.019 22.2294C112.706 21.7191 113.545 21.4527 114.4 21.4726C114.848 21.4434 115.298 21.5127 115.717 21.6759C116.136 21.839 116.515 22.092 116.826 22.417C116.834 22.4294 116.846 22.4389 116.86 22.4446C116.873 22.4504 116.889 22.4521 116.904 22.4494C116.935 22.4494 116.949 22.417 116.949 22.3782V21.9189C116.954 21.8492 116.987 21.7843 117.039 21.7378ZM116.968 26.8611C116.968 26.5311 116.968 26.2142 116.923 25.8778C116.897 25.6579 116.85 25.4411 116.78 25.2309C116.67 24.8764 116.456 24.5631 116.165 24.3318C115.857 24.1039 115.482 23.9855 115.099 23.9955C114.719 23.9843 114.347 24.103 114.044 24.3318C113.749 24.566 113.526 24.8773 113.397 25.2309C113.184 25.7582 113.087 26.3253 113.112 26.8935C113.081 27.4543 113.164 28.0159 113.358 28.5429C113.472 28.9028 113.699 29.2161 114.005 29.4357C114.322 29.666 114.707 29.7864 115.099 29.7784C115.476 29.7954 115.85 29.6837 116.156 29.4617C116.462 29.2397 116.685 28.9204 116.787 28.5559C116.912 28.0066 116.965 27.4435 116.949 26.8805L116.968 26.8611Z" fill="url(#paint9_linear_466_768)"/>
<path d="M37.8435 40.3163C38.2169 40.4576 38.5377 40.7105 38.7621 41.0408C38.9762 41.3906 39.0841 41.7951 39.0726 42.2052C39.0901 42.498 39.041 42.7911 38.9289 43.0622C38.8169 43.3333 38.6448 43.5755 38.4257 43.7706C37.9448 44.1609 37.3364 44.3591 36.718 44.327H34.0464C34.0328 44.3288 34.0189 44.3277 34.0057 44.3243C33.9924 44.3207 33.98 44.3145 33.9691 44.3061C33.9584 44.2976 33.9493 44.2871 33.9425 44.2752C33.9358 44.2631 33.9315 44.25 33.9299 44.2364V36.6227C33.9281 36.5962 33.9364 36.5701 33.9533 36.5496C33.9702 36.5292 33.9942 36.5159 34.0205 36.5127H36.6662C37.2817 36.4786 37.8887 36.6694 38.374 37.0496C38.5889 37.2354 38.7588 37.4677 38.8708 37.7287C38.9829 37.9899 39.0342 38.273 39.0209 38.5568C39.0337 38.9267 38.9295 39.291 38.7233 39.5982C38.5084 39.8931 38.2114 40.1181 37.8694 40.2452C37.8112 40.271 37.8112 40.2969 37.8435 40.3163ZM34.7256 37.2501V39.9282C34.7256 39.9282 34.7256 39.9735 34.7644 39.9735H36.6662C37.0721 39.9938 37.4709 39.8623 37.7853 39.6047C37.9254 39.4831 38.0364 39.3317 38.1103 39.1615C38.1842 38.9914 38.219 38.8069 38.2122 38.6214C38.2186 38.4295 38.1839 38.2383 38.1102 38.061C38.0365 37.8836 37.9257 37.724 37.7853 37.593C37.4765 37.3238 37.0754 37.1847 36.6662 37.2048H34.7644C34.7644 37.2048 34.7256 37.2177 34.7256 37.2501ZM37.8629 43.2272C38.1343 42.9303 38.2848 42.5427 38.2848 42.1404C38.2848 41.7382 38.1343 41.3506 37.8629 41.0537C37.5478 40.7652 37.132 40.6119 36.705 40.6268H34.7644C34.7644 40.6268 34.7256 40.6268 34.7256 40.6721V43.5636C34.7256 43.5636 34.7256 43.6024 34.7644 43.6024H36.7439C36.9469 43.6163 37.1507 43.5891 37.3429 43.5223C37.5352 43.4557 37.7121 43.3509 37.8629 43.2143V43.2272Z" fill="url(#paint10_linear_466_768)"/>
<path d="M40.838 37.4768C40.7271 37.3573 40.6654 37.2002 40.6654 37.037C40.6654 36.8738 40.7271 36.7167 40.838 36.5972C40.8941 36.5362 40.962 36.4876 41.0377 36.4542C41.1133 36.4208 41.1952 36.4034 41.2779 36.4031C41.396 36.4132 41.509 36.4556 41.6047 36.5255C41.7003 36.5955 41.7749 36.6903 41.8202 36.7998C41.8656 36.9092 41.8801 37.0291 41.862 37.1462C41.8439 37.2633 41.794 37.3732 41.7177 37.4639C41.6005 37.5803 41.4431 37.6474 41.2779 37.6515C41.1145 37.6509 40.9572 37.5885 40.838 37.4768ZM40.838 44.1979V38.79C40.836 38.7646 40.8434 38.7392 40.8589 38.7188C40.8745 38.6986 40.897 38.6848 40.9221 38.6801H41.5172C41.5308 38.6783 41.5446 38.6792 41.5579 38.6828C41.5712 38.6864 41.5835 38.6925 41.5944 38.701C41.6052 38.7094 41.6143 38.7199 41.6211 38.7319C41.6278 38.7438 41.6321 38.7569 41.6337 38.7706V44.2109C41.6354 44.2241 41.6346 44.2376 41.6308 44.2504C41.6272 44.2633 41.621 44.2752 41.6124 44.2856C41.6039 44.2959 41.5934 44.3044 41.5814 44.3104C41.5695 44.3165 41.5564 44.32 41.5431 44.3208H40.9544C40.9287 44.3208 40.904 44.3105 40.8859 44.2923C40.8677 44.2741 40.8575 44.2495 40.8575 44.2238L40.838 44.1979Z" fill="url(#paint11_linear_466_768)"/>
<path d="M44.3898 43.9973C44.0012 43.7197 43.7184 43.3182 43.5877 42.8588C43.4717 42.4114 43.4194 41.9496 43.4324 41.4875C43.4191 41.0296 43.4713 40.5721 43.5877 40.1291C43.7167 39.6724 44.0003 39.2746 44.3898 39.0035C44.7988 38.7123 45.2916 38.5625 45.7935 38.5766C46.2826 38.5686 46.7612 38.7183 47.1584 39.0035C47.5393 39.2749 47.8174 39.667 47.9477 40.1162C48.0636 40.5636 48.116 41.0253 48.1028 41.4875C48.1195 41.9498 48.0672 42.412 47.9477 42.8588C47.8246 43.3184 47.5456 43.7209 47.1584 43.9973C46.7504 44.2755 46.2679 44.4243 45.7742 44.4243C45.2803 44.4243 44.7979 44.2755 44.3898 43.9973ZM46.6927 43.4216C46.9465 43.2204 47.1262 42.9405 47.2037 42.626C47.2751 42.2552 47.3076 41.8779 47.3007 41.5004C47.3127 41.1231 47.2824 40.7455 47.2102 40.3749C47.1348 40.0519 46.9486 39.7654 46.6837 39.5657C46.419 39.3659 46.0925 39.2655 45.7612 39.2816C45.4317 39.2673 45.1078 39.3687 44.8454 39.5684C44.5831 39.7681 44.399 40.0535 44.3252 40.3749C44.2087 41.1207 44.2087 41.8802 44.3252 42.626C44.3902 42.9409 44.5643 43.2226 44.8167 43.4216C45.0871 43.6282 45.4213 43.7335 45.7612 43.7192C46.0926 43.7301 46.4176 43.6248 46.6797 43.4216H46.6927Z" fill="url(#paint12_linear_466_768)"/>
<path d="M52.0406 39.3339H50.7469C50.7469 39.3339 50.7016 39.3339 50.7016 39.3792V42.6717C50.6864 42.8071 50.7005 42.9442 50.743 43.0737C50.7853 43.2032 50.8551 43.3219 50.9474 43.4222C51.1625 43.5843 51.4293 43.6626 51.6978 43.6421H51.976C51.9887 43.6403 52.0017 43.641 52.0142 43.6442C52.0267 43.6475 52.0383 43.6532 52.0486 43.6611C52.0588 43.6689 52.0673 43.6787 52.0737 43.6899C52.0801 43.7011 52.0843 43.7134 52.0859 43.7262V44.2113C52.0879 44.2368 52.0805 44.2622 52.065 44.2824C52.0495 44.3028 52.027 44.3166 52.0018 44.3213H51.549C51.1224 44.354 50.6963 44.2497 50.3329 44.0237C50.1777 43.8861 50.058 43.7131 49.9836 43.5195C49.9093 43.3259 49.8827 43.1172 49.906 42.9111V39.3857C49.906 39.3533 49.906 39.3404 49.8607 39.3404H49.175C49.1626 39.3432 49.1498 39.3433 49.1373 39.3409C49.1248 39.3384 49.113 39.3333 49.1027 39.326C49.0924 39.3187 49.0836 39.3093 49.0771 39.2984C49.0707 39.2875 49.0665 39.2753 49.0651 39.2627V38.7971C49.0629 38.7715 49.0704 38.7462 49.086 38.7259C49.1015 38.7056 49.1239 38.6918 49.1491 38.687H49.9253C49.9253 38.687 49.9642 38.687 49.9642 38.6418V37.3481C49.9619 37.3218 49.9691 37.2956 49.9845 37.2741C50 37.2528 50.0226 37.2377 50.0482 37.2315H50.624C50.6495 37.2295 50.6748 37.237 50.6951 37.2525C50.7154 37.268 50.7293 37.2905 50.734 37.3157V38.6094C50.7339 38.6204 50.7377 38.6311 50.7449 38.6394C50.752 38.6477 50.7618 38.6531 50.7727 38.6547H52.0665C52.093 38.651 52.1199 38.6576 52.1417 38.6732C52.1634 38.689 52.1781 38.7124 52.183 38.7387V39.1916C52.1915 39.2166 52.1903 39.2438 52.1795 39.2678C52.1687 39.2919 52.149 39.3109 52.1248 39.321C52.1129 39.3298 52.0989 39.3357 52.0843 39.3379C52.0696 39.3402 52.0546 39.3388 52.0406 39.3339Z" fill="url(#paint13_linear_466_768)"/>
<path d="M57.8885 41.326V41.6818C57.8905 41.7073 57.8831 41.7326 57.8675 41.7529C57.852 41.7733 57.8295 41.7871 57.8045 41.7918H54.1754C54.1431 41.7918 54.1302 41.7918 54.1302 41.8371C54.1364 42.0952 54.1624 42.3526 54.2078 42.6069C54.2806 42.9266 54.4667 43.2092 54.7317 43.4025C55.0338 43.6037 55.3911 43.7055 55.7538 43.6936C56.0437 43.6958 56.3292 43.6222 56.5818 43.4801C56.8192 43.3347 57.0119 43.1266 57.1382 42.8785C57.1441 42.8634 57.1535 42.8498 57.1652 42.8388C57.1772 42.8277 57.1913 42.8194 57.2067 42.8144C57.2222 42.8095 57.2386 42.808 57.2547 42.8102C57.2708 42.8123 57.2862 42.818 57.2999 42.8268L57.7268 43.092C57.7393 43.0982 57.7504 43.1067 57.7595 43.1173C57.7686 43.1279 57.7756 43.1402 57.7797 43.1535C57.784 43.1667 57.7855 43.1808 57.7841 43.1947C57.7829 43.2085 57.7787 43.222 57.7721 43.2343C57.5854 43.6025 57.2864 43.9016 56.9181 44.0881C56.5213 44.3027 56.0754 44.4098 55.6244 44.3986C55.1541 44.4072 54.6922 44.2742 54.2984 44.017C53.936 43.7706 53.6654 43.4113 53.5286 42.9949C53.3751 42.4969 53.3073 41.9762 53.328 41.4555V40.6921C53.3334 40.5102 53.3616 40.3299 53.4122 40.1551C53.5297 39.6862 53.8092 39.2738 54.2013 38.9908C54.6032 38.6998 55.0897 38.5498 55.5856 38.5639C56.1549 38.5262 56.7164 38.7118 57.1511 39.0814C57.5279 39.475 57.7565 39.987 57.7979 40.5304C57.8481 40.7929 57.8783 41.0589 57.8885 41.326ZM54.6929 39.5601C54.4485 39.743 54.2767 40.0066 54.2078 40.3039C54.1486 40.5519 54.1182 40.8059 54.1172 41.0608C54.1172 41.0932 54.1172 41.1061 54.1625 41.1061H57.0476C57.0798 41.1061 57.0929 41.1061 57.0929 41.0608C57.0887 40.8221 57.0649 40.5841 57.0216 40.3492C56.957 40.0324 56.7829 39.7486 56.5301 39.5472C56.2571 39.3462 55.9243 39.2436 55.5856 39.256C55.264 39.2448 54.9486 39.3453 54.6929 39.5407V39.5601Z" fill="url(#paint14_linear_466_768)"/>
<path d="M60.2434 43.9906C59.8619 43.7114 59.5842 43.3131 59.4542 42.8586C59.349 42.4071 59.3012 41.9441 59.3119 41.4807C59.3041 41.0216 59.3519 40.5633 59.4542 40.1159C59.5808 39.6684 59.857 39.278 60.2369 39.0097C60.6387 38.7187 61.1253 38.5686 61.6212 38.5827C62.1249 38.5697 62.6195 38.7193 63.0314 39.0097C63.2672 39.1567 63.4666 39.3554 63.6145 39.5907C63.7624 39.826 63.855 40.0918 63.8853 40.368C63.8853 40.4198 63.853 40.4522 63.7818 40.4651L63.232 40.5428C63.1737 40.5428 63.1414 40.5104 63.1285 40.4457L63.0961 40.2776C63.0259 39.986 62.8509 39.7304 62.6044 39.5595C62.3283 39.3594 61.9945 39.2549 61.6536 39.2619C61.3182 39.2518 60.9895 39.3568 60.7221 39.5595C60.4727 39.7619 60.3031 40.0461 60.2434 40.3616C60.166 40.7316 60.1334 41.1095 60.1464 41.4872C60.1334 41.8713 60.166 42.2556 60.2434 42.6321C60.3072 42.9459 60.4789 43.2274 60.7285 43.4279C60.9942 43.634 61.3241 43.7394 61.66 43.7253C61.997 43.733 62.3278 43.6333 62.6044 43.4408C62.8553 43.2685 63.0311 43.0071 63.0961 42.7098V42.6192C63.0961 42.548 63.1478 42.5157 63.232 42.5286L63.7753 42.6192C63.7907 42.619 63.806 42.6221 63.82 42.6285C63.834 42.6348 63.8464 42.6442 63.8563 42.656C63.8662 42.6678 63.8734 42.6817 63.8773 42.6965C63.8812 42.7114 63.8817 42.727 63.8788 42.7421L63.8335 42.962C63.7205 43.3986 63.4451 43.7758 63.0637 44.0165C62.6403 44.2845 62.1482 44.4239 61.6471 44.4176C61.1445 44.4364 60.6503 44.2861 60.2434 43.9906Z" fill="url(#paint15_linear_466_768)"/>
<path d="M69.0217 39.1191C69.2042 39.3049 69.3476 39.5255 69.4432 39.7676C69.5387 40.0099 69.5846 40.269 69.578 40.5293V44.21C69.5788 44.2236 69.5769 44.2374 69.5726 44.2502C69.5682 44.2631 69.5613 44.275 69.5522 44.2852C69.5432 44.2955 69.5323 44.3038 69.5201 44.3097C69.5078 44.3157 69.4945 44.3192 69.4809 44.3201H68.8922C68.8795 44.3219 68.8665 44.3211 68.854 44.3178C68.8415 44.3146 68.8299 44.3088 68.8196 44.3011C68.8094 44.2932 68.8009 44.2834 68.7945 44.2722C68.7881 44.2611 68.7839 44.2487 68.7823 44.2359V40.6781C68.7946 40.3075 68.6597 39.947 68.4071 39.6755C68.284 39.5446 68.1343 39.4415 67.968 39.3734C67.8017 39.3054 67.6228 39.2739 67.4432 39.2809C67.2723 39.2704 67.1009 39.294 66.9391 39.3503C66.7773 39.4066 66.6283 39.4945 66.5007 39.6087C66.3731 39.7231 66.2694 39.8617 66.1958 40.0163C66.1222 40.1711 66.0801 40.3389 66.0719 40.5099C66.0654 40.5593 66.0654 40.6094 66.0719 40.6587V44.2036C66.0739 44.229 66.0665 44.2544 66.0509 44.2747C66.0354 44.295 66.0129 44.3088 65.9878 44.3135H65.4185C65.4058 44.3153 65.3928 44.3147 65.3803 44.3114C65.3678 44.3082 65.3561 44.3024 65.3459 44.2946C65.3357 44.2867 65.3272 44.277 65.3207 44.2658C65.3142 44.2547 65.3102 44.2423 65.3086 44.2295V36.6222C65.3067 36.6095 65.3075 36.5965 65.3107 36.584C65.314 36.5715 65.3197 36.5598 65.3276 36.5496C65.3354 36.5394 65.3451 36.5308 65.3564 36.5244C65.3675 36.518 65.3799 36.5139 65.3927 36.5123H65.9878C66.0132 36.5103 66.0386 36.5177 66.0588 36.5332C66.0792 36.5487 66.093 36.5713 66.0977 36.5963V39.2679V39.3003C66.2702 39.0675 66.499 38.8826 66.7627 38.7625C67.0264 38.6426 67.3162 38.5917 67.6049 38.6147C67.8628 38.6003 68.1209 38.6375 68.3642 38.7241C68.6075 38.8108 68.831 38.945 69.0217 39.1191Z" fill="url(#paint16_linear_466_768)"/>
<path d="M75.0383 39.1202C75.2139 39.3091 75.3503 39.5311 75.439 39.7732C75.5279 40.0154 75.5676 40.2727 75.5559 40.5304V44.2111C75.5579 44.2366 75.5504 44.2619 75.5349 44.2823C75.5194 44.3026 75.4969 44.3164 75.4717 44.3212H74.8702C74.8574 44.323 74.8445 44.3222 74.832 44.3189C74.8195 44.3156 74.8078 44.3099 74.7976 44.3022C74.7874 44.2943 74.7787 44.2845 74.7723 44.2733C74.7659 44.2622 74.7617 44.2498 74.7602 44.237V40.6792C74.7725 40.3086 74.6376 39.9481 74.3851 39.6766C74.262 39.5457 74.1122 39.4426 73.946 39.3745C73.7797 39.3064 73.6007 39.2749 73.4212 39.2819C73.2502 39.2715 73.0788 39.2951 72.917 39.3514C72.7551 39.4077 72.6061 39.4955 72.4786 39.6098C72.351 39.7241 72.2474 39.8627 72.1738 40.0174C72.1002 40.1722 72.0581 40.3398 72.0499 40.511C72.0433 40.5604 72.0433 40.6104 72.0499 40.6598V44.2047C72.0519 44.2301 72.0443 44.2555 72.0288 44.2758C72.0133 44.2961 71.9908 44.3099 71.9657 44.3146H71.3706C71.3577 44.3174 71.3443 44.3174 71.3315 44.3146C71.3186 44.3117 71.3066 44.3061 71.296 44.2981C71.2856 44.2901 71.277 44.2799 71.2708 44.2682C71.2648 44.2565 71.2613 44.2437 71.2606 44.2306V38.8097C71.2578 38.7969 71.2578 38.7835 71.2606 38.7707C71.2634 38.7578 71.2692 38.7456 71.2771 38.7352C71.2851 38.7247 71.2953 38.7161 71.307 38.71C71.3186 38.7038 71.3315 38.7004 71.3447 38.6998H71.9398C71.9525 38.698 71.9656 38.6987 71.978 38.7019C71.9905 38.7052 72.0022 38.7109 72.0124 38.7188C72.0227 38.7265 72.0313 38.7363 72.0377 38.7476C72.0441 38.7587 72.0482 38.771 72.0499 38.7839V39.2884V39.3208C72.2222 39.0881 72.451 38.903 72.7148 38.7831C72.9784 38.663 73.2682 38.6121 73.5571 38.6351C73.8241 38.6091 74.0935 38.6389 74.3485 38.7224C74.6035 38.8059 74.8384 38.9414 75.0383 39.1202Z" fill="url(#paint17_linear_466_768)"/>
<path d="M77.9762 43.9964C77.5858 43.7205 77.3025 43.3184 77.1742 42.8579C77.0524 42.4113 76.9978 41.9492 77.0124 41.4865C76.998 41.0281 77.0525 40.5702 77.1742 40.1281C77.2959 39.6714 77.5755 39.2726 77.9633 39.0025C78.3727 38.7247 78.8561 38.5762 79.3508 38.5762C79.8456 38.5762 80.3289 38.7247 80.7384 39.0025C81.1193 39.2739 81.3973 39.666 81.5276 40.1152C81.7347 41.0177 81.7347 41.9554 81.5276 42.8579C81.4068 43.3167 81.13 43.7192 80.7449 43.9964C80.3347 44.2657 79.8546 44.4092 79.3638 44.4092C78.873 44.4092 78.393 44.2657 77.9827 43.9964H77.9762ZM80.2726 43.4207C80.5264 43.2194 80.7062 42.9396 80.7837 42.625C80.8604 42.2549 80.8951 41.8774 80.8872 41.4995C80.8959 41.1221 80.8655 40.7449 80.7967 40.3739C80.717 40.0553 80.5325 39.7727 80.2726 39.5717C80.0779 39.4172 79.8475 39.3139 79.6025 39.2713C79.3577 39.2289 79.1059 39.2483 78.8704 39.3281C78.635 39.4079 78.4232 39.5454 78.2546 39.728C78.086 39.9108 77.9658 40.1328 77.9051 40.3739C77.7886 41.1197 77.7886 41.8792 77.9051 42.625C77.9758 42.9424 78.1568 43.2245 78.4162 43.4207C78.6864 43.6272 79.0206 43.7325 79.3606 43.7182C79.6987 43.7343 80.0315 43.6288 80.2985 43.4207H80.2726Z" fill="url(#paint18_linear_466_768)"/>
<path d="M83.2789 44.21V36.6222C83.277 36.5958 83.2853 36.5697 83.3022 36.5492C83.319 36.5287 83.3431 36.5155 83.3694 36.5123H83.9645C83.9901 36.5103 84.0153 36.5177 84.0357 36.5332C84.056 36.5487 84.0698 36.5713 84.0746 36.5963V44.21C84.0766 44.2356 84.0692 44.2608 84.0535 44.2812C84.038 44.3015 84.0156 44.3153 83.9904 44.3201H83.3953C83.3688 44.3238 83.3419 44.3171 83.3202 44.3015C83.2984 44.2858 83.2836 44.2623 83.2789 44.2359V44.21Z" fill="url(#paint19_linear_466_768)"/>
<path d="M86.6189 43.9971C86.2235 43.7223 85.9336 43.3206 85.7973 42.8586C85.6867 42.4103 85.6367 41.9491 85.6485 41.4873C85.6362 41.0298 85.6862 40.5728 85.7973 40.1289C85.9267 39.674 86.2074 39.2769 86.5931 39.0033C87.0029 38.7138 87.4951 38.5641 87.9968 38.5764C88.4857 38.5684 88.9644 38.7181 89.3616 39.0033C89.7425 39.2747 90.0206 39.6668 90.1508 40.116C90.3579 41.0185 90.3579 41.9561 90.1508 42.8586C90.0278 43.3183 89.7489 43.7207 89.3616 43.9971C88.9536 44.2692 88.4742 44.4143 87.9839 44.4143C87.4934 44.4143 87.014 44.2692 86.606 43.9971H86.6189ZM88.9154 43.4214C89.1675 43.2215 89.3471 42.9442 89.4263 42.6322C89.5028 42.2621 89.5375 41.8846 89.5298 41.5067C89.5356 41.1295 89.5052 40.7526 89.4393 40.3812C89.364 40.0581 89.1776 39.7717 88.9129 39.5719C88.648 39.3722 88.3216 39.2717 87.9903 39.288C87.6605 39.2722 87.3359 39.3733 87.0733 39.5732C86.8106 39.7731 86.6269 40.0592 86.5542 40.3812C86.4312 41.1265 86.4312 41.8869 86.5542 42.6322C86.6326 42.9479 86.8177 43.2267 87.0782 43.4214C87.349 43.627 87.6828 43.7322 88.0226 43.719C88.3457 43.7265 88.6614 43.6214 88.9154 43.4214Z" fill="url(#paint20_linear_466_768)"/>
<path d="M95.5125 38.68H96.0882C96.101 38.6781 96.1139 38.6789 96.1264 38.6821C96.1389 38.6854 96.1505 38.6911 96.1608 38.6989C96.171 38.7067 96.1796 38.7165 96.1861 38.7277C96.1925 38.7389 96.1965 38.7512 96.1982 38.764V44.1331C96.2267 44.4728 96.1768 44.8146 96.0523 45.132C95.9278 45.4494 95.7321 45.734 95.4801 45.9637C94.9047 46.3798 94.2029 46.5833 93.4942 46.5395H93.1061C93.0914 46.5403 93.0767 46.5382 93.063 46.533C93.0491 46.5278 93.0367 46.5198 93.0262 46.5093C93.0158 46.4989 93.0078 46.4864 93.0026 46.4727C92.9973 46.4589 92.9952 46.4442 92.9961 46.4294V45.9055C92.9959 45.8744 93.0075 45.8444 93.0285 45.8215C93.0405 45.8152 93.0538 45.8119 93.0672 45.8119C93.0808 45.8119 93.0941 45.8152 93.1061 45.8215H93.4101C93.9452 45.862 94.4772 45.7107 94.9109 45.3944C95.0804 45.2271 95.2106 45.0244 95.2922 44.8006C95.3739 44.5769 95.4049 44.3379 95.3831 44.1007V43.6738H95.3442C95.1768 43.8936 94.9589 44.0701 94.709 44.1883C94.459 44.3065 94.1845 44.3629 93.9083 44.353C93.4464 44.3593 92.9942 44.2214 92.6145 43.9585C92.2347 43.6965 91.9671 43.3018 91.8641 42.8522C91.7604 42.4072 91.7148 41.9506 91.7283 41.4938C91.7208 41.2175 91.7316 40.9408 91.7606 40.6658C91.7743 40.4613 91.8134 40.2591 91.877 40.0642C92.0003 39.6393 92.2536 39.2638 92.6015 38.9905C92.9705 38.7029 93.4276 38.5521 93.8952 38.5634C94.1799 38.5436 94.4651 38.5919 94.7273 38.7044C94.9893 38.8169 95.221 38.9904 95.4026 39.2104H95.4413V38.7899C95.4373 38.7659 95.4423 38.7415 95.4555 38.7211C95.4687 38.7008 95.489 38.686 95.5125 38.68ZM95.396 42.2054V40.7305C95.3898 40.608 95.3703 40.4866 95.3378 40.3682C95.2884 40.1406 95.1816 39.9293 95.0279 39.7542C94.8741 39.5792 94.6782 39.4463 94.4587 39.368C94.2393 39.2896 94.0035 39.2685 93.7736 39.3066C93.5437 39.3447 93.3274 39.4407 93.1449 39.5855C92.8987 39.7868 92.7185 40.0572 92.6274 40.3618C92.5422 40.7285 92.5052 41.1046 92.5175 41.4809C92.4988 41.8572 92.5359 42.2344 92.6274 42.5999C92.699 42.9146 92.8773 43.1948 93.132 43.3929C93.3867 43.5909 93.7021 43.6947 94.0247 43.6867C94.3515 43.6992 94.6715 43.591 94.9238 43.3826C95.1517 43.1839 95.3028 42.9116 95.3508 42.6129C95.3754 42.4783 95.3905 42.3421 95.396 42.2054Z" fill="url(#paint21_linear_466_768)"/>
<path d="M97.9819 37.4768C97.8633 37.3559 97.7969 37.1933 97.7969 37.0241C97.7969 36.8547 97.8633 36.6921 97.9819 36.5712C98.0989 36.4649 98.2507 36.4051 98.4088 36.4031C98.5725 36.4145 98.7255 36.4877 98.8372 36.6078C98.9489 36.7278 99.0108 36.886 99.0104 37.0499C99.0005 37.1998 98.9388 37.3417 98.8358 37.451C98.7198 37.5597 98.5677 37.6218 98.4088 37.6256C98.2527 37.6327 98.0998 37.5794 97.9819 37.4768ZM97.9819 44.1979V38.79C97.9799 38.7646 97.9873 38.7392 98.0028 38.7188C98.0184 38.6986 98.0409 38.6848 98.066 38.6801H98.6611C98.6739 38.6783 98.6869 38.6789 98.6993 38.6822C98.7118 38.6855 98.7235 38.6912 98.7337 38.6991C98.7439 38.7068 98.7526 38.7166 98.759 38.7278C98.7654 38.739 98.7694 38.7513 98.7711 38.7641V44.2109C98.7729 44.2236 98.7721 44.2366 98.7689 44.2491C98.7656 44.2615 98.7599 44.2732 98.7521 44.2834C98.7443 44.2937 98.7345 44.3022 98.7233 44.3086C98.7121 44.315 98.6998 44.3192 98.687 44.3208H98.0919C98.0795 44.3236 98.0666 44.3238 98.0542 44.3213C98.0418 44.3188 98.03 44.3138 98.0196 44.3065C98.0092 44.2992 98.0006 44.2897 97.994 44.2788C97.9875 44.2679 97.9834 44.2558 97.9819 44.2432C97.9819 44.2432 98.0014 44.2109 98.0014 44.1979H97.9819Z" fill="url(#paint22_linear_466_768)"/>
<path d="M105.103 41.3255V41.6813C105.106 41.6941 105.106 41.7075 105.103 41.7204C105.1 41.7332 105.095 41.7454 105.087 41.7558C105.079 41.7663 105.069 41.7749 105.057 41.781C105.045 41.7872 105.032 41.7907 105.019 41.7912H101.39C101.39 41.7912 101.351 41.7912 101.351 41.8365C101.35 42.1009 101.372 42.365 101.416 42.6258C101.483 42.9479 101.671 43.2325 101.94 43.4214C102.242 43.6234 102.599 43.7253 102.962 43.7124C103.252 43.7173 103.538 43.6434 103.79 43.499C104.029 43.3553 104.222 43.1467 104.346 42.8975C104.392 42.8262 104.443 42.8133 104.502 42.8522L104.929 43.1109C104.954 43.1235 104.973 43.1453 104.983 43.1717C104.993 43.1982 104.992 43.2274 104.98 43.2533C104.792 43.6198 104.493 43.9183 104.126 44.1071C103.728 44.3158 103.283 44.4203 102.833 44.4111C102.362 44.4229 101.899 44.2896 101.507 44.0295C101.144 43.783 100.874 43.4237 100.737 43.0074C100.58 42.51 100.512 41.9888 100.536 41.4678V40.7433C100.543 40.5642 100.569 40.3863 100.614 40.2129C100.729 39.7498 101.001 39.3406 101.384 39.055C101.825 38.7667 102.345 38.6203 102.872 38.6353C103.399 38.6504 103.909 38.8262 104.333 39.1391C104.722 39.5306 104.962 40.0452 105.013 40.5945C105.058 40.8361 105.088 41.0802 105.103 41.3255ZM101.908 39.5595C101.666 39.7479 101.498 40.0161 101.435 40.3164C101.378 40.5668 101.35 40.8229 101.351 41.0798C101.351 41.0798 101.351 41.1249 101.39 41.1249H104.282C104.314 41.1249 104.327 41.1249 104.327 41.0798C104.319 40.8391 104.296 40.5991 104.256 40.3617C104.183 40.1313 104.058 39.9209 103.89 39.7475C103.722 39.574 103.516 39.4422 103.288 39.3624C103.06 39.2826 102.816 39.2572 102.577 39.288C102.337 39.3189 102.108 39.4052 101.908 39.5402V39.5595Z" fill="url(#paint23_linear_466_768)"/>
<path d="M107.316 44.1789C107.025 44.0686 106.769 43.8833 106.572 43.6419C106.403 43.4284 106.309 43.1643 106.307 42.8916V42.7623C106.305 42.7494 106.306 42.7365 106.309 42.724C106.313 42.7116 106.318 42.6999 106.326 42.6897C106.334 42.6794 106.344 42.6708 106.355 42.6644C106.366 42.658 106.378 42.6538 106.391 42.6522H106.96C106.973 42.6494 106.987 42.6494 106.999 42.6523C107.012 42.6552 107.024 42.6608 107.035 42.6688C107.045 42.6767 107.054 42.687 107.06 42.6986C107.066 42.7103 107.07 42.7233 107.07 42.7364V42.8528C107.075 42.9839 107.113 43.1116 107.179 43.2246C107.246 43.3375 107.34 43.432 107.452 43.4997C107.738 43.6876 108.074 43.7824 108.416 43.7714C108.748 43.7848 109.076 43.6943 109.354 43.5126C109.462 43.4428 109.551 43.3472 109.614 43.2342C109.676 43.1213 109.709 42.9947 109.71 42.8658C109.713 42.7808 109.699 42.6961 109.668 42.6169C109.637 42.5378 109.589 42.4661 109.529 42.4065C109.405 42.2876 109.26 42.1932 109.102 42.1283C108.933 42.0636 108.675 41.973 108.325 41.876C107.977 41.7786 107.635 41.6576 107.303 41.5137C107.042 41.4045 106.81 41.2362 106.624 41.0222C106.437 40.7928 106.34 40.5029 106.352 40.2071C106.345 39.9865 106.393 39.7677 106.491 39.5701C106.589 39.3725 106.735 39.2024 106.915 39.075C107.343 38.7715 107.86 38.6211 108.384 38.6481C108.756 38.6373 109.126 38.7056 109.47 38.8487C109.762 38.9578 110.016 39.1488 110.201 39.3985C110.368 39.625 110.457 39.8999 110.454 40.1813V40.2135C110.454 40.2912 110.421 40.33 110.344 40.33H109.82C109.794 40.3321 109.769 40.3246 109.748 40.309C109.728 40.2935 109.714 40.2711 109.71 40.2459V40.1813C109.709 40.0516 109.675 39.9244 109.611 39.8113C109.548 39.6983 109.457 39.603 109.347 39.5343C109.057 39.3472 108.715 39.2566 108.371 39.2756C108.05 39.261 107.733 39.3422 107.459 39.5085C107.348 39.5746 107.257 39.6698 107.197 39.7839C107.136 39.898 107.108 40.0264 107.116 40.1553C107.112 40.2732 107.141 40.3898 107.2 40.4925C107.258 40.5951 107.343 40.6798 107.446 40.7375C107.773 40.9127 108.121 41.0474 108.481 41.1386C108.836 41.2377 109.186 41.3565 109.529 41.4944C109.791 41.6051 110.027 41.7705 110.221 41.9795C110.42 42.208 110.524 42.5045 110.512 42.8075C110.518 43.0332 110.469 43.2569 110.37 43.4597C110.271 43.6625 110.124 43.8383 109.943 43.9719C109.501 44.2756 108.971 44.4257 108.435 44.3988C108.051 44.4011 107.671 44.3263 107.316 44.1789Z" fill="url(#paint24_linear_466_768)"/>
</g>
<defs>
<linearGradient id="paint0_linear_466_768" x1="0.870728" y1="11.3426" x2="28.0371" y2="11.3426" gradientUnits="userSpaceOnUse">
<stop stop-color="#83E617"/>
<stop offset="1" stop-color="#83E617" stop-opacity="0.4"/>
</linearGradient>
<linearGradient id="paint1_linear_466_768" x1="0.00012207" y1="25.5472" x2="38.2242" y2="25.5472" gradientUnits="userSpaceOnUse">
<stop stop-color="#83E617"/>
<stop offset="1" stop-color="#83E617" stop-opacity="0.4"/>
</linearGradient>
<linearGradient id="paint2_linear_466_768" x1="16.8394" y1="9.30822" x2="35.2366" y2="9.30822" gradientUnits="userSpaceOnUse">
<stop stop-color="#83E617"/>
<stop offset="1" stop-color="#83E617" stop-opacity="0.4"/>
</linearGradient>
<linearGradient id="paint3_linear_466_768" x1="42.6881" y1="25.0437" x2="53.8338" y2="25.0437" gradientUnits="userSpaceOnUse">
<stop stop-color="#83E617"/>
<stop offset="1" stop-color="#83E617" stop-opacity="0.4"/>
</linearGradient>
<linearGradient id="paint4_linear_466_768" x1="56.0192" y1="26.984" x2="65.3924" y2="26.984" gradientUnits="userSpaceOnUse">
<stop stop-color="#83E617"/>
<stop offset="1" stop-color="#83E617" stop-opacity="0.4"/>
</linearGradient>
<linearGradient id="paint5_linear_466_768" x1="67.8759" y1="26.8845" x2="77.0535" y2="26.8845" gradientUnits="userSpaceOnUse">
<stop stop-color="#83E617"/>
<stop offset="1" stop-color="#83E617" stop-opacity="0.4"/>
</linearGradient>
<linearGradient id="paint6_linear_466_768" x1="79.2184" y1="26.9485" x2="89.0966" y2="26.9485" gradientUnits="userSpaceOnUse">
<stop stop-color="#83E617"/>
<stop offset="1" stop-color="#83E617" stop-opacity="0.4"/>
</linearGradient>
<linearGradient id="paint7_linear_466_768" x1="88.2667" y1="25.0374" x2="99.128" y2="25.0374" gradientUnits="userSpaceOnUse">
<stop stop-color="#83E617"/>
<stop offset="1" stop-color="#83E617" stop-opacity="0.4"/>
</linearGradient>
<linearGradient id="paint8_linear_466_768" x1="98.6574" y1="26.974" x2="108.043" y2="26.974" gradientUnits="userSpaceOnUse">
<stop stop-color="#83E617"/>
<stop offset="1" stop-color="#83E617" stop-opacity="0.4"/>
</linearGradient>
<linearGradient id="paint9_linear_466_768" x1="110.19" y1="28.8857" x2="119.866" y2="28.8857" gradientUnits="userSpaceOnUse">
<stop stop-color="#83E617"/>
<stop offset="1" stop-color="#83E617" stop-opacity="0.4"/>
</linearGradient>
<linearGradient id="paint10_linear_466_768" x1="33.9297" y1="40.4196" x2="39.076" y2="40.4196" gradientUnits="userSpaceOnUse">
<stop stop-color="#83E617"/>
<stop offset="1" stop-color="#83E617" stop-opacity="0.4"/>
</linearGradient>
<linearGradient id="paint11_linear_466_768" x1="40.6654" y1="40.3619" x2="41.8696" y2="40.3619" gradientUnits="userSpaceOnUse">
<stop stop-color="#83E617"/>
<stop offset="1" stop-color="#83E617" stop-opacity="0.4"/>
</linearGradient>
<linearGradient id="paint12_linear_466_768" x1="43.4304" y1="41.5" x2="48.1059" y2="41.5" gradientUnits="userSpaceOnUse">
<stop stop-color="#83E617"/>
<stop offset="1" stop-color="#83E617" stop-opacity="0.4"/>
</linearGradient>
<linearGradient id="paint13_linear_466_768" x1="49.0647" y1="40.7792" x2="52.1886" y2="40.7792" gradientUnits="userSpaceOnUse">
<stop stop-color="#83E617"/>
<stop offset="1" stop-color="#83E617" stop-opacity="0.4"/>
</linearGradient>
<linearGradient id="paint14_linear_466_768" x1="53.3244" y1="41.4792" x2="57.8888" y2="41.4792" gradientUnits="userSpaceOnUse">
<stop stop-color="#83E617"/>
<stop offset="1" stop-color="#83E617" stop-opacity="0.4"/>
</linearGradient>
<linearGradient id="paint15_linear_466_768" x1="59.3104" y1="41.5005" x2="63.8853" y2="41.5005" gradientUnits="userSpaceOnUse">
<stop stop-color="#83E617"/>
<stop offset="1" stop-color="#83E617" stop-opacity="0.4"/>
</linearGradient>
<linearGradient id="paint16_linear_466_768" x1="65.3076" y1="40.4165" x2="69.5786" y2="40.4165" gradientUnits="userSpaceOnUse">
<stop stop-color="#83E617"/>
<stop offset="1" stop-color="#83E617" stop-opacity="0.4"/>
</linearGradient>
<linearGradient id="paint17_linear_466_768" x1="71.2585" y1="41.474" x2="75.5579" y2="41.474" gradientUnits="userSpaceOnUse">
<stop stop-color="#83E617"/>
<stop offset="1" stop-color="#83E617" stop-opacity="0.4"/>
</linearGradient>
<linearGradient id="paint18_linear_466_768" x1="77.0101" y1="41.4927" x2="81.6829" y2="41.4927" gradientUnits="userSpaceOnUse">
<stop stop-color="#83E617"/>
<stop offset="1" stop-color="#83E617" stop-opacity="0.4"/>
</linearGradient>
<linearGradient id="paint19_linear_466_768" x1="83.2787" y1="40.4165" x2="84.0749" y2="40.4165" gradientUnits="userSpaceOnUse">
<stop stop-color="#83E617"/>
<stop offset="1" stop-color="#83E617" stop-opacity="0.4"/>
</linearGradient>
<linearGradient id="paint20_linear_466_768" x1="85.6467" y1="41.495" x2="90.3062" y2="41.495" gradientUnits="userSpaceOnUse">
<stop stop-color="#83E617"/>
<stop offset="1" stop-color="#83E617" stop-opacity="0.4"/>
</linearGradient>
<linearGradient id="paint21_linear_466_768" x1="91.726" y1="42.5522" x2="96.206" y2="42.5522" gradientUnits="userSpaceOnUse">
<stop stop-color="#83E617"/>
<stop offset="1" stop-color="#83E617" stop-opacity="0.4"/>
</linearGradient>
<linearGradient id="paint22_linear_466_768" x1="97.7969" y1="40.3631" x2="99.0104" y2="40.3631" gradientUnits="userSpaceOnUse">
<stop stop-color="#83E617"/>
<stop offset="1" stop-color="#83E617" stop-opacity="0.4"/>
</linearGradient>
<linearGradient id="paint23_linear_466_768" x1="100.531" y1="41.523" x2="105.105" y2="41.523" gradientUnits="userSpaceOnUse">
<stop stop-color="#83E617"/>
<stop offset="1" stop-color="#83E617" stop-opacity="0.4"/>
</linearGradient>
<linearGradient id="paint24_linear_466_768" x1="106.306" y1="41.5234" x2="110.513" y2="41.5234" gradientUnits="userSpaceOnUse">
<stop stop-color="#83E617"/>
<stop offset="1" stop-color="#83E617" stop-opacity="0.4"/>
</linearGradient>
<clipPath id="clip0_466_768">
<rect width="120.244" height="46.0748" fill="white" transform="translate(6.10352e-05 0.858398)"/>
</clipPath>
</defs>
</svg>
