<svg width="84" height="37" viewBox="0 0 84 37" fill="none" xmlns="http://www.w3.org/2000/svg">
<g clip-path="url(#clip0_466_812)">
<path d="M68.5297 21.1945C71.0397 24.0148 73.459 26.7317 76.0012 29.6038V20.7287H78.2847V35.6456C77.908 35.4741 77.5539 35.2569 77.2302 34.9987C74.3107 31.7687 71.4019 28.5343 68.5039 25.2956C68.3163 25.0821 68.1157 24.8751 67.7988 24.5258V35.251H65.4506V34.4359C65.4506 30.1924 65.4506 25.9555 65.4506 21.712C65.4506 21.2462 65.3601 21.0133 64.8426 20.8709C63.3343 20.5066 61.95 19.7475 60.832 18.6716C60.8966 18.5617 60.9419 18.4711 61.0001 18.3805C61.0583 18.29 61.1166 18.2382 61.1878 18.1477C61.3495 18.2447 61.4853 18.3158 61.6147 18.4C63.4859 19.6191 65.7384 20.1114 67.9475 19.7842C69.4337 19.5369 70.7728 18.7405 71.6995 17.5525C72.508 16.5205 73.2533 15.4404 73.9312 14.3182C73.9886 14.182 74.0183 14.0357 74.0183 13.888C74.0183 13.7402 73.9886 13.5939 73.9312 13.4578C72.4627 9.74475 70.9684 6.0511 69.4871 2.34451C69.4095 2.14398 69.3383 1.93696 69.2348 1.6394C70.1017 1.6394 70.8844 1.60706 71.6606 1.6394C71.8353 1.6394 72.0552 1.95638 72.1394 2.17632C73.1808 4.76381 74.1964 7.41598 75.2249 10.0423C75.309 10.2687 75.4125 10.4951 75.5548 10.8315C75.7101 10.5404 75.8265 10.3334 75.93 10.1199C77.2238 7.48067 78.4657 4.83498 79.7077 2.18926C79.7635 1.99775 79.8863 1.83275 80.0538 1.7246C80.2214 1.61646 80.4224 1.57241 80.6199 1.60059C81.215 1.64587 81.8165 1.60059 82.4958 1.60059C82.3858 1.87875 82.3212 2.05987 82.2371 2.24746C80.4194 5.99934 78.6274 9.76415 76.7709 13.4966C76.1288 14.7615 75.4072 15.9844 74.6104 17.1579C73.9803 18.153 73.155 19.0099 72.1843 19.6769C71.2136 20.3441 70.118 20.8074 68.9632 21.0392C68.8597 21.0909 68.7562 21.1297 68.5297 21.1945Z" fill="url(#paint0_linear_466_812)"/>
<path d="M16.3716 15.3858C15.5823 15.3858 14.8384 15.3858 14.0946 15.3858C13.6677 15.3858 13.6417 15.1337 13.6029 14.8232C13.2838 12.4772 12.9647 10.1333 12.6456 7.79159C12.6456 7.64282 12.5744 7.49404 12.5097 7.19001C12.3544 7.49404 12.2574 7.65576 12.1863 7.83688C11.1642 10.1656 10.1357 12.4944 9.13948 14.8361C9.0961 15.0199 8.9844 15.1804 8.82701 15.2849C8.66964 15.3894 8.47838 15.4302 8.29207 15.3989C7.82632 15.3989 7.4188 15.4442 7.16652 14.8361C6.18974 12.5332 5.13535 10.2626 4.10681 7.98565C4.01626 7.78512 3.91275 7.58458 3.73162 7.2094C3.61518 7.9339 3.5117 8.50316 3.42761 9.04005C3.14946 10.9807 2.87129 12.9213 2.60606 14.8619C2.55431 15.2436 2.43143 15.4182 2.01743 15.3989C1.43524 15.3989 0.853049 15.3989 0.193237 15.3989L2.3732 1.65277C2.68986 1.6723 3.00742 1.6723 3.32409 1.65277C3.78337 1.59455 3.97096 1.7886 4.17797 2.20259C5.47171 5.06178 6.76546 7.91449 8.05921 10.7672C8.14977 10.9742 8.25329 11.1683 8.40207 11.4853C8.55085 11.1877 8.65433 10.9807 8.7449 10.7672L12.4644 2.29317C12.6359 2.0063 12.9036 1.78964 13.2199 1.68183C13.5363 1.57402 13.8806 1.58208 14.1916 1.70453C14.3046 1.80885 14.3741 1.95216 14.3856 2.10559C15.0714 6.43964 15.7527 10.778 16.4298 15.1207C16.4159 15.2102 16.3963 15.2987 16.3716 15.3858Z" fill="url(#paint1_linear_466_812)"/>
<path d="M44.3402 28.0893C44.1906 29.1541 43.9746 30.2084 43.6934 31.2461C42.5225 34.7522 39.6245 36.143 36.1508 35.7743C32.373 35.4056 30.0249 32.8632 29.8826 28.9755C29.822 27.6279 29.9726 26.279 30.3288 24.9779C31.2863 21.6983 34.2813 19.9323 37.8779 20.3399C41.895 20.8056 44.2173 23.6259 44.3402 28.0893ZM33.0264 28.0311L32.8323 28.0764C33.07 29.3473 33.3854 30.6024 33.7767 31.8347C34.0197 32.4849 34.4652 33.0397 35.0477 33.417C35.6301 33.7945 36.3185 33.9745 37.0111 33.9306C37.7069 33.9798 38.4005 33.808 38.9928 33.4397C39.5853 33.0716 40.0462 32.5256 40.3101 31.88C40.8412 30.6937 41.1157 29.4085 41.1157 28.1088C41.1157 26.809 40.8412 25.5238 40.3101 24.3375C40.0401 23.6841 39.5709 23.1323 38.9694 22.7608C38.3679 22.3892 37.6645 22.2166 36.9593 22.2675C36.2725 22.2493 35.5961 22.439 35.0189 22.8118C34.4417 23.1847 33.9907 23.7232 33.725 24.3569C33.1992 25.5005 32.9595 26.7548 33.0264 28.0118V28.0311Z" fill="url(#paint2_linear_466_812)"/>
<path d="M47.151 28.0454C47.2679 27.0652 47.4451 26.093 47.6814 25.1345C48.6906 21.7513 51.608 19.9595 55.2629 20.3477C58.6072 20.7164 60.7354 22.6375 61.434 25.9365C61.767 27.4877 61.7226 29.096 61.3046 30.6264C60.2438 34.5077 57.2747 36.1313 53.5874 35.8014C49.9002 35.4715 47.5974 33.0198 47.3063 29.2938C47.3063 28.8863 47.261 28.4788 47.2416 28.0778L47.151 28.0454ZM50.4242 27.5732C50.344 29.1027 50.6325 30.629 51.2652 32.0237C51.5518 32.6049 51.9992 33.0917 52.5541 33.4265C53.1089 33.7613 53.7482 33.93 54.396 33.9126C55.0572 33.9775 55.7224 33.8373 56.3011 33.5109C56.8798 33.1845 57.3439 32.6879 57.6304 32.0883C58.2414 30.85 58.5592 29.4877 58.5592 28.1069C58.5592 26.726 58.2414 25.3636 57.6304 24.1254C57.3453 23.5209 56.8835 23.0173 56.306 22.6812C55.7283 22.3451 55.0624 22.1922 54.396 22.2429C53.7461 22.2347 53.1074 22.4132 52.5558 22.7572C52.0044 23.1013 51.5631 23.5963 51.2846 24.1836C50.7382 25.2313 50.4437 26.3918 50.4242 27.5732Z" fill="url(#paint3_linear_466_812)"/>
<path d="M41.2319 8.89049L45.042 15.3592C44.0135 15.3592 43.1015 15.3592 42.2346 15.3592C42.0341 15.3592 41.7947 15.0875 41.6718 14.8805C40.8309 13.4962 39.9383 12.1313 39.2138 10.6888C39.046 10.2221 38.7132 9.83286 38.2783 9.59453C37.8433 9.35621 37.3363 9.28524 36.8526 9.39503V15.3398H34.0969V1.75545C34.0969 1.75545 34.1552 1.67783 34.1874 1.67783C36.2121 1.67783 38.2434 1.61963 40.2617 1.74254C41.0303 1.73083 41.778 1.99326 42.3707 2.48283C42.9633 2.9724 43.3623 3.6571 43.496 4.41413C43.6914 5.19843 43.6296 6.02471 43.3198 6.77125C43.0101 7.51779 42.4685 8.14506 41.7753 8.56058L41.2319 8.89049ZM36.872 3.44382V8.373C37.9064 8.45774 38.9396 8.19602 39.8088 7.62908C40.1727 7.37407 40.4544 7.01876 40.6198 6.60642C40.7851 6.19407 40.8271 5.74255 40.7403 5.30683C40.7075 4.91946 40.5487 4.55352 40.2881 4.26497C40.0276 3.97642 39.6798 3.78114 39.2978 3.70902C38.4943 3.57882 37.6846 3.49031 36.872 3.44382Z" fill="url(#paint4_linear_466_812)"/>
<path d="M19.5225 35.8534H16.4499V20.5226C16.4499 20.5226 16.5146 20.4514 16.5534 20.4514C18.8951 20.4514 21.2432 20.4514 23.5785 20.5744C24.4352 20.5984 25.2585 20.9121 25.9141 21.4643C26.5696 22.0164 27.0187 22.7745 27.188 23.6146C27.3823 24.4702 27.2989 25.3654 26.95 26.1703C26.601 26.9752 26.0047 27.648 25.2474 28.091C23.8321 28.964 22.1643 29.3354 20.5122 29.1454L19.5032 29.0613L19.5225 35.8534ZM19.5225 27.9811C20.7204 28.1189 21.9294 27.8452 22.9509 27.2047C23.2914 26.9725 23.5692 26.6597 23.7598 26.2942C23.9503 25.9287 24.0476 25.5219 24.0431 25.1097C24.0388 24.6976 23.9326 24.2929 23.7341 23.9316C23.5356 23.5705 23.2511 23.2638 22.9057 23.0389C21.8513 22.3921 20.6934 22.4826 19.5225 22.5602V27.9811Z" fill="url(#paint5_linear_466_812)"/>
<path d="M1.22716 31.4419L2.04223 31.1767C2.53866 32.3193 3.46096 33.2233 4.61325 33.6968C5.76555 34.1702 7.05703 34.1758 8.21339 33.7124C8.66309 33.5219 9.044 33.1988 9.30522 32.7862C9.56645 32.3735 9.69557 31.891 9.67533 31.403C9.66254 30.9461 9.49693 30.5066 9.20494 30.1548C8.91296 29.803 8.51144 29.5592 8.06462 29.4624C7.35953 29.2425 6.62207 29.126 5.90404 28.9385C5.42038 28.8264 4.94495 28.6817 4.48095 28.505C2.84436 27.8582 1.81582 26.6939 1.80936 24.8243C1.76724 23.9377 2.00338 23.06 2.48474 22.3143C2.9661 21.5684 3.66856 20.9918 4.49386 20.665C6.16219 19.9827 8.01797 19.9116 9.73357 20.4644C10.4844 20.6693 11.1514 21.106 11.6393 21.7124C12.1272 22.3188 12.4111 23.0638 12.4504 23.8412C12.0106 24.1128 11.7001 24.1969 11.3831 23.6147C10.9454 22.9381 10.3078 22.4144 9.55901 22.1165C8.8102 21.8186 7.9872 21.7613 7.20426 21.9522C6.67071 22.0393 6.15767 22.2234 5.6906 22.4955C5.38536 22.6703 5.13453 22.9262 4.96599 23.2349C4.79745 23.5436 4.71779 23.8928 4.73589 24.2441C4.75398 24.5953 4.86911 24.9347 5.06848 25.2244C5.26785 25.5141 5.54366 25.7429 5.86523 25.8853C6.53367 26.1523 7.2213 26.3685 7.92229 26.5321C8.63384 26.7456 9.35836 26.9203 10.044 27.179C11.5513 27.7871 12.5928 28.8221 12.7286 30.5233C12.8399 31.326 12.7208 32.1436 12.3852 32.8811C12.0497 33.6188 11.5114 34.2457 10.8332 34.6892C9.75145 35.4201 8.48946 35.8394 7.18535 35.901C5.88125 35.9625 4.58533 35.6642 3.43946 35.0385C2.94753 34.7792 2.51617 34.4186 2.17386 33.9804C1.83154 33.5422 1.58603 33.0363 1.45355 32.4963C1.35651 32.1728 1.31125 31.8365 1.22716 31.4419Z" fill="url(#paint6_linear_466_812)"/>
<path d="M65.5572 7.31239V9.17538H60.5698V13.5029H67.0385V15.3401H57.7688V1.68457H66.2558V3.50876H60.5439V7.33825L65.5572 7.31239Z" fill="url(#paint7_linear_466_812)"/>
<path d="M31.9602 15.3847C31.0611 15.3847 30.2718 15.3847 29.4891 15.3847C29.3693 15.3648 29.2553 15.3193 29.1548 15.2512C29.0543 15.1831 28.9697 15.094 28.9069 14.99C28.5317 14.2655 28.26 13.5023 27.8719 12.7843C27.8024 12.6702 27.7082 12.5732 27.5962 12.5005C27.4843 12.4277 27.3574 12.381 27.2251 12.3638C25.6467 12.3335 24.0683 12.3335 22.4899 12.3638C22.3493 12.384 22.2149 12.4351 22.0964 12.5135C21.9779 12.5917 21.8781 12.6953 21.8043 12.8165C21.4291 13.5088 21.1573 14.2591 20.8015 14.9578C20.7288 15.0688 20.6338 15.1637 20.5224 15.236C20.411 15.3084 20.2858 15.3568 20.1547 15.3782C19.5595 15.4364 18.958 15.3782 18.2593 15.3782C18.3823 15.0806 18.4534 14.8736 18.544 14.6795C20.5149 10.5267 22.4899 6.37588 24.4693 2.22727C24.6246 1.89736 24.7411 1.61273 25.2262 1.58039C25.7113 1.54804 25.8148 1.91029 25.9636 2.22727L31.6885 14.7055C31.7856 14.9125 31.8438 15.1001 31.9602 15.3847ZM24.8058 6.05027L22.8264 10.5202H26.8563L24.8058 6.05027Z" fill="url(#paint8_linear_466_812)"/>
<path d="M55.9329 13.4913V15.335H47.0514V1.69238H49.7035C49.7035 1.9576 49.7424 2.2228 49.7424 2.48155C49.7424 5.89057 49.7424 9.29317 49.7424 12.7022C49.7424 13.3038 49.8782 13.5237 50.5251 13.5044C52.291 13.4591 54.0894 13.4913 55.9329 13.4913Z" fill="url(#paint9_linear_466_812)"/>
</g>
<defs>
<linearGradient id="paint0_linear_466_812" x1="60.832" y1="18.6189" x2="82.4958" y2="18.6189" gradientUnits="userSpaceOnUse">
<stop stop-color="#83E617"/>
<stop offset="1" stop-color="#83E617" stop-opacity="0.4"/>
</linearGradient>
<linearGradient id="paint1_linear_466_812" x1="0.193237" y1="8.50781" x2="16.4298" y2="8.50781" gradientUnits="userSpaceOnUse">
<stop stop-color="#83E617"/>
<stop offset="1" stop-color="#83E617" stop-opacity="0.4"/>
</linearGradient>
<linearGradient id="paint2_linear_466_812" x1="29.8695" y1="28.0569" x2="44.3402" y2="28.0569" gradientUnits="userSpaceOnUse">
<stop stop-color="#83E617"/>
<stop offset="1" stop-color="#83E617" stop-opacity="0.4"/>
</linearGradient>
<linearGradient id="paint3_linear_466_812" x1="47.151" y1="28.0692" x2="61.6547" y2="28.0692" gradientUnits="userSpaceOnUse">
<stop stop-color="#83E617"/>
<stop offset="1" stop-color="#83E617" stop-opacity="0.4"/>
</linearGradient>
<linearGradient id="paint4_linear_466_812" x1="34.0969" y1="8.51165" x2="45.042" y2="8.51165" gradientUnits="userSpaceOnUse">
<stop stop-color="#83E617"/>
<stop offset="1" stop-color="#83E617" stop-opacity="0.4"/>
</linearGradient>
<linearGradient id="paint5_linear_466_812" x1="16.4499" y1="28.1524" x2="27.2905" y2="28.1524" gradientUnits="userSpaceOnUse">
<stop stop-color="#83E617"/>
<stop offset="1" stop-color="#83E617" stop-opacity="0.4"/>
</linearGradient>
<linearGradient id="paint6_linear_466_812" x1="1.22716" y1="28.0024" x2="12.7691" y2="28.0024" gradientUnits="userSpaceOnUse">
<stop stop-color="#83E617"/>
<stop offset="1" stop-color="#83E617" stop-opacity="0.4"/>
</linearGradient>
<linearGradient id="paint7_linear_466_812" x1="57.7688" y1="8.51233" x2="67.0385" y2="8.51233" gradientUnits="userSpaceOnUse">
<stop stop-color="#83E617"/>
<stop offset="1" stop-color="#83E617" stop-opacity="0.4"/>
</linearGradient>
<linearGradient id="paint8_linear_466_812" x1="18.2593" y1="8.49122" x2="31.9602" y2="8.49122" gradientUnits="userSpaceOnUse">
<stop stop-color="#83E617"/>
<stop offset="1" stop-color="#83E617" stop-opacity="0.4"/>
</linearGradient>
<linearGradient id="paint9_linear_466_812" x1="47.0514" y1="8.51369" x2="55.9329" y2="8.51369" gradientUnits="userSpaceOnUse">
<stop stop-color="#83E617"/>
<stop offset="1" stop-color="#83E617" stop-opacity="0.4"/>
</linearGradient>
<clipPath id="clip0_466_812">
<rect width="83.1595" height="35.9609" fill="white" transform="translate(0.192902 0.858398)"/>
</clipPath>
</defs>
</svg>
