<svg width="124" height="37" viewBox="0 0 124 37" fill="none" xmlns="http://www.w3.org/2000/svg">
<g clip-path="url(#clip0_466_1103)">
<mask id="mask0_466_1103" style="mask-type:luminance" maskUnits="userSpaceOnUse" x="0" y="0" width="124" height="37">
<path d="M123.745 0.257568H0.129318V36.2184H123.745V0.257568Z" fill="white"/>
</mask>
<g mask="url(#mask0_466_1103)">
<path d="M5.03834 30.4764C6.11706 31.5437 8.18704 34.351 9.49316 35.0933C12.9334 37.0596 16.1521 35.9634 20.1462 35.3718C21.9829 35.0992 23.7614 34.5424 25.4174 33.7187C27.1025 32.8777 30.8459 31.0448 32.1638 29.7399C35.3533 26.5961 35.1142 22.9827 35.1142 18.1802C35.1142 16.9157 34.9743 15.6571 34.7002 14.4217C34.2454 12.38 33.4174 10.4428 32.2571 8.69116C30.5544 6.12169 28.1988 4.03364 25.4116 2.64741C23.7556 1.82379 21.9771 1.26117 20.1404 0.988569C16.1521 0.396954 13.2075 -0.507867 9.76721 1.45838C8.46692 2.2008 6.11706 4.82245 5.03834 5.88388C3.32988 7.56592 1.9946 9.57277 1.1083 11.7826C0.764279 12.6352 0.490226 13.5168 0.291975 14.4159C0.0237525 15.6281 0.169525 19.7984 0.169525 21.086C0.169525 25.8886 1.84883 27.327 5.03834 30.4707V30.4764Z" fill="url(#paint0_linear_466_1103)"/>
<path d="M26.9512 29.2583H7.12607V10.7153L17.0386 7.21777L26.9512 10.7153V29.2583ZM8.33307 28.0692H25.7442V11.5447L17.0386 8.4706L8.33307 11.5447V28.0692Z" fill="url(#paint1_linear_466_1103)"/>
<path d="M15.08 19.7172V23.8933H13.8322V14.874H15.08V19.7172ZM18.9459 18.6326V14.874H20.1937V23.8933H18.9459V18.6326Z" fill="url(#paint2_linear_466_1103)"/>
<path d="M19.8379 19.7055C19.0099 20.2798 18.0129 20.5582 17.0041 20.4827C16.0128 20.5466 15.0275 20.2624 14.2228 19.6824L15.0158 18.7485C15.6222 19.085 16.3161 19.2415 17.0041 19.1894C17.7039 19.2358 18.3977 19.085 19.0099 18.7485L19.8379 19.7055Z" fill="url(#paint3_linear_466_1103)"/>
<path d="M43.4122 25.0763V29.1074H42.1119V19.7808H47.7561V20.935H43.4122V23.9337H47.0798V25.0879H43.4122V25.0763Z" fill="url(#paint4_linear_466_1103)"/>
<path d="M49.0452 26.834V22.0605H50.3163V26.8108C50.2872 27.1646 50.3863 27.5184 50.5962 27.8084C50.7127 27.9187 50.8469 28.0056 50.9985 28.0578C51.1501 28.11 51.3134 28.1332 51.4708 28.1158C51.7914 28.11 52.1122 28.0404 52.4038 27.907C52.771 27.7446 53.1151 27.5416 53.4242 27.2922V22.0547H54.6953V29.1076H53.4242V28.255C53.0685 28.5625 52.6719 28.8177 52.2521 29.0265C51.9081 29.1773 51.5407 29.2527 51.1676 29.2527C50.876 29.2759 50.5787 29.2294 50.3046 29.1192C50.0306 29.0148 49.7856 28.8467 49.5874 28.632C49.1968 28.1158 49.0044 27.4778 49.051 26.834H49.0452Z" fill="url(#paint5_linear_466_1103)"/>
<path d="M58.4566 22.0606H63.5353V23.1104H58.4566V26.7935C58.4274 27.1589 58.544 27.5185 58.7773 27.8027C58.9114 27.9187 59.063 28.0115 59.2263 28.0695C59.3954 28.1275 59.5703 28.1508 59.7452 28.1334C60.0426 28.1334 60.3399 28.0985 60.6316 28.0231C60.9463 27.9361 61.2438 27.8143 61.5295 27.6578L61.9959 28.6379C61.652 28.841 61.2788 28.9975 60.8939 29.0962C60.4974 29.2006 60.0892 29.2586 59.6811 29.2586C59.3487 29.276 59.0164 29.2296 58.7015 29.1194C58.3866 29.0091 58.1009 28.8352 57.856 28.6089C57.6286 28.3653 57.4536 28.0811 57.3428 27.7738C57.2321 27.4606 57.1797 27.1357 57.2029 26.8051V23.122H55.5703V22.2172L57.2321 22.0722L57.477 20.1292H58.4566V22.0722V22.0606Z" fill="url(#paint6_linear_466_1103)"/>
<path d="M62.8877 26.834V22.0605H64.1588V26.8108C64.1297 27.1646 64.223 27.5184 64.4388 27.8084C64.5553 27.9187 64.6895 28.0056 64.8411 28.0578C64.9927 28.11 65.156 28.1332 65.3134 28.1158C65.634 28.11 65.9547 28.0404 66.2462 27.907C66.6136 27.7446 66.9577 27.5416 67.2667 27.2922V22.0547H68.5378V29.1076H67.2667V28.255C66.9111 28.5625 66.5145 28.8177 66.0946 29.0265C65.7507 29.1773 65.3833 29.2527 65.0101 29.2527C64.7186 29.2759 64.4212 29.2294 64.1471 29.1192C63.8732 29.0148 63.6282 28.8467 63.4299 28.632C63.0393 28.1158 62.8468 27.4778 62.8936 26.834H62.8877Z" fill="url(#paint7_linear_466_1103)"/>
<path d="M72.9572 28.0578H75.5112V29.1077H69.7036V28.0578H71.7444V23.1104H69.8609V22.0606H72.794V23.4003C73.2371 22.9363 73.7619 22.5536 74.3449 22.281C74.8814 22.0373 75.4704 21.9155 76.0592 21.9213V23.1568C75.4995 23.1451 74.9397 23.238 74.4091 23.4236C73.8727 23.6324 73.3828 23.934 72.9513 24.3111V28.0637L72.9572 28.0578Z" fill="url(#paint8_linear_466_1103)"/>
<path d="M82.2682 27.64L82.7056 28.597C82.3149 28.8058 81.8951 28.9682 81.4636 29.0784C81.0379 29.1886 80.5948 29.2466 80.1516 29.2466C79.691 29.2755 79.2303 29.2118 78.7931 29.0552C78.3615 28.8986 77.9651 28.655 77.6327 28.336C77.003 27.5936 76.694 26.6366 76.7639 25.6737C76.6997 24.6819 76.9972 23.6959 77.5977 22.8954C77.8776 22.5648 78.2333 22.3039 78.6356 22.1298C79.0379 21.9558 79.4695 21.8804 79.9067 21.9036C80.2975 21.8804 80.6823 21.9443 81.0438 22.0834C81.4053 22.2226 81.7319 22.4373 82.0058 22.7156C82.5423 23.3479 82.8164 24.1599 82.7639 24.9835C82.7639 25.1169 82.7639 25.2329 82.7581 25.3199C82.7581 25.4069 82.7406 25.4881 82.7231 25.5693L82.3849 25.9579H78.0351C78.0117 26.5553 78.2158 27.1412 78.6064 27.5993C78.8222 27.7908 79.0672 27.9358 79.3411 28.0286C79.6152 28.1213 79.9009 28.1562 80.1867 28.133C80.519 28.133 80.8514 28.0923 81.1721 28.0112C81.5452 27.9184 81.9126 27.7908 82.2624 27.6342L82.2682 27.64ZM79.9067 22.9767C79.6677 22.9592 79.4287 22.9941 79.2012 23.0752C78.9738 23.1565 78.7697 23.2899 78.6007 23.4523C78.2624 23.8814 78.07 24.4035 78.0525 24.9487H81.5803C81.6152 24.4208 81.4636 23.8988 81.1487 23.4638C80.9913 23.2957 80.7989 23.1622 80.5831 23.0752C80.3674 22.9882 80.1342 22.9534 79.9067 22.9708V22.9767Z" fill="url(#paint9_linear_466_1103)"/>
<path d="M92.5088 26.6481C92.5203 27.002 92.4563 27.3557 92.3163 27.6805C92.1763 28.0054 91.9664 28.3012 91.6982 28.5332C91.0918 29.032 90.3221 29.2872 89.5292 29.2466C89.0044 29.2408 88.4796 29.1596 87.9723 29.0088C87.4592 28.8637 86.9635 28.6434 86.5087 28.365L87.0918 27.3267C87.4941 27.5704 87.9257 27.7676 88.3746 27.9184C88.7537 28.0401 89.156 28.1039 89.5583 28.1039C89.9955 28.1329 90.4271 27.9995 90.7711 27.7269C91.0335 27.4775 91.1909 27.1411 91.2084 26.7873C91.226 26.4277 91.1035 26.0797 90.8702 25.8071C90.4271 25.4184 89.914 25.1227 89.36 24.9197C88.9693 24.7573 88.5962 24.5658 88.2289 24.357C88.0131 24.2295 87.809 24.0787 87.6225 23.9105C87.3775 23.6842 87.1851 23.4116 87.0568 23.1043C86.9344 22.7852 86.8702 22.4489 86.8761 22.1124C86.8644 21.776 86.9227 21.4396 87.0568 21.1321C87.1909 20.8189 87.3892 20.5406 87.6399 20.3144C88.1881 19.8388 88.9053 19.5952 89.634 19.6241C90.118 19.6241 90.5962 19.688 91.0627 19.8155C91.5233 19.9432 91.9723 20.1287 92.3921 20.3724L91.8498 21.4106C91.4883 21.2134 91.1035 21.051 90.7012 20.9292C90.3571 20.8248 89.9955 20.7668 89.6283 20.761C89.2376 20.7378 88.8528 20.8654 88.5553 21.1206C88.3163 21.3642 88.1764 21.689 88.1705 22.0312C88.1647 22.3735 88.2872 22.7041 88.5145 22.9593C88.9577 23.342 89.4709 23.6437 90.0248 23.8525C90.4095 24.009 90.7828 24.1947 91.1384 24.3977C91.3542 24.5253 91.5583 24.6761 91.7448 24.8443C91.9898 25.0705 92.1822 25.343 92.3163 25.6447C92.4446 25.9579 92.5088 26.2943 92.5029 26.6307L92.5088 26.6481Z" fill="url(#paint10_linear_466_1103)"/>
<path d="M97.7217 24.8155L100.392 29.1018H98.9345L96.8062 25.6914L95.4185 27.2516V29.1076H94.1473V19.3459H95.4185V25.7668L98.7304 22.0489H100.118L97.7275 24.8155H97.7217Z" fill="url(#paint11_linear_466_1103)"/>
<path d="M104.095 28.0578H106.427V29.1076H101.337V28.0578H102.864V23.1103H100.719V22.0604H104.089V28.0578H104.095ZM104.404 19.6766C104.392 19.8738 104.316 20.0594 104.182 20.2102C104.048 20.3552 103.867 20.4538 103.669 20.4828C103.471 20.5117 103.267 20.477 103.098 20.3784C102.923 20.2798 102.789 20.1231 102.719 19.9433C102.649 19.7578 102.643 19.5547 102.701 19.3692C102.765 19.1836 102.888 19.0212 103.057 18.9109C103.226 18.8008 103.424 18.7544 103.623 18.7775C103.821 18.8008 104.007 18.8878 104.147 19.027C104.235 19.114 104.299 19.2184 104.345 19.3285C104.392 19.4388 104.41 19.5606 104.404 19.6824V19.6766Z" fill="url(#paint12_linear_466_1103)"/>
<path d="M109.773 28.0578H112.036V29.1076H106.141V28.0578H108.502V20.4016H106.286V19.3518H109.773V28.0578Z" fill="url(#paint13_linear_466_1103)"/>
<path d="M115.522 28.0578H117.429V29.1076H111.889V28.0578H114.251V20.4016H112.035V19.3518H115.522V28.0578Z" fill="url(#paint14_linear_466_1103)"/>
<path d="M123.745 27.1527C123.757 27.4427 123.705 27.7386 123.582 28.0053C123.46 28.2721 123.279 28.5099 123.052 28.6956C122.491 29.1016 121.809 29.2988 121.116 29.2581C120.615 29.2581 120.119 29.1886 119.635 29.0552C119.174 28.9392 118.731 28.7594 118.329 28.5099L118.854 27.5181C119.214 27.7327 119.6 27.9009 119.996 28.0228C120.357 28.1272 120.737 28.1793 121.116 28.1793C121.478 28.2026 121.844 28.1213 122.16 27.9415C122.276 27.8604 122.363 27.756 122.422 27.6283C122.48 27.5065 122.509 27.3674 122.498 27.2281C122.498 27.1122 122.474 26.9903 122.422 26.8859C122.369 26.7815 122.299 26.6829 122.206 26.6133C121.816 26.3638 121.378 26.184 120.924 26.0796C120.58 25.9869 120.235 25.8708 119.903 25.7374C119.704 25.6563 119.518 25.5519 119.349 25.4301C119.115 25.2734 118.929 25.0531 118.806 24.8037C118.684 24.5426 118.625 24.2526 118.631 23.9627C118.625 23.6785 118.678 23.4 118.801 23.1448C118.918 22.8896 119.099 22.6634 119.32 22.4836C119.839 22.0834 120.485 21.8862 121.145 21.9151C121.582 21.9151 122.014 21.9674 122.434 22.066C122.848 22.1646 123.244 22.3096 123.623 22.5068L123.157 23.5161C122.83 23.3536 122.486 23.2202 122.136 23.1274C121.809 23.0404 121.471 22.994 121.127 22.994C120.801 22.9767 120.474 23.0578 120.2 23.2319C120.095 23.3072 120.008 23.4058 119.949 23.5161C119.891 23.6321 119.862 23.7596 119.867 23.8873C119.867 24.0032 119.891 24.1251 119.944 24.2295C119.996 24.3397 120.066 24.4324 120.159 24.5078C120.556 24.7573 120.999 24.9371 121.46 25.0415C121.804 25.1343 122.136 25.2503 122.469 25.3895C122.661 25.4765 122.848 25.5751 123.023 25.691C123.25 25.8593 123.436 26.0739 123.564 26.3233C123.687 26.5843 123.745 26.8685 123.74 27.1585L123.745 27.1527Z" fill="url(#paint15_linear_466_1103)"/>
<path d="M56.6597 12.8616C56.7238 13.8187 56.4439 14.7699 55.8667 15.5471C55.5693 15.8429 55.2136 16.0808 54.823 16.2432C54.4322 16.4056 54.0125 16.4868 53.5868 16.4925C53.1611 16.4925 52.7413 16.4114 52.3506 16.2548C51.9599 16.0981 51.6042 15.8661 51.301 15.5704C50.7296 14.7699 50.4556 13.8013 50.5255 12.8211C50.4614 11.864 50.7413 10.9186 51.3186 10.1472C51.6159 9.8514 51.9716 9.61939 52.3623 9.45699C52.753 9.29458 53.1728 9.21338 53.5985 9.21338C54.0241 9.21338 54.4439 9.29458 54.8346 9.45119C55.2253 9.60779 55.5809 9.8398 55.8841 10.1356C56.4556 10.9302 56.7297 11.8989 56.6597 12.8675V12.8616ZM51.8142 12.8211C51.7675 13.4997 51.9133 14.1783 52.2457 14.7757C52.409 14.973 52.613 15.1295 52.8462 15.2398C53.0795 15.3499 53.3361 15.4021 53.5926 15.408C53.8492 15.408 54.1058 15.3557 54.3389 15.2455C54.5722 15.1354 54.7763 14.9787 54.9396 14.7873C55.2719 14.2015 55.4235 13.5345 55.3769 12.8675C55.4235 12.1947 55.2719 11.5276 54.9396 10.936C54.7763 10.7388 54.5722 10.5822 54.3448 10.472C54.1116 10.3618 53.8608 10.3038 53.6042 10.3038C53.3477 10.3038 53.0911 10.356 52.8579 10.4604C52.6246 10.5648 52.4148 10.7214 52.2515 10.9128C51.925 11.4986 51.7734 12.1598 51.8258 12.8269L51.8142 12.8211Z" fill="url(#paint16_linear_466_1103)"/>
<path d="M58.2052 14.0907V9.35205H59.4763V14.0617C59.4472 14.4156 59.5405 14.7636 59.7563 15.0536C59.8728 15.1638 60.007 15.2449 60.1586 15.303C60.3102 15.361 60.4735 15.3784 60.6309 15.361C60.9515 15.3552 61.2722 15.2856 61.5638 15.1522C61.9311 14.9956 62.2752 14.7868 62.5843 14.5431V9.35205H63.8554V16.3412H62.5843V15.5002C62.2286 15.8018 61.832 16.057 61.4122 16.2658C61.0682 16.4166 60.7008 16.492 60.3276 16.4863C60.0361 16.5036 59.7387 16.463 59.4646 16.3529C59.1907 16.2484 58.9457 16.0802 58.7475 15.8714C58.3568 15.361 58.1643 14.7288 58.2111 14.0907H58.2052Z" fill="url(#paint17_linear_466_1103)"/>
<path d="M70.7529 14.4041C70.7646 14.6942 70.7121 14.9842 70.5896 15.2452C70.4672 15.5121 70.2864 15.744 70.0591 15.9297C69.4992 16.3298 68.8171 16.5271 68.1231 16.4864C67.6217 16.4864 67.126 16.4168 66.6421 16.2893C66.1815 16.179 65.7382 15.9934 65.3359 15.7499L65.8607 14.7637C66.2223 14.9727 66.6071 15.1408 67.0036 15.2626C67.3651 15.367 67.7441 15.4192 68.1173 15.4192C68.4788 15.4424 68.8462 15.3613 69.161 15.1815C69.2718 15.1002 69.3651 14.9958 69.4234 14.874C69.4818 14.7522 69.5109 14.6131 69.4992 14.4795C69.4992 14.3636 69.4759 14.2476 69.4293 14.1374C69.3768 14.033 69.3068 13.9401 69.2077 13.8647C68.817 13.6154 68.3797 13.4356 67.9249 13.337C67.5751 13.2442 67.2368 13.1339 66.9045 13.0005C66.7063 12.9194 66.5196 12.815 66.3506 12.6932C66.1173 12.5365 65.9307 12.3219 65.8083 12.0725C65.6858 11.8115 65.6275 11.5273 65.6333 11.2431C65.6275 10.9647 65.68 10.6863 65.8024 10.4311C65.9191 10.1759 66.0998 9.95549 66.3214 9.77569C66.8403 9.38127 67.4875 9.17826 68.1465 9.21307C68.5838 9.21307 69.0153 9.26527 69.4351 9.36388C69.8491 9.46248 70.2456 9.60748 70.6246 9.79888L70.1582 10.7965C69.8316 10.6341 69.4876 10.5065 69.1377 10.4137C68.8112 10.3267 68.4729 10.2861 68.129 10.2861C67.8024 10.2687 67.4759 10.3499 67.2018 10.5239C67.0969 10.5993 67.0095 10.6921 66.9511 10.8081C66.8928 10.9241 66.8694 11.0459 66.8694 11.1735C66.8694 11.2895 66.8928 11.4055 66.9453 11.5157C66.9978 11.6201 67.0678 11.7129 67.1611 11.7883C67.5575 12.0377 68.0007 12.2175 68.4614 12.3162C68.8054 12.409 69.1377 12.525 69.4701 12.6584C69.6625 12.7396 69.8491 12.844 70.024 12.96C70.2514 13.1224 70.438 13.337 70.5663 13.5864C70.6887 13.8474 70.747 14.1258 70.7412 14.41L70.7529 14.4041Z" fill="url(#paint18_linear_466_1103)"/>
<path d="M77.3946 14.8913L77.8319 15.8426C77.4413 16.0514 77.0214 16.2081 76.5899 16.3182C76.1643 16.4284 75.7211 16.4806 75.278 16.4806C74.8174 16.5096 74.3567 16.4458 73.9194 16.295C73.4879 16.1384 73.0914 15.8949 72.7591 15.5815C72.1293 14.845 71.8203 13.8996 71.8903 12.9426C71.8261 11.9565 72.1234 10.9821 72.724 10.1875C73.0039 9.86266 73.3596 9.60165 73.7619 9.42765C74.1642 9.25944 74.5958 9.17825 75.0331 9.20144C75.4238 9.17825 75.8085 9.24205 76.1759 9.38125C76.5374 9.52045 76.864 9.73506 77.1381 10.0077C77.6745 10.6341 77.9485 11.4403 77.8961 12.2524C77.8961 12.3858 77.8961 12.4959 77.8902 12.5887C77.8902 12.6757 77.8727 12.7569 77.8553 12.8382L77.517 13.2209H73.1672C73.1438 13.8125 73.3479 14.3926 73.7387 14.845C73.9486 15.0364 74.1993 15.1756 74.4733 15.2684C74.7474 15.3612 75.033 15.396 75.3188 15.3728C75.6511 15.3728 75.9835 15.3322 76.3042 15.2568C76.6774 15.164 77.0447 15.0364 77.3946 14.8856V14.8913ZM75.0331 10.2687C74.794 10.2513 74.555 10.2861 74.3275 10.3673C74.1002 10.4485 73.8961 10.5761 73.727 10.7443C73.3887 11.1677 73.1963 11.6897 73.1788 12.2291H76.7065C76.7357 11.7071 76.5841 11.1851 76.275 10.7617C76.1176 10.5935 75.9252 10.4601 75.7094 10.3731C75.4938 10.2861 75.2605 10.2513 75.0273 10.2687H75.0331Z" fill="url(#paint19_linear_466_1103)"/>
<path d="M115.366 10.1356C115.08 9.82239 114.724 9.57299 114.328 9.41638C113.931 9.25398 113.499 9.19017 113.074 9.21918H84.8641C84.4385 9.19597 84.0128 9.26558 83.6164 9.42799C83.2256 9.59038 82.8758 9.83979 82.5959 10.153C82.0187 10.9244 81.7388 11.8756 81.8029 12.8269C81.7329 13.8013 82.0012 14.7699 82.5785 15.5761C82.8641 15.8894 83.2198 16.1388 83.6164 16.2953C84.0128 16.4578 84.4444 16.5215 84.87 16.4925H113.08C113.506 16.5158 113.931 16.4461 114.328 16.2837C114.724 16.1213 115.074 15.872 115.348 15.5529C115.926 14.7757 116.205 13.8244 116.141 12.8674C116.211 11.8989 115.942 10.9302 115.372 10.1356H115.366ZM114.421 14.7873C114.269 14.9961 114.071 15.1585 113.832 15.2687C113.599 15.379 113.336 15.4253 113.08 15.408H84.87C84.6075 15.4253 84.3451 15.379 84.112 15.2687C83.8729 15.1585 83.6746 14.9904 83.523 14.7815C83.1907 14.1841 83.0449 13.5055 83.0916 12.8269C83.0391 12.1598 83.1907 11.4987 83.523 10.9128C83.6746 10.704 83.8787 10.5416 84.1178 10.4314C84.3568 10.3212 84.6134 10.2806 84.8758 10.298H113.086C113.349 10.2806 113.605 10.3328 113.838 10.443C114.071 10.5532 114.276 10.7214 114.421 10.936C114.753 11.5277 114.905 12.1946 114.858 12.8674C114.905 13.5345 114.753 14.2015 114.421 14.7815V14.7873Z" fill="url(#paint20_linear_466_1103)"/>
<path d="M120.567 15.3037H123.034V16.3477H117.285V15.3037H119.314V10.826H117.46V9.92697L119.314 9.78197V9.26575C119.278 8.90034 119.331 8.52913 119.459 8.18112C119.587 7.83312 119.792 7.51992 120.06 7.25891C120.328 6.9979 120.649 6.7949 121.004 6.67309C121.361 6.54549 121.739 6.49909 122.112 6.53389C122.398 6.53389 122.684 6.56289 122.964 6.6151C123.22 6.6615 123.471 6.73109 123.716 6.82389L123.378 7.82152C123.168 7.74032 122.957 7.67651 122.736 7.63591C122.533 7.60111 122.317 7.57791 122.107 7.57791C121.891 7.56052 121.675 7.58371 121.471 7.65332C121.267 7.72292 121.081 7.83892 120.923 7.98392C120.649 8.35513 120.521 8.81334 120.562 9.27736V9.78777H123.319V10.8318H120.567V15.3153V15.3037Z" fill="url(#paint21_linear_466_1103)"/>
<path d="M43.4122 12.2064V16.4869H42.1119V7.24146H43.4122V12.2064ZM47.4414 11.0927V7.24146H48.7357V16.4869H47.4414V11.0927Z" fill="url(#paint22_linear_466_1103)"/>
<path d="M48.3736 12.1884C47.5105 12.7801 46.4668 13.0643 45.4172 12.9889C44.3793 13.0527 43.3531 12.7627 42.5134 12.1653L43.3414 11.2083C43.9712 11.5563 44.6942 11.7129 45.4172 11.6607C46.1461 11.7129 46.8692 11.5505 47.5047 11.2083L48.3677 12.1884H48.3736Z" fill="url(#paint23_linear_466_1103)"/>
</g>
</g>
<defs>
<linearGradient id="paint0_linear_466_1103" x1="0.129982" y1="18.2361" x2="35.1182" y2="18.2361" gradientUnits="userSpaceOnUse">
<stop stop-color="#83E617"/>
<stop offset="1" stop-color="#83E617" stop-opacity="0.4"/>
</linearGradient>
<linearGradient id="paint1_linear_466_1103" x1="7.12607" y1="18.238" x2="26.9512" y2="18.238" gradientUnits="userSpaceOnUse">
<stop stop-color="#83E617"/>
<stop offset="1" stop-color="#83E617" stop-opacity="0.4"/>
</linearGradient>
<linearGradient id="paint2_linear_466_1103" x1="13.8322" y1="19.3837" x2="20.1937" y2="19.3837" gradientUnits="userSpaceOnUse">
<stop stop-color="#83E617"/>
<stop offset="1" stop-color="#83E617" stop-opacity="0.4"/>
</linearGradient>
<linearGradient id="paint3_linear_466_1103" x1="14.2228" y1="19.6217" x2="19.8379" y2="19.6217" gradientUnits="userSpaceOnUse">
<stop stop-color="#83E617"/>
<stop offset="1" stop-color="#83E617" stop-opacity="0.4"/>
</linearGradient>
<linearGradient id="paint4_linear_466_1103" x1="42.1119" y1="24.4441" x2="47.7561" y2="24.4441" gradientUnits="userSpaceOnUse">
<stop stop-color="#83E617"/>
<stop offset="1" stop-color="#83E617" stop-opacity="0.4"/>
</linearGradient>
<linearGradient id="paint5_linear_466_1103" x1="49.0441" y1="25.6566" x2="54.6953" y2="25.6566" gradientUnits="userSpaceOnUse">
<stop stop-color="#83E617"/>
<stop offset="1" stop-color="#83E617" stop-opacity="0.4"/>
</linearGradient>
<linearGradient id="paint6_linear_466_1103" x1="55.5703" y1="24.6957" x2="63.5353" y2="24.6957" gradientUnits="userSpaceOnUse">
<stop stop-color="#83E617"/>
<stop offset="1" stop-color="#83E617" stop-opacity="0.4"/>
</linearGradient>
<linearGradient id="paint7_linear_466_1103" x1="62.8867" y1="25.6566" x2="68.5378" y2="25.6566" gradientUnits="userSpaceOnUse">
<stop stop-color="#83E617"/>
<stop offset="1" stop-color="#83E617" stop-opacity="0.4"/>
</linearGradient>
<linearGradient id="paint8_linear_466_1103" x1="69.7036" y1="25.5144" x2="76.0592" y2="25.5144" gradientUnits="userSpaceOnUse">
<stop stop-color="#83E617"/>
<stop offset="1" stop-color="#83E617" stop-opacity="0.4"/>
</linearGradient>
<linearGradient id="paint9_linear_466_1103" x1="76.7542" y1="25.5761" x2="82.7703" y2="25.5761" gradientUnits="userSpaceOnUse">
<stop stop-color="#83E617"/>
<stop offset="1" stop-color="#83E617" stop-opacity="0.4"/>
</linearGradient>
<linearGradient id="paint10_linear_466_1103" x1="86.5087" y1="24.4363" x2="92.5101" y2="24.4363" gradientUnits="userSpaceOnUse">
<stop stop-color="#83E617"/>
<stop offset="1" stop-color="#83E617" stop-opacity="0.4"/>
</linearGradient>
<linearGradient id="paint11_linear_466_1103" x1="94.1473" y1="24.2268" x2="100.392" y2="24.2268" gradientUnits="userSpaceOnUse">
<stop stop-color="#83E617"/>
<stop offset="1" stop-color="#83E617" stop-opacity="0.4"/>
</linearGradient>
<linearGradient id="paint12_linear_466_1103" x1="100.719" y1="23.9397" x2="106.427" y2="23.9397" gradientUnits="userSpaceOnUse">
<stop stop-color="#83E617"/>
<stop offset="1" stop-color="#83E617" stop-opacity="0.4"/>
</linearGradient>
<linearGradient id="paint13_linear_466_1103" x1="106.141" y1="24.2297" x2="112.036" y2="24.2297" gradientUnits="userSpaceOnUse">
<stop stop-color="#83E617"/>
<stop offset="1" stop-color="#83E617" stop-opacity="0.4"/>
</linearGradient>
<linearGradient id="paint14_linear_466_1103" x1="111.889" y1="24.2297" x2="117.429" y2="24.2297" gradientUnits="userSpaceOnUse">
<stop stop-color="#83E617"/>
<stop offset="1" stop-color="#83E617" stop-opacity="0.4"/>
</linearGradient>
<linearGradient id="paint15_linear_466_1103" x1="118.329" y1="25.5879" x2="123.747" y2="25.5879" gradientUnits="userSpaceOnUse">
<stop stop-color="#83E617"/>
<stop offset="1" stop-color="#83E617" stop-opacity="0.4"/>
</linearGradient>
<linearGradient id="paint16_linear_466_1103" x1="50.5148" y1="12.853" x2="56.6704" y2="12.853" gradientUnits="userSpaceOnUse">
<stop stop-color="#83E617"/>
<stop offset="1" stop-color="#83E617" stop-opacity="0.4"/>
</linearGradient>
<linearGradient id="paint17_linear_466_1103" x1="58.2042" y1="12.9211" x2="63.8554" y2="12.9211" gradientUnits="userSpaceOnUse">
<stop stop-color="#83E617"/>
<stop offset="1" stop-color="#83E617" stop-opacity="0.4"/>
</linearGradient>
<linearGradient id="paint18_linear_466_1103" x1="65.3359" y1="12.8504" x2="70.7545" y2="12.8504" gradientUnits="userSpaceOnUse">
<stop stop-color="#83E617"/>
<stop offset="1" stop-color="#83E617" stop-opacity="0.4"/>
</linearGradient>
<linearGradient id="paint19_linear_466_1103" x1="71.8805" y1="12.8421" x2="77.9024" y2="12.8421" gradientUnits="userSpaceOnUse">
<stop stop-color="#83E617"/>
<stop offset="1" stop-color="#83E617" stop-opacity="0.4"/>
</linearGradient>
<linearGradient id="paint20_linear_466_1103" x1="81.792" y1="12.8558" x2="116.152" y2="12.8558" gradientUnits="userSpaceOnUse">
<stop stop-color="#83E617"/>
<stop offset="1" stop-color="#83E617" stop-opacity="0.4"/>
</linearGradient>
<linearGradient id="paint21_linear_466_1103" x1="117.285" y1="11.4352" x2="123.716" y2="11.4352" gradientUnits="userSpaceOnUse">
<stop stop-color="#83E617"/>
<stop offset="1" stop-color="#83E617" stop-opacity="0.4"/>
</linearGradient>
<linearGradient id="paint22_linear_466_1103" x1="42.1119" y1="11.8642" x2="48.7357" y2="11.8642" gradientUnits="userSpaceOnUse">
<stop stop-color="#83E617"/>
<stop offset="1" stop-color="#83E617" stop-opacity="0.4"/>
</linearGradient>
<linearGradient id="paint23_linear_466_1103" x1="42.5134" y1="12.1045" x2="48.3736" y2="12.1045" gradientUnits="userSpaceOnUse">
<stop stop-color="#83E617"/>
<stop offset="1" stop-color="#83E617" stop-opacity="0.4"/>
</linearGradient>
<clipPath id="clip0_466_1103">
<rect width="123.615" height="35.9609" fill="white" transform="translate(0.128849 0.258301)"/>
</clipPath>
</defs>
</svg>
