<svg width="87" height="38" viewBox="0 0 87 38" fill="none" xmlns="http://www.w3.org/2000/svg">
<g clip-path="url(#clip0_466_1133)">
<path d="M27.7619 8.18304C28.4388 8.18304 29.1003 7.98235 29.6631 7.60634C30.2258 7.23033 30.6643 6.69588 30.9233 6.0706C31.1823 5.44532 31.2502 4.75728 31.1182 4.09349C30.9861 3.42968 30.6601 2.81995 30.1815 2.34138C29.703 1.86282 29.0932 1.53691 28.4295 1.40486C27.7657 1.27283 27.0776 1.3406 26.4524 1.5996C25.8271 1.8586 25.2926 2.2972 24.9166 2.85994C24.5406 3.42267 24.3399 4.08427 24.3399 4.76108C24.3391 5.21069 24.427 5.65605 24.5987 6.07161C24.7704 6.48717 25.0224 6.86475 25.3403 7.18268C25.6582 7.50061 26.0358 7.75263 26.4514 7.92429C26.8669 8.09596 27.3123 8.1839 27.7619 8.18304Z" fill="url(#paint0_linear_466_1133)"/>
<path d="M30.3761 12.5688H25.3369C25.2132 12.5688 25.0907 12.5933 24.9766 12.6409C24.8623 12.6884 24.7585 12.7581 24.6713 12.8459C24.5842 12.9336 24.5152 13.0378 24.4685 13.1523C24.4217 13.2669 24.3981 13.3895 24.3989 13.5133V35.4165C24.3989 35.6652 24.4977 35.9037 24.6737 36.0797C24.8496 36.2556 25.0883 36.3544 25.3369 36.3544H30.3761C30.6249 36.3544 30.8633 36.2556 31.0393 36.0797C31.2152 35.9037 31.3141 35.6652 31.3141 35.4165V13.5133C31.3149 13.3895 31.2913 13.2669 31.2445 13.1523C31.1978 13.0378 31.1288 12.9336 31.0417 12.8459C30.9545 12.7581 30.8508 12.6884 30.7366 12.6409C30.6223 12.5933 30.4998 12.5688 30.3761 12.5688Z" fill="url(#paint1_linear_466_1133)"/>
<path d="M75.913 25.3897C75.9044 23.801 76.5246 22.2732 77.6384 21.14C78.7521 20.0069 80.2689 19.3604 81.8577 19.3415H85.7002C85.9436 19.3356 86.1754 19.2361 86.3471 19.0633C86.5186 18.8909 86.6181 18.6597 86.6253 18.4165V13.4421C86.6235 13.1909 86.5226 12.9508 86.3445 12.7738C86.1664 12.5969 85.9254 12.4976 85.6743 12.4976H81.8319C78.4435 12.4976 75.194 13.8436 72.7981 16.2395C70.4021 18.6354 69.0562 21.885 69.0562 25.2733V35.4228C69.0576 35.5436 69.083 35.663 69.1308 35.774C69.1784 35.8849 69.2476 35.9855 69.3342 36.0697C69.5051 36.2435 69.7374 36.3433 69.9812 36.3478H74.9039C75.1549 36.3478 75.3959 36.2486 75.574 36.0716C75.7521 35.8947 75.8531 35.6544 75.8548 35.4034L75.913 25.4932V25.3897Z" fill="url(#paint2_linear_466_1133)"/>
<path d="M7.0688 25.3896C7.06012 23.8036 7.67888 22.2784 8.79005 21.1466C9.90122 20.0149 11.4147 19.3683 13.0007 19.3478H16.8432C17.0863 19.3406 17.3175 19.2412 17.49 19.0697C17.6626 18.898 17.7622 18.6662 17.7682 18.4227V13.4483C17.7666 13.3275 17.7412 13.2082 17.6935 13.0971C17.6458 12.9861 17.5767 12.8856 17.49 12.8015C17.3191 12.6276 17.0868 12.5278 16.8432 12.5232H13.0007C11.3194 12.52 9.65397 12.8484 8.09991 13.4901C6.54585 14.1317 5.13368 15.0737 3.94442 16.2622C1.54299 18.6644 0.193475 21.9217 0.19252 25.3184V35.4679C0.194228 35.719 0.295172 35.9591 0.473317 36.1361C0.651462 36.313 0.892406 36.4123 1.14348 36.4123H6.05324C6.29695 36.4079 6.52918 36.3079 6.70011 36.1342C6.78674 36.0499 6.85588 35.9495 6.9036 35.8384C6.95133 35.7274 6.97676 35.6081 6.9783 35.4873L7.0365 25.5772L7.0688 25.3896Z" fill="url(#paint3_linear_466_1133)"/>
<path d="M57.7692 13.1893L52.5231 27.7181C52.4523 27.8958 52.3308 28.0487 52.1738 28.158C52.0143 28.2626 51.8277 28.3187 51.6369 28.3198C51.4481 28.319 51.2637 28.2627 51.1065 28.158C50.9479 28.0505 50.826 27.897 50.7572 27.7181L45.5046 13.1893C45.4387 13.0072 45.3191 12.8493 45.1617 12.7365C45.0028 12.6232 44.8135 12.5601 44.6183 12.5554H40.1873C40.036 12.5621 39.888 12.6018 39.7539 12.6718C39.6174 12.7425 39.5016 12.8473 39.4175 12.9758C39.3328 13.1016 39.2795 13.2458 39.2622 13.3963C39.2438 13.5472 39.2616 13.7001 39.314 13.8427L47.9563 35.7458C48.0267 35.9203 48.1471 36.0699 48.3025 36.1759C48.4581 36.2818 48.6414 36.3393 48.8295 36.3409H54.4379C54.6268 36.3402 54.8112 36.284 54.9683 36.1792C55.1236 36.0709 55.2448 35.9205 55.3177 35.7458L63.9146 13.8362C63.9623 13.6948 63.9778 13.5445 63.9599 13.3963C63.9392 13.2476 63.8838 13.1057 63.7982 12.9823C63.7127 12.859 63.5998 12.7571 63.4682 12.6848C63.3347 12.6137 63.1861 12.576 63.0348 12.5747H58.6554C58.4637 12.5758 58.2767 12.6344 58.1186 12.743C57.9614 12.8548 57.84 13.0099 57.7692 13.1893Z" fill="url(#paint4_linear_466_1133)"/>
</g>
<defs>
<linearGradient id="paint0_linear_466_1133" x1="24.3399" y1="4.76108" x2="31.1839" y2="4.76108" gradientUnits="userSpaceOnUse">
<stop stop-color="#83E617"/>
<stop offset="1" stop-color="#83E617" stop-opacity="0.4"/>
</linearGradient>
<linearGradient id="paint1_linear_466_1133" x1="24.3989" y1="24.4616" x2="31.3141" y2="24.4616" gradientUnits="userSpaceOnUse">
<stop stop-color="#83E617"/>
<stop offset="1" stop-color="#83E617" stop-opacity="0.4"/>
</linearGradient>
<linearGradient id="paint2_linear_466_1133" x1="69.0562" y1="24.4227" x2="86.6253" y2="24.4227" gradientUnits="userSpaceOnUse">
<stop stop-color="#83E617"/>
<stop offset="1" stop-color="#83E617" stop-opacity="0.4"/>
</linearGradient>
<linearGradient id="paint3_linear_466_1133" x1="0.19252" y1="24.4678" x2="17.7682" y2="24.4678" gradientUnits="userSpaceOnUse">
<stop stop-color="#83E617"/>
<stop offset="1" stop-color="#83E617" stop-opacity="0.4"/>
</linearGradient>
<linearGradient id="paint4_linear_466_1133" x1="39.2552" y1="24.4482" x2="63.9671" y2="24.4482" gradientUnits="userSpaceOnUse">
<stop stop-color="#83E617"/>
<stop offset="1" stop-color="#83E617" stop-opacity="0.4"/>
</linearGradient>
<clipPath id="clip0_466_1133">
<rect width="86.5308" height="37.0846" fill="white" transform="translate(0.192764 0.258301)"/>
</clipPath>
</defs>
</svg>
