<svg width="114" height="20" viewBox="0 0 114 20" fill="none" xmlns="http://www.w3.org/2000/svg">
<g clip-path="url(#clip0_466_803)">
<path d="M91.3415 1.30557V8.2211H100.6C100.6 8.2211 100.6 1.29883 100.6 1.30557H105.179C105.179 1.30557 105.179 18.5709 105.179 18.591H100.6V10.9752H91.3415C91.3415 10.9752 91.3415 18.591 91.3415 18.5843H86.7691V1.29883L91.3415 1.30557Z" fill="url(#paint0_linear_466_803)"/>
<path d="M47.8697 1.30469V4.24059H40.8598V18.5902H36.2809V4.24059H29.3182V1.30469H47.9033" fill="url(#paint1_linear_466_803)"/>
<path d="M65.6813 18.5906H60.5772L59.0755 14.8736H50.49C50.49 14.8736 49.0153 18.5974 48.9951 18.5906C48.9749 18.584 43.8909 18.5906 43.8909 18.5906L51.9714 1.30518H57.6009L65.6813 18.5906ZM54.7794 4.24108L51.5943 12.1061H57.9779L54.7794 4.24108Z" fill="url(#paint2_linear_466_803)"/>
<path d="M108.811 1.30518H113.396V18.5907H108.811V1.30518Z" fill="url(#paint3_linear_466_803)"/>
<path d="M5.60008 1.30606V8.22158H14.8522C14.8522 8.22158 14.8522 1.29932 14.8522 1.30606H19.4312C19.4312 1.30606 19.4312 18.5714 19.4312 18.5916H14.8522V10.9757H5.60008V18.5849H1.04132V1.29932L5.60008 1.30606Z" fill="url(#paint4_linear_466_803)"/>
<path d="M23.0662 1.30518H27.6452V18.5907H23.0662V1.30518Z" fill="url(#paint5_linear_466_803)"/>
<path d="M65.5217 13.8101C65.107 12.6242 64.8975 11.3763 64.9021 10.12C64.8382 8.36213 65.25 6.61965 66.094 5.0764C66.99 3.56472 68.3784 2.40693 70.0265 1.79706C71.6511 1.18346 73.3738 0.870852 75.1105 0.874544C77.0995 0.881133 79.0659 1.29596 80.888 2.09336C81.7137 2.44772 82.4422 2.9955 83.0117 3.69048C83.5813 4.38544 83.9753 5.20722 84.1606 6.08646C84.2333 6.44902 84.2852 6.81551 84.3156 7.18405H79.5076C79.5021 6.72481 79.4202 6.26968 79.2652 5.83731C79.084 5.35968 78.7963 4.92958 78.4241 4.57959C78.0519 4.22959 77.605 3.96887 77.1171 3.81718C75.7196 3.38532 74.2199 3.41602 72.8413 3.90473C72.2612 4.11367 71.7356 4.45027 71.3032 4.88968C70.8707 5.32909 70.5426 5.86009 70.343 6.44336C69.9107 7.60757 69.6829 8.83773 69.6697 10.0796C69.6813 11.1072 69.8307 12.1286 70.114 13.1165C70.2909 13.7352 70.6092 14.3044 71.044 14.7789C71.4788 15.2535 72.018 15.6203 72.619 15.8504C73.405 16.146 74.2372 16.2987 75.0768 16.3015C75.7948 16.3059 76.5087 16.1945 77.1912 15.9715C77.636 15.832 78.0461 15.5995 78.3943 15.2895C78.7426 14.9796 79.021 14.5993 79.2113 14.1737C79.4627 13.5888 79.5911 12.9585 79.5884 12.3219H84.4165C84.3876 12.8733 84.3088 13.421 84.1809 13.9582C83.9829 14.8011 83.5898 15.5859 83.033 16.249C82.4763 16.9121 81.7715 17.4353 80.9755 17.7762C79.1135 18.5649 77.1124 18.9724 75.0903 18.9748C73.514 18.9775 71.9468 18.7367 70.4439 18.261C69.3309 17.9431 68.3064 17.3723 67.4502 16.5933C66.594 15.8142 65.9294 14.8479 65.5082 13.7697" fill="url(#paint6_linear_466_803)"/>
</g>
<defs>
<linearGradient id="paint0_linear_466_803" x1="86.7691" y1="9.94493" x2="105.179" y2="9.94493" gradientUnits="userSpaceOnUse">
<stop stop-color="#83E617"/>
<stop offset="1" stop-color="#83E617" stop-opacity="0.4"/>
</linearGradient>
<linearGradient id="paint1_linear_466_803" x1="29.3182" y1="9.94743" x2="47.9033" y2="9.94743" gradientUnits="userSpaceOnUse">
<stop stop-color="#83E617"/>
<stop offset="1" stop-color="#83E617" stop-opacity="0.4"/>
</linearGradient>
<linearGradient id="paint2_linear_466_803" x1="43.8909" y1="9.94791" x2="65.6813" y2="9.94791" gradientUnits="userSpaceOnUse">
<stop stop-color="#83E617"/>
<stop offset="1" stop-color="#83E617" stop-opacity="0.4"/>
</linearGradient>
<linearGradient id="paint3_linear_466_803" x1="108.811" y1="9.94791" x2="113.396" y2="9.94791" gradientUnits="userSpaceOnUse">
<stop stop-color="#83E617"/>
<stop offset="1" stop-color="#83E617" stop-opacity="0.4"/>
</linearGradient>
<linearGradient id="paint4_linear_466_803" x1="1.04132" y1="9.94545" x2="19.4312" y2="9.94545" gradientUnits="userSpaceOnUse">
<stop stop-color="#83E617"/>
<stop offset="1" stop-color="#83E617" stop-opacity="0.4"/>
</linearGradient>
<linearGradient id="paint5_linear_466_803" x1="23.0662" y1="9.94791" x2="27.6452" y2="9.94791" gradientUnits="userSpaceOnUse">
<stop stop-color="#83E617"/>
<stop offset="1" stop-color="#83E617" stop-opacity="0.4"/>
</linearGradient>
<linearGradient id="paint6_linear_466_803" x1="64.8957" y1="9.92469" x2="84.4165" y2="9.92469" gradientUnits="userSpaceOnUse">
<stop stop-color="#83E617"/>
<stop offset="1" stop-color="#83E617" stop-opacity="0.4"/>
</linearGradient>
<clipPath id="clip0_466_803">
<rect width="113.501" height="19.1042" fill="white" transform="translate(0.12867 0.858398)"/>
</clipPath>
</defs>
</svg>
