<svg width="139" height="23" viewBox="0 0 139 23" fill="none" xmlns="http://www.w3.org/2000/svg">
<g clip-path="url(#clip0_466_1140)">
<path d="M29.0593 18.3251C28.4188 17.6702 27.7024 17.0771 27.2658 16.2563C26.4544 14.8945 26.1034 13.305 25.961 11.7393C25.5102 6.03128 29.4247 1.58066 35.2038 1.5854C39.8538 1.28649 44.7219 2.9614 45.984 7.91971C46.3542 9.24351 46.544 10.6195 46.3731 11.9955C46.3399 12.2849 46.3683 12.6028 46.2639 12.8686C46.1121 13.2623 46.1785 13.6941 45.9983 14.0831C45.8227 14.4675 45.7468 14.8992 45.5759 15.2884C45.0588 16.318 44.4705 17.3429 43.5784 18.0973C42.971 18.6192 42.321 19.1126 41.5524 19.3784C40.7363 19.682 39.9392 20.1565 39.0519 20.2087C39.0044 20.2419 38.957 20.2752 38.9047 20.3036C37.4481 20.5124 35.9772 20.7069 34.5064 20.4554C34.4779 20.4364 34.4447 20.4174 34.4162 20.3937C32.6179 20.2419 30.4828 19.4401 29.0593 18.3251ZM40.295 14.5719C40.855 13.1912 41.1966 11.725 41.0209 10.2257C40.8738 8.26132 40.0767 6.055 37.9795 5.51884C32.3759 3.94831 30.5397 8.66464 31.5599 13.381C31.5456 13.4094 31.5314 13.4426 31.5124 13.4711C31.6453 13.6894 31.707 13.9313 31.7971 14.1638C32.1103 14.9231 32.6512 15.5114 33.2633 16.0381C35.5076 17.3429 38.995 17.0581 40.2903 14.5672L40.295 14.5719Z" fill="url(#paint0_linear_466_1140)"/>
<path d="M14.5741 19.7956C13.3404 18.0733 12.2634 16.2418 10.9823 14.5526C10.8494 14.3818 10.6644 14.3771 10.5363 14.5479C10.2326 14.9417 9.93842 15.3497 9.65373 15.7626C8.97997 16.7448 8.31095 17.727 7.64193 18.7139C7.29082 19.2832 6.9919 19.8716 6.3988 20.2322C6.3561 20.2416 6.31814 20.2559 6.27543 20.2653C5.86738 20.5785 5.35969 20.4267 4.89945 20.4124C3.61835 20.4124 2.33252 20.4124 1.05142 20.4172C0.780967 20.4647 0.434598 20.4836 0.278019 20.2274C0.230572 20.1325 0.26853 19.9427 0.339702 19.8479C2.5223 17.0104 4.74287 14.1967 6.88751 11.3309C7.27184 10.7616 7.26236 10.4057 6.84956 9.86004C4.99908 7.40224 3.14387 4.94918 1.27917 2.50562C0.94229 2.16399 0.638623 1.74645 1.35034 1.59936C2.75006 1.59936 4.15452 1.6136 5.55423 1.62308C6.28967 1.58038 6.97766 1.64206 7.36673 2.35853C8.36788 3.92431 9.37379 5.48535 10.3987 7.04164C10.6454 7.41648 10.7782 7.41648 11.0345 7.04164C11.5611 6.27773 12.0926 5.51381 12.605 4.74516C13.0842 4.02395 13.5587 3.29799 14.0237 2.5673C14.4934 1.82712 15.1767 1.49973 16.0355 1.50447C17.2549 1.50447 18.4743 1.50447 19.6937 1.50921C20.1207 1.46177 20.9037 1.53768 20.5003 2.14501C18.5597 4.68348 16.6333 7.23143 14.6975 9.77463C14.1898 10.3108 14.2989 10.8944 14.7069 11.4543C16.2774 13.5136 17.8717 15.5585 19.4327 17.6226C19.9546 18.301 20.4956 18.9605 21.0175 19.6343C21.3021 19.9474 21.2927 20.4741 20.7281 20.4409C19.1195 20.3793 17.5111 20.4409 15.9026 20.4314C15.4756 20.4314 15.0675 20.2796 14.7686 19.9617C14.7686 19.9474 14.7591 19.9284 14.7544 19.9143L14.5788 19.7814L14.5741 19.7956Z" fill="url(#paint1_linear_466_1140)"/>
<path d="M121.295 6.14055C122.252 3.29367 124.991 1.28663 127.961 1.02567C130.281 0.826385 132.165 1.01618 134.243 2.15019C137.474 3.97693 138.58 7.85342 138.475 11.3551C138.499 14.0502 137.617 16.8401 135.742 18.8234C136.468 19.6252 137.175 20.4034 137.892 21.191C137.408 21.6466 136.952 22.0783 136.464 22.5385C135.71 21.694 134.959 20.8636 134.2 20.0191C132.458 21.044 129.029 21.4425 127.126 20.7972C126.518 20.8873 126.006 20.5694 125.474 20.3796C124.336 19.9669 123.435 19.2125 122.628 18.3347C121.887 17.547 121.517 16.5174 121.067 15.5495C121.062 15.4735 121.081 15.3787 121.071 15.298C120.853 15.0085 120.749 14.6527 120.702 14.2968C120.721 14.2778 120.734 14.2541 120.753 14.2351C120.74 14.2257 120.721 14.2162 120.706 14.2114C120.715 14.1783 120.73 14.145 120.74 14.1118C120.697 14.0643 120.649 14.0169 120.606 13.9648C120.526 13.476 120.441 12.992 120.379 12.5033C120.364 12.3895 120.426 12.2708 120.454 12.1522C120.412 12.0858 120.364 12.0241 120.322 11.9577C120.26 9.99807 120.435 7.93408 121.295 6.15004V6.14055ZM130.229 3.10863C130.167 3.12286 130.077 3.17506 129.996 3.16082C129.616 3.08016 129.242 3.13235 128.862 3.16082C127.225 3.24148 125.598 3.95321 124.601 5.28175C123.51 6.76212 123.069 8.63157 123.069 10.4346C122.997 11.9577 123.14 13.5187 123.672 14.9564C123.89 15.7867 124.455 16.4415 124.929 17.1437C125.076 17.3525 125.247 17.5755 125.461 17.7084C126.229 18.1543 127.012 18.643 127.876 18.8708C129.427 18.9989 131.168 19.0559 132.53 18.1733C131.824 17.3857 131.13 16.6075 130.423 15.8199C130.931 15.3787 131.41 14.9564 131.899 14.5341C132.62 15.3407 133.327 16.1378 134.049 16.9445C135.069 15.744 135.411 14.2541 135.728 12.7691C135.633 12.0763 135.752 11.3551 135.71 10.6528C135.747 6.90446 134.209 3.77765 130.229 3.11337V3.10863Z" fill="url(#paint2_linear_466_1140)"/>
<path d="M108.99 11.3836C109.412 11.5924 109.849 11.7822 110.252 12.0194C110.978 12.641 111.5 13.5188 111.571 14.4867C111.699 15.597 111.652 16.7167 111.727 17.827C111.742 18.942 111.87 19.5114 112.396 20.5079C111.576 20.5268 110.741 20.5173 109.92 20.5079C109.407 20.4082 109.161 19.4403 109.137 18.9847C109.094 18.0501 109.094 17.1153 109.032 16.1853C109.051 14.4346 108.506 12.7501 106.513 12.5698C104.368 12.3562 102.209 12.4892 100.06 12.4796V20.4983H97.4694C97.4741 14.1641 97.4599 7.82976 97.4741 1.49547C100.226 1.49547 102.983 1.47649 105.735 1.50021C107.391 1.50021 109.194 1.67577 110.551 2.72436C111.234 3.26053 111.86 4.02444 111.917 4.92596C111.965 4.96866 112.007 5.0161 112.055 5.05881C112.51 7.74911 111.841 10.4631 108.956 11.3362C108.966 11.3504 108.98 11.3599 108.99 11.3741V11.3836ZM108.615 4.59857C107.913 3.98174 106.94 3.79669 106.048 3.71129C104.055 3.66858 102.053 3.63537 100.06 3.68756V10.2971C101.863 10.2971 103.661 10.3065 105.464 10.2923C107.059 10.3303 108.795 9.8036 109.303 8.11445C109.621 6.94724 109.554 5.47161 108.615 4.60331V4.59857Z" fill="url(#paint3_linear_466_1140)"/>
<path d="M89.8414 20.4983H87.0895C86.5107 18.923 85.8796 17.3857 85.3671 15.7962C85.3244 15.6681 85.2674 15.6064 85.1156 15.6064C82.4966 15.6254 79.8726 15.5827 77.2583 15.6254C76.6937 17.1722 76.1243 18.7428 75.5597 20.2942C75.5027 20.4509 75.4126 20.5268 75.2132 20.522C74.4589 20.503 73.6997 20.5173 72.9452 20.5126C72.7223 20.5126 72.6986 20.4366 72.7793 20.2327C72.9928 19.687 73.173 19.1318 73.3771 18.5862C73.6522 18.1022 73.8373 17.5661 74.0034 17.0299C74.1457 16.5175 74.4304 16.0714 74.5822 15.559C75.6308 12.7738 76.6984 9.97912 77.747 7.18919C78.4444 5.36719 79.1467 3.56417 79.8299 1.73267C79.8916 1.56187 79.9628 1.48594 80.1621 1.49069C80.9165 1.50493 81.6757 1.50018 82.4301 1.49069C82.6009 1.49069 82.6721 1.54289 82.7291 1.7042C83.6637 4.17624 84.608 6.64828 85.5285 9.12506C86.9804 12.9161 88.4085 16.6977 89.8414 20.4983ZM81.3103 4.20471C81.3103 4.20471 81.2676 4.21421 81.2439 4.21895C80.2143 7.15597 79.18 10.093 78.1218 13.0205C77.9937 13.3764 78.0364 13.4285 78.4113 13.4285C80.4705 13.4285 82.5155 13.4285 84.5748 13.4285C83.4787 10.335 82.3969 7.26984 81.3103 4.20471Z" fill="url(#paint4_linear_466_1140)"/>
<path d="M65.7658 11.7109C63.3603 13.5423 59.1089 12.7548 56.1671 12.954V20.4983H53.5812C53.586 14.164 53.5717 7.82967 53.586 1.49538C56.4897 1.56655 59.422 1.32456 62.3117 1.62823C64.7172 1.52859 67.3269 3.05641 67.6401 5.59487C67.9864 7.74901 67.6685 10.3586 65.7611 11.7156L65.7658 11.7109ZM63.3887 4.05282C63.0187 3.93894 62.6438 3.72068 62.2831 3.74441C61.8988 3.76813 61.5525 3.64477 61.1728 3.65426C59.5074 3.70645 57.8468 3.66374 56.1766 3.66374V10.7809C57.7614 10.8094 59.3509 10.7999 60.9356 10.7809C62.3685 10.7335 64.0624 10.482 64.7267 9.02062C65.1917 8.22823 65.1727 7.20336 65.1016 6.30185C64.9829 5.21055 64.3186 4.54628 63.384 4.05282H63.3887Z" fill="url(#paint5_linear_466_1140)"/>
</g>
<defs>
<linearGradient id="paint0_linear_466_1140" x1="25.9257" y1="11.0631" x2="46.4365" y2="11.0631" gradientUnits="userSpaceOnUse">
<stop stop-color="#83E617"/>
<stop offset="1" stop-color="#83E617" stop-opacity="0.4"/>
</linearGradient>
<linearGradient id="paint1_linear_466_1140" x1="0.256958" y1="10.9796" x2="21.2013" y2="10.9796" gradientUnits="userSpaceOnUse">
<stop stop-color="#83E617"/>
<stop offset="1" stop-color="#83E617" stop-opacity="0.4"/>
</linearGradient>
<linearGradient id="paint2_linear_466_1140" x1="120.31" y1="11.7475" x2="138.482" y2="11.7475" gradientUnits="userSpaceOnUse">
<stop stop-color="#83E617"/>
<stop offset="1" stop-color="#83E617" stop-opacity="0.4"/>
</linearGradient>
<linearGradient id="paint3_linear_466_1140" x1="97.4676" y1="11.0035" x2="112.396" y2="11.0035" gradientUnits="userSpaceOnUse">
<stop stop-color="#83E617"/>
<stop offset="1" stop-color="#83E617" stop-opacity="0.4"/>
</linearGradient>
<linearGradient id="paint4_linear_466_1140" x1="72.7369" y1="11.0064" x2="89.8414" y2="11.0064" gradientUnits="userSpaceOnUse">
<stop stop-color="#83E617"/>
<stop offset="1" stop-color="#83E617" stop-opacity="0.4"/>
</linearGradient>
<linearGradient id="paint5_linear_466_1140" x1="53.5795" y1="10.9845" x2="67.7624" y2="10.9845" gradientUnits="userSpaceOnUse">
<stop stop-color="#83E617"/>
<stop offset="1" stop-color="#83E617" stop-opacity="0.4"/>
</linearGradient>
<clipPath id="clip0_466_1140">
<rect width="138.225" height="22.4755" fill="white" transform="translate(0.257568 0.258301)"/>
</clipPath>
</defs>
</svg>
