<svg width="113" height="25" viewBox="0 0 113 25" fill="none" xmlns="http://www.w3.org/2000/svg">
<g clip-path="url(#clip0_466_715)">
<path d="M36.9514 12.4705V23.6485H32.9344V22.0313C32.3028 22.6467 31.5491 23.1228 30.722 23.4286C29.807 23.7322 28.8461 23.8745 27.8822 23.849C25.78 23.849 24.1951 23.3833 23.1083 22.4389C22.5585 21.9333 22.1281 21.3116 21.8484 20.619C21.5687 19.9264 21.4467 19.1802 21.4912 18.4347C21.4507 17.7081 21.5859 16.9824 21.8855 16.3192C22.185 15.656 22.6399 15.0746 23.2118 14.6246C24.3632 13.7621 26.0193 13.3309 28.1798 13.3309H32.8309V12.2893C32.8309 10.2 31.6083 9.1585 29.1502 9.1585C28.2967 9.08799 27.4437 9.30178 26.7244 9.76655C26.4867 9.94726 26.295 10.1814 26.1646 10.45C26.0343 10.7186 25.969 11.0141 25.974 11.3126V11.4161H22.0216V11.3126C21.9931 10.5492 22.1556 9.79088 22.4945 9.10631C22.8333 8.42174 23.3379 7.83264 23.9623 7.39253C25.5213 6.36408 27.3692 5.863 29.2342 5.96295C31.7117 5.96295 33.6136 6.51925 34.9396 7.64481C36.2657 8.77037 36.932 10.3811 36.932 12.4899L36.9514 12.4705ZM32.8114 16.1965H28.9301C28.0373 16.1392 27.1449 16.3176 26.3426 16.714C26.0672 16.8847 25.8433 17.1273 25.6951 17.4156C25.547 17.7039 25.4801 18.0271 25.5017 18.3506C25.4901 18.6677 25.5596 18.9826 25.7032 19.2655C25.8469 19.5484 26.0603 19.7901 26.3233 19.9678C27.0676 20.3982 27.9237 20.5964 28.7815 20.537C31.4854 20.537 32.8309 19.4503 32.8309 17.3026L32.8114 16.1965Z" fill="url(#paint0_linear_466_715)"/>
<path d="M44.7123 0.418945V7.99384C45.3198 7.31702 46.0775 6.79195 46.9246 6.46074C47.8182 6.10878 48.7715 5.93305 49.732 5.94324C50.5948 5.89288 51.4587 6.0253 52.2669 6.33186C53.0751 6.63841 53.8094 7.11217 54.4219 7.72215C55.5344 8.9124 56.0908 10.5857 56.0908 12.7419V23.6482H51.9443V13.5828C51.9443 10.9565 50.795 9.64337 48.4964 9.64337C47.987 9.61449 47.4771 9.69091 46.9985 9.86787C46.52 10.0448 46.083 10.3185 45.715 10.6719C44.9887 11.5264 44.6285 12.6328 44.7123 13.751V23.6482H40.5658V0.418945H44.7123Z" fill="url(#paint1_linear_466_715)"/>
<path d="M59.7075 17.9945V0.418945H63.8604V17.7228C63.7929 18.3687 63.9784 19.0156 64.3779 19.5276C64.907 19.9327 65.5721 20.1181 66.2344 20.0451H67.8064V23.6482H65.497C63.5392 23.6482 62.0838 23.1824 61.1307 22.2509C60.1776 21.3194 59.7033 19.9007 59.7075 17.9945Z" fill="url(#paint2_linear_466_715)"/>
<path d="M73.7312 16.106C73.7312 18.9134 75.1587 20.3171 78.0136 20.3171C78.834 20.3488 79.6486 20.1636 80.3746 19.7802C80.6577 19.6295 80.9009 19.4136 81.0843 19.1504C81.2676 18.8872 81.3857 18.5844 81.4291 18.2666L81.4614 18.1631H85.5108V18.3636C85.4722 19.1642 85.2518 19.9456 84.8662 20.6483C84.4807 21.351 83.9401 21.9567 83.2855 22.4195C81.6875 23.5093 79.7773 24.0476 77.8453 23.9525C75.2838 23.9525 73.2698 23.2453 71.8036 21.8309C70.3417 20.4206 69.6172 18.3506 69.6172 15.6402V14.1201C69.6172 11.4506 70.3309 9.40221 71.7583 7.97478C73.1857 6.54734 75.1479 5.83579 77.6449 5.84011C80.1418 5.84011 82.1061 6.54736 83.5378 7.96185C84.9696 9.37635 85.6833 11.3967 85.679 14.0231V16.0413H73.7312V16.106ZM81.526 13.1822V12.9428C81.5629 12.4516 81.4871 11.9585 81.3043 11.5011C81.1216 11.0437 80.8368 10.6341 80.4717 10.3035C79.6684 9.67371 78.6641 9.35654 77.6449 9.41084C75.191 9.41084 73.8865 10.6679 73.7312 13.1822H81.526Z" fill="url(#paint3_linear_466_715)"/>
<path d="M93.041 6.14412V8.13002C93.6025 7.35742 94.3593 6.74796 95.2339 6.36406C96.147 5.96406 97.135 5.76338 98.1319 5.77539C98.6802 5.76838 99.228 5.81169 99.7685 5.90477V9.88305C98.9777 9.58176 98.1371 9.43252 97.291 9.44317C96.7282 9.40991 96.1647 9.49586 95.6374 9.69539C95.1102 9.89493 94.631 10.2036 94.2312 10.6011C93.4515 11.5367 93.0623 12.7367 93.1445 13.9518V23.655H89.0174V6.14412H93.041Z" fill="url(#paint4_linear_466_715)"/>
<path d="M108.371 17.9952C108.313 18.5811 108.488 19.1662 108.856 19.6253C109.311 19.9977 109.895 20.1745 110.48 20.1168H111.948V23.6488H109.717C108.982 23.6988 108.246 23.6008 107.55 23.3607C106.855 23.1207 106.214 22.7436 105.667 22.2516C105.175 21.7161 104.797 21.0861 104.555 20.4C104.314 19.714 104.215 18.986 104.263 18.2604V9.07474H101.217V6.1444H104.263V2.70948L108.377 1.2605V6.1444H112.304V9.07474H108.358L108.371 17.9952Z" fill="url(#paint5_linear_466_715)"/>
<path d="M4.44971 17.4711V4.25539H9.03605C10.8387 4.25539 12.1777 4.77722 13.0532 5.82083C13.5683 6.49521 13.9223 7.27851 14.0882 8.11076L17.5554 4.74702C17.2084 4.06811 16.7564 3.44814 16.2164 2.9099C14.5302 1.24959 12.1583 0.419434 9.10073 0.419434H0.0639038V21.7275L4.44971 17.4711Z" fill="url(#paint6_linear_466_715)"/>
<path d="M14.3539 11.9533V13.4475C14.3539 15.6469 13.9226 17.2576 13.0601 18.2797C12.1976 19.3018 10.8565 19.817 9.03662 19.8257H6.26154L2.33502 23.6488H8.92667C12.0532 23.6488 14.4747 22.8121 16.1911 21.1388C17.9074 19.4656 18.7699 16.9018 18.7786 13.4475V10.5883C18.7815 9.68534 18.7145 8.78349 18.578 7.89087L14.3539 11.9533Z" fill="url(#paint7_linear_466_715)"/>
</g>
<defs>
<linearGradient id="paint0_linear_466_715" x1="21.4822" y1="14.9012" x2="36.9514" y2="14.9012" gradientUnits="userSpaceOnUse">
<stop stop-color="#83E617"/>
<stop offset="1" stop-color="#83E617" stop-opacity="0.4"/>
</linearGradient>
<linearGradient id="paint1_linear_466_715" x1="40.5658" y1="12.0336" x2="56.0908" y2="12.0336" gradientUnits="userSpaceOnUse">
<stop stop-color="#83E617"/>
<stop offset="1" stop-color="#83E617" stop-opacity="0.4"/>
</linearGradient>
<linearGradient id="paint2_linear_466_715" x1="59.7075" y1="12.0336" x2="67.8064" y2="12.0336" gradientUnits="userSpaceOnUse">
<stop stop-color="#83E617"/>
<stop offset="1" stop-color="#83E617" stop-opacity="0.4"/>
</linearGradient>
<linearGradient id="paint3_linear_466_715" x1="69.6172" y1="14.9017" x2="85.679" y2="14.9017" gradientUnits="userSpaceOnUse">
<stop stop-color="#83E617"/>
<stop offset="1" stop-color="#83E617" stop-opacity="0.4"/>
</linearGradient>
<linearGradient id="paint4_linear_466_715" x1="89.0174" y1="14.7148" x2="99.7685" y2="14.7148" gradientUnits="userSpaceOnUse">
<stop stop-color="#83E617"/>
<stop offset="1" stop-color="#83E617" stop-opacity="0.4"/>
</linearGradient>
<linearGradient id="paint5_linear_466_715" x1="101.217" y1="12.461" x2="112.304" y2="12.461" gradientUnits="userSpaceOnUse">
<stop stop-color="#83E617"/>
<stop offset="1" stop-color="#83E617" stop-opacity="0.4"/>
</linearGradient>
<linearGradient id="paint6_linear_466_715" x1="0.0639038" y1="11.0735" x2="17.5554" y2="11.0735" gradientUnits="userSpaceOnUse">
<stop stop-color="#83E617"/>
<stop offset="1" stop-color="#83E617" stop-opacity="0.4"/>
</linearGradient>
<linearGradient id="paint7_linear_466_715" x1="2.33502" y1="15.7698" x2="18.7787" y2="15.7698" gradientUnits="userSpaceOnUse">
<stop stop-color="#83E617"/>
<stop offset="1" stop-color="#83E617" stop-opacity="0.4"/>
</linearGradient>
<clipPath id="clip0_466_715">
<rect width="112.378" height="24.7231" fill="white" transform="translate(0.06427 0.0583496)"/>
</clipPath>
</defs>
</svg>
