<svg width="64" height="63" viewBox="0 0 64 63" fill="none" xmlns="http://www.w3.org/2000/svg">
<g clip-path="url(#clip0_466_897)">
<path d="M0.321533 32.8881V30.5982C0.392689 30.5982 0.412111 30.5593 0.41858 30.5076C0.425049 30.4558 0.418545 30.2553 0.463827 30.1259C0.463827 30.2164 0.463827 30.307 0.463827 30.3912C0.581427 31.7847 0.797592 33.1681 1.1107 34.5311C2.77811 41.9781 7.15988 48.5369 13.4013 52.9282C16.9978 55.5324 21.1306 57.3006 25.498 58.1032C26.0671 58.2282 26.6441 58.3147 27.225 58.362H27.2768H27.5873C29.5627 58.6195 31.5596 58.6672 33.545 58.5042C34.9981 58.3897 36.4393 58.154 37.8532 57.7992C43.461 56.3888 48.4706 53.2216 52.1497 48.7604C55.8287 44.2993 57.9841 38.7783 58.3009 33.0045C58.3969 31.1753 58.3014 29.3412 58.0162 27.5319C57.6467 25.0547 56.9303 22.6419 55.888 20.3646C54.1726 16.609 51.6225 13.2944 48.4321 10.6735C45.2417 8.05261 41.4951 6.19448 37.478 5.24067C36.6012 5.02049 35.7109 4.85842 34.8128 4.75551C34.9209 4.727 35.0347 4.727 35.1428 4.75551C36.9574 4.98106 38.7481 5.37077 40.4924 5.91988C47.414 8.08117 53.3484 12.6202 57.2464 18.7345C60.0052 22.9903 61.6532 27.8699 62.0398 32.9269C62.042 33.9517 61.9599 34.9752 61.794 35.9866C61.4123 38.7085 60.6614 41.3658 59.5622 43.8849C57.7979 47.9368 55.1868 51.5641 51.9042 54.5232C48.6218 57.4821 44.7439 59.7042 40.5313 61.04C38.3945 61.7193 36.1873 62.1533 33.9525 62.3337L32.3288 62.4567H30.1553H30.0065C28.5814 62.3899 27.1617 62.2322 25.7565 61.9845C22.9023 61.48 20.1354 60.5672 17.5413 59.274C12.6897 56.8781 8.5553 53.2458 5.55473 48.7429C3.31075 45.4176 1.74962 41.6796 0.961932 37.7461C0.679237 36.3461 0.493369 34.9282 0.40563 33.5026C0.427844 33.294 0.39898 33.0831 0.321533 32.8881Z" fill="url(#paint0_linear_466_897)"/>
<path d="M27.2009 58.3546C26.62 58.3073 26.043 58.2209 25.4738 58.0958C21.1065 57.2931 16.9738 55.5251 13.3772 52.9208C7.13581 48.5295 2.75403 41.9707 1.08663 34.5237C0.773524 33.1608 0.557359 31.7773 0.439758 30.3837C0.439758 30.2996 0.439758 30.2091 0.439758 30.1185C0.439758 29.8856 0.439758 29.6528 0.439758 29.42C0.527335 28.1565 0.689336 26.8994 0.924914 25.6551C1.58216 22.2334 2.82511 18.9509 4.59912 15.9519C7.96282 10.1865 13.1097 5.67079 19.2638 3.08567C21.5011 2.12946 23.8474 1.45163 26.25 1.06742C27.3108 0.899235 28.3846 0.789269 29.4843 0.705175C29.8725 0.743987 30.2477 0.646951 30.6358 0.659889H32.3824C32.5939 0.711156 32.8126 0.726468 33.0293 0.705175C34.7715 0.810083 36.5022 1.05672 38.2043 1.44262C43.4312 2.654 48.2539 5.20218 52.2 8.8376C56.1462 12.4731 59.0805 17.0711 60.7154 22.1814C61.2792 23.9431 61.6776 25.7536 61.9056 27.5892C62.022 28.5078 62.0933 29.4329 62.1515 30.3515V32.1044C62.1062 32.3762 62.1515 32.6543 62.0933 32.9259C61.7066 27.8689 60.0587 22.9895 57.2999 18.7335C53.4011 12.6023 47.4561 8.05077 40.52 5.88665C38.7757 5.33754 36.9852 4.94782 35.1704 4.72228C35.0623 4.69376 34.9486 4.69376 34.8405 4.72228C34.7486 4.68661 34.6531 4.66056 34.5559 4.64461C33.5654 4.53701 32.5701 4.4809 31.5738 4.47646C29.8235 4.46005 28.0756 4.6095 26.3535 4.92281C23.3109 5.4732 20.3894 6.55719 17.7242 8.1248C13.7644 10.4171 10.4484 13.6736 8.08467 17.5912C5.72095 21.5089 4.3862 25.9606 4.20453 30.5325C4.13213 32.3011 4.24488 34.0724 4.54092 35.8175C4.94872 38.4847 5.767 41.0726 6.96669 43.4894C9.22255 48.1116 12.7531 51.9922 17.142 54.6739C19.7655 56.2937 22.6536 57.4389 25.6743 58.057L27.2009 58.3546Z" fill="url(#paint1_linear_466_897)"/>
<path d="M27.2495 58.3813C27.3532 58.3813 27.4634 58.3424 27.5605 58.3813H27.2495Z" fill="url(#paint2_linear_466_897)"/>
<path d="M6.61592 31.4394V27.5583C6.61916 27.4979 6.61916 27.4375 6.61592 27.3771C6.61592 27.2089 6.68066 27.1765 6.82943 27.1765C8.71831 27.1765 10.6071 27.1765 12.5025 27.1765C13.0811 27.1811 13.6403 27.386 14.0849 27.7563C14.5295 28.1266 14.832 28.6394 14.9412 29.2077C15.0026 29.4628 15.0026 29.7289 14.9412 29.984C14.8516 30.3771 14.6892 30.7501 14.4626 31.0837C14.4396 31.1019 14.4211 31.1249 14.4084 31.1513C14.3957 31.1776 14.3891 31.2065 14.3891 31.2357C14.3891 31.2649 14.3957 31.2938 14.4084 31.3201C14.4211 31.3464 14.4396 31.3695 14.4626 31.3876C14.8666 31.8385 15.096 32.419 15.1094 33.0243C15.1233 33.3727 15.0667 33.7204 14.943 34.0463C14.8191 34.3723 14.6308 34.6699 14.3892 34.9212C14.1474 35.1725 13.8574 35.3724 13.5366 35.5089C13.2157 35.6454 12.8706 35.7155 12.5219 35.7153H7.15288C7.01702 35.7153 6.88759 35.7153 6.75821 35.7153C6.62884 35.7153 6.58362 35.6635 6.58362 35.5342C6.58362 35.2884 6.58362 35.0361 6.58362 34.7838L6.61592 31.4394ZM10.536 32.2222H8.7894C8.57594 32.2222 8.57596 32.2222 8.57596 32.4292C8.57596 32.8237 8.57596 33.2119 8.57596 33.6064C8.57596 33.8458 8.57597 33.8458 8.82825 33.8458H11.4739C11.7392 33.8458 11.9979 33.8458 12.2567 33.8458C12.4137 33.8501 12.5681 33.8048 12.698 33.7167C12.828 33.6285 12.927 33.5017 12.9812 33.3541C13.0373 33.23 13.0609 33.0936 13.0496 32.9578C13.0384 32.822 12.9928 32.6913 12.917 32.5781C12.8413 32.4648 12.738 32.3726 12.6167 32.3104C12.4956 32.2481 12.3605 32.2178 12.2243 32.2222H10.536ZM10.439 30.4239H12.1273C12.2286 30.4334 12.3309 30.4218 12.4274 30.3895C12.5239 30.3572 12.6127 30.3052 12.688 30.2367C12.7632 30.1682 12.8233 30.0847 12.8645 29.9917C12.9057 29.8985 12.9269 29.7979 12.9269 29.6961C12.9269 29.5943 12.9057 29.4936 12.8645 29.4006C12.8233 29.3074 12.7632 29.224 12.688 29.1555C12.6127 29.087 12.5239 29.035 12.4274 29.0028C12.3309 28.9705 12.2286 28.9588 12.1273 28.9684H8.75063C8.60832 28.9684 8.55007 29.0071 8.55654 29.1559C8.55654 29.4988 8.55654 29.8353 8.55654 30.178C8.55654 30.5209 8.55653 30.4303 8.79588 30.4303L10.439 30.4239Z" fill="url(#paint3_linear_466_897)"/>
<path d="M27.4325 10.8685V6.76726C27.4325 6.65082 27.4713 6.59907 27.5878 6.60554H33.1961C33.595 6.59047 33.9919 6.67129 34.3532 6.84125C34.7145 7.0112 35.0298 7.26535 35.2726 7.58233C35.5437 7.9229 35.7199 8.32904 35.7836 8.75964C35.8236 9.02845 35.8015 9.30283 35.7189 9.56176C35.6239 9.90247 35.4708 10.2242 35.2661 10.5126C35.1756 10.6355 35.195 10.7067 35.2661 10.8167C35.6702 11.2675 35.8997 11.848 35.913 12.4532C35.927 12.8017 35.8703 13.1493 35.7465 13.4753C35.6228 13.8013 35.4343 14.0989 35.1927 14.3502C34.951 14.6016 34.661 14.8015 34.3402 14.9379C34.0194 15.0743 33.6741 15.1446 33.3255 15.1442H27.6265C27.3613 15.1442 27.3613 15.1442 27.3613 14.879L27.4325 10.8685ZM31.3138 13.2748C31.9024 13.2748 32.4976 13.2748 33.0862 13.2748C33.3006 13.2748 33.5063 13.1896 33.658 13.038C33.8096 12.8863 33.8947 12.6807 33.8947 12.4663C33.8947 12.2517 33.8096 12.0461 33.658 11.8944C33.5063 11.7428 33.3006 11.6576 33.0862 11.6576C31.9153 11.6576 30.7379 11.6576 29.5671 11.6576C29.4054 11.6576 29.386 11.7223 29.386 11.8517C29.386 12.2657 29.386 12.6797 29.386 13.0873C29.386 13.249 29.4442 13.2878 29.593 13.2878L31.3138 13.2748ZM31.2749 9.85286C31.8377 9.85286 32.4005 9.85286 32.9632 9.85286C33.1554 9.85286 33.3397 9.77651 33.4756 9.64065C33.6114 9.50477 33.6877 9.32052 33.6877 9.12836C33.6877 8.93622 33.6114 8.75191 33.4756 8.61604C33.3397 8.48018 33.1554 8.40383 32.9632 8.40383C31.8247 8.40383 30.6927 8.40383 29.5542 8.40383C29.4248 8.40383 29.3796 8.44264 29.3796 8.57202C29.3796 8.93427 29.3796 9.29651 29.3796 9.65876C29.3796 9.8593 29.3795 9.86577 29.5996 9.86577L31.2749 9.85286Z" fill="url(#paint4_linear_466_897)"/>
<path d="M45.3231 30.4944V32.1374C45.3231 32.2409 45.3231 32.2862 45.1874 32.2862H39.9347C39.8442 32.2862 39.7859 32.2862 39.7859 32.422C39.7859 32.8619 39.7859 33.3018 39.7859 33.7158C39.7859 33.7998 39.8312 33.8387 39.9153 33.8387H45.2844C45.4461 33.8387 45.4914 33.8969 45.4914 34.0521C45.4914 34.5308 45.4914 35.016 45.4914 35.5011C45.4914 35.6435 45.4397 35.7017 45.2973 35.6888H38.0847C37.7547 35.6888 37.7612 35.7534 37.7612 35.3718V27.4346C37.7612 27.1758 37.7612 27.1694 38.0264 27.1694H45.2327C45.4784 27.1694 45.4848 27.1694 45.4848 27.4217V28.7154C45.4848 29.097 45.4848 29.0454 45.1679 29.0454H39.9929C39.7794 29.0454 39.7794 29.0454 39.773 29.2589C39.773 29.5952 39.773 29.938 39.773 30.2808C39.773 30.4232 39.8183 30.4878 39.9606 30.4749H44.9544C45.0762 30.4418 45.2055 30.4485 45.3231 30.4944Z" fill="url(#paint5_linear_466_897)"/>
<path d="M27.4324 41.8277V37.7265C27.4324 37.61 27.4777 37.5582 27.5877 37.5648H34.8586C35.1756 37.5648 35.1562 37.5648 35.1562 37.8558V39.1496C35.1562 39.4407 35.1562 39.3954 34.9103 39.3954H29.7353C29.483 39.3954 29.4766 39.3954 29.4766 39.6347C29.4766 39.9776 29.4766 40.3205 29.4766 40.6632C29.4766 40.7927 29.5283 40.8379 29.6512 40.8379H34.8715C34.975 40.8379 35.0139 40.8833 35.0139 40.9868V42.5262C35.0139 42.6233 35.0139 42.675 34.878 42.6686H29.6254C29.5284 42.6686 29.4766 42.6686 29.4766 42.8045C29.4766 43.2443 29.4766 43.6907 29.4766 44.1305C29.4766 44.2404 29.5348 44.2728 29.6254 44.2728H35.0268C35.1303 44.2728 35.1691 44.3117 35.1691 44.4152V45.2303C35.1691 45.4695 35.1691 45.7089 35.1691 45.9482C35.1691 46.0712 35.1238 46.1164 35.0074 46.1034H27.7365C27.4454 46.1034 27.4455 46.1034 27.4455 45.8124L27.4324 41.8277Z" fill="url(#paint6_linear_466_897)"/>
<path d="M54.1169 32.3893L56.5751 35.6238C56.5169 35.7273 56.4392 35.6885 56.3746 35.6885H54.4339C54.3606 35.693 54.2874 35.6773 54.2223 35.643C54.1574 35.6089 54.103 35.5574 54.0651 35.4943C53.3795 34.5758 52.6809 33.6702 52.0082 32.7387C51.943 32.6289 51.8468 32.5408 51.7317 32.4855C51.6165 32.4304 51.4877 32.4104 51.3613 32.4282C51.0637 32.4282 50.7596 32.4282 50.4621 32.4282C50.1645 32.4282 50.2292 32.4282 50.2292 32.6547V35.3068C50.2292 35.7273 50.268 35.6755 49.8605 35.682H48.4697C48.1916 35.682 48.1916 35.682 48.1916 35.4039C48.1916 34.2589 48.1916 33.114 48.1916 31.9624V27.499C48.1916 27.4279 48.1916 27.3567 48.1916 27.292C48.1916 27.2274 48.2369 27.1239 48.3533 27.1303H53.3342C53.8924 27.1177 54.4398 27.2861 54.8945 27.6101C55.3493 27.9342 55.6868 28.3968 55.857 28.9287C56.0808 29.5672 56.0522 30.2672 55.7767 30.8853C55.5014 31.5035 55.0002 31.993 54.3757 32.2536L54.1169 32.3893ZM51.8464 30.5911C52.3057 30.5911 52.765 30.5911 53.2307 30.5911C53.4391 30.5878 53.6377 30.5035 53.7851 30.3562C53.9324 30.209 54.0166 30.0102 54.0199 29.8019C54.0186 29.5893 53.9361 29.3853 53.7895 29.2314C53.6428 29.0776 53.443 28.9854 53.2307 28.974C52.3057 28.974 51.3806 28.974 50.4621 28.974C50.3004 28.974 50.2809 29.0451 50.2809 29.1744C50.2809 29.5884 50.2809 29.9959 50.2809 30.4099C50.2809 30.5716 50.3392 30.6105 50.488 30.6105C50.9408 30.5846 51.4259 30.5911 51.8464 30.5911Z" fill="url(#paint7_linear_466_897)"/>
<path d="M33.3136 53.3679L35.7783 56.6023C35.7072 56.6799 35.6359 56.654 35.5648 56.654H33.6241C33.5506 56.66 33.4769 56.645 33.4116 56.6107C33.3463 56.5763 33.2922 56.5241 33.2554 56.46C32.5504 55.5091 31.8324 54.5647 31.1272 53.6137C31.0836 53.5413 31.0202 53.4829 30.9447 53.4451C30.8691 53.4073 30.7843 53.3918 30.7003 53.4003C30.3703 53.4003 30.0534 53.4003 29.7106 53.4003C29.3678 53.4003 29.4259 53.4002 29.4259 53.6978V56.3176C29.4259 56.6476 29.4906 56.6476 29.1025 56.6476H27.6535C27.3236 56.6476 27.3818 56.6476 27.3818 56.3629V49.2473C27.3818 48.9175 27.3818 48.6004 27.3818 48.2576C27.3818 48.1218 27.4271 48.0829 27.5565 48.0829H28.7338C29.9758 48.0829 31.2242 48.0829 32.4727 48.0829C33.113 48.0486 33.7444 48.2462 34.2507 48.6395C34.7571 49.033 35.1047 49.5958 35.2298 50.2247C35.3547 50.8536 35.2488 51.5065 34.9313 52.0637C34.6138 52.6209 34.1061 53.0449 33.5013 53.2579L33.3136 53.3679ZM31.0561 49.9459H29.7624C29.5165 49.9459 29.5101 49.9459 29.5101 50.1918V51.3109C29.5101 51.5696 29.5101 51.5696 29.7753 51.5761H32.311C32.4197 51.5784 32.5283 51.5675 32.6344 51.5437C32.7622 51.5149 32.8807 51.4547 32.9791 51.3684C33.0775 51.282 33.1526 51.1723 33.1976 51.0494C33.2427 50.9264 33.2562 50.7942 33.2369 50.6647C33.2177 50.5352 33.1662 50.4126 33.0873 50.3082C33.0085 50.1966 32.9037 50.1058 32.782 50.0439C32.6601 49.9819 32.5252 49.9505 32.3886 49.9524L31.0561 49.9459Z" fill="url(#paint8_linear_466_897)"/>
<path d="M26.8024 35.7213H24.81C24.6807 35.7213 24.6354 35.6501 24.5966 35.553C24.4349 35.1972 24.2667 34.8416 24.1179 34.4793C24.1009 34.4072 24.0576 34.3442 23.9967 34.3023C23.9357 34.2605 23.8613 34.2428 23.7881 34.2528C22.3391 34.2528 20.8921 34.2528 19.4475 34.2528C19.3741 34.2428 19.2998 34.2605 19.2388 34.3023C19.1778 34.3442 19.1346 34.4072 19.1176 34.4793C18.9688 34.8416 18.8005 35.1972 18.6453 35.553C18.6305 35.6054 18.5978 35.6509 18.5528 35.6816C18.508 35.7123 18.4537 35.7263 18.3995 35.7213H16.4589C16.4007 35.6178 16.4589 35.553 16.4977 35.4819C17.8346 32.7822 19.1715 30.0827 20.5083 27.3831C20.5326 27.3133 20.5796 27.2537 20.6417 27.2138C20.704 27.174 20.7777 27.1561 20.8512 27.1631C21.3255 27.1631 21.7978 27.1631 22.2679 27.1631C22.3604 27.1509 22.4544 27.1713 22.5335 27.2209C22.6126 27.2705 22.6719 27.3462 22.7012 27.4348L26.0262 34.0265L26.7572 35.4819C26.7816 35.5162 26.7982 35.5553 26.8061 35.5966C26.8138 35.638 26.8126 35.6805 26.8024 35.7213ZM23.0311 32.448L21.5757 29.3754L20.1202 32.448H23.0311Z" fill="url(#paint9_linear_466_897)"/>
<path d="M36.5483 25.3003H34.4848C34.3555 25.3003 34.3231 25.2162 34.2778 25.1192C34.1225 24.7634 33.9544 24.4076 33.8056 24.0453C33.7846 23.9752 33.739 23.9151 33.6771 23.8758C33.6155 23.8366 33.5416 23.821 33.4692 23.8319H29.1545C29.0771 23.8217 28.9985 23.8404 28.934 23.8846C28.8696 23.9289 28.8238 23.9953 28.8052 24.0712C28.6564 24.4335 28.4883 24.7827 28.333 25.145C28.2943 25.2356 28.2554 25.3003 28.139 25.3003H26.1272C26.0884 25.2032 26.1272 25.145 26.1725 25.0868C27.5137 22.3914 28.8505 19.6919 30.1831 16.9879C30.208 16.9146 30.2579 16.8524 30.3242 16.8121C30.3904 16.7719 30.4688 16.7563 30.5453 16.7681C31.0196 16.7681 31.492 16.7681 31.962 16.7681C32.0489 16.7539 32.1379 16.7708 32.2135 16.8157C32.2893 16.8607 32.3468 16.9308 32.376 17.0138C33.2104 18.6893 34.0579 20.3517 34.8988 22.0206L36.4448 25.0868L36.5483 25.3003ZM31.2698 18.9674C30.7717 20.0153 30.293 21.0116 29.8273 22.0271C30.7858 22.0902 31.7474 22.0902 32.706 22.0271L31.2698 18.9674Z" fill="url(#paint10_linear_466_897)"/>
<path d="M26.0134 27.1824H28.271C28.4263 27.1824 28.4781 27.2857 28.5492 27.3763L30.451 29.9121L31.1755 30.876C31.2208 30.9342 31.2466 31.0183 31.3372 31.0441C31.4278 31.07 31.4731 30.8953 31.5313 30.8178C32.3593 29.6857 33.1938 28.5472 34.0153 27.4087C34.0607 27.3323 34.1265 27.27 34.2054 27.2289C34.2843 27.1878 34.373 27.1693 34.4616 27.1758C35.1538 27.1758 35.8459 27.1758 36.5511 27.1758C36.5511 27.3117 36.467 27.3763 36.4023 27.4605C35.1085 29.1294 33.8148 30.8005 32.521 32.4738C32.3947 32.6286 32.328 32.8237 32.3334 33.0236C32.3334 33.8386 32.3334 34.6537 32.3334 35.4622C32.3334 35.721 32.3334 35.721 32.0617 35.721H30.5545C30.3087 35.721 30.3087 35.721 30.3087 35.4817C30.3087 34.6537 30.3087 33.8322 30.3087 33.0042C30.3176 32.8159 30.2552 32.6311 30.134 32.4867C28.8403 30.8242 27.5465 29.1553 26.2528 27.4927C26.1502 27.4091 26.0683 27.3028 26.0134 27.1824Z" fill="url(#paint11_linear_466_897)"/>
</g>
<defs>
<linearGradient id="paint0_linear_466_897" x1="0.321533" y1="33.5954" x2="62.0398" y2="33.5954" gradientUnits="userSpaceOnUse">
<stop stop-color="#83E617"/>
<stop offset="1" stop-color="#83E617" stop-opacity="0.4"/>
</linearGradient>
<linearGradient id="paint1_linear_466_897" x1="0.439758" y1="29.5067" x2="62.1515" y2="29.5067" gradientUnits="userSpaceOnUse">
<stop stop-color="#83E617"/>
<stop offset="1" stop-color="#83E617" stop-opacity="0.4"/>
</linearGradient>
<linearGradient id="paint2_linear_466_897" x1="27.2495" y1="58.3727" x2="27.5605" y2="58.3727" gradientUnits="userSpaceOnUse">
<stop stop-color="#83E617"/>
<stop offset="1" stop-color="#83E617" stop-opacity="0.4"/>
</linearGradient>
<linearGradient id="paint3_linear_466_897" x1="6.58362" y1="31.4459" x2="15.1115" y2="31.4459" gradientUnits="userSpaceOnUse">
<stop stop-color="#83E617"/>
<stop offset="1" stop-color="#83E617" stop-opacity="0.4"/>
</linearGradient>
<linearGradient id="paint4_linear_466_897" x1="27.3613" y1="10.874" x2="35.9151" y2="10.874" gradientUnits="userSpaceOnUse">
<stop stop-color="#83E617"/>
<stop offset="1" stop-color="#83E617" stop-opacity="0.4"/>
</linearGradient>
<linearGradient id="paint5_linear_466_897" x1="37.7612" y1="31.4312" x2="45.4914" y2="31.4312" gradientUnits="userSpaceOnUse">
<stop stop-color="#83E617"/>
<stop offset="1" stop-color="#83E617" stop-opacity="0.4"/>
</linearGradient>
<linearGradient id="paint6_linear_466_897" x1="27.4324" y1="41.8349" x2="35.1691" y2="41.8349" gradientUnits="userSpaceOnUse">
<stop stop-color="#83E617"/>
<stop offset="1" stop-color="#83E617" stop-opacity="0.4"/>
</linearGradient>
<linearGradient id="paint7_linear_466_897" x1="48.1916" y1="31.4126" x2="56.5751" y2="31.4126" gradientUnits="userSpaceOnUse">
<stop stop-color="#83E617"/>
<stop offset="1" stop-color="#83E617" stop-opacity="0.4"/>
</linearGradient>
<linearGradient id="paint8_linear_466_897" x1="27.3778" y1="52.3686" x2="35.7783" y2="52.3686" gradientUnits="userSpaceOnUse">
<stop stop-color="#83E617"/>
<stop offset="1" stop-color="#83E617" stop-opacity="0.4"/>
</linearGradient>
<linearGradient id="paint9_linear_466_897" x1="16.4343" y1="31.441" x2="26.8111" y2="31.441" gradientUnits="userSpaceOnUse">
<stop stop-color="#83E617"/>
<stop offset="1" stop-color="#83E617" stop-opacity="0.4"/>
</linearGradient>
<linearGradient id="paint10_linear_466_897" x1="26.1113" y1="21.0318" x2="36.5483" y2="21.0318" gradientUnits="userSpaceOnUse">
<stop stop-color="#83E617"/>
<stop offset="1" stop-color="#83E617" stop-opacity="0.4"/>
</linearGradient>
<linearGradient id="paint11_linear_466_897" x1="26.0134" y1="31.4478" x2="36.5511" y2="31.4478" gradientUnits="userSpaceOnUse">
<stop stop-color="#83E617"/>
<stop offset="1" stop-color="#83E617" stop-opacity="0.4"/>
</linearGradient>
<clipPath id="clip0_466_897">
<rect width="62.9315" height="61.8077" fill="white" transform="translate(0.321777 0.658691)"/>
</clipPath>
</defs>
</svg>
