<svg width="95" height="52" viewBox="0 0 95 52" fill="none" xmlns="http://www.w3.org/2000/svg">
<g clip-path="url(#clip0_466_939)">
<path d="M48.7166 28.3533C48.24 27.7232 47.7685 27.1411 47.3423 26.5281C45.5891 24.0083 44.4574 21.2332 43.9516 18.2034C43.6858 16.6131 43.5976 15.0133 43.7081 13.4058C43.9027 10.5757 44.6418 7.89315 45.9414 5.36917C46.7096 3.87828 47.6475 2.50141 48.7484 1.23513C48.8273 1.14426 48.8873 1.12625 48.9979 1.17083C51.19 2.04446 53.071 3.3596 54.6322 5.12998C56.3306 7.05554 57.4468 9.2786 57.9733 11.7888C58.2296 13.0114 58.3256 14.2486 58.2622 15.5037C58.1422 17.8879 57.5043 20.1161 56.2817 22.1608C54.1393 25.7454 51.028 28.0386 46.966 29.0297C45.7203 29.3341 44.4523 29.4584 43.1731 29.407C40.0216 29.281 37.1753 28.2779 34.6856 26.3326C32.0287 24.257 30.2763 21.5745 29.4653 18.2994C29.2767 17.5381 29.1755 16.7502 29.0967 15.9684C29.0323 15.3245 29.0247 14.6703 29.0547 14.0239C29.1343 12.275 29.5347 10.5955 30.2274 8.98625C30.2806 8.86279 30.363 8.85594 30.4658 8.86879C31.2854 8.97167 32.1127 9.03426 32.9237 9.18687C35.6629 9.70212 38.186 10.7566 40.5068 12.3007C40.6963 12.4267 40.7572 12.5699 40.7709 12.7902C40.8541 14.1593 41.0821 15.5071 41.4233 16.8352C42.1709 19.7415 43.4183 22.4103 45.2359 24.8049C46.2201 26.1011 47.3423 27.2645 48.6121 28.2848C48.6334 28.3018 48.6592 28.3157 48.7166 28.3533Z" fill="url(#paint0_linear_466_939)"/>
<path d="M2.63117 50.6918H0.183495C0.176637 50.6335 0.165492 50.5796 0.165492 50.5246C0.165492 48.3616 0.157776 46.1985 0.174065 44.0364C0.179209 43.3333 0.330956 42.6501 0.635309 42.0087C1.12399 40.9782 1.9153 40.3044 3.02983 40.0489C4.1075 39.802 5.17058 39.8466 6.17537 40.3627C6.41371 40.4853 6.63833 40.6474 6.84152 40.823C7.0387 40.9937 7.20074 41.2064 7.37478 41.3975C7.56424 41.196 7.74171 40.9714 7.95433 40.7871C8.65391 40.1792 9.49067 39.9451 10.402 39.9195C11.2979 39.8938 12.1502 40.0395 12.9105 40.5461C13.8065 41.1429 14.2857 42.0139 14.4949 43.0418C14.5781 43.4517 14.6244 43.8752 14.627 44.2927C14.6407 46.3554 14.6329 48.4182 14.6338 50.4809C14.6338 50.5444 14.6338 50.6078 14.6338 50.6867H12.1681C12.1681 50.5983 12.1681 50.5152 12.1681 50.4312C12.1681 48.3684 12.1681 46.3057 12.1681 44.2421C12.1681 43.7474 12.0576 43.2853 11.7831 42.8627C11.1942 41.9548 9.43151 41.9531 8.89482 43.1079C8.70792 43.51 8.63162 43.9335 8.63162 44.3733C8.63162 46.3863 8.63162 48.3993 8.63162 50.4123C8.63162 50.4972 8.63162 50.5829 8.63162 50.685H6.16766C6.16766 50.6001 6.16766 50.517 6.16766 50.4338C6.16766 48.4353 6.17623 46.4361 6.15994 44.4375C6.15651 44.0664 6.09821 43.6797 5.98162 43.3274C5.7167 42.5284 5.08571 42.1708 4.14521 42.2223C3.46879 42.2591 2.91237 42.7427 2.72977 43.4817C2.66889 43.7278 2.63632 43.9875 2.63546 44.2421C2.62774 46.298 2.63117 48.3539 2.63117 50.4097C2.63117 50.4955 2.63117 50.5794 2.63117 50.6918Z" fill="url(#paint1_linear_466_939)"/>
<path d="M48.3726 41.1503C48.3581 40.9514 48.3366 40.7842 48.3357 40.6179C48.3255 38.9332 48.3212 37.2495 48.3075 35.5648C48.3057 35.3676 48.3477 35.2913 48.5646 35.2956C49.2849 35.3102 50.005 35.3007 50.744 35.3007V50.6882H48.5844V49.4484C48.5064 49.5007 48.4755 49.5136 48.4541 49.5367C47.7519 50.3169 46.8568 50.7138 45.8324 50.839C44.3767 51.0173 43.0521 50.6812 41.9006 49.7622C40.7955 48.88 40.1714 47.7158 39.975 46.3226C39.7779 44.9217 39.9768 43.5843 40.7442 42.3789C41.7995 40.7208 43.3418 39.9287 45.2991 39.9578C46.4205 39.9741 47.427 40.3238 48.2681 41.0903C48.287 41.1074 48.3135 41.1169 48.3735 41.1494L48.3726 41.1503ZM45.5022 42.2203C44.8088 42.2049 44.1889 42.3618 43.6531 42.7613C42.5291 43.5988 42.2033 44.7606 42.4296 46.08C42.68 47.5358 43.6162 48.4136 45.084 48.6031C46.3202 48.7626 47.535 48.231 48.1197 47.0633C48.442 46.4186 48.515 45.7387 48.4652 45.028C48.3486 43.3673 47.1363 42.2203 45.5022 42.2203Z" fill="url(#paint2_linear_466_939)"/>
<path d="M84.8332 41.3802V40.1602H87.0246V50.7019C86.8068 50.7019 86.5873 50.7019 86.3688 50.7019C85.9186 50.7019 85.4685 50.6976 85.0193 50.7045C84.8778 50.7071 84.8332 50.66 84.8367 50.5202C84.8443 50.1738 84.8392 49.8275 84.8392 49.4348C84.7749 49.4923 84.7492 49.5119 84.7269 49.536C83.8953 50.4413 82.8374 50.8332 81.6354 50.8777C80.0571 50.9369 78.7059 50.4061 77.6205 49.2565C76.7787 48.3649 76.3277 47.2872 76.211 46.0689C76.073 44.6269 76.3388 43.2758 77.2004 42.0917C78.2739 40.6171 79.7527 39.9193 81.5702 39.957C82.8039 39.9828 83.891 40.3797 84.7406 41.3159C84.7543 41.3313 84.7749 41.3399 84.8332 41.3785V41.3802ZM81.7391 42.2204C81.0516 42.2204 80.508 42.379 79.9954 42.7057C78.4641 43.683 78.2713 45.985 79.1775 47.3215C79.6944 48.0836 80.4257 48.496 81.3293 48.6049C82.527 48.749 83.753 48.2757 84.3609 47.1226C84.738 46.4084 84.811 45.6479 84.7132 44.8575C84.516 43.2612 83.3449 42.2204 81.7391 42.2204Z" fill="url(#paint3_linear_466_939)"/>
<path d="M21.9805 39.9154C25.1561 39.924 27.4975 42.2842 27.488 45.4683C27.4795 48.6147 25.0996 50.9724 21.9386 50.9647C18.7827 50.9569 16.4388 48.5633 16.45 45.362C16.4611 42.256 18.8462 39.9067 21.9805 39.9154ZM25.0377 45.3388C25.0112 45.1434 24.9983 44.8485 24.929 44.5672C24.6486 43.4339 23.9704 42.6349 22.8302 42.3323C21.6677 42.0236 20.5951 42.2499 19.7498 43.1544C19.0022 43.9551 18.8058 44.9376 18.9568 45.9981C19.2722 48.2212 21.4636 49.1822 23.258 48.3695C24.4993 47.808 24.9907 46.7483 25.0377 45.3388Z" fill="url(#paint4_linear_466_939)"/>
<path d="M52.7078 45.4272C52.7601 41.9799 55.3552 39.9719 58.0995 39.9102C61.0676 39.8434 63.757 41.9686 63.7622 45.4237C63.7673 48.7999 61.2133 50.9021 58.3815 50.969C55.4075 51.0392 52.7575 48.8959 52.7078 45.4272ZM58.2513 42.2181C57.3125 42.2113 56.5246 42.5491 55.9168 43.2693C55.471 43.7983 55.2592 44.4215 55.1957 45.109C55.0311 46.8983 56.1516 48.553 58.0798 48.6413C59.0614 48.6859 59.9076 48.3687 60.5489 47.6056C61.1756 46.8598 61.3643 45.9836 61.2776 45.0259C61.1293 43.3875 59.8802 42.2207 58.2513 42.2181Z" fill="url(#paint5_linear_466_939)"/>
<path d="M74.3626 50.6919H71.8986C71.8986 50.5985 71.8986 50.5153 71.8986 50.4313C71.8986 48.4466 71.9047 46.4619 71.8927 44.4772C71.891 44.1462 71.8464 43.805 71.7581 43.4869C71.5652 42.7951 71.1039 42.3492 70.3821 42.2454C69.6671 42.1435 68.9889 42.2335 68.5062 42.8559C68.1633 43.2974 68.0639 43.8221 68.0639 44.3674C68.0613 46.3881 68.063 48.408 68.063 50.4287V50.6911H65.6136C65.6084 50.6259 65.599 50.5642 65.599 50.5033C65.599 48.3899 65.5939 46.2767 65.6032 44.1642C65.6067 43.4663 65.7465 42.7882 66.0431 42.1528C66.5344 41.1001 67.3531 40.4202 68.4651 40.1107C69.4681 39.8321 70.4866 39.8227 71.4871 40.1124C73.0158 40.5557 73.91 41.6068 74.2298 43.1457C74.318 43.5684 74.3549 44.0082 74.3584 44.4403C74.3712 46.4387 74.3643 48.438 74.3643 50.4372V50.6937L74.3626 50.6919Z" fill="url(#paint6_linear_466_939)"/>
<path d="M38.0881 50.6926H35.6533C35.6482 50.6035 35.6388 50.5143 35.6388 50.4251C35.6379 48.4764 35.6464 46.5278 35.631 44.579C35.6276 44.1992 35.5745 43.8074 35.4699 43.4431C35.2452 42.6621 34.6185 42.2196 33.8091 42.2239C33.5691 42.2256 33.3205 42.235 33.0899 42.2959C32.3646 42.4863 32.0045 43.0186 31.8648 43.7165C31.8081 44.0012 31.7842 44.2969 31.7824 44.5876C31.7756 46.5217 31.779 48.4567 31.779 50.3908C31.779 50.4834 31.779 50.5751 31.779 50.6849H29.3091V50.4586C29.3091 48.5099 29.3013 46.5611 29.3125 44.6125C29.3167 43.8339 29.3871 43.0598 29.6957 42.3285C30.2813 40.9388 31.359 40.1929 32.8207 39.9769C33.7269 39.8431 34.6331 39.8783 35.5015 40.2007C36.9119 40.7245 37.7014 41.7772 37.9783 43.2279C38.0556 43.6317 38.0821 44.0491 38.0847 44.4607C38.095 46.4522 38.0898 48.4439 38.0898 50.4355V50.6926H38.0881Z" fill="url(#paint7_linear_466_939)"/>
<path d="M39.5735 1.65845C41.4194 1.66103 42.8828 3.13049 42.8811 4.9789C42.8794 6.8153 41.3971 8.29504 39.5624 8.29333C37.726 8.29161 36.2429 6.79386 36.248 4.94545C36.2531 3.12878 37.7431 1.65503 39.5735 1.65845Z" fill="url(#paint8_linear_466_939)"/>
<path d="M92.2271 40.054C90.9702 40.0464 90.0022 39.0939 89.9997 37.861C89.9971 36.6341 90.9916 35.6817 92.2665 35.6868C93.5191 35.6929 94.4724 36.6539 94.4621 37.9004C94.4518 39.1239 93.4787 40.0609 92.2271 40.054ZM93.9219 37.8628C93.9203 36.8742 93.1752 36.0924 92.2339 36.1052C91.146 36.1207 90.5089 37.0482 90.5484 37.9287C90.5895 38.8349 91.2582 39.6074 92.2545 39.61C93.1992 39.6117 93.9236 38.8486 93.9219 37.8628Z" fill="url(#paint9_linear_466_939)"/>
<path d="M91.8542 38.9958H91.3939C91.3939 38.838 91.3939 38.6837 91.3939 38.5293C91.3939 38.0441 91.4024 37.5588 91.3895 37.0736C91.3845 36.8791 91.4273 36.7847 91.6416 36.7907C91.9468 36.7993 92.2537 36.7684 92.5581 36.7856C92.8513 36.8028 93.106 36.9115 93.1719 37.2442C93.2379 37.5751 93.0691 37.7715 92.7347 37.8992C93.1882 38.153 93.1308 38.6099 93.2808 39.006C93.1428 39.006 93.0228 38.9966 92.9053 39.0086C92.7767 39.0223 92.7219 38.9555 92.6926 38.8501C92.6533 38.706 92.6224 38.5602 92.583 38.4171C92.5178 38.1856 92.1689 38.0193 91.9554 38.1256C91.916 38.1453 91.8929 38.2285 91.8903 38.2833C91.8799 38.5114 91.8808 38.7394 91.8773 38.9675C91.8773 38.9727 91.8688 38.9786 91.8542 38.9958ZM92.2126 37.1054C92.096 37.1645 91.9142 37.0291 91.8971 37.2503C91.8868 37.3849 91.886 37.5212 91.9005 37.6549C91.9057 37.6986 91.9768 37.7724 92.0129 37.7698C92.1731 37.7587 92.342 37.7475 92.4878 37.6892C92.5641 37.6583 92.6413 37.5297 92.6439 37.444C92.6456 37.3566 92.5752 37.2408 92.5007 37.1851C92.4235 37.1276 92.3026 37.1276 92.2126 37.1054Z" fill="url(#paint10_linear_466_939)"/>
</g>
<defs>
<linearGradient id="paint0_linear_466_939" x1="29.0378" y1="15.2829" x2="58.2811" y2="15.2829" gradientUnits="userSpaceOnUse">
<stop stop-color="#83E617"/>
<stop offset="1" stop-color="#83E617" stop-opacity="0.4"/>
</linearGradient>
<linearGradient id="paint1_linear_466_939" x1="0.163666" y1="45.2981" x2="14.6352" y2="45.2981" gradientUnits="userSpaceOnUse">
<stop stop-color="#83E617"/>
<stop offset="1" stop-color="#83E617" stop-opacity="0.4"/>
</linearGradient>
<linearGradient id="paint2_linear_466_939" x1="39.9039" y1="43.0902" x2="50.744" y2="43.0902" gradientUnits="userSpaceOnUse">
<stop stop-color="#83E617"/>
<stop offset="1" stop-color="#83E617" stop-opacity="0.4"/>
</linearGradient>
<linearGradient id="paint3_linear_466_939" x1="76.1766" y1="45.4188" x2="87.0246" y2="45.4188" gradientUnits="userSpaceOnUse">
<stop stop-color="#83E617"/>
<stop offset="1" stop-color="#83E617" stop-opacity="0.4"/>
</linearGradient>
<linearGradient id="paint4_linear_466_939" x1="16.4499" y1="45.4396" x2="27.4881" y2="45.4396" gradientUnits="userSpaceOnUse">
<stop stop-color="#83E617"/>
<stop offset="1" stop-color="#83E617" stop-opacity="0.4"/>
</linearGradient>
<linearGradient id="paint5_linear_466_939" x1="52.7078" y1="45.4397" x2="63.7622" y2="45.4397" gradientUnits="userSpaceOnUse">
<stop stop-color="#83E617"/>
<stop offset="1" stop-color="#83E617" stop-opacity="0.4"/>
</linearGradient>
<linearGradient id="paint6_linear_466_939" x1="65.5976" y1="45.296" x2="74.3662" y2="45.296" gradientUnits="userSpaceOnUse">
<stop stop-color="#83E617"/>
<stop offset="1" stop-color="#83E617" stop-opacity="0.4"/>
</linearGradient>
<linearGradient id="paint7_linear_466_939" x1="29.3065" y1="45.2981" x2="38.0911" y2="45.2981" gradientUnits="userSpaceOnUse">
<stop stop-color="#83E617"/>
<stop offset="1" stop-color="#83E617" stop-opacity="0.4"/>
</linearGradient>
<linearGradient id="paint8_linear_466_939" x1="36.248" y1="4.97589" x2="42.8811" y2="4.97589" gradientUnits="userSpaceOnUse">
<stop stop-color="#83E617"/>
<stop offset="1" stop-color="#83E617" stop-opacity="0.4"/>
</linearGradient>
<linearGradient id="paint9_linear_466_939" x1="89.9997" y1="37.8704" x2="94.4622" y2="37.8704" gradientUnits="userSpaceOnUse">
<stop stop-color="#83E617"/>
<stop offset="1" stop-color="#83E617" stop-opacity="0.4"/>
</linearGradient>
<linearGradient id="paint10_linear_466_939" x1="91.3891" y1="37.8953" x2="93.2808" y2="37.8953" gradientUnits="userSpaceOnUse">
<stop stop-color="#83E617"/>
<stop offset="1" stop-color="#83E617" stop-opacity="0.4"/>
</linearGradient>
<clipPath id="clip0_466_939">
<rect width="94.3972" height="50.5699" fill="white" transform="translate(0.0641479 0.458252)"/>
</clipPath>
</defs>
</svg>
