<svg width="153" height="30" viewBox="0 0 153 30" fill="none" xmlns="http://www.w3.org/2000/svg">
<g clip-path="url(#clip0_466_952)">
<path d="M152.623 29.1223H0.129139V1.53955H152.623V29.1223ZM2.35435 26.9099H150.417V3.73246H2.335L2.35435 26.9099Z" fill="url(#paint0_linear_466_952)"/>
<path d="M130.692 23.7065C130.608 22.9562 130.53 22.277 130.452 21.5525C130.983 21.5913 131.5 21.6365 132.025 21.6624C132.299 21.6946 132.576 21.633 132.811 21.4873C133.046 21.3416 133.225 21.1206 133.318 20.8604C133.396 20.6516 133.396 20.4221 133.318 20.2134C132.316 17.7747 131.286 15.3425 130.272 12.9102C130.272 12.9102 130.213 12.8649 130.122 12.7743C129.824 13.4213 129.533 14.0681 129.242 14.715L128.763 14.5856C128.605 14.5237 128.435 14.4974 128.264 14.5085C128.095 14.5197 127.93 14.568 127.78 14.65C127.631 14.7321 127.501 14.8459 127.401 14.9835C127.3 15.1209 127.232 15.2788 127.198 15.446C127.042 16.1342 126.953 16.8362 126.933 17.5418C126.895 18.4928 126.933 19.4825 126.933 20.4334H123.764V12.2634H126.668L126.726 13.2984C126.777 13.2708 126.825 13.2383 126.869 13.2014C127.728 12.0434 128.266 11.9076 129.683 12.231C130.093 12.2828 130.508 12.2828 130.918 12.231C131.565 12.231 132.212 12.231 132.858 12.231C132.933 12.2172 133.008 12.2186 133.081 12.2351C133.154 12.2518 133.224 12.2831 133.284 12.3273C133.345 12.3716 133.396 12.4278 133.434 12.4924C133.472 12.557 133.496 12.6288 133.506 12.7032C133.945 14.1846 134.412 15.653 134.87 17.1278C134.916 17.2701 134.98 17.406 135.064 17.6324C135.557 15.9246 136.041 14.3204 136.482 12.7032C136.487 12.6276 136.51 12.5542 136.548 12.488C136.585 12.4218 136.635 12.3644 136.697 12.3197C136.758 12.2749 136.829 12.2438 136.903 12.2285C136.977 12.2132 137.054 12.2141 137.128 12.231C137.989 12.231 138.843 12.231 139.787 12.231C139.327 13.4666 138.901 14.6244 138.493 15.7823C137.801 17.6453 137.121 19.5147 136.41 21.3713C135.647 23.3508 134.851 23.8683 132.722 23.8748C132.044 23.8748 131.396 23.7713 130.692 23.7065Z" fill="url(#paint1_linear_466_952)"/>
<path d="M18.2611 17.4068C18.6105 16.0548 18.908 14.8581 19.225 13.6614C19.5937 12.2319 19.5937 12.2319 21.0491 12.2319H22.6016C22.5305 12.4841 22.4917 12.6652 22.4335 12.8334C21.5473 15.2398 20.6545 17.6397 19.7878 20.046C19.7609 20.1917 19.6783 20.3213 19.5575 20.407C19.4367 20.4927 19.2872 20.528 19.1409 20.5053C18.3517 20.473 17.569 20.5053 16.7539 20.5053L15.1044 15.6279L14.3669 17.8208C14.1211 18.5776 13.8688 19.341 13.636 20.1108C13.6267 20.1746 13.6045 20.236 13.5708 20.291C13.5372 20.3461 13.4927 20.3938 13.4401 20.4313C13.3875 20.4688 13.3279 20.4952 13.2648 20.509C13.2018 20.5229 13.1366 20.5239 13.0732 20.5118C12.3811 20.5118 11.6889 20.5118 10.9968 20.5118C10.905 20.5057 10.8159 20.4785 10.7363 20.4325C10.6566 20.3865 10.5886 20.3229 10.5374 20.2466C9.54125 17.6203 8.59683 14.994 7.56183 12.2642C8.57742 12.2642 9.50244 12.2642 10.4728 12.2642C10.5827 12.2642 10.7315 12.5488 10.7768 12.7299C11.139 14.0949 11.4818 15.4597 11.8312 16.8311C11.8636 16.954 11.9153 17.0769 12.0058 17.3356C12.4846 15.8478 12.9244 14.4894 13.3578 13.1245C13.636 12.2383 13.6295 12.2319 14.5481 12.2319C14.979 12.2565 15.4109 12.2565 15.8419 12.2319C16.3658 12.1671 16.5728 12.4065 16.7215 12.8787C17.2197 14.3342 17.7242 15.7703 18.2611 17.4068Z" fill="url(#paint2_linear_466_952)"/>
<path d="M50.7966 12.9831V9.16016H53.9792V20.4611H51.0618V19.439C50.913 19.5618 50.8226 19.62 50.7514 19.6913C50.3881 20.0963 49.9269 20.4013 49.412 20.5769C48.8971 20.7526 48.3455 20.7929 47.8105 20.6943C47.2755 20.5956 46.7748 20.3611 46.3563 20.0133C45.9379 19.6654 45.616 19.2159 45.4211 18.708C44.7892 17.2917 44.7403 15.6836 45.2853 14.2316C45.4729 13.7339 45.7757 13.2878 46.1689 12.9295C46.562 12.5713 47.0344 12.3111 47.5473 12.1704C48.0603 12.0297 48.5992 12.0125 49.12 12.12C49.6409 12.2275 50.1291 12.4568 50.5443 12.7891L50.7966 12.9831ZM50.8549 16.4957C50.8183 16.1589 50.7642 15.8243 50.6932 15.4931C50.6275 15.192 50.4564 14.9243 50.211 14.7382C49.9656 14.552 49.6617 14.4595 49.3541 14.4774C49.2088 14.4731 49.0641 14.4975 48.9282 14.5491C48.7923 14.6008 48.668 14.6787 48.5623 14.7784C48.4566 14.8782 48.3716 14.9977 48.312 15.1303C48.2526 15.2629 48.2198 15.406 48.2156 15.5512C48.1385 16.1974 48.1581 16.8515 48.2738 17.4918C48.3156 17.7414 48.4459 17.9675 48.6406 18.129C48.8354 18.2906 49.0817 18.3767 49.3347 18.3716C49.6071 18.4142 49.8859 18.3598 50.1222 18.218C50.3587 18.0761 50.5378 17.8558 50.6284 17.5953C50.7342 17.2357 50.81 16.8679 50.8549 16.4957Z" fill="url(#paint3_linear_466_952)"/>
<path d="M83.9824 14.6187C84.0189 14.0049 84.2784 13.4256 84.712 12.9896C85.1455 12.5537 85.7235 12.291 86.3371 12.2511C87.7231 12.1315 89.1168 12.1315 90.5029 12.2511C91.939 12.3805 92.7993 13.5448 92.8188 15.1491C92.8188 16.1065 92.8188 17.0898 92.8188 18.0277C92.8188 18.8364 92.9287 19.6449 92.9869 20.4924C92.2107 20.4924 91.3116 20.4924 90.3994 20.4924C90.2701 20.4924 90.1148 20.337 90.0372 20.2141C89.9364 20.0218 89.854 19.8204 89.7913 19.6126C89.2233 20.1086 88.5432 20.459 87.8096 20.6337C87.0758 20.8084 86.3108 20.802 85.5802 20.6152C85.0587 20.5206 84.584 20.2538 84.2321 19.8573C83.8803 19.4608 83.6716 18.9578 83.6396 18.4288C83.5965 17.9154 83.7393 17.4037 84.0422 16.9868C84.3451 16.57 84.7876 16.2759 85.2892 16.1583C86.2336 15.8671 87.2297 15.6925 88.1806 15.4662C88.517 15.3978 88.8478 15.3049 89.1703 15.1879C89.3515 15.1103 89.6167 14.8903 89.5973 14.7804C89.5624 14.5117 89.423 14.2676 89.2091 14.1012C88.8269 13.9575 88.4081 13.943 88.0167 14.0599C87.6254 14.1766 87.2831 14.4183 87.0421 14.7481C87.003 14.8056 86.9523 14.8544 86.8933 14.8911C86.8342 14.9279 86.7682 14.9519 86.6993 14.9616C85.8001 14.8386 84.8881 14.7286 83.9824 14.6187ZM89.6231 16.6369C88.8664 16.8763 88.1548 17.0767 87.4626 17.329C87.3626 17.3513 87.268 17.393 87.1842 17.4519C87.1003 17.5108 87.029 17.5857 86.9743 17.6722C86.9196 17.7589 86.8826 17.8554 86.8654 17.9564C86.8481 18.0574 86.851 18.1607 86.8739 18.2605C86.9259 18.466 87.0515 18.6452 87.2267 18.7644C87.4019 18.8837 87.6147 18.9345 87.8248 18.9075C89.1185 18.9333 89.8172 18.0989 89.6231 16.6369Z" fill="url(#paint4_linear_466_952)"/>
<path d="M70.0741 20.4735H66.9239V12.2712H69.8671V13.4679C70.1711 13.2027 70.3717 13.0151 70.5851 12.821C71.0133 12.4634 71.5232 12.2172 72.0693 12.1044C72.6156 11.9916 73.1813 12.0155 73.716 12.1741C75.0098 12.4782 75.579 13.5066 75.6566 14.7616C75.7343 16.6569 75.6566 18.5523 75.6566 20.48H72.474C72.474 19.5485 72.474 18.617 72.474 17.679C72.474 16.9545 72.474 16.2236 72.4029 15.5055C72.404 15.3841 72.38 15.2638 72.3327 15.152C72.2854 15.0401 72.2156 14.9392 72.1276 14.8556C72.0396 14.7719 71.9355 14.7072 71.8214 14.6654C71.7075 14.6237 71.5861 14.6057 71.465 14.6129C71.2051 14.5695 70.9387 14.6261 70.719 14.7713C70.4994 14.9165 70.3429 15.1396 70.2811 15.3955C70.1658 15.8963 70.1051 16.4082 70.1 16.9221C70.0547 18.0737 70.0741 19.2444 70.0741 20.4735Z" fill="url(#paint5_linear_466_952)"/>
<path d="M58.9565 17.1226C59.0407 17.8924 59.2671 18.4681 59.9527 18.701C60.249 18.8176 60.5719 18.8491 60.8851 18.792C61.1983 18.7348 61.4893 18.5913 61.7252 18.3775C61.9405 18.2126 62.2044 18.1238 62.4756 18.1252C63.3165 18.1705 64.1575 18.2804 65.0631 18.371C64.858 18.8257 64.5649 19.2353 64.2008 19.5762C63.8366 19.917 63.4086 20.1824 62.9413 20.357C61.4433 20.8705 59.8201 20.891 58.3097 20.4152C56.5954 19.8847 55.5475 18.0734 55.7222 16.0746C55.7322 15.5406 55.8481 15.0138 56.0632 14.525C56.2783 14.036 56.5883 13.5947 56.9751 13.2265C57.362 12.8583 57.8181 12.5705 58.3171 12.3798C58.8159 12.1891 59.3478 12.0993 59.8816 12.1157C60.7508 12.0837 61.6205 12.1641 62.4691 12.3551C63.1731 12.5301 63.8071 12.9154 64.2866 13.4598C64.7662 14.004 65.0686 14.6814 65.1537 15.4019C65.2572 15.9452 65.2636 16.5016 65.3218 17.1226H58.9565ZM59.0019 15.6477H61.9774C61.9774 14.6192 61.447 13.9853 60.5672 13.9464C60.3503 13.9475 60.1359 13.9933 59.9376 14.081C59.7391 14.1687 59.5609 14.2963 59.414 14.456C59.2671 14.6156 59.1546 14.8038 59.0837 15.0089C59.0128 15.2139 58.9849 15.4314 59.0019 15.6477Z" fill="url(#paint6_linear_466_952)"/>
<path d="M38.8964 20.7514C36.71 20.7514 35.0153 19.7099 34.3683 17.9828C34.1056 17.3358 34.0058 16.6342 34.0777 15.9397C34.1495 15.2451 34.3909 14.579 34.7806 13.9995C35.1703 13.4201 35.6963 12.9453 36.3124 12.6168C36.9286 12.2884 37.6161 12.1162 38.3143 12.1156C39.0924 12.0792 39.8718 12.151 40.6301 12.329C42.6548 12.8725 43.7351 14.5609 43.5992 16.7926C43.5328 17.7267 43.1531 18.6111 42.5215 19.3025C41.8898 19.994 41.0434 20.452 40.1191 20.6026C39.731 20.6672 39.317 20.7061 38.8964 20.7514ZM40.4813 16.495C40.4167 16.0616 40.3843 15.7187 40.3002 15.3888C40.2291 15.0907 40.0658 14.8228 39.8336 14.623C39.6013 14.4232 39.3118 14.3018 39.0065 14.2762C38.6891 14.2494 38.372 14.3298 38.1058 14.5046C37.8395 14.6793 37.6397 14.9382 37.538 15.2401C37.2241 16.0092 37.2241 16.8708 37.538 17.6399C37.6338 17.9066 37.8094 18.1372 38.0409 18.3003C38.2724 18.4635 38.5485 18.5514 38.8318 18.5521C39.1124 18.5799 39.3945 18.5154 39.635 18.3683C39.8756 18.2212 40.0615 17.9995 40.1644 17.737C40.3075 17.3334 40.4135 16.9178 40.4813 16.495Z" fill="url(#paint7_linear_466_952)"/>
<path d="M117.286 12.0378C118.761 12.0378 120.113 12.4259 121.076 13.6291C121.576 14.2426 121.898 14.9822 122.003 15.7664C122.11 16.5506 121.997 17.3488 121.679 18.0731C121.417 18.7696 120.965 19.3782 120.373 19.8291C119.782 20.28 119.075 20.5547 118.334 20.6218C116.659 20.8806 115.1 20.6995 113.805 19.4833C113.231 18.9527 112.82 18.2691 112.621 17.5128C112.421 16.7565 112.442 15.9589 112.68 15.214C112.857 14.4726 113.243 13.7976 113.793 13.2691C114.341 12.7404 115.031 12.3805 115.779 12.2319C116.277 12.1357 116.78 12.0709 117.286 12.0378ZM118.832 16.4171H118.78C118.78 16.249 118.78 16.0743 118.78 15.8997C118.775 15.5148 118.636 15.1435 118.389 14.8489C118.142 14.5541 117.8 14.3541 117.422 14.2825C117.065 14.2246 116.7 14.3106 116.407 14.5215C116.112 14.7325 115.915 15.0514 115.856 15.408C115.746 16.1323 115.766 16.8705 115.915 17.5879C115.991 17.8889 116.172 18.1524 116.426 18.3305C116.68 18.5087 116.99 18.5895 117.299 18.5583C117.607 18.5478 117.904 18.4382 118.145 18.246C118.386 18.0538 118.559 17.789 118.638 17.491C118.723 17.1369 118.787 16.7784 118.832 16.4171Z" fill="url(#paint8_linear_466_952)"/>
<path d="M28.0407 12.0378C29.7098 12.0378 31.2105 12.4777 32.1743 13.9784C33.6168 16.2166 32.8212 20.0979 29.1534 20.6347C27.9209 20.8667 26.6465 20.6965 25.518 20.1496C23.8878 19.2958 23.1375 17.6656 23.3833 15.6215C23.5175 14.8045 23.8919 14.0458 24.4587 13.4422C25.0254 12.8386 25.7589 12.4173 26.5659 12.2319C27.0446 12.1284 27.5492 12.1025 28.0407 12.0378ZM26.5335 16.2231C26.5335 16.6112 26.5335 16.8376 26.5853 17.0705C26.6065 17.4456 26.7608 17.8009 27.0205 18.0724C27.2802 18.3439 27.6281 18.5139 28.002 18.5518C28.1844 18.5696 28.3686 18.551 28.5437 18.497C28.7189 18.443 28.8817 18.3548 29.0225 18.2375C29.1633 18.1202 29.2794 17.976 29.3641 17.8134C29.4487 17.6509 29.5002 17.4731 29.5156 17.2904C29.6062 16.6341 29.5865 15.9672 29.4574 15.3175C29.3985 15.0105 29.2304 14.7352 28.9843 14.5426C28.7382 14.35 28.4306 14.2529 28.1184 14.2695C27.8107 14.2619 27.509 14.3543 27.2581 14.5327C27.0074 14.7112 26.8212 14.9661 26.7276 15.2593C26.6386 15.5752 26.5737 15.8973 26.5335 16.2231Z" fill="url(#paint9_linear_466_952)"/>
<path d="M104.004 17.6336C103.814 18.5151 103.322 19.3027 102.614 19.8611C101.905 20.4194 101.025 20.7137 100.123 20.6932C99.2077 20.7357 98.2908 20.664 97.3933 20.4798C96.5641 20.2909 95.8227 19.8281 95.2887 19.1662C94.7547 18.5043 94.4592 17.6818 94.4499 16.8315C94.3917 15.1949 94.7993 13.7976 96.2095 12.8208C97.1752 12.2208 98.3131 11.9591 99.4438 12.0769C100.225 12.1015 100.998 12.2388 101.74 12.4845C102.266 12.6781 102.733 13.0025 103.099 13.4269C103.464 13.8513 103.716 14.3617 103.83 14.9103C102.918 15.046 102.07 15.1755 101.242 15.279C101.166 15.2877 101.088 15.2782 101.016 15.2512C100.944 15.2242 100.88 15.1805 100.828 15.1237C100.684 14.7936 100.425 14.5271 100.099 14.3735C99.7727 14.2202 99.402 14.1901 99.0557 14.2893C98.7072 14.3549 98.3908 14.535 98.1564 14.801C97.922 15.067 97.7831 15.4037 97.7619 15.7576C97.695 16.2875 97.7126 16.8246 97.8137 17.349C97.8647 17.6643 98.0198 17.9534 98.2542 18.1703C98.4887 18.3872 98.7891 18.5194 99.1075 18.5457C99.4589 18.6181 99.8242 18.5715 100.146 18.4134C100.468 18.2553 100.729 17.9947 100.886 17.6724C100.983 17.5107 101.21 17.3037 101.359 17.3166C102.219 17.3877 103.105 17.5236 104.004 17.6336Z" fill="url(#paint10_linear_466_952)"/>
<path d="M76.8732 14.5807V12.252H77.9534C78.0052 11.8315 78.0634 11.4563 78.1023 11.0811C78.2382 9.78739 78.8397 9.1405 80.127 9.00466C81.1944 8.92057 82.2811 9.00466 83.4325 9.00466L83.0638 10.997C81.3884 10.9324 81.2655 10.997 81.2266 12.2067H82.6886V14.5871H81.2072V20.4608H78.0052V14.6389L76.8732 14.5807Z" fill="url(#paint11_linear_466_952)"/>
<path d="M111.222 14.6065H109.534C109.534 15.7579 109.534 16.864 109.534 17.9638C109.534 18.1319 109.89 18.3778 110.11 18.4165C110.441 18.4273 110.772 18.3925 111.093 18.313C111.158 19.031 111.222 19.7167 111.294 20.4348C110.144 20.7753 108.927 20.8198 107.755 20.5642C107.327 20.4412 106.953 20.1779 106.692 19.8165C106.432 19.4552 106.3 19.0169 106.319 18.5718C106.274 17.4786 106.28 16.3853 106.261 15.2921V14.6452L105.097 14.5805V12.2713L106.216 12.2131C106.254 12.0476 106.267 11.8776 106.254 11.7085C106.086 10.9128 106.507 10.5441 107.173 10.253C107.839 9.96187 108.635 9.5285 109.456 9.1145V12.2453H111.222V14.6065Z" fill="url(#paint12_linear_466_952)"/>
<path d="M140.839 20.4469V17.3613H144.177V20.4469H140.839Z" fill="url(#paint13_linear_466_952)"/>
</g>
<defs>
<linearGradient id="paint0_linear_466_952" x1="0.129139" y1="15.3309" x2="152.623" y2="15.3309" gradientUnits="userSpaceOnUse">
<stop stop-color="#83E617"/>
<stop offset="1" stop-color="#83E617" stop-opacity="0.4"/>
</linearGradient>
<linearGradient id="paint1_linear_466_952" x1="123.764" y1="17.9769" x2="139.787" y2="17.9769" gradientUnits="userSpaceOnUse">
<stop stop-color="#83E617"/>
<stop offset="1" stop-color="#83E617" stop-opacity="0.4"/>
</linearGradient>
<linearGradient id="paint2_linear_466_952" x1="7.56183" y1="16.3708" x2="22.6016" y2="16.3708" gradientUnits="userSpaceOnUse">
<stop stop-color="#83E617"/>
<stop offset="1" stop-color="#83E617" stop-opacity="0.4"/>
</linearGradient>
<linearGradient id="paint3_linear_466_952" x1="44.9092" y1="14.9536" x2="53.9792" y2="14.9536" gradientUnits="userSpaceOnUse">
<stop stop-color="#83E617"/>
<stop offset="1" stop-color="#83E617" stop-opacity="0.4"/>
</linearGradient>
<linearGradient id="paint4_linear_466_952" x1="83.632" y1="16.4608" x2="92.9869" y2="16.4608" gradientUnits="userSpaceOnUse">
<stop stop-color="#83E617"/>
<stop offset="1" stop-color="#83E617" stop-opacity="0.4"/>
</linearGradient>
<linearGradient id="paint5_linear_466_952" x1="66.9239" y1="16.2572" x2="75.6911" y2="16.2572" gradientUnits="userSpaceOnUse">
<stop stop-color="#83E617"/>
<stop offset="1" stop-color="#83E617" stop-opacity="0.4"/>
</linearGradient>
<linearGradient id="paint6_linear_466_952" x1="55.7032" y1="16.4333" x2="65.3218" y2="16.4333" gradientUnits="userSpaceOnUse">
<stop stop-color="#83E617"/>
<stop offset="1" stop-color="#83E617" stop-opacity="0.4"/>
</linearGradient>
<linearGradient id="paint7_linear_466_952" x1="34.055" y1="16.4289" x2="43.6107" y2="16.4289" gradientUnits="userSpaceOnUse">
<stop stop-color="#83E617"/>
<stop offset="1" stop-color="#83E617" stop-opacity="0.4"/>
</linearGradient>
<linearGradient id="paint8_linear_466_952" x1="112.485" y1="16.381" x2="122.042" y2="16.381" gradientUnits="userSpaceOnUse">
<stop stop-color="#83E617"/>
<stop offset="1" stop-color="#83E617" stop-opacity="0.4"/>
</linearGradient>
<linearGradient id="paint9_linear_466_952" x1="23.3376" y1="16.3868" x2="32.8517" y2="16.3868" gradientUnits="userSpaceOnUse">
<stop stop-color="#83E617"/>
<stop offset="1" stop-color="#83E617" stop-opacity="0.4"/>
</linearGradient>
<linearGradient id="paint10_linear_466_952" x1="94.4446" y1="16.3772" x2="104.004" y2="16.3772" gradientUnits="userSpaceOnUse">
<stop stop-color="#83E617"/>
<stop offset="1" stop-color="#83E617" stop-opacity="0.4"/>
</linearGradient>
<linearGradient id="paint11_linear_466_952" x1="76.8732" y1="14.714" x2="83.4325" y2="14.714" gradientUnits="userSpaceOnUse">
<stop stop-color="#83E617"/>
<stop offset="1" stop-color="#83E617" stop-opacity="0.4"/>
</linearGradient>
<linearGradient id="paint12_linear_466_952" x1="105.097" y1="14.9212" x2="111.294" y2="14.9212" gradientUnits="userSpaceOnUse">
<stop stop-color="#83E617"/>
<stop offset="1" stop-color="#83E617" stop-opacity="0.4"/>
</linearGradient>
<linearGradient id="paint13_linear_466_952" x1="140.839" y1="18.9041" x2="144.177" y2="18.9041" gradientUnits="userSpaceOnUse">
<stop stop-color="#83E617"/>
<stop offset="1" stop-color="#83E617" stop-opacity="0.4"/>
</linearGradient>
<clipPath id="clip0_466_952">
<rect width="152.834" height="29.2182" fill="white" transform="translate(0.128639 0.458252)"/>
</clipPath>
</defs>
</svg>
