<svg width="123" height="22" viewBox="0 0 123 22" fill="none" xmlns="http://www.w3.org/2000/svg">
<g clip-path="url(#clip0_466_707)">
<path d="M63.1335 0.64502H60.0996C50.3965 0.729113 50.8428 6.69976 50.8428 6.86795V19.2426C50.8306 19.4771 50.8647 19.7118 50.9434 19.9331C51.0221 20.1544 51.1436 20.358 51.301 20.5323C51.4584 20.7065 51.6487 20.848 51.8609 20.9486C52.0731 21.0492 52.3031 21.107 52.5376 21.1185H53.9931C54.4633 21.0967 54.9058 20.8901 55.2244 20.5436C55.543 20.1971 55.7119 19.7389 55.6944 19.2686V7.53422C56.0371 5.59361 58.3465 5.33486 58.3465 5.33486H63.6315C63.6315 5.33486 64.9899 5.22488 64.9899 3.06432C65.0396 2.50545 64.8758 1.94848 64.5313 1.50559C64.1868 1.0627 63.6874 0.766756 63.1335 0.677355" fill="url(#paint0_linear_466_707)"/>
<path d="M77.508 0.418213C71.3562 0.418213 66.3688 1.25268 66.3688 7.40446V14.0932C66.3688 20.2513 71.3562 21.0793 77.508 21.0793C83.6598 21.0793 88.6213 20.2513 88.6213 14.0932V7.40446C88.6213 1.25268 83.6404 0.418213 77.4886 0.418213H77.508ZM83.7633 12.877C83.7633 16.3054 80.9559 16.5319 77.4886 16.5319C74.0214 16.5319 71.2075 16.3054 71.2075 12.877V8.62705C71.2075 5.19214 74.0149 4.9722 77.4886 4.9722C80.9623 4.9722 83.7633 5.19214 83.7633 8.62705V12.877Z" fill="url(#paint1_linear_466_707)"/>
<path d="M30.3237 2.49507C30.343 2.02534 30.1756 1.56704 29.858 1.22037C29.5404 0.873702 29.0986 0.666848 28.629 0.64502H27.167C26.6957 0.665205 26.2515 0.871112 25.9316 1.21777C25.6115 1.56442 25.4418 2.02364 25.4592 2.49507V14.8827V14.8374C25.8474 20.31 30.6731 21.0798 36.5661 21.0798C42.7178 21.0798 47.7053 20.2518 47.7053 14.0936V5.47717V2.49507C47.7228 2.02364 47.553 1.56442 47.2331 1.21777C46.913 0.871112 46.4689 0.665205 45.9975 0.64502H44.5808C44.1084 0.66354 43.6626 0.868726 43.3412 1.21556C43.0198 1.56241 42.8491 2.02256 42.8666 2.49507V12.8451C42.7761 16.1118 40.0139 16.5452 36.5984 16.5452C33.1829 16.5452 30.3237 16.1118 30.3237 12.6639V2.49507Z" fill="url(#paint2_linear_466_707)"/>
<path d="M100.434 0.418213C94.2819 0.418213 91.455 2.11949 91.455 8.27126V19.184C91.442 19.4184 91.4756 19.653 91.5539 19.8743C91.6323 20.0957 91.7538 20.2992 91.9116 20.4731C92.0693 20.647 92.2599 20.7878 92.4725 20.8875C92.685 20.9872 92.9152 21.0436 93.1498 21.0535H94.6117C95.0825 21.035 95.5267 20.8304 95.8468 20.4849C96.167 20.1392 96.337 19.6807 96.3195 19.2099V9.35154C96.4036 6.08483 97.0182 4.99808 100.427 4.99808C103.836 4.99808 104.438 6.08483 104.535 9.35154V19.2099C104.517 19.6807 104.687 20.1392 105.007 20.4849C105.328 20.8304 105.772 21.035 106.243 21.0535H107.704C108.174 21.0333 108.615 20.8278 108.933 20.4823C109.251 20.1366 109.419 19.679 109.399 19.2099V8.29714C109.399 2.14536 106.579 0.444083 100.427 0.444083" fill="url(#paint3_linear_466_707)"/>
<path d="M113.519 0.418213C107.367 0.418213 104.54 2.11949 104.54 8.27126V19.184C104.522 19.6548 104.692 20.1133 105.013 20.459C105.333 20.8046 105.777 21.0091 106.248 21.0276H107.703C107.936 21.0184 108.165 20.9635 108.376 20.8658C108.588 20.7682 108.778 20.6298 108.936 20.4586C109.094 20.2873 109.217 20.0866 109.297 19.8679C109.378 19.6492 109.414 19.4168 109.404 19.184V9.35154C109.495 6.08483 110.11 4.99808 113.519 4.99808C116.927 4.99808 117.536 6.08483 117.626 9.35154V19.2099C117.617 19.4427 117.653 19.6751 117.734 19.8938C117.814 20.1124 117.936 20.3133 118.095 20.4844C118.253 20.6557 118.443 20.7941 118.654 20.8917C118.866 20.9893 119.095 21.0443 119.327 21.0535H120.789C121.022 21.0443 121.251 20.9893 121.463 20.8917C121.674 20.7941 121.864 20.6557 122.022 20.4844C122.181 20.3133 122.303 20.1124 122.383 19.8938C122.464 19.6751 122.5 19.4427 122.491 19.2099V8.29714C122.491 2.14536 119.67 0.444083 113.519 0.444083" fill="url(#paint4_linear_466_707)"/>
<path d="M20.5646 0.644533H19.1156C18.6674 0.659319 18.2421 0.845257 17.9267 1.16411C17.6115 1.48295 17.4305 1.91047 17.4208 2.35874C17.4208 2.4299 17.4208 2.48813 17.4208 2.55281V7.84424C13.2734 7.12954 9.03298 7.14486 4.89084 7.88952V2.55281C4.90037 2.32001 4.86392 2.0876 4.78355 1.8689C4.70317 1.6502 4.58048 1.4495 4.42246 1.27826C4.26445 1.10703 4.07422 0.968635 3.86267 0.870993C3.65112 0.773349 3.42238 0.718374 3.18957 0.709215H1.72116C1.25216 0.726101 0.808668 0.926977 0.486645 1.26837C0.164624 1.60976 -0.0100303 2.06421 0.000475843 2.5334V19.2874C-0.0134707 19.7581 0.159836 20.2153 0.482395 20.5585C0.804954 20.9016 1.25044 21.1029 1.72116 21.1181H3.17662C3.40945 21.1089 3.63818 21.054 3.84973 20.9563C4.06128 20.8587 4.2515 20.7203 4.40952 20.5491C4.56753 20.3778 4.69024 20.1771 4.77061 19.9584C4.85098 19.7397 4.88744 19.5073 4.87791 19.2745V12.7087C9.02049 11.9669 13.2607 11.9537 17.4079 12.6699V19.2874C17.3938 19.756 17.5654 20.2113 17.8852 20.554C18.205 20.8969 18.6472 21.0996 19.1156 21.1181H20.5646C21.0353 21.0996 21.4796 20.8951 21.7997 20.5494C22.1199 20.2038 22.2898 19.7453 22.2724 19.2745V2.45577C22.2899 1.98434 22.1201 1.52513 21.8001 1.17847C21.4801 0.831814 21.0359 0.625898 20.5646 0.605713" fill="url(#paint5_linear_466_707)"/>
</g>
<defs>
<linearGradient id="paint0_linear_466_707" x1="50.8397" y1="10.8818" x2="64.9987" y2="10.8818" gradientUnits="userSpaceOnUse">
<stop stop-color="#83E617"/>
<stop offset="1" stop-color="#83E617" stop-opacity="0.4"/>
</linearGradient>
<linearGradient id="paint1_linear_466_707" x1="66.3688" y1="10.7488" x2="88.6213" y2="10.7488" gradientUnits="userSpaceOnUse">
<stop stop-color="#83E617"/>
<stop offset="1" stop-color="#83E617" stop-opacity="0.4"/>
</linearGradient>
<linearGradient id="paint2_linear_466_707" x1="25.458" y1="10.8624" x2="47.7065" y2="10.8624" gradientUnits="userSpaceOnUse">
<stop stop-color="#83E617"/>
<stop offset="1" stop-color="#83E617" stop-opacity="0.4"/>
</linearGradient>
<linearGradient id="paint3_linear_466_707" x1="91.4523" y1="10.7359" x2="109.401" y2="10.7359" gradientUnits="userSpaceOnUse">
<stop stop-color="#83E617"/>
<stop offset="1" stop-color="#83E617" stop-opacity="0.4"/>
</linearGradient>
<linearGradient id="paint4_linear_466_707" x1="104.539" y1="10.7359" x2="122.492" y2="10.7359" gradientUnits="userSpaceOnUse">
<stop stop-color="#83E617"/>
<stop offset="1" stop-color="#83E617" stop-opacity="0.4"/>
</linearGradient>
<linearGradient id="paint5_linear_466_707" x1="-0.000305176" y1="10.8619" x2="22.2736" y2="10.8619" gradientUnits="userSpaceOnUse">
<stop stop-color="#83E617"/>
<stop offset="1" stop-color="#83E617" stop-opacity="0.4"/>
</linearGradient>
<clipPath id="clip0_466_707">
<rect width="122.492" height="21.3518" fill="white" transform="translate(0.00012207 0.0583496)"/>
</clipPath>
</defs>
</svg>
