<svg width="115" height="42" viewBox="0 0 115 42" fill="none" xmlns="http://www.w3.org/2000/svg">
<g clip-path="url(#clip0_466_1092)">
<path d="M30.2189 11.7563V36.0594H26.9004V22.7596H13.8336V26.0522H23.6079V27.747C23.6079 31.997 23.6079 36.2405 23.6079 40.484C23.6033 40.7006 23.6184 40.917 23.6531 41.1309C27.2807 40.5412 30.6795 38.9759 33.4856 36.6027V19.4929C33.4662 16.9183 32.897 14.0916 30.2189 11.7563Z" fill="url(#paint0_linear_466_1092)"/>
<path d="M23.6426 12.7717H26.9612V5.51371C28.9535 5.94712 36.5283 10.8957 36.8324 18.6517V33.0641C38.8852 30.2572 40.184 26.9708 40.6047 23.5189C41.0253 20.067 40.5539 16.565 39.2354 13.3471C37.9168 10.1294 35.7954 7.30339 33.0734 5.13923C30.3515 2.97506 27.1201 1.54498 23.6879 0.985596C23.6596 1.20002 23.6466 1.4162 23.6492 1.63247L23.6426 12.7717Z" fill="url(#paint1_linear_466_1092)"/>
<path d="M10.4598 30.36V6.05699H13.7847V19.3502H26.8774V16.0641H17.1031V14.3628C17.1031 10.1193 17.1031 5.87584 17.1031 1.62588C17.1082 1.40931 17.0931 1.19275 17.0578 0.979004C13.4292 1.57097 10.0288 3.13587 7.21893 5.50712V22.604C7.21245 25.1979 7.78817 28.0248 10.4598 30.36Z" fill="url(#paint2_linear_466_1092)"/>
<path d="M17.1551 29.3447H13.8366V36.6349C11.8442 36.2016 4.2693 31.2529 3.96528 23.4969V9.09106C1.91999 11.8971 0.627468 15.1802 0.210865 18.6274C-0.205737 22.0746 0.267478 25.5711 1.58541 28.7835C2.90335 31.996 5.02209 34.8174 7.73966 36.9789C10.4572 39.1402 13.683 40.5696 17.1098 41.1307C17.1381 40.9163 17.1511 40.7001 17.1485 40.4838L17.1551 29.3447Z" fill="url(#paint3_linear_466_1092)"/>
<path d="M52.1373 29.9131V12.5315H54.7896V19.5631H57.1765V12.5315H59.8222V29.9131H57.1765V21.8336H54.8089V29.9131H52.1373Z" fill="url(#paint4_linear_466_1092)"/>
<path d="M70.8892 24.6863L69.7249 15.9599H69.6861L68.6187 24.6863H70.8892ZM65.4361 29.9131L67.9137 12.5315H71.4067L74.046 29.9131H71.5749L71.1609 26.8145H68.3535L67.9783 29.9131H65.4361Z" fill="url(#paint5_linear_466_1092)"/>
<path d="M79.6285 29.9131V12.5315H81.705L85.3857 22.9786L85.2045 18.2369V12.5509H87.5785V29.9324H85.7026L81.9249 19.0973L82.0672 23.6642V29.8936L79.6285 29.9131Z" fill="url(#paint6_linear_466_1092)"/>
<path d="M93.6003 29.9131V12.5315H96.246V20.5333L98.8917 12.5315H101.628L98.7429 21.1025L101.854 29.9131H99.0599L96.2655 21.7948V29.9131H93.6003Z" fill="url(#paint7_linear_466_1092)"/>
<path d="M109.573 27.2164C109.657 27.3978 109.791 27.5514 109.959 27.659C110.128 27.7667 110.324 27.8239 110.524 27.8239C110.724 27.8239 110.919 27.7667 111.088 27.659C111.256 27.5514 111.39 27.3978 111.475 27.2164C111.662 26.5256 111.738 25.8094 111.701 25.0947V16.9828C111.731 16.3722 111.652 15.7609 111.468 15.178C111.399 14.9987 111.273 14.8468 111.109 14.7452C110.946 14.6437 110.754 14.5981 110.562 14.6153C110.365 14.6012 110.169 14.6475 109.999 14.7481C109.829 14.8487 109.694 14.9987 109.612 15.178C109.397 15.7522 109.305 16.3645 109.34 16.9763V25.0817C109.302 25.8012 109.38 26.522 109.573 27.2164ZM113.453 28.8529C113.111 29.2856 112.664 29.6257 112.156 29.8425C111.647 30.0593 111.093 30.1462 110.543 30.0949C109.988 30.1398 109.431 30.049 108.92 29.8304C108.408 29.6117 107.957 29.2718 107.606 28.84C106.985 27.9775 106.675 26.7118 106.675 25.0429V17.0863C106.675 13.9037 107.968 12.3103 110.556 12.3059C111.103 12.2572 111.653 12.3439 112.159 12.5582C112.664 12.7725 113.108 13.108 113.453 13.535C114.113 14.6019 114.423 15.8478 114.34 17.0993V25.0558C114.354 26.7507 114.058 28.0164 113.453 28.8529Z" fill="url(#paint8_linear_466_1092)"/>
</g>
<defs>
<linearGradient id="paint0_linear_466_1092" x1="13.8336" y1="26.4436" x2="33.4856" y2="26.4436" gradientUnits="userSpaceOnUse">
<stop stop-color="#83E617"/>
<stop offset="1" stop-color="#83E617" stop-opacity="0.4"/>
</linearGradient>
<linearGradient id="paint1_linear_466_1092" x1="23.6426" y1="17.0249" x2="40.754" y2="17.0249" gradientUnits="userSpaceOnUse">
<stop stop-color="#83E617"/>
<stop offset="1" stop-color="#83E617" stop-opacity="0.4"/>
</linearGradient>
<linearGradient id="paint2_linear_466_1092" x1="7.21887" y1="15.6695" x2="26.8774" y2="15.6695" gradientUnits="userSpaceOnUse">
<stop stop-color="#83E617"/>
<stop offset="1" stop-color="#83E617" stop-opacity="0.4"/>
</linearGradient>
<linearGradient id="paint3_linear_466_1092" x1="0.0639954" y1="25.1109" x2="17.1551" y2="25.1109" gradientUnits="userSpaceOnUse">
<stop stop-color="#83E617"/>
<stop offset="1" stop-color="#83E617" stop-opacity="0.4"/>
</linearGradient>
<linearGradient id="paint4_linear_466_1092" x1="52.1373" y1="21.2223" x2="59.8222" y2="21.2223" gradientUnits="userSpaceOnUse">
<stop stop-color="#83E617"/>
<stop offset="1" stop-color="#83E617" stop-opacity="0.4"/>
</linearGradient>
<linearGradient id="paint5_linear_466_1092" x1="65.4361" y1="21.2223" x2="74.046" y2="21.2223" gradientUnits="userSpaceOnUse">
<stop stop-color="#83E617"/>
<stop offset="1" stop-color="#83E617" stop-opacity="0.4"/>
</linearGradient>
<linearGradient id="paint6_linear_466_1092" x1="79.6285" y1="21.2319" x2="87.5785" y2="21.2319" gradientUnits="userSpaceOnUse">
<stop stop-color="#83E617"/>
<stop offset="1" stop-color="#83E617" stop-opacity="0.4"/>
</linearGradient>
<linearGradient id="paint7_linear_466_1092" x1="93.6003" y1="21.2223" x2="101.854" y2="21.2223" gradientUnits="userSpaceOnUse">
<stop stop-color="#83E617"/>
<stop offset="1" stop-color="#83E617" stop-opacity="0.4"/>
</linearGradient>
<linearGradient id="paint8_linear_466_1092" x1="106.675" y1="21.201" x2="114.353" y2="21.201" gradientUnits="userSpaceOnUse">
<stop stop-color="#83E617"/>
<stop offset="1" stop-color="#83E617" stop-opacity="0.4"/>
</linearGradient>
<clipPath id="clip0_466_1092">
<rect width="114.625" height="41.5797" fill="white" transform="translate(0.0641785 0.258301)"/>
</clipPath>
</defs>
</svg>
