<svg width="115" height="22" viewBox="0 0 115 22" fill="none" xmlns="http://www.w3.org/2000/svg">
<g clip-path="url(#clip0_466_837)">
<path d="M41.1544 21.0866C37.0025 21.0866 33.1529 19.8391 30.5768 17.5249C29.6536 16.7005 28.9165 15.688 28.415 14.555C27.9136 13.422 27.6594 12.1946 27.6694 10.9552C27.6711 9.72102 27.9308 8.50086 28.4316 7.37337C28.9323 6.24586 29.6631 5.23602 30.5768 4.40887C32.9668 2.22869 37.1827 0.858801 41.1544 0.858801C45.5505 0.858801 49.0686 1.96638 51.7609 4.4147C52.6658 5.24378 53.3863 6.25476 53.8752 7.38173C54.3642 8.5087 54.6107 9.72633 54.5986 10.9552C54.5923 12.1855 54.3376 13.4019 53.8499 14.531C53.3622 15.66 52.6516 16.6785 51.7609 17.5249C49.2547 19.8566 45.3179 21.0866 41.1544 21.0866V18.4226C43.2634 18.4741 45.3073 17.6883 46.8414 16.2366C47.5313 15.5467 48.0716 14.7217 48.4288 13.813C48.786 12.9042 48.9523 11.9313 48.9173 10.9552C48.9383 9.97997 48.7655 9.01028 48.4092 8.10259C48.0527 7.19489 47.5198 6.36732 46.8414 5.66801C45.2788 4.2677 43.2562 3.49361 41.1601 3.49361C39.0642 3.49361 37.0416 4.2677 35.4789 5.66801C34.801 6.3677 34.2685 7.19534 33.9121 8.10295C33.5558 9.01055 33.3827 9.98006 33.4029 10.9552C33.3857 11.9291 33.5601 12.8969 33.9164 13.8031C34.2726 14.7094 34.8036 15.5363 35.4789 16.2366C37.0153 17.681 39.0543 18.4655 41.1601 18.4226V21.0866H41.1544ZM10.7884 0.858801C8.42902 0.848713 6.09231 1.32078 3.92093 2.24618C1.94384 3.13225 0.321458 4.57792 0.321458 6.90966C0.316 8.15711 0.788514 9.35905 1.64147 10.2674C2.71336 11.3154 4.07857 12.0109 5.55495 12.261C6.64236 12.4942 8.95672 12.8439 11.2653 13.1004C13.5739 13.3569 15.8126 13.5726 16.7314 13.8058C17.4582 13.9923 18.6852 14.2488 18.6852 15.6245C18.6652 16.0569 18.5093 16.4718 18.2398 16.81C17.9704 17.1482 17.6012 17.3923 17.1849 17.5074C15.737 18.0884 14.1848 18.3624 12.626 18.3119C10.7797 18.2608 8.95041 17.9426 7.19478 17.3675C5.96415 16.9915 4.87174 16.2593 4.05469 15.2631C3.64337 14.6767 3.41655 13.9803 3.4034 13.2637H0.902958V20.3463H3.68253V19.3903C3.68351 19.3223 3.70192 19.2558 3.73597 19.197C3.77002 19.1382 3.81858 19.0892 3.87697 19.0547C3.93536 19.0201 4.00163 19.0012 4.06941 18.9998C4.13719 18.9983 4.20421 19.0144 4.26402 19.0464C5.57601 19.6171 6.93892 20.0621 8.33452 20.3755C9.72517 20.7214 11.1524 20.8976 12.5853 20.9001C14.5368 20.9451 16.4829 20.6735 18.3479 20.0957C19.5735 19.7582 20.7239 19.1905 21.7381 18.4226C22.3065 17.984 22.766 17.4195 23.0808 16.7733C23.3955 16.1272 23.557 15.4167 23.5523 14.6976C23.5591 13.3308 23.0333 12.0152 22.0869 11.031C21.5553 10.5177 20.9397 10.0997 20.2669 9.79518C19.5459 9.46867 18.7964 9.20916 18.0281 9.01988C16.5861 8.66429 13.318 8.22709 11.7595 8.06387C10.2011 7.90065 7.282 7.65582 6.14808 7.30605C5.86108 7.23821 5.60382 7.07875 5.41505 6.85165C5.22627 6.62456 5.11619 6.34214 5.10138 6.04692C5.11735 5.7396 5.21394 5.44194 5.38138 5.18401C5.54883 4.92608 5.7812 4.71702 6.05504 4.57792C7.06104 3.94252 9.09629 3.55195 11.2129 3.55195C13.2623 3.52695 15.2948 3.92375 17.1849 4.71783C17.6914 4.94115 18.1681 5.22707 18.6038 5.56891C19.3108 6.17332 19.8025 6.99166 20.0053 7.90065H22.2672V1.75069H19.7435V2.4677C19.7435 2.70087 19.5052 2.99817 19.0515 2.75334C16.4724 1.51226 13.6493 0.864956 10.7884 0.858801ZM66.153 1.97804L78.4809 13.1238L78.3529 5.62138C78.3529 4.63622 78.1609 4.22233 77.0968 4.22233H74.7708V1.98969H85.3367V4.234H83.0746C81.993 4.234 81.9116 4.58375 81.9116 5.63303L82.0977 19.9732H78.4924L64.2864 7.27108V16.2891C64.2864 17.2684 64.3445 17.7289 65.3505 17.7289H67.8859V19.9732H57.5468V17.7289H59.9659C60.8672 17.7289 60.8323 16.8662 60.8323 16.2366V5.71464C60.8323 5.03844 60.7392 4.23982 59.3204 4.23982H57.355V1.98969L66.153 1.97804ZM97.3563 17.7173C97.5642 17.7178 97.7719 17.7061 97.9785 17.6823C98.0863 17.6503 98.1858 17.5952 98.2702 17.5207C98.3545 17.4461 98.4217 17.3541 98.4669 17.2509C98.4968 17.0893 98.5124 16.9255 98.5134 16.7612V13.217C98.5134 13.1355 98.5134 13.0945 98.3681 12.908C98.2227 12.7216 91.925 5.52227 91.6169 5.23081C91.3821 4.93605 91.0876 4.69472 90.7528 4.52285C90.4179 4.35099 90.0504 4.25253 89.6747 4.234H87.4883V1.98969H99.8451V4.234H98.3506C98.0076 4.234 97.7691 4.56043 98.0715 4.92768L102.27 9.96423C102.311 10.0167 102.34 10.0284 102.398 9.96423C102.456 9.90011 106.678 4.96848 106.736 4.93935C106.788 4.87386 106.82 4.79458 106.828 4.71116C106.836 4.62774 106.819 4.54381 106.781 4.46962C106.742 4.39543 106.682 4.33418 106.609 4.29338C106.536 4.25256 106.453 4.23395 106.37 4.23982H104.817V1.98969H114.947V4.234H112.685C112.345 4.2089 112.004 4.27442 111.698 4.4239C111.392 4.57338 111.13 4.8015 110.94 5.08508L104.09 12.8847C104.025 12.9825 103.996 13.1001 104.009 13.217V16.7671C104.01 16.9294 104.026 17.0913 104.055 17.2509C104.101 17.3534 104.169 17.4449 104.253 17.5193C104.337 17.5937 104.436 17.6492 104.544 17.6823C104.748 17.7108 104.954 17.7244 105.16 17.723H107.486V19.9673H95.1814V17.723L97.3563 17.7173Z" fill="url(#paint0_linear_466_837)"/>
</g>
<defs>
<linearGradient id="paint0_linear_466_837" x1="0.321411" y1="10.9726" x2="114.947" y2="10.9726" gradientUnits="userSpaceOnUse">
<stop stop-color="#83E617"/>
<stop offset="1" stop-color="#83E617" stop-opacity="0.4"/>
</linearGradient>
<clipPath id="clip0_466_837">
<rect width="114.625" height="20.228" fill="white" transform="translate(0.321838 0.858398)"/>
</clipPath>
</defs>
</svg>
