<svg width="118" height="29" viewBox="0 0 118 29" fill="none" xmlns="http://www.w3.org/2000/svg">
<g clip-path="url(#clip0_466_1148)">
<path d="M91.3908 12.5256C91.3879 11.7619 91.5373 11.0054 91.8306 10.3003C92.1188 9.61546 92.5411 8.99522 93.0726 8.47608C93.6019 7.95873 94.2226 7.54418 94.9033 7.2535C95.6105 6.95147 96.3726 6.79948 97.1415 6.80716C97.9058 6.80327 98.663 6.95515 99.3667 7.2535C100.048 7.53951 100.667 7.95466 101.191 8.47608C101.716 9.00031 102.138 9.61928 102.433 10.3003C102.738 11.0022 102.895 11.76 102.892 12.5256V14.8155C102.895 14.9751 102.865 15.1335 102.805 15.2814C102.746 15.4294 102.657 15.5638 102.544 15.6767C102.431 15.7895 102.296 15.8785 102.148 15.9384C102.001 15.9983 101.842 16.0277 101.683 16.0251H93.8037V17.1054C93.7988 17.5513 93.8915 17.9929 94.0753 18.3991C94.2496 18.7931 94.4903 19.1541 94.7868 19.4665C95.0895 19.7751 95.4529 20.0173 95.8542 20.178C96.3562 20.3859 96.9008 20.4705 97.4422 20.4243C97.9837 20.3781 98.5061 20.2028 98.9656 19.9128C99.5032 19.5688 99.9302 19.077 100.195 18.4962V18.3991C100.279 18.1727 100.431 17.9777 100.63 17.841C100.829 17.7044 101.066 17.6327 101.307 17.6358C101.469 17.6324 101.629 17.6635 101.777 17.7271C101.926 17.7907 102.059 17.8853 102.168 18.0046C102.279 18.1147 102.366 18.2457 102.426 18.3901C102.486 18.5344 102.517 18.6892 102.517 18.8455C102.516 18.9993 102.483 19.1514 102.42 19.2918L102.362 19.4148C101.923 20.4233 101.205 21.2852 100.292 21.8988C99.3556 22.5338 98.2467 22.8658 97.1156 22.8496C96.3513 22.8535 95.5941 22.7016 94.8903 22.4032C93.5133 21.8217 92.4146 20.7298 91.8242 19.3566C91.5156 18.6556 91.3591 17.8971 91.3648 17.1313L91.3908 12.5256ZM93.8037 13.6317H100.479V12.5514C100.484 12.1055 100.391 11.664 100.208 11.2576C100.031 10.8634 99.7882 10.5024 99.4896 10.1903C99.1905 9.88051 98.8288 9.63794 98.4288 9.47873C97.8176 9.22172 97.1439 9.15216 96.4931 9.27885C95.8424 9.40555 95.244 9.72279 94.7739 10.1903C94.469 10.4973 94.2253 10.8595 94.0558 11.2576C93.8839 11.667 93.798 12.1074 93.8037 12.5514V13.6317Z" fill="url(#paint0_linear_466_1148)"/>
<path d="M105.19 11.2578C105.182 10.6297 105.324 10.0087 105.604 9.44655C105.874 8.89934 106.257 8.41627 106.73 8.0299C107.239 7.62351 107.821 7.31632 108.444 7.12428C109.15 6.9061 109.885 6.79917 110.624 6.80732C111.248 6.82626 111.867 6.92185 112.467 7.09194C113.015 7.25914 113.537 7.50073 114.019 7.80996C114.568 8.15788 115.026 8.62987 115.359 9.1878C115.488 9.42241 115.563 9.68335 115.579 9.95112C115.583 10.2598 115.463 10.5574 115.249 10.7791C115.145 10.891 115.018 10.98 114.878 11.0401C114.737 11.1003 114.587 11.1304 114.434 11.1284C114.242 11.1264 114.053 11.0798 113.882 10.9922C113.711 10.9046 113.564 10.7785 113.451 10.6239C113.12 10.193 112.709 9.8305 112.241 9.55652C111.738 9.31147 111.182 9.19584 110.624 9.22014C109.849 9.18387 109.083 9.38961 108.431 9.8088C108.182 9.9616 107.976 10.1744 107.832 10.4276C107.687 10.6808 107.608 10.9662 107.603 11.2578C107.571 11.5703 107.629 11.8855 107.77 12.1662C107.91 12.447 108.129 12.6817 108.398 12.8426C109.091 13.1758 109.856 13.3293 110.624 13.289C111.376 13.2857 112.125 13.3881 112.848 13.5931C113.509 13.7756 114.128 14.083 114.673 14.4986C115.19 14.901 115.614 15.4108 115.915 15.9929C116.232 16.6339 116.389 17.3417 116.375 18.0565C116.392 18.7818 116.234 19.5005 115.915 20.1523C115.606 20.7442 115.163 21.2559 114.622 21.6466C114.058 22.0598 113.422 22.3628 112.745 22.5393C112.015 22.7309 111.263 22.8267 110.507 22.8239C110.339 22.8239 110.029 22.8239 109.569 22.7463C109.049 22.6736 108.542 22.5277 108.062 22.3129C107.455 22.0462 106.892 21.6884 106.393 21.252C105.779 20.7035 105.295 20.0251 104.976 19.2661C104.915 19.1253 104.885 18.9732 104.886 18.8197C104.885 18.5076 105.003 18.2067 105.216 17.9788C105.412 17.775 105.675 17.6471 105.956 17.6175C106.238 17.5879 106.521 17.6585 106.755 17.8171C106.951 17.9595 107.105 18.1515 107.202 18.3734C107.486 19.0145 107.978 19.541 108.599 19.8677C109.21 20.2172 109.9 20.4041 110.604 20.4111C111.038 20.4127 111.471 20.3737 111.898 20.2946C112.273 20.236 112.633 20.1065 112.959 19.9129C113.257 19.7358 113.505 19.4839 113.677 19.182C113.868 18.8384 113.962 18.4493 113.949 18.0565C113.989 17.6856 113.918 17.3113 113.745 16.9808C113.573 16.6502 113.306 16.3784 112.979 16.1999C112.239 15.8514 111.428 15.6829 110.611 15.7083C109.878 15.7127 109.147 15.6368 108.431 15.4819C107.814 15.3558 107.23 15.1024 106.717 14.738C106.233 14.3818 105.846 13.9104 105.591 13.3666C105.297 12.7039 105.16 11.9822 105.19 11.2578Z" fill="url(#paint1_linear_466_1148)"/>
<path d="M59.4468 12.5251C59.443 11.7607 59.5948 11.0036 59.8932 10.2999C60.179 9.60812 60.6015 8.98111 61.1352 8.45627C61.6632 7.94039 62.2815 7.52596 62.9594 7.23367C63.6677 6.93919 64.4271 6.7876 65.1942 6.7876C65.9614 6.7876 66.7209 6.93919 67.4292 7.23367C68.1105 7.51967 68.73 7.93485 69.2534 8.45627C69.7768 8.98227 70.1978 9.6008 70.4954 10.2805C70.8011 10.9824 70.9575 11.7402 70.9547 12.5057V17.0855C70.9586 17.8499 70.8067 18.6071 70.5083 19.3108C70.2202 19.9957 69.7979 20.6159 69.2663 21.1351C68.7375 21.6559 68.1139 22.0709 67.4292 22.3576C66.1573 22.891 64.7358 22.9484 63.4251 22.5193C62.8683 22.3341 62.3428 22.0659 61.8662 21.7237V27.0604C61.8695 27.2218 61.8384 27.382 61.7749 27.5305C61.7113 27.6788 61.6167 27.8119 61.4975 27.9208C61.3284 28.0884 61.1133 28.2021 60.8797 28.2477C60.646 28.2931 60.404 28.2682 60.1844 28.1761C59.965 28.0839 59.7776 27.9287 59.6464 27.7302C59.515 27.5316 59.4456 27.2985 59.4468 27.0604V12.5057V12.5251ZM61.8662 17.105C61.8613 17.5509 61.954 17.9924 62.1378 18.3988C62.3096 18.794 62.5505 19.1554 62.8494 19.466C63.152 19.7746 63.5154 20.017 63.9167 20.1776C64.3259 20.351 64.7661 20.439 65.2105 20.4364C65.6549 20.4399 66.0953 20.3519 66.5042 20.1776C66.9034 20.0131 67.266 19.7712 67.5714 19.4659C67.8767 19.1606 68.1186 18.7979 68.2832 18.3988C68.4551 17.9894 68.5411 17.549 68.5354 17.105V12.5251C68.5424 12.0797 68.4519 11.6381 68.2701 11.2314C68.0936 10.8371 67.8507 10.4761 67.5521 10.164C67.2507 9.85702 66.8897 9.61487 66.4913 9.45247C66.0819 9.27981 65.6418 9.19179 65.1975 9.19372C64.753 9.19016 64.3126 9.27824 63.9038 9.45247C63.3021 9.70291 62.7881 10.1259 62.4267 10.6682C62.0652 11.2104 61.8723 11.8476 61.8726 12.4993L61.8662 17.105Z" fill="url(#paint2_linear_466_1148)"/>
<path d="M73.2463 2.55102C73.2433 2.31288 73.3114 2.07924 73.4418 1.88C73.5723 1.68075 73.7592 1.52497 73.9788 1.43259C74.1982 1.3402 74.4403 1.3154 74.674 1.36138C74.9077 1.40736 75.1223 1.52202 75.2904 1.69067C75.4098 1.7995 75.5043 1.93257 75.5679 2.08096C75.6315 2.22935 75.6626 2.38961 75.6591 2.55102V3.46958C75.6617 3.62916 75.6323 3.78762 75.5725 3.93558C75.5126 4.08352 75.4236 4.21794 75.3108 4.33079C75.1978 4.44364 75.0634 4.53263 74.9155 4.59249C74.7675 4.65235 74.6091 4.68185 74.4495 4.67923C74.2932 4.6794 74.1385 4.64861 73.9942 4.58866C73.8498 4.52871 73.7187 4.44077 73.6086 4.32992C73.4905 4.22051 73.3971 4.08718 73.3346 3.93882C73.2721 3.79047 73.2421 3.6305 73.2463 3.46958V2.55102ZM73.2463 8.14002C73.2446 7.98153 73.2745 7.82428 73.3344 7.67753C73.3942 7.53076 73.4828 7.39744 73.5949 7.28536C73.7069 7.17329 73.8403 7.08474 73.9871 7.02488C74.1338 6.96503 74.2911 6.93508 74.4495 6.93682C74.6058 6.9363 74.7608 6.96691 74.9051 7.02687C75.0495 7.08685 75.1805 7.175 75.2904 7.28614C75.4089 7.39423 75.5031 7.52626 75.5665 7.67346C75.6302 7.82066 75.6617 7.97969 75.6591 8.14002V21.4914C75.6609 21.6505 75.6308 21.8084 75.5705 21.9555C75.5103 22.1027 75.4211 22.2363 75.3084 22.3484C75.1956 22.4606 75.0615 22.549 74.914 22.6085C74.7664 22.6679 74.6085 22.6973 74.4495 22.6947C74.2932 22.6949 74.1385 22.6641 73.9942 22.6041C73.8498 22.5442 73.7187 22.4562 73.6086 22.3454C73.491 22.237 73.3979 22.1047 73.3354 21.9575C73.2729 21.8103 73.2426 21.6514 73.2463 21.4914V8.14002Z" fill="url(#paint3_linear_466_1148)"/>
<path d="M77.7218 12.5266C77.718 11.7622 77.8698 11.0051 78.1682 10.3013C78.4564 9.61651 78.8788 8.99627 79.4103 8.47714C79.9371 7.95986 80.5557 7.54527 81.2344 7.25456C81.9418 6.96095 82.7002 6.80981 83.4661 6.80981C84.2321 6.80981 84.9904 6.96095 85.6978 7.25456C86.3795 7.53462 87.0011 7.94308 87.5285 8.45773C88.0518 8.98232 88.4711 9.6013 88.7641 10.2819C89.0747 10.9825 89.2334 11.7409 89.2298 12.5072V17.087C89.2337 17.8514 89.0818 18.6086 88.7835 19.3123C88.4953 19.9971 88.0729 20.6173 87.5414 21.1364C87.0086 21.6555 86.3833 22.0702 85.6978 22.3591C84.9943 22.6581 84.237 22.8101 83.4726 22.8054C82.8683 22.8057 82.2677 22.7096 81.6937 22.5208C81.1395 22.3344 80.6162 22.0662 80.1412 21.7252V27.0619C80.1447 27.2232 80.1136 27.3835 80.05 27.5319C79.9864 27.6803 79.8917 27.8133 79.7725 27.9221C79.5461 28.1462 79.2404 28.2718 78.9219 28.2718C78.6033 28.2718 78.2977 28.1462 78.0712 27.9221C77.957 27.8104 77.8671 27.6763 77.8071 27.5283C77.747 27.3803 77.718 27.2216 77.7218 27.0619V12.5072V12.5266ZM80.1412 17.1064C80.1374 17.5516 80.2277 17.9924 80.4064 18.4001C80.5843 18.7899 80.8271 19.1463 81.1244 19.4546C81.4259 19.7616 81.7869 20.0038 82.1854 20.1661C82.5948 20.3388 83.0348 20.4269 83.4791 20.425C83.9235 20.4284 84.3639 20.3403 84.7729 20.1661C85.3744 19.9157 85.8884 19.4927 86.2499 18.9504C86.6115 18.4082 86.8042 17.771 86.804 17.1194V12.5395C86.8078 12.0944 86.7174 11.6535 86.5388 11.2458C86.3622 10.8515 86.1194 10.4905 85.8208 10.1784C85.5181 9.86982 85.1546 9.62751 84.7534 9.46686C84.3435 9.29605 83.9037 9.20811 83.4596 9.20811C83.0155 9.20811 82.5759 9.29605 82.1659 9.46686C81.7667 9.63139 81.404 9.87327 81.0988 10.1786C80.7934 10.4839 80.5515 10.8466 80.387 11.2458C80.215 11.6551 80.1292 12.0955 80.1347 12.5395L80.1412 17.1064Z" fill="url(#paint4_linear_466_1148)"/>
<path d="M25.7413 12.371C27.3598 12.371 28.6717 11.059 28.6717 9.44057C28.6717 7.8222 27.3598 6.51025 25.7413 6.51025H10.7533C9.1349 6.51025 7.82294 7.8222 7.82294 9.44057C7.82294 11.059 9.1349 12.371 10.7533 12.371H25.7413Z" fill="url(#paint5_linear_466_1148)"/>
<path d="M34.8269 12.4022C36.4417 12.4022 37.7508 11.0931 37.7508 9.47831C37.7508 7.8635 36.4417 6.55444 34.8269 6.55444C33.2121 6.55444 31.903 7.8635 31.903 9.47831C31.903 11.0931 33.2121 12.4022 34.8269 12.4022Z" fill="url(#paint6_linear_466_1148)"/>
<path d="M48.9099 20.2701C50.514 20.2701 51.8145 18.9697 51.8145 17.3656C51.8145 15.7615 50.514 14.4612 48.9099 14.4612H34.0513C32.4472 14.4612 31.1469 15.7615 31.1469 17.3656C31.1469 18.9697 32.4472 20.2701 34.0513 20.2701H48.9099Z" fill="url(#paint7_linear_466_1148)"/>
<path d="M18.0852 20.3016C19.6893 20.3016 20.9896 19.0012 20.9896 17.3971C20.9896 15.793 19.6893 14.4927 18.0852 14.4927H3.22648C1.62239 14.4927 0.322021 15.793 0.322021 17.3971C0.322021 19.0012 1.62239 20.3016 3.22648 20.3016H18.0852Z" fill="url(#paint8_linear_466_1148)"/>
<path d="M28.9821 17.3642V17.3384C28.9821 15.7415 27.6876 14.4468 26.0907 14.4468H26.0842C24.4872 14.4468 23.1926 15.7415 23.1926 17.3384V17.3642C23.1926 18.9612 24.4872 20.2558 26.0842 20.2558H26.0907C27.6876 20.2558 28.9821 18.9612 28.9821 17.3642Z" fill="url(#paint9_linear_466_1148)"/>
<path d="M33.2283 28.1539C34.8324 28.1539 36.1328 26.8534 36.1328 25.2494C36.1328 23.6453 34.8324 22.345 33.2283 22.345H18.3696C16.7655 22.345 15.4652 23.6453 15.4652 25.2494C15.4652 26.8534 16.7655 28.1539 18.3696 28.1539H33.2283Z" fill="url(#paint10_linear_466_1148)"/>
<path d="M44.1162 25.218V25.1921C44.1162 23.5951 42.8216 22.3005 41.2246 22.3005H41.2182C39.6212 22.3005 38.3266 23.5951 38.3266 25.1921V25.218C38.3266 26.815 39.6212 28.1095 41.2182 28.1095H41.2246C42.8216 28.1095 44.1162 26.815 44.1162 25.218Z" fill="url(#paint11_linear_466_1148)"/>
</g>
<defs>
<linearGradient id="paint0_linear_466_1148" x1="91.3647" y1="14.8285" x2="102.892" y2="14.8285" gradientUnits="userSpaceOnUse">
<stop stop-color="#83E617"/>
<stop offset="1" stop-color="#83E617" stop-opacity="0.4"/>
</linearGradient>
<linearGradient id="paint1_linear_466_1148" x1="104.886" y1="14.8154" x2="116.376" y2="14.8154" gradientUnits="userSpaceOnUse">
<stop stop-color="#83E617"/>
<stop offset="1" stop-color="#83E617" stop-opacity="0.4"/>
</linearGradient>
<linearGradient id="paint2_linear_466_1148" x1="59.4467" y1="17.5287" x2="70.9548" y2="17.5287" gradientUnits="userSpaceOnUse">
<stop stop-color="#83E617"/>
<stop offset="1" stop-color="#83E617" stop-opacity="0.4"/>
</linearGradient>
<linearGradient id="paint3_linear_466_1148" x1="73.2459" y1="12.0169" x2="75.6594" y2="12.0169" gradientUnits="userSpaceOnUse">
<stop stop-color="#83E617"/>
<stop offset="1" stop-color="#83E617" stop-opacity="0.4"/>
</linearGradient>
<linearGradient id="paint4_linear_466_1148" x1="77.7215" y1="17.5408" x2="89.2298" y2="17.5408" gradientUnits="userSpaceOnUse">
<stop stop-color="#83E617"/>
<stop offset="1" stop-color="#83E617" stop-opacity="0.4"/>
</linearGradient>
<linearGradient id="paint5_linear_466_1148" x1="7.82294" y1="9.4406" x2="28.6717" y2="9.4406" gradientUnits="userSpaceOnUse">
<stop stop-color="#83E617"/>
<stop offset="1" stop-color="#83E617" stop-opacity="0.4"/>
</linearGradient>
<linearGradient id="paint6_linear_466_1148" x1="31.903" y1="9.47832" x2="37.7508" y2="9.47832" gradientUnits="userSpaceOnUse">
<stop stop-color="#83E617"/>
<stop offset="1" stop-color="#83E617" stop-opacity="0.4"/>
</linearGradient>
<linearGradient id="paint7_linear_466_1148" x1="31.1469" y1="17.3656" x2="51.8145" y2="17.3656" gradientUnits="userSpaceOnUse">
<stop stop-color="#83E617"/>
<stop offset="1" stop-color="#83E617" stop-opacity="0.4"/>
</linearGradient>
<linearGradient id="paint8_linear_466_1148" x1="0.322021" y1="17.3971" x2="20.9896" y2="17.3971" gradientUnits="userSpaceOnUse">
<stop stop-color="#83E617"/>
<stop offset="1" stop-color="#83E617" stop-opacity="0.4"/>
</linearGradient>
<linearGradient id="paint9_linear_466_1148" x1="23.1926" y1="17.3513" x2="28.9821" y2="17.3513" gradientUnits="userSpaceOnUse">
<stop stop-color="#83E617"/>
<stop offset="1" stop-color="#83E617" stop-opacity="0.4"/>
</linearGradient>
<linearGradient id="paint10_linear_466_1148" x1="15.4652" y1="25.2494" x2="36.1328" y2="25.2494" gradientUnits="userSpaceOnUse">
<stop stop-color="#83E617"/>
<stop offset="1" stop-color="#83E617" stop-opacity="0.4"/>
</linearGradient>
<linearGradient id="paint11_linear_466_1148" x1="38.3266" y1="25.205" x2="44.1162" y2="25.205" gradientUnits="userSpaceOnUse">
<stop stop-color="#83E617"/>
<stop offset="1" stop-color="#83E617" stop-opacity="0.4"/>
</linearGradient>
<clipPath id="clip0_466_1148">
<rect width="116.873" height="28.0944" fill="white" transform="translate(0.321716 0.258301)"/>
</clipPath>
</defs>
</svg>
