<svg width="97" height="38" viewBox="0 0 97 38" fill="none" xmlns="http://www.w3.org/2000/svg">
<g clip-path="url(#clip0_466_878)">
<path d="M90.8163 14.9241H86.4179V19.3224H90.8163V14.9241Z" fill="url(#paint0_linear_466_878)"/>
<path d="M96.8375 33.9586C91.5867 33.9586 90.8181 28.3784 90.4951 25.0457H86.775C86.5942 27.0221 86.2455 33.3385 82.8999 33.3385C81.6921 33.3385 80.1549 33.0738 78.9472 29.3536C77.9461 26.2858 77.4682 22.036 77.0549 17.9348C76.6415 13.8337 76.2023 9.75829 75.2012 6.69046C73.8708 2.58926 71.5715 0.612936 68.381 0.877738C62.5101 1.31692 61.7093 9.73244 61.0311 17.134C60.7663 20.0274 60.3271 24.8132 59.4681 25.8725C58.8223 25.1362 58.3443 22.0941 58.0537 20.2664C57.2852 15.4547 56.3098 9.43536 51.3239 9.43536C46.3378 9.43536 45.3884 15.7196 44.5617 21.7713C43.6187 28.6755 42.9406 33.9004 39.2205 33.5452C36.0945 33.2223 35.3453 27.3191 35.1192 25.0781H31.4056C31.4056 25.162 31.1989 33.5452 27.6015 33.5452C25.6639 33.5452 25.0181 32.2213 24.2042 28.5011C23.707 26.1695 23.0546 23.2439 20.2839 23.2439C17.1257 23.2439 16.5056 26.6087 16.0922 28.824C15.9114 29.7088 15.6208 31.3623 15.2656 31.6851H15.1751C14.7618 31.4526 14.3226 29.5603 14.116 28.6754C13.5799 26.402 12.8759 23.2761 9.89203 23.2761C7.14714 23.2761 6.2946 26.5054 5.4679 29.6184C5.20767 30.8221 4.81114 31.9921 4.28598 33.106C3.78221 33.752 2.60674 33.8682 1.86401 33.9005H1.12773V37.4398H2.41944C4.04055 37.4398 5.99104 37.0006 7.2311 35.4053C8.08363 34.2815 8.56156 32.5119 9.05887 30.626C9.31462 29.5948 9.62946 28.5791 10.0018 27.584C10.2085 28.1717 10.3893 28.9984 10.5379 29.5603C11.0675 31.9241 11.8942 35.4635 15.2591 35.4635C18.624 35.4635 19.328 31.9241 19.7801 29.5603C19.8705 28.9984 20.0449 28.2362 20.1935 27.6228C20.342 28.1523 20.4906 28.8046 20.6068 29.3343C21.2526 32.3181 22.3507 37.3041 27.6272 37.3041C30.4044 37.3041 32.5294 35.0049 33.3884 32.6992C34.2731 34.9402 36.4562 37.3041 39.2592 37.3041C46.551 37.3041 47.3454 29.457 48.2625 22.7853C48.818 18.7099 49.5541 13.2524 51.3561 13.2524C53.1581 13.2524 53.8105 17.4439 54.3658 20.8671C55.0763 25.2072 55.8448 29.6895 59.5327 29.6895C61.5672 29.6895 62.9557 28.1523 63.7243 25.0845C64.3617 22.5827 64.815 20.0377 65.0806 17.4698C65.5844 12.1286 65.9396 4.90143 68.6845 4.90143C71.7846 4.90143 72.4886 14.3115 72.902 18.3288C73.8449 27.2093 74.6458 37.2719 82.9386 37.2719C86.4198 37.2719 88.4865 33.5259 88.8095 32.5829C89.4553 34.443 91.8773 37.4204 95.268 37.4204H96.8375V33.9392V33.9586Z" fill="url(#paint1_linear_466_878)"/>
<path d="M35.4571 14.9241H31.0589V19.3224H35.4571V14.9241Z" fill="url(#paint2_linear_466_878)"/>
</g>
<defs>
<linearGradient id="paint0_linear_466_878" x1="86.4179" y1="17.1232" x2="90.8163" y2="17.1232" gradientUnits="userSpaceOnUse">
<stop stop-color="#83E617"/>
<stop offset="1" stop-color="#83E617" stop-opacity="0.4"/>
</linearGradient>
<linearGradient id="paint1_linear_466_878" x1="1.12773" y1="19.147" x2="96.8375" y2="19.147" gradientUnits="userSpaceOnUse">
<stop stop-color="#83E617"/>
<stop offset="1" stop-color="#83E617" stop-opacity="0.4"/>
</linearGradient>
<linearGradient id="paint2_linear_466_878" x1="31.0589" y1="17.1232" x2="35.4571" y2="17.1232" gradientUnits="userSpaceOnUse">
<stop stop-color="#83E617"/>
<stop offset="1" stop-color="#83E617" stop-opacity="0.4"/>
</linearGradient>
<clipPath id="clip0_466_878">
<rect width="96.6448" height="37.0846" fill="white" transform="translate(0.192963 0.658691)"/>
</clipPath>
</defs>
</svg>
