<svg width="85" height="64" viewBox="0 0 85 64" fill="none" xmlns="http://www.w3.org/2000/svg">
<g clip-path="url(#clip0_466_1087)">
<path d="M65.1958 23.7043C65.3629 23.6564 65.5339 23.6239 65.7068 23.6072H76.5032C76.9172 23.6072 77.3312 23.6072 77.7452 23.6072C78.1592 23.6072 78.2303 23.6913 78.2303 24.0988C78.2303 24.5063 78.2303 24.985 78.2303 25.3926C78.2235 25.9899 78.1028 26.5806 77.8745 27.1327C77.7323 27.5725 77.577 28.006 77.4347 28.4264C77.3505 28.6916 77.2859 28.9568 77.2017 29.2285C77.1294 29.3966 77.1117 29.5833 77.1512 29.7621C77.1906 29.9409 77.2852 30.1027 77.4218 30.2247C78.3468 31.0915 79.2459 31.9842 80.1579 32.8704C80.2807 32.9632 80.3858 33.0771 80.4685 33.2068C80.8566 34.093 81.3417 34.9598 81.1154 35.9818C80.876 37.1916 80.6172 38.3883 80.3649 39.5914C80.2938 39.9214 80.1968 40.2384 80.1321 40.5747C80.1227 40.6951 80.1521 40.8152 80.2163 40.9176C80.6754 41.7585 81.1865 42.5671 81.6069 43.4274C82.0275 44.2878 82.4285 45.2646 82.8167 46.1961C82.9232 46.4631 83.0098 46.7376 83.0754 47.0176C83.3018 47.8973 83.5734 48.7707 83.7222 49.6633C83.9292 50.8729 84.0909 52.0956 84.1944 53.3181C84.2376 54.0879 84.2224 54.8599 84.1493 55.6275C84.0948 56.2396 84.0083 56.8485 83.8905 57.4516C83.827 57.7837 83.6868 58.0963 83.4814 58.3647C83.2759 58.633 83.0107 58.8498 82.7067 58.9977C82.0598 59.3664 81.3806 59.774 80.6949 60.1103C80.1883 60.3432 79.6676 60.5441 79.136 60.7119C78.3985 60.9642 77.6675 61.2229 76.9172 61.4364C75.7642 61.7779 74.5779 61.9948 73.3788 62.0832C71.5997 62.192 69.814 62.0659 68.0679 61.7081C67.2335 61.5399 66.4184 61.2682 65.5968 61.0612C64.6653 60.7896 63.7338 60.5178 62.8089 60.2332C62.1943 60.0391 61.5927 59.8192 60.9846 59.5863C60.3766 59.3535 59.6909 59.1529 59.0829 58.9395C58.2936 58.6483 57.5045 58.3443 56.7217 58.0144C55.939 57.6846 55.3245 57.3675 54.6259 57.07C54.3348 56.9342 54.0501 56.7724 53.7655 56.6236C53.7289 56.6097 53.6955 56.5882 53.6675 56.5606C53.6395 56.533 53.6176 56.5 53.603 56.4636C53.5885 56.4271 53.5815 56.3881 53.5828 56.3488C53.5841 56.3095 53.5934 56.271 53.6103 56.2356C53.7849 55.7892 53.9532 55.3428 54.1407 54.8965C54.2377 54.6636 54.4189 54.6313 54.697 54.7671C55.6674 55.2523 56.6376 55.7763 57.608 56.2226C58.5783 56.6689 59.5033 57.0183 60.4671 57.3675C61.431 57.7168 62.5566 58.0856 63.6045 58.4284C64.6524 58.7713 65.7003 59.1206 66.7548 59.4441C67.4987 59.6704 68.2425 59.8839 68.9994 60.0909C70.632 60.4773 72.3171 60.5909 73.9868 60.4272C74.9794 60.3275 75.9661 60.1763 76.943 59.9745C77.3839 59.8684 77.8163 59.7301 78.2367 59.5605L79.2524 59.2371C80.2275 58.9413 81.1491 58.4914 81.9822 57.9045C82.1601 57.7875 82.3128 57.6363 82.4316 57.4598C82.5505 57.2831 82.6329 57.0847 82.6743 56.876C82.9784 55.2752 82.9784 53.6315 82.6743 52.0308C82.4802 50.9958 82.2797 49.9543 82.0275 48.9324C81.8698 48.3497 81.671 47.779 81.4323 47.2246C81.1283 46.4548 80.8242 45.685 80.4685 44.9476C80.1128 44.2101 79.757 43.6538 79.3623 42.9293C79.1942 43.2657 79.0777 43.5115 78.9483 43.7443C78.8635 43.9035 78.7684 44.0569 78.6638 44.2036C78.4415 44.5234 78.1338 44.7744 77.7758 44.9277C77.4177 45.081 77.0238 45.1304 76.639 45.0705C73.4564 45.0252 70.2673 45.0252 67.0847 45.0123L52.9957 44.967L43.9395 44.9088C42.9562 44.9088 41.9989 44.9088 40.9962 44.857C40.8345 44.857 40.6728 44.857 40.5111 44.8117C40.3561 44.806 40.2065 44.7543 40.0809 44.6634C39.9554 44.5723 39.8596 44.4461 39.806 44.3007C39.5303 43.7157 39.4597 43.0549 39.6055 42.4248C39.779 41.7641 39.9044 41.0918 39.9807 40.413C40.11 39.1905 39.4761 38.7376 38.4153 38.4336C37.221 38.1809 35.998 38.0916 34.7797 38.1684H30.187C30.0187 38.1684 29.8506 38.2071 29.5918 38.233C29.9088 38.4918 30.1482 38.6923 30.394 38.88C31.1508 39.4686 31.9141 40.0378 32.6646 40.6393C33.7707 41.5126 34.8574 42.4118 35.9571 43.2981C36.5328 43.7638 37.1344 44.1972 37.6908 44.6889C37.985 44.9344 38.2251 45.2384 38.3958 45.5815C38.499 45.8195 38.6582 46.0292 38.8597 46.1925C39.0613 46.3558 39.2994 46.4679 39.5538 46.5195C40.3882 46.7459 41.2356 46.9206 42.0765 47.1211L44.8387 47.8003L46.1325 48.1108C47.2696 48.3989 48.3296 48.9333 49.2375 49.6762C50.046 50.3231 50.8611 50.97 51.6438 51.6168C52.0125 51.9112 52.3409 52.2526 52.6206 52.6324C52.8121 52.9405 52.9309 53.2883 52.9678 53.6492C53.0049 54.0101 52.9591 54.3748 52.834 54.7154C52.5521 55.6909 52.1153 56.6147 51.5403 57.4516C50.9741 58.3592 50.2463 59.1551 49.3926 59.7998C49.1471 59.9945 48.8853 60.1675 48.6099 60.3173C48.2148 60.4744 47.7843 60.5209 47.3648 60.4513C46.9453 60.3817 46.5528 60.199 46.2294 59.9227C44.9692 58.9709 43.8575 57.8374 42.9304 56.559C42.51 56.035 42.0571 55.5305 41.6884 54.9741C41.29 54.366 40.9271 53.7354 40.6017 53.0853C40.2523 52.3866 39.9547 51.675 39.6313 50.9635C39.3985 50.4137 39.2109 49.8508 38.9845 49.2946C38.8939 49.0617 38.784 48.8418 38.6934 48.6089C38.5397 48.0595 38.1958 47.5827 37.723 47.2633C37.639 47.218 37.5484 47.1405 37.4707 47.1405C36.9975 47.0939 36.5579 46.8753 36.2352 46.526C35.2326 45.7303 34.2493 44.9152 33.2596 44.113L29.7148 41.2152C28.5568 40.2706 27.4119 39.3262 26.2476 38.4012C26.0739 38.271 25.8629 38.2006 25.6459 38.2006C21.5836 38.2006 17.5234 38.2006 13.4653 38.2006H0.915929C0.398429 38.2006 0.417835 38.2006 0.269054 37.6897C-0.0190975 36.469 -0.0761443 35.2052 0.100866 33.9637C0.201067 32.9575 0.488473 31.9791 0.948272 31.0786C1.04394 30.876 1.09679 30.6557 1.10352 30.4317C1.1488 29.7849 1.10352 29.1961 1.20055 28.5881C1.33251 27.4899 1.66816 26.4259 2.19028 25.4508C2.54823 24.9193 2.94843 24.4174 3.38699 23.95C3.57479 23.7235 3.81895 23.5504 4.0949 23.4483C4.37084 23.346 4.66883 23.3183 4.95889 23.3678C5.33374 23.3905 5.70961 23.3905 6.08445 23.3678C6.19148 23.355 6.29607 23.3267 6.39495 23.2837C6.3432 23.1868 6.3238 23.0574 6.24617 22.9927C5.90332 22.6951 5.53461 22.4299 5.20471 22.1259C4.8748 21.8218 4.24087 21.4789 3.94976 20.9292C3.75571 20.5605 3.52283 20.5475 3.16058 20.7803C2.98592 20.8903 2.81774 21.0197 2.63014 21.1232C2.55931 21.1752 2.47488 21.2054 2.38716 21.2103C2.29944 21.2151 2.21221 21.1943 2.1361 21.1505C2.05999 21.1065 1.99829 21.0415 1.95852 20.9631C1.91875 20.8848 1.90262 20.7966 1.91212 20.7092C1.90457 20.2092 2.05636 19.7199 2.34551 19.312C2.55356 18.9832 2.78487 18.6697 3.03767 18.374C3.31129 18.0694 3.67704 17.8626 4.07914 17.7853C4.37671 17.7142 4.55783 17.8242 4.58371 18.1347C4.59441 18.3256 4.57918 18.5171 4.53842 18.7039C4.48828 18.9526 4.51675 19.2108 4.6199 19.4427C4.72307 19.6744 4.89579 19.8685 5.11414 19.9977C5.72867 20.4246 6.29145 20.9227 6.88657 21.382C7.6887 22.0115 8.49514 22.6325 9.30588 23.245C9.38826 23.2937 9.48184 23.3205 9.57758 23.3225C10.4767 23.3225 11.3824 23.3225 12.288 23.3225C12.3915 23.3225 12.5467 23.2773 12.5726 23.2061C12.5841 23.1534 12.5838 23.0986 12.5714 23.0461C12.5592 22.9935 12.5352 22.9442 12.5014 22.9021C12.1909 22.4946 11.8546 22.1129 11.557 21.7054C10.8713 20.7739 10.1986 19.8403 9.53875 18.9045C9.11182 18.2964 8.67841 17.6947 8.30323 17.0608C7.65636 16.0064 7.00948 14.9391 6.46611 13.8265C6.14001 13.1218 5.85069 12.4006 5.5993 11.6659C5.48285 11.3748 5.35348 11.0902 5.24351 10.7991C5.03684 10.2129 5.02324 9.57589 5.20471 8.98137C5.45701 8.07671 5.82212 7.20739 6.29145 6.39388C6.67311 5.747 6.97714 4.99018 7.41054 4.35625C8.00581 3.49331 8.65392 2.66804 9.35116 1.88519C9.62433 1.60173 9.97558 1.40584 10.3603 1.32241C11.0226 1.16233 11.6981 1.06272 12.3785 1.02483C13.9845 0.916716 15.5975 0.997042 17.1848 1.26417C18.2263 1.43883 19.2742 1.60056 20.3028 1.8399C21.6676 2.15687 23.0196 2.48676 24.3651 2.91369C25.2319 3.16598 26.0664 3.50882 26.9526 3.80638C27.5283 4.01338 28.1106 4.22038 28.6798 4.45325C29.5272 4.77022 30.3616 5.10014 31.1961 5.43652C32.2828 5.88286 33.3631 6.32918 34.4305 6.78846C35.155 7.10543 35.8665 7.43535 36.5781 7.77172L39.6442 9.22719C40.0518 9.42126 40.44 9.64766 40.8475 9.87407C41.255 10.1005 41.7273 10.2945 42.1413 10.5209C42.7363 10.812 43.3314 11.1096 43.9201 11.4136L45.7249 12.3646C46.4752 12.7591 47.2386 13.1537 47.9889 13.5548C48.5582 13.8588 49.1274 14.1564 49.6773 14.4928C50.5764 15.0361 51.4692 15.6054 52.3489 16.1811C53.2287 16.7568 54.0954 17.326 54.9364 17.9212C55.6285 18.3999 56.3077 18.9044 56.987 19.409C57.9637 20.1335 58.9276 20.8645 59.8979 21.6084C61.0105 22.4687 62.0973 23.3549 63.2034 24.1959C64.0056 24.8428 64.827 25.4249 65.6357 26.0395C66.4443 26.6539 67.0911 27.165 67.8221 27.7149C68.553 28.2647 69.3358 28.8404 70.0862 29.4097C70.9595 30.0565 71.8263 30.7034 72.6737 31.3891L75.0606 33.168C75.1444 33.2467 75.233 33.3201 75.3258 33.3879C75.3647 33.3879 75.4422 33.3879 75.5005 33.3879C75.5588 33.3879 75.5005 33.2521 75.4553 33.2133C74.97 32.7604 74.4785 32.3077 73.9803 31.8613C73.1006 31.0721 72.2208 30.2959 71.3411 29.5002L68.8635 27.2167L66.2308 24.8492C65.8686 24.5193 65.5192 24.2023 65.1635 23.8465L65.1958 23.7043ZM53.1769 31.9131C53.2129 31.8558 53.259 31.8054 53.3127 31.7643C53.5125 31.674 53.7013 31.5611 53.8755 31.4279C54.2204 31.114 54.5265 30.76 54.7876 30.3735C55.0474 29.8926 55.2764 29.3956 55.4733 28.8856C55.8593 28.1017 55.9665 27.2095 55.7773 26.3564C55.7021 26.0726 55.5499 25.8152 55.3374 25.6125C55.1181 25.4231 54.8634 25.2787 54.5881 25.1876C54.3129 25.0966 54.0224 25.0608 53.7332 25.0821H50.997L17.5924 25.1467C15.5158 25.1467 13.4394 25.1467 11.3565 25.1467C11.044 25.1667 10.7384 25.2481 10.4573 25.3861C10.2438 25.5098 10.0405 25.6505 9.84926 25.8066L6.69898 27.9348C6.26734 28.2961 5.71511 28.481 5.15296 28.4523C5.09024 28.455 5.029 28.4722 4.97402 28.5024C4.91904 28.5328 4.8718 28.5754 4.83598 28.627C4.61377 29.1192 4.52669 29.6617 4.58371 30.1988C4.65103 30.5538 4.8127 30.8841 5.05173 31.155C5.29076 31.4258 5.59833 31.6274 5.94214 31.7384C6.51778 31.8534 7.10198 31.9204 7.6887 31.9389C9.66167 31.9389 11.6347 31.9389 13.6076 31.9389C14.3839 31.9389 14.6103 32.2106 14.5909 32.9869C14.5973 33.0924 14.5973 33.1983 14.5909 33.3039C14.5775 33.5092 14.4839 33.701 14.33 33.8379C14.1763 33.9747 13.9748 34.0455 13.7693 34.0348H7.88277C7.43641 34.0348 7.23589 33.8407 7.1518 33.3879C7.0677 32.9351 6.99655 32.8446 6.50492 32.8446H4.29908C4.11686 32.8401 3.93468 32.8553 3.75571 32.8899C3.70579 32.903 3.6595 32.9273 3.6203 32.9609C3.5811 32.9945 3.54999 33.0365 3.5293 33.0839C3.36717 33.4482 3.2791 33.8412 3.27021 34.2399C3.26133 34.6385 3.33181 35.035 3.47755 35.4062C3.6188 35.6925 3.83196 35.9371 4.09616 36.1163C4.36036 36.2955 4.66655 36.4029 4.98477 36.4282C7.85041 36.4282 10.7161 36.4282 13.5882 36.4282C14.6114 36.4484 15.6177 36.1648 16.4797 35.6131C17.2928 35.0879 17.8914 34.2896 18.1681 33.3621C18.4237 32.3976 18.4237 31.3832 18.1681 30.4188C18.148 30.3454 18.1127 30.2771 18.0646 30.2182C17.8545 29.981 17.5966 29.7909 17.3079 29.6605C17.0191 29.53 16.706 29.4621 16.3891 29.4615C15.9756 29.4355 15.5608 29.4355 15.1471 29.4615C13.2841 29.4615 11.4147 29.4615 9.54523 29.4226C9.27673 29.4166 9.01241 29.3549 8.76898 29.2414C8.68359 29.1822 8.61097 29.1064 8.55545 29.0185C8.49991 28.9306 8.4626 28.8325 8.4457 28.7299C8.42881 28.6274 8.43269 28.5226 8.45711 28.4214C8.48153 28.3204 8.52598 28.2253 8.58786 28.1418C8.83334 27.9185 9.15524 27.7981 9.487 27.8055C10.9166 27.8055 12.3526 27.8377 13.7887 27.8442H21.8553C22.1658 27.8442 22.2563 27.9412 22.2175 28.2453C22.1939 28.4267 22.1571 28.6062 22.1075 28.7822C21.8811 29.5455 21.6483 30.3088 21.4218 31.0722C21.3183 31.4085 21.1954 31.719 21.0984 32.0812C20.8978 32.8057 20.7038 33.5302 20.5098 34.2483C20.348 34.8499 20.1733 35.4514 20.0181 36.0531C19.9599 36.2665 20.0698 36.3894 20.2833 36.3958C21.1696 36.3958 22.0558 36.3958 22.942 36.3958C23.0584 36.4018 23.1728 36.3639 23.2626 36.2898C23.3524 36.2155 23.4112 36.1103 23.4271 35.9949C23.4595 35.8332 23.4983 35.6715 23.5371 35.5162C23.8735 34.1707 24.2077 32.8294 24.5398 31.4926C24.6627 30.9751 24.7791 30.464 24.9085 29.953C25.0378 29.442 25.1866 28.8727 25.303 28.3294C25.3612 28.0836 25.4907 27.9477 25.73 27.9477C26.7067 27.9477 27.6706 27.9477 28.6474 27.9477C28.9386 27.9477 29.029 28.0771 28.9773 28.3617C28.9255 28.6464 28.8544 28.7628 28.8027 28.9698L28.1557 31.7707C28.0393 32.2688 27.8905 32.7604 27.8001 33.2586C27.64 33.8057 27.6827 34.3922 27.9204 34.9102C28.1581 35.4284 28.5747 35.8433 29.0938 36.0789C29.7221 36.3489 30.4028 36.4748 31.0861 36.4477H38.3052C39.514 36.4813 40.7033 36.1376 41.7078 35.4643C42.3323 35.0624 42.8443 34.508 43.1956 33.8536C43.2566 33.7001 43.3679 33.5717 43.5111 33.4895C43.6545 33.4073 43.8214 33.376 43.9848 33.4009C44.994 33.4009 46.003 33.4009 47.0187 33.4009C47.8402 33.4009 48.6747 33.4009 49.4962 33.4462C50.3177 33.4914 50.4276 33.9573 50.2465 34.6752C50.1366 35.1216 50.0007 35.5614 49.8778 36.0013C49.8261 36.1954 49.8778 36.3312 50.1107 36.3312H53.1445C53.3904 36.3312 53.4939 36.2019 53.5326 35.9625C53.6103 35.5096 53.7073 35.0569 53.8108 34.6105C53.9143 34.1641 54.0178 33.8407 54.1019 33.4462C54.1405 33.2912 54.14 33.1291 54.1005 32.9745C54.061 32.8198 53.9837 32.6774 53.8755 32.5599C53.6232 32.3077 53.4097 32.1265 53.1769 31.9131ZM29.2425 6.60088L29.1907 6.71084C29.2405 6.81358 29.3036 6.90928 29.3784 6.99547C29.8441 7.44181 30.3099 7.88815 30.7885 8.28922C31.623 9.02018 32.4834 9.73174 33.3178 10.4692C34.4563 11.4783 35.5819 12.4939 36.714 13.5031C37.5291 14.234 38.3376 14.965 39.1591 15.6895C39.6895 16.1617 40.2265 16.621 40.7634 17.0932C41.7725 17.9773 42.7794 18.8656 43.7842 19.7583C44.994 20.8257 46.1907 21.9059 47.4132 22.9603C47.5955 23.1129 47.8227 23.2015 48.0601 23.2126C51.3333 23.2471 54.6043 23.2644 57.8732 23.2644C57.9767 23.2644 58.0737 23.1609 58.1772 23.1091C58.1255 23.0121 58.0932 22.8827 58.009 22.818C57.6468 22.5334 57.2716 22.2746 56.9029 21.99C56.256 21.4984 55.6092 20.9809 54.9623 20.4958C54.0308 19.81 53.0863 19.1308 52.1355 18.4711C51.3139 17.9017 50.4988 17.3196 49.6449 16.8085C48.2671 15.9871 46.857 15.2043 45.4467 14.4151C44.6705 13.9817 43.8748 13.5742 43.0857 13.1667C42.1865 12.7009 41.2938 12.2481 40.3882 11.7953C39.4825 11.3425 38.3829 10.7926 37.3737 10.3075C36.507 9.88699 35.6337 9.49239 34.7863 9.09134C34.3657 8.89727 33.9388 8.72909 33.4924 8.53503C32.9685 8.28275 32.451 8.01106 31.927 7.76525C31.2802 7.44181 30.5686 7.1184 29.8894 6.82084C29.6889 6.74968 29.4366 6.68498 29.2102 6.60088H29.2425ZM58.3518 28.5946H58.4619C58.6494 29.2027 58.85 29.8042 59.0311 30.4188C59.251 31.2015 59.4516 31.9908 59.678 32.7799C59.982 33.8343 60.3249 34.8886 60.6095 35.9496C60.6151 36.0131 60.6333 36.0749 60.6632 36.1313C60.6931 36.1877 60.734 36.2376 60.7834 36.278C60.8328 36.3183 60.8898 36.3484 60.951 36.3665C61.0123 36.3845 61.0764 36.3901 61.1399 36.3829C61.7286 36.3829 62.3107 36.3829 62.8994 36.3829C63.0526 36.3876 63.2048 36.3548 63.3423 36.2872C63.4799 36.2194 63.5988 36.1191 63.6886 35.9949C64.8228 34.6105 65.9591 33.2326 67.0976 31.8613C67.5504 31.318 68.0226 30.781 68.4819 30.2441C68.7213 29.9725 68.7342 29.7202 68.4819 29.5455C67.945 29.1574 67.3952 28.7823 66.8454 28.4134C66.7224 28.3359 66.5736 28.2712 66.4378 28.4134C65.7392 29.2414 65.034 30.0673 64.3225 30.891C64.0314 31.2338 63.7209 31.5379 63.4104 31.8873C63.2163 32.0812 63.0741 32.0683 63.0093 31.8873C62.9447 31.7061 62.8347 31.3632 62.77 31.098C62.4725 29.9466 62.1813 28.7887 61.8838 27.6372C61.8521 27.4683 61.7752 27.3111 61.6614 27.1825C61.5474 27.0537 61.4008 26.9583 61.2369 26.9062C60.8446 26.7613 60.4761 26.5585 60.1437 26.3047C59.7685 26.0265 59.4645 25.6578 59.0958 25.3603C58.9133 25.202 58.6883 25.1009 58.4489 25.0691C57.8603 25.0238 57.2716 25.0691 56.6894 25.0691C56.4242 25.0691 56.3337 25.2438 56.4954 25.4508C56.6818 25.7253 56.8086 26.0356 56.8676 26.3621C56.9267 26.6886 56.9167 27.0238 56.8382 27.3462C56.7048 28.239 56.4502 29.1096 56.0814 29.9337C55.8433 30.5265 55.4217 31.0276 54.8781 31.3632L54.3348 31.719C54.4158 31.8423 54.509 31.9572 54.6129 32.0618C54.8588 32.2682 55.0313 32.5485 55.1047 32.8609C55.1782 33.1734 55.1486 33.5012 55.0205 33.7954C54.8199 34.4812 54.6 35.1669 54.3736 35.8525C54.2895 36.1566 54.3736 36.2859 54.6777 36.3053C54.9816 36.3247 55.3245 36.3053 55.6544 36.3053C55.771 36.3017 55.8825 36.2568 55.969 36.1786C56.0554 36.1004 56.1114 35.994 56.1267 35.8783C56.3271 35.154 56.5407 34.4423 56.7735 33.7178C57.0193 32.851 57.2652 31.9842 57.5174 31.1303C57.7438 30.3799 57.9702 29.6231 58.2031 28.8727C58.2194 28.7643 58.2476 28.658 58.2872 28.5558L58.3518 28.5946ZM36.0865 23.329C36.1918 23.3421 36.2982 23.3421 36.4035 23.329C36.5003 23.284 36.5916 23.2275 36.6751 23.1608C36.6276 23.0666 36.5641 22.9813 36.4875 22.9086C36.0735 22.5981 35.6401 22.3069 35.1937 22.003L32.8716 20.3017C31.3578 19.2214 29.8377 18.1476 28.3434 17.0673C27.6965 16.5886 27.0496 16.084 26.4028 15.6053L23.0391 13.1926L20.6326 11.4719C19.5394 10.6827 18.4591 9.88699 17.3983 9.09781L14.6167 7.09251C13.6981 6.44564 12.7861 5.75348 11.8611 5.10661C11.7866 5.06011 11.7034 5.02927 11.6168 5.01592C11.53 5.00257 11.4415 5.00702 11.3565 5.02899C11.0781 5.19917 10.8447 5.43372 10.6758 5.71289C10.507 5.99206 10.4077 6.30766 10.3862 6.63322C10.4117 6.79439 10.4972 6.93996 10.6255 7.04075C10.9684 7.2995 11.3435 7.51943 11.6929 7.76525C12.6114 8.41213 13.517 9.05899 14.4356 9.66706C15.3541 10.2751 16.428 11.0061 17.4177 11.6788C18.265 12.2545 19.1061 12.8497 19.947 13.4319C20.7879 14.014 21.577 14.5186 22.3792 15.0685C23.026 15.5083 23.673 15.9612 24.3198 16.3945L28.5568 19.2732C29.2942 19.7778 30.0187 20.2952 30.7563 20.8063C31.7007 21.4531 32.6386 22.0999 33.6025 22.7469C33.9398 23.0527 34.3657 23.2431 34.8186 23.2903C35.1808 23.2903 35.6013 23.2967 36.0217 23.2967L36.0865 23.329ZM31.0797 23.329V23.3808L31.4419 23.2191C31.3708 23.1027 31.3255 22.9538 31.2285 22.8827C30.7432 22.5269 30.2388 22.1905 29.7406 21.8477C28.5892 21.0585 27.4378 20.2564 26.2863 19.4737C25.4065 18.8721 24.5203 18.2835 23.6406 17.6883C23.1361 17.3455 22.6509 16.9961 22.1463 16.6533C21.2665 16.0582 20.3803 15.4696 19.507 14.868L15.9364 12.3839C15.2313 11.9053 14.5132 11.4395 13.8081 10.9608L9.92688 8.3345C9.51935 8.05635 9.20886 8.11457 8.98245 8.54798C8.79053 8.93256 8.62625 9.3303 8.49082 9.7382C8.44769 9.84206 8.44727 9.95875 8.48966 10.0629C8.53205 10.1671 8.61383 10.2503 8.71723 10.2946C9.27354 10.6309 9.81045 11.0061 10.3538 11.3619L11.7511 12.274C12.6502 12.8432 13.5559 13.3996 14.4486 13.9753C15.2377 14.4733 16.014 14.9908 16.7967 15.4889C17.9352 16.2199 19.0801 16.9379 20.2122 17.6689L24.0934 20.1982C25.536 21.1297 26.9785 22.0677 28.4275 22.9927C28.7277 23.2039 29.0892 23.3108 29.4561 23.2967C29.9929 23.2644 30.504 23.2967 31.015 23.2967L31.0797 23.329ZM58.7206 40.8463C58.7206 41.3251 58.7206 41.8038 58.7206 42.2889C58.7206 42.6124 58.85 42.7611 59.1605 42.7676C59.6521 42.7676 60.1437 42.7676 60.6288 42.7676C61.0041 42.7676 61.1076 42.6382 61.1076 42.276C61.1076 41.9137 61.1076 41.6292 61.1076 41.2927C61.1076 40.9564 61.2369 40.9369 61.5086 41.0533C61.6315 41.1051 61.7415 41.1828 61.8644 41.2345C62.3883 41.4544 62.9253 41.6679 63.4493 41.8813C63.9732 42.0949 64.633 42.4377 65.2346 42.69C65.4576 42.7801 65.6934 42.8348 65.9332 42.8517C66.2826 42.8517 66.3861 42.7677 66.3925 42.4183C66.3925 41.4673 66.3925 40.5165 66.3925 39.5656C66.3925 39.2292 66.2955 39.1257 65.9655 39.1192C65.4546 39.1192 64.9435 39.1192 64.439 39.1192C64.1155 39.1192 64.0314 39.2227 64.0314 39.5461C64.0314 39.8696 64.0314 40.2577 64.0314 40.6135C64.0314 40.9693 63.9344 40.9951 63.6239 40.8463C63.184 40.6329 62.7312 40.4389 62.2914 40.2319C61.6445 39.9214 60.9976 39.585 60.3507 39.2874C59.983 39.0764 59.5709 38.9545 59.1475 38.9316C58.8693 38.9316 58.7658 39.0416 58.7658 39.3004L58.7206 40.8463ZM72.2467 42.0625C71.671 42.0625 71.0888 42.0625 70.5131 42.0625C70.4416 42.0628 70.3709 42.0474 70.3059 42.0172C70.2411 41.987 70.1838 41.9428 70.1379 41.8879C69.9633 41.4933 70.1379 41.241 70.5584 41.241C71.5998 41.241 72.6348 41.241 73.6763 41.241C73.9415 41.241 74.0385 41.1439 74.0515 40.8916C74.0515 40.4971 73.9998 40.4065 73.5987 40.4065C72.6155 40.4065 71.658 40.4065 70.6554 40.4065C70.5316 40.4225 70.4058 40.4114 70.2867 40.3742C70.2374 40.3455 70.195 40.3063 70.1626 40.2593C70.1301 40.2123 70.1085 40.1588 70.0991 40.1025C70.0991 40.0313 70.2156 39.9279 70.3061 39.8826C70.4 39.8627 70.4969 39.8627 70.5907 39.8826H73.7604C73.9674 39.8826 74.1873 39.8826 74.2326 39.6045C74.2779 39.3262 74.058 39.1839 73.8315 39.1386C73.7456 39.129 73.6588 39.129 73.5728 39.1386H67.8027C67.434 39.1386 67.3499 39.2421 67.3434 39.6109C67.3434 40.1413 67.3434 40.6717 67.3434 41.2021C67.3434 41.5839 67.3434 41.9719 67.3434 42.3537C67.3434 42.7353 67.4598 42.787 67.8092 42.7806H70.6296C71.5092 42.7806 72.3955 42.7806 73.2753 42.7806C73.5337 42.7892 73.7918 42.7543 74.0385 42.6771C74.1486 42.6318 74.2132 42.4119 74.2391 42.2631C74.2391 42.2242 74.0321 42.1014 73.9157 42.0949C73.3658 42.0625 72.8031 42.0754 72.2467 42.0754V42.0625ZM69.6592 36.3377C70.0538 36.3377 70.4484 36.3377 70.843 36.3377C70.9299 36.3348 71.0155 36.3145 71.0945 36.2777C71.1734 36.2411 71.244 36.1888 71.3023 36.1242C71.4429 35.8322 71.5534 35.5265 71.6322 35.2121C71.8716 34.4035 72.098 33.5949 72.3503 32.7863C72.4005 32.6932 72.4146 32.5848 72.3894 32.4821C72.3643 32.3792 72.302 32.2895 72.2144 32.23C71.5092 31.7449 70.8171 31.2468 70.1121 30.7681C69.8339 30.5805 69.6528 30.6711 69.5751 31.0075C69.5169 31.2274 69.4911 31.4602 69.4263 31.6543C69.3035 32.0748 69.1482 32.4888 69.0253 32.9092C68.9024 33.3297 68.7666 33.8149 68.6436 34.2676C68.566 34.533 68.5014 34.7982 68.4172 35.0698C68.3331 35.3415 68.2167 35.6455 68.1456 35.9431C68.0744 36.2407 68.1973 36.3118 68.4495 36.3118L69.6592 36.3377ZM71.8586 25.0238H70.83C70.3967 25.0238 69.9633 25.0238 69.5363 25.0238C69.3999 25.0239 69.267 25.0672 69.1566 25.1473C69.0463 25.2275 68.9641 25.3405 68.9218 25.4702C68.9129 25.5504 68.921 25.6316 68.9455 25.7085C68.97 25.7854 69.0104 25.8563 69.0641 25.9165C69.4522 26.3047 69.8727 26.6539 70.2738 27.0292L72.7836 29.4031C73.0812 29.6943 73.1976 29.6813 73.3271 29.2673C73.5534 28.5364 73.7604 27.799 73.9739 27.0615C74.1162 26.5504 74.2262 26.0395 74.3685 25.5284C74.4785 25.1403 74.4138 25.0238 74.0127 25.0238H71.8586ZM54.9882 39.0739H53.2351C53.1865 39.0686 53.1374 39.0745 53.0913 39.0909C53.0454 39.1073 53.0037 39.134 52.9694 39.1689C52.9352 39.2037 52.9093 39.2459 52.8937 39.2922C52.878 39.3385 52.8732 39.3878 52.8793 39.4362C52.8742 39.4825 52.8795 39.5293 52.8949 39.5732C52.9104 39.6172 52.9355 39.657 52.9684 39.69C53.0013 39.7229 53.0412 39.7481 53.0852 39.7635C53.1291 39.7789 53.1758 39.7841 53.2221 39.7791C53.3774 39.7791 53.5262 39.7791 53.6814 39.7791C54.0049 39.7791 54.1343 39.9148 54.1407 40.2384C54.1407 40.6696 54.1407 41.1009 54.1407 41.5321C54.1407 41.8749 54.0243 41.9784 53.688 41.9784H53.3127C53.0863 41.9784 52.9052 42.0237 52.8858 42.2889C52.8838 42.3447 52.8936 42.4002 52.9146 42.4519C52.9356 42.5035 52.9674 42.5501 53.0076 42.5886C53.048 42.6272 53.0961 42.6566 53.1486 42.6753C53.2012 42.6938 53.2571 42.701 53.3127 42.6964H54.4059H56.6829H57.5433C57.5939 42.7006 57.6448 42.6935 57.6923 42.6756C57.7398 42.6578 57.7828 42.6296 57.8181 42.593C57.8533 42.5565 57.8801 42.5126 57.8963 42.4645C57.9126 42.4164 57.918 42.3652 57.912 42.3148C57.912 42.0561 57.7503 42.0172 57.5498 42.0108H57.2328C56.7864 42.0108 56.7024 41.9137 56.6894 41.4609C56.6894 41.2021 56.6894 40.9369 56.6894 40.6782C56.6894 39.8502 56.6894 39.8373 57.5109 39.8049C57.8409 39.8049 58.0284 39.5656 57.8862 39.2938C57.7741 39.1655 57.6161 39.0865 57.4463 39.0739C56.6053 39.0804 55.7838 39.087 54.9687 39.087L54.9882 39.0739ZM48.7717 42.7611H51.5985C51.6899 42.7746 51.783 42.7527 51.8588 42.6998C51.9345 42.6469 51.9872 42.567 52.006 42.4765C52.1548 41.862 52.006 41.7067 51.3591 41.862L51.191 41.9073C50.262 42.117 49.3092 42.2018 48.3577 42.1596C48.0084 42.1596 47.9307 42.0366 47.9307 41.6874C47.9307 41.0404 47.9307 40.3224 47.9307 39.6367C47.9307 39.268 47.8467 39.1774 47.4714 39.171H45.8607C45.6279 39.171 45.4985 39.268 45.4985 39.5139C45.4985 39.7596 45.4985 40.1607 45.4985 40.4647C45.4985 41.1115 45.4985 41.6938 45.4985 42.3084C45.4985 42.7029 45.602 42.7741 45.9837 42.7741L48.7717 42.7611Z" fill="url(#paint0_linear_466_1087)"/>
<path d="M35.2772 33.6594H32.7414C32.6555 33.6692 32.5687 33.6692 32.4828 33.6594C31.7388 33.5301 31.4736 33.2519 31.59 32.5339C31.7033 31.9614 31.8479 31.3956 32.0235 30.8391C32.1334 30.4251 32.2887 30.0175 32.3727 29.5906C32.4728 29.1278 32.6964 28.7009 33.0196 28.3551C33.1665 28.2021 33.3451 28.0834 33.543 28.0074C33.7409 27.9313 33.9531 27.8999 34.1646 27.9151H38.6927C38.958 27.9151 39.2166 27.9151 39.4755 27.9151C40.8597 27.9733 41.0603 28.5621 40.7691 29.6941C40.5169 30.5803 40.1741 31.4406 39.9024 32.3203C39.8049 32.6516 39.616 32.9486 39.3575 33.1776C39.0989 33.4064 38.7811 33.5576 38.4405 33.6141C38.1301 33.679 37.8128 33.7051 37.496 33.6918C36.7586 33.6918 36.0147 33.6918 35.2772 33.6918V33.6594Z" fill="url(#paint1_linear_466_1087)"/>
<path d="M48.5133 27.8382H51.3984C51.5419 27.8321 51.6834 27.8739 51.8005 27.957C51.9176 28.0402 52.0037 28.16 52.0452 28.2974C52.0969 28.6657 52.0533 29.041 51.9186 29.3876C51.7838 29.7342 51.5623 30.0404 51.2754 30.2768C51.0738 30.3764 50.8532 30.4316 50.6286 30.4386C49.1343 30.4386 47.6466 30.4386 46.1587 30.4386H44.9749C44.548 30.4386 44.4186 30.3092 44.5285 29.8952C44.6838 29.2484 44.8779 28.6792 45.0784 28.0775C45.1123 28.0206 45.1594 27.9728 45.2157 27.9379C45.272 27.903 45.3358 27.8821 45.4018 27.877C45.9906 27.877 46.5727 27.877 47.1613 27.877H48.5133V27.8382Z" fill="url(#paint2_linear_466_1087)"/>
</g>
<defs>
<linearGradient id="paint0_linear_466_1087" x1="0.000305176" y1="31.5497" x2="84.2184" y2="31.5497" gradientUnits="userSpaceOnUse">
<stop stop-color="#83E617"/>
<stop offset="1" stop-color="#83E617" stop-opacity="0.4"/>
</linearGradient>
<linearGradient id="paint1_linear_466_1087" x1="31.5637" y1="30.8033" x2="40.8845" y2="30.8033" gradientUnits="userSpaceOnUse">
<stop stop-color="#83E617"/>
<stop offset="1" stop-color="#83E617" stop-opacity="0.4"/>
</linearGradient>
<linearGradient id="paint2_linear_466_1087" x1="44.4913" y1="29.1381" x2="52.0664" y2="29.1381" gradientUnits="userSpaceOnUse">
<stop stop-color="#83E617"/>
<stop offset="1" stop-color="#83E617" stop-opacity="0.4"/>
</linearGradient>
<clipPath id="clip0_466_1087">
<rect width="84.2832" height="62.9315" fill="white" transform="translate(0 0.258301)"/>
</clipPath>
</defs>
</svg>
