<svg width="138" height="25" viewBox="0 0 138 25" fill="none" xmlns="http://www.w3.org/2000/svg">
<g clip-path="url(#clip0_466_866)">
<path d="M1.16079 17.0788C1.16859 16.997 1.18288 16.915 1.18288 16.8319C1.18548 13.7652 1.18548 10.6984 1.18678 7.63171C1.18678 7.56154 1.18678 7.49136 1.18678 7.38611C1.36091 7.48227 1.50125 7.55764 1.6377 7.6369C2.56551 8.17228 3.48943 8.71027 4.41984 9.24044C4.57449 9.3288 4.63165 9.42756 4.63165 9.6082C4.62516 11.7809 4.63165 13.9537 4.62516 16.1262C4.62516 16.2939 4.67974 16.3836 4.82528 16.4681C6.33656 17.3322 7.84263 18.2055 9.35001 19.076C9.41238 19.1111 9.47605 19.1437 9.57611 19.197V5.78257C9.3864 5.88913 9.22916 5.97489 9.07322 6.06456C7.84913 6.77146 6.62503 7.47707 5.40224 8.18657C5.29308 8.25025 5.20991 8.22427 5.11506 8.16968C4.15735 7.61482 3.19835 7.06254 2.24065 6.50768C2.1159 6.4349 1.99115 6.36213 1.84042 6.27377C1.90148 6.22959 1.93787 6.1971 1.97816 6.17371C5.03968 4.40644 8.09863 2.63917 11.1563 0.868004C11.2823 0.795234 11.3758 0.80433 11.498 0.875801C14.2724 2.48324 17.0493 4.08548 19.8249 5.69031C20.1433 5.87483 20.4604 6.06066 20.8125 6.26467C20.6956 6.33614 20.6072 6.39462 20.5163 6.4466C19.517 7.02226 18.5151 7.59532 17.5184 8.17489C17.4067 8.23985 17.3235 8.23466 17.2196 8.17489C16.037 7.49007 14.8532 6.80785 13.6695 6.12564C13.4771 6.01518 13.2848 5.90602 13.0678 5.78387V19.2021C13.3381 19.0475 13.5719 18.9176 13.8033 18.7838C15.1443 18.0105 16.4853 17.2334 17.829 16.4642C17.9589 16.3901 18.0058 16.303 18.0044 16.1549C18.0005 14.003 18.0058 11.8511 17.9967 9.69916C17.9967 9.46135 18.0642 9.33141 18.276 9.21185C19.2909 8.64269 20.2954 8.05404 21.3037 7.47188C21.3427 7.44848 21.3843 7.42899 21.4506 7.39391C21.4571 7.46667 21.4649 7.51995 21.4649 7.57323C21.4662 11.1078 21.4662 14.6423 21.4702 18.1768C21.4702 18.3081 21.4272 18.3848 21.3142 18.4498C18.7971 19.8999 16.2813 21.3515 13.7655 22.8043C12.9508 23.2746 12.14 23.7489 11.3265 24.2219H11.2953C11.2537 24.192 11.2147 24.157 11.1706 24.131C10.0959 23.5086 9.02125 22.8874 7.94529 22.2676C5.7414 20.9941 3.53621 19.7219 1.33232 18.4458C1.26735 18.4082 1.21667 18.3458 1.15949 18.2964C1.15949 17.8909 1.15949 17.4856 1.15949 17.0801L1.16079 17.0788Z" fill="url(#paint0_linear_466_866)"/>
<path d="M137.231 14.8956C137.195 15.0481 137.094 15.1243 136.929 15.1243C133.883 15.1243 130.839 15.1243 127.793 15.1243C127.564 15.1243 127.558 15.1243 127.568 15.3557C127.603 16.2938 127.82 17.1788 128.39 17.9429C128.959 18.7044 129.726 19.0981 130.68 19.0969C131.015 19.0969 131.356 19.0734 131.686 19.015C132.532 18.8643 133.103 18.3535 133.442 17.5803C133.523 17.3958 133.624 17.3451 133.817 17.3465C134.814 17.3556 135.812 17.3503 136.811 17.3503H137.036C137.019 17.4362 137.014 17.5011 136.992 17.5609C136.168 19.9766 134.511 21.4138 131.975 21.7971C130.769 21.9804 129.569 21.94 128.4 21.5645C126.551 20.9693 125.339 19.705 124.632 17.926C124.287 17.0554 124.109 16.1457 124.057 15.2102C123.973 13.7457 124.124 12.3123 124.662 10.9414C125.546 8.69204 127.18 7.35359 129.582 6.99624C130.952 6.79222 132.299 6.88448 133.592 7.41336C135.002 7.99032 135.965 9.0247 136.571 10.406C136.942 11.2559 137.141 12.1499 137.208 13.0751C137.212 13.1102 137.223 13.1453 137.229 13.1817V14.897L137.231 14.8956ZM127.639 12.8802C127.705 12.8867 127.736 12.8932 127.766 12.8932C129.705 12.8932 131.642 12.8932 133.579 12.8958C133.695 12.8958 133.745 12.8555 133.73 12.7411C133.687 12.4124 133.667 12.0785 133.596 11.7562C133.44 11.048 133.119 10.4281 132.519 9.98631C132.096 9.67573 131.613 9.53019 131.096 9.4912C130.425 9.44053 129.772 9.51589 129.187 9.87065C128.065 10.5516 127.8 11.6795 127.639 12.8815V12.8802Z" fill="url(#paint1_linear_466_866)"/>
<path d="M91.2378 18.4474C91.4366 17.5599 91.6159 16.701 91.8226 15.8485C92.4528 13.2392 93.0921 10.6312 93.7276 8.02316C93.7653 7.86723 93.8068 7.71129 93.8407 7.55405C93.8627 7.4527 93.9082 7.40462 94.0199 7.40462C95.0803 7.40722 96.1407 7.40851 97.201 7.40462C97.3661 7.40462 97.3439 7.48648 97.3114 7.59434C96.9412 8.83402 96.5721 10.0737 96.2043 11.3134C95.1751 14.7738 94.146 18.233 93.1234 21.6948C93.0778 21.8481 93.0115 21.8976 92.8543 21.8962C91.7367 21.8897 90.6192 21.891 89.5018 21.8962C89.3614 21.8962 89.3068 21.8534 89.2743 21.7143C88.6012 18.8321 87.9203 15.9512 87.2458 13.0689C87.1029 12.4583 86.9794 11.841 86.8547 11.2627C86.6975 12.0125 86.5558 12.8013 86.3674 13.5783C85.8554 15.6926 85.3239 17.803 84.7976 19.9145C84.6482 20.5136 84.4897 21.1114 84.3415 21.7117C84.309 21.8417 84.2583 21.8976 84.1128 21.8976C82.9692 21.891 81.8258 21.8924 80.6822 21.8976C80.5484 21.8976 80.4926 21.852 80.4575 21.726C79.6791 18.9608 78.898 16.1967 78.1171 13.4328C77.6558 11.8033 77.1984 10.1738 76.7293 8.54684C76.5695 7.99067 76.1861 7.63982 75.6351 7.47219C75.5961 7.4605 75.5559 7.4488 75.5143 7.41502C75.5663 7.41241 75.6183 7.40851 75.669 7.40851C77.0828 7.40851 78.4965 7.41112 79.9103 7.40462C80.0677 7.40462 80.1261 7.4605 80.1599 7.60733C80.6367 9.66568 81.1305 11.7214 81.5958 13.7824C81.931 15.2664 82.2325 16.7568 82.5483 18.2447C82.5782 18.3864 82.599 18.5294 82.6457 18.6723C82.7134 18.3435 82.773 18.0134 82.8484 17.6873C83.185 16.2357 83.5111 14.7817 83.8673 13.334C84.3389 11.4174 84.838 9.50845 85.3201 7.59434C85.3564 7.4527 85.4162 7.40332 85.563 7.40332C86.535 7.40982 87.5071 7.40851 88.479 7.40332C88.6128 7.40332 88.6675 7.4462 88.6999 7.57745C89.4329 10.6429 90.1736 13.707 90.9025 16.7737C91.0273 17.2987 91.1091 17.8329 91.2118 18.3629C91.2157 18.3825 91.2235 18.4007 91.2391 18.4474H91.2378Z" fill="url(#paint2_linear_466_866)"/>
<path d="M62.4766 3.00415C62.5521 3.00415 62.6287 3.00415 62.704 3.00415C64.0711 3.00415 65.4381 3.00415 66.8051 3.00415C67.026 3.00415 67.0274 3.00415 67.0274 3.23156C67.0274 5.18076 67.0274 7.12995 67.0274 9.07914V9.26107C67.0391 9.26627 67.0508 9.27146 67.0624 9.27667C67.1014 9.22599 67.1391 9.1753 67.1781 9.12462C67.95 8.07467 68.9921 7.48601 70.2734 7.30668C71.1155 7.18843 71.9536 7.20661 72.7748 7.44702C74.3187 7.89664 75.2659 8.9427 75.7272 10.4553C75.9261 11.1102 76.0196 11.782 76.0196 12.4681C76.0196 15.5296 76.0196 18.5912 76.0196 21.6528C76.0196 21.8121 75.9408 21.8919 75.7832 21.8919C74.7852 21.8919 73.7871 21.8919 72.7892 21.8919C72.5475 21.8919 72.5475 21.8919 72.5475 21.6528C72.5475 18.8459 72.5475 16.039 72.5475 13.2322C72.5475 12.7579 72.5098 12.2875 72.3824 11.8288C72.0797 10.7425 71.2974 10.1343 70.1669 10.133C69.8212 10.133 69.4678 10.1473 69.1312 10.2188C68.1397 10.4293 67.5757 11.0998 67.2872 12.0355C67.0781 12.7176 67.026 13.4206 67.026 14.1302C67.026 16.6043 67.026 19.0785 67.026 21.5527C67.026 21.6151 67.0234 21.6775 67.026 21.7398C67.0312 21.8503 66.987 21.9074 66.8702 21.8931C66.8494 21.8905 66.8286 21.8931 66.8078 21.8931C65.789 21.8931 64.7702 21.8931 63.7515 21.8931C63.6007 21.8931 63.5252 21.82 63.5252 21.6735C63.5252 21.2421 63.5252 20.8107 63.5252 20.3793C63.5252 14.9788 63.5188 9.57814 63.5343 4.17758C63.537 3.49015 63.0471 3.09122 62.5299 3.04964C62.5117 3.04834 62.4923 3.04184 62.4741 3.03794C62.4741 3.02755 62.4741 3.01715 62.4753 3.00676L62.4766 3.00415Z" fill="url(#paint3_linear_466_866)"/>
<path d="M106.194 20.1017C105.477 21.2024 104.399 21.6728 103.144 21.8286C102.204 21.9456 101.269 21.9209 100.348 21.6702C98.6262 21.1998 97.4191 19.7808 97.2385 18.0096C97.1488 17.1311 97.2294 16.2748 97.6036 15.4653C98.0493 14.5036 98.8121 13.8695 99.7607 13.4407C100.637 13.0443 101.563 12.8221 102.517 12.774C103.653 12.7156 104.791 12.722 105.928 12.7026C106.161 12.6986 106.166 12.7026 106.161 12.4622C106.151 12.032 106.174 11.5954 106.114 11.1718C105.988 10.2622 105.485 9.75407 104.558 9.55786C103.931 9.42531 103.299 9.4344 102.673 9.58255C101.998 9.74239 101.559 10.1582 101.351 10.8183C101.314 10.9366 101.282 11.0574 101.254 11.1796C101.198 11.4083 101.199 11.4096 100.973 11.4096C100.017 11.4096 99.0603 11.4096 98.1039 11.4096C98.0623 11.4096 98.0116 11.4226 97.9817 11.4044C97.9402 11.3784 97.8804 11.3238 97.8843 11.2887C97.9713 10.422 98.2169 9.60984 98.7367 8.89643C99.3461 8.05958 100.18 7.54889 101.155 7.25391C102.237 6.92645 103.347 6.86537 104.47 6.93035C105.215 6.97322 105.947 7.07849 106.656 7.31629C107.52 7.60606 108.259 8.07647 108.789 8.83535C109.204 9.42791 109.426 10.0945 109.509 10.8066C109.555 11.1978 109.573 11.5941 109.574 11.9878C109.581 14.2437 109.563 16.4996 109.587 18.7542C109.596 19.6456 109.693 20.5357 109.754 21.4259C109.76 21.5285 109.737 21.574 109.634 21.5726C109.603 21.5726 109.572 21.5726 109.54 21.5726C108.579 21.5726 107.617 21.5688 106.656 21.5766C106.485 21.5766 106.396 21.5324 106.372 21.3544C106.319 20.9386 106.255 20.524 106.194 20.1043V20.1017ZM106.163 15.4926C106.163 15.3574 106.155 15.2222 106.166 15.0871C106.176 14.9442 106.124 14.8986 105.98 14.9C105.356 14.9064 104.731 14.883 104.109 14.9091C103.617 14.9299 103.129 15 102.64 15.0624C102.477 15.0832 102.317 15.139 102.16 15.1936C101.301 15.4912 100.792 16.0721 100.726 16.9999C100.659 17.9485 101.05 18.8867 102.15 19.2128C102.653 19.3623 103.167 19.3403 103.681 19.2843C104.844 19.1596 105.633 18.4878 105.945 17.3572C106.114 16.7465 106.155 16.1202 106.162 15.4912L106.163 15.4926Z" fill="url(#paint4_linear_466_866)"/>
<path d="M42.8417 15.1234C41.3083 15.1234 39.7749 15.1234 38.2415 15.1234C38.031 15.1234 38.0245 15.1234 38.035 15.3261C38.0882 16.2981 38.2987 17.222 38.9146 18.0069C39.467 18.7113 40.2011 19.0816 41.0952 19.0958C41.4461 19.1011 41.8021 19.0764 42.1478 19.0166C42.9872 18.8723 43.5642 18.3734 43.9047 17.6054C43.9942 17.4026 44.1073 17.3428 44.3256 17.3454C45.3288 17.3585 46.332 17.3507 47.3352 17.352C47.5184 17.352 47.5314 17.3676 47.4742 17.5378C46.9973 18.9828 46.176 20.1667 44.8558 20.9684C44.0892 21.4336 43.2497 21.6974 42.3661 21.8156C41.433 21.9391 40.5001 21.9391 39.5761 21.7481C37.4384 21.3036 35.9844 20.0367 35.1515 18.0368C34.7252 17.0128 34.542 15.9395 34.5173 14.831C34.49 13.6056 34.6264 12.405 35.0254 11.2432C35.5348 9.75792 36.4041 8.54812 37.7881 7.75414C38.5743 7.30323 39.428 7.05893 40.3272 6.96017C41.3186 6.85102 42.2984 6.8939 43.264 7.146C45.1664 7.64369 46.436 8.84699 47.1493 10.6597C47.4924 11.533 47.6718 12.4426 47.6991 13.3795C47.7134 13.8824 47.7029 14.3866 47.6964 14.8895C47.6938 15.1222 47.6847 15.1247 47.4548 15.1247C45.9162 15.1247 44.3777 15.1247 42.8391 15.1247L42.8417 15.1234ZM41.1602 12.8948C42.1062 12.8948 43.0508 12.8948 43.9969 12.8948C44.1995 12.8948 44.2191 12.8871 44.1944 12.6818C44.1502 12.3114 44.1177 11.9358 44.0241 11.5772C43.8111 10.7702 43.3796 10.1153 42.596 9.75012C42.0399 9.49153 41.4512 9.43955 40.8456 9.50192C39.823 9.60719 39.0746 10.1062 38.6105 11.0249C38.3468 11.546 38.2207 12.106 38.1441 12.6804C38.1168 12.8844 38.1193 12.8935 38.3248 12.8935C39.2708 12.8935 40.2154 12.8935 41.1614 12.8935L41.1602 12.8948Z" fill="url(#paint5_linear_466_866)"/>
<path d="M60.1701 11.9107C59.6607 11.9107 59.1513 11.9067 58.6418 11.9132C58.5197 11.9146 58.4704 11.8704 58.4405 11.7547C58.2936 11.1804 58.0493 10.6606 57.5828 10.2681C57.1605 9.91338 56.6602 9.75745 56.1222 9.70936C55.2555 9.63139 54.4706 9.81982 53.8222 10.4371C53.3817 10.8568 53.1035 11.3753 52.9152 11.9445C52.585 12.9463 52.5266 13.9781 52.5864 15.0242C52.6254 15.6908 52.7202 16.347 52.9424 16.9786C53.1685 17.623 53.4999 18.1988 54.0612 18.612C54.6369 19.0356 55.2919 19.1695 55.9936 19.1162C57.2086 19.0214 57.9479 18.3223 58.3767 17.232C58.4418 17.0673 58.5643 16.9851 58.7446 16.9851C59.7217 16.9851 60.6989 16.9851 61.6762 16.9851C61.9048 16.9851 61.9126 16.9942 61.8581 17.2124C61.5995 18.2455 61.1667 19.1928 60.4508 19.9947C59.6672 20.873 58.686 21.4202 57.5464 21.6813C56.1794 21.9945 54.8124 21.9932 53.4635 21.5956C51.6273 21.0537 50.3825 19.8478 49.6548 18.0922C49.3091 17.2605 49.1311 16.3886 49.0519 15.492C48.9258 14.0547 49.0519 12.6474 49.556 11.2895C50.1668 9.64829 51.1959 8.36182 52.7878 7.57175C53.561 7.18841 54.3835 6.98959 55.2438 6.92722C56.3574 6.84664 57.4503 6.9467 58.4898 7.36384C60.4417 8.14741 61.5488 9.6145 61.8866 11.6767C61.9217 11.8938 61.9009 11.9093 61.6853 11.9093C61.181 11.9093 60.6769 11.9093 60.1727 11.9093L60.1701 11.9107Z" fill="url(#paint6_linear_466_866)"/>
<path d="M109.261 7.406H109.43C110.839 7.406 112.247 7.4086 113.656 7.4021C113.816 7.4021 113.881 7.45407 113.924 7.60612C114.772 10.6144 115.633 13.6213 116.476 16.6309C116.656 17.2702 116.784 17.9239 116.938 18.5697C116.942 18.5943 116.953 18.6165 116.958 18.6333C117.138 17.933 117.295 17.2234 117.499 16.5283C118.024 14.7609 118.566 12.9976 119.111 11.2368C119.483 10.0361 119.874 8.8419 120.257 7.6438C120.309 7.48441 120.419 7.40427 120.59 7.4034C121.593 7.4034 122.596 7.4034 123.599 7.4034C123.666 7.4034 123.731 7.41119 123.817 7.41639C123.801 7.48266 123.793 7.53204 123.776 7.57882C122.695 10.6339 121.613 13.6889 120.53 16.7453C119.944 18.4007 119.357 20.0549 118.775 21.7118C118.727 21.8469 118.664 21.8937 118.519 21.8937C117.406 21.8872 116.294 21.8885 115.181 21.8937C115.053 21.8937 114.989 21.8573 114.946 21.73C114.015 18.9634 113.077 16.1981 112.142 13.4342C111.58 11.7709 111.023 10.1063 110.448 8.44686C110.279 7.95827 109.916 7.63731 109.42 7.47876C109.366 7.46187 109.311 7.44888 109.257 7.43328C109.257 7.42419 109.259 7.4138 109.26 7.4047L109.261 7.406Z" fill="url(#paint7_linear_466_866)"/>
<path d="M29.2863 7.37458C30.6637 7.37458 32.0399 7.37458 33.4173 7.37458C33.6355 7.37458 33.6368 7.37458 33.6368 7.5877C33.6368 8.35179 33.6329 9.11586 33.6394 9.87995C33.6408 10.032 33.5901 10.0736 33.4419 10.0723C32.5998 10.0671 31.7578 10.0723 30.9171 10.0671C30.7781 10.0671 30.7274 10.1035 30.7274 10.2503C30.7326 12.7596 30.7312 15.2701 30.7365 17.7793C30.7365 17.9587 30.765 18.1419 30.8053 18.3187C30.9236 18.8306 31.2485 19.1425 31.7786 19.1828C32.2217 19.2165 32.6687 19.1906 33.1132 19.175C33.2418 19.1698 33.2925 19.1854 33.2925 19.3218C33.2886 20.0392 33.2886 20.7565 33.2925 21.4738C33.2925 21.5882 33.2522 21.6518 33.1431 21.67C32.7025 21.7389 32.2646 21.8363 31.8215 21.8662C31.0912 21.9155 30.357 21.9402 29.6332 21.7856C28.326 21.5076 27.5917 20.6733 27.3579 19.3868C27.2785 18.9554 27.2344 18.511 27.2331 18.0718C27.2214 15.4845 27.2278 12.896 27.2278 10.3088C27.2278 10.1502 27.1486 10.071 26.99 10.071C26.3767 10.071 25.7634 10.0671 25.1501 10.0736C24.9993 10.0749 24.9408 10.0398 24.9422 9.87475C24.9499 9.10547 24.9486 8.33619 24.9422 7.56821C24.9422 7.41747 24.9902 7.37329 25.1384 7.37329C26.521 7.37719 27.9023 7.37589 29.2849 7.37589L29.2863 7.37458Z" fill="url(#paint8_linear_466_866)"/>
<path d="M27.1328 4.78744C27.1328 4.25206 27.1367 3.71668 27.1302 3.1813C27.129 3.04486 27.1731 3.00068 27.3095 3.00198C28.3855 3.00588 29.4615 3.00588 30.5361 3.00198C30.6621 3.00198 30.7116 3.04096 30.705 3.17221C30.6726 3.9285 30.4322 4.61071 29.9657 5.20198C29.3003 6.04662 28.4258 6.51442 27.346 6.5755C27.1328 6.5872 27.1315 6.5794 27.1315 6.3611C27.1315 5.83611 27.1315 5.31113 27.1315 4.78614L27.1328 4.78744Z" fill="url(#paint9_linear_466_866)"/>
</g>
<defs>
<linearGradient id="paint0_linear_466_866" x1="1.15949" y1="12.5198" x2="21.4702" y2="12.5198" gradientUnits="userSpaceOnUse">
<stop stop-color="#83E617"/>
<stop offset="1" stop-color="#83E617" stop-opacity="0.4"/>
</linearGradient>
<linearGradient id="paint1_linear_466_866" x1="124.035" y1="14.3995" x2="137.231" y2="14.3995" gradientUnits="userSpaceOnUse">
<stop stop-color="#83E617"/>
<stop offset="1" stop-color="#83E617" stop-opacity="0.4"/>
</linearGradient>
<linearGradient id="paint2_linear_466_866" x1="75.5143" y1="14.6504" x2="97.3343" y2="14.6504" gradientUnits="userSpaceOnUse">
<stop stop-color="#83E617"/>
<stop offset="1" stop-color="#83E617" stop-opacity="0.4"/>
</linearGradient>
<linearGradient id="paint3_linear_466_866" x1="62.4741" y1="12.4497" x2="76.0196" y2="12.4497" gradientUnits="userSpaceOnUse">
<stop stop-color="#83E617"/>
<stop offset="1" stop-color="#83E617" stop-opacity="0.4"/>
</linearGradient>
<linearGradient id="paint4_linear_466_866" x1="97.205" y1="14.4016" x2="109.755" y2="14.4016" gradientUnits="userSpaceOnUse">
<stop stop-color="#83E617"/>
<stop offset="1" stop-color="#83E617" stop-opacity="0.4"/>
</linearGradient>
<linearGradient id="paint5_linear_466_866" x1="34.5139" y1="14.4025" x2="47.7062" y2="14.4025" gradientUnits="userSpaceOnUse">
<stop stop-color="#83E617"/>
<stop offset="1" stop-color="#83E617" stop-opacity="0.4"/>
</linearGradient>
<linearGradient id="paint6_linear_466_866" x1="49.0064" y1="14.4038" x2="61.9003" y2="14.4038" gradientUnits="userSpaceOnUse">
<stop stop-color="#83E617"/>
<stop offset="1" stop-color="#83E617" stop-opacity="0.4"/>
</linearGradient>
<linearGradient id="paint7_linear_466_866" x1="109.257" y1="14.6479" x2="123.817" y2="14.6479" gradientUnits="userSpaceOnUse">
<stop stop-color="#83E617"/>
<stop offset="1" stop-color="#83E617" stop-opacity="0.4"/>
</linearGradient>
<linearGradient id="paint8_linear_466_866" x1="24.9422" y1="14.6386" x2="33.6395" y2="14.6386" gradientUnits="userSpaceOnUse">
<stop stop-color="#83E617"/>
<stop offset="1" stop-color="#83E617" stop-opacity="0.4"/>
</linearGradient>
<linearGradient id="paint9_linear_466_866" x1="27.1302" y1="4.7904" x2="30.7056" y2="4.7904" gradientUnits="userSpaceOnUse">
<stop stop-color="#83E617"/>
<stop offset="1" stop-color="#83E617" stop-opacity="0.4"/>
</linearGradient>
<clipPath id="clip0_466_866">
<rect width="137.101" height="23.5993" fill="white" transform="translate(0.128662 0.658691)"/>
</clipPath>
</defs>
</svg>
