<svg width="138" height="23" viewBox="0 0 138 23" fill="none" xmlns="http://www.w3.org/2000/svg">
<g clip-path="url(#clip0_466_748)">
<path d="M27.1978 18.1275C27.1784 17.3301 27.4536 16.551 27.9763 15.9232C28.5488 15.2715 29.2953 14.7753 30.1391 14.4856C31.162 14.1324 32.2458 13.9617 33.3349 13.9823C34.0709 13.9848 34.8056 14.0376 35.5334 14.1406C36.2281 14.2315 36.9104 14.3922 37.569 14.6197V13.46C37.5954 12.9577 37.5119 12.4556 37.3237 11.9849C37.1354 11.5142 36.8465 11.085 36.4749 10.7238C36.0722 10.3722 35.5982 10.101 35.0813 9.92637C34.5645 9.75178 34.0155 9.67746 33.4673 9.70786C32.6804 9.70839 31.9004 9.84652 31.1671 10.1152C30.3357 10.4232 29.5463 10.8238 28.816 11.3084L28.0882 10.0481C28.9507 9.47663 29.8881 9.01273 30.877 8.66799C31.7691 8.35985 32.7106 8.19777 33.6607 8.18878C34.4326 8.14965 35.2051 8.25672 35.9323 8.50365C36.6596 8.75059 37.3268 9.13237 37.8947 9.6264C38.9261 10.5944 39.4416 11.9186 39.4416 13.599V19.891C39.4237 20.082 39.4837 20.2722 39.6096 20.4229C39.7466 20.5469 39.9286 20.6171 40.1185 20.6194V22.057C39.915 22.057 39.7369 22.0906 39.6096 22.1097C39.4982 22.1245 39.3851 22.1245 39.2738 22.1097C39.0757 22.1138 38.879 22.0783 38.6966 22.0055C38.5142 21.9328 38.3501 21.8246 38.2153 21.6881C37.991 21.4562 37.8534 21.1617 37.8234 20.8494V19.8527C37.1514 20.6527 36.2764 21.2806 35.279 21.6784C34.279 22.0971 33.1977 22.3157 32.1035 22.3206C31.219 22.3357 30.3444 22.143 29.559 21.7599C28.8384 21.415 28.2313 20.8914 27.8034 20.2456C27.3905 19.6086 27.1802 18.8736 27.1978 18.1275ZM36.9227 19.1674C37.1115 18.9522 37.2738 18.7175 37.4061 18.4678C37.5076 18.282 37.5649 18.0776 37.574 17.8688V15.8896C36.9367 15.6629 36.2794 15.4898 35.6097 15.3721C34.9386 15.2528 34.2572 15.1919 33.5742 15.19C32.4229 15.1396 31.2803 15.4007 30.2816 15.9423C29.8966 16.1482 29.5775 16.4475 29.3572 16.8091C29.1371 17.1707 29.0239 17.5813 29.0297 17.9982C29.0247 18.5045 29.1691 19.0023 29.447 19.4358C29.7456 19.8949 30.169 20.2704 30.6735 20.5236C31.2536 20.8207 31.9063 20.9694 32.5665 20.9548C33.4411 20.9662 34.3083 20.8028 35.1111 20.4756C35.8218 20.1895 36.4448 19.7397 36.9227 19.1674Z" fill="url(#paint0_linear_466_748)"/>
<path d="M44.0228 8.4187L48.2874 13.7522L48.5113 14.1452L48.7352 13.7522L52.9692 8.4187H55.1116L49.5698 15.2666L55.0862 22.0377H52.9437L48.7098 16.7329L48.4858 16.364L48.262 16.7329L44.0228 22.0377H41.8804L47.3714 15.2666L41.8804 8.4187H44.0228Z" fill="url(#paint1_linear_466_748)"/>
<path d="M63.2223 22.3012C62.2191 22.316 61.2245 22.1264 60.3063 21.7452C59.4324 21.3847 58.6447 20.8615 57.9909 20.207C57.336 19.5498 56.818 18.7825 56.4642 17.9452C56.0979 17.0711 55.913 16.1389 55.9197 15.1992C55.9111 13.9681 56.2425 12.756 56.8815 11.6819C57.4915 10.6378 58.381 9.76221 59.4616 9.1421C60.5861 8.49818 61.8809 8.166 63.1969 8.18368C64.5177 8.15422 65.819 8.48723 66.9423 9.1421C68.0078 9.76913 68.8841 10.6438 69.4868 11.6819C70.1042 12.7399 70.4214 13.9298 70.4078 15.137V15.5395C70.4099 15.6391 70.4014 15.7387 70.3824 15.8366H57.9299C58.001 16.7551 58.3009 17.6449 58.8052 18.4339C59.2798 19.174 59.9403 19.7928 60.7288 20.2358C61.5054 20.6772 62.3966 20.9078 63.3038 20.9018C64.2493 20.904 65.1785 20.6691 65.9958 20.2214C66.7807 19.8291 67.4028 19.1994 67.7617 18.4339L69.4053 18.8557C69.091 19.5277 68.6256 20.1277 68.0415 20.6143C67.4213 21.1569 66.6956 21.5816 65.9042 21.865C65.0459 22.1627 64.1371 22.3105 63.2223 22.3012ZM57.8739 14.5859H68.6014C68.5465 13.668 68.2548 12.7764 67.7515 11.9886C67.2762 11.2641 66.6145 10.6642 65.8279 10.2443C65.0348 9.81783 64.1355 9.59785 63.2223 9.60692C62.3138 9.59646 61.419 9.81662 60.6321 10.2443C59.8474 10.6702 59.1906 11.277 58.7237 12.0077C58.2204 12.7885 57.9285 13.6739 57.8739 14.5859Z" fill="url(#paint2_linear_466_748)"/>
<path d="M73.3893 2.88354H75.2874V19.0376C75.2874 19.7228 75.4146 20.1734 75.6741 20.3842C75.9372 20.5962 76.2744 20.709 76.6207 20.7004C76.963 20.6999 77.3042 20.6645 77.6385 20.595C77.9744 20.5232 78.2644 20.4561 78.5036 20.3842L78.8395 21.8218C78.4212 21.9788 77.9861 22.0929 77.5418 22.162C77.1057 22.2427 76.663 22.2875 76.2187 22.2962C75.8408 22.3221 75.4613 22.2709 75.1063 22.1459C74.7514 22.0211 74.4292 21.8254 74.1621 21.5724C73.8948 21.3194 73.6887 21.015 73.558 20.6801C73.4272 20.3452 73.3749 19.9876 73.4045 19.6318L73.3893 2.88354Z" fill="url(#paint3_linear_466_748)"/>
<path d="M85.6498 22.3013C84.5187 22.3083 83.3958 22.12 82.3369 21.7455C81.3269 21.3854 80.4194 20.8095 79.6855 20.0635L80.4693 18.8031C81.1838 19.4592 82.0182 19.9884 82.9322 20.3654C83.7681 20.6894 84.6644 20.8523 85.5683 20.8446C86.5333 20.8829 87.4899 20.6619 88.3265 20.2072C88.6575 20.0195 88.9298 19.7525 89.1157 19.4335C89.3017 19.1145 89.3946 18.7548 89.385 18.3911C89.4021 18.1617 89.3653 17.9315 89.2774 17.7171C89.1894 17.5026 89.0524 17.309 88.8761 17.1498C88.4425 16.8197 87.9395 16.5796 87.4004 16.4455C86.7592 16.2634 85.9958 16.0669 85.1052 15.8609C84.2365 15.6459 83.386 15.3705 82.5607 15.0366C81.9606 14.8019 81.4348 14.4257 81.0341 13.944C80.6717 13.4319 80.4933 12.8239 80.5252 12.2093C80.4916 11.4206 80.7408 10.6442 81.2325 10.0049C81.7445 9.39368 82.4288 8.93038 83.207 8.66794C84.0894 8.34491 85.0288 8.18231 85.9754 8.18872C86.9849 8.16272 87.9899 8.3256 88.9321 8.66794C89.7362 8.96643 90.4519 9.44315 91.0186 10.0576L90.1025 11.2652C89.5991 10.7171 88.964 10.29 88.2502 10.0193C87.4901 9.73934 86.6796 9.60101 85.8635 9.61197C85.2887 9.60892 84.7164 9.68314 84.1638 9.8324C83.6629 9.96272 83.2069 10.2138 82.8407 10.5608C82.4837 10.945 82.301 11.4457 82.3318 11.9553C82.29 12.3735 82.4213 12.7906 82.6982 13.1198C83.0252 13.431 83.4265 13.6643 83.8686 13.8002C84.3775 13.9824 85.0289 14.1788 85.7872 14.3849C86.8864 14.6628 87.843 14.9456 88.6573 15.233C89.3723 15.4591 90.0219 15.8381 90.5555 16.34C91.032 16.8741 91.2709 17.5608 91.2221 18.2569C91.2482 18.833 91.1226 19.4063 90.8561 19.9256C90.5898 20.4449 90.1909 20.8939 89.6955 21.2327C88.5051 21.9915 87.0855 22.3665 85.6498 22.3013Z" fill="url(#paint4_linear_466_748)"/>
<path d="M99.105 22.3008C97.974 22.307 96.8512 22.1185 95.7921 21.745C94.7837 21.3846 93.878 20.8088 93.1458 20.0629L93.9245 18.8026C94.6408 19.4588 95.4769 19.988 96.3926 20.3649C97.2266 20.6892 98.1213 20.8522 99.0236 20.8441C99.9886 20.8824 100.945 20.6613 101.782 20.2067C102.114 20.0197 102.386 19.7529 102.572 19.4337C102.758 19.1146 102.851 18.7545 102.84 18.3905C102.857 18.1612 102.82 17.9314 102.732 17.7169C102.644 17.5025 102.507 17.3088 102.331 17.1494C101.896 16.8211 101.394 16.5812 100.856 16.4449C100.214 16.2629 99.4459 16.0663 98.5555 15.8603C97.6869 15.6447 96.8365 15.3691 96.0109 15.0361C95.4108 14.8014 94.885 14.4252 94.4842 13.9435C94.1218 13.4314 93.9435 12.8233 93.9754 12.2087C93.9433 11.4195 94.1942 10.643 94.6879 10.0044C95.193 9.39798 95.868 8.93657 96.6368 8.6722C97.5209 8.3488 98.462 8.1862 99.4103 8.193C100.418 8.16762 101.421 8.33049 102.362 8.6722C103.167 8.9707 103.885 9.44736 104.453 10.0619L103.563 11.3078C103.06 10.7586 102.425 10.3313 101.711 10.0619C100.952 9.78245 100.143 9.64411 99.329 9.65458C98.754 9.6512 98.1817 9.72542 97.6292 9.87501C97.1274 10.003 96.6708 10.2544 96.3061 10.6034C96.1278 10.7927 95.9909 11.0134 95.9036 11.2527C95.8162 11.4921 95.7801 11.7453 95.7973 11.9979C95.7705 12.4096 95.9105 12.8154 96.189 13.1336C96.5169 13.4439 96.918 13.6771 97.3595 13.8141C97.8684 13.9962 98.5197 14.1927 99.2831 14.3988C100.376 14.6767 101.332 14.9594 102.153 15.2469C102.866 15.4741 103.514 15.8529 104.046 16.3539C104.525 16.8867 104.764 17.5744 104.713 18.2707C104.739 18.8469 104.613 19.4201 104.347 19.9394C104.081 20.4587 103.682 20.9078 103.186 21.2466C101.984 22.0074 100.551 22.3776 99.105 22.3008Z" fill="url(#paint5_linear_466_748)"/>
<path d="M114.011 22.3011C113.009 22.3134 112.017 22.1239 111.1 21.7453C110.234 21.383 109.457 20.8578 108.815 20.2022C108.174 19.5485 107.668 18.788 107.324 17.9595C106.977 17.1062 106.804 16.1991 106.815 15.2855C106.801 14.3547 106.974 13.4296 107.324 12.5589C107.676 11.7264 108.194 10.9651 108.85 10.3162C109.5 9.66415 110.282 9.14114 111.15 8.7779C112.057 8.39912 113.04 8.20793 114.031 8.21723C115.02 8.20645 115.998 8.39774 116.901 8.7779C117.763 9.14379 118.539 9.66657 119.186 10.3162C119.842 10.9651 120.36 11.7264 120.713 12.5589C121.062 13.4296 121.235 14.3547 121.222 15.2855C121.232 16.1991 121.059 17.1062 120.713 17.9595C120.368 18.788 119.862 19.5485 119.221 20.2022C118.564 20.8744 117.764 21.4089 116.874 21.7714C115.983 22.1338 115.021 22.3158 114.051 22.3059L114.011 22.3011ZM108.718 15.3095C108.706 16.2666 108.951 17.2113 109.43 18.0554C109.876 18.8516 110.534 19.5252 111.339 20.0105C112.129 20.4837 113.049 20.7316 113.985 20.7246C114.924 20.7313 115.843 20.478 116.631 19.9961C117.443 19.4966 118.104 18.8104 118.555 18.0027C119.039 17.1497 119.288 16.1954 119.278 15.2281C119.288 14.2744 119.039 13.3342 118.555 12.4966C118.102 11.6924 117.44 11.0097 116.631 10.5126C115.843 10.0308 114.924 9.77751 113.985 9.78423C113.042 9.77842 112.119 10.0425 111.339 10.5414C110.538 11.0475 109.882 11.7323 109.43 12.5349C108.949 13.3887 108.704 14.343 108.718 15.3095Z" fill="url(#paint6_linear_466_748)"/>
<path d="M136.579 22.0374H134.687V14.4516C134.687 12.851 134.431 11.6817 133.934 10.9437C133.677 10.5758 133.321 10.2791 132.903 10.0844C132.484 9.88978 132.018 9.80426 131.551 9.83677C130.787 9.84096 130.033 10.015 129.353 10.3447C128.642 10.6883 128.006 11.1567 127.481 11.7248C126.937 12.2991 126.532 12.9776 126.295 13.7136V22.0374H124.376V8.41832H126.101V11.5236C126.492 10.8612 127.009 10.2729 127.628 9.78886C128.269 9.28986 128.995 8.89766 129.776 8.62917C130.569 8.35207 131.409 8.21088 132.254 8.21226C132.958 8.19242 133.657 8.33558 134.29 8.62917C134.839 8.90334 135.3 9.31232 135.623 9.81281C135.983 10.3896 136.232 11.0226 136.355 11.6817C136.51 12.472 136.585 13.2742 136.579 14.0778V22.0374Z" fill="url(#paint7_linear_466_748)"/>
<path fill-rule="evenodd" clip-rule="evenodd" d="M3.54513 21.9947L0.25769 16.7809L3.54513 11.5672H10.1251L6.83767 16.7809L10.1251 21.9947H3.54513ZM13.4125 6.35342L10.1251 1.13965L6.83767 6.35342L9.9928 11.3611L10.1251 11.5672L13.4125 16.7809L16.7 21.9947L19.9875 16.7809L16.7 11.5672L13.4125 6.35342Z" fill="url(#paint8_linear_466_748)"/>
</g>
<defs>
<linearGradient id="paint0_linear_466_748" x1="27.1967" y1="15.2512" x2="40.1185" y2="15.2512" gradientUnits="userSpaceOnUse">
<stop stop-color="#83E617"/>
<stop offset="1" stop-color="#83E617" stop-opacity="0.4"/>
</linearGradient>
<linearGradient id="paint1_linear_466_748" x1="41.8804" y1="15.2282" x2="55.1116" y2="15.2282" gradientUnits="userSpaceOnUse">
<stop stop-color="#83E617"/>
<stop offset="1" stop-color="#83E617" stop-opacity="0.4"/>
</linearGradient>
<linearGradient id="paint2_linear_466_748" x1="55.9195" y1="15.2419" x2="70.4083" y2="15.2419" gradientUnits="userSpaceOnUse">
<stop stop-color="#83E617"/>
<stop offset="1" stop-color="#83E617" stop-opacity="0.4"/>
</linearGradient>
<linearGradient id="paint3_linear_466_748" x1="73.3893" y1="12.5931" x2="78.8395" y2="12.5931" gradientUnits="userSpaceOnUse">
<stop stop-color="#83E617"/>
<stop offset="1" stop-color="#83E617" stop-opacity="0.4"/>
</linearGradient>
<linearGradient id="paint4_linear_466_748" x1="79.6855" y1="15.2473" x2="91.2284" y2="15.2473" gradientUnits="userSpaceOnUse">
<stop stop-color="#83E617"/>
<stop offset="1" stop-color="#83E617" stop-opacity="0.4"/>
</linearGradient>
<linearGradient id="paint5_linear_466_748" x1="93.1458" y1="15.2506" x2="104.72" y2="15.2506" gradientUnits="userSpaceOnUse">
<stop stop-color="#83E617"/>
<stop offset="1" stop-color="#83E617" stop-opacity="0.4"/>
</linearGradient>
<linearGradient id="paint6_linear_466_748" x1="106.814" y1="15.2616" x2="121.223" y2="15.2616" gradientUnits="userSpaceOnUse">
<stop stop-color="#83E617"/>
<stop offset="1" stop-color="#83E617" stop-opacity="0.4"/>
</linearGradient>
<linearGradient id="paint7_linear_466_748" x1="124.376" y1="15.1239" x2="136.579" y2="15.1239" gradientUnits="userSpaceOnUse">
<stop stop-color="#83E617"/>
<stop offset="1" stop-color="#83E617" stop-opacity="0.4"/>
</linearGradient>
<linearGradient id="paint8_linear_466_748" x1="0.25769" y1="11.5672" x2="19.9875" y2="11.5672" gradientUnits="userSpaceOnUse">
<stop stop-color="#83E617"/>
<stop offset="1" stop-color="#83E617" stop-opacity="0.4"/>
</linearGradient>
<clipPath id="clip0_466_748">
<rect width="137.101" height="22.4755" fill="white" transform="translate(0.257355 0.0583496)"/>
</clipPath>
</defs>
</svg>
