<svg width="500" height="500" viewBox="0 0 500 500" fill="none" xmlns="http://www.w3.org/2000/svg">
<circle cx="250" cy="250" r="250" fill="black"/>
<path d="M294.05 250.071C294.041 213.517 304.344 177.701 323.776 146.734C343.209 115.768 370.983 90.9049 403.911 75L398.938 76.7576L393.112 78.8526L390.199 79.8823L384.372 81.9773L381.459 83.007L378.529 84.0544C377.57 84.3918 376.593 84.7291 375.633 85.1019L372.703 86.1317L369.789 87.1791L366.894 88.2088L363.963 89.2564L361.05 90.3038L358.137 91.3335L355.224 92.381C354.247 92.7183 353.27 93.0556 352.311 93.4285L349.398 94.4582L346.485 95.5057L343.572 96.5354L337.746 98.6304L334.833 99.6601L331.92 100.708C330.943 101.045 329.966 101.382 329.007 101.755L326.076 102.785L323.181 103.832C322.204 104.17 321.227 104.507 320.25 104.88C319.273 105.253 317.781 105.75 316.555 106.211L313.98 107.134L311.156 108.04L308.243 109.07L305.329 110.117C304.353 110.454 303.376 110.792 302.416 111.165L299.503 112.194L296.59 113.242C295.614 113.579 294.637 113.916 293.677 114.289L290.747 115.319L287.834 116.367C286.874 116.704 285.897 117.041 284.92 117.414L282.007 118.444C281.03 118.781 280.071 119.118 279.094 119.491L276.181 120.521L273.268 121.568C272.291 121.906 271.314 122.243 270.355 122.616L267.442 123.646L264.529 124.693C263.552 125.03 262.575 125.368 261.616 125.741L258.703 126.77C257.726 127.108 256.749 127.445 255.79 127.818L252.877 128.847L249.964 129.895C248.987 130.232 248.01 130.57 247.051 130.942L244.138 131.972L241.207 133.02C240.248 133.357 239.271 133.694 238.294 134.067L235.381 135.097C234.404 135.434 233.445 135.771 232.468 136.144C231.491 136.517 230.532 136.819 229.555 137.192L226.642 138.222C225.665 138.559 224.688 138.896 223.729 139.269L220.816 140.299L217.903 141.346C216.926 141.684 215.949 142.021 214.99 142.394L212.077 143.423C211.1 143.761 210.123 144.098 209.164 144.471C208.204 144.844 207.21 145.146 206.25 145.518L203.338 146.548C202.361 146.885 201.384 147.223 200.425 147.596L197.494 148.625L194.598 149.673C193.621 150.01 192.645 150.347 191.685 150.72L188.755 151.75C187.778 152.087 186.818 152.425 185.841 152.797C184.864 153.17 183.906 153.472 182.929 153.845C181.952 154.218 180.992 154.52 180.016 154.875C179.039 155.23 178.062 155.549 177.102 155.922L174.189 156.952L171.276 157.999C170.299 158.337 169.322 158.674 168.363 159.047L165.45 160.077C164.473 160.414 163.496 160.751 162.537 161.124C161.578 161.497 160.583 161.799 159.624 162.172C158.665 162.544 157.67 162.846 156.711 163.201C155.752 163.556 154.757 163.876 153.798 164.249C152.839 164.622 151.844 164.923 150.885 165.296C149.926 165.669 148.931 165.971 147.972 166.326C147.013 166.681 146.018 167.001 145.059 167.373L142.146 168.403C141.151 168.74 140.192 169.078 139.215 169.451C138.238 169.823 137.279 170.125 136.32 170.498C135.361 170.871 134.366 171.173 133.389 171.528C132.412 171.883 131.453 172.202 130.476 172.575C114.302 178.055 100.252 188.463 90.3019 202.336C80.3514 216.209 75 232.85 75 249.92C75 266.99 80.3514 283.631 90.3019 297.504C100.252 311.377 114.302 321.785 130.476 327.265C131.453 327.638 132.412 327.975 133.389 328.312C134.366 328.65 135.325 329.022 136.302 329.36C137.279 329.697 138.238 330.07 139.215 330.39C140.192 330.709 141.151 331.1 142.146 331.437C143.141 331.774 144.082 332.147 145.059 332.484C146.036 332.822 146.995 333.195 147.972 333.514C148.949 333.834 149.908 334.224 150.885 334.562C151.862 334.899 152.821 335.272 153.798 335.591C154.775 335.911 155.734 336.302 156.711 336.639C157.688 336.976 158.647 337.349 159.624 337.686C160.601 338.024 161.56 338.397 162.537 338.716C163.514 339.036 164.473 339.426 165.45 339.764C166.427 340.101 167.386 340.474 168.363 340.811L171.276 341.841C172.235 342.214 173.212 342.551 174.189 342.888L177.102 343.936L180.016 344.965C180.992 345.338 181.952 345.676 182.929 346.013C183.906 346.35 184.864 346.723 185.841 347.043C186.818 347.362 187.778 347.753 188.772 348.09C189.767 348.428 190.708 348.8 191.668 349.138L194.598 350.167C195.558 350.54 196.535 350.877 197.494 351.215L200.425 352.262L203.338 353.292C204.297 353.665 205.274 354.002 206.25 354.339C207.227 354.677 208.187 355.05 209.164 355.369C210.14 355.689 211.1 356.079 212.077 356.417C213.054 356.754 214.013 357.127 214.99 357.464L217.903 358.494C218.862 358.867 219.839 359.204 220.816 359.541L223.729 360.589L226.642 361.619C227.601 361.991 228.578 362.329 229.555 362.666L232.468 363.714L235.381 364.743C236.358 365.116 237.335 365.453 238.294 365.791L241.207 366.82C242.184 367.193 243.161 367.531 244.138 367.868L247.051 368.915L249.964 369.945C250.923 370.318 251.9 370.655 252.877 370.993L255.79 372.04L258.703 373.07C259.662 373.443 260.639 373.78 261.616 374.117L264.529 375.165L267.442 376.194L270.355 377.242L273.268 378.272C274.228 378.645 275.205 378.982 276.181 379.319L279.094 380.367L282.007 381.396C282.984 381.769 283.944 382.107 284.92 382.444L287.834 383.474C288.81 383.846 289.787 384.184 290.747 384.521C291.706 384.858 292.7 385.231 293.66 385.569L296.59 386.598C297.55 386.971 298.527 387.308 299.486 387.646L302.416 388.693L305.329 389.723C306.289 390.096 307.266 390.433 308.243 390.77L311.156 391.818L314.069 392.848L316.644 393.771C317.87 394.232 319.113 394.694 320.357 395.12L323.252 396.168L326.183 397.197L329.096 398.245L331.991 399.275C332.968 399.647 333.945 399.985 334.922 400.322L337.835 401.369L340.748 402.399L346.574 404.494L349.487 405.524L352.4 406.571L355.313 407.601C356.29 407.974 357.249 408.311 358.226 408.649L361.139 409.696L364.052 410.726L369.878 412.821L372.791 413.851L375.704 414.898L378.635 415.945L381.548 416.975L384.461 418.023L387.374 419.052C388.334 419.425 389.31 419.763 390.287 420.1L393.2 421.147L396.113 422.177L401.939 424.272L404 425C371.078 409.116 343.301 384.281 323.854 353.341C304.407 322.401 294.078 286.61 294.05 250.071Z" fill="url(#paint0_linear_506_52)"/>
<path d="M178.435 251.651H193L177.653 309.138H163.177L155.841 275.104L148.523 309.138H134.117L119.321 251.651H134.153L141.56 284.318L149.233 251.651H163.212L170.619 285.099L178.435 251.651Z" fill="white"/>
<path d="M226.02 206.84H239.129V246.751H226.02V242.259C224.381 244.239 222.307 245.814 219.96 246.861C217.612 247.908 215.054 248.399 212.485 248.296C201.117 248.296 192.946 239.596 192.946 227.364C192.946 214.599 201.668 205.296 213.64 205.296C218.738 205.296 222.183 206.929 226.073 211.155L226.02 206.84ZM206.89 227.097C206.89 233.223 211.029 237.963 216.375 237.963C221.722 237.963 226.198 232.956 226.198 226.92C226.198 220.546 222.148 216.161 216.464 216.161C210.78 216.161 206.89 220.724 206.89 227.097Z" fill="white"/>
<path d="M260.586 206.84V212.273C261.039 210.134 262.266 208.237 264.032 206.947C265.731 205.783 267.745 205.164 269.805 205.171H271.101V218.611C270.16 218.522 269.201 218.434 268.686 218.434C267.377 218.376 266.075 218.636 264.89 219.193C263.705 219.749 262.673 220.586 261.883 221.629C260.835 223.014 260.586 224.47 260.586 227.825V246.627H247.477V206.84H260.586Z" fill="white"/>
<path d="M290.054 246.751H276.945V189.264H290.054V221.061L298.935 206.858H313.767L302.115 225.819L313.767 246.769H298.935L290.054 230.79V246.751Z" fill="white"/>
<path d="M334.602 233.294C334.602 235.193 335.295 235.708 337.799 235.886H345.224V246.751H329.078C323.483 246.573 321.404 244.248 321.493 238.478V217.439H317.444V206.592H321.493V196.809H334.602V206.645H339.167V217.493H334.602V233.294Z" fill="white"/>
<path d="M133.851 246.751H119.321L134.668 189.264H149.144L156.48 223.298L163.816 189.264H178.204L193.035 246.751H178.204L170.797 214.084L163.123 246.751H149.144L141.737 213.303L133.851 246.751Z" fill="white"/>
<path d="M237.743 289.662C237.743 301.468 227.832 310.683 215.256 310.683C202.307 310.683 192.911 301.806 192.911 289.236C192.911 276.666 202.147 267.683 215.416 267.683C228.347 267.683 237.743 276.915 237.743 289.662ZM206.02 289.236C206.02 295.095 209.821 299.143 215.327 299.143C216.585 299.173 217.835 298.94 218.998 298.46C220.161 297.98 221.21 297.262 222.08 296.353C222.949 295.444 223.619 294.363 224.047 293.181C224.474 291.998 224.651 290.739 224.564 289.485C224.564 283.111 221.118 279.329 215.416 279.329C209.714 279.329 206.02 283.288 206.02 289.236Z" fill="white"/>
<path d="M287.674 289.662C287.674 301.468 277.762 310.683 265.169 310.683C252.238 310.683 242.841 301.806 242.841 289.236C242.841 276.666 252.06 267.683 265.346 267.683C278.277 267.683 287.674 276.915 287.674 289.662ZM255.95 289.236C255.95 295.095 259.733 299.143 265.258 299.143C266.515 299.173 267.764 298.941 268.926 298.46C270.088 297.979 271.137 297.261 272.005 296.352C272.872 295.443 273.541 294.362 273.966 293.179C274.392 291.997 274.566 290.738 274.476 289.485C274.476 283.111 271.03 279.329 265.346 279.329C259.662 279.329 255.95 283.288 255.95 289.236Z" fill="white"/>
<path d="M312.15 281.052V280.253C312.06 279.332 311.614 278.484 310.908 277.887C310.201 277.29 309.29 276.992 308.367 277.057C307.984 277.015 307.597 277.053 307.229 277.167C306.861 277.281 306.521 277.47 306.23 277.722C305.938 277.973 305.701 278.282 305.534 278.629C305.367 278.976 305.273 279.353 305.259 279.738C305.259 281.371 306.466 282.312 309.823 283.289C321.032 286.466 325.081 290.177 325.081 297.154C325.081 305.25 318.616 310.683 308.882 310.683C299.148 310.683 293.02 305.605 292.754 297.243H305.187C305.703 300.172 306.662 301.291 308.9 301.291C309.287 301.313 309.675 301.255 310.039 301.122C310.404 300.99 310.737 300.784 311.02 300.518C311.302 300.253 311.528 299.932 311.682 299.577C311.837 299.221 311.918 298.838 311.92 298.45C311.92 296.675 310.623 295.698 305.276 293.976C296.573 291.207 292.842 287.159 292.842 280.874C292.842 272.938 299.308 267.683 308.971 267.683C318.634 267.683 324.318 272.689 324.406 281.052H312.15Z" fill="white"/>
<path d="M345.259 272.938C346.45 271.304 348.006 269.97 349.804 269.046C351.603 268.121 353.593 267.63 355.615 267.612C359.193 267.678 362.636 268.99 365.349 271.322C368.12 273.826 369.15 276.915 369.15 282.951V309.067H356.041V285.188C356.041 281.211 353.981 278.548 350.713 278.548C347.444 278.548 345.189 280.963 345.189 285.188V309.138H332.098V251.651H345.189L345.259 272.938Z" fill="white"/>
<defs>
<linearGradient id="paint0_linear_506_52" x1="239.378" y1="87.5875" x2="239.378" y2="411.969" gradientUnits="userSpaceOnUse">
<stop stop-color="#85EB18"/>
<stop offset="1" stop-color="#10C224"/>
</linearGradient>
</defs>
</svg>
