<svg width="28" height="28" viewBox="0 0 28 28" fill="none" xmlns="http://www.w3.org/2000/svg">
<path d="M23.2956 23.3909H19.3467V17.2031C19.3467 15.7275 19.3168 13.8287 17.2889 13.8287C15.2301 13.8287 14.9156 15.4344 14.9156 17.0942V23.3909H10.9667V10.6665H14.76V12.4009H14.8111C15.3412 11.4009 16.6301 10.3454 18.5556 10.3454C22.5568 10.3454 23.2968 12.9788 23.2968 16.4065L23.2956 23.3909ZM6.50674 8.92539C5.23563 8.92539 4.21451 7.8965 4.21451 6.63095C4.21451 5.3665 5.23674 4.33873 6.50674 4.33873C7.7734 4.33873 8.80007 5.3665 8.80007 6.63095C8.80007 7.8965 7.77229 8.92539 6.50674 8.92539ZM8.48674 23.3909H4.52674V10.6665H8.48674V23.3909ZM25.2711 0.666504H2.54451C1.45674 0.666504 0.576736 1.5265 0.576736 2.58762V25.4121C0.576736 26.4742 1.45674 27.3332 2.54451 27.3332H25.2679C26.3545 27.3332 27.2434 26.4742 27.2434 25.4121V2.58762C27.2434 1.5265 26.3545 0.666504 25.2679 0.666504H25.2711Z" fill="white"/>
</svg>
