<svg width="23" height="22" viewBox="0 0 23 22" fill="none" xmlns="http://www.w3.org/2000/svg">
<path d="M10.0255 12.6724L7.72746 10.3744C7.53151 10.1784 7.28211 10.0804 6.97927 10.0804C6.67644 10.0804 6.42704 10.1784 6.23109 10.3744C6.03513 10.5703 5.93715 10.8197 5.93715 11.1226C5.93715 11.4254 6.03513 11.6748 6.23109 11.8708L9.27728 14.917C9.49105 15.1307 9.74045 15.2376 10.0255 15.2376C10.3105 15.2376 10.5599 15.1307 10.7737 14.917L16.8126 8.878C17.0086 8.68205 17.1065 8.43265 17.1065 8.12981C17.1065 7.82697 17.0086 7.57758 16.8126 7.38162C16.6167 7.18567 16.3673 7.08769 16.0644 7.08769C15.7616 7.08769 15.5122 7.18567 15.3162 7.38162L10.0255 12.6724ZM11.5219 21.4369C10.0433 21.4369 8.65379 21.1561 7.35337 20.5946C6.05295 20.0331 4.92176 19.2718 3.9598 18.3105C2.99784 17.3493 2.23647 16.2181 1.67568 14.917C1.1149 13.6158 0.834149 12.2263 0.833436 10.7485C0.832724 9.27062 1.11347 7.88113 1.67568 6.57999C2.23789 5.27886 2.99927 4.14767 3.9598 3.18642C4.92033 2.22518 6.05152 1.4638 7.35337 0.902306C8.65522 0.340808 10.0447 0.0600586 11.5219 0.0600586C12.999 0.0600586 14.3885 0.340808 15.6903 0.902306C16.9922 1.4638 18.1234 2.22518 19.0839 3.18642C20.0444 4.14767 20.8062 5.27886 21.3691 6.57999C21.932 7.88113 22.2124 9.27062 22.2103 10.7485C22.2081 12.2263 21.9274 13.6158 21.368 14.917C20.8087 16.2181 20.0473 17.3493 19.0839 18.3105C18.1205 19.2718 16.9893 20.0335 15.6903 20.5957C14.3913 21.1579 13.0018 21.4383 11.5219 21.4369ZM11.5219 19.2992C13.9089 19.2992 15.9308 18.4709 17.5875 16.8141C19.2442 15.1574 20.0726 13.1356 20.0726 10.7485C20.0726 8.36139 19.2442 6.3395 17.5875 4.6828C15.9308 3.02609 13.9089 2.19774 11.5219 2.19774C9.13477 2.19774 7.11288 3.02609 5.45618 4.6828C3.79947 6.3395 2.97112 8.36139 2.97112 10.7485C2.97112 13.1356 3.79947 15.1574 5.45618 16.8141C7.11288 18.4709 9.13477 19.2992 11.5219 19.2992Z" fill="#8CF719"/>
</svg>
