<svg width="28" height="28" viewBox="0 0 28 28" fill="none" xmlns="http://www.w3.org/2000/svg">
<path d="M15.3705 0.666504C16.8711 0.668984 17.6315 0.676931 18.2886 0.696492L18.5474 0.704945C18.8463 0.715572 19.1413 0.728906 19.4969 0.745573C20.9157 0.811135 21.8836 1.03558 22.7336 1.36559C23.6125 1.7045 24.3547 2.16228 25.0958 2.90343C25.8359 3.64455 26.2937 4.38902 26.6338 5.26571C26.9626 6.11463 27.1871 7.08355 27.2538 8.50248C27.2696 8.85805 27.2824 9.15299 27.293 9.45198L27.3014 9.71078C27.3208 10.3678 27.3298 11.1283 27.3326 12.629L27.3336 13.6231C27.3338 13.7446 27.3338 13.8699 27.3338 13.9993L27.3336 14.3754L27.3328 15.3697C27.3303 16.8703 27.3224 17.6308 27.3028 18.2878L27.2943 18.5466C27.2838 18.8457 27.2704 19.1406 27.2538 19.4961C27.1882 20.9151 26.9626 21.8828 26.6338 22.7329C26.2948 23.6118 25.8359 24.3541 25.0958 25.0952C24.3547 25.8352 23.6091 26.293 22.7336 26.633C21.8836 26.9619 20.9157 27.1863 19.4969 27.253C19.1413 27.2689 18.8463 27.2818 18.5474 27.2922L18.2886 27.3006C17.6315 27.3202 16.8711 27.329 15.3705 27.3319L14.3762 27.333C14.2547 27.333 14.1294 27.333 14 27.333H13.6239L12.6296 27.3321C11.129 27.3297 10.3685 27.3217 9.71147 27.3021L9.45269 27.2937C9.15368 27.283 8.85873 27.2697 8.50318 27.253C7.08424 27.1875 6.11754 26.9619 5.26641 26.633C4.3886 26.2942 3.64524 25.8352 2.90411 25.0952C2.16298 24.3541 1.7063 23.6085 1.36629 22.7329C1.03628 21.8828 0.812944 20.9151 0.746275 19.4961C0.730435 19.1406 0.717514 18.8457 0.707047 18.5466L0.69866 18.2878C0.679153 17.6308 0.670259 16.8703 0.667379 15.3697L0.667206 12.629C0.669686 11.1283 0.677619 10.3678 0.69718 9.71078L0.705647 9.45198C0.716274 9.15299 0.729608 8.85805 0.746275 8.50248C0.811824 7.08243 1.03628 6.11574 1.36629 5.26571C1.70518 4.38791 2.16298 3.64455 2.90411 2.90343C3.64524 2.16228 4.38972 1.7056 5.26641 1.36559C6.11644 1.03558 7.08313 0.812242 8.50318 0.745573C8.85873 0.729746 9.15368 0.716826 9.45269 0.706359L9.71147 0.697971C10.3685 0.678451 11.129 0.669557 12.6296 0.666677L15.3705 0.666504ZM14 7.33244C10.316 7.33244 7.33314 10.3186 7.33314 13.9993C7.33314 17.6832 10.3193 20.6661 14 20.6661C17.684 20.6661 20.6669 17.68 20.6669 13.9993C20.6669 10.3153 17.6807 7.33244 14 7.33244ZM14 9.99919C16.2093 9.99919 18.0002 11.7895 18.0002 13.9993C18.0002 16.2085 16.2098 17.9994 14 17.9994C11.7908 17.9994 9.99989 16.2092 9.99989 13.9993C9.99989 11.79 11.7901 9.99919 14 9.99919ZM21.0002 5.33238C20.0812 5.33238 19.3335 6.07895 19.3335 6.99796C19.3335 7.91699 20.0801 8.66471 21.0002 8.66471C21.9192 8.66471 22.667 7.91815 22.667 6.99796C22.667 6.07895 21.918 5.33123 21.0002 5.33238Z" fill="white"/>
</svg>
