<svg width="27" height="27" viewBox="0 0 27 27" fill="none" xmlns="http://www.w3.org/2000/svg">
<path d="M22.4802 12.2754C22.4802 19.4472 15.1346 23.8656 13.6081 24.7071C13.5235 24.7538 13.4285 24.7783 13.3319 24.7783C13.2353 24.7783 13.1403 24.7538 13.0558 24.7071C11.5281 23.8656 4.18481 19.4472 4.18481 12.2754C4.18481 6.55814 7.61519 2.55603 13.3325 2.55603C19.0498 2.55603 22.4802 6.55814 22.4802 12.2754Z" stroke="white" stroke-width="1.86667" stroke-linecap="round" stroke-linejoin="round"/>
<path d="M8.75854 11.704C8.75854 12.917 9.24043 14.0804 10.0982 14.9382C10.956 15.7959 12.1193 16.2778 13.3324 16.2778C14.5454 16.2778 15.7088 15.7959 16.5666 14.9382C17.4243 14.0804 17.9062 12.917 17.9062 11.704C17.9062 10.4909 17.4243 9.32754 16.5666 8.46977C15.7088 7.61201 14.5454 7.13013 13.3324 7.13013C12.1193 7.13013 10.956 7.61201 10.0982 8.46977C9.24043 9.32754 8.75854 10.4909 8.75854 11.704V11.704Z" stroke="white" stroke-width="1.86667" stroke-linecap="round" stroke-linejoin="round"/>
</svg>
