<svg width="27" height="27" viewBox="0 0 27 27" fill="none" xmlns="http://www.w3.org/2000/svg">
<path d="M24.4434 8.26648V19.3776C24.4434 20.1143 24.1508 20.8208 23.6298 21.3418C23.1089 21.8627 22.4024 22.1554 21.6656 22.1554H4.99897C4.26226 22.1554 3.55572 21.8627 3.03478 21.3418C2.51385 20.8208 2.22119 20.1143 2.22119 19.3776V8.26648" stroke="white" stroke-width="1.86667" stroke-linecap="round" stroke-linejoin="round"/>
<path d="M24.4434 8.26655C24.4434 7.52983 24.1508 6.8233 23.6298 6.30236C23.1089 5.78143 22.4024 5.48877 21.6656 5.48877H4.99897C4.26226 5.48877 3.55572 5.78143 3.03478 6.30236C2.51385 6.8233 2.22119 7.52983 2.22119 8.26655L11.8601 14.2851C12.3016 14.561 12.8117 14.7073 13.3323 14.7073C13.8529 14.7073 14.363 14.561 14.8045 14.2851L24.4434 8.26655Z" stroke="white" stroke-width="1.86667" stroke-linecap="round" stroke-linejoin="round"/>
</svg>
