<svg width="77" height="82" viewBox="0 0 77 82" fill="none" xmlns="http://www.w3.org/2000/svg">
<g id="Vector">
<path d="M51.2671 40.9937C51.265 32.4344 53.6762 24.0479 58.2242 16.7969C62.7722 9.54584 69.2726 3.72411 76.9792 -0.00012207L75.8152 0.411434L74.4517 0.901977L73.7699 1.1431L72.4063 1.63364L71.7245 1.87475L71.0386 2.12002C70.8142 2.19901 70.5855 2.278 70.361 2.3653L69.6751 2.60642L68.9933 2.85169L68.3157 3.0928L67.6297 3.33808L66.9479 3.58336L66.2662 3.82447L65.5844 4.06974C65.3558 4.14872 65.1271 4.22771 64.9026 4.31501L64.2209 4.55613L63.5391 4.8014L62.8573 5.04251L61.4937 5.53307L60.812 5.77418L60.1302 6.01945C59.9015 6.09844 59.6729 6.17742 59.4484 6.26472L58.7625 6.50585L58.0849 6.75112C57.8562 6.8301 57.6276 6.90909 57.3989 6.99639C57.1703 7.08369 56.8211 7.20009 56.5343 7.30818L55.9314 7.52434L55.2705 7.73636L54.5887 7.97748L53.9069 8.22276C53.6783 8.30175 53.4496 8.38073 53.2251 8.46803L52.5433 8.70914L51.8616 8.95441C51.633 9.0334 51.4043 9.11238 51.1798 9.19968L50.4939 9.44081L49.8121 9.68608C49.5876 9.76506 49.359 9.84405 49.1303 9.93135L48.4485 10.1725C48.2199 10.2514 47.9954 10.3304 47.7668 10.4177L47.085 10.6589L46.4032 10.9041C46.1746 10.9831 45.9459 11.0621 45.7215 11.1494L45.0397 11.3905L44.3579 11.6358C44.1292 11.7148 43.9006 11.7938 43.6761 11.8811L42.9943 12.1222C42.7657 12.2012 42.537 12.2802 42.3125 12.3675L41.6308 12.6086L40.949 12.8538C40.7204 12.9328 40.4917 13.0118 40.2673 13.0991L39.5855 13.3402L38.8995 13.5855C38.675 13.6645 38.4464 13.7435 38.2177 13.8308L37.536 14.0719C37.3073 14.1509 37.0828 14.2299 36.8542 14.3172C36.6255 14.4045 36.4011 14.4751 36.1725 14.5624L35.4907 14.8036C35.262 14.8825 35.0334 14.9615 34.8089 15.0488L34.1271 15.2899L33.4453 15.5352C33.2167 15.6142 32.988 15.6932 32.7635 15.7805L32.0818 16.0216C31.8531 16.1006 31.6245 16.1796 31.4 16.2669C31.1755 16.3542 30.9427 16.4248 30.7182 16.5121L30.0365 16.7533C29.8078 16.8323 29.5792 16.9112 29.3547 16.9985L28.6687 17.2396L27.9911 17.4849C27.7625 17.5639 27.5338 17.6429 27.3093 17.7302L26.6234 17.9713C26.3947 18.0503 26.1703 18.1293 25.9416 18.2166C25.713 18.3039 25.4885 18.3746 25.2599 18.4619C25.0312 18.5492 24.8067 18.6198 24.5781 18.703C24.3495 18.7861 24.1208 18.861 23.8963 18.9483L23.2145 19.1894L22.5328 19.4346C22.3041 19.5136 22.0755 19.5926 21.851 19.6799L21.1692 19.921C20.9405 20 20.7119 20.079 20.4874 20.1663C20.2629 20.2536 20.0301 20.3243 19.8056 20.4116C19.5811 20.4989 19.3484 20.5696 19.1239 20.6527C18.8994 20.7358 18.6666 20.8107 18.4421 20.898C18.2176 20.9853 17.9848 21.0559 17.7603 21.1432C17.5358 21.2305 17.303 21.3012 17.0785 21.3843C16.8541 21.4675 16.6213 21.5423 16.3968 21.6296L15.715 21.8707C15.4822 21.9497 15.2577 22.0287 15.029 22.116C14.8004 22.2033 14.5759 22.274 14.3514 22.3613C14.1269 22.4486 13.8942 22.5193 13.6655 22.6024C13.4369 22.6856 13.2124 22.7604 12.9837 22.8477C9.19833 24.1309 5.91014 26.568 3.5813 29.8164C1.25245 33.0649 0 36.9614 0 40.9584C0 44.9554 1.25245 48.8519 3.5813 52.1004C5.91014 55.3488 9.19833 57.7859 12.9837 59.0691C13.2124 59.1564 13.4369 59.2354 13.6655 59.3144C13.8942 59.3934 14.1187 59.4806 14.3473 59.5596C14.576 59.6386 14.8004 59.7259 15.029 59.8008C15.2577 59.8756 15.4822 59.9671 15.715 60.046C15.9478 60.125 16.1681 60.2123 16.3968 60.2913C16.6254 60.3703 16.8499 60.4576 17.0785 60.5324C17.3072 60.6072 17.5317 60.6987 17.7603 60.7777C17.989 60.8567 18.2135 60.944 18.4421 61.0188C18.6708 61.0936 18.8952 61.1851 19.1239 61.2641C19.3525 61.3431 19.577 61.4304 19.8056 61.5093C20.0343 61.5883 20.2588 61.6756 20.4874 61.7505C20.7161 61.8253 20.9405 61.9168 21.1692 61.9958C21.3978 62.0747 21.6223 62.162 21.851 62.241L22.5328 62.4821C22.7572 62.5694 22.9859 62.6484 23.2145 62.7274L23.8963 62.9727L24.5781 63.2138C24.8067 63.3011 25.0312 63.3801 25.2599 63.4591C25.4885 63.538 25.713 63.6254 25.9416 63.7002C26.1703 63.775 26.3948 63.8665 26.6276 63.9455C26.8604 64.0245 27.0807 64.1117 27.3052 64.1907L27.9911 64.4318C28.2156 64.5191 28.4443 64.5981 28.6687 64.6771L29.3547 64.9224L30.0365 65.1635C30.261 65.2508 30.4896 65.3298 30.7182 65.4088C30.9468 65.4878 31.1713 65.5751 31.4 65.6499C31.6286 65.7247 31.8531 65.8162 32.0818 65.8952C32.3104 65.9742 32.5349 66.0615 32.7635 66.1404L33.4453 66.3816C33.6698 66.4689 33.8985 66.5478 34.1271 66.6268L34.8089 66.8721L35.4907 67.1132C35.7152 67.2005 35.9438 67.2795 36.1725 67.3585L36.8542 67.6038L37.536 67.8449C37.7646 67.9322 37.9933 68.0112 38.2177 68.0901L38.8995 68.3313C39.1282 68.4186 39.3568 68.4975 39.5855 68.5765L40.2673 68.8218L40.949 69.0629C41.1735 69.1502 41.4021 69.2292 41.6308 69.3082L42.3125 69.5535L42.9943 69.7946C43.2188 69.8819 43.4475 69.9609 43.6761 70.0399L44.3579 70.2851L45.0397 70.5262L45.7215 70.7715L46.4032 71.0127C46.6277 71.1 46.8564 71.1789 47.085 71.2579L47.7668 71.5032L48.4485 71.7443C48.6772 71.8316 48.9017 71.9106 49.1303 71.9896L49.8121 72.2307C50.0407 72.318 50.2694 72.397 50.4939 72.476C50.7184 72.5549 50.9512 72.6423 51.1757 72.7212L51.8616 72.9624C52.0861 73.0497 52.3147 73.1286 52.5392 73.2076L53.2251 73.4529L53.9069 73.694C54.1314 73.7813 54.36 73.8603 54.5887 73.9393L55.2705 74.1846L55.9522 74.4257L56.555 74.6419C56.8419 74.7499 57.1329 74.858 57.4239 74.9578L58.1015 75.2031L58.7874 75.4442L59.4692 75.6895L60.1468 75.9306C60.3755 76.0179 60.6041 76.0969 60.8328 76.1758L61.5145 76.4211L62.1963 76.6622L63.5598 77.1528L64.2416 77.3939L64.9234 77.6392L65.6052 77.8803C65.8338 77.9676 66.0583 78.0466 66.287 78.1256L66.9688 78.3708L67.6505 78.6119L69.0141 79.1025L69.6958 79.3436L70.3776 79.5889L71.0635 79.8342L71.7453 80.0753L72.4271 80.3205L73.1089 80.5617C73.3334 80.649 73.562 80.728 73.7907 80.8069L74.4724 81.0522L75.1542 81.2933L76.5178 81.7839L77 81.9543C69.2949 78.2351 62.7939 72.4197 58.2425 65.175C53.6911 57.9303 51.2736 49.5495 51.2671 40.9937Z" fill="url(#paint0_linear_729_2413)"/>
<path d="M24.2081 41.3637H27.617L24.0252 54.8246H20.6371L18.9202 46.8553L17.2074 54.8246H13.8359L10.373 41.3637H13.8443L15.5778 49.0129L17.3737 41.3637H20.6454L22.3789 49.1958L24.2081 41.3637Z" fill="white"/>
<path d="M35.3451 30.871H38.4131V40.2163H35.3451V39.1646C34.9616 39.6281 34.4762 39.9969 33.9267 40.242C33.3772 40.4872 32.7786 40.6022 32.1774 40.578C29.5168 40.578 27.6045 38.541 27.6045 35.6767C27.6045 32.6877 29.6457 30.5094 32.4476 30.5094C33.6407 30.5094 34.4472 30.8918 35.3576 31.8812L35.3451 30.871ZM30.8679 35.6143C30.8679 37.0486 31.8365 38.1585 33.0878 38.1585C34.3391 38.1585 35.3867 36.9862 35.3867 35.5728C35.3867 34.0804 34.4389 33.0535 33.1086 33.0535C31.7783 33.0535 30.8679 34.1219 30.8679 35.6143Z" fill="white"/>
<path d="M43.435 30.871V32.1431C43.5411 31.6423 43.8282 31.1982 44.2415 30.896C44.6392 30.6234 45.1104 30.4784 45.5926 30.4802H45.896V33.6272C45.6757 33.6064 45.4512 33.5856 45.3307 33.5856C45.0245 33.5721 44.7196 33.6331 44.4423 33.7634C44.1649 33.8938 43.9234 34.0895 43.7385 34.3339C43.4932 34.6582 43.435 34.9991 43.435 35.7848V40.1872H40.367V30.871H43.435Z" fill="white"/>
<path d="M50.3317 40.2163H47.2638V26.7554H50.3317V34.2009L52.4103 30.8752H55.8816L53.1545 35.315L55.8816 40.2205H52.4103L50.3317 36.479V40.2163Z" fill="white"/>
<path d="M60.7579 37.0652C60.7579 37.51 60.9201 37.6306 61.5062 37.6721H63.2439V40.2163H59.465C58.1555 40.1748 57.6691 39.6302 57.6899 38.2791V33.3528H56.7421V30.8128H57.6899V28.5222H60.7579V30.8253H61.8263V33.3653H60.7579V37.0652Z" fill="white"/>
<path d="M13.7736 40.2163H10.373L13.9648 26.7554H17.3529L19.0698 34.7247L20.7868 26.7554H24.1541L27.6253 40.2163H24.1541L22.4205 32.5671L20.6246 40.2163H17.3529L15.6194 32.3842L13.7736 40.2163Z" fill="white"/>
<path d="M38.0889 50.2642C38.0889 53.0287 35.7692 55.1863 32.8259 55.1863C29.7953 55.1863 27.5962 53.1077 27.5962 50.1644C27.5962 47.2212 29.7579 45.1176 32.8633 45.1176C35.8897 45.1176 38.0889 47.2794 38.0889 50.2642ZM30.6642 50.1644C30.6642 51.5363 31.5538 52.4841 32.8426 52.4841C33.1369 52.4912 33.4295 52.4368 33.7016 52.3243C33.9738 52.2118 34.2194 52.0437 34.4229 51.8309C34.6264 51.618 34.7832 51.365 34.8833 51.0881C34.9834 50.8112 35.0246 50.5164 35.0043 50.2226C35.0043 48.7302 34.1978 47.8447 32.8633 47.8447C31.5289 47.8447 30.6642 48.7718 30.6642 50.1644Z" fill="white"/>
<path d="M49.7747 50.2642C49.7747 53.0287 47.455 55.1863 44.5075 55.1863C41.4811 55.1863 39.282 53.1077 39.282 50.1644C39.282 47.2212 41.4395 45.1176 44.5491 45.1176C47.5755 45.1176 49.7747 47.2794 49.7747 50.2642ZM42.35 50.1644C42.35 51.5363 43.2355 52.4841 44.5284 52.4841C44.8226 52.4913 45.115 52.4368 45.3869 52.3243C45.6589 52.2117 45.9043 52.0436 46.1074 51.8307C46.3106 51.6177 46.467 51.3647 46.5666 51.0878C46.6662 50.8109 46.7068 50.5162 46.6859 50.2226C46.6859 48.7302 45.8794 47.8447 44.5491 47.8447C43.2188 47.8447 42.35 48.7718 42.35 50.1644Z" fill="white"/>
<path d="M55.5033 48.248V48.0609C55.4822 47.8455 55.3778 47.6467 55.2125 47.507C55.0471 47.3672 54.8338 47.2975 54.6178 47.3126C54.5282 47.3029 54.4376 47.3117 54.3515 47.3384C54.2654 47.3652 54.1858 47.4094 54.1175 47.4683C54.0493 47.5272 53.9939 47.5995 53.9548 47.6807C53.9157 47.7619 53.8938 47.8503 53.8903 47.9404C53.8903 48.3228 54.173 48.5432 54.9587 48.7718C57.5819 49.5159 58.5297 50.3848 58.5297 52.0185C58.5297 53.9142 57.0165 55.1863 54.7383 55.1863C52.4602 55.1863 51.026 53.9974 50.9636 52.0393H53.8737C53.9942 52.7253 54.2187 52.9871 54.7425 52.9871C54.8331 52.9922 54.9239 52.9788 55.0092 52.9477C55.0945 52.9166 55.1725 52.8685 55.2386 52.8063C55.3048 52.7441 55.3575 52.669 55.3937 52.5858C55.4299 52.5025 55.4488 52.4128 55.4492 52.322C55.4492 51.9063 55.1457 51.6776 53.8944 51.2744C51.8574 50.6259 50.9844 49.678 50.9844 48.2064C50.9844 46.3481 52.4976 45.1176 54.7591 45.1176C57.0206 45.1176 58.3509 46.29 58.3717 48.248H55.5033Z" fill="white"/>
<path d="M63.2522 46.3482C63.5307 45.9655 63.895 45.6533 64.3159 45.4367C64.7368 45.2201 65.2026 45.1052 65.6759 45.101C66.5133 45.1165 67.319 45.4238 67.954 45.9698C68.6025 46.556 68.8436 47.2794 68.8436 48.6928V54.808H65.7756V49.2166C65.7756 48.2854 65.2934 47.6618 64.5285 47.6618C63.7636 47.6618 63.2356 48.2272 63.2356 49.2166V54.8246H60.1718V41.3637H63.2356L63.2522 46.3482Z" fill="white"/>
</g>
<defs>
<linearGradient id="paint0_linear_729_2413" x1="38.4713" y1="2.94731" x2="38.4713" y2="78.903" gradientUnits="userSpaceOnUse">
<stop stop-color="#85EB18"/>
<stop offset="1" stop-color="#10C224"/>
</linearGradient>
</defs>
</svg>
