<svg width="77" height="82" viewBox="0 0 77 82" fill="none" xmlns="http://www.w3.org/2000/svg">
<path d="M51.2671 41.0167C51.265 32.4574 53.6762 24.0709 58.2242 16.8198C62.7722 9.56879 69.2726 3.74705 76.9792 0.0228271L75.8152 0.434383L74.4517 0.924926L73.7699 1.16605L72.4063 1.65659L71.7245 1.8977L71.0386 2.14297C70.8141 2.22196 70.5855 2.30094 70.361 2.38825L69.6751 2.62937L68.9933 2.87464L68.3157 3.11575L67.6297 3.36103L66.9479 3.60631L66.2662 3.84742L65.5844 4.09269C65.3558 4.17167 65.1271 4.25066 64.9026 4.33796L64.2209 4.57908L63.5391 4.82435L62.8573 5.06546L61.4937 5.55602L60.812 5.79713L60.1302 6.0424C59.9015 6.12139 59.6729 6.20037 59.4484 6.28767L58.7625 6.5288L58.0849 6.77407C57.8562 6.85305 57.6276 6.93204 57.3989 7.01934C57.1703 7.10664 56.8211 7.22304 56.5343 7.33113L55.9314 7.54729L55.2705 7.75931L54.5887 8.00042L53.9069 8.24571C53.6783 8.32469 53.4496 8.40368 53.2251 8.49098L52.5433 8.73209L51.8616 8.97736C51.633 9.05635 51.4043 9.13533 51.1798 9.22263L50.4939 9.46376L49.8121 9.70903C49.5876 9.78801 49.359 9.867 49.1303 9.9543L48.4485 10.1954C48.2199 10.2744 47.9954 10.3534 47.7668 10.4407L47.085 10.6818L46.4032 10.9271C46.1746 11.0061 45.9459 11.085 45.7215 11.1723L45.0397 11.4135L44.3579 11.6587C44.1292 11.7377 43.9006 11.8167 43.6761 11.904L42.9943 12.1451C42.7657 12.2241 42.537 12.3031 42.3125 12.3904L41.6308 12.6315L40.949 12.8768C40.7204 12.9558 40.4917 13.0348 40.2673 13.1221L39.5855 13.3632L38.8995 13.6085C38.675 13.6874 38.4464 13.7664 38.2177 13.8537L37.536 14.0948C37.3073 14.1738 37.0828 14.2528 36.8542 14.3401C36.6255 14.4274 36.4011 14.4981 36.1725 14.5854L35.4907 14.8265C35.262 14.9055 35.0334 14.9845 34.8089 15.0718L34.1271 15.3129L33.4453 15.5582C33.2167 15.6372 32.988 15.7161 32.7635 15.8034L32.0818 16.0445C31.8531 16.1235 31.6245 16.2025 31.4 16.2898C31.1755 16.3771 30.9427 16.4478 30.7182 16.5351L30.0365 16.7762C29.8078 16.8552 29.5792 16.9342 29.3547 17.0215L28.6687 17.2626L27.9911 17.5079C27.7625 17.5869 27.5338 17.6659 27.3093 17.7532L26.6234 17.9943C26.3948 18.0732 26.1703 18.1522 25.9416 18.2395C25.713 18.3268 25.4885 18.3975 25.2599 18.4848C25.0312 18.5721 24.8067 18.6428 24.5781 18.7259C24.3495 18.8091 24.1208 18.8839 23.8963 18.9712L23.2145 19.2123L22.5328 19.4576C22.3041 19.5366 22.0755 19.6156 21.851 19.7029L21.1692 19.944C20.9405 20.023 20.7119 20.1019 20.4874 20.1892C20.2629 20.2765 20.0301 20.3472 19.8056 20.4345C19.5811 20.5218 19.3484 20.5925 19.1239 20.6756C18.8994 20.7588 18.6666 20.8336 18.4421 20.9209C18.2176 21.0082 17.9848 21.0789 17.7603 21.1662C17.5358 21.2535 17.303 21.3242 17.0785 21.4073C16.8541 21.4904 16.6213 21.5653 16.3968 21.6526L15.715 21.8937C15.4822 21.9727 15.2577 22.0517 15.029 22.139C14.8004 22.2263 14.5759 22.2969 14.3514 22.3842C14.1269 22.4715 13.8942 22.5422 13.6655 22.6254C13.4369 22.7085 13.2124 22.7833 12.9837 22.8706C9.19833 24.1538 5.91014 26.5909 3.5813 29.8394C1.25245 33.0878 0 36.9843 0 40.9813C0 44.9783 1.25245 48.8749 3.5813 52.1233C5.91014 55.3718 9.19833 57.8088 12.9837 59.092C13.2124 59.1793 13.4369 59.2583 13.6655 59.3373C13.8942 59.4163 14.1187 59.5036 14.3473 59.5826C14.576 59.6616 14.8004 59.7489 15.029 59.8237C15.2577 59.8985 15.4822 59.99 15.715 60.069C15.9478 60.148 16.1681 60.2353 16.3968 60.3142C16.6254 60.3932 16.8499 60.4805 17.0785 60.5554C17.3072 60.6302 17.5317 60.7217 17.7603 60.8007C17.989 60.8796 18.2135 60.9669 18.4421 61.0418C18.6708 61.1166 18.8953 61.208 19.1239 61.287C19.3525 61.366 19.577 61.4533 19.8056 61.5323C20.0343 61.6113 20.2588 61.6986 20.4874 61.7734C20.7161 61.8482 20.9405 61.9397 21.1692 62.0187C21.3978 62.0977 21.6223 62.185 21.851 62.264L22.5328 62.5051C22.7572 62.5924 22.9859 62.6714 23.2145 62.7504L23.8963 62.9956L24.5781 63.2367C24.8067 63.3241 25.0312 63.403 25.2599 63.482C25.4885 63.561 25.713 63.6483 25.9416 63.7231C26.1703 63.798 26.3948 63.8894 26.6276 63.9684C26.8604 64.0474 27.0807 64.1347 27.3052 64.2137L27.9911 64.4548C28.2156 64.5421 28.4443 64.6211 28.6687 64.7001L29.3547 64.9453L30.0365 65.1865C30.261 65.2738 30.4895 65.3527 30.7182 65.4317C30.9468 65.5107 31.1713 65.598 31.4 65.6728C31.6286 65.7477 31.8531 65.8391 32.0818 65.9181C32.3104 65.9971 32.5349 66.0844 32.7635 66.1634L33.4453 66.4045C33.6698 66.4918 33.8985 66.5708 34.1271 66.6498L34.8089 66.8951L35.4907 67.1362C35.7152 67.2235 35.9438 67.3025 36.1725 67.3814L36.8542 67.6267L37.536 67.8678C37.7646 67.9551 37.9933 68.0341 38.2177 68.1131L38.8995 68.3542C39.1282 68.4415 39.3568 68.5205 39.5855 68.5995L40.2673 68.8448L40.949 69.0859C41.1735 69.1732 41.4021 69.2522 41.6308 69.3311L42.3125 69.5764L42.9943 69.8176C43.2188 69.9049 43.4475 69.9838 43.6761 70.0628L44.3579 70.3081L45.0397 70.5492L45.7215 70.7945L46.4032 71.0356C46.6277 71.1229 46.8564 71.2019 47.085 71.2809L47.7668 71.5261L48.4485 71.7672C48.6772 71.8545 48.9017 71.9335 49.1303 72.0125L49.8121 72.2537C50.0407 72.341 50.2694 72.4199 50.4939 72.4989C50.7184 72.5779 50.9512 72.6652 51.1757 72.7442L51.8616 72.9853C52.0861 73.0726 52.3147 73.1516 52.5392 73.2306L53.2251 73.4759L53.9069 73.717C54.1314 73.8043 54.36 73.8833 54.5887 73.9622L55.2705 74.2075L55.9522 74.4486L56.555 74.6648C56.8419 74.7729 57.1329 74.881 57.4239 74.9808L58.1015 75.226L58.7874 75.4671L59.4692 75.7124L60.1468 75.9535C60.3755 76.0408 60.6041 76.1198 60.8328 76.1988L61.5145 76.4441L62.1963 76.6852L63.5598 77.1757L64.2416 77.4168L64.9234 77.6621L65.6052 77.9032C65.8338 77.9905 66.0583 78.0695 66.287 78.1485L66.9688 78.3938L67.6505 78.6349L69.0141 79.1254L69.6958 79.3666L70.3776 79.6118L71.0635 79.8571L71.7453 80.0982L72.4271 80.3435L73.1089 80.5846C73.3334 80.6719 73.562 80.7509 73.7907 80.8299L74.4724 81.0752L75.1542 81.3163L76.5178 81.8068L77 81.9773C69.2949 78.2581 62.7939 72.4427 58.2425 65.1979C53.6911 57.9532 51.2736 49.5724 51.2671 41.0167Z" fill="url(#paint0_linear_466_474)"/>
<path d="M24.2081 41.3867H27.617L24.0252 54.8476H20.6371L18.9202 46.8783L17.2074 54.8476H13.8359L10.373 41.3867H13.8443L15.5778 49.0358L17.3737 41.3867H20.6454L22.3789 49.2188L24.2081 41.3867Z" fill="white"/>
<path d="M35.3451 30.894H38.4131V40.2393H35.3451V39.1875C34.9616 39.6511 34.4762 40.0198 33.9267 40.265C33.3772 40.5102 32.7786 40.6251 32.1774 40.601C29.5168 40.601 27.6045 38.5639 27.6045 35.6997C27.6045 32.7107 29.6457 30.5323 32.4476 30.5323C33.6407 30.5323 34.4472 30.9148 35.3576 31.9042L35.3451 30.894ZM30.8679 35.6373C30.8679 37.0715 31.8365 38.1815 33.0878 38.1815C34.3391 38.1815 35.3867 37.0092 35.3867 35.5957C35.3867 34.1033 34.4389 33.0765 33.1086 33.0765C31.7783 33.0765 30.8679 34.1449 30.8679 35.6373Z" fill="white"/>
<path d="M43.435 30.894V32.1661C43.5411 31.6652 43.8282 31.2211 44.2415 30.9189C44.6392 30.6463 45.1104 30.5013 45.5926 30.5032H45.896V33.6502C45.6757 33.6294 45.4512 33.6086 45.3307 33.6086C45.0245 33.595 44.7196 33.656 44.4423 33.7864C44.1649 33.9167 43.9234 34.1125 43.7385 34.3569C43.4932 34.6811 43.435 35.022 43.435 35.8077V40.2102H40.367V30.894H43.435Z" fill="white"/>
<path d="M50.3317 40.2393H47.2638V26.7784H50.3317V34.2238L52.4103 30.8981H55.8816L53.1545 35.338L55.8816 40.2434H52.4103L50.3317 36.502V40.2393Z" fill="white"/>
<path d="M60.7579 37.0881C60.7579 37.533 60.9201 37.6535 61.5062 37.6951H63.2439V40.2393H59.465C58.1555 40.1977 57.6691 39.6531 57.6899 38.302V33.3758H56.7421V30.8358H57.6899V28.5452H60.7579V30.8482H61.8263V33.3883H60.7579V37.0881Z" fill="white"/>
<path d="M13.7736 40.2393H10.373L13.9648 26.7784H17.3529L19.0698 34.7477L20.7868 26.7784H24.1541L27.6253 40.2393H24.1541L22.4205 32.5901L20.6246 40.2393H17.3529L15.6194 32.4072L13.7736 40.2393Z" fill="white"/>
<path d="M38.0889 50.2872C38.0889 53.0517 35.7692 55.2093 32.8259 55.2093C29.7953 55.2093 27.5962 53.1307 27.5962 50.1874C27.5962 47.2441 29.7579 45.1406 32.8633 45.1406C35.8897 45.1406 38.0889 47.3023 38.0889 50.2872ZM30.6642 50.1874C30.6642 51.5593 31.5538 52.5071 32.8426 52.5071C33.1369 52.5142 33.4295 52.4597 33.7016 52.3472C33.9738 52.2347 34.2194 52.0667 34.4229 51.8538C34.6264 51.6409 34.7832 51.388 34.8833 51.1111C34.9834 50.8341 35.0246 50.5394 35.0043 50.2456C35.0043 48.7532 34.1978 47.8677 32.8633 47.8677C31.5289 47.8677 30.6642 48.7947 30.6642 50.1874Z" fill="white"/>
<path d="M49.7747 50.2872C49.7747 53.0517 47.455 55.2093 44.5075 55.2093C41.4811 55.2093 39.282 53.1307 39.282 50.1874C39.282 47.2441 41.4395 45.1406 44.5491 45.1406C47.5755 45.1406 49.7747 47.3023 49.7747 50.2872ZM42.35 50.1874C42.35 51.5593 43.2355 52.5071 44.5284 52.5071C44.8226 52.5142 45.115 52.4597 45.3869 52.3472C45.6589 52.2347 45.9043 52.0666 46.1074 51.8536C46.3106 51.6407 46.467 51.3877 46.5666 51.1107C46.6662 50.8338 46.7068 50.5391 46.6859 50.2456C46.6859 48.7532 45.8794 47.8677 44.5491 47.8677C43.2188 47.8677 42.35 48.7947 42.35 50.1874Z" fill="white"/>
<path d="M55.5033 48.2709V48.0839C55.4822 47.8684 55.3778 47.6697 55.2125 47.5299C55.0471 47.3902 54.8338 47.3205 54.6178 47.3356C54.5282 47.3258 54.4376 47.3346 54.3515 47.3614C54.2654 47.3882 54.1858 47.4324 54.1175 47.4912C54.0493 47.5501 53.9939 47.6224 53.9548 47.7036C53.9157 47.7849 53.8938 47.8732 53.8903 47.9633C53.8903 48.3458 54.173 48.5661 54.9587 48.7947C57.5819 49.5389 58.5297 50.4077 58.5297 52.0415C58.5297 53.9372 57.0165 55.2093 54.7383 55.2093C52.4602 55.2093 51.026 54.0203 50.9636 52.0623H53.8737C53.9942 52.7482 54.2187 53.0101 54.7425 53.0101C54.8331 53.0152 54.9239 53.0018 55.0092 52.9707C55.0945 52.9396 55.1725 52.8915 55.2386 52.8292C55.3048 52.767 55.3575 52.692 55.3937 52.6087C55.4299 52.5255 55.4488 52.4357 55.4492 52.345C55.4492 51.9292 55.1457 51.7006 53.8944 51.2973C51.8574 50.6488 50.9844 49.701 50.9844 48.2294C50.9844 46.3711 52.4976 45.1406 54.7591 45.1406C57.0206 45.1406 58.3509 46.3129 58.3717 48.2709H55.5033Z" fill="white"/>
<path d="M63.2522 46.3711C63.5307 45.9884 63.895 45.6762 64.3159 45.4597C64.7368 45.2431 65.2026 45.1281 65.6759 45.124C66.5133 45.1394 67.319 45.4467 67.954 45.9928C68.6025 46.579 68.8436 47.3023 68.8436 48.7158V54.8309H65.7756V49.2396C65.7756 48.3084 65.2934 47.6848 64.5285 47.6848C63.7636 47.6848 63.2356 48.2502 63.2356 49.2396V54.8476H60.1718V41.3867H63.2356L63.2522 46.3711Z" fill="white"/>
<defs>
<linearGradient id="paint0_linear_466_474" x1="38.4713" y1="2.97026" x2="38.4713" y2="78.9259" gradientUnits="userSpaceOnUse">
<stop stop-color="#85EB18"/>
<stop offset="1" stop-color="#10C224"/>
</linearGradient>
</defs>
</svg>
