<svg width="27" height="27" viewBox="0 0 27 27" fill="none" xmlns="http://www.w3.org/2000/svg">
<g clip-path="url(#clip0_466_385)">
<path d="M16.3344 23.1802L16.3466 23.1887C17.3959 23.8569 18.6419 24.147 19.8785 24.0112C21.1151 23.8754 22.2684 23.3218 23.1478 22.4418L23.9117 21.6778C24.081 21.5087 24.2153 21.3078 24.3069 21.0867C24.3985 20.8656 24.4457 20.6286 24.4457 20.3893C24.4457 20.1499 24.3985 19.9129 24.3069 19.6918C24.2153 19.4707 24.081 19.2698 23.9117 19.1007L20.6896 15.881C20.5204 15.7117 20.3196 15.5774 20.0985 15.4858C19.8774 15.3942 19.6404 15.347 19.401 15.347C19.1617 15.347 18.9247 15.3942 18.7036 15.4858C18.4825 15.5774 18.2816 15.7117 18.1124 15.881C17.7708 16.2225 17.3075 16.4144 16.8245 16.4144C16.3414 16.4144 15.8781 16.2225 15.5365 15.881L10.3845 10.7279C10.043 10.3862 9.85115 9.92293 9.85115 9.43987C9.85115 8.9568 10.043 8.49351 10.3845 8.15188C10.5538 7.9827 10.6881 7.78182 10.7797 7.56072C10.8714 7.33962 10.9185 7.10263 10.9185 6.86329C10.9185 6.62395 10.8714 6.38697 10.7797 6.16586C10.6881 5.94476 10.5538 5.74388 10.3845 5.5747L7.16367 2.35504C6.82204 2.01351 6.35875 1.82166 5.87568 1.82166C5.39262 1.82166 4.92933 2.01351 4.5877 2.35504L3.82256 3.11897C2.94276 3.99849 2.38934 5.15184 2.25376 6.38846C2.11817 7.62507 2.40853 8.87094 3.07685 9.9202L3.08414 9.93235C6.61372 15.1545 11.1116 19.6516 16.3344 23.1802V23.1802Z" stroke="white" stroke-width="1.86667" stroke-linecap="round" stroke-linejoin="round"/>
</g>
<defs>
<clipPath id="clip0_466_385">
<rect width="26.6667" height="26.6667" fill="white"/>
</clipPath>
</defs>
</svg>
